# ABC bottle geometry; canonical radius 1 and height 1, bottom z=0.
# https://github.com/mikedh/trimesh
v -0.351254084684 -0.753264739336 0.64986739
v -0.374752864296 -0.803655730141 0.59864673
v -0.0772853238787 -0.883362528275 0.59864673
v -0.0724380631647 -0.827972733549 0.64986739
v -0.395863366787 -0.848927449076 0.53004423
v -0.0816382553092 -0.933124279382 0.53004423
v 0.242432920802 -0.904772078763 0.53004423
v 0.229502876633 -0.856522200436 0.59864673
v 0.21511284304 -0.802816698245 0.64986739
v 0.537262966026 -0.767291315646 0.53004423
v 0.50861171741 -0.726372528141 0.59864673
v 0.476720702296 -0.680826607723 0.64986739
v 0.767291315646 -0.537262966026 0.53004423
v 0.726372528141 -0.50861171741 0.59864673
v 0.680826607723 -0.476720702296 0.64986739
v 0.904772078763 -0.242432920802 0.53004423
v 0.856522200436 -0.229504930064 0.59864673
v 0.802814644814 -0.21511284304 0.64986739
v 0.933124279382 0.0816382553092 0.53004423
v 0.883362528275 0.0772853238787 0.59864673
v 0.883362528275 0.0772853238787 0.59864673
v 0.827972733549 0.0724380631647 0.64986739
v 0.848927449076 0.395863366787 0.53004423
v 0.803655730141 0.374750810865 0.59864673
v 0.883362528275 0.0772853238787 0.59864673
v 0.933124279382 0.0816382553092 0.53004423
v 0.753264739336 0.351254084684 0.64986739
v 0.827972733549 0.0724380631647 0.64986739
v 0.662339157961 0.662339157961 0.53004423
v 0.627017270372 0.627017270372 0.59864673
v 0.587701733326 0.587701733326 0.64986739
v 0.395861244908 0.848929502507 0.53004423
v 0.374750810865 0.803657783572 0.59864673
v 0.351252031253 0.753264739336 0.64986739
v 0.0816382553092 0.933124279382 0.53004423
v 0.077283202 0.883362528275 0.59864673
v 0.0724380631647 0.82797478698 0.64986739
v -0.242432920802 0.904772078763 0.53004423
v -0.229504930064 0.856522200436 0.59864673
v -0.215114964919 0.802816698245 0.64986739
v -0.537262966026 0.767291315646 0.53004423
v -0.50861171741 0.726372528141 0.59864673
v -0.476720702296 0.680826607723 0.64986739
v -0.767291315646 0.537262966026 0.53004423
v -0.726372528141 0.50861171741 0.59864673
v -0.680826607723 0.476720702296 0.64986739
v -0.904772078763 0.242432920802 0.53004423
v -0.856522200436 0.229504930064 0.59864673
v -0.802816698245 0.215114964919 0.64986739
v -0.933126332812 -0.0816361334305 0.53004423
v -0.883362528275 -0.077283202 0.59864673
v -0.82797478698 -0.0724380631647 0.64986739
v -0.848929502507 -0.395861244908 0.53004423
v -0.803657783572 -0.374750810865 0.59864673
v -0.753266792767 -0.351252031253 0.64986739
v -0.662341211392 -0.662339157961 0.53004423
v -0.627019323803 -0.627017270372 0.59864673
v -0.587703786757 -0.587701733326 0.64986739
v 0.249088980415 -0.929612433279 0.40353025
v 0.246574006604 -0.920229554225 0.45875261
v -0.0830338354481 -0.949065611629 0.45875261
v -0.0838790960855 -0.958743431819 0.40353025
v -0.40262531499 -0.863429600001 0.45875261
v -0.406731150226 -0.872235122712 0.40353025
v 0.552012281592 -0.788356095074 0.40353025
v 0.546440296639 -0.780397886431 0.45875261
v 0.788356095074 -0.552012281592 0.40353025
v 0.780397886431 -0.546440296639 0.45875261
v 0.929612433279 -0.249088980415 0.40353025
v 0.920227432347 -0.246574006604 0.45875261
v 0.958743431819 0.0838790960855 0.40353025
v 0.949065611629 0.0830338354481 0.45875261
v 0.920227432347 -0.246574006604 0.45875261
v 0.929612433279 -0.249088980415 0.40353025
v 0.920227432347 -0.246574006604 0.45875261
v 0.904772078763 -0.242432920802 0.53004423
v 0.872235122712 0.406731150226 0.40353025
v 0.863429600001 0.40262531499 0.45875261
v 0.680523452864 0.680523452864 0.40353025
v 0.673653425743 0.673655547622 0.45875261
v 0.406729028348 0.872235122712 0.40353025
v 0.402623261559 0.863431653432 0.45875261
v 0.0838790960855 0.958743431819 0.40353025
v 0.0830317135694 0.949065611629 0.45875261
v -0.249088980415 0.929612433279 0.40353025
v -0.246576060035 0.920229554225 0.45875261
v -0.552014335023 0.788358148505 0.40353025
v -0.54644235007 0.780399939862 0.45875261
v -0.788356095074 0.552014335023 0.40353025
v -0.780399939862 0.54644235007 0.45875261
v -0.929612433279 0.249088980415 0.40353025
v -0.920229554225 0.246576060035 0.45875261
v -0.958743431819 -0.0838790960855 0.40353025
v -0.949065611629 -0.0830317135694 0.45875261
v -0.87223724459 -0.406729028348 0.40353025
v -0.863431653432 -0.402623261559 0.45875261
v -0.680523452864 -0.680523452864 0.40353025
v -0.673655547622 -0.673653425743 0.45875261
vn -0.152012601316 -0.325988563262 0.933072143869
vn -0.313557050857 -0.672389038926 0.670503509454
vn -0.0646579186642 -0.739075912377 0.670511856195
vn -0.0313789638869 -0.358721221916 0.932917169728
vn -0.38198053763 -0.819138053288 0.427906202955
vn -0.0787321487727 -0.900391327763 0.427898008454
vn 0.233931211058 -0.873029113201 0.427897599896
vn 0.192026809798 -0.716620713443 0.670507611727
vn 0.0931298711697 -0.347620720118 0.932998747074
vn 0.51840988469 -0.740378471411 0.427891236796
vn 0.425515700321 -0.607740589657 0.670513060622
vn 0.206425580693 -0.294783733878 0.933001087822
vn 0.740378471411 -0.51840988469 0.427891236796
vn 0.607740589657 -0.425515700321 0.670513060622
vn 0.294783733878 -0.206425580693 0.933001087822
vn 0.86929970904 -0.232865862175 0.43599484641
vn 0.716620713443 -0.192026809798 0.670507611727
vn 0.347620720118 -0.0931298711697 0.932998747074
vn 0.889912482467 0.0780184952222 0.449409488054
vn 0.747099315755 0.0655602319393 0.661471441853
vn 0.731843812456 0.0643476944089 0.678427599965
vn 0.358894195247 0.031702256148 0.932839709475
vn 0.819138053288 0.38198053763 0.427906202955
vn 0.672389038926 0.313557050857 0.670503509454
vn 0.739127697608 0.0642817325987 0.670490943625
vn 0.903513627237 0.0788154012155 0.42124963849
vn 0.326068660973 0.152049954445 0.933038069794
vn 0.358934699861 0.031086100489 0.932844861481
vn 0.639101538022 0.639101538022 0.427900044631
vn 0.524599665962 0.524599665962 0.670515011722
vn 0.254491069092 0.254452586395 0.932999558965
vn 0.38198053763 0.819138053288 0.427906202955
vn 0.313557050857 0.672389038926 0.670503509454
vn 0.152049954445 0.326068660973 0.933038069794
vn 0.0787321487727 0.900391327763 0.427898008454
vn 0.0646579186642 0.739075912377 0.670511856195
vn 0.031356265718 0.35842328385 0.933032440055
vn -0.233931211058 0.873029113201 0.427897599896
vn -0.192026809798 0.716620713443 0.670507611727
vn -0.0931069898156 0.34753530783 0.933032849507
vn -0.51840988469 0.740378471411 0.427891236796
vn -0.425515700321 0.607740589657 0.670513060622
vn -0.206374857318 0.294711296137 0.933035192367
vn -0.740378471411 0.51840988469 0.427891236796
vn -0.607740589657 0.425515700321 0.670513060622
vn -0.294783733878 0.206425580693 0.933001087822
vn -0.873029113201 0.233931211058 0.427897599896
vn -0.716620713443 0.192026809798 0.670507611727
vn -0.347620720118 0.0931298711697 0.932998747074
vn -0.900391327763 -0.0787321487727 0.427898008454
vn -0.739075912377 -0.0646579186642 0.670511856195
vn -0.358511371309 -0.0313639731187 0.932998337529
vn -0.819138053288 -0.38198053763 0.427906202955
vn -0.672389038926 -0.313557050857 0.670503509454
vn -0.326148797652 -0.152087321898 0.933003970146
vn -0.639101538022 -0.639101538022 0.427900044631
vn -0.524599665962 -0.524599665962 0.670515011722
vn -0.254452586395 -0.254491069092 0.932999558965
vn 0.240515074002 -0.897556839612 0.369518901877
vn 0.253790585452 -0.947177482475 0.196074361985
vn -0.085443459158 -0.976861059264 0.196066025055
vn -0.0809799807284 -0.925684933825 0.369526245361
vn -0.414391867264 -0.888725368507 0.196078044964
vn -0.392603082956 -0.841970296752 0.370065992278
vn 0.532962802745 -0.761189282166 0.369515260317
vn 0.562422951386 -0.803265157687 0.19607526667
vn 0.761189282166 -0.532962802745 0.369515260317
vn 0.803265157687 -0.562422951386 0.19607526667
vn 0.897556839612 -0.240515074002 0.369518901877
vn 0.947177482475 -0.253790585452 0.196074361985
vn 0.925684933825 0.0809799807284 0.369526245361
vn 0.976861059264 0.085443459158 0.196066025055
vn 0.947673277206 -0.253923439567 0.193489654782
vn 0.897556839612 -0.240515074002 0.369518901877
vn 0.946675634382 -0.253656122003 0.198655015135
vn 0.882884788282 -0.236590039927 0.405634815601
vn 0.842168655096 0.392695577482 0.369516088687
vn 0.888725368507 0.414391867264 0.196078044964
vn 0.657057536553 0.657057536553 0.369527789643
vn 0.693381371565 0.693381371565 0.196072810795
vn 0.392695577482 0.842168655096 0.369516088687
vn 0.414391867264 0.888725368507 0.196078044964
vn 0.0809799807284 0.925684933825 0.369526245361
vn 0.085443459158 0.976861059264 0.196066025055
vn -0.240515074002 0.897556839612 0.369518901877
vn -0.253790585452 0.947177482475 0.196074361985
vn -0.532962802745 0.761189282166 0.369515260317
vn -0.562422951386 0.803265157687 0.19607526667
vn -0.761189282166 0.532962802745 0.369515260317
vn -0.803265157687 0.562422951386 0.19607526667
vn -0.897556839612 0.240515074002 0.369518901877
vn -0.947177482475 0.253790585452 0.196074361985
vn -0.925684933825 -0.0809799807284 0.369526245361
vn -0.976861059264 -0.085443459158 0.196066025055
vn -0.842168655096 -0.392695577482 0.369516088687
vn -0.888725368507 -0.414391867264 0.196078044964
vn -0.657057536553 -0.657057536553 0.369527789643
vn -0.693381371565 -0.693381371565 0.196072810795
vt 0.72222200 0.07196500
vt 0.72222200 0.28649700
vt 0.77777800 0.28649700
vt 0.77777800 0.07196500
vt 0.72222200 0.50102900
vt 0.77777800 0.50102900
vt 0.83333300 0.50102900
vt 0.83333300 0.28649700
vt 0.83333300 0.07196500
vt 0.88888900 0.50102900
vt 0.88888900 0.28649700
vt 0.88888900 0.07196500
vt 0.94444400 0.50102900
vt 0.94444400 0.28649700
vt 0.94444400 0.07196500
vt 1.00000000 0.50102900
vt 1.00000000 0.28649700
vt 1.00000000 0.07196500
vt 1.05667200 0.49998800
vt 1.05513100 0.28551200
vt 1.05513300 0.28482300
vt 1.05366600 0.07038100
vt 0.11111100 0.50102900
vt 0.11111100 0.28649700
vt 0.05555600 0.28649700
vt 0.05555600 0.50102900
vt 0.11111100 0.07196500
vt 0.05555600 0.07196500
vt 0.16666700 0.50102900
vt 0.16666700 0.28649700
vt 0.16666700 0.07196500
vt 0.22222200 0.50102900
vt 0.22222200 0.28649700
vt 0.22222200 0.07196500
vt 0.27777800 0.50102900
vt 0.27777800 0.28649700
vt 0.27777800 0.07196500
vt 0.33333300 0.50102900
vt 0.33333300 0.28649700
vt 0.33333300 0.07196500
vt 0.38888900 0.50102900
vt 0.38888900 0.28649700
vt 0.38888900 0.07196500
vt 0.44444400 0.50102900
vt 0.44444400 0.28649700
vt 0.44444400 0.07196500
vt 0.50000000 0.50102900
vt 0.50000000 0.28649700
vt 0.50000000 0.07196500
vt 0.55555500 0.50102900
vt 0.55555500 0.28649700
vt 0.55555500 0.07196500
vt 0.61111100 0.50102900
vt 0.61111100 0.28649700
vt 0.61111100 0.07196500
vt 0.66666700 0.50102900
vt 0.66666700 0.28649700
vt 0.66666700 0.07196500
vt 0.83333300 0.93009300
vt 0.83333300 0.71556100
vt 0.77777800 0.71556100
vt 0.77777800 0.93009300
vt 0.72222200 0.71556100
vt 0.72222200 0.93009300
vt 0.88888900 0.93009300
vt 0.88888900 0.71556100
vt 0.94444400 0.93009300
vt 0.94444400 0.71556100
vt 1.00000000 0.93009300
vt 1.00000000 0.71556100
vt 0.05555600 0.93009300
vt 0.05555600 0.71556100
vt 0.00042800 0.71523400
vt 0.00014900 0.92976300
vt 0.00042800 0.71505800
vt 0.00114500 0.50053900
vt 0.11111100 0.93009300
vt 0.11111100 0.71556100
vt 0.16666700 0.93009300
vt 0.16666700 0.71556100
vt 0.22222200 0.93009300
vt 0.22222200 0.71556100
vt 0.27777800 0.93009300
vt 0.27777800 0.71556100
vt 0.33333300 0.93009300
vt 0.33333300 0.71556100
vt 0.38888900 0.93009300
vt 0.38888900 0.71556100
vt 0.44444400 0.93009300
vt 0.44444400 0.71556100
vt 0.50000000 0.93009300
vt 0.50000000 0.71556100
vt 0.55555500 0.93009300
vt 0.55555500 0.71556100
vt 0.61111100 0.93009300
vt 0.61111100 0.71556100
vt 0.66666700 0.93009300
vt 0.66666700 0.71556100
f 1/1/1 2/2/2 3/3/3
f 1/1/1 3/3/3 4/4/4
f 3/3/3 2/2/2 5/5/5
f 3/3/3 5/5/5 6/6/6
f 7/7/7 8/8/8 3/3/3
f 7/7/7 3/3/3 6/6/6
f 3/3/3 8/8/8 9/9/9
f 3/3/3 9/9/9 4/4/4
f 10/10/10 11/11/11 8/8/8
f 10/10/10 8/8/8 7/7/7
f 8/8/8 11/11/11 12/12/12
f 8/8/8 12/12/12 9/9/9
f 13/13/13 14/14/14 11/11/11
f 13/13/13 11/11/11 10/10/10
f 11/11/11 14/14/14 15/15/15
f 11/11/11 15/15/15 12/12/12
f 16/16/16 17/17/17 14/14/14
f 16/16/16 14/14/14 13/13/13
f 14/14/14 17/17/17 18/18/18
f 14/14/14 18/18/18 15/15/15
f 19/19/19 20/20/20 17/17/17
f 19/19/19 17/17/17 16/16/16
f 17/17/17 21/21/21 22/22/22
f 17/17/17 22/22/22 18/18/18
f 23/23/23 24/24/24 25/25/25
f 23/23/23 25/25/25 26/26/26
f 25/25/25 24/24/24 27/27/27
f 25/25/25 27/27/27 28/28/28
f 29/29/29 30/30/30 24/24/24
f 29/29/29 24/24/24 23/23/23
f 24/24/24 30/30/30 31/31/31
f 24/24/24 31/31/31 27/27/27
f 32/32/32 33/33/33 30/30/30
f 32/32/32 30/30/30 29/29/29
f 30/30/30 33/33/33 34/34/34
f 30/30/30 34/34/34 31/31/31
f 35/35/35 36/36/36 33/33/33
f 35/35/35 33/33/33 32/32/32
f 33/33/33 36/36/36 37/37/37
f 33/33/33 37/37/37 34/34/34
f 38/38/38 39/39/39 36/36/36
f 38/38/38 36/36/36 35/35/35
f 36/36/36 39/39/39 40/40/40
f 36/36/36 40/40/40 37/37/37
f 41/41/41 42/42/42 39/39/39
f 41/41/41 39/39/39 38/38/38
f 39/39/39 42/42/42 43/43/43
f 39/39/39 43/43/43 40/40/40
f 44/44/44 45/45/45 42/42/42
f 44/44/44 42/42/42 41/41/41
f 42/42/42 45/45/45 46/46/46
f 42/42/42 46/46/46 43/43/43
f 47/47/47 48/48/48 45/45/45
f 47/47/47 45/45/45 44/44/44
f 45/45/45 48/48/48 49/49/49
f 45/45/45 49/49/49 46/46/46
f 50/50/50 51/51/51 48/48/48
f 50/50/50 48/48/48 47/47/47
f 48/48/48 51/51/51 52/52/52
f 48/48/48 52/52/52 49/49/49
f 53/53/53 54/54/54 51/51/51
f 53/53/53 51/51/51 50/50/50
f 51/51/51 54/54/54 55/55/55
f 51/51/51 55/55/55 52/52/52
f 56/56/56 57/57/57 54/54/54
f 56/56/56 54/54/54 53/53/53
f 54/54/54 57/57/57 58/58/58
f 54/54/54 58/58/58 55/55/55
f 5/5/5 2/2/2 57/57/57
f 5/5/5 57/57/57 56/56/56
f 57/57/57 2/2/2 1/1/1
f 57/57/57 1/1/1 58/58/58
f 59/59/59 60/60/60 61/61/61
f 59/59/59 61/61/61 62/62/62
f 61/61/61 60/60/60 7/7/7
f 61/61/61 7/7/7 6/6/6
f 5/5/5 63/63/63 61/61/61
f 5/5/5 61/61/61 6/6/6
f 61/61/61 63/63/63 64/64/64
f 61/61/61 64/64/64 62/62/62
f 65/65/65 66/66/66 60/60/60
f 65/65/65 60/60/60 59/59/59
f 60/60/60 66/66/66 10/10/10
f 60/60/60 10/10/10 7/7/7
f 67/67/67 68/68/68 66/66/66
f 67/67/67 66/66/66 65/65/65
f 66/66/66 68/68/68 13/13/13
f 66/66/66 13/13/13 10/10/10
f 69/69/69 70/70/70 68/68/68
f 69/69/69 68/68/68 67/67/67
f 68/68/68 70/70/70 16/16/16
f 68/68/68 16/16/16 13/13/13
f 71/71/71 72/72/72 73/73/73
f 71/71/71 73/73/73 74/74/74
f 75/75/75 72/72/72 26/26/26
f 75/75/75 26/26/26 76/76/76
f 77/77/77 78/78/78 72/72/72
f 77/77/77 72/72/72 71/71/71
f 72/72/72 78/78/78 23/23/23
f 72/72/72 23/23/23 26/26/26
f 79/79/79 80/80/80 78/78/78
f 79/79/79 78/78/78 77/77/77
f 78/78/78 80/80/80 29/29/29
f 78/78/78 29/29/29 23/23/23
f 81/81/81 82/82/82 80/80/80
f 81/81/81 80/80/80 79/79/79
f 80/80/80 82/82/82 32/32/32
f 80/80/80 32/32/32 29/29/29
f 83/83/83 84/84/84 82/82/82
f 83/83/83 82/82/82 81/81/81
f 82/82/82 84/84/84 35/35/35
f 82/82/82 35/35/35 32/32/32
f 85/85/85 86/86/86 84/84/84
f 85/85/85 84/84/84 83/83/83
f 84/84/84 86/86/86 38/38/38
f 84/84/84 38/38/38 35/35/35
f 87/87/87 88/88/88 86/86/86
f 87/87/87 86/86/86 85/85/85
f 86/86/86 88/88/88 41/41/41
f 86/86/86 41/41/41 38/38/38
f 89/89/89 90/90/90 88/88/88
f 89/89/89 88/88/88 87/87/87
f 88/88/88 90/90/90 44/44/44
f 88/88/88 44/44/44 41/41/41
f 91/91/91 92/92/92 90/90/90
f 91/91/91 90/90/90 89/89/89
f 90/90/90 92/92/92 47/47/47
f 90/90/90 47/47/47 44/44/44
f 93/93/93 94/94/94 92/92/92
f 93/93/93 92/92/92 91/91/91
f 92/92/92 94/94/94 50/50/50
f 92/92/92 50/50/50 47/47/47
f 95/95/95 96/96/96 94/94/94
f 95/95/95 94/94/94 93/93/93
f 94/94/94 96/96/96 53/53/53
f 94/94/94 53/53/53 50/50/50
f 97/97/97 98/98/98 96/96/96
f 97/97/97 96/96/96 95/95/95
f 96/96/96 98/98/98 56/56/56
f 96/96/96 56/56/56 53/53/53
f 64/64/64 63/63/63 98/98/98
f 64/64/64 98/98/98 97/97/97
f 98/98/98 63/63/63 5/5/5
f 98/98/98 5/5/5 56/56/56
