# ABC bottle geometry; canonical radius 1 and height 1, bottom z=0.
# https://github.com/mikedh/trimesh
v 0.218005988545 -0.0394130982015 0.01680446
v 0.218005988545 0.0788456801036 0.01668251
v 0.361062430059 0.423559406316 0.00626826
v 0.397796895218 0.458086200527 0.00375617
v 0.408747949108 0.457439942942 0.0031952
v 0.431065863341 0.489935749258 0.00192696
v 0.428293396333 0.44977764522 0.00256109
v 0.447561677799 0.43334508052 0.00214645
v 0.496633372536 0.322748657752 0.00260985
v 0.546120873728 0.307700881177 0.00156111
v 0.564141562385 0.282775157442 0.00170746
v 0.585350524504 0.278436247153 0.00146356
v 0.608569487624 0.267081181097 0.00170746
v 0.618411531584 0.255449122727 0.00263426
v 0.623055301082 0.248433024775 0.00334156
v 0.221124941659 -0.0394130982015 0.01692641
v 0.218005988545 -0.0394130982015 0.2497713
v 0.218005988545 0.243909452943 0.01678005
v 0.343318964977 0.414327658926 0.00760967
v 0.379845526908 0.458824731067 0.00495124
v 0.415401661791 0.49113587584 0.00268304
v 0.430719261603 0.509414766893 0.00214645
v 0.459621683803 0.510060966662 0.00119528
v 0.444234763643 0.487258561593 0.00148797
v 0.472721321572 0.425682724983 0.0016343
v 0.533506420575 0.336411646202 0.00143918
v 0.566498107308 0.328103090895 0.00087821
v 0.579736385772 0.30723934295 0.00090259
v 0.605450534509 0.29597654985 0.00075626
v 0.616332268051 0.294037892727 0.00082946
v 0.628946663389 0.282590495899 0.00141478
v 0.630818081509 0.257757102936 0.00278059
v 0.642808767165 0.244094114486 0.00460979
v 0.235749395812 -0.0394130982015 0.01756051
v 0.920465781923 -0.0394130982015 0.2497713
v 0.218005988545 0.895302235628 0.2497713
v 0.218005988545 0.249540820586 0.01680446
v 0.325367654482 0.405557507578 0.00902426
v 0.355309650632 0.459101665566 0.00714627
v 0.386083433137 0.48975114553 0.00495124
v 0.409995484101 0.509691759207 0.00341469
v 0.446175502111 0.530924772422 0.0020977
v 0.459760266682 0.522062290303 0.00136602
v 0.428639940255 0.531755575919 0.00300008
v 0.484018861569 0.50959937062 0.00102454
v 0.485613056115 0.489843418486 0.000927
v 0.473067865494 0.466302482877 0.00107333
v 0.584033611348 0.317301893837 0.00073189
v 0.599143307933 0.324410380376 0.00060993
v 0.62257017428 0.323487188292 0.00070751
v 0.634006354971 0.312409056735 0.00090259
v 0.630055673318 0.296530476663 0.00100017
v 0.645373215315 0.28092883109 0.00204891
v 0.653759821055 0.271512422157 0.00302449
v 0.654314268204 0.254710592186 0.00424394
v 0.662839456823 0.251017881667 0.00509757
v 0.646066360975 0.230892664263 0.00626826
v 0.633521170354 0.232277452388 0.00551218
v 0.268117315048 -0.0394130982015 0.01963362
v 0.92095096654 -0.0305506738969 0.24794209
v 0.921228190114 -0.0193802115684 0.2497713
v 0.924901706008 -0.0394130982015 0.19135886
v 0.218005988545 0.895856104626 0.2460885
v 0.268186635396 0.884593253711 0.2497713
v 0.224451855816 0.894655920228 0.24623483
v 0.218005988545 0.260711282914 0.016902
v 0.291197637473 0.371399978638 0.01165831
v 0.343457605672 0.453008701882 0.00826818
v 0.374647252446 0.501383146085 0.00668287
v 0.303049682434 0.41045034468 0.01134124
v 0.40840134737 0.527508996402 0.00424394
v 0.445135812529 0.544403099329 0.00280496
v 0.467800270685 0.547634213807 0.00231719
v 0.487761639995 0.523723955112 0.00136602
v 0.481523675951 0.545972548997 0.00207329
v 0.416649312415 0.538125531918 0.00412199
v 0.511257826689 0.526031935321 0.00175625
v 0.512297458456 0.499444488962 0.00131723
v 0.640036357973 0.349059169612 0.00151235
v 0.650848771167 0.338904230138 0.0016343
v 0.654175627509 0.312870710592 0.0016343
v 0.655353957785 0.300869386952 0.00187817
v 0.671572490854 0.289052724854 0.0032196
v 0.666235633512 0.270958495344 0.00382933
v 0.683701817205 0.264311662662 0.00585365
v 0.681969097594 0.246125102381 0.00748771
v 0.67656286209 0.240586007695 0.00760967
v 0.670532859088 0.230523398992 0.00856087
v 0.333892785286 -0.0394130982015 0.02443832
v 0.314208697365 -0.0394130982015 0.02282861
v 0.921366830809 0.0187469623894 0.24911278
v 0.921297452647 0.014408052101 0.2497713
v 0.926010658122 -0.00608648838897 0.19213933
v 0.924416463576 -0.0394130982015 0.18579811
v 0.92510955142 -0.0299967470838 0.19035891
v 0.218005988545 0.903518460163 0.1946758
v 0.313376968826 0.874715306552 0.2497713
v 0.269988733169 0.884316377027 0.24908841
v 0.218005988545 0.284806145337 0.01719469
v 0.318921787211 0.454393490008 0.01143879
v 0.356834524831 0.494459321089 0.00860965
v 0.387192385251 0.537848539603 0.00729263
v 0.394885845331 0.536002213251 0.0061951
v 0.295009736247 0.411650471262 0.01243877
v 0.218005988545 0.28572933742 0.01721907
v 0.218005988545 0.30825480799 0.01787758
v 0.218005988545 0.314717036944 0.01807269
v 0.218005988545 0.322471723253 0.01841414
v 0.440630625911 0.552065512682 0.00358543
v 0.452690631914 0.565359178046 0.0041464
v 0.469810271685 0.570159742191 0.0040732
v 0.480345461305 0.564343713006 0.00341469
v 0.496009547224 0.559727810404 0.00309765
v 0.509802330653 0.560281737217 0.00329277
v 0.504604056191 0.548465075119 0.00253668
v 0.404173442142 0.554927304073 0.00673166
v 0.421015800523 0.565636112545 0.00602436
v 0.52109987065 0.533601960086 0.0022684
v 0.662007728284 0.344627928552 0.00212207
v 0.675038045706 0.316009494298 0.00280496
v 0.686197002823 0.31000880357 0.00378054
v 0.682246321169 0.289329717168 0.00417078
v 0.687999042781 0.275759001674 0.00543901
v 0.700128369131 0.270127634032 0.00736576
v 0.703801769395 0.252033404522 0.0098291
v 0.689593237327 0.232185121617 0.01048762
v 0.673513229323 0.222861043455 0.01036566
v 0.395024486026 -0.0394130982015 0.03073075
v 0.391143066905 -0.0394130982015 0.03031614
v 0.348170695517 -0.0394130982015 0.02575535
v 0.921228190114 0.0217934153239 0.2497713
v 0.92538683281 0.0428418248118 0.19250515
v 0.924416463576 -0.0240883871273 0.18160313
v 0.924347143229 -0.00544028861957 0.17901787
v 0.925594793853 0.00517624689578 0.18772486
v 0.925248192115 0.023639799491 0.18562737
v 0.923654055384 -0.0394130982015 0.17913979
v 0.242888408743 0.897148504165 0.19211492
v 0.226877663271 0.901395199312 0.18874919
v 0.218005988545 0.903610733119 0.19026133
v 0.330912472867 0.869176327496 0.2497713
v 0.339229700443 0.867145281786 0.24589339
v 0.332922473867 0.870099519579 0.23682058
v 0.263542865898 0.397710490498 0.01614594
v 0.29667313551 0.44257682791 0.01409724
v 0.333754144591 0.488735622675 0.01165831
v 0.366953792366 0.524647147195 0.00929254
v 0.383311023945 0.543110699791 0.00843892
v 0.384212015016 0.56083566403 0.01007301
v 0.218005988545 0.331057213058 0.01892632
v 0.433075806526 0.568128754297 0.00543901
v 0.447630998147 0.583453465371 0.00634143
v 0.465235822535 0.595362400425 0.00702432
v 0.486306143959 0.578468297498 0.00473171
v 0.497811644998 0.574775586979 0.00441468
v 0.526575426502 0.550865328284 0.00324398
v 0.516456101152 0.572283060857 0.00453663
v 0.536694694037 0.566467031672 0.00487807
v 0.402509985064 0.568405688796 0.00843892
v 0.408747949108 0.565820774088 0.00734138
v 0.42351098614 0.590100355868 0.00917059
v 0.440284081989 0.590561894095 0.00780478
v 0.547021980429 0.533694233043 0.00346348
v 0.669285266279 0.354044337485 0.00290254
v 0.677949095593 0.345920328091 0.00324398
v 0.679543232324 0.328380025394 0.00314641
v 0.695138055711 0.330872609331 0.00463417
v 0.701237321245 0.320440735358 0.00539023
v 0.697910407088 0.30382356693 0.0052439
v 0.703178001898 0.290622116707 0.00648776
v 0.71405973544 0.280190242734 0.00860965
v 0.719119427023 0.259788090831 0.01129246
v 0.708168373134 0.239570542655 0.0123412
v 0.697078736364 0.225169023664 0.01319483
v 0.68841490705 0.225538288935 0.01168269
v 0.495247139033 -0.0394130982015 0.0424864
v 0.469463727763 -0.0394130982015 0.03936458
v 0.426560618907 -0.0394130982015 0.0342916
v 0.920257878695 0.0454266817046 0.2497713
v 0.92337683181 0.0482885309115 0.17670086
v 0.922059918653 0.0806920064555 0.18104216
v 0.922129239001 0.0827229943502 0.18392012
v 0.923030287888 0.0777378842924 0.19231004
v 0.919495412688 0.0577972706156 0.2497713
v 0.923099608235 -0.0132872478843 0.17067671
v 0.92510955142 0.00969981872698 0.18350551
v 0.924000657122 0.00739183851812 0.17526191
v 0.923446094342 0.0217934153239 0.17309126
v 0.923446094342 -0.0394130982015 0.17784718
v 0.27116700563 0.888839948858 0.18999305
v 0.255918726165 0.892994197604 0.18321282
v 0.233115627315 0.899179549875 0.17706671
v 0.218005988545 0.902502937308 0.17421317
v 0.340407972905 0.866129816746 0.2497713
v 0.365428975983 0.857175003855 0.2497713
v 0.367438976983 0.856621134857 0.2486006
v 0.354824466015 0.8616061871 0.2447471
v 0.364320023869 0.858559734165 0.23406458
v 0.355586932022 0.861698575686 0.2243576
v 0.306931101555 0.877023344576 0.19430995
v 0.285029051592 0.441284370556 0.01590204
v 0.252522491661 0.395402568105 0.01782879
v 0.321416972828 0.482181120764 0.01319483
v 0.354131378171 0.520400567678 0.01102418
v 0.373399601822 0.554742700346 0.01143879
v 0.379429662639 0.574683256207 0.01336557
v 0.398420662715 0.5885309062 0.01229241
v 0.218005988545 0.355982994608 0.02082869
v 0.442432723684 0.601455364109 0.0095852
v 0.464819958265 0.618164863309 0.01143879
v 0.469602310643 0.603394021232 0.00843892
v 0.484018861569 0.611148707541 0.0095852
v 0.496633372536 0.601363033338 0.00787795
v 0.496148187919 0.589731032783 0.00614631
v 0.481662374461 0.590007967282 0.00624388
v 0.513822332654 0.590007967282 0.00653654
v 0.542170192074 0.556219761427 0.0043903
v 0.533090556305 0.581053212206 0.00629264
v 0.55942847254 0.576898905645 0.00763404
v 0.568438787961 0.556127430656 0.00641459
v 0.412282708676 0.588715509928 0.0102925
v 0.412352086839 0.598224249632 0.01214609
v 0.427600308489 0.60736366625 0.01214609
v 0.555269887659 0.539417989272 0.00429273
v 0.683979098595 0.36124509698 0.00417078
v 0.690771509788 0.352474887817 0.00443906
v 0.70664355675 0.342689271428 0.0059512
v 0.714129055788 0.309824199843 0.00717068
v 0.720782826286 0.307700881177 0.00839013
v 0.726535547898 0.289975916937 0.01024371
v 0.722723564754 0.271143156887 0.01090223
v 0.733743823361 0.263573074306 0.0143899
v 0.734506289368 0.252864265834 0.01636544
v 0.717109426022 0.237077958718 0.01482892
v 0.707544547822 0.229415603181 0.01431674
v 0.773042794485 -0.0394130982015 0.08660671
v 0.730209063792 -0.0394130982015 0.07819238
v 0.717109426022 -0.0394130982015 0.07565588
v 0.679473854162 -0.0394130982015 0.06914395
v 0.65362118036 -0.0394130982015 0.06480265
v 0.630679440815 -0.0394130982015 0.06124181
v 0.587152564462 -0.0394130982015 0.05492496
v 0.552081556382 -0.0394130982015 0.04987639
v 0.542170192074 -0.0394130982015 0.04853496
v 0.527407097226 -0.0394130982015 0.04655942
v 0.920812325845 0.0539198985538 0.16538423
v 0.920049917653 0.0743221082724 0.1679695
v 0.919218189114 0.0970322403846 0.17201811
v 0.917416206971 0.124542878827 0.1805056
v 0.921505413689 0.0927856030524 0.18867603
v 0.921436151157 0.0941703911778 0.19409046
v 0.917485469503 0.0836461864338 0.2497713
v 0.91838651839 0.072383451149 0.2497713
v 0.921782695079 -0.0394130982015 0.16960359
v 0.921366830809 -0.0394130982015 0.16799387
v 0.918455780922 -0.0394130982015 0.15794548
v 0.921297452647 -0.0149489705086 0.16467693
v 0.920604364802 0.00379145877046 0.16235995
v 0.921852015426 0.0158851131825 0.16682321
v 0.309564870052 0.875453837092 0.18235919
v 0.262017991699 0.890686217395 0.17696917
v 0.260839719238 0.890040075441 0.16923773
v 0.222649758043 0.899733418873 0.16279894
v 0.218005988545 0.901856679724 0.16857922
v 0.401331712602 0.843050419363 0.2497713
v 0.391420290479 0.847666264151 0.24647874
v 0.384835840328 0.850528171173 0.23496696
v 0.372429290403 0.855421008275 0.22813797
v 0.329318336136 0.868345466184 0.18616393
v 0.329387598668 0.868899335182 0.19252956
v 0.317951417977 0.501013823 0.01590204
v 0.274355221277 0.434175941832 0.01731664
v 0.340338652557 0.517907983742 0.01343873
v 0.360715886137 0.550680724556 0.01365823
v 0.218005988545 0.577175840144 0.05499813
v 0.218005988545 0.738362356552 0.08533844
v 0.218005988545 0.749255768751 0.08746034
v 0.218005988545 0.787567546437 0.09533808
v 0.401816897219 0.595454731196 0.01324362
v 0.218005988545 0.801784519515 0.09860626
v 0.218005988545 0.357183121191 0.02095065
v 0.466483415343 0.627211949156 0.0137558
v 0.478543363531 0.632474109343 0.01448745
v 0.505089182993 0.623980892494 0.01246315
v 0.516525421499 0.614379822018 0.0105364
v 0.535169877653 0.598962780173 0.00887793
v 0.560260201079 0.590931159365 0.00965837
v 0.580221570389 0.578652959041 0.01012176
v 0.655561861013 0.462794376085 0.00839013
v 0.705534546821 0.373154032034 0.00692677
v 0.686127682475 0.383308971508 0.00575608
v 0.595192568464 0.555296569344 0.00943887
v 0.656878716354 0.490581949027 0.01080468
v 0.646205001669 0.483381247347 0.00897548
v 0.41408480645 0.608656123604 0.01453623
v 0.448531989218 0.625457953575 0.01507282
v 0.218005988545 0.827633319703 0.10506943
v 0.218005988545 0.847204668109 0.11084968
v 0.692227005824 0.370384513599 0.0054878
v 0.714336959015 0.320810000628 0.00717068
v 0.727991101749 0.35302881463 0.00956082
v 0.727783198522 0.344074001739 0.00931692
v 0.729446597785 0.314717036944 0.00970715
v 0.735684561829 0.30520829724 0.01131684
v 0.735615241482 0.288683459583 0.01214609
v 0.743447284441 0.279820977464 0.01499963
v 0.744001789406 0.268004373181 0.01670688
v 0.723000788329 0.235600897637 0.01665813
v 0.846927531257 -0.0394130982015 0.10526454
v 0.839996537184 -0.0394130982015 0.10331339
v 0.809915842524 -0.0394130982015 0.09502101
v 0.809014793637 -0.0394130982015 0.09480152
v 0.916168556347 0.0998017588201 0.1604332
v 0.920049917653 0.0218857460953 0.16094536
v 0.915614051382 0.0251168605725 0.14833608
v 0.91499022607 0.0506888418917 0.14855558
v 0.914158555346 0.0716449206083 0.14884827
v 0.911940593303 0.105525457234 0.1482873
v 0.916723003496 0.119834645453 0.17201811
v 0.913881331772 0.134882422028 0.16560373
v 0.915683313915 0.134882422028 0.17748132
v 0.913881331772 0.154638374162 0.18579811
v 0.916653740964 0.137005740694 0.18982232
v 0.919148868766 0.113187812771 0.18662733
v 0.919010343702 0.118172922829 0.19348073
v 0.914089177184 0.115495735165 0.2497713
v 0.918247877695 -0.0394130982015 0.15731135
v 0.918940965539 -0.00627114993174 0.15706748
v 0.339645564713 0.863452629082 0.17806667
v 0.346992423056 0.859113660978 0.16621345
v 0.335209698442 0.862898644454 0.16121364
v 0.306584557633 0.874992298866 0.17084745
v 0.293068997779 0.879238878383 0.16779876
v 0.272622501666 0.886532026465 0.17133522
v 0.269364907857 0.886347307107 0.16460377
v 0.274493861972 0.880900658822 0.14716539
v 0.227432168236 0.89511751627 0.14675078
v 0.218005988545 0.900841214684 0.16282335
v 0.218005988545 0.897702373163 0.14709222
v 0.424273394332 0.832803149119 0.2497713
v 0.421362344445 0.834187879429 0.23750347
v 0.389687570869 0.848035587236 0.22365034
v 0.349418288326 0.858928999436 0.17211568
v 0.33001142398 0.531755575919 0.01807269
v 0.258899038585 0.423374802589 0.01936531
v 0.267701450778 0.451623971572 0.02126771
v 0.289811461784 0.485781500512 0.02087748
v 0.218005988545 0.543110699791 0.04885203
v 0.218005988545 0.559543206676 0.05175436
v 0.218005988545 0.379154664947 0.02360907
v 0.23096698562 0.385062967088 0.02121893
v 0.475701691807 0.639305545753 0.01663372
v 0.494276769798 0.646229370749 0.01858488
v 0.499267141034 0.641982791232 0.01731664
v 0.512782643073 0.63293564757 0.01492646
v 0.545427785883 0.606440531982 0.01087785
v 0.527407097226 0.628689010237 0.01453623
v 0.544734698039 0.615579948601 0.01270705
v 0.570310206081 0.596654857779 0.01178026
v 0.586598117313 0.58890017147 0.01265827
v 0.607529798042 0.571636803273 0.01319483
v 0.636709443816 0.545326291413 0.01414603
v 0.698118368131 0.395771833375 0.00790235
v 0.704841458977 0.407126899431 0.00970715
v 0.719535233477 0.389494265963 0.01024371
v 0.718634184591 0.379523930217 0.0093413
v 0.632273577545 0.531847964506 0.01190218
v 0.661661184362 0.511722689286 0.01395088
v 0.678711503785 0.488181753677 0.01382893
v 0.679196630587 0.473964780599 0.01241437
v 0.218005988545 0.862806371497 0.11594707
v 0.731803200523 0.367522664392 0.01102418
v 0.740259010979 0.357275394147 0.01229241
v 0.745041478987 0.332257339641 0.01302409
v 0.736932096823 0.319979139316 0.01114613
v 0.75224975445 0.313516910362 0.01517037
v 0.744209750448 0.296161211393 0.01382893
v 0.756824203601 0.296253542164 0.01770687
v 0.753705250486 0.277420724299 0.0187068
v 0.870007911497 -0.0394130982015 0.11292279
v 0.866195812723 -0.0394130982015 0.11158139
v 0.911178242927 0.128420193074 0.15277493
v 0.917693430545 0.0121924026635 0.15375051
v 0.91540609034 -0.0144873744668 0.14809218
v 0.909514728033 0.0178237703058 0.13572681
v 0.908405775919 0.0447804819352 0.1348488
v 0.906257192039 0.0650903608823 0.13172695
v 0.909098863764 0.0735835777316 0.13804379
v 0.903207501457 0.127681662533 0.13314155
v 0.900019227995 0.157777157868 0.13172695
v 0.908544416614 0.135159356527 0.14699468
v 0.905702687075 0.181225820521 0.15928689
v 0.910831641189 0.15860801918 0.16767681
v 0.913326826807 0.148176145208 0.17353025
v 0.904593792776 0.169686150738 0.14740929
v 0.910970281884 0.171163211819 0.18682244
v 0.91041577692 0.174948253109 0.19313928
v 0.90999991265 0.174301995525 0.17782277
v 0.907712688075 0.188426580017 0.18270063
v 0.911940593303 0.131835969094 0.24818599
v 0.911386088339 0.133866899173 0.2497713
v 0.915128866765 -0.0394130982015 0.14855558
v 0.381093119717 0.845358341757 0.17016453
v 0.37319175641 0.847758594922 0.16479889
v 0.381924790441 0.840742439155 0.14660445
v 0.347477607673 0.854867139277 0.14640933
v 0.30138628317 0.875823160178 0.1642867
v 0.323496236361 0.864098828851 0.14738491
v 0.299584185397 0.871668853617 0.14423868
v 0.262156632394 0.882931588902 0.14155585
v 0.24108631097 0.887824483819 0.13743407
v 0.218005988545 0.89511751627 0.13977543
v 0.218005988545 0.897517769435 0.14633617
v 0.444026860415 0.822740540416 0.2497713
v 0.734229065793 0.676324923899 0.2243576
v 0.437234449222 0.825233124353 0.22369909
v 0.409510299484 0.838526789717 0.22321132
v 0.412975854336 0.831603022536 0.17418876
v 0.399183070907 0.838342243805 0.17789596
v 0.235610812933 0.407588495473 0.0231213
v 0.484573366533 0.645029244166 0.01841414
v 0.218005988545 0.86363723281 0.11626413
v 0.218005988545 0.871391976933 0.11926401
v 0.519159189997 0.652322334433 0.02275544
v 0.516802645074 0.64050573015 0.0173654
v 0.218005988545 0.879608201468 0.12326387
v 0.555755014461 0.615949213871 0.01390213
v 0.544596057344 0.632843316798 0.01717028
v 0.589301206158 0.600993768067 0.01536548
v 0.611619120391 0.580868550663 0.0153411
v 0.64551185601 0.552527050908 0.01699957
v 0.669909091591 0.518554183511 0.01631665
v 0.713228006901 0.417189508133 0.0118778
v 0.729030733515 0.396510363916 0.01251191
v 0.688345586703 0.488827953446 0.01568255
v 0.700267009826 0.461963572588 0.01465818
v 0.722862147634 0.423836398631 0.01426795
v 0.742407652675 0.381185652842 0.01448745
v 0.753427911281 0.374354158617 0.01724344
v 0.755645873324 0.356536863606 0.01682884
v 0.75224975445 0.339919752993 0.01512158
v 0.758764826439 0.326995295084 0.0171459
v 0.763963216531 0.308531742489 0.01951167
v 0.768676306377 0.297638272474 0.02275544
v 0.761329390219 0.28194429613 0.02129209
v 0.88463236565 -0.0394130982015 0.11880061
v 0.876592361648 -0.0394130982015 0.11545926
v 0.909653426543 -0.0394130982015 0.13728774
v 0.910346456572 -0.00922527209486 0.13765356
v 0.906118551344 -0.0394130982015 0.1323123
v 0.901890588301 0.0813382062249 0.12697104
v 0.899534101193 0.10423299988 0.12497112
v 0.896761692001 0.138205867277 0.1231907
v 0.901266878619 0.120573175994 0.12831244
v 0.898355828732 0.144945030731 0.12670276
v 0.893850642114 0.190272964184 0.12592229
v 0.897108235923 0.178640963629 0.13011727
v 0.90230645257 0.164331717594 0.13943398
v 0.903692686074 0.20338202582 0.16977429
v 0.907643367728 0.175963718149 0.1647501
v 0.898425149079 0.209751981819 0.14921409
v 0.894543729958 0.231261929533 0.14865315
v 0.896345827731 0.192211621307 0.1323123
v 0.895375400682 0.213075427067 0.13997054
v 0.906534415614 0.196642862367 0.19194421
v 0.903068918577 0.182149012605 0.2497713
v 0.90785132877 0.155284573932 0.2497713
v 0.907782066238 0.183256808416 0.1730181
v 0.900019227995 0.222861043455 0.17414001
v 0.900573790775 0.223137977954 0.18294454
v 0.408747949108 0.829202827186 0.14684835
v 0.39343029148 0.833634010431 0.13923886
v 0.375548301333 0.839819247071 0.13655603
v 0.36023070152 0.844342876717 0.13260496
v 0.332367968903 0.857359665398 0.13809258
v 0.291544181395 0.872038118888 0.13821453
v 0.284058682357 0.872499714929 0.13545853
v 0.223897350852 0.890132348397 0.1330196
v 0.218005988545 0.892440270791 0.13377565
v 0.452829214794 0.818216968585 0.2497713
v 0.542932600266 0.752302221686 0.12021521
v 0.529278515347 0.761811019205 0.12543452
v 0.490741952414 0.784336431959 0.12940997
v 0.467384406415 0.800676665889 0.14750686
v 0.428224075986 0.82301753273 0.16489643
v 0.73928869956 0.673370743921 0.22765017
v 0.738803514943 0.673093809422 0.22457713
v 0.612242945703 0.696450083489 0.0925577
v 0.598935346891 0.708913003171 0.09999645
v 0.585211883809 0.720175738456 0.1044597
v 0.576270888736 0.727930482579 0.10865465
v 0.522208822764 0.658784621203 0.02653578
v 0.540368152116 0.651583803892 0.02451149
v 0.536764014384 0.642905983316 0.0201214
v 0.218005988545 0.881269924093 0.12411749
v 0.218005988545 0.884224046256 0.1257028
v 0.571904342812 0.617980201766 0.01670688
v 0.552636061346 0.640690333878 0.02141404
v 0.558943287922 0.632566382299 0.01914582
v 0.588677438661 0.6158568831 0.01934093
v 0.599420531508 0.603301690461 0.01799953
v 0.630818081509 0.579853085623 0.01924339
v 0.657017357049 0.553173250678 0.01982874
v 0.68099872836 0.519846640865 0.0191946
v 0.701098738365 0.484119777888 0.01782879
v 0.733466599786 0.404634315495 0.0143899
v 0.709693189517 0.463994502668 0.01687762
v 0.720782826286 0.443223085494 0.01638985
v 0.728822772473 0.430852496583 0.01660934
v 0.750447598862 0.395956494918 0.01851171
v 0.764240440106 0.371769301724 0.02117014
v 0.762091798411 0.356998459648 0.01897511
v 0.768814889256 0.330780278559 0.02090186
v 0.774983475138 0.322564054024 0.02412125
v 0.774706251563 0.30520829724 0.02480415
v 0.886295822729 -0.0394130982015 0.11950791
v 0.901405461499 -0.0394130982015 0.12826368
v 0.842006538185 0.271327760614 0.06958294
v 0.84942277469 0.270866164573 0.07619247
v 0.865017598077 0.240216742424 0.09097239
v 0.894613050305 0.132389838092 0.12009326
v 0.886503725956 0.183072204688 0.11294717
v 0.891078175106 0.165531844177 0.1176787
v 0.893434777844 0.17633298342 0.12306875
v 0.88504822992 0.202735826051 0.11319107
v 0.882345141075 0.212706103982 0.11031312
v 0.886018541339 0.217229675813 0.11731285
v 0.889345513311 0.218245198668 0.12384921
v 0.897662740888 0.225445958163 0.16028684
v 0.894127865688 0.24677130215 0.16723782
v 0.886018541339 0.256187711083 0.13399518
v 0.887681998417 0.254802922958 0.14023882
v 0.89017724185 0.249910085856 0.14811659
v 0.888652367651 0.236154766635 0.13099527
v 0.884077860686 0.2549875845 0.12667838
v 0.902930277882 0.212890765525 0.18848091
v 0.900920276882 0.220830055561 0.19401729
v 0.900019227995 0.199597042345 0.24630803
v 0.901474724031 0.1893497721 0.2497713
v 0.897038915576 0.236893297176 0.17940807
v 0.896553788774 0.240124469468 0.1903345
v 0.441739578025 0.813324131484 0.14636055
v 0.440561363379 0.812124004901 0.13943398
v 0.436402720683 0.812400997215 0.13358054
v 0.397173069906 0.82984896914 0.13401955
v 0.388093434138 0.831418476623 0.12945876
v 0.39814343914 0.825233124353 0.12580034
v 0.375132379248 0.834187879429 0.12636131
v 0.330635191477 0.855605612002 0.13387322
v 0.218005988545 0.890963267524 0.13175136
v 0.454908536142 0.817016899818 0.2497713
v 0.737902466057 0.673186140194 0.22886965
v 0.543556425578 0.749440372479 0.11370325
v 0.517634373613 0.766796129263 0.12084931
v 0.491781641996 0.778981998816 0.11780065
v 0.479444412418 0.787936869522 0.12421504
v 0.466344774648 0.800122796891 0.14258021
v 0.743170060867 0.66847790682 0.2287477
v 0.740466972022 0.671709021297 0.22635755
v 0.743377964094 0.668016310778 0.227577
v 0.769507977101 0.527416665631 0.08611891
v 0.753497289444 0.548003479077 0.0824849
v 0.749061423173 0.557235284282 0.08643597
v 0.735615241482 0.573206195126 0.0838995
v 0.719396650598 0.593423743302 0.08463117
v 0.704494915055 0.606071208896 0.07880211
v 0.694098423945 0.620380454931 0.08324099
v 0.683563234325 0.628966002552 0.08016792
v 0.672958724358 0.640967326192 0.08353364
v 0.65278945182 0.659430820972 0.08336294
v 0.651819082586 0.66340046599 0.08860663
v 0.619104619428 0.68592593656 0.08333853
v 0.601083988586 0.698388798427 0.08411899
v 0.58465743666 0.716298424209 0.09543565
v 0.563171250966 0.733838726906 0.10363045
v 0.525605057268 0.669493429674 0.03290141
v 0.54064537569 0.660815551282 0.02963322
v 0.558111617198 0.652876261246 0.02836499
v 0.56102260927 0.644475317353 0.02453586
v 0.218005988545 0.886255034151 0.12738565
v 0.517287829691 0.734854249761 0.07592419
v 0.502455414495 0.732453996596 0.07031465
v 0.507515106078 0.722668322392 0.06402218
v 0.524704008381 0.711497860064 0.05921748
v 0.53648679081 0.694419153409 0.04948616
v 0.513683691959 0.702912370258 0.05158362
v 0.530595428503 0.674570870504 0.03638908
v 0.572458789962 0.632104786257 0.02165791
v 0.580776075354 0.635705166005 0.02519438
v 0.599559172203 0.621857516012 0.02453586
v 0.615639122392 0.603394021232 0.02256033
v 0.61529257847 0.595454731196 0.01975554
v 0.63566981205 0.589638702011 0.0239993
v 0.65604704563 0.570621338233 0.02419442
v 0.664849457824 0.561389533028 0.02436513
v 0.681345272282 0.542095176936 0.0244627
v 0.674136996819 0.541171984852 0.02204815
v 0.698118368131 0.510891827974 0.0221701
v 0.70948528629 0.479042279243 0.01914582
v 0.719050106675 0.455501285819 0.01775563
v 0.737417339255 0.415066189467 0.01680446
v 0.722376963017 0.45900939261 0.01929218
v 0.736239008978 0.445623338659 0.02156037
v 0.748437597861 0.411742802034 0.01992628
v 0.766666305376 0.385339959402 0.02373102
v 0.774706251563 0.359491043584 0.02487731
v 0.774567668683 0.346658916447 0.02390176
v 0.783231440182 0.324133388062 0.02848694
v 0.790370395298 0.316748024839 0.03285262
v 0.792726882405 0.291729970333 0.03609639
v 0.893919962461 -0.0394130982015 0.12350774
v 0.900365829732 -0.0394130982015 0.12738565
v 0.831471348565 0.27372801378 0.06172958
v 0.82135208103 0.295053415582 0.05360794
v 0.825233442336 0.304654428242 0.05624199
v 0.830986221763 0.297176676433 0.0608272
v 0.837570671914 0.290806778249 0.06614405
v 0.839788633957 0.299853921912 0.06868055
v 0.860651052154 0.273820344551 0.08860663
v 0.853512039223 0.269850699533 0.08055815
v 0.873750689923 0.229138668682 0.10006961
v 0.878671740811 0.232092848661 0.10758153
v 0.88220650038 0.226276819475 0.11253256
v 0.881998539338 0.244555652713 0.11631289
v 0.881721315763 0.292376170102 0.16643298
v 0.890800951532 0.259695760059 0.16987187
v 0.887058173105 0.276128266945 0.18252993
v 0.891840641113 0.257110845351 0.17804229
v 0.877008225918 0.29597654985 0.1341171
v 0.882414461422 0.283144422712 0.14875069
v 0.879572674068 0.29634581512 0.15243348
v 0.878047915499 0.279728704507 0.12323946
v 0.873057602079 0.300684783224 0.12170294
v 0.878602362649 0.284529210838 0.12967825
v 0.873889272803 0.285821668192 0.11467883
v 0.895236875617 0.216491145272 0.2497713
v 0.891840641113 0.257664772165 0.19306612
v 0.446314084991 0.805107849133 0.12692225
v 0.418728575948 0.818216968585 0.12880024
v 0.419352343445 0.816555303776 0.1257028
v 0.448116182764 0.799753473805 0.11821526
v 0.458997916306 0.790152461145 0.11104479
v 0.424065491105 0.809262155694 0.1181421
v 0.218005988545 0.888193691274 0.12901974
v 0.405351714603 0.817940091901 0.12028837
v 0.49004886457 0.758856781412 0.08975291
v 0.503980288694 0.784244101188 0.2497713
v 0.73928869956 0.669216495175 0.22977203
v 0.53295191561 0.764303545326 0.2497713
v 0.543556425578 0.756641247604 0.2497713
v 0.563032610271 0.742147340027 0.2497713
v 0.601499852856 0.712882706004 0.2497713
v 0.621946348968 0.697096341073 0.2497713
v 0.516317460457 0.764118883784 0.11282521
v 0.548408098303 0.743439739566 0.10641083
v 0.494692691883 0.774273823257 0.11165455
v 0.466621998223 0.791167926184 0.11821526
v 0.744140372286 0.665985322883 0.22811359
v 0.742407652675 0.666631580468 0.22952816
v 0.8313328235 0.395771833375 0.2497713
v 0.846719570215 0.362352892791 0.2497713
v 0.852888271726 0.34859757357 0.2497713
v 0.858502410458 0.334011393036 0.2497713
v 0.881305451493 0.294407157997 0.19165152
v 0.87208717503 0.321456200398 0.18911505
v 0.850601047151 0.382570440967 0.14799464
v 0.847066171952 0.390232796504 0.13280007
v 0.839095546113 0.410081079409 0.12823927
v 0.830570357493 0.429467766273 0.12353215
v 0.829253444337 0.429744700772 0.11421543
v 0.819896584994 0.449316049178 0.11245939
v 0.814628932369 0.458363135026 0.10794735
v 0.80880689041 0.46888733977 0.10411823
v 0.804301703792 0.472856984788 0.09494784
v 0.795637932293 0.489474211031 0.09467956
v 0.775122115833 0.515230738263 0.08307025
v 0.773943843371 0.513476742682 0.07892406
v 0.757933155715 0.53590988248 0.07692415
v 0.74739802391 0.548003479077 0.07363158
v 0.737833203524 0.565543839589 0.0781436
v 0.719188689555 0.586407645349 0.07570466
v 0.705811828211 0.599424376214 0.07258284
v 0.683147370056 0.621118985472 0.07055852
v 0.672820141478 0.637274615673 0.07787532
v 0.657225318091 0.648352689415 0.07411936
v 0.636570860936 0.668200914505 0.07741192
v 0.621807766088 0.670231960215 0.06750986
v 0.6128667132 0.679556038377 0.07089996
v 0.604272204233 0.688787785767 0.07460716
v 0.59193503247 0.701342978405 0.0804362
v 0.569339894662 0.720175738456 0.08719206
v 0.552220197077 0.736608303156 0.09731361
v 0.548130874728 0.665893049927 0.0338282
v 0.556170936545 0.668754899134 0.03726709
v 0.567676437584 0.65555344891 0.03214532
v 0.580082929694 0.647983424145 0.0313161
v 0.508485417497 0.750455895334 0.08833835
v 0.520822647075 0.745286181548 0.0879969
v 0.539536423577 0.723776060388 0.07402182
v 0.536278829767 0.720914326812 0.07007074
v 0.531496419574 0.714544370813 0.06299782
v 0.537872966498 0.707343611318 0.0591687
v 0.539120559307 0.699681255781 0.05387622
v 0.56157705642 0.678632788478 0.04531556
v 0.539605743924 0.682140895269 0.04241323
v 0.527476417573 0.690541781347 0.04577896
v 0.599489851855 0.634597370194 0.03053564
v 0.607113991588 0.621672912285 0.02682847
v 0.62257017428 0.608748454376 0.02660894
v 0.647868400933 0.588069310158 0.02741382
v 0.667829770243 0.571267538002 0.02875522
v 0.688484285213 0.545880160411 0.02863327
v 0.702069049784 0.518000314513 0.02529192
v 0.716832144632 0.487443165321 0.02334079
v 0.72417906079 0.467410278688 0.02160916
v 0.734783512942 0.461132653461 0.02414563
v 0.743793828363 0.45116237553 0.0255602
v 0.749685248485 0.430575562084 0.02392614
v 0.763477974099 0.408419356785 0.02582851
v 0.778518292522 0.38857107388 0.03087708
v 0.779765943146 0.368722790974 0.0285601
v 0.78759792829 0.352197953318 0.03180388
v 0.785241383368 0.337704103556 0.02965763
v 0.794736941221 0.328841621436 0.03519401
v 0.805826520175 0.311116657197 0.04275471
v 0.811995221687 0.291729970333 0.04741305
v 0.815391398376 0.304746701198 0.04929101
v 0.817955846526 0.310655061155 0.05087632
v 0.820658993186 0.333457524038 0.05446157
v 0.833134805643 0.302254175077 0.06282711
v 0.832996222763 0.32570283773 0.06502214
v 0.840758945376 0.313516910362 0.0713146
v 0.84942277469 0.299576929598 0.07907039
v 0.856631050153 0.293668627456 0.08650914
v 0.865641365574 0.264588597161 0.09392351
v 0.870285135072 0.263111536079 0.10050863
v 0.873265447491 0.256556976353 0.10382557
v 0.866057172028 0.284067614796 0.09802091
v 0.874235816725 0.270219964803 0.10926437
v 0.875760690924 0.312409056735 0.17543262
v 0.870146552192 0.328103090895 0.14833608
v 0.86952272688 0.312501387507 0.11904451
v 0.871324824653 0.313886175632 0.12899536
v 0.868067173029 0.309916530614 0.11219111
v 0.867720686922 0.30483903197 0.10884976
v 0.892672311837 0.226461423203 0.2497713
v 0.883315452494 0.26006502533 0.2497713
v 0.888305823729 0.242709326361 0.2497713
v 0.491157874499 0.772150504591 0.10541087
v 0.512505419498 0.752763817728 0.09260648
v 0.470503417344 0.780274513985 0.10487431
v 0.4931678755 0.761626299847 0.09392351
v 0.626035671317 0.69377295364 0.2497713
v 0.631927033623 0.688880058723 0.2497713
v 0.643155311087 0.678725177064 0.2497713
v 0.649670498706 0.672355221066 0.2497713
v 0.657155997744 0.664508203986 0.2497713
v 0.666374216392 0.654260991557 0.2497713
v 0.529001233957 0.753687009811 0.10565478
v 0.870839640036 0.326625971998 0.18331039
v 0.858363769764 0.360968104666 0.17457899
v 0.864809637035 0.34416633251 0.16092098
v 0.670463596556 0.648629623914 0.2497713
v 0.68883077132 0.623057642595 0.2497713
v 0.745387965094 0.540525785083 0.2497713
v 0.779557982103 0.489381822444 0.2497713
v 0.781360079877 0.486427700281 0.2497713
v 0.795637932293 0.462240507087 0.2497713
v 0.816777574064 0.425128855985 0.2497713
v 0.818441031143 0.422174676006 0.2497713
v 0.870423775767 0.299946252683 0.2497713
v 0.877424090187 0.280005639006 0.24811283
v 0.85968068292 0.35782932096 0.14867753
v 0.853512039223 0.373707958847 0.1366536
v 0.846788948377 0.38857107388 0.12023959
v 0.839095546113 0.407496164702 0.11887378
v 0.836808205907 0.40980414491 0.11089846
v 0.823500722725 0.437222394766 0.1042158
v 0.812619046999 0.453562628695 0.09272844
v 0.800836206755 0.469718201082 0.08458239
v 0.791202066022 0.48735083455 0.08297271
v 0.786904840446 0.487997092134 0.07638758
v 0.775953844372 0.502675603439 0.07275355
v 0.765280014057 0.513938280909 0.06731474
v 0.75980451602 0.527970592444 0.07204628
v 0.747744510017 0.543572295832 0.06977805
v 0.733189376211 0.558897006907 0.06585139
v 0.731248695558 0.568221027253 0.0724121
v 0.721545234478 0.578006701456 0.06975368
v 0.711980414092 0.586130653035 0.06663185
v 0.695553862166 0.598039588089 0.06065646
v 0.694167686477 0.605332678356 0.06607088
v 0.681899777247 0.616133875414 0.06377828
v 0.658750134475 0.63635142359 0.06272954
v 0.644957351046 0.654999522097 0.06968051
v 0.60503467024 0.681771629999 0.06765619
v 0.633382587474 0.655738110453 0.06163204
v 0.615500481697 0.666908514967 0.06016868
v 0.587568428732 0.697373275572 0.07265601
v 0.577657064424 0.707343611318 0.07750949
v 0.560260201079 0.722391387893 0.08372876
v 0.55443815912 0.731623077468 0.09155774
v 0.54133852135 0.739839417634 0.09380156
v 0.540021608194 0.743901335608 0.09899649
v 0.577171937622 0.654353322328 0.03412086
v 0.570656750004 0.673001478651 0.04429123
v 0.592697440662 0.649922081268 0.03690124
v 0.552358779956 0.720360342183 0.07694852
v 0.537179878654 0.73106920847 0.08082643
v 0.563656435583 0.709097606899 0.07109508
v 0.558943287922 0.705035688924 0.06502214
v 0.547229883657 0.705497284966 0.06094915
v 0.562893969576 0.695065410994 0.05809557
v 0.55443815912 0.691464973431 0.05263236
v 0.60704467124 0.640690333878 0.03670615
v 0.62229289289 0.621765243056 0.03251117
v 0.636917404859 0.607825262292 0.03148681
v 0.657017357049 0.591392755407 0.03258434
v 0.664988040703 0.592223616719 0.03651103
v 0.68141459263 0.570252015148 0.0345355
v 0.695068735364 0.546434087224 0.03173071
v 0.710178374134 0.516800187931 0.02838939
v 0.727644557827 0.483935116345 0.0267309
v 0.72175319552 0.504152664521 0.02975518
v 0.746081110754 0.462148176316 0.02938935
v 0.758418340332 0.443038423951 0.03087708
v 0.757448028913 0.431498754168 0.02763331
v 0.772072425251 0.414696982012 0.03195024
v 0.781706565984 0.401957127831 0.03543788
v 0.788776258567 0.393094645711 0.03860849
v 0.78856835534 0.370753778869 0.03455988
v 0.79813311791 0.355152133296 0.03921825
v 0.796400340484 0.342227675387 0.03675491
v 0.804509664834 0.326533699042 0.04165718
v 0.811440658907 0.314440102445 0.04638869
v 0.806727569062 0.339273495408 0.04397416
v 0.812757572063 0.329487821205 0.0479984
v 0.806311704792 0.354967471753 0.04560825
v 0.81379720383 0.36087583171 0.05251044
v 0.820658993186 0.352567218588 0.05753464
v 0.828005793713 0.354598206483 0.06490019
v 0.8364617198 0.338534964868 0.07055852
v 0.846996851605 0.315086302215 0.07826555
v 0.852333708947 0.308716404031 0.08385071
v 0.860373770764 0.301515586721 0.09314305
v 0.86453241346 0.305115966469 0.10221586
v 0.864255189885 0.341858410116 0.13440979
v 0.860928275729 0.345735724363 0.12133712
v 0.858155808721 0.350628561465 0.11509344
v 0.855868584146 0.335580784889 0.09787458
v 0.860027226842 0.328103090895 0.10343534
v 0.856769633033 0.344720259323 0.10577673
v 0.860581673991 0.316932628567 0.09924036
v 0.504396095149 0.761903292161 0.099655
v 0.484504046186 0.769473316927 0.09887454
v 0.847204812647 0.383032037009 0.11294717
v 0.837362710872 0.401126266518 0.10016716
v 0.830986221763 0.418204973173 0.10241097
v 0.819827206831 0.439991971017 0.09611854
v 0.827035482294 0.421620749193 0.09453323
v 0.815529981256 0.435653060729 0.08238736
v 0.803955159869 0.457532331529 0.07911918
v 0.796677621874 0.464363825754 0.0733389
v 0.785934529027 0.480150075054 0.06943661
v 0.748368335329 0.538679458731 0.066266
v 0.762646303375 0.511907350829 0.06263199
v 0.734506289368 0.550865328284 0.06116864
v 0.71731732925 0.571729076229 0.05968088
v 0.707405907127 0.580314681665 0.05733952
v 0.695207318244 0.586407645349 0.05155924
v 0.688207003823 0.599978245212 0.05621761
v 0.677879775246 0.60736366625 0.05377868
v 0.664988040703 0.621857516012 0.05541277
v 0.671364587627 0.621488250742 0.06002232
v 0.659096678397 0.620472785702 0.04997393
v 0.643363214315 0.640690333878 0.05504692
v 0.590410158272 0.682233226041 0.05948576
v 0.588608118313 0.687772262912 0.06365633
v 0.623124621429 0.654907249141 0.05436403
v 0.615847025619 0.653984057058 0.04965687
v 0.60503467024 0.667923980006 0.05533957
v 0.577865025466 0.699681255781 0.06924149
v 0.578419472616 0.661554081823 0.03916946
v 0.585419844852 0.677525050482 0.05343723
v 0.592142935697 0.664231269487 0.04624236
v 0.607529798042 0.645767774707 0.0401938
v 0.618619492626 0.644475317353 0.04436439
v 0.63282808251 0.627396610699 0.04007187
v 0.64766043989 0.605517339898 0.03495011
v 0.656740133474 0.604686478586 0.03885239
v 0.675453909976 0.590746555637 0.04141328
v 0.688761508788 0.572467664585 0.03953528
v 0.699573864167 0.551511528053 0.03580374
v 0.717248008902 0.523170086114 0.0340721
v 0.737971786404 0.484119777888 0.03168195
v 0.735615241482 0.499075165876 0.03526717
v 0.749962529875 0.47304164633 0.0345355
v 0.766666305376 0.44599260393 0.03670615
v 0.777894525025 0.423282471817 0.0379256
v 0.787112743673 0.416727912092 0.04302299
v 0.794875581916 0.392263784399 0.04280347
v 0.797370709718 0.369369048559 0.04070598
v 0.807975219686 0.368999725473 0.04909593
v 0.801945216684 0.390786723317 0.04816914
v 0.81067830853 0.388478743108 0.05553469
v 0.818302448263 0.375738946742 0.05980283
v 0.821975906342 0.380170187802 0.06504655
v 0.835352767686 0.363922284644 0.07577783
v 0.837986536184 0.343889398011 0.0733633
v 0.846650307682 0.336411646202 0.08277759
v 0.851502038223 0.324133388062 0.08621648
v 0.853165495301 0.325979772229 0.0893383
v 0.848175181881 0.369553652286 0.10131347
v 0.850115862534 0.34896683884 0.09289914
v 0.84443246127 0.383585906007 0.10404506
v 0.840481721801 0.388386470152 0.09709412
v 0.834936845601 0.401033993562 0.0948503
v 0.82391652918 0.415343181781 0.08260685
v 0.814282446262 0.433068146021 0.07826555
v 0.807905841523 0.442022958912 0.07465592
v 0.797994477215 0.453008701882 0.06755865
v 0.783092741672 0.479411544514 0.06543678
v 0.774290387294 0.487443165321 0.0601199
v 0.750932841294 0.524000947426 0.05836385
v 0.768676306377 0.490489676071 0.05612004
v 0.733120113679 0.538679458731 0.05136412
v 0.716208377136 0.562866594109 0.05253482
v 0.675800453898 0.603578682775 0.04951054
v 0.713643871171 0.556035099885 0.04651064
v 0.699712562677 0.569975080649 0.04487658
v 0.686612867092 0.586407645349 0.04585212
v 0.655215317091 0.61419521829 0.04358393
v 0.631649810049 0.640413341564 0.04829109
v 0.596578801968 0.66746244178 0.05085194
v 0.708930781325 0.552434720137 0.0413889
v 0.721822458053 0.528339857714 0.03848657
v 0.733743823361 0.512738212141 0.03921825
v 0.747190062868 0.483935116345 0.03651103
v 0.759042050013 0.470549062394 0.03960848
v 0.774844892258 0.44599260393 0.04236448
v 0.777963845373 0.432791153707 0.04055965
v 0.792657619873 0.416174043094 0.04702282
v 0.802291702791 0.408234695242 0.05329087
v 0.80880689041 0.408142422286 0.05980283
v 0.816431030142 0.391525253858 0.06246126
v 0.823084858456 0.390140465733 0.06955856
v 0.828283075103 0.379523930217 0.07211944
v 0.836946962232 0.367153399121 0.07928991
v 0.841382712873 0.343889398011 0.07787532
v 0.846165123065 0.354228941212 0.08848467
v 0.846303821575 0.370292182827 0.09745994
v 0.839095546113 0.383216698551 0.09053338
v 0.835214069176 0.383401302279 0.08363122
v 0.830847581068 0.404080388681 0.08858225
v 0.829045483295 0.391802188357 0.07821676
v 0.817054797639 0.412758267073 0.07094875
v 0.809292017212 0.418943561529 0.06426609
v 0.800351079953 0.432606549979 0.06046134
v 0.790162492071 0.448946783908 0.05682734
v 0.779696564983 0.471102989207 0.05697367
v 0.756962786481 0.508676236352 0.05541277
v 0.747190062868 0.514122942451 0.04968125
v 0.766596927214 0.484488985343 0.05126655
v 0.743031477987 0.511722689286 0.04516923
v 0.723416652599 0.535448286438 0.04282784
v 0.742061166568 0.503875730022 0.04121816
v 0.75737865075 0.489381822444 0.04585212
v 0.768052481065 0.465286960022 0.04412049
v 0.782469031991 0.453931893966 0.05168119
v 0.782676993033 0.437407056309 0.0457058
v 0.792103114909 0.433437411291 0.05238849
v 0.80069756606 0.421620749193 0.05631515
f 1 2 3
f 1 3 4
f 1 4 5
f 1 5 6
f 1 6 7
f 1 7 8
f 1 8 9
f 1 9 10
f 1 10 11
f 1 11 12
f 1 12 13
f 1 13 14
f 1 14 15
f 1 15 16
f 1 16 34
f 1 34 59
f 1 59 90
f 1 90 89
f 1 89 130
f 1 130 129
f 1 129 128
f 1 128 178
f 1 178 177
f 1 177 176
f 1 176 245
f 1 245 244
f 1 244 243
f 1 243 242
f 1 242 241
f 1 241 240
f 1 240 239
f 1 239 238
f 1 238 237
f 1 237 236
f 1 236 312
f 1 312 311
f 1 311 310
f 1 310 309
f 1 309 381
f 1 381 380
f 1 380 447
f 1 447 446
f 1 446 516
f 1 516 611
f 1 611 612
f 1 612 517
f 1 517 450
f 1 450 448
f 1 448 402
f 1 402 327
f 1 327 256
f 1 256 255
f 1 255 254
f 1 254 189
f 1 189 137
f 1 137 94
f 1 94 62
f 1 62 35
f 1 35 17
f 1 17 36
f 1 36 63
f 1 63 96
f 1 96 140
f 1 140 193
f 1 193 264
f 1 264 338
f 1 338 339
f 1 339 413
f 1 413 412
f 1 412 479
f 1 479 550
f 1 550 644
f 1 644 580
f 1 580 496
f 1 496 495
f 1 495 426
f 1 426 423
f 1 423 422
f 1 422 371
f 1 371 298
f 1 298 297
f 1 297 280
f 1 280 278
f 1 278 277
f 1 277 276
f 1 276 275
f 1 275 349
f 1 349 348
f 1 348 350
f 1 350 281
f 1 281 208
f 1 208 150
f 1 150 108
f 1 108 107
f 1 107 106
f 1 106 105
f 1 105 99
f 1 99 66
f 1 66 37
f 1 37 18
f 1 18 2
f 2 18 3
f 3 19 20
f 3 20 4
f 3 18 19
f 4 20 21
f 4 21 5
f 5 21 6
f 6 22 23
f 6 23 24
f 6 24 7
f 6 21 22
f 7 24 8
f 8 24 25
f 8 25 26
f 8 26 10
f 8 10 9
f 10 26 27
f 10 27 28
f 10 28 11
f 11 28 12
f 12 28 29
f 12 29 13
f 13 29 30
f 13 30 31
f 13 31 32
f 13 32 14
f 14 32 15
f 15 32 33
f 15 33 16
f 16 33 34
f 17 35 61
f 17 61 92
f 17 92 131
f 17 131 179
f 17 179 184
f 17 184 253
f 17 253 252
f 17 252 326
f 17 326 401
f 17 401 467
f 17 467 466
f 17 466 539
f 17 539 636
f 17 636 746
f 17 746 748
f 17 748 747
f 17 747 771
f 17 771 663
f 17 663 662
f 17 662 661
f 17 661 660
f 17 660 770
f 17 770 769
f 17 769 768
f 17 768 767
f 17 767 766
f 17 766 765
f 17 765 764
f 17 764 763
f 17 763 758
f 17 758 757
f 17 757 756
f 17 756 755
f 17 755 754
f 17 754 753
f 17 753 653
f 17 653 652
f 17 652 651
f 17 651 650
f 17 650 649
f 17 649 647
f 17 647 551
f 17 551 480
f 17 480 414
f 17 414 340
f 17 340 265
f 17 265 195
f 17 195 194
f 17 194 141
f 17 141 97
f 17 97 64
f 17 64 36
f 18 37 19
f 19 37 38
f 19 38 20
f 20 39 40
f 20 40 21
f 20 38 39
f 21 40 41
f 21 41 22
f 22 42 43
f 22 43 23
f 22 41 44
f 22 44 42
f 23 43 45
f 23 45 46
f 23 46 47
f 23 47 24
f 24 47 25
f 25 47 26
f 26 47 27
f 27 47 48
f 27 48 28
f 28 48 29
f 29 48 49
f 29 49 50
f 29 50 30
f 30 50 51
f 30 51 52
f 30 52 31
f 31 53 32
f 31 52 53
f 32 54 55
f 32 55 33
f 32 53 54
f 33 56 57
f 33 57 58
f 33 58 34
f 33 55 56
f 34 58 57
f 34 57 59
f 35 60 61
f 35 62 60
f 36 64 65
f 36 65 63
f 37 66 38
f 38 66 67
f 38 67 39
f 39 68 69
f 39 69 40
f 39 67 70
f 39 70 68
f 40 69 71
f 40 71 41
f 41 71 44
f 42 44 72
f 42 72 73
f 42 73 43
f 43 74 45
f 43 73 75
f 43 75 74
f 44 71 76
f 44 76 72
f 45 74 77
f 45 77 78
f 45 78 50
f 45 50 46
f 46 50 49
f 46 49 47
f 47 49 48
f 50 78 79
f 50 79 80
f 50 80 51
f 51 80 81
f 51 81 52
f 52 81 82
f 52 82 53
f 53 82 83
f 53 83 54
f 54 83 84
f 54 84 55
f 55 84 56
f 56 85 86
f 56 86 87
f 56 87 57
f 56 84 85
f 57 87 88
f 57 88 89
f 57 89 90
f 57 90 59
f 60 62 61
f 61 91 92
f 61 62 93
f 61 93 91
f 62 94 95
f 62 95 93
f 63 65 96
f 64 97 98
f 64 98 65
f 65 98 96
f 66 99 67
f 67 99 70
f 68 70 100
f 68 100 69
f 69 100 101
f 69 101 102
f 69 102 103
f 69 103 71
f 70 104 100
f 70 99 105
f 70 105 106
f 70 106 107
f 70 107 108
f 70 108 104
f 71 103 76
f 72 76 109
f 72 109 110
f 72 110 73
f 73 110 111
f 73 111 112
f 73 112 75
f 74 75 77
f 75 112 113
f 75 113 114
f 75 114 115
f 75 115 77
f 76 103 116
f 76 116 117
f 76 117 109
f 77 115 118
f 77 118 79
f 77 79 78
f 79 118 119
f 79 119 80
f 80 119 81
f 81 119 120
f 81 120 82
f 82 120 83
f 83 120 121
f 83 121 122
f 83 122 123
f 83 123 84
f 84 123 85
f 85 123 124
f 85 124 86
f 86 124 125
f 86 125 126
f 86 126 87
f 87 126 88
f 88 126 127
f 88 127 128
f 88 128 129
f 88 129 130
f 88 130 89
f 91 131 92
f 91 93 132
f 91 132 131
f 93 95 94
f 93 94 133
f 93 133 134
f 93 134 135
f 93 135 136
f 93 136 132
f 94 137 133
f 96 138 139
f 96 139 140
f 96 98 97
f 96 97 138
f 97 141 142
f 97 142 143
f 97 143 138
f 100 104 144
f 100 144 145
f 100 145 146
f 100 146 101
f 101 146 147
f 101 147 102
f 102 116 103
f 102 147 148
f 102 148 149
f 102 149 116
f 104 108 144
f 108 150 144
f 109 117 151
f 109 151 110
f 110 151 152
f 110 152 153
f 110 153 111
f 111 153 154
f 111 154 112
f 112 154 155
f 112 155 113
f 113 155 114
f 114 156 115
f 114 155 157
f 114 157 158
f 114 158 156
f 115 156 118
f 116 149 159
f 116 159 160
f 116 160 117
f 117 160 161
f 117 161 162
f 117 162 151
f 118 156 163
f 118 163 119
f 119 163 164
f 119 164 165
f 119 165 166
f 119 166 120
f 120 166 121
f 121 166 167
f 121 167 168
f 121 168 169
f 121 169 122
f 122 169 123
f 123 169 170
f 123 170 124
f 124 171 172
f 124 172 125
f 124 170 171
f 125 172 173
f 125 173 126
f 126 173 174
f 126 174 175
f 126 175 127
f 127 175 176
f 127 176 177
f 127 177 178
f 127 178 128
f 131 132 179
f 132 136 180
f 132 180 181
f 132 181 182
f 132 182 183
f 132 183 184
f 132 184 179
f 133 137 185
f 133 185 134
f 134 186 135
f 134 185 187
f 134 187 186
f 135 186 136
f 136 186 187
f 136 187 188
f 136 188 180
f 137 189 185
f 138 190 191
f 138 191 192
f 138 192 139
f 138 143 190
f 139 192 140
f 140 192 193
f 141 194 142
f 142 194 195
f 142 195 196
f 142 196 197
f 142 197 143
f 143 197 198
f 143 198 199
f 143 199 200
f 143 200 190
f 144 201 145
f 144 150 202
f 144 202 201
f 145 201 146
f 146 201 203
f 146 203 204
f 146 204 147
f 147 204 149
f 147 149 148
f 149 204 205
f 149 205 206
f 149 206 207
f 149 207 159
f 150 208 202
f 151 162 152
f 152 162 153
f 153 162 209
f 153 209 210
f 153 210 211
f 153 211 212
f 153 212 213
f 153 213 214
f 153 214 215
f 153 215 154
f 154 215 214
f 154 214 155
f 155 214 216
f 155 216 157
f 156 158 217
f 156 217 163
f 157 216 218
f 157 218 158
f 158 218 219
f 158 219 220
f 158 220 217
f 159 207 221
f 159 221 161
f 159 161 160
f 161 221 222
f 161 222 223
f 161 223 209
f 161 209 162
f 163 217 224
f 163 224 225
f 163 225 164
f 164 225 165
f 165 225 226
f 165 226 166
f 166 226 167
f 167 226 227
f 167 227 168
f 168 227 228
f 168 228 169
f 169 228 170
f 170 228 171
f 171 228 229
f 171 229 230
f 171 230 231
f 171 231 172
f 172 231 232
f 172 232 233
f 172 233 234
f 172 234 173
f 173 234 235
f 173 235 174
f 174 235 236
f 174 236 237
f 174 237 238
f 174 238 239
f 174 239 240
f 174 240 175
f 175 240 241
f 175 241 242
f 175 242 243
f 175 243 244
f 175 244 245
f 175 245 176
f 180 188 246
f 180 246 247
f 180 247 181
f 181 247 248
f 181 248 249
f 181 249 182
f 182 249 250
f 182 250 183
f 183 250 251
f 183 251 252
f 183 252 253
f 183 253 184
f 185 254 255
f 185 255 256
f 185 256 257
f 185 257 258
f 185 258 259
f 185 259 188
f 185 188 187
f 185 189 254
f 188 259 246
f 190 200 260
f 190 260 261
f 190 261 191
f 191 261 192
f 192 261 262
f 192 262 263
f 192 263 264
f 192 264 193
f 195 265 266
f 195 266 196
f 196 266 197
f 197 266 198
f 198 266 267
f 198 267 268
f 198 268 199
f 199 268 269
f 199 269 270
f 199 270 260
f 199 260 200
f 201 271 203
f 201 202 272
f 201 272 271
f 202 208 272
f 203 271 204
f 204 271 273
f 204 273 205
f 205 273 271
f 205 271 274
f 205 274 206
f 206 274 275
f 206 275 276
f 206 276 277
f 206 277 278
f 206 278 207
f 207 279 222
f 207 222 221
f 207 278 280
f 207 280 279
f 208 281 272
f 209 223 210
f 210 212 211
f 210 223 282
f 210 282 283
f 210 283 212
f 212 283 284
f 212 284 285
f 212 285 213
f 213 216 214
f 213 285 216
f 216 285 286
f 216 286 218
f 217 220 224
f 218 286 219
f 219 286 287
f 219 287 288
f 219 288 220
f 220 289 290
f 220 290 291
f 220 291 225
f 220 225 224
f 220 288 292
f 220 292 293
f 220 293 294
f 220 294 289
f 222 279 295
f 222 295 223
f 223 296 282
f 223 295 297
f 223 297 298
f 223 298 296
f 225 291 299
f 225 299 290
f 225 290 226
f 226 290 227
f 227 300 228
f 227 290 301
f 227 301 302
f 227 302 300
f 228 300 302
f 228 302 303
f 228 303 229
f 229 303 230
f 230 303 304
f 230 304 305
f 230 305 231
f 231 305 232
f 232 306 307
f 232 307 233
f 232 305 306
f 233 308 234
f 233 307 309
f 233 309 310
f 233 310 311
f 233 311 308
f 234 308 311
f 234 311 312
f 234 312 236
f 234 236 235
f 246 313 247
f 246 259 314
f 246 314 315
f 246 315 316
f 246 316 317
f 246 317 318
f 246 318 313
f 247 313 248
f 248 319 249
f 248 313 320
f 248 320 319
f 249 319 321
f 249 321 322
f 249 322 323
f 249 323 324
f 249 324 250
f 250 324 325
f 250 325 251
f 251 325 252
f 252 325 326
f 256 327 257
f 257 327 328
f 257 328 258
f 258 314 259
f 258 328 314
f 260 329 330
f 260 330 331
f 260 331 332
f 260 332 333
f 260 333 334
f 260 334 261
f 260 270 269
f 260 269 329
f 261 334 262
f 262 334 333
f 262 333 335
f 262 335 336
f 262 336 337
f 262 337 263
f 263 338 264
f 263 337 339
f 263 339 338
f 265 340 266
f 266 340 341
f 266 341 267
f 267 341 342
f 267 342 268
f 268 342 343
f 268 343 329
f 268 329 269
f 271 344 274
f 271 272 345
f 271 345 346
f 271 346 347
f 271 347 348
f 271 348 344
f 272 281 345
f 274 344 349
f 274 349 275
f 279 280 297
f 279 297 295
f 281 350 351
f 281 351 345
f 282 296 352
f 282 352 283
f 283 352 353
f 283 353 354
f 283 354 355
f 283 355 284
f 284 355 285
f 285 356 286
f 285 355 357
f 285 357 358
f 285 358 356
f 286 356 287
f 287 356 359
f 287 359 288
f 288 359 360
f 288 360 361
f 288 361 362
f 288 362 292
f 289 294 293
f 289 293 290
f 290 299 291
f 290 293 363
f 290 363 364
f 290 364 365
f 290 365 366
f 290 366 301
f 292 362 367
f 292 367 293
f 293 364 363
f 293 367 368
f 293 368 369
f 293 369 370
f 293 370 364
f 296 298 352
f 298 371 352
f 301 366 372
f 301 372 373
f 301 373 302
f 302 373 374
f 302 374 375
f 302 375 303
f 303 375 304
f 304 375 376
f 304 376 377
f 304 377 305
f 305 377 306
f 306 377 378
f 306 378 379
f 306 379 307
f 307 379 380
f 307 380 381
f 307 381 309
f 313 318 382
f 313 382 320
f 314 328 383
f 314 383 315
f 315 383 328
f 315 328 384
f 315 384 385
f 315 385 386
f 315 386 316
f 316 386 387
f 316 387 388
f 316 388 317
f 317 388 318
f 318 388 389
f 318 389 390
f 318 390 391
f 318 391 382
f 319 320 321
f 320 392 393
f 320 393 394
f 320 394 321
f 320 382 395
f 320 395 392
f 321 394 322
f 322 396 397
f 322 397 323
f 322 394 398
f 322 398 399
f 322 399 396
f 323 397 400
f 323 400 325
f 323 325 324
f 325 400 326
f 326 400 401
f 327 402 328
f 328 402 384
f 329 343 330
f 330 403 404
f 330 404 405
f 330 405 406
f 330 406 331
f 330 343 403
f 331 407 332
f 331 406 408
f 331 408 407
f 332 407 333
f 333 407 335
f 335 407 336
f 336 409 410
f 336 410 337
f 336 407 409
f 337 410 411
f 337 411 412
f 337 412 413
f 337 413 339
f 340 414 415
f 340 415 341
f 341 415 416
f 341 416 417
f 341 417 342
f 342 417 418
f 342 418 419
f 342 419 403
f 342 403 343
f 344 348 349
f 345 351 350
f 345 350 420
f 345 420 346
f 346 420 348
f 346 348 347
f 348 420 350
f 352 421 353
f 352 371 422
f 352 422 423
f 352 423 421
f 353 424 425
f 353 425 354
f 353 421 423
f 353 423 426
f 353 426 424
f 354 425 355
f 355 425 357
f 356 358 427
f 356 427 359
f 357 425 428
f 357 428 358
f 358 428 427
f 359 427 429
f 359 429 360
f 360 429 430
f 360 430 361
f 361 430 362
f 362 430 431
f 362 431 432
f 362 432 368
f 362 368 367
f 364 370 433
f 364 433 365
f 365 433 434
f 365 434 366
f 366 434 372
f 368 432 369
f 369 432 435
f 369 435 436
f 369 436 437
f 369 437 433
f 369 433 370
f 372 434 438
f 372 438 373
f 373 438 439
f 373 439 440
f 373 440 441
f 373 441 374
f 374 441 376
f 374 376 375
f 376 441 442
f 376 442 443
f 376 443 378
f 376 378 377
f 378 443 444
f 378 444 445
f 378 445 379
f 379 445 446
f 379 446 447
f 379 447 380
f 382 391 395
f 384 402 448
f 384 448 449
f 384 449 385
f 385 449 448
f 385 448 450
f 385 450 387
f 385 387 386
f 387 450 451
f 387 451 452
f 387 452 453
f 387 453 454
f 387 454 388
f 388 454 389
f 389 454 390
f 390 454 455
f 390 455 456
f 390 456 457
f 390 457 391
f 391 458 395
f 391 457 458
f 392 459 460
f 392 460 393
f 392 395 461
f 392 461 462
f 392 462 459
f 393 460 398
f 393 398 394
f 395 458 463
f 395 463 464
f 395 464 461
f 396 465 397
f 396 399 465
f 397 465 466
f 397 466 467
f 397 467 400
f 398 460 468
f 398 468 459
f 398 459 399
f 399 459 469
f 399 469 470
f 399 470 465
f 400 467 401
f 403 419 418
f 403 418 471
f 403 471 405
f 403 405 404
f 405 471 472
f 405 472 406
f 406 472 473
f 406 473 474
f 406 474 475
f 406 475 408
f 407 408 409
f 408 475 409
f 409 475 476
f 409 476 410
f 410 476 411
f 411 476 477
f 411 477 478
f 411 478 479
f 411 479 412
f 414 480 415
f 415 481 482
f 415 482 483
f 415 483 484
f 415 484 485
f 415 485 416
f 415 480 486
f 415 486 487
f 415 487 488
f 415 488 489
f 415 489 490
f 415 490 491
f 415 491 481
f 416 485 418
f 416 418 417
f 418 485 471
f 424 492 493
f 424 493 494
f 424 494 425
f 424 426 495
f 424 495 496
f 424 496 492
f 425 494 428
f 427 497 429
f 427 428 497
f 428 494 498
f 428 498 499
f 428 499 497
f 429 497 500
f 429 500 501
f 429 501 430
f 430 501 502
f 430 502 431
f 431 502 503
f 431 503 432
f 432 503 504
f 432 504 505
f 432 505 435
f 433 437 434
f 434 437 506
f 434 506 438
f 435 507 508
f 435 508 437
f 435 437 436
f 435 505 507
f 437 508 509
f 437 509 506
f 438 506 510
f 438 510 439
f 439 510 511
f 439 511 512
f 439 512 440
f 440 512 441
f 441 512 442
f 442 512 513
f 442 513 443
f 443 513 514
f 443 514 515
f 443 515 444
f 444 515 516
f 444 516 445
f 445 516 446
f 450 517 518
f 450 518 519
f 450 519 520
f 450 520 451
f 451 521 452
f 451 520 521
f 452 521 453
f 453 455 454
f 453 521 522
f 453 522 523
f 453 523 455
f 455 523 524
f 455 524 456
f 456 524 525
f 456 525 526
f 456 526 527
f 456 527 528
f 456 528 463
f 456 463 457
f 457 463 458
f 459 462 529
f 459 529 530
f 459 530 469
f 459 468 460
f 461 464 462
f 462 464 531
f 462 531 532
f 462 532 533
f 462 533 530
f 462 530 529
f 463 528 464
f 464 528 534
f 464 534 535
f 464 535 531
f 465 470 536
f 465 536 537
f 465 537 538
f 465 538 466
f 466 538 539
f 469 530 470
f 470 530 540
f 470 540 541
f 470 541 536
f 471 542 543
f 471 543 544
f 471 544 472
f 471 485 542
f 472 545 473
f 472 544 545
f 473 545 474
f 474 546 547
f 474 547 548
f 474 548 549
f 474 549 476
f 474 476 475
f 474 545 546
f 476 549 477
f 477 549 548
f 477 548 550
f 477 550 478
f 478 550 479
f 480 551 552
f 480 552 486
f 481 553 554
f 481 554 482
f 481 491 553
f 482 554 483
f 483 554 555
f 483 555 556
f 483 556 544
f 483 544 543
f 483 543 557
f 483 557 484
f 484 557 542
f 484 542 485
f 486 552 558
f 486 558 559
f 486 559 487
f 487 559 560
f 487 560 561
f 487 561 562
f 487 562 563
f 487 563 564
f 487 564 565
f 487 565 566
f 487 566 567
f 487 567 568
f 487 568 569
f 487 569 570
f 487 570 571
f 487 571 572
f 487 572 488
f 488 572 573
f 488 573 574
f 488 574 489
f 489 574 490
f 490 574 491
f 491 574 575
f 491 575 553
f 492 576 577
f 492 577 493
f 492 496 576
f 493 577 578
f 493 578 579
f 493 579 498
f 493 498 494
f 496 580 581
f 496 581 582
f 496 582 583
f 496 583 584
f 496 584 585
f 496 585 586
f 496 586 587
f 496 587 576
f 497 499 588
f 497 588 500
f 498 579 499
f 499 579 588
f 500 588 589
f 500 589 590
f 500 590 591
f 500 591 501
f 501 591 592
f 501 592 502
f 502 592 593
f 502 593 594
f 502 594 503
f 503 594 595
f 503 595 596
f 503 596 597
f 503 597 504
f 504 597 598
f 504 598 599
f 504 599 505
f 505 599 600
f 505 600 508
f 505 508 507
f 506 509 601
f 506 601 510
f 508 600 509
f 509 600 602
f 509 602 603
f 509 603 601
f 510 604 605
f 510 605 511
f 510 601 604
f 511 605 606
f 511 606 512
f 512 606 607
f 512 607 513
f 513 607 514
f 514 607 608
f 514 608 515
f 515 608 609
f 515 609 610
f 515 610 611
f 515 611 516
f 517 612 518
f 518 613 614
f 518 614 615
f 518 615 616
f 518 616 617
f 518 617 519
f 518 612 613
f 519 617 618
f 519 618 619
f 519 619 620
f 519 620 520
f 520 620 619
f 520 619 621
f 520 621 521
f 521 621 522
f 522 526 523
f 522 621 526
f 523 526 525
f 523 525 524
f 526 621 622
f 526 622 527
f 527 622 623
f 527 623 624
f 527 624 528
f 528 535 534
f 528 624 535
f 530 625 626
f 530 626 627
f 530 627 628
f 530 628 540
f 530 533 629
f 530 629 630
f 530 630 631
f 530 631 625
f 531 629 532
f 531 535 632
f 531 632 633
f 531 633 634
f 531 634 629
f 532 629 533
f 535 624 635
f 535 635 632
f 536 541 537
f 537 541 538
f 538 636 539
f 538 541 637
f 538 637 636
f 540 628 541
f 541 628 627
f 541 627 637
f 542 557 543
f 544 556 638
f 544 638 639
f 544 639 545
f 545 639 640
f 545 640 546
f 546 640 547
f 547 640 641
f 547 641 642
f 547 642 643
f 547 643 548
f 548 644 550
f 548 643 645
f 548 645 646
f 548 646 644
f 551 647 552
f 552 648 558
f 552 647 649
f 552 649 650
f 552 650 651
f 552 651 652
f 552 652 653
f 552 653 648
f 553 654 554
f 553 575 655
f 553 655 654
f 554 654 555
f 555 654 656
f 555 656 657
f 555 657 638
f 555 638 556
f 558 658 560
f 558 560 559
f 558 648 659
f 558 659 660
f 558 660 661
f 558 661 662
f 558 662 663
f 558 663 664
f 558 664 665
f 558 665 658
f 560 658 666
f 560 666 667
f 560 667 668
f 560 668 669
f 560 669 670
f 560 670 671
f 560 671 672
f 560 672 673
f 560 673 674
f 560 674 675
f 560 675 561
f 561 675 676
f 561 676 677
f 561 677 678
f 561 678 562
f 562 678 679
f 562 679 680
f 562 680 563
f 563 680 564
f 564 680 681
f 564 681 565
f 565 681 566
f 566 681 682
f 566 682 568
f 566 568 567
f 568 682 683
f 568 683 684
f 568 684 570
f 568 570 569
f 570 684 685
f 570 685 686
f 570 686 572
f 570 572 571
f 572 686 687
f 572 687 688
f 572 688 689
f 572 689 573
f 573 689 690
f 573 690 691
f 573 691 574
f 574 692 575
f 574 691 692
f 575 692 655
f 576 587 577
f 577 587 693
f 577 693 578
f 578 693 694
f 578 694 695
f 578 695 579
f 579 589 588
f 579 695 696
f 579 696 589
f 580 644 581
f 581 646 697
f 581 697 698
f 581 698 699
f 581 699 700
f 581 700 701
f 581 701 582
f 581 644 646
f 582 701 584
f 582 584 583
f 584 701 702
f 584 702 703
f 584 703 585
f 585 703 704
f 585 704 694
f 585 694 693
f 585 693 705
f 585 705 587
f 585 587 706
f 585 706 586
f 586 706 587
f 587 705 693
f 589 696 707
f 589 707 590
f 590 707 708
f 590 708 709
f 590 709 591
f 591 709 593
f 591 593 592
f 593 709 710
f 593 710 594
f 594 710 711
f 594 711 595
f 595 711 596
f 596 711 712
f 596 712 713
f 596 713 598
f 596 598 597
f 598 713 714
f 598 714 599
f 599 602 600
f 599 714 715
f 599 715 602
f 601 603 604
f 602 715 603
f 603 715 716
f 603 716 717
f 603 717 718
f 603 718 604
f 604 718 719
f 604 719 605
f 605 719 720
f 605 720 721
f 605 721 606
f 606 721 722
f 606 722 607
f 607 722 723
f 607 723 608
f 608 723 724
f 608 724 609
f 609 724 725
f 609 725 726
f 609 726 610
f 610 726 611
f 611 726 612
f 612 726 613
f 613 726 614
f 614 726 727
f 614 727 728
f 614 728 615
f 615 728 729
f 615 729 730
f 615 730 617
f 615 617 616
f 617 730 618
f 618 730 729
f 618 729 731
f 618 731 732
f 618 732 733
f 618 733 619
f 619 733 734
f 619 734 735
f 619 735 621
f 621 735 622
f 622 735 736
f 622 736 737
f 622 737 624
f 622 624 623
f 624 737 738
f 624 738 739
f 624 739 635
f 625 740 627
f 625 627 626
f 625 631 741
f 625 741 740
f 627 740 664
f 627 664 637
f 629 631 630
f 629 634 633
f 629 633 742
f 629 742 743
f 629 743 631
f 631 743 741
f 632 635 744
f 632 744 633
f 633 744 742
f 635 739 745
f 635 745 744
f 636 637 746
f 637 664 747
f 637 747 748
f 637 748 746
f 638 640 639
f 638 657 641
f 638 641 640
f 641 657 656
f 641 656 749
f 641 749 642
f 642 749 750
f 642 750 751
f 642 751 643
f 643 751 645
f 645 751 646
f 646 751 752
f 646 752 697
f 648 653 753
f 648 753 754
f 648 754 755
f 648 755 756
f 648 756 757
f 648 757 758
f 648 758 659
f 654 655 759
f 654 759 656
f 655 692 759
f 656 759 749
f 658 665 760
f 658 760 761
f 658 761 762
f 658 762 666
f 659 758 763
f 659 763 764
f 659 764 765
f 659 765 766
f 659 766 767
f 659 767 768
f 659 768 769
f 659 769 770
f 659 770 660
f 663 771 664
f 664 740 760
f 664 760 665
f 664 771 772
f 664 772 747
f 666 762 773
f 666 773 774
f 666 774 667
f 667 775 668
f 667 774 775
f 668 775 776
f 668 776 669
f 669 776 670
f 670 776 777
f 670 777 778
f 670 778 671
f 671 778 672
f 672 778 673
f 673 778 779
f 673 779 674
f 674 779 780
f 674 780 781
f 674 781 675
f 675 781 676
f 676 781 677
f 677 781 782
f 677 782 783
f 677 783 784
f 677 784 785
f 677 785 678
f 678 785 786
f 678 786 679
f 679 786 680
f 680 786 787
f 680 787 788
f 680 788 789
f 680 789 681
f 681 789 682
f 682 789 790
f 682 790 791
f 682 791 792
f 682 792 793
f 682 793 683
f 683 793 685
f 683 685 684
f 685 793 794
f 685 794 795
f 685 795 686
f 686 795 687
f 687 796 688
f 687 795 797
f 687 797 798
f 687 798 796
f 688 796 689
f 689 796 799
f 689 799 690
f 690 799 800
f 690 800 691
f 691 800 801
f 691 801 802
f 691 802 692
f 692 802 803
f 692 803 804
f 692 804 759
f 694 805 695
f 694 704 806
f 694 806 805
f 695 805 696
f 696 805 807
f 696 807 707
f 697 752 698
f 698 801 808
f 698 808 809
f 698 809 699
f 698 752 750
f 698 750 803
f 698 803 802
f 698 802 801
f 699 809 808
f 699 808 810
f 699 810 811
f 699 811 700
f 700 811 812
f 700 812 702
f 700 702 701
f 702 813 814
f 702 814 704
f 702 704 703
f 702 812 813
f 704 814 813
f 704 813 806
f 707 807 815
f 707 815 816
f 707 816 708
f 708 816 817
f 708 817 709
f 709 817 710
f 710 817 818
f 710 818 711
f 711 818 819
f 711 819 820
f 711 820 821
f 711 821 712
f 712 821 822
f 712 822 713
f 713 823 714
f 713 822 824
f 713 824 823
f 714 823 716
f 714 716 715
f 716 823 717
f 717 823 825
f 717 825 826
f 717 826 827
f 717 827 718
f 718 827 719
f 719 827 828
f 719 828 720
f 720 828 829
f 720 829 830
f 720 830 831
f 720 831 721
f 721 831 722
f 722 831 832
f 722 832 833
f 722 833 723
f 723 833 724
f 724 833 834
f 724 834 835
f 724 835 725
f 725 835 727
f 725 727 726
f 727 835 728
f 728 835 834
f 728 834 836
f 728 836 837
f 728 837 729
f 729 837 836
f 729 836 838
f 729 838 839
f 729 839 840
f 729 840 731
f 731 840 841
f 731 841 842
f 731 842 732
f 732 842 843
f 732 843 733
f 733 843 734
f 734 843 844
f 734 844 845
f 734 845 735
f 735 845 738
f 735 738 736
f 736 738 737
f 738 845 846
f 738 846 739
f 739 846 745
f 740 762 760
f 740 741 762
f 741 743 847
f 741 847 774
f 741 774 773
f 741 773 762
f 742 848 743
f 742 744 849
f 742 849 848
f 743 848 847
f 744 745 850
f 744 850 851
f 744 851 852
f 744 852 849
f 745 846 853
f 745 853 850
f 747 772 771
f 749 759 854
f 749 854 750
f 750 752 855
f 750 855 751
f 750 854 803
f 751 855 752
f 759 804 854
f 760 762 761
f 774 847 775
f 775 848 849
f 775 849 856
f 775 856 777
f 775 777 776
f 775 847 848
f 777 856 857
f 777 857 858
f 777 858 778
f 778 858 859
f 778 859 779
f 779 859 860
f 779 860 861
f 779 861 862
f 779 862 780
f 780 862 781
f 781 862 782
f 782 862 863
f 782 863 864
f 782 864 783
f 783 864 784
f 784 865 785
f 784 864 866
f 784 866 865
f 785 865 786
f 786 865 787
f 787 789 788
f 787 865 867
f 787 867 868
f 787 868 789
f 789 868 790
f 790 868 791
f 791 793 792
f 791 868 869
f 791 869 870
f 791 870 871
f 791 871 793
f 793 871 872
f 793 872 873
f 793 873 874
f 793 874 794
f 794 874 873
f 794 873 875
f 794 875 876
f 794 876 795
f 795 876 797
f 796 798 877
f 796 877 878
f 796 878 799
f 797 876 879
f 797 879 798
f 798 879 880
f 798 880 881
f 798 881 877
f 799 878 882
f 799 882 800
f 800 882 810
f 800 810 801
f 801 810 808
f 803 854 804
f 805 806 883
f 805 883 807
f 806 813 884
f 806 884 885
f 806 885 883
f 807 883 885
f 807 885 886
f 807 886 815
f 810 882 811
f 811 882 877
f 811 877 813
f 811 813 812
f 813 877 884
f 815 886 887
f 815 887 888
f 815 888 816
f 816 888 817
f 817 888 889
f 817 889 818
f 818 889 819
f 819 889 890
f 819 890 891
f 819 891 892
f 819 892 820
f 820 892 893
f 820 893 821
f 821 893 894
f 821 894 822
f 822 894 824
f 823 824 895
f 823 895 825
f 824 894 896
f 824 896 895
f 825 895 897
f 825 897 826
f 826 828 827
f 826 897 898
f 826 898 828
f 828 898 899
f 828 899 829
f 829 899 900
f 829 900 901
f 829 901 830
f 830 901 831
f 831 901 902
f 831 902 832
f 832 902 838
f 832 838 836
f 832 836 833
f 833 836 834
f 838 903 839
f 838 902 903
f 839 903 904
f 839 904 905
f 839 905 906
f 839 906 841
f 839 841 840
f 841 906 907
f 841 907 908
f 841 908 909
f 841 909 842
f 842 909 843
f 843 909 910
f 843 910 911
f 843 911 844
f 844 911 845
f 845 853 846
f 845 911 912
f 845 912 853
f 849 852 913
f 849 913 856
f 850 914 913
f 850 913 852
f 850 852 851
f 850 853 912
f 850 912 914
f 856 913 915
f 856 915 857
f 857 915 913
f 857 913 916
f 857 916 917
f 857 917 918
f 857 918 860
f 857 860 858
f 858 860 859
f 860 918 861
f 861 918 919
f 861 919 862
f 862 919 920
f 862 920 921
f 862 921 863
f 863 921 864
f 864 921 922
f 864 922 923
f 864 923 866
f 865 866 924
f 865 924 867
f 866 923 925
f 866 925 924
f 867 924 926
f 867 926 868
f 868 926 927
f 868 927 869
f 869 927 870
f 870 928 872
f 870 872 871
f 870 927 929
f 870 929 930
f 870 930 931
f 870 931 928
f 872 928 875
f 872 875 873
f 875 928 932
f 875 932 888
f 875 888 933
f 875 933 876
f 876 933 879
f 877 882 878
f 877 881 934
f 877 934 884
f 879 933 880
f 880 934 881
f 880 933 887
f 880 887 886
f 880 886 885
f 880 885 934
f 884 934 885
f 887 933 888
f 888 890 889
f 888 932 890
f 890 932 891
f 891 932 928
f 891 928 931
f 891 931 892
f 892 931 930
f 892 930 935
f 892 935 893
f 893 936 894
f 893 935 936
f 894 936 937
f 894 937 896
f 895 896 938
f 895 938 897
f 896 937 938
f 897 938 939
f 897 939 898
f 898 939 940
f 898 940 941
f 898 941 899
f 899 941 900
f 900 942 901
f 900 941 942
f 901 942 904
f 901 904 902
f 902 904 903
f 904 942 943
f 904 943 905
f 905 943 944
f 905 944 945
f 905 945 906
f 906 945 907
f 907 946 947
f 907 947 908
f 907 945 946
f 908 948 910
f 908 910 949
f 908 949 909
f 908 947 948
f 909 949 910
f 910 950 912
f 910 912 911
f 910 948 950
f 912 950 914
f 913 914 951
f 913 951 916
f 914 952 951
f 914 950 953
f 914 953 952
f 916 951 952
f 916 952 954
f 916 954 917
f 917 954 918
f 918 954 952
f 918 952 953
f 918 953 955
f 918 955 956
f 918 956 919
f 919 956 920
f 920 956 921
f 921 956 957
f 921 957 958
f 921 958 959
f 921 959 960
f 921 960 922
f 922 960 923
f 923 960 925
f 924 925 961
f 924 961 962
f 924 962 926
f 925 963 962
f 925 962 961
f 925 960 963
f 926 962 964
f 926 964 965
f 926 965 929
f 926 929 927
f 929 965 935
f 929 935 930
f 935 965 936
f 936 965 937
f 937 965 964
f 937 964 966
f 937 966 938
f 938 966 967
f 938 967 939
f 939 967 968
f 939 968 940
f 940 968 969
f 940 969 970
f 940 970 941
f 941 970 942
f 942 970 971
f 942 971 972
f 942 972 943
f 943 972 944
f 944 957 945
f 944 972 957
f 945 957 946
f 946 956 955
f 946 955 947
f 946 957 956
f 947 955 948
f 948 955 953
f 948 953 950
f 957 972 958
f 958 972 971
f 958 971 959
f 959 971 969
f 959 969 960
f 960 969 963
f 962 963 967
f 962 967 964
f 963 969 968
f 963 968 967
f 964 967 966
f 969 971 970
