# ABC bottle geometry; canonical radius 1 and height 1, bottom z=0.
# https://github.com/mikedh/trimesh
v 0.217936726013 -0.899726712317 0.19290286
v 0.217936726013 -0.898800456031 0.18476132
v 0.220151334778 -0.898295267377 0.18522584
v 0.24679590249 -0.891390579191 0.18473688
v 0.230739945582 -0.896190102664 0.1919249
v 0.254893085661 -0.889453945597 0.19402751
v 0.264789649295 -0.881454585635 0.2497713
v 0.250187049263 -0.8852437318 0.2497713
v 0.24125935167 -0.887517254189 0.2497713
v 0.221743101088 -0.892485250966 0.2497713
v 0.219390025073 -0.893074676273 0.2497713
v 0.217936726013 -0.893411449437 0.2497713
v 0.217936726013 -0.897621605419 0.17591077
v 0.228594541535 -0.894674536702 0.17476168
v 0.242920322698 -0.891390579191 0.1781112
v 0.265620105901 -0.884822664169 0.1776711
v 0.285620905134 -0.879012705573 0.18048275
v 0.26811159135 -0.885496326127 0.19121587
v 0.293925702456 -0.877412845143 0.19282949
v 0.281191629788 -0.876233994531 0.2497713
v 0.217936726013 -0.0395054289728 0.2497713
v 0.217936726013 -0.896105981642 0.16769591
v 0.238491105168 -0.890969511559 0.16987187
v 0.28299101025 -0.878844232268 0.17397931
v 0.276693207541 -0.879096826595 0.1661067
v 0.309081940226 -0.870339683652 0.17593521
v 0.309981659364 -0.871771186407 0.19136256
v 0.323822949692 -0.866803189629 0.19326958
v 0.309012735508 -0.866887368466 0.2497713
v 0.289219608242 -0.873623641163 0.2497713
v 0.217936726013 -0.0395054289728 0.01679647
v 0.92045404545 -0.0395054289728 0.2497713
v 0.217936726013 -0.8958533295 0.16681573
v 0.306106079572 -0.869329306344 0.1668402
v 0.238560309885 -0.88903282015 0.16349065
v 0.238906333471 -0.887012065535 0.15723172
v 0.272886832466 -0.874128829817 0.14921242
v 0.279392249326 -0.875644569224 0.1591143
v 0.300154300448 -0.869245069692 0.16092351
v 0.343962100544 -0.856446186257 0.17300135
v 0.337387478966 -0.86015109577 0.17860016
v 0.328598248623 -0.864445488404 0.18503028
v 0.3449310244 -0.858551293155 0.19304955
v 0.326937277595 -0.860487984564 0.2497713
v 0.235722858665 -0.0395054289728 0.0175544
v 0.609577436696 -0.200249601779 0.00782371
v 0.632069663563 -0.220205767728 0.00564772
v 0.61476796393 -0.230478592262 0.00381404
v 0.610753974703 -0.246814027535 0.00227377
v 0.5931063093 -0.254308141028 0.00171143
v 0.584870716695 -0.271738248076 0.0010024
v 0.566946174608 -0.297672845925 0.00073346
v 0.547014637907 -0.303314504662 0.00110021
v 0.500715352363 -0.327733478734 0.00166252
v 0.485074623758 -0.34364790419 0.00176033
v 0.448602697129 -0.366298544528 0.00234711
v 0.217936726013 -0.0471679579553 0.01662534
v 0.917408922264 -0.0847226464415 0.2497713
v 0.924675648829 -0.0505360943037 0.19248721
v 0.92488326298 -0.0395054289728 0.19133812
v 0.217936726013 -0.8933272706 0.15889424
v 0.318563275556 -0.861245767545 0.15640044
v 0.329982400782 -0.859056481809 0.16280609
v 0.338564016973 -0.857540800217 0.16901615
v 0.222296738825 -0.888864462476 0.14962807
v 0.242574299112 -0.882633436248 0.14865011
v 0.230739945582 -0.877244371839 0.13371176
v 0.281399301755 -0.864277072914 0.13789254
v 0.305552384019 -0.854762089175 0.13537428
v 0.304860336847 -0.862424675973 0.14813668
v 0.307836255316 -0.863098164486 0.15143728
v 0.346591995427 -0.85619359193 0.17688873
v 0.361056186025 -0.8486152996 0.16833156
v 0.372613720685 -0.846426013864 0.18488356
v 0.372060082948 -0.847183796845 0.19351408
v 0.37607401436 -0.84086859178 0.24644622
v 0.341885901213 -0.854509494848 0.2497713
v 0.266589029756 -0.0395054289728 0.01953477
v 0.631585230542 -0.201428452392 0.00867939
v 0.657537751083 -0.236372845326 0.00520766
v 0.638367466272 -0.231573264038 0.00469422
v 0.620373719468 -0.236541260816 0.00332507
v 0.646326240009 -0.21506935546 0.00733471
v 0.62708675048 -0.24934014425 0.00251824
v 0.628332493204 -0.258265702683 0.00193149
v 0.611722898559 -0.261465423542 0.00141805
v 0.609093061491 -0.278979709427 0.00061122
v 0.598019959851 -0.288831524145 0.00034228
v 0.593729151755 -0.30904028442 0.00012225
v 0.459191307934 -0.482162330845 0.00014669
v 0.444035070165 -0.464900639287 0.00070903
v 0.45559254701 -0.374382083327 0.00198036
v 0.421058410278 -0.452101755852 0.00173587
v 0.217936726013 -0.0562618740624 0.01652753
v 0.404033529514 -0.446291739441 0.0024938
v 0.915332722933 -0.105520832023 0.2497713
v 0.921838139794 -0.0894380488923 0.19219384
v 0.924122011091 -0.0592932372465 0.18967557
v 0.92439882996 -0.0395054289728 0.18581262
v 0.217936726013 -0.889874839784 0.14938357
v 0.338771631125 -0.850130865562 0.14750099
v 0.346245971841 -0.8486152996 0.15050822
v 0.352612979268 -0.847857400989 0.15510464
v 0.219528492323 -0.88271755727 0.13789254
v 0.217936726013 -0.881117754656 0.13456747
v 0.217936726013 -0.879433657574 0.13231814
v 0.217936726013 -0.878086449287 0.13075343
v 0.37828868094 -0.820743952527 0.12412772
v 0.286174542871 -0.859561670463 0.1335406
v 0.343270053372 -0.837500397617 0.13001993
v 0.339809701883 -0.843310414028 0.13676786
v 0.371368035776 -0.845836588558 0.17696208
v 0.39157633353 -0.83438491341 0.16339287
v 0.392475994854 -0.836405783656 0.17556849
v 0.389638543634 -0.839437089025 0.19187599
v 0.405140862804 -0.831269429204 0.17962703
v 0.409224056748 -0.824701514182 0.2497713
v 0.394275433131 -0.831690381206 0.2497713
v 0.391853210214 -0.832784995166 0.2497713
v 0.363201590073 -0.845499699763 0.2497713
v 0.350882803523 -0.850804585336 0.2497713
v 0.403341482342 -0.832953526286 0.19402751
v 0.26811159135 -0.0395054289728 0.01963258
v 0.647433515484 -0.200923205923 0.00990185
v 0.314203262743 -0.0395054289728 0.02281094
v 0.666050162558 -0.261886433358 0.00354511
v 0.644526859547 -0.251445193334 0.00303167
v 0.663627881826 -0.218353312971 0.00826377
v 0.687642670286 -0.235109758061 0.00858161
v 0.687435056134 -0.251866260965 0.006479
v 0.644111631244 -0.261465423542 0.00222486
v 0.640236051451 -0.267949101911 0.00171143
v 0.624456913412 -0.274769553445 0.00102687
v 0.629993464232 -0.294304709577 0.00056231
v 0.621135029172 -0.299188527517 0.00026894
v 0.471717708635 -0.495719055076 0
v 0.62535663255 -0.328912271531 0.00039119
v 0.447702977991 -0.504055246017 0.00046453
v 0.443758193481 -0.483930606764 0.00051343
v 0.431093383345 -0.483846427927 0.0009535
v 0.217936726013 -0.0752076627027 0.01640528
v 0.369153427011 -0.420525499266 0.00476757
v 0.41102343721 -0.467089982837 0.00198036
v 0.380295675553 -0.445786550787 0.00396073
v 0.913879423872 -0.116467260702 0.2497713
v 0.917062898678 -0.131792260851 0.19224274
v 0.920107964049 -0.104594633552 0.19358742
v 0.919485121594 -0.100805487387 0.18126512
v 0.920384782918 -0.0862382702185 0.17749995
v 0.922668654215 -0.0663662831075 0.18241423
v 0.923499168636 -0.0437155849545 0.17847791
v 0.923706782788 -0.0395054289728 0.17913806
v 0.217936726013 -0.882970151597 0.13762361
v 0.405556091107 -0.81148162093 0.12561911
v 0.380503289705 -0.827648640714 0.13681677
v 0.376143219077 -0.835732121698 0.14869902
v 0.217936726013 -0.874128829817 0.12764838
v 0.514349028539 -0.709006143354 0.06217387
v 0.492341292508 -0.737466915734 0.08011946
v 0.486112694516 -0.75700201405 0.09750274
v 0.456284651997 -0.775189961894 0.10544866
v 0.42382665678 -0.795988147476 0.11517939
v 0.347422452033 -0.838089822923 0.13312498
v 0.485905080364 -0.746981841657 0.08738083
v 0.40154210188 -0.825543533815 0.15043488
v 0.432961968524 -0.810471127992 0.14838117
v 0.43725277662 -0.811313147626 0.15867421
v 0.410885027776 -0.826217195774 0.16774482
v 0.426940984684 -0.819144149913 0.17075202
v 0.430747359759 -0.818133656975 0.1766687
v 0.419951134803 -0.824448919855 0.18798858
v 0.420089544237 -0.818891439956 0.2497713
v 0.433792425131 -0.817796825995 0.19319624
v 0.650132615084 -0.194608000858 0.01153994
v 0.667088233315 -0.210185595335 0.01007301
v 0.333857980574 -0.0395054289728 0.02444902
v 0.694009677712 -0.267612270932 0.00591666
v 0.683074985506 -0.281000579673 0.00393629
v 0.666742209729 -0.284368716022 0.0025427
v 0.655530698655 -0.272159257893 0.00227377
v 0.691103021775 -0.222310874626 0.01105097
v 0.697954462222 -0.25203461864 0.00787258
v 0.700030661552 -0.226015841954 0.01178443
v 0.715186957137 -0.244035316493 0.01163775
v 0.644596064264 -0.296157222148 0.00102687
v 0.648679258208 -0.310724381502 0.0010024
v 0.504936955741 -0.49748738881 0.00034228
v 0.479192049352 -0.515675278839 0.00034228
v 0.641689408327 -0.333964447146 0.0010024
v 0.463758934898 -0.527126953987 0.00080681
v 0.440989946978 -0.514159597247 0.00090462
v 0.419812667553 -0.497066378994 0.00161362
v 0.217936726013 -0.0870803476669 0.01638085
v 0.363962899777 -0.438376616131 0.00510985
v 0.39711288435 -0.478036411516 0.00290942
v 0.909519411059 -0.144338607774 0.2497713
v 0.914017775491 -0.151327474798 0.19275618
v 0.914017775491 -0.144001776795 0.18062943
v 0.915955565388 -0.125140224807 0.1758619
v 0.917547331698 -0.103163188613 0.17136326
v 0.919969554615 -0.0758812668463 0.17060533
v 0.923499168636 -0.0395054289728 0.17784226
v 0.921353706773 -0.0486835817323 0.16921175
v 0.921838139794 -0.0395054289728 0.16960293
v 0.424587966484 -0.800871965416 0.12180507
v 0.422511767154 -0.805082179213 0.12735501
v 0.417390444637 -0.809629108359 0.13192698
v 0.395451913323 -0.826890799918 0.14776993
v 0.217936726013 -0.868403050059 0.12412772
v 0.504175646037 -0.687450116977 0.04569525
v 0.516702104553 -0.69603884443 0.05320108
v 0.504660136872 -0.70471175072 0.05723518
v 0.530197371295 -0.687197464835 0.04992491
v 0.52639099622 -0.700333179249 0.05901995
v 0.528398048648 -0.708837727865 0.06628132
v 0.51580244323 -0.716416020195 0.06875068
v 0.506044231216 -0.730057038893 0.07757679
v 0.498569948315 -0.747150314962 0.0922462
v 0.516425227869 -0.741761192737 0.09527788
v 0.483344448013 -0.762222605155 0.10258812
v 0.481614272268 -0.786473163737 0.15067938
v 0.45953733152 -0.787399477838 0.12623036
v 0.501199785383 -0.764159296563 0.11933571
v 0.499192790769 -0.7672748964 0.12449446
v 0.438706133496 -0.812323640564 0.16596001
v 0.452062990803 -0.806429445315 0.17067868
v 0.442581655474 -0.812071046237 0.17884466
v 0.434207711249 -0.811229026604 0.2497713
v 0.448395082978 -0.809965939338 0.19314736
v 0.454208452666 -0.806682039642 0.18901545
v 0.667365052184 -0.200839027086 0.01224896
v 0.348183761738 -0.0395054289728 0.02576929
v 0.653869785442 -0.188713747795 0.01349586
v 0.685220447369 -0.207070053313 0.01327583
v 0.692625583368 -0.284789725838 0.00488979
v 0.712972290557 -0.267107024463 0.0087772
v 0.708681482461 -0.276285235037 0.00745696
v 0.687504203036 -0.311145391319 0.00354511
v 0.6822445289 -0.31586079377 0.00295833
v 0.7045290838 -0.307608839481 0.00552547
v 0.661067249475 -0.292957443475 0.00190702
v 0.716917132882 -0.257844692866 0.0102686
v 0.702591293903 -0.216585037052 0.01432714
v 0.715186957137 -0.229804988119 0.01432714
v 0.725983182093 -0.240583001308 0.01484054
v 0.723906982763 -0.253129290415 0.01237121
v 0.671033017825 -0.31712382322 0.00217596
v 0.665288910668 -0.327143995612 0.00198036
v 0.516771251455 -0.520053850311 0.00122243
v 0.497531819742 -0.525779687885 0.00078237
v 0.478015511344 -0.541357340176 0.00132024
v 0.67324762659 -0.346426557417 0.00271383
v 0.660652021172 -0.355267937012 0.00237155
v 0.46901866685 -0.549356642323 0.0020048
v 0.444311831218 -0.533442159052 0.00168699
v 0.426940984684 -0.523337807822 0.00190702
v 0.406109728845 -0.504981444488 0.00276273
v 0.393998556447 -0.492350976543 0.00339842
v 0.217936726013 -0.239319971858 0.01638085
v 0.346384381276 -0.407305606015 0.00645453
v 0.339048449994 -0.448312609687 0.00760365
v 0.338217993387 -0.416988947428 0.00711465
v 0.906266673721 -0.163536932927 0.2497713
v 0.907927644749 -0.183240504548 0.19326958
v 0.909450090712 -0.174651777095 0.18661946
v 0.910003786264 -0.162442318966 0.17300135
v 0.912495213898 -0.138696949038 0.16598448
v 0.915886418486 -0.106868098125 0.16495761
v 0.918723869705 -0.0720921206813 0.16427302
v 0.918031822533 -0.0435471694648 0.15684053
v 0.918447050837 -0.0395054289728 0.15794075
v 0.447356954405 -0.791356981677 0.12285638
v 0.461959612252 -0.778558098243 0.11268559
v 0.217936726013 -0.861161473078 0.12068042
v 0.491095607598 -0.647285075123 0.02281094
v 0.509227763837 -0.647032480796 0.02332437
v 0.509089354402 -0.652842497207 0.02640495
v 0.508189635264 -0.665473022967 0.03329957
v 0.528674809702 -0.661683818987 0.03320178
v 0.521615755104 -0.675830084155 0.04097658
v 0.515248747677 -0.68955516606 0.04870248
v 0.530404985447 -0.68054542879 0.04567078
v 0.540440016329 -0.670104188766 0.04095212
v 0.54694543319 -0.662357480946 0.03735811
v 0.556357505988 -0.661852292292 0.03941184
v 0.546737761223 -0.680377013301 0.04970488
v 0.546114918769 -0.686692276181 0.0543991
v 0.537118074274 -0.710353351642 0.07117113
v 0.537533302577 -0.715742358236 0.07632989
v 0.549713679692 -0.693596964367 0.06129372
v 0.520439274912 -0.728541299486 0.0821732
v 0.513449367215 -0.739066718348 0.0904614
v 0.513449367215 -0.74546621788 0.09860295
v 0.526114177351 -0.729888623403 0.08642733
v 0.53351931335 -0.731741020345 0.09285742
v 0.510058220443 -0.751781422945 0.10539976
v 0.482859957178 -0.766095987972 0.1082114
v 0.534695793542 -0.754307597475 0.14857677
v 0.507289973941 -0.771400815729 0.15195072
v 0.503691213017 -0.776284575855 0.16732916
v 0.48452098602 -0.787399477838 0.16676682
v 0.529297709972 -0.74925530623 0.11962911
v 0.528605604985 -0.752707679231 0.12931094
v 0.482375524157 -0.773169091648 0.11943352
v 0.523899626401 -0.750349978006 0.11569282
v 0.501199785383 -0.761380585521 0.11395693
v 0.480091710675 -0.791020150698 0.17493281
v 0.467842128843 -0.798009075537 0.17517731
v 0.46064466481 -0.802724420173 0.18275651
v 0.456838289735 -0.798009075537 0.2497713
v 0.464174221017 -0.801124559743 0.19207159
v 0.484313371869 -0.789504469106 0.19302511
v 0.49081878873 -0.785462786429 0.18099618
v 0.391161105227 -0.0395054289728 0.0303168
v 0.669510514047 -0.190145192734 0.01554957
v 0.39503668502 -0.0395054289728 0.03073242
v 0.426525756381 -0.0395054289728 0.034302
v 0.469433895153 -0.0395054289728 0.03936294
v 0.49524800626 -0.0395054289728 0.04249242
v 0.511165553733 -0.0395054289728 0.04449725
v 0.527429124793 -0.0395054289728 0.04655096
v 0.542170134259 -0.0395054289728 0.04853132
v 0.552066697892 -0.0395054289728 0.04987603
v 0.587154530177 -0.0395054289728 0.05493698
v 0.630616306687 -0.0395054289728 0.06124482
v 0.653592966573 -0.0395054289728 0.06478992
v 0.689165231879 -0.195786851471 0.01762775
v 0.696224286477 -0.203112491659 0.01674759
v 0.714564056867 -0.279400719244 0.0082882
v 0.73442638885 -0.277632443325 0.01205337
v 0.723007263624 -0.302556663866 0.00845936
v 0.7045290838 -0.319481524445 0.00540322
v 0.690410916788 -0.334553930268 0.00400963
v 0.71338751886 -0.313503092544 0.00665015
v 0.713872009695 -0.216079848398 0.01762775
v 0.809930932274 -0.0395054289728 0.09500894
v 0.84695649664 -0.0395054289728 0.10525307
v 0.727021252851 -0.234604569407 0.01660091
v 0.733111499224 -0.256329011274 0.01447383
v 0.741416296547 -0.245635176923 0.01892355
v 0.745430227958 -0.258265702683 0.01765221
v 0.744461304103 -0.276369413875 0.01491392
v 0.521546550386 -0.530663505825 0.00180924
v 0.503414394148 -0.540178489564 0.00166252
v 0.503206779996 -0.55356674049 0.00261605
v 0.489296227136 -0.565523662106 0.00332507
v 0.531581523454 -0.525358678068 0.00212705
v 0.685358856803 -0.353247066766 0.00393629
v 0.667365052184 -0.375476697287 0.00369179
v 0.544869233859 -0.535294671623 0.00337398
v 0.43233912607 -0.543967635729 0.00288498
v 0.460575460093 -0.564344811494 0.00342286
v 0.412961227107 -0.542704548464 0.0040341
v 0.408462747044 -0.525527093558 0.00332507
v 0.40105766886 -0.520474860127 0.00366735
v 0.383340740925 -0.506412889428 0.00481647
v 0.372682925403 -0.484435853233 0.00525653
v 0.217936726013 -0.262054848848 0.01647866
v 0.325622330154 -0.449744054626 0.0092662
v 0.319324527445 -0.428272264901 0.00916839
v 0.319947427714 -0.400821927645 0.00858161
v 0.372959744271 -0.503971009365 0.00586778
v 0.900730065086 -0.191997705306 0.2497713
v 0.901906603093 -0.211785455764 0.19197381
v 0.904605644879 -0.19881815684 0.18965113
v 0.906266673721 -0.188545332305 0.18004265
v 0.90495172628 -0.192923903776 0.17478612
v 0.906266673721 -0.171873066053 0.16148585
v 0.905782240701 -0.170357384461 0.15823412
v 0.904052064956 -0.164968435681 0.14840561
v 0.913602605003 -0.120930068825 0.16165698
v 0.913533342471 -0.0954164229779 0.15331987
v 0.913671809721 -0.0778179582551 0.15006816
v 0.918239436685 -0.0395054289728 0.15730506
v 0.914986699347 -0.0464942959966 0.14869902
v 0.915125050966 -0.0395054289728 0.1485523
v 0.217936726013 -0.858635471993 0.11955577
v 0.472132936938 -0.639454188466 0.01914358
v 0.483552062165 -0.636591240772 0.01777443
v 0.518778303884 -0.641811889691 0.0212951
v 0.531719932888 -0.648548162388 0.02625826
v 0.549575270258 -0.656884295514 0.03435087
v 0.542931386148 -0.651158457941 0.02953443
v 0.567569017062 -0.649727013001 0.03513324
v 0.574558866943 -0.651242636778 0.03833607
v 0.567569017062 -0.660589205027 0.04224792
v 0.567776631214 -0.673219730787 0.05207643
v 0.558987400871 -0.685934435385 0.05865324
v 0.544177128872 -0.716837030011 0.08104855
v 0.561686442656 -0.695196766981 0.06828615
v 0.564385484442 -0.698396545655 0.07266253
v 0.573520796186 -0.685176594589 0.06456989
v 0.544384800839 -0.729804328936 0.09791836
v 0.544246333589 -0.719952572033 0.08486259
v 0.558087681732 -0.714731980928 0.08740529
v 0.538502168618 -0.736456422795 0.10376167
v 0.557534043995 -0.739656143654 0.15087497
v 0.527429124793 -0.760285971561 0.15845418
v 0.555942277684 -0.733593532916 0.12006918
v 0.563001390098 -0.729972744426 0.12427443
v 0.520439274912 -0.766095987972 0.17031196
v 0.487427641957 -0.7863889849 0.17192557
v 0.540093992743 -0.739571907002 0.11212325
v 0.557672453429 -0.725678409607 0.10412842
v 0.47946886822 -0.791778049309 0.17933363
v 0.492964192777 -0.776958179998 0.24725306
v 0.49178765477 -0.777042474466 0.2497713
v 0.502445528107 -0.778221267263 0.19368523
v 0.518847450786 -0.767864263891 0.17965147
v 0.512826466946 -0.771737588893 0.18444347
v 0.679476224582 -0.0395054289728 0.06914186
v 0.717124689218 -0.0395054289728 0.0756453
v 0.730204727657 -0.0395054289728 0.078188
v 0.773043719527 -0.0395054289728 0.08659846
v 0.739893734953 -0.281590004979 0.01308024
v 0.735533722141 -0.298262271232 0.01122209
v 0.727851767272 -0.319397287793 0.00933951
v 0.722038397584 -0.312155826442 0.00819042
v 0.743630905312 -0.326554628121 0.01261568
v 0.721553964563 -0.340784956496 0.00826377
v 0.705498007655 -0.335816959718 0.00581887
v 0.702660498621 -0.349289505111 0.00567216
v 0.866195986169 -0.0395054289728 0.11158538
v 0.870002303429 -0.0395054289728 0.11290562
v 0.759548452785 -0.27855869961 0.02090392
v 0.876576925007 -0.0395054289728 0.11547276
v 0.884604961276 -0.0395054289728 0.11879784
v 0.886265932304 -0.0395054289728 0.11950687
v 0.75463474442 -0.283779290715 0.01821452
v 0.761486184866 -0.294978371536 0.01970592
v 0.756918615717 -0.30036737813 0.01735881
v 0.525491334896 -0.553145788488 0.00339842
v 0.506113435933 -0.569060213944 0.00408298
v 0.485697466212 -0.575712249989 0.00442529
v 0.683144248038 -0.381539365841 0.00530544
v 0.697608438636 -0.377245031022 0.00650343
v 0.559333424457 -0.53841015583 0.00464532
v 0.558848991436 -0.531673940948 0.00422966
v 0.532827266178 -0.556429688184 0.00408298
v 0.445695983377 -0.562155525758 0.0037896
v 0.431577816365 -0.563923801677 0.0047431
v 0.463551320747 -0.575459655662 0.00462085
v 0.416421520781 -0.56619726625 0.00611225
v 0.398773855378 -0.541357340176 0.00535434
v 0.382441079601 -0.523590402149 0.00596556
v 0.217936726013 -0.27131723826 0.01667422
v 0.297801282249 -0.391980605865 0.01061088
v 0.346384381276 -0.483341181458 0.00831267
v 0.30970478268 -0.445028709991 0.01117319
v 0.290672965118 -0.403769054177 0.01171109
v 0.364724151666 -0.503634236201 0.00696796
v 0.896993010358 -0.208754150395 0.2497713
v 0.896508461707 -0.235193994713 0.19282949
v 0.898930684624 -0.223573904076 0.18681505
v 0.901283760639 -0.211617040275 0.18104509
v 0.893463396336 -0.244119553146 0.17515287
v 0.897338976129 -0.222647705605 0.16681573
v 0.900314894598 -0.203786153617 0.16114357
v 0.904259679108 -0.186777056386 0.16529989
v 0.898100228018 -0.201765225556 0.14877236
v 0.908065996368 -0.130276637074 0.14781883
v 0.909657762678 -0.132971111464 0.15361327
v 0.888964974089 -0.209764585518 0.12659708
v 0.894778401593 -0.175830627707 0.12835741
v 0.911595552575 -0.0949954131612 0.14774549
v 0.906474287873 -0.0888485657708 0.13647449
v 0.909657762678 -0.0407685162379 0.13725686
v 0.909657762678 -0.0395054289728 0.1372813
v 0.217936726013 -0.848025816479 0.11569282
v 0.458776021816 -0.629012948442 0.01540288
v 0.495801643997 -0.62353976301 0.01356921
v 0.506459459519 -0.62244514905 0.01359367
v 0.499538814355 -0.634317776199 0.01760331
v 0.538640578052 -0.633391577728 0.02024379
v 0.53462664664 -0.638780584322 0.02175963
v 0.53635676457 -0.643832759937 0.02459574
v 0.571583006289 -0.639875198283 0.03041458
v 0.555942277684 -0.635833399976 0.02440012
v 0.589715162528 -0.636759656261 0.03523105
v 0.605494300567 -0.63254950028 0.03862947
v 0.588538624521 -0.649727013001 0.04293251
v 0.587500553763 -0.658484155944 0.04884917
v 0.57968018946 -0.673472382929 0.05757746
v 0.563901051421 -0.706732620966 0.08112189
v 0.587500553763 -0.680124418974 0.06728372
v 0.597258707961 -0.675409016523 0.06806609
v 0.578296095117 -0.695449419124 0.07762566
v 0.584247816425 -0.675156422196 0.06107366
v 0.564593098593 -0.71734227648 0.09603578
v 0.575596995516 -0.701680445351 0.08337119
v 0.583348155101 -0.716247604705 0.12508124
v 0.595459269684 -0.706732620966 0.1197758
v 0.597397117396 -0.707237867435 0.12852857
v 0.574835743627 -0.726941439057 0.14852786
v 0.565908046035 -0.734435552549 0.15994555
v 0.534419032489 -0.757423081682 0.17503062
v 0.564593098593 -0.723741718198 0.10940942
v 0.573590000903 -0.719615741053 0.11261225
v 0.568883964504 -0.724920568811 0.12031367
v 0.591376133555 -0.703196069128 0.10082781
v 0.534903465509 -0.747318614821 0.2497713
v 0.500438475679 -0.77123240024 0.2497713
v 0.542308601508 -0.75194989625 0.19300064
v 0.752904568675 -0.30954553089 0.01559848
v 0.734772412436 -0.336069554045 0.01073313
v 0.749721093869 -0.323018076283 0.01442492
v 0.757264581488 -0.342132222598 0.01723656
v 0.74833694171 -0.352573404807 0.01479167
v 0.715048489887 -0.348952674132 0.0074814
v 0.725637100692 -0.365877534711 0.01024413
v 0.715740594874 -0.371013946979 0.0087283
v 0.771590362651 -0.283947706205 0.02608711
v 0.893878624639 -0.0395054289728 0.1235165
v 0.799757491957 -0.251613608823 0.04523069
v 0.784047674265 -0.291525998535 0.03200379
v 0.773874233948 -0.308535095767 0.0250358
v 0.768683706714 -0.318723683649 0.02200413
v 0.765085003605 -0.327733478734 0.01985261
v 0.757195434586 -0.310134956196 0.01699209
v 0.516563637304 -0.573607200906 0.00515875
v 0.501891832555 -0.591795090935 0.00699243
v 0.467080876954 -0.588932201055 0.00640565
v 0.487289232523 -0.597015682039 0.00745696
v 0.679337872963 -0.400400917828 0.0062834
v 0.707505002269 -0.396780187153 0.00970626
v 0.689441992932 -0.425577732697 0.00970626
v 0.662243787482 -0.455217297873 0.00892389
v 0.639959232582 -0.478289005843 0.00821486
v 0.564939179994 -0.558871626062 0.00687018
v 0.546391737637 -0.566281502902 0.00616115
v 0.534903465509 -0.578743555358 0.00689462
v 0.447702977991 -0.583206305667 0.0062345
v 0.424657113386 -0.570828489864 0.0060389
v 0.407217062135 -0.582869590317 0.00941288
v 0.402234206867 -0.562071289106 0.00716355
v 0.380088061402 -0.538241798155 0.00738361
v 0.362993975921 -0.514664843716 0.00801927
v 0.217936726013 -0.274601137956 0.01674759
v 0.284582776561 -0.414631304018 0.01308024
v 0.314895309915 -0.472310573942 0.01237121
v 0.300085095731 -0.460690483305 0.01393595
v 0.282229758361 -0.436018914906 0.01503617
v 0.217936726013 -0.311482222298 0.01770109
v 0.217936726013 -0.309629709727 0.01765221
v 0.895124367364 -0.216585037052 0.2497713
v 0.889864635412 -0.259023485664 0.19216937
v 0.888411278536 -0.24445632631 0.24747309
v 0.887442412496 -0.265338748544 0.17855126
v 0.885366213165 -0.271233001607 0.17217007
v 0.886058318152 -0.267528092095 0.16556883
v 0.884051323539 -0.27241185222 0.15864977
v 0.880452562615 -0.281337410653 0.14901686
v 0.889103441338 -0.246224602229 0.1488457
v 0.895539595667 -0.217342877848 0.15148619
v 0.892702144447 -0.228289306527 0.14869902
v 0.881490691188 -0.25742368305 0.13014218
v 0.881698305339 -0.24588777125 0.12395659
v 0.883774446855 -0.227194692566 0.12048483
v 0.900314894598 -0.155453451943 0.13605887
v 0.902806322232 -0.114867400272 0.1322448
v 0.889933840129 -0.18964000408 0.12207401
v 0.89657772424 -0.153095750717 0.12703717
v 0.90481325903 -0.0537357573473 0.13085121
v 0.906128206472 -0.0395054289728 0.13231814
v 0.89865392357 -0.114699042598 0.12522793
v 0.217936726013 -0.847015439171 0.11532608
v 0.446664907233 -0.629265542769 0.01662534
v 0.455869365879 -0.624550198133 0.0142538
v 0.478084716062 -0.617982340926 0.01185778
v 0.489434636571 -0.616045649517 0.01139325
v 0.501961037272 -0.616719253661 0.01180887
v 0.527775148378 -0.614445789088 0.01369146
v 0.510335097127 -0.611835493535 0.01122209
v 0.560648314083 -0.625308038929 0.02073276
v 0.605978733587 -0.625981643073 0.03498656
v 0.579749394178 -0.627497324665 0.0265272
v 0.629993464232 -0.616803490313 0.04014531
v 0.622449918798 -0.62842358095 0.04386157
v 0.607570499898 -0.636170230955 0.04207677
v 0.599058030608 -0.647200896286 0.04586637
v 0.598296778719 -0.656884295514 0.05268764
v 0.60590952887 -0.664967776498 0.06361637
v 0.623972480391 -0.656884295514 0.06813943
v 0.620719743054 -0.662862727415 0.07197794
v 0.605840324153 -0.677345707932 0.07679442
v 0.59656666079 -0.687197464835 0.08102408
v 0.581617979357 -0.704459156393 0.09207505
v 0.587292939611 -0.69730187388 0.08679405
v 0.615736887786 -0.693007481246 0.12508124
v 0.599334907292 -0.702775059312 0.11486155
v 0.597673936265 -0.710353351642 0.14989701
v 0.576773533524 -0.726857260219 0.16742697
v 0.558087681732 -0.740413926635 0.1688939
v 0.601480253525 -0.699996406085 0.11036292
v 0.604110148408 -0.689302571733 0.09185502
v 0.610823237236 -0.687702711304 0.09735605
v 0.62867851679 -0.677008876952 0.10209915
v 0.607570499898 -0.693260075573 0.10466629
v 0.55580386825 -0.731909435834 0.2497713
v 0.553035621748 -0.744118951778 0.18869764
v 0.572413462895 -0.729720150099 0.18923551
v 0.580718318033 -0.722815519727 0.19378302
v 0.737333044787 -0.365709177037 0.01278684
v 0.762801132308 -0.334132920451 0.01897246
v 0.764669717487 -0.354510096216 0.02146626
v 0.757610662889 -0.365372346057 0.01936364
v 0.749444217185 -0.374634735469 0.01711431
v 0.741070215146 -0.383644472739 0.01545179
v 0.729858761886 -0.388444054027 0.01315358
v 0.719200888549 -0.391138528417 0.01117319
v 0.786331429932 -0.282853034429 0.0340575
v 0.900384099315 -0.0395054289728 0.12740389
v 0.811868664355 -0.269633141178 0.04970488
v 0.800449654759 -0.265591400686 0.04388601
v 0.799411526186 -0.282768855592 0.04131886
v 0.783009545692 -0.308787690094 0.03009677
v 0.780033627223 -0.32310225512 0.02794525
v 0.772351672355 -0.338174660943 0.02400893
v 0.50853565885 -0.597436691856 0.00831267
v 0.474555159855 -0.60189949998 0.00833711
v 0.460852278962 -0.599541798755 0.00823933
v 0.714840875736 -0.417999440366 0.01320249
v 0.691241431209 -0.447554768891 0.0122245
v 0.664250782096 -0.47618395676 0.01112431
v 0.627294364631 -0.505739285284 0.00924173
v 0.590891700535 -0.556850698001 0.00995076
v 0.572205848744 -0.578575197683 0.01036638
v 0.55739563456 -0.576385911948 0.00836158
v 0.544177128872 -0.585900895686 0.00870386
v 0.447495363839 -0.604762389859 0.00992632
v 0.428186727408 -0.584722045074 0.00779924
v 0.387839163172 -0.560387249839 0.00885054
v 0.431785488332 -0.601141659184 0.01051307
v 0.418359368492 -0.606614902431 0.01298243
v 0.403756768461 -0.600215460713 0.0137648
v 0.402026592716 -0.586237668851 0.01100206
v 0.384102050629 -0.576301675295 0.01217562
v 0.371368035776 -0.543799220239 0.00936398
v 0.353927868894 -0.523843054291 0.01039082
v 0.336972250663 -0.50001344771 0.0110265
v 0.268042386632 -0.421704349879 0.01638085
v 0.241951456657 -0.381792017983 0.01792115
v 0.248041645215 -0.374887329796 0.01647866
v 0.217936726013 -0.333796089472 0.0187524
v 0.331435699843 -0.509781083591 0.01334918
v 0.289150403525 -0.461364145264 0.01635641
v 0.888411278536 -0.24319329686 0.2497713
v 0.884120528256 -0.27889553059 0.19312289
v 0.881698305339 -0.265170390869 0.24923342
v 0.879829662345 -0.292368018168 0.18466353
v 0.87920681989 -0.291020809881 0.1665957
v 0.87526203538 -0.30289343703 0.16033673
v 0.867372466361 -0.325544135183 0.14911464
v 0.86702650059 -0.318555268159 0.13283157
v 0.87097116947 -0.300283141478 0.12806404
v 0.871248046153 -0.296662410802 0.12483674
v 0.873393508016 -0.283947706205 0.12173173
v 0.883705299953 -0.257171030907 0.13791698
v 0.878307100752 -0.265843995013 0.12552133
v 0.875884877835 -0.268033280749 0.11965355
v 0.872009298042 -0.271064586118 0.11102304
v 0.879275966792 -0.2446247418 0.11706197
v 0.886404283923 -0.207154289966 0.11999583
v 0.877269029994 -0.241172426614 0.11153647
v 0.882251885261 -0.219447926932 0.11517939
v 0.899069151874 -0.129771390605 0.12791732
v 0.87477760236 -0.237130628307 0.10603544
v 0.884120528256 -0.192587072797 0.11317456
v 0.889241792958 -0.170273205623 0.11784431
v 0.894778401593 -0.141980906549 0.1227586
v 0.899899666295 -0.0773968906233 0.1260103
v 0.851939409723 -0.24336171235 0.08011946
v 0.900314894598 -0.0407685162379 0.1273061
v 0.877199825277 -0.204207163434 0.10532641
v 0.863150862982 -0.247235037352 0.09148827
v 0.89422470604 -0.112678114536 0.12055817
v 0.217936726013 -0.844741916783 0.11451927
v 0.43725277662 -0.619413785865 0.01444936
v 0.217936726013 -0.835479527371 0.11129197
v 0.465004677623 -0.610151454269 0.0102686
v 0.551928288458 -0.589942636178 0.0102686
v 0.560509904649 -0.596089483569 0.01271349
v 0.580718318033 -0.595668473752 0.01572073
v 0.584040202273 -0.60173108449 0.01811671
v 0.575320118832 -0.617645509946 0.02119732
v 0.596497398257 -0.620340042151 0.02862981
v 0.609093061491 -0.613351175127 0.02963221
v 0.627017603578 -0.609561971147 0.03464428
v 0.592829432616 -0.615372045373 0.02501136
v 0.650340229236 -0.604930863164 0.04312807
v 0.635183933651 -0.629602431563 0.05129406
v 0.606186405554 -0.648379746899 0.05034056
v 0.615806092503 -0.648042915919 0.05530369
v 0.609923518097 -0.655368613922 0.05794421
v 0.625079755866 -0.649727013001 0.06197828
v 0.639613208996 -0.642569730488 0.06579235
v 0.628332493204 -0.659157760087 0.07412946
v 0.621411848041 -0.670356783093 0.08170867
v 0.631446763293 -0.680629607628 0.12906644
v 0.629232212343 -0.684924000262 0.14950582
v 0.618020701268 -0.690060412529 0.11970246
v 0.627225217729 -0.681724279403 0.1137858
v 0.5880541915 -0.718268532766 0.17075202
v 0.580856727468 -0.723573302708 0.17967594
v 0.619958491164 -0.676503688298 0.08931231
v 0.628609312073 -0.673472382929 0.09559572
v 0.646395444726 -0.653937168983 0.08593833
v 0.650340229236 -0.653768811308 0.09156162
v 0.650132615084 -0.658231503802 0.09994763
v 0.633384611004 -0.675324779871 0.10835811
v 0.569506806959 -0.721131422646 0.2497713
v 0.60258764463 -0.706143253475 0.18454129
v 0.60431776256 -0.704122325414 0.19199824
v 0.774150995002 -0.348615900968 0.02584261
v 0.773112982059 -0.363098823669 0.02664945
v 0.76300874646 -0.372361213081 0.0227865
v 0.757126229869 -0.385412690843 0.02193078
v 0.744738180787 -0.39720119697 0.01860571
v 0.728751428596 -0.408400219975 0.01510951
v 0.841489150537 -0.253129290415 0.07156232
v 0.833737990952 -0.246982443025 0.06625688
v 0.822734151844 -0.262981105134 0.05760193
v 0.819827495907 -0.284705547001 0.05432576
v 0.807024160707 -0.301883001907 0.04513291
v 0.794428613103 -0.305082722766 0.03706473
v 0.791452694634 -0.315102952974 0.03491321
v 0.787438705407 -0.333880268309 0.03266391
v 0.779895159974 -0.349289505111 0.02904546
v 0.706812897282 -0.442165762296 0.01457161
v 0.687988693871 -0.467932002471 0.01403373
v 0.655876780056 -0.497066378994 0.01215118
v 0.645564930304 -0.521990541719 0.0137648
v 0.629924259515 -0.540262668401 0.0137648
v 0.60307207765 -0.570996905353 0.01396039
v 0.58314054095 -0.585311412565 0.01337361
v 0.366039099107 -0.559039983737 0.0127624
v 0.217936726013 -0.817123221852 0.10581541
v 0.394206170598 -0.590026815016 0.01325136
v 0.217936726013 -0.798430085354 0.10095006
v 0.217936726013 -0.743866299636 0.08774757
v 0.217936726013 -0.692923302408 0.07574308
v 0.217936726013 -0.670188425418 0.07063323
v 0.217936726013 -0.656210633556 0.06750378
v 0.217936726013 -0.629181363931 0.06180716
v 0.363616876191 -0.552051116713 0.01224896
v 0.250809891717 -0.41092633669 0.01897246
v 0.225480271446 -0.374550498817 0.0205372
v 0.217936726013 -0.348784258642 0.01977926
v 0.228940565121 -0.359478092994 0.01860571
v 0.217936726013 -0.340953371985 0.01921692
v 0.316002643205 -0.503381584059 0.01598966
v 0.302022885627 -0.486204071337 0.01684538
v 0.217936726013 -0.550367077446 0.04718661
v 0.880175743746 -0.269717320015 0.2497713
v 0.874362316242 -0.30828250144 0.19322067
v 0.880175743746 -0.291273404208 0.18957779
v 0.874708397643 -0.306935177522 0.17199892
v 0.860866991685 -0.34474251815 0.15877199
v 0.853669585467 -0.363856664465 0.15019038
v 0.84744092966 -0.376739784552 0.13420072
v 0.850832134248 -0.364025079955 0.12290528
v 0.852700661612 -0.357709817075 0.12028924
v 0.863220067699 -0.327986073061 0.12745279
v 0.863289214602 -0.317460654199 0.11520383
v 0.867303261644 -0.304493355275 0.11801547
v 0.86972548456 -0.291020809881 0.11513048
v 0.864119729023 -0.29514672921 0.10400617
v 0.871317250871 -0.261718017869 0.10615769
v 0.867856957196 -0.26357053044 0.10102341
v 0.862804781581 -0.268959537034 0.09474
v 0.870901964752 -0.233004708978 0.09984985
v 0.845503139764 -0.273169693016 0.07488739
v 0.838028799048 -0.270643576301 0.068115
v 0.856922322805 -0.289084118472 0.09031472
v 0.853185094632 -0.285379151145 0.08481368
v 0.851731795571 -0.269296310199 0.08097517
v 0.596843421843 -0.58169068189 0.0150606
v 0.600788206353 -0.597184097529 0.02036604
v 0.617259449379 -0.595752652589 0.02444902
v 0.649025281794 -0.584890402748 0.03224826
v 0.640166846734 -0.602825756266 0.03713807
v 0.67338609384 -0.583879967625 0.04420385
v 0.67041017537 -0.592805583873 0.04770005
v 0.665150443419 -0.604846626512 0.0521009
v 0.661482535593 -0.580764483419 0.03579336
v 0.658714289091 -0.592131921914 0.04051203
v 0.652208814415 -0.621182061784 0.05601272
v 0.650340229236 -0.631033876503 0.06305405
v 0.639544004279 -0.636759656261 0.06043801
v 0.647987211036 -0.641138227733 0.0716601
v 0.641274180024 -0.653095149349 0.07909262
v 0.634076658176 -0.664378409007 0.08735639
v 0.653385352422 -0.661683818987 0.12447003
v 0.644734531513 -0.671114623889 0.1486012
v 0.652762452152 -0.663536331559 0.15989667
v 0.627432831881 -0.685850198732 0.1661067
v 0.614906373365 -0.696459854247 0.17036083
v 0.599542521444 -0.708921964517 0.17434603
v 0.647779596885 -0.66429411454 0.11285672
v 0.653108475738 -0.640212029262 0.07544971
v 0.661136512007 -0.637685912547 0.0811708
v 0.663766349075 -0.640801396753 0.08877444
v 0.662728220502 -0.648716520063 0.10302821
v 0.668403180757 -0.640464623589 0.09608468
v 0.584524693109 -0.708921964517 0.2497713
v 0.626394703308 -0.686018672037 0.18133846
v 0.624387708695 -0.687029049345 0.18970004
v 0.61919718146 -0.691155026489 0.19366077
v 0.782179031271 -0.365793355874 0.03271282
v 0.772420819257 -0.390128151109 0.03090358
v 0.764946536356 -0.38802304421 0.02647829
v 0.756711001565 -0.414715482855 0.0272851
v 0.747714041441 -0.410842100038 0.02219972
v 0.725152667672 -0.429030047882 0.01726103
v 0.738094412307 -0.421199161225 0.02034158
v 0.708543073027 -0.458417018732 0.01740772
v 0.82799382598 -0.278811293937 0.0603402
v 0.815329015845 -0.300535735805 0.05085397
v 0.802179714874 -0.312240005279 0.04175895
v 0.79795816931 -0.330259537634 0.0393385
v 0.791452694634 -0.347352813703 0.03640461
v 0.695324567338 -0.482078152008 0.01801893
v 0.679683896549 -0.490077454155 0.01562291
v 0.667365052184 -0.497655746485 0.01422933
v 0.658437412407 -0.515759515492 0.01528063
v 0.645841806988 -0.541188866872 0.01713878
v 0.64051287032 -0.555840320693 0.01916805
v 0.3449310244 -0.538578571319 0.01459607
v 0.217936726013 -0.596594672223 0.05530369
v 0.217936726013 -0.581859097379 0.05246761
v 0.217936726013 -0.56762871119 0.04990047
v 0.217936726013 -0.56510265229 0.04948485
v 0.217936726013 -0.784452351306 0.09755164
v 0.234892344244 -0.392569973356 0.02046382
v 0.221535486936 -0.379518495595 0.02207747
v 0.217936726013 -0.366214365691 0.02144179
v 0.217936726013 -0.356867797442 0.02048829
v 0.217936726013 -0.378087050655 0.02295762
v 0.865296324845 -0.312997846075 0.2497713
v 0.865227062313 -0.333038248676 0.19344074
v 0.862735634679 -0.340363946679 0.18979782
v 0.861074605836 -0.345500358946 0.18273205
v 0.862043587507 -0.342469053577 0.17674205
v 0.841212389483 -0.394759316907 0.14992145
v 0.847994625213 -0.377750219675 0.14816111
v 0.835468224512 -0.406126755402 0.13288048
v 0.840520342312 -0.391812190375 0.12234294
v 0.836229476401 -0.397285375807 0.10989839
v 0.845087911461 -0.374045252348 0.11180541
v 0.85041684813 -0.361246368913 0.11559501
v 0.854499984259 -0.344153092844 0.11041182
v 0.857337493293 -0.341205966312 0.11845556
v 0.862320406376 -0.325796787325 0.12099826
v 0.861766768639 -0.313839865709 0.10786912
v 0.865157857596 -0.304745949602 0.11134088
v 0.865088652879 -0.30070420911 0.10889599
v 0.857268288576 -0.311903232115 0.0979917
v 0.854292485737 -0.31442934883 0.09359089
v 0.861143868369 -0.289336712799 0.09735605
v 0.841696822504 -0.284031885042 0.0719046
v 0.836021862249 -0.280747985346 0.06655025
v 0.845918368067 -0.329922706654 0.08557162
v 0.847856157963 -0.314850358647 0.08432472
v 0.845987630599 -0.309292878747 0.08051065
v 0.843496145151 -0.301040982274 0.07606092
v 0.618574396821 -0.583290600134 0.02080613
v 0.635322400901 -0.581606503052 0.02542698
v 0.648679258208 -0.574786051518 0.02794525
v 0.67338609384 -0.574112389559 0.03870282
v 0.696362695911 -0.557019113491 0.04334813
v 0.692902344422 -0.569060213944 0.04809123
v 0.679476224582 -0.588763785566 0.05107403
v 0.687850284437 -0.591542496608 0.05953339
v 0.685081980119 -0.599204967775 0.06342077
v 0.675185416486 -0.610319869758 0.06474102
v 0.664527600964 -0.562492356737 0.02958333
v 0.675669849507 -0.560724080818 0.03369075
v 0.659129459579 -0.629518194911 0.06921521
v 0.662935834654 -0.651326815615 0.11581504
v 0.66944130933 -0.644590600734 0.11180541
v 0.674008936294 -0.641811889691 0.12119386
v 0.679337872963 -0.63743331822 0.1285041
v 0.660721225889 -0.65671582221 0.14906573
v 0.663558734924 -0.652084714226 0.16872275
v 0.650547843387 -0.663873104723 0.1778667
v 0.644872883133 -0.670104188766 0.16977406
v 0.673801322143 -0.619919032335 0.073396
v 0.685428061521 -0.618319171905 0.08505818
v 0.677538492501 -0.62084528862 0.07867697
v 0.682452143051 -0.625813285398 0.0934931
v 0.683767032678 -0.627497324665 0.10019213
v 0.6872966467 -0.626907899358 0.10857815
v 0.596843421843 -0.698396545655 0.2497713
v 0.63608365279 -0.676166799504 0.19080025
v 0.621827076344 -0.676082678482 0.2497713
v 0.617605472965 -0.679871766832 0.2497713
v 0.789238085869 -0.370592937162 0.03843388
v 0.787438705407 -0.390380745436 0.04109883
v 0.779203112802 -0.40317962887 0.03836054
v 0.763216360611 -0.424904070738 0.03317732
v 0.764254489184 -0.408231804486 0.03004786
v 0.746676028498 -0.431724580087 0.02635604
v 0.751935702634 -0.439134456927 0.03058574
v 0.737056283734 -0.437534596498 0.02315325
v 0.7244606205 -0.44536554097 0.02007264
v 0.719477765233 -0.467174161675 0.0228354
v 0.706536078413 -0.476436551087 0.02043939
v 0.825433135814 -0.294978371536 0.05848208
v 0.811453493867 -0.312745251748 0.04828683
v 0.807647060977 -0.330596368613 0.04684433
v 0.799757491957 -0.347015982723 0.04251686
v 0.799688345055 -0.367561631793 0.04562187
v 0.684528400197 -0.501529129302 0.01894799
v 0.670202561219 -0.510959876389 0.01704097
v 0.693525244692 -0.506833899244 0.02300653
v 0.667641928868 -0.52813738911 0.0199993
v 0.656845646096 -0.544304408893 0.02092838
v 0.664942829267 -0.545735853833 0.02391115
v 0.653385352422 -0.562913366554 0.0253292
v 0.217936726013 -0.370677173814 0.02195522
v 0.862389668908 -0.320660375058 0.2497713
v 0.848132976832 -0.375476697287 0.1934163
v 0.850693666998 -0.369750917529 0.18820864
v 0.825294784195 -0.430461492822 0.1487968
v 0.836644704704 -0.402421788074 0.18385673
v 0.821557671652 -0.437282002171 0.13300273
v 0.829378035954 -0.419094054327 0.1270127
v 0.826056036084 -0.425409317207 0.11921346
v 0.823841427319 -0.428356385923 0.11280784
v 0.837752037994 -0.39576975203 0.11532608
v 0.825502456161 -0.420272904939 0.10579094
v 0.824741204272 -0.41867304451 0.10031438
v 0.835329815077 -0.395180326724 0.10454404
v 0.837821184896 -0.38423384023 0.09989873
v 0.845572402296 -0.366214365691 0.10525307
v 0.851178100019 -0.347352813703 0.10341939
v 0.848686672385 -0.344321508334 0.09652478
v 0.843496145151 -0.344995112477 0.08708745
v 0.835537429229 -0.303230268009 0.06804165
v 0.831315768035 -0.303230268009 0.06398311
v 0.81961982394 -0.312155826442 0.05461913
v 0.834291686504 -0.34507934913 0.07459399
v 0.841143126951 -0.326386154816 0.0781391
v 0.836713909421 -0.320070949751 0.07156232
v 0.689511255465 -0.552640542019 0.03735811
v 0.711103705378 -0.546577931281 0.0475778
v 0.713110699991 -0.552387947692 0.05227202
v 0.707712558605 -0.537652315034 0.04048759
v 0.695393829871 -0.576133259805 0.0543991
v 0.707435797552 -0.566870928209 0.05743077
v 0.702798908055 -0.580511889092 0.06371418
v 0.706674487848 -0.582532701523 0.06931299
v 0.686950623114 -0.604088785716 0.06999758
v 0.683490271624 -0.536136691257 0.02772519
v 0.695947467608 -0.538831165646 0.03464428
v 0.681690891162 -0.633559935403 0.11649963
v 0.696016672325 -0.619666438008 0.11938462
v 0.692141092533 -0.625223802277 0.1490902
v 0.680998786175 -0.634233539546 0.17285466
v 0.674424164597 -0.63852793218 0.18982226
v 0.666257776709 -0.64610622451 0.1939297
v 0.650755457539 -0.662020707782 0.19011566
v 0.691033759243 -0.605857061635 0.07640323
v 0.698923328262 -0.600299639551 0.07980162
v 0.700169070987 -0.607372685412 0.09271073
v 0.692763934987 -0.617392915619 0.09711155
v 0.693871268278 -0.619413785865 0.10615769
v 0.699338614381 -0.615372045373 0.11354131
v 0.653869785442 -0.645853630183 0.2497713
v 0.648333234622 -0.651158457941 0.2497713
v 0.792144857436 -0.400485154481 0.04752892
v 0.786262225215 -0.408063446811 0.04479063
v 0.777819018458 -0.418588865673 0.04141665
v 0.765085003605 -0.444186690357 0.04014531
v 0.750828427159 -0.4529438333 0.03369075
v 0.736571735083 -0.455217297873 0.02716288
v 0.730966037361 -0.469784515042 0.02840978
v 0.716432642046 -0.479720450783 0.02486467
v 0.707435797552 -0.498834597097 0.02620935
v 0.824256655622 -0.32183922567 0.05960673
v 0.817612887142 -0.338258839781 0.05613497
v 0.806401318252 -0.366888027649 0.05119628
v 0.800518801661 -0.388780827191 0.0516119
v 0.701622427863 -0.517190960431 0.02919215
v 0.682382938334 -0.523169392332 0.02359331
v 0.846333654185 -0.3600675183 0.2497713
v 0.839758974792 -0.374971508633 0.2497713
v 0.834291686504 -0.406884596198 0.19053131
v 0.81581350668 -0.449407281462 0.14913908
v 0.818374081216 -0.443428849561 0.12667042
v 0.812629974059 -0.453112190975 0.11730644
v 0.812145541039 -0.452691181158 0.11261225
v 0.811799459638 -0.452270171342 0.10896933
v 0.819204595637 -0.43416646015 0.1044707
v 0.814775378107 -0.439050220275 0.09672037
v 0.822388128258 -0.414883898345 0.0907059
v 0.831800258871 -0.39576975203 0.09478888
v 0.845918368067 -0.359478092994 0.10004544
v 0.840727956463 -0.371013946979 0.09654921
v 0.84315017938 -0.357373043911 0.09273517
v 0.832976739063 -0.367056443139 0.07997277
v 0.822872561278 -0.363519891301 0.06635466
v 0.831800258871 -0.334301278126 0.06923965
v 0.825363988912 -0.335732780881 0.06300515
v 0.729512680485 -0.5227483247 0.04755336
v 0.732765417823 -0.5283058046 0.05349448
v 0.737471512037 -0.530579269173 0.05892217
v 0.720861917391 -0.555419253061 0.06085363
v 0.714979342985 -0.511886132674 0.03395969
v 0.719823788819 -0.522327372699 0.04090321
v 0.721415497314 -0.562071289106 0.06672141
v 0.721830725617 -0.573859795233 0.07877478
v 0.709096710764 -0.585395649217 0.07510743
v 0.709927225185 -0.605351872981 0.12398103
v 0.712557062254 -0.60206791547 0.14835671
v 0.70612085011 -0.608972603656 0.15224412
v 0.698854123545 -0.616466659334 0.15896761
v 0.688127103306 -0.625813285398 0.17813563
v 0.699131000229 -0.611667078046 0.191387
v 0.670894608391 -0.627918334481 0.2497713
v 0.720654245425 -0.581017077746 0.08642733
v 0.715463718191 -0.592300337404 0.09654921
v 0.702452884469 -0.60821476286 0.10026547
v 0.713802804978 -0.596342077896 0.10161018
v 0.708335458875 -0.604257201205 0.10877374
v 0.723906982763 -0.588258539097 0.11464152
v 0.791383489917 -0.423135794819 0.05378786
v 0.779410726953 -0.428777453555 0.04554856
v 0.755811224612 -0.456059317507 0.03806713
v 0.77027553084 -0.451007141892 0.04635537
v 0.7544963928 -0.477531165047 0.04493731
v 0.738301910828 -0.474247265351 0.03332403
v 0.743976871082 -0.476436551087 0.03762704
v 0.72792097199 -0.485530467194 0.0315637
v 0.818720162617 -0.354173265237 0.06002235
v 0.807716323509 -0.377581804186 0.05501032
v 0.806539785502 -0.397959037766 0.05997348
v 0.830000878409 -0.396190761847 0.2497713
v 0.830692867765 -0.395432921051 0.24788871
v 0.824325975969 -0.425577732697 0.19380748
v 0.81581350668 -0.444860294501 0.17718214
v 0.804809609757 -0.467258340512 0.16688907
v 0.808615984832 -0.46212198606 0.15319762
v 0.800864825247 -0.476689145414 0.14896795
v 0.796089526316 -0.485362109519 0.13781917
v 0.810622979446 -0.458669613059 0.12398103
v 0.806955013805 -0.464058677468 0.11444592
v 0.797266122138 -0.480646707068 0.10852924
v 0.808131551812 -0.456480327323 0.10200137
v 0.805017223908 -0.455554128853 0.0922462
v 0.810346160577 -0.439134456927 0.08706298
v 0.812699120961 -0.42372527794 0.07965493
v 0.824325975969 -0.404695310463 0.08664736
v 0.834222481787 -0.38204461231 0.09009469
v 0.821696081086 -0.397117018132 0.0779435
v 0.818858629866 -0.391054349579 0.07146451
v 0.825225521662 -0.376318774736 0.07376271
v 0.819965847526 -0.37556093394 0.06701478
v 0.826540526919 -0.393327814152 0.08332229
v 0.73504928912 -0.507086551386 0.0443261
v 0.745084204373 -0.504139424855 0.05014497
v 0.728059381424 -0.504392076997 0.03836054
v 0.751520474331 -0.510117856755 0.05928889
v 0.745983923511 -0.524264064108 0.06327409
v 0.754150311399 -0.520306502453 0.06899518
v 0.73961685827 -0.537904967176 0.0666236
v 0.734703207719 -0.55070385061 0.07173344
v 0.735602869043 -0.554829827755 0.07765013
v 0.738647992229 -0.558366379593 0.08615839
v 0.727713357838 -0.573607200906 0.08804095
v 0.723145673059 -0.589942636178 0.12843075
v 0.717747589488 -0.596257841243 0.13466525
v 0.727851767272 -0.583964204278 0.15177959
v 0.709719611034 -0.602825756266 0.16935843
v 0.712972290557 -0.597268334182 0.18170521
v 0.72335328721 -0.583037947992 0.19106919
v 0.692279501967 -0.604004606878 0.2497713
v 0.732073370651 -0.574196568397 0.09987429
v 0.725152667672 -0.584469392932 0.10659778
v 0.741208682395 -0.566113087413 0.11407918
v 0.73283462254 -0.577480525908 0.1182355
v 0.731035242078 -0.580343415787 0.12520349
v 0.746676028498 -0.558029548614 0.10835811
v 0.779133908085 -0.448312609687 0.05295658
v 0.802179714874 -0.417915203714 0.06280956
v 0.78972251889 -0.447807363218 0.06315184
v 0.764392898618 -0.473405187902 0.05073172
v 0.809238769472 -0.407810794669 0.0668681
v 0.81297605546 -0.428609038066 0.2497713
v 0.816021120832 -0.441660515827 0.19336739
v 0.803079491827 -0.466753151858 0.18982226
v 0.791314343015 -0.493192996176 0.15085053
v 0.785570120228 -0.502792158752 0.13046002
v 0.783840002299 -0.505318275467 0.1169886
v 0.796158788848 -0.48485686305 0.1248123
v 0.79698930327 -0.483593775785 0.13143799
v 0.802941024578 -0.472563168269 0.11975136
v 0.78231738289 -0.506412889428 0.10921383
v 0.782801873726 -0.499676674546 0.09642696
v 0.791175875766 -0.486372544642 0.09860295
v 0.80128005355 -0.467005746185 0.09777167
v 0.79242161849 -0.479552035293 0.0919039
v 0.792144857436 -0.475510294801 0.08664736
v 0.802802615143 -0.453112190975 0.08530265
v 0.80176448657 -0.450080885606 0.08077961
v 0.80079562053 -0.447217995726 0.07674551
v 0.802871877676 -0.436103151558 0.07276031
v 0.805294100592 -0.423220031471 0.06926411
v 0.756918615717 -0.496224301545 0.05620831
v 0.770552291893 -0.480394112741 0.06053579
v 0.760032885805 -0.505149859978 0.06515667
v 0.772905367908 -0.488561772563 0.06850618
v 0.771521157934 -0.496476895872 0.07254028
v 0.764116021934 -0.511970369327 0.07554752
v 0.76619227908 -0.516348882983 0.08251548
v 0.749790298586 -0.534957840644 0.07657436
v 0.745361081056 -0.546072684812 0.08236879
v 0.760448056293 -0.5308318635 0.09009469
v 0.743700052214 -0.555250837572 0.09153718
v 0.737748330906 -0.571670509497 0.13488531
v 0.736502588181 -0.572933596762 0.14828336
v 0.758371914778 -0.544388645545 0.14867455
v 0.747783303973 -0.557776954287 0.15449342
v 0.734287979416 -0.575038645845 0.15779406
v 0.724253006349 -0.584974639401 0.17510396
v 0.748682965296 -0.549777594325 0.1928784
v 0.732280984803 -0.554829827755 0.2497713
v 0.713664395544 -0.578406782194 0.2497713
v 0.749236603034 -0.55070385061 0.0981873
v 0.752143316786 -0.552724778672 0.11933571
v 0.748475351145 -0.557945369776 0.12385878
v 0.739755325519 -0.569144392782 0.12921312
v 0.767645635956 -0.52956883405 0.10984948
v 0.774912362521 -0.464900639287 0.05657506
v 0.793459689248 -0.452691181158 0.07046211
v 0.786192962683 -0.463469194347 0.0679194
v 0.777472937057 -0.473236772413 0.06356749
v 0.809515703971 -0.435176895273 0.2497713
v 0.807647060977 -0.438629210458 0.2497713
v 0.792075594904 -0.465658480083 0.2497713
v 0.792006390187 -0.484435853233 0.19270727
v 0.79020695191 -0.491087947093 0.1751284
v 0.771105929631 -0.525948103374 0.14894348
v 0.77359741508 -0.521906362882 0.12522793
v 0.767299554555 -0.531000278989 0.11735535
v 0.767438021805 -0.523843054291 0.0959869
v 0.771452011032 -0.514580664879 0.09124377
v 0.780379650809 -0.496561132524 0.08718523
v 0.787646377374 -0.476436551087 0.07867697
v 0.780241241375 -0.481320311212 0.07244247
v 0.766676712101 -0.51929606733 0.08745417
v 0.753458264228 -0.548430386038 0.1641508
v 0.763216360611 -0.537315541869 0.12280747
v 0.76556937881 -0.534115821011 0.1312913
v 0.76681517935 -0.524095648618 0.19314736
v 0.754773211669 -0.541609934503 0.1916804
v 0.752420135655 -0.527211132824 0.2497713
v 0.740239700724 -0.544135993403 0.2497713
v 0.780448855526 -0.484183258906 0.2497713
v 0.780587322776 -0.502707979915 0.19302511
v 0.786123815781 -0.494792856605 0.18867317
v 0.783770739766 -0.502118554609 0.17045864
v 0.769098935017 -0.502034375771 0.2497713
v 0.759617657502 -0.516433119635 0.2497713
f 1 2 3
f 1 3 4
f 1 4 5
f 1 5 6
f 1 6 7
f 1 7 8
f 1 8 9
f 1 9 10
f 1 10 11
f 1 11 12
f 1 12 21
f 1 21 31
f 1 31 57
f 1 57 94
f 1 94 141
f 1 141 193
f 1 193 259
f 1 259 358
f 1 358 446
f 1 446 538
f 1 538 544
f 1 544 543
f 1 543 644
f 1 644 750
f 1 750 748
f 1 748 837
f 1 837 836
f 1 836 920
f 1 920 838
f 1 838 753
f 1 753 832
f 1 832 831
f 1 831 830
f 1 830 829
f 1 829 744
f 1 744 743
f 1 743 742
f 1 742 741
f 1 741 740
f 1 740 833
f 1 833 739
f 1 739 737
f 1 737 679
f 1 679 677
f 1 677 566
f 1 566 469
f 1 469 377
f 1 377 274
f 1 274 209
f 1 209 157
f 1 157 107
f 1 107 106
f 1 106 105
f 1 105 153
f 1 153 100
f 1 100 61
f 1 61 33
f 1 33 22
f 1 22 13
f 1 13 2
f 2 13 3
f 3 13 4
f 4 13 14
f 4 14 15
f 4 15 16
f 4 16 17
f 4 17 18
f 4 18 6
f 4 6 5
f 6 18 19
f 6 19 7
f 7 20 30
f 7 30 29
f 7 29 44
f 7 44 77
f 7 77 121
f 7 121 120
f 7 120 119
f 7 119 118
f 7 118 117
f 7 117 172
f 7 172 228
f 7 228 310
f 7 310 407
f 7 407 502
f 7 502 501
f 7 501 599
f 7 599 711
f 7 711 805
f 7 805 893
f 7 893 896
f 7 896 895
f 7 895 970
f 7 970 969
f 7 969 1020
f 7 1020 1077
f 7 1077 1128
f 7 1128 1127
f 7 1127 1158
f 7 1158 1157
f 7 1157 1164
f 7 1164 1163
f 7 1163 1159
f 7 1159 1140
f 7 1140 1139
f 7 1139 1138
f 7 1138 1089
f 7 1089 1038
f 7 1038 987
f 7 987 986
f 7 986 921
f 7 921 839
f 7 839 754
f 7 754 647
f 7 647 545
f 7 545 452
f 7 452 363
f 7 363 263
f 7 263 196
f 7 196 145
f 7 145 96
f 7 96 58
f 7 58 32
f 7 32 21
f 7 21 12
f 7 12 11
f 7 11 10
f 7 10 9
f 7 9 8
f 7 19 20
f 13 22 14
f 14 22 23
f 14 23 15
f 15 23 16
f 16 24 17
f 16 23 25
f 16 25 24
f 17 24 26
f 17 26 27
f 17 27 19
f 17 19 18
f 19 27 28
f 19 28 29
f 19 29 30
f 19 30 20
f 21 32 60
f 21 60 99
f 21 99 152
f 21 152 202
f 21 202 204
f 21 204 271
f 21 271 374
f 21 374 376
f 21 376 468
f 21 468 564
f 21 564 612
f 21 612 513
f 21 513 428
f 21 428 427
f 21 427 426
f 21 426 424
f 21 424 423
f 21 423 337
f 21 337 336
f 21 336 414
f 21 414 413
f 21 413 412
f 21 412 411
f 21 411 326
f 21 326 325
f 21 325 324
f 21 324 323
f 21 323 322
f 21 322 321
f 21 321 320
f 21 320 319
f 21 319 318
f 21 318 317
f 21 317 316
f 21 316 314
f 21 314 232
f 21 232 176
f 21 176 125
f 21 125 123
f 21 123 78
f 21 78 45
f 21 45 31
f 22 33 23
f 23 33 25
f 24 25 34
f 24 34 26
f 25 33 35
f 25 35 36
f 25 36 37
f 25 37 38
f 25 38 39
f 25 39 34
f 26 34 40
f 26 40 41
f 26 41 42
f 26 42 27
f 27 42 28
f 28 42 43
f 28 43 44
f 28 44 29
f 31 45 46
f 31 46 47
f 31 47 48
f 31 48 49
f 31 49 50
f 31 50 51
f 31 51 52
f 31 52 53
f 31 53 54
f 31 54 55
f 31 55 56
f 31 56 57
f 32 58 59
f 32 59 60
f 33 61 36
f 33 36 35
f 34 39 62
f 34 62 63
f 34 63 64
f 34 64 40
f 36 61 65
f 36 65 37
f 37 65 66
f 37 66 67
f 37 67 68
f 37 68 69
f 37 69 70
f 37 70 71
f 37 71 38
f 38 71 39
f 39 71 62
f 40 72 41
f 40 64 73
f 40 73 72
f 41 72 74
f 41 74 42
f 42 74 43
f 43 74 75
f 43 75 76
f 43 76 77
f 43 77 44
f 45 78 79
f 45 79 46
f 46 79 47
f 47 80 81
f 47 81 82
f 47 82 48
f 47 79 83
f 47 83 80
f 48 82 49
f 49 82 84
f 49 84 85
f 49 85 86
f 49 86 50
f 50 86 87
f 50 87 51
f 51 87 88
f 51 88 52
f 52 88 89
f 52 89 90
f 52 90 91
f 52 91 54
f 52 54 53
f 54 91 55
f 55 91 92
f 55 92 56
f 56 92 91
f 56 91 93
f 56 93 57
f 57 93 95
f 57 95 94
f 58 96 97
f 58 97 59
f 59 97 98
f 59 98 99
f 59 99 60
f 61 100 65
f 62 71 101
f 62 101 102
f 62 102 103
f 62 103 63
f 63 73 64
f 63 103 73
f 65 100 104
f 65 104 67
f 65 67 66
f 67 104 105
f 67 105 106
f 67 106 107
f 67 107 108
f 67 108 109
f 67 109 68
f 68 109 69
f 69 109 108
f 69 108 110
f 69 110 111
f 69 111 101
f 69 101 70
f 70 101 71
f 72 73 112
f 72 112 74
f 73 103 113
f 73 113 114
f 73 114 112
f 74 115 75
f 74 112 114
f 74 114 116
f 74 116 115
f 75 115 76
f 76 117 118
f 76 118 119
f 76 119 120
f 76 120 121
f 76 121 77
f 76 115 122
f 76 122 117
f 78 123 79
f 79 124 83
f 79 123 125
f 79 125 124
f 80 126 127
f 80 127 81
f 80 83 128
f 80 128 129
f 80 129 130
f 80 130 126
f 81 127 82
f 82 127 84
f 83 124 128
f 84 131 85
f 84 127 131
f 85 132 133
f 85 133 86
f 85 131 132
f 86 133 87
f 87 134 135
f 87 135 88
f 87 133 134
f 88 135 89
f 89 136 90
f 89 135 137
f 89 137 136
f 90 136 138
f 90 138 139
f 90 139 91
f 91 139 140
f 91 140 93
f 93 140 95
f 94 95 142
f 94 142 141
f 95 140 143
f 95 143 144
f 95 144 142
f 96 145 146
f 96 146 147
f 96 147 97
f 97 147 146
f 97 146 148
f 97 148 149
f 97 149 150
f 97 150 98
f 98 150 151
f 98 151 99
f 99 151 152
f 100 153 104
f 101 111 154
f 101 154 155
f 101 155 156
f 101 156 102
f 102 156 103
f 103 156 113
f 104 153 105
f 107 157 158
f 107 158 159
f 107 159 108
f 108 160 161
f 108 161 162
f 108 162 154
f 108 154 111
f 108 111 163
f 108 163 110
f 108 159 164
f 108 164 160
f 110 163 111
f 113 156 165
f 113 165 166
f 113 166 167
f 113 167 168
f 113 168 114
f 114 168 116
f 115 116 122
f 116 168 169
f 116 169 170
f 116 170 171
f 116 171 122
f 117 122 173
f 117 173 172
f 122 171 173
f 124 174 175
f 124 175 128
f 124 125 174
f 125 176 174
f 126 130 177
f 126 177 178
f 126 178 179
f 126 179 180
f 126 180 131
f 126 131 127
f 128 175 181
f 128 181 129
f 129 182 130
f 129 181 183
f 129 183 184
f 129 184 182
f 130 182 177
f 131 180 132
f 132 180 185
f 132 185 134
f 132 134 133
f 134 185 186
f 134 186 135
f 135 186 137
f 136 187 188
f 136 188 138
f 136 137 187
f 137 186 189
f 137 189 187
f 138 188 190
f 138 190 191
f 138 191 192
f 138 192 140
f 138 140 139
f 140 192 143
f 141 142 193
f 142 144 194
f 142 194 193
f 143 192 195
f 143 195 144
f 144 195 194
f 145 196 197
f 145 197 146
f 146 197 198
f 146 198 199
f 146 199 148
f 148 199 200
f 148 200 149
f 149 200 201
f 149 201 150
f 150 201 151
f 151 202 152
f 151 201 203
f 151 203 204
f 151 204 202
f 154 162 205
f 154 205 206
f 154 206 207
f 154 207 156
f 154 156 155
f 156 207 208
f 156 208 165
f 157 209 210
f 157 210 211
f 157 211 212
f 157 212 158
f 158 212 211
f 158 211 213
f 158 213 214
f 158 214 215
f 158 215 216
f 158 216 159
f 159 216 217
f 159 217 160
f 159 160 164
f 160 218 219
f 160 219 220
f 160 220 162
f 160 162 161
f 160 217 218
f 162 220 205
f 165 208 207
f 165 207 166
f 166 221 167
f 166 207 206
f 166 206 222
f 166 222 223
f 166 223 224
f 166 224 221
f 167 221 225
f 167 225 168
f 168 225 169
f 169 225 226
f 169 226 170
f 170 227 173
f 170 173 171
f 170 226 227
f 172 173 229
f 172 229 228
f 173 227 230
f 173 230 229
f 174 231 175
f 174 176 232
f 174 232 233
f 174 233 231
f 175 231 234
f 175 234 181
f 177 235 178
f 177 182 236
f 177 236 237
f 177 237 235
f 178 238 239
f 178 239 179
f 178 235 240
f 178 240 238
f 179 239 241
f 179 241 180
f 180 241 185
f 181 234 183
f 182 184 242
f 182 242 236
f 183 234 243
f 183 243 244
f 183 244 184
f 184 244 245
f 184 245 246
f 184 246 242
f 185 241 186
f 186 241 247
f 186 247 248
f 186 248 189
f 187 189 249
f 187 249 250
f 187 250 188
f 188 250 251
f 188 251 190
f 189 248 252
f 189 252 253
f 189 253 249
f 190 251 254
f 190 254 255
f 190 255 191
f 191 255 256
f 191 256 192
f 192 256 257
f 192 257 258
f 192 258 195
f 193 194 260
f 193 260 259
f 194 195 258
f 194 258 261
f 194 261 262
f 194 262 260
f 196 263 197
f 197 264 265
f 197 265 198
f 197 263 264
f 198 266 267
f 198 267 199
f 198 265 266
f 199 267 268
f 199 268 200
f 200 268 201
f 201 268 269
f 201 269 203
f 203 269 270
f 203 270 204
f 204 270 271
f 205 272 206
f 205 220 273
f 205 273 272
f 206 272 222
f 209 274 275
f 209 275 276
f 209 276 277
f 209 277 278
f 209 278 210
f 210 278 279
f 210 279 280
f 210 280 281
f 210 281 211
f 211 281 213
f 213 281 280
f 213 280 282
f 213 282 283
f 213 283 284
f 213 284 285
f 213 285 286
f 213 286 287
f 213 287 214
f 214 287 215
f 215 288 289
f 215 289 217
f 215 217 216
f 215 287 290
f 215 290 288
f 217 289 291
f 217 291 218
f 218 292 219
f 218 291 292
f 219 293 220
f 219 292 294
f 219 294 295
f 219 295 296
f 219 296 293
f 220 293 296
f 220 296 297
f 220 297 273
f 221 298 299
f 221 299 300
f 221 300 301
f 221 301 226
f 221 226 225
f 221 224 302
f 221 302 303
f 221 303 298
f 222 272 304
f 222 304 223
f 223 305 302
f 223 302 224
f 223 304 306
f 223 306 305
f 226 301 307
f 226 307 308
f 226 308 309
f 226 309 230
f 226 230 227
f 228 229 311
f 228 311 312
f 228 312 310
f 229 230 311
f 230 309 313
f 230 313 311
f 231 233 234
f 232 314 233
f 233 315 234
f 233 314 316
f 233 316 317
f 233 317 318
f 233 318 319
f 233 319 320
f 233 320 321
f 233 321 322
f 233 322 323
f 233 323 324
f 233 324 325
f 233 325 326
f 233 326 315
f 234 315 327
f 234 327 328
f 234 328 243
f 235 237 240
f 236 329 237
f 236 242 330
f 236 330 329
f 237 329 331
f 237 331 240
f 238 240 332
f 238 332 239
f 239 252 247
f 239 247 241
f 239 332 333
f 239 333 252
f 240 331 334
f 240 334 332
f 242 246 330
f 243 335 244
f 243 328 336
f 243 336 337
f 243 337 335
f 244 335 337
f 244 337 338
f 244 338 245
f 245 339 246
f 245 338 340
f 245 340 341
f 245 341 339
f 246 339 342
f 246 342 330
f 247 252 248
f 249 253 343
f 249 343 250
f 250 343 344
f 250 344 251
f 251 344 345
f 251 345 346
f 251 346 254
f 252 347 253
f 252 333 348
f 252 348 349
f 252 349 350
f 252 350 347
f 253 347 343
f 254 351 255
f 254 346 352
f 254 352 351
f 255 351 256
f 256 351 353
f 256 353 354
f 256 354 355
f 256 355 257
f 257 355 258
f 258 355 356
f 258 356 357
f 258 357 261
f 259 260 262
f 259 262 358
f 261 359 360
f 261 360 361
f 261 361 262
f 261 357 356
f 261 356 362
f 261 362 359
f 262 361 358
f 263 363 264
f 264 364 365
f 264 365 265
f 264 363 364
f 265 365 366
f 265 366 367
f 265 367 266
f 266 367 368
f 266 368 267
f 267 368 369
f 267 369 370
f 267 370 371
f 267 371 268
f 268 371 372
f 268 372 269
f 269 372 373
f 269 373 270
f 270 374 271
f 270 373 375
f 270 375 376
f 270 376 374
f 272 273 306
f 272 306 304
f 273 297 306
f 274 377 378
f 274 378 379
f 274 379 275
f 275 379 380
f 275 380 276
f 276 380 277
f 277 380 381
f 277 381 279
f 277 279 278
f 279 382 283
f 279 283 282
f 279 282 280
f 279 381 383
f 279 383 382
f 283 382 284
f 284 382 285
f 285 382 384
f 285 384 385
f 285 385 386
f 285 386 286
f 286 386 387
f 286 387 388
f 286 388 287
f 287 388 290
f 288 290 289
f 289 389 294
f 289 294 291
f 289 290 390
f 289 390 391
f 289 391 389
f 290 388 392
f 290 392 390
f 291 294 292
f 294 389 295
f 295 393 296
f 295 389 394
f 295 394 395
f 295 395 393
f 296 393 396
f 296 396 306
f 296 306 297
f 298 397 398
f 298 398 300
f 298 300 299
f 298 303 399
f 298 399 400
f 298 400 397
f 300 401 313
f 300 313 402
f 300 402 301
f 300 398 401
f 301 402 307
f 302 305 396
f 302 396 403
f 302 403 404
f 302 404 399
f 302 399 303
f 305 306 396
f 307 313 405
f 307 405 308
f 307 402 313
f 308 405 309
f 309 405 313
f 310 406 407
f 310 312 406
f 311 313 312
f 312 313 408
f 312 408 406
f 313 409 410
f 313 410 408
f 313 401 409
f 315 326 411
f 315 411 412
f 315 412 413
f 315 413 414
f 315 414 327
f 327 414 328
f 328 414 336
f 329 330 331
f 330 342 415
f 330 415 416
f 330 416 331
f 331 417 418
f 331 418 334
f 331 416 419
f 331 419 417
f 332 334 420
f 332 420 421
f 332 421 422
f 332 422 333
f 333 422 348
f 334 418 420
f 337 423 338
f 338 423 340
f 339 341 342
f 340 423 424
f 340 424 341
f 341 425 342
f 341 424 426
f 341 426 427
f 341 427 428
f 341 428 425
f 342 425 429
f 342 429 430
f 342 430 431
f 342 431 415
f 343 347 350
f 343 350 432
f 343 432 344
f 344 432 345
f 345 432 433
f 345 433 346
f 346 433 434
f 346 434 352
f 348 435 349
f 348 422 436
f 348 436 435
f 349 435 437
f 349 437 438
f 349 438 350
f 350 438 437
f 350 437 439
f 350 439 432
f 351 352 440
f 351 440 441
f 351 441 353
f 352 434 442
f 352 442 440
f 353 441 443
f 353 443 444
f 353 444 355
f 353 355 354
f 355 444 445
f 355 445 356
f 356 445 362
f 358 361 447
f 358 447 446
f 359 448 449
f 359 449 450
f 359 450 360
f 359 362 448
f 360 450 447
f 360 447 361
f 362 445 451
f 362 451 448
f 363 452 364
f 364 452 453
f 364 453 454
f 364 454 455
f 364 455 365
f 365 455 366
f 366 455 367
f 367 455 456
f 367 456 457
f 367 457 458
f 367 458 459
f 367 459 368
f 368 459 458
f 368 458 460
f 368 460 369
f 369 460 370
f 370 461 462
f 370 462 371
f 370 460 463
f 370 463 464
f 370 464 461
f 371 462 461
f 371 461 372
f 372 461 465
f 372 465 373
f 373 465 375
f 375 465 466
f 375 466 467
f 375 467 376
f 376 467 468
f 377 469 470
f 377 470 378
f 378 470 379
f 379 470 471
f 379 471 472
f 379 472 473
f 379 473 380
f 380 474 475
f 380 475 381
f 380 473 472
f 380 472 474
f 381 475 476
f 381 476 383
f 382 477 384
f 382 383 477
f 383 476 478
f 383 478 477
f 384 477 385
f 385 477 479
f 385 479 480
f 385 480 481
f 385 481 386
f 386 481 482
f 386 482 387
f 387 482 483
f 387 483 388
f 388 483 392
f 389 484 394
f 389 391 484
f 390 392 391
f 391 392 485
f 391 485 486
f 391 486 487
f 391 487 484
f 392 483 488
f 392 488 486
f 392 486 485
f 393 489 396
f 393 395 489
f 394 484 395
f 395 484 490
f 395 490 489
f 396 489 404
f 396 404 403
f 397 400 491
f 397 491 492
f 397 492 493
f 397 493 494
f 397 494 495
f 397 495 496
f 397 496 398
f 398 496 401
f 399 497 498
f 399 498 499
f 399 499 400
f 399 404 497
f 400 499 492
f 400 492 491
f 401 496 409
f 404 489 500
f 404 500 498
f 404 498 497
f 406 501 502
f 406 502 407
f 406 408 503
f 406 503 501
f 408 410 503
f 409 496 503
f 409 503 410
f 415 431 504
f 415 504 416
f 416 504 419
f 417 419 505
f 417 505 418
f 418 505 420
f 419 504 506
f 419 506 507
f 419 507 508
f 419 508 505
f 420 509 422
f 420 422 421
f 420 505 510
f 420 510 509
f 422 509 511
f 422 511 436
f 425 512 430
f 425 430 429
f 425 428 512
f 428 513 514
f 428 514 512
f 430 512 515
f 430 515 516
f 430 516 517
f 430 517 518
f 430 518 519
f 430 519 431
f 431 519 504
f 432 439 433
f 433 439 520
f 433 520 521
f 433 521 434
f 434 522 442
f 434 521 523
f 434 523 522
f 435 524 437
f 435 436 524
f 436 511 525
f 436 525 526
f 436 526 527
f 436 527 524
f 437 524 528
f 437 528 529
f 437 529 439
f 439 529 530
f 439 530 531
f 439 531 520
f 440 442 532
f 440 532 441
f 441 532 533
f 441 533 443
f 442 522 532
f 443 533 534
f 443 534 535
f 443 535 444
f 444 535 536
f 444 536 445
f 445 536 537
f 445 537 451
f 446 447 538
f 447 450 538
f 448 451 537
f 448 537 449
f 449 539 450
f 449 537 540
f 449 540 541
f 449 541 542
f 449 542 539
f 450 539 543
f 450 543 544
f 450 544 538
f 452 545 453
f 453 546 456
f 453 456 454
f 453 545 547
f 453 547 546
f 454 456 455
f 456 546 548
f 456 548 549
f 456 549 550
f 456 550 551
f 456 551 552
f 456 552 553
f 456 553 457
f 457 553 458
f 458 553 554
f 458 554 460
f 460 554 553
f 460 553 555
f 460 555 556
f 460 556 557
f 460 557 558
f 460 558 463
f 461 464 559
f 461 559 560
f 461 560 465
f 463 558 464
f 464 558 561
f 464 561 562
f 464 562 559
f 465 560 466
f 466 560 467
f 467 563 564
f 467 564 468
f 467 560 565
f 467 565 563
f 469 566 470
f 470 567 568
f 470 568 569
f 470 569 471
f 470 566 567
f 471 569 570
f 471 570 571
f 471 571 472
f 472 572 474
f 472 571 573
f 472 573 572
f 474 574 475
f 474 572 574
f 475 574 478
f 475 478 476
f 477 575 479
f 477 478 576
f 477 576 575
f 478 574 576
f 479 575 480
f 480 577 578
f 480 578 579
f 480 579 580
f 480 580 481
f 480 575 577
f 481 580 482
f 482 580 581
f 482 581 488
f 482 488 483
f 484 487 490
f 486 488 581
f 486 581 582
f 486 582 583
f 486 583 584
f 486 584 585
f 486 585 586
f 486 586 487
f 487 586 490
f 489 587 500
f 489 490 588
f 489 588 587
f 490 586 588
f 492 589 493
f 492 499 590
f 492 590 589
f 493 589 591
f 493 591 494
f 494 591 495
f 495 592 593
f 495 593 496
f 495 591 592
f 496 593 503
f 498 500 594
f 498 594 590
f 498 590 499
f 500 587 595
f 500 595 596
f 500 596 597
f 500 597 598
f 500 598 594
f 501 503 599
f 503 593 592
f 503 592 600
f 503 600 601
f 503 601 602
f 503 602 599
f 504 519 506
f 505 508 603
f 505 603 510
f 506 519 604
f 506 604 507
f 507 604 605
f 507 605 606
f 507 606 508
f 508 606 607
f 508 607 608
f 508 608 603
f 509 510 511
f 510 603 609
f 510 609 610
f 510 610 511
f 511 610 525
f 512 514 611
f 512 611 515
f 513 612 613
f 513 613 614
f 513 614 514
f 514 614 611
f 515 611 615
f 515 615 616
f 515 616 516
f 516 617 517
f 516 616 617
f 517 617 518
f 518 617 618
f 518 618 604
f 518 604 519
f 520 531 521
f 521 531 619
f 521 619 523
f 522 523 620
f 522 620 621
f 522 621 532
f 523 619 571
f 523 571 570
f 523 570 620
f 524 527 528
f 525 610 622
f 525 622 623
f 525 623 526
f 526 623 624
f 526 624 527
f 527 624 528
f 528 624 625
f 528 625 529
f 529 625 626
f 529 626 627
f 529 627 628
f 529 628 530
f 530 628 531
f 531 628 629
f 531 629 619
f 532 621 630
f 532 630 631
f 532 631 533
f 533 631 534
f 534 632 535
f 534 631 633
f 534 633 634
f 534 634 635
f 534 635 636
f 534 636 637
f 534 637 632
f 535 632 536
f 536 632 638
f 536 638 639
f 536 639 537
f 537 639 640
f 537 640 540
f 539 542 641
f 539 641 642
f 539 642 643
f 539 643 644
f 539 644 543
f 540 640 541
f 541 645 646
f 541 646 641
f 541 641 542
f 541 640 645
f 545 647 547
f 546 547 648
f 546 648 548
f 547 647 649
f 547 649 648
f 548 648 650
f 548 650 549
f 549 651 550
f 549 650 651
f 550 651 652
f 550 652 551
f 551 652 552
f 552 652 653
f 552 653 654
f 552 654 655
f 552 655 656
f 552 656 553
f 553 656 657
f 553 657 658
f 553 658 556
f 553 556 555
f 556 658 657
f 556 657 659
f 556 659 557
f 557 659 660
f 557 660 661
f 557 661 662
f 557 662 558
f 558 663 561
f 558 662 664
f 558 664 665
f 558 665 663
f 559 562 560
f 560 562 666
f 560 666 565
f 561 663 665
f 561 665 667
f 561 667 668
f 561 668 669
f 561 669 562
f 562 565 666
f 562 669 670
f 562 670 565
f 563 565 671
f 563 671 672
f 563 672 564
f 564 673 612
f 564 672 673
f 565 670 669
f 565 669 674
f 565 674 675
f 565 675 676
f 565 676 671
f 566 677 567
f 567 678 568
f 567 677 679
f 567 679 678
f 568 678 630
f 568 630 680
f 568 680 569
f 569 680 620
f 569 620 570
f 571 619 573
f 572 573 681
f 572 681 682
f 572 682 574
f 573 619 629
f 573 629 681
f 574 683 684
f 574 684 685
f 574 685 576
f 574 682 683
f 575 576 686
f 575 686 687
f 575 687 688
f 575 688 577
f 576 685 689
f 576 689 686
f 577 688 690
f 577 690 691
f 577 691 578
f 578 691 692
f 578 692 580
f 578 580 579
f 580 692 581
f 581 692 691
f 581 691 693
f 581 693 694
f 581 694 582
f 582 694 695
f 582 695 583
f 583 696 697
f 583 697 584
f 583 695 696
f 584 697 698
f 584 698 585
f 585 698 586
f 586 698 595
f 586 595 588
f 587 588 595
f 589 699 700
f 589 700 591
f 589 590 701
f 589 701 702
f 589 702 699
f 590 594 702
f 590 702 701
f 591 700 703
f 591 703 592
f 592 703 704
f 592 704 601
f 592 601 600
f 594 598 597
f 594 597 702
f 595 698 705
f 595 705 596
f 596 705 597
f 597 705 706
f 597 706 707
f 597 707 708
f 597 708 709
f 597 709 710
f 597 710 702
f 599 602 711
f 601 704 712
f 601 712 602
f 602 712 713
f 602 713 711
f 603 608 609
f 604 618 605
f 605 618 714
f 605 714 715
f 605 715 716
f 605 716 606
f 606 716 717
f 606 717 607
f 607 718 608
f 607 717 718
f 608 718 719
f 608 719 609
f 609 719 610
f 610 719 622
f 611 614 613
f 611 613 615
f 612 673 672
f 612 672 720
f 612 720 721
f 612 721 613
f 613 721 722
f 613 722 723
f 613 723 724
f 613 724 725
f 613 725 615
f 615 725 616
f 616 725 726
f 616 726 617
f 617 726 727
f 617 727 618
f 618 727 728
f 618 728 714
f 620 680 621
f 621 680 630
f 622 719 729
f 622 729 730
f 622 730 623
f 623 731 624
f 623 730 731
f 624 731 625
f 625 731 626
f 626 731 732
f 626 732 733
f 626 733 734
f 626 734 627
f 627 682 681
f 627 681 628
f 627 734 735
f 627 735 682
f 628 681 629
f 630 678 634
f 630 634 633
f 630 633 631
f 632 637 736
f 632 736 638
f 634 678 679
f 634 679 737
f 634 737 635
f 635 738 636
f 635 737 739
f 635 739 738
f 636 738 637
f 637 738 740
f 637 740 741
f 637 741 742
f 637 742 743
f 637 743 744
f 637 744 736
f 638 736 745
f 638 745 645
f 638 645 639
f 639 645 640
f 641 646 746
f 641 746 747
f 641 747 642
f 642 747 748
f 642 748 749
f 642 749 643
f 643 749 644
f 644 749 750
f 645 751 646
f 645 745 751
f 646 751 752
f 646 752 753
f 646 753 746
f 647 754 649
f 648 755 756
f 648 756 650
f 648 649 754
f 648 754 755
f 650 756 755
f 650 755 757
f 650 757 651
f 651 757 652
f 652 757 653
f 653 757 758
f 653 758 759
f 653 759 760
f 653 760 761
f 653 761 762
f 653 762 763
f 653 763 654
f 654 763 656
f 654 656 655
f 656 763 764
f 656 764 765
f 656 765 766
f 656 766 657
f 657 766 660
f 657 660 659
f 660 766 661
f 661 766 767
f 661 767 768
f 661 768 662
f 662 768 664
f 664 768 667
f 664 667 665
f 667 768 769
f 667 769 770
f 667 770 771
f 667 771 668
f 668 771 674
f 668 674 669
f 671 676 672
f 672 772 773
f 672 773 720
f 672 676 675
f 672 675 772
f 674 771 675
f 675 771 770
f 675 770 774
f 675 774 775
f 675 775 776
f 675 776 772
f 682 735 683
f 683 735 777
f 683 777 684
f 684 777 778
f 684 778 685
f 685 778 689
f 686 689 687
f 687 689 779
f 687 779 688
f 688 779 780
f 688 780 781
f 688 781 690
f 689 778 779
f 690 782 783
f 690 783 784
f 690 784 691
f 690 781 785
f 690 785 786
f 690 786 782
f 691 784 787
f 691 787 788
f 691 788 789
f 691 789 695
f 691 695 693
f 693 695 694
f 695 789 696
f 696 789 788
f 696 788 790
f 696 790 697
f 697 791 698
f 697 790 791
f 698 791 707
f 698 707 792
f 698 792 705
f 699 702 793
f 699 793 700
f 700 794 795
f 700 795 796
f 700 796 797
f 700 797 798
f 700 798 703
f 700 793 794
f 702 799 793
f 702 710 799
f 703 798 712
f 703 712 704
f 705 792 706
f 706 792 707
f 707 791 800
f 707 800 801
f 707 801 802
f 707 802 708
f 708 802 709
f 709 803 710
f 709 802 804
f 709 804 803
f 710 803 799
f 711 713 805
f 712 798 797
f 712 797 806
f 712 806 713
f 713 807 808
f 713 808 805
f 713 806 807
f 714 728 715
f 715 728 809
f 715 809 810
f 715 810 811
f 715 811 716
f 716 811 717
f 717 811 812
f 717 812 813
f 717 813 718
f 718 814 719
f 718 813 815
f 718 815 814
f 719 814 816
f 719 816 729
f 720 773 817
f 720 817 721
f 721 817 722
f 722 817 723
f 723 818 724
f 723 817 818
f 724 818 819
f 724 819 725
f 725 819 726
f 726 819 820
f 726 820 727
f 727 820 821
f 727 821 728
f 728 821 809
f 729 816 730
f 730 816 822
f 730 822 823
f 730 823 824
f 730 824 731
f 731 824 732
f 732 824 825
f 732 825 733
f 733 825 826
f 733 826 734
f 734 777 735
f 734 826 827
f 734 827 777
f 736 828 751
f 736 751 745
f 736 744 829
f 736 829 830
f 736 830 831
f 736 831 832
f 736 832 828
f 738 739 833
f 738 833 740
f 746 834 747
f 746 753 834
f 747 834 835
f 747 835 836
f 747 836 837
f 747 837 748
f 748 750 749
f 751 828 832
f 751 832 753
f 751 753 752
f 753 838 835
f 753 835 834
f 754 839 755
f 755 839 840
f 755 840 841
f 755 841 842
f 755 842 757
f 757 842 843
f 757 843 758
f 758 843 842
f 758 842 759
f 759 844 845
f 759 845 760
f 759 842 844
f 760 845 846
f 760 846 847
f 760 847 761
f 761 847 762
f 762 847 848
f 762 848 849
f 762 849 850
f 762 850 851
f 762 851 852
f 762 852 763
f 763 852 853
f 763 853 764
f 764 766 765
f 764 853 852
f 764 852 851
f 764 851 854
f 764 854 855
f 764 855 766
f 766 855 854
f 766 854 856
f 766 856 767
f 767 856 854
f 767 854 857
f 767 857 858
f 767 858 774
f 767 774 859
f 767 859 768
f 768 859 774
f 768 774 769
f 769 774 770
f 772 776 860
f 772 860 861
f 772 861 773
f 773 861 817
f 774 858 862
f 774 862 863
f 774 863 864
f 774 864 775
f 775 864 865
f 775 865 776
f 776 865 860
f 777 827 866
f 777 866 778
f 778 866 779
f 779 866 867
f 779 867 780
f 780 785 781
f 780 867 868
f 780 868 785
f 782 786 869
f 782 869 870
f 782 870 871
f 782 871 872
f 782 872 783
f 783 872 784
f 784 872 873
f 784 873 874
f 784 874 875
f 784 875 787
f 785 868 876
f 785 876 877
f 785 877 869
f 785 869 786
f 787 875 788
f 788 875 878
f 788 878 790
f 790 878 800
f 790 800 791
f 793 799 879
f 793 879 880
f 793 880 881
f 793 881 882
f 793 882 883
f 793 883 794
f 794 883 795
f 795 884 885
f 795 885 886
f 795 886 796
f 795 883 884
f 796 886 806
f 796 806 797
f 799 803 879
f 800 887 801
f 800 878 887
f 801 888 802
f 801 887 889
f 801 889 888
f 802 888 890
f 802 890 804
f 803 804 891
f 803 891 892
f 803 892 880
f 803 880 879
f 804 890 891
f 805 808 893
f 806 894 807
f 806 886 894
f 807 894 808
f 808 894 895
f 808 895 896
f 808 896 893
f 809 821 897
f 809 897 898
f 809 898 810
f 810 898 899
f 810 899 900
f 810 900 901
f 810 901 811
f 811 901 812
f 812 902 813
f 812 901 900
f 812 900 903
f 812 903 902
f 813 902 904
f 813 904 815
f 814 815 905
f 814 905 816
f 815 904 905
f 816 905 906
f 816 906 907
f 816 907 822
f 817 908 818
f 817 861 908
f 818 909 819
f 818 908 909
f 819 909 820
f 820 909 910
f 820 910 911
f 820 911 821
f 821 911 912
f 821 912 897
f 822 913 914
f 822 914 823
f 822 907 915
f 822 915 913
f 823 825 824
f 823 914 825
f 825 914 826
f 826 914 916
f 826 916 827
f 827 916 917
f 827 917 918
f 827 918 919
f 827 919 867
f 827 867 866
f 835 838 920
f 835 920 836
f 839 921 840
f 840 922 841
f 840 921 922
f 841 922 842
f 842 922 923
f 842 923 844
f 844 924 846
f 844 846 845
f 844 923 922
f 844 922 925
f 844 925 924
f 846 924 926
f 846 926 927
f 846 927 928
f 846 928 847
f 847 928 929
f 847 929 930
f 847 930 848
f 848 930 929
f 848 929 931
f 848 931 932
f 848 932 933
f 848 933 934
f 848 934 849
f 849 851 850
f 849 934 935
f 849 935 851
f 851 935 936
f 851 936 854
f 854 936 937
f 854 937 857
f 857 937 938
f 857 938 858
f 858 938 862
f 860 939 940
f 860 940 861
f 860 865 939
f 861 940 941
f 861 941 908
f 862 938 942
f 862 942 943
f 862 943 863
f 863 943 864
f 864 943 944
f 864 944 865
f 865 944 939
f 867 919 868
f 868 919 876
f 869 877 945
f 869 945 870
f 870 946 947
f 870 947 871
f 870 945 948
f 870 948 946
f 871 947 949
f 871 949 872
f 872 949 873
f 873 950 951
f 873 951 874
f 873 949 950
f 874 951 952
f 874 952 953
f 874 953 875
f 875 953 887
f 875 887 878
f 876 919 954
f 876 954 877
f 877 955 945
f 877 954 955
f 880 892 881
f 881 892 956
f 881 956 957
f 881 957 882
f 882 957 958
f 882 958 883
f 883 958 959
f 883 959 884
f 884 959 885
f 885 960 961
f 885 961 962
f 885 962 894
f 885 894 886
f 885 959 960
f 887 963 889
f 887 953 963
f 888 889 963
f 888 963 964
f 888 964 965
f 888 965 966
f 888 966 890
f 890 966 891
f 891 966 892
f 892 966 967
f 892 967 968
f 892 968 957
f 892 957 956
f 894 962 961
f 894 961 969
f 894 969 970
f 894 970 895
f 897 912 898
f 898 912 971
f 898 971 972
f 898 972 899
f 899 972 973
f 899 973 900
f 900 973 974
f 900 974 975
f 900 975 903
f 902 903 904
f 903 975 976
f 903 976 904
f 904 906 905
f 904 976 906
f 906 976 977
f 906 977 978
f 906 978 979
f 906 979 915
f 906 915 907
f 908 941 909
f 909 941 910
f 910 941 980
f 910 980 981
f 910 981 911
f 911 981 912
f 912 981 982
f 912 982 983
f 912 983 971
f 913 915 916
f 913 916 914
f 915 979 984
f 915 984 954
f 915 954 985
f 915 985 916
f 916 985 918
f 916 918 917
f 918 985 954
f 918 954 919
f 921 986 922
f 922 986 987
f 922 987 988
f 922 988 925
f 924 989 990
f 924 990 926
f 924 925 988
f 924 988 989
f 926 990 928
f 926 928 927
f 928 991 929
f 928 990 991
f 929 992 993
f 929 993 994
f 929 994 931
f 929 991 992
f 931 994 932
f 932 994 995
f 932 995 996
f 932 996 997
f 932 997 933
f 933 997 934
f 934 998 936
f 934 936 935
f 934 997 999
f 934 999 998
f 936 998 1000
f 936 1000 937
f 937 1000 938
f 938 1001 942
f 938 1000 1001
f 939 944 980
f 939 980 940
f 940 980 941
f 942 1001 1002
f 942 1002 1003
f 942 1003 944
f 942 944 943
f 944 1003 1004
f 944 1004 980
f 945 955 948
f 946 948 1005
f 946 1005 947
f 947 1005 1006
f 947 1006 1007
f 947 1007 1008
f 947 1008 950
f 947 950 949
f 948 955 1009
f 948 1009 1010
f 948 1010 1005
f 950 1008 951
f 951 1008 1011
f 951 1011 952
f 952 1011 1012
f 952 1012 1013
f 952 1013 963
f 952 963 953
f 954 984 955
f 955 984 1009
f 957 968 1014
f 957 1014 958
f 958 1015 1016
f 958 1016 1017
f 958 1017 1018
f 958 1018 959
f 958 1014 1015
f 959 1018 960
f 960 1018 1019
f 960 1019 1020
f 960 1020 969
f 960 969 961
f 963 1013 964
f 964 1013 1021
f 964 1021 965
f 965 1022 1023
f 965 1023 966
f 965 1021 1022
f 966 1023 967
f 967 1023 1024
f 967 1024 1025
f 967 1025 968
f 968 1026 1014
f 968 1025 1026
f 971 983 1027
f 971 1027 972
f 972 1027 1028
f 972 1028 973
f 973 1028 974
f 974 1029 975
f 974 1028 1030
f 974 1030 1031
f 974 1031 1029
f 975 1032 976
f 975 1029 1033
f 975 1033 1032
f 976 1032 977
f 977 979 978
f 977 1032 1034
f 977 1034 979
f 979 1034 984
f 980 1004 981
f 981 1004 1035
f 981 1035 982
f 982 1035 1036
f 982 1036 983
f 983 1036 1037
f 983 1037 1027
f 984 1034 1009
f 987 1038 1039
f 987 1039 988
f 988 1039 1040
f 988 1040 1041
f 988 1041 989
f 989 1042 1043
f 989 1043 1044
f 989 1044 1045
f 989 1045 1046
f 989 1046 990
f 989 1041 1042
f 990 1046 991
f 991 1047 992
f 991 1046 1047
f 992 1047 993
f 993 1048 1049
f 993 1049 994
f 993 1047 1048
f 994 1049 995
f 995 1050 1051
f 995 1051 996
f 995 1049 1050
f 996 1051 1052
f 996 1052 1053
f 996 1053 997
f 997 1053 1054
f 997 1054 999
f 998 999 1000
f 999 1054 1000
f 1000 1054 1001
f 1001 1055 1056
f 1001 1056 1057
f 1001 1057 1058
f 1001 1058 1002
f 1001 1054 1059
f 1001 1059 1055
f 1002 1035 1003
f 1002 1058 1037
f 1002 1037 1036
f 1002 1036 1035
f 1003 1035 1004
f 1005 1060 1061
f 1005 1061 1006
f 1005 1010 1062
f 1005 1062 1060
f 1006 1061 1007
f 1007 1063 1064
f 1007 1064 1065
f 1007 1065 1066
f 1007 1066 1008
f 1007 1061 1063
f 1008 1066 1011
f 1009 1034 1062
f 1009 1062 1010
f 1011 1066 1067
f 1011 1067 1012
f 1012 1068 1069
f 1012 1069 1070
f 1012 1070 1021
f 1012 1021 1013
f 1012 1067 1068
f 1014 1026 1071
f 1014 1071 1072
f 1014 1072 1015
f 1015 1072 1073
f 1015 1073 1074
f 1015 1074 1016
f 1016 1074 1017
f 1017 1074 1019
f 1017 1019 1018
f 1019 1075 1076
f 1019 1076 1077
f 1019 1077 1020
f 1019 1074 1075
f 1021 1070 1022
f 1022 1078 1024
f 1022 1024 1023
f 1022 1070 1078
f 1024 1078 1079
f 1024 1079 1026
f 1024 1026 1025
f 1026 1080 1081
f 1026 1081 1082
f 1026 1082 1071
f 1026 1079 1078
f 1026 1078 1083
f 1026 1083 1080
f 1027 1084 1028
f 1027 1037 1085
f 1027 1085 1086
f 1027 1086 1084
f 1028 1084 1030
f 1029 1031 1033
f 1030 1084 1087
f 1030 1087 1031
f 1031 1087 1061
f 1031 1061 1060
f 1031 1060 1062
f 1031 1062 1033
f 1032 1033 1062
f 1032 1062 1034
f 1037 1058 1056
f 1037 1056 1088
f 1037 1088 1085
f 1038 1089 1090
f 1038 1090 1040
f 1038 1040 1039
f 1040 1090 1041
f 1041 1090 1091
f 1041 1091 1042
f 1042 1092 1044
f 1042 1044 1043
f 1042 1091 1092
f 1044 1092 1045
f 1045 1093 1094
f 1045 1094 1095
f 1045 1095 1096
f 1045 1096 1097
f 1045 1097 1046
f 1045 1092 1093
f 1046 1097 1047
f 1047 1097 1048
f 1048 1097 1094
f 1048 1094 1098
f 1048 1098 1099
f 1048 1099 1100
f 1048 1100 1101
f 1048 1101 1049
f 1049 1101 1050
f 1050 1101 1102
f 1050 1102 1103
f 1050 1103 1104
f 1050 1104 1051
f 1051 1104 1105
f 1051 1105 1106
f 1051 1106 1052
f 1052 1106 1107
f 1052 1107 1108
f 1052 1108 1055
f 1052 1055 1059
f 1052 1059 1053
f 1053 1059 1054
f 1055 1108 1088
f 1055 1088 1056
f 1056 1058 1057
f 1061 1087 1109
f 1061 1109 1063
f 1063 1110 1111
f 1063 1111 1065
f 1063 1065 1064
f 1063 1109 1110
f 1065 1067 1066
f 1065 1111 1112
f 1065 1112 1113
f 1065 1113 1114
f 1065 1114 1115
f 1065 1115 1116
f 1065 1116 1067
f 1067 1116 1068
f 1068 1116 1117
f 1068 1117 1069
f 1069 1117 1118
f 1069 1118 1119
f 1069 1119 1070
f 1070 1119 1078
f 1071 1082 1073
f 1071 1073 1072
f 1073 1082 1120
f 1073 1120 1121
f 1073 1121 1122
f 1073 1122 1123
f 1073 1123 1124
f 1073 1124 1125
f 1073 1125 1074
f 1074 1125 1075
f 1075 1125 1076
f 1076 1125 1126
f 1076 1126 1127
f 1076 1127 1128
f 1076 1128 1077
f 1078 1119 1129
f 1078 1129 1083
f 1080 1130 1081
f 1080 1083 1130
f 1081 1130 1131
f 1081 1131 1082
f 1082 1131 1132
f 1082 1132 1120
f 1083 1129 1133
f 1083 1133 1130
f 1084 1134 1087
f 1084 1086 1134
f 1085 1088 1108
f 1085 1108 1107
f 1085 1107 1086
f 1086 1107 1135
f 1086 1135 1136
f 1086 1136 1137
f 1086 1137 1134
f 1087 1134 1110
f 1087 1110 1109
f 1089 1138 1090
f 1090 1138 1091
f 1091 1138 1139
f 1091 1139 1140
f 1091 1140 1141
f 1091 1141 1142
f 1091 1142 1092
f 1092 1143 1093
f 1092 1142 1143
f 1093 1143 1144
f 1093 1144 1094
f 1094 1097 1095
f 1094 1144 1145
f 1094 1145 1133
f 1094 1133 1098
f 1095 1097 1096
f 1098 1146 1099
f 1098 1133 1146
f 1099 1146 1147
f 1099 1147 1148
f 1099 1148 1102
f 1099 1102 1100
f 1100 1102 1101
f 1102 1148 1103
f 1103 1148 1149
f 1103 1149 1104
f 1104 1149 1105
f 1105 1149 1106
f 1106 1149 1135
f 1106 1135 1107
f 1110 1137 1112
f 1110 1112 1111
f 1110 1134 1137
f 1112 1150 1113
f 1112 1137 1150
f 1113 1150 1149
f 1113 1149 1115
f 1113 1115 1114
f 1115 1148 1147
f 1115 1147 1151
f 1115 1151 1118
f 1115 1118 1116
f 1115 1149 1148
f 1116 1118 1117
f 1118 1151 1147
f 1118 1147 1146
f 1118 1146 1129
f 1118 1129 1119
f 1120 1122 1121
f 1120 1132 1131
f 1120 1131 1122
f 1122 1152 1123
f 1122 1131 1153
f 1122 1153 1154
f 1122 1154 1143
f 1122 1143 1155
f 1122 1155 1156
f 1122 1156 1152
f 1123 1152 1126
f 1123 1126 1124
f 1124 1126 1125
f 1126 1156 1157
f 1126 1157 1158
f 1126 1158 1127
f 1126 1152 1156
f 1129 1146 1133
f 1130 1133 1145
f 1130 1145 1153
f 1130 1153 1131
f 1135 1149 1136
f 1136 1149 1150
f 1136 1150 1137
f 1140 1159 1160
f 1140 1160 1141
f 1141 1160 1161
f 1141 1161 1142
f 1142 1161 1160
f 1142 1160 1162
f 1142 1162 1143
f 1143 1154 1144
f 1143 1162 1155
f 1144 1153 1145
f 1144 1154 1153
f 1155 1160 1163
f 1155 1163 1164
f 1155 1164 1157
f 1155 1157 1156
f 1155 1162 1160
f 1159 1163 1160
