# ABC bottle geometry; canonical radius 1 and height 1, bottom z=0.
# https://github.com/mikedh/trimesh
v -0.505627210644 -0.420157390299 0.06375688
v -0.506239530744 -0.420157390299 0.06385386
v -0.758303924179 -0.236341798598 0.02240419
v -0.749162541845 -0.227477408579 0.01758054
v -0.741158441042 -0.219177120837 0.01423547
v -0.729524012251 -0.221997574407 0.01433241
v -0.70555536027 -0.224737491493 0.0145506
v -0.704286954012 -0.216356609452 0.01244175
v -0.676775506158 -0.227155089199 0.01549593
v -0.6768192144 -0.207250436536 0.01089042
v -0.657355691222 -0.213697286665 0.0131447
v -0.645152650573 -0.204913490944 0.01212662
v -0.60071443424 -0.187345841689 0.01251447
v -0.55693236188 -0.173404531177 0.01365373
v -0.530514371683 -0.167602377624 0.01501113
v -0.505627210644 -0.162203137751 0.01634431
v -0.505627210644 -0.420157390299 0.2497713
v -0.644190433273 -0.420157390299 0.08596033
v -0.78087287173 -0.226993900601 0.02242845
v -0.769982061212 -0.219418845918 0.01750782
v -0.717889583461 -0.420157390299 0.09793466
v -0.742339373 -0.420157390299 0.10198268
v -0.760359541321 -0.420157390299 0.10515806
v -0.771294117897 -0.207975727411 0.01469603
v -0.75143693146 -0.20837864109 0.01275685
v -0.726681068594 -0.208862149068 0.01137519
v -0.720120207018 -0.215711912876 0.0125387
v -0.71351575283 -0.20169006588 0.00953299
v -0.692608816979 -0.204268794369 0.00989658
v -0.678393809615 -0.198627771599 0.00929061
v -0.664966128767 -0.190810991835 0.00851494
v -0.645896211031 -0.192745081562 0.00984812
v -0.588030313849 -0.171712224346 0.01093888
v -0.536069134271 -0.157529188752 0.01282957
v -0.525878060338 -0.159624409262 0.01401731
v -0.505627210644 -0.160027322942 0.01595649
v -0.505627210644 0.403104295749 0.2497713
v -0.81914394756 -0.420157390299 0.2497713
v -0.798586908909 -0.231748443898 0.02940944
v -0.806241112512 -0.217323625408 0.02538568
v -0.797449743009 -0.210635050198 0.02017415
v -0.785552833503 -0.214180794643 0.01874402
v -0.774749497285 -0.420157390299 0.108188
v -0.797143554051 -0.198466640816 0.01665944
v -0.784940571218 -0.181704818919 0.01173881
v -0.765214509509 -0.191536282709 0.01106009
v -0.752617805603 -0.194437330578 0.01040563
v -0.73779059377 -0.191616819193 0.00892702
v -0.711416311815 -0.195162621453 0.00834525
v -0.679574799388 -0.189521598683 0.00786048
v -0.655868570306 -0.170986991286 0.00645459
v -0.639291699028 -0.178642582452 0.00819981
v -0.505627210644 -0.141009149752 0.01326588
v -0.505627210644 -0.152452326074 0.01476875
v -0.545210458789 -0.149792945472 0.01127824
v -0.827760426278 0.403104295749 0.2497713
v -0.505627210644 0.403104295749 0.06252068
v -0.822774275548 -0.412985249295 0.2497713
v -0.837164173696 -0.408230763813 0.19416574
v -0.830953267136 -0.420157390299 0.19418997
v -0.811008548584 -0.262693301389 0.04717705
v -0.811970881515 -0.226268609726 0.03113043
v -0.778204818857 -0.420157390299 0.10915759
v -0.783715873203 -0.420157390299 0.11073315
v -0.810833657799 -0.206847522857 0.02250117
v -0.811839698972 -0.198547235115 0.0201984
v -0.806284878569 -0.193470314622 0.0174351
v -0.802348361624 -0.182268921196 0.01452634
v -0.798237011709 -0.160027322942 0.01067227
v -0.786515050803 -0.165104243435 0.00979963
v -0.765914303909 -0.167924697004 0.00788471
v -0.75292399456 -0.184686518902 0.00899974
v -0.738796577127 -0.181382499538 0.00764233
v -0.720645110633 -0.17316274828 0.00599402
v -0.70406829717 -0.17461333003 0.0058001
v -0.70030678664 -0.187104058792 0.0073272
v -0.684036104318 -0.175177432307 0.00599402
v -0.682505275161 -0.162686645729 0.00475779
v -0.675113436643 -0.151968760281 0.00405484
v -0.645808736731 -0.159060306985 0.00575161
v -0.618559711776 -0.15978559786 0.00747263
v -0.594328636895 -0.158173885328 0.00887853
v -0.505627210644 -0.136818708731 0.01282957
v -0.517217873377 -0.129566031244 0.01132673
v -0.505627210644 -0.131016555178 0.01224783
v -0.562574598768 -0.143184964561 0.00950876
v -0.836201956396 0.384408384124 0.2497713
v -0.827847842763 0.403104295749 0.24948043
v -0.505627210644 0.200673444538 0.01903492
v -0.572415717686 0.218724601771 0.01617464
v -0.59590323211 0.217354672136 0.01377493
v -0.649482772961 0.22339855077 0.01059955
v -0.658798988264 0.238629254434 0.01338708
v -0.684954555561 0.239112704597 0.01190847
v -0.682286560503 0.253618117386 0.01600495
v -0.696851407252 0.25055588092 0.01508385
v -0.734378980439 0.254665727641 0.01687759
v -0.741683229027 0.255552207114 0.01779869
v -0.74041482277 0.403104295749 0.09020227
v -0.827804076705 -0.402589741043 0.2497713
v -0.84866736213 -0.383007465576 0.19612914
v -0.85514057596 -0.370355548216 0.19123274
v -0.853259907417 -0.374948902915 0.17649511
v -0.840750735627 -0.400978028511 0.18221563
v -0.831128273551 -0.420157390299 0.18345186
v -0.825136081648 -0.253264751278 0.04756486
v -0.790189144848 -0.420157390299 0.11289048
v -0.820674834533 -0.224898680091 0.03367561
v -0.820587302418 -0.213052590089 0.0285368
v -0.826229597121 -0.202495893239 0.02657342
v -0.827891608821 -0.189763381579 0.02267084
v -0.827541711621 -0.181221368756 0.0200772
v -0.827060631878 -0.169375278754 0.01758054
v -0.825223613763 -0.155272779644 0.01501113
v -0.81564485993 -0.147375405581 0.0122236
v -0.814726350872 -0.131338874559 0.01052684
v -0.804272911854 -0.127631941516 0.00880581
v -0.782359992645 -0.14955122039 0.00771505
v -0.766614156124 -0.141170338349 0.00563043
v -0.747063043015 -0.159140901284 0.00572738
v -0.725368896279 -0.157529188752 0.00468507
v -0.709448053343 -0.152371731775 0.00393367
v -0.688803540391 -0.14745599988 0.00354582
v -0.670039811612 -0.136657520133 0.00327918
v -0.651276025019 -0.141976165708 0.004273
v -0.628881968252 -0.149631814689 0.00599402
v -0.608368695658 -0.147697724962 0.00703633
v -0.505627210644 -0.120540452627 0.01147217
v -0.505627210644 -0.124327922153 0.01173881
v -0.553214559592 -0.133675877966 0.00933909
v -0.534450830813 -0.122393890241 0.00967842
v -0.590173520922 -0.133353558585 0.00701207
v -0.840750735627 0.37417406447 0.2497713
v -0.851160408587 0.379492710044 0.19578978
v -0.839875992627 0.403104295749 0.19571707
v -0.505627210644 0.199625834283 0.018841
v -0.534232116156 0.195435393262 0.01527777
v -0.541142817116 0.208570818601 0.01716846
v -0.575783564958 0.204541566178 0.0131447
v -0.601501760755 0.201156952516 0.01052684
v -0.632556004482 0.207684396943 0.00926638
v -0.659017702922 0.219611023429 0.00933909
v -0.671876829728 0.230248314578 0.01076922
v -0.687054054391 0.22307623139 0.00904822
v -0.693702274637 0.236856353304 0.01139945
v -0.699606934424 0.243303145617 0.01292652
v -0.737003267254 0.245881931921 0.0143809
v -0.7412022071 0.25015296724 0.01571408
v -0.752180549733 0.25015296724 0.01699877
v -0.758435106721 0.279324923601 0.03195459
v -0.745619745973 0.268526443854 0.02468273
v -0.752967760618 0.311800899325 0.04686192
v -0.745925877115 0.29455556945 0.03748122
v -0.753448955991 0.403104295749 0.09177783
v -0.830384655278 -0.397029370387 0.2497713
v -0.857852452705 -0.362538710637 0.19617763
v -0.843724919642 -0.36761563113 0.2497713
v -0.865331707708 -0.347066339706 0.18531829
v -0.865025518751 -0.34859745794 0.17552552
v -0.867562331266 -0.340700083877 0.19571707
v -0.851247940702 -0.37817232798 0.17215621
v -0.837732785554 -0.406457862683 0.17579216
v -0.867037485466 -0.343117623767 0.16575697
v -0.865025518751 -0.344245828321 0.151189
v -0.851597780087 -0.375593599491 0.16326028
v -0.831084565308 -0.419673882321 0.17598605
v -0.830822084593 -0.420157390299 0.17586488
v -0.836027007796 -0.251411313664 0.05105537
v -0.831084565308 -0.233682533626 0.041408
v -0.800773824224 -0.420157390299 0.11744753
v -0.835152206981 -0.20805632171 0.03226972
v -0.843068833484 -0.169697598134 0.02296171
v -0.842325273027 -0.193147995241 0.02989423
v -0.837951442396 -0.18694292801 0.0258947
v -0.841494238269 -0.163734255984 0.02102256
v -0.843506204984 -0.144151980517 0.01833194
v -0.831390696451 -0.138430421263 0.01442939
v -0.827672894163 -0.112159512771 0.01166606
v -0.809302770827 -0.110950771733 0.00868461
v -0.837251647996 -0.12247448454 0.01428396
v -0.789576824748 -0.123360906197 0.00679392
v -0.760315775263 -0.131902976836 0.00468507
v -0.748768820773 -0.146972491902 0.00490326
v -0.785377884903 -0.114093602499 0.00596976
v -0.740108691627 -0.140203322393 0.00400639
v -0.715265296645 -0.139800350899 0.00323072
v -0.694183412194 -0.123280311898 0.0024308
v -0.649963910519 -0.123441500496 0.00349736
v -0.677737723458 -0.117075244666 0.00252777
v -0.594722300152 -0.12247448454 0.00613946
v -0.610380604558 -0.130130133521 0.00572738
v -0.505627210644 -0.105793256941 0.01057529
v -0.511444396132 -0.103133934154 0.01006627
v -0.850373139887 0.350804261661 0.2497713
v -0.863188500636 0.352496568492 0.19537771
v -0.846217966099 0.391097017149 0.18541527
v -0.848798544672 0.38610074877 0.18013102
v -0.856846469348 0.368291316618 0.18497893
v -0.840225832011 0.403104295749 0.18497893
v -0.505627210644 0.18536220439 0.01624736
v -0.512494145547 0.186490408944 0.0157868
v -0.541667662916 0.180688255391 0.0124175
v -0.586543192934 0.1874574249 0.00987235
v -0.610468136673 0.189149731731 0.00844222
v -0.624114532179 0.186409814645 0.00723022
v -0.655518673106 0.19978702288 0.00701207
v -0.680537016688 0.209699023155 0.00720599
v -0.698513476767 0.211874837964 0.0073272
v -0.709535585458 0.230812416855 0.01040563
v -0.746669437573 0.246043062704 0.01508385
v -0.716446228603 0.232343535088 0.01093888
v -0.741289623585 0.241610896602 0.01367795
v -0.753536372476 0.246365439899 0.01602921
v -0.766089310324 0.244109030791 0.01789564
v -0.783715873203 0.250958794599 0.02383435
v -0.771512890369 0.261596085748 0.0260644
v -0.775842897127 0.282387160068 0.03663284
v -0.766701688239 0.299874215024 0.04332295
v -0.759134901121 0.330738478216 0.05718797
v -0.759047369006 0.403104295749 0.0926747
v -0.849235973987 -0.354963713769 0.2497713
v -0.877097261226 -0.31934490728 0.17676175
v -0.873117093854 -0.329095718956 0.17247134
v -0.873904420369 -0.324985872235 0.19375366
v -0.864544323378 -0.314670958281 0.2497713
v -0.836070658224 -0.407988980916 0.16769615
v -0.876310050341 -0.320714836915 0.16597512
v -0.884182968602 -0.299440254617 0.15489766
v -0.867343674423 -0.341022403257 0.15943044
v -0.843724919642 -0.387036775814 0.15048605
v -0.845824360657 -0.385344468983 0.15766096
v -0.876266284284 -0.317491411851 0.15041333
v -0.89507377912 -0.266561365214 0.12944612
v -0.883833013587 -0.29009235662 0.12319231
v -0.865856495693 -0.330626895005 0.12891284
v -0.858814670005 -0.350773272749 0.13943282
v -0.838213865296 -0.401864450168 0.1611757
v -0.828591461036 -0.420157390299 0.16175744
v -0.841581770384 -0.277198656363 0.06635052
v -0.84936715653 -0.238839990603 0.05202496
v -0.842850176642 -0.234810680365 0.04703158
v -0.808296845284 -0.420157390299 0.12142283
v -0.844512188342 -0.21716243681 0.04041421
v -0.850985517802 -0.198627771599 0.03614804
v -0.851422889302 -0.176305636861 0.02856106
v -0.860520505578 -0.153338747732 0.02710667
v -0.853828519275 -0.186781739412 0.03319082
v -0.858114875605 -0.137946913285 0.02293748
v -0.855971668533 -0.130774772282 0.02107102
v -0.852909952402 -0.124650299349 0.01922882
v -0.82010616486 -0.101280496541 0.01001778
v -0.833796268608 -0.115544126433 0.0131447
v -0.841975375827 -0.0904014803101 0.01409003
v -0.831259456093 -0.0985405794545 0.01212662
v -0.805322603454 -0.0952365600914 0.00786048
v -0.85242887266 -0.104584515904 0.01745933
v -0.848886018972 -0.0854857484149 0.0154717
v -0.760884387121 -0.117478158346 0.00417605
v -0.738796577127 -0.127793130114 0.00337616
v -0.78463438226 -0.100877582861 0.00567889
v -0.761584297151 -0.101119307943 0.00388518
v -0.726068690679 -0.121104554904 0.00269744
v -0.699169562924 -0.110064292261 0.00213993
v -0.656787079364 -0.104584515904 0.00296408
v -0.63251229624 -0.0958812566673 0.00373974
v -0.60010211414 -0.0947530521133 0.00497597
v -0.60377615037 -0.104906835284 0.00502443
v -0.683948572203 -0.0872585917296 0.00216419
v -0.673451424943 -0.0939472247548 0.0024308
v -0.561393608995 -0.103698036431 0.00718176
v -0.505627210644 -0.0996687840085 0.01030865
v -0.520279589507 -0.0982182600741 0.00936332
v -0.861307716463 0.323244017833 0.2497713
v -0.864631855493 0.351368363938 0.17627695
v -0.875479015584 0.325016918962 0.18068853
v -0.877403450184 0.316877762003 0.19397181
v -0.846524155057 0.390452378389 0.1725198
v -0.85269129556 0.377880997512 0.17550129
v -0.840138357711 0.403104295749 0.17901602
v -0.505627210644 0.168600382493 0.01382339
v -0.522116607622 0.175289015518 0.01333863
v -0.516211890019 0.163604114114 0.01246598
v -0.560125202737 0.16916448477 0.00982386
v -0.592360436237 0.172307315535 0.00790894
v -0.635311531655 0.170453877922 0.00536379
v -0.654425215449 0.187135047705 0.00570315
v -0.682505275161 0.197369425175 0.00567889
v -0.691690307921 0.20051225594 0.00596976
v -0.711634968658 0.195354798963 0.00565466
v -0.720295213433 0.20228515707 0.00655153
v -0.717277263361 0.213728275577 0.00798166
v -0.752749103776 0.241530302303 0.01472026
v -0.720907533533 0.221383924559 0.00938755
v -0.7447886534 0.213164231115 0.00933909
v -0.764602131594 0.21493707443 0.01130247
v -0.790101612733 0.224204378129 0.01644129
v -0.794781632321 0.232988231664 0.02022263
v -0.811402269657 0.232585317985 0.0240525
v -0.798018354866 0.248460660409 0.02662188
v -0.797274794409 0.298987793367 0.04967371
v -0.78419701076 0.313896119835 0.05377018
v -0.7753618752 0.308174502766 0.04897076
v -0.772343867312 0.403104295749 0.09519562
v -0.89052499989 -0.283564912193 0.17504072
v -0.885757563817 -0.296619801048 0.16961107
v -0.878496907841 -0.31507387196 0.18194899
v -0.882914562344 -0.300407328389 0.19222659
v -0.890568765947 -0.28235611334 0.18054309
v -0.88930035969 -0.281389097384 0.19552314
v -0.873423282811 -0.288883557767 0.2497713
v -0.890175044875 -0.283645506492 0.15109205
v -0.828591461036 -0.414919339023 0.14985582
v -0.838476346011 -0.398318705724 0.15368566
v -0.85155412966 -0.361894071876 0.13417283
v -0.903733966081 -0.245367377215 0.13330019
v -0.902246902981 -0.246979089747 0.12542233
v -0.899666324408 -0.250927805686 0.11882919
v -0.876047627441 -0.305081277387 0.12168944
v -0.891793406147 -0.266722553812 0.11516902
v -0.882958212772 -0.286868931556 0.11570227
v -0.868655846738 -0.322165418665 0.12474364
v -0.854528313675 -0.349806256792 0.12547082
v -0.825617219205 -0.420157390299 0.1502679
v -0.848623596072 -0.273008215343 0.06826544
v -0.847748795257 -0.258986368347 0.06084815
v -0.864063301451 -0.214503171838 0.05030394
v -0.858858378248 -0.214261388942 0.04700735
v -0.84892978503 -0.220063542494 0.04375926
v -0.85872713789 -0.249477281752 0.06276307
v -0.862182517278 -0.236502987196 0.05893323
v -0.811096080699 -0.420157390299 0.12345892
v -0.858071109548 -0.277923947238 0.07708865
v -0.856758937233 -0.265836132155 0.0696471
v -0.85776492059 -0.193470314622 0.03791752
v -0.863625872136 -0.177514377898 0.03595412
v -0.866556347908 -0.159705003561 0.03226972
v -0.875916387084 -0.135206996199 0.0320273
v -0.869705480523 -0.13689930303 0.02877921
v -0.863844528978 -0.1186063629 0.02301019
v -0.869399291566 -0.124327922153 0.02664614
v -0.871105127138 -0.0849216461379 0.02276778
v -0.825573453148 -0.0816176267748 0.01081771
v -0.826579436505 0.025319329177 0.01096314
v -0.851466597545 -0.0560720091574 0.01549593
v -0.821637051833 0.0455463012199 0.01035714
v -0.811664692557 0.110659441266 0.00921789
v -0.799592950081 0.122183154072 0.00769079
v -0.797537159493 -0.0903208860113 0.00696361
v -0.861832620078 -0.076460169798 0.01888946
v -0.752705337718 -0.110708988837 0.00349736
v -0.782928604503 0.120813166621 0.0059213
v -0.775930429242 -0.0921743236249 0.00495172
v -0.752311732276 0.114285780009 0.00378823
v -0.742033184042 0.131047544091 0.00330344
v -0.733547887867 -0.100958119345 0.00264895
v -0.767313950524 0.134754477133 0.00475779
v -0.716271280003 -0.0864527643711 0.00226113
v -0.70441819437 0.119120917605 0.00235808
v -0.687228945176 0.132739850922 0.00233385
v -0.653200517434 -0.077588374352 0.0028671
v -0.611955199773 -0.0796835948623 0.00432149
v -0.590129754864 -0.0778300994335 0.00533956
v -0.556145035365 -0.0700133196695 0.00691512
v -0.505627210644 -0.0799253199438 0.00975114
v -0.67174558937 0.110739977749 0.00262472
v -0.505627210644 -0.0875003746263 0.00994506
v -0.871979870138 0.291976840962 0.2497713
v -0.88807560386 0.285449396534 0.19583827
v -0.879371650841 0.316474848324 0.17203501
v -0.866775062566 0.34701673432 0.14828026
v -0.885582557402 0.303097640089 0.13720277
v -0.882914562344 0.303984061746 0.1845184
v -0.891530983247 0.281661869193 0.17770708
v -0.887288392975 0.290203939832 0.1897299
v -0.839963409111 0.403104295749 0.17094424
v -0.839744752269 0.403104295749 0.16355118
v -0.846567921114 0.388357100063 0.14859536
v -0.505627210644 0.163684708413 0.01329014
v -0.505627210644 0.153933838921 0.01234478
v -0.505627210644 0.151758024112 0.01215088
v -0.505627210644 0.150388094477 0.01202968
v -0.525265740238 0.142248937517 0.00999355
v -0.566336109298 0.151355110433 0.00803015
v -0.612173914431 0.159897181072 0.0059213
v -0.655431198806 0.162395315261 0.00386095
v -0.664441282967 0.171662676775 0.00415182
v -0.70135647824 0.176981322349 0.00390941
v -0.680449542388 0.169486861965 0.00366703
v -0.721038716076 0.180607661093 0.00463662
v -0.741464572185 0.192614881877 0.0065273
v -0.731754635809 0.205830901514 0.00749686
v -0.784940571218 0.220013937108 0.01462331
v -0.752967760618 0.20260747645 0.00836951
v -0.771731547212 0.205186204939 0.01045412
v -0.795918856036 0.214211783555 0.01513234
v -0.804229145796 0.222431534814 0.0189622
v -0.827454237321 0.220416908602 0.02533719
v -0.825573453148 0.235486365853 0.03033054
v -0.811183554999 0.24032150345 0.02732483
v -0.816213471787 0.218724601771 0.02087712
v -0.804316620096 0.25506864132 0.03156677
v -0.805060180554 0.268526443854 0.03779632
v -0.787433617675 0.323727525811 0.05939376
v -0.809958914799 0.288914604495 0.04875261
v -0.789751773348 0.403104295749 0.09951025
v -0.777330075857 0.403104295749 0.09638333
v -0.89437398472 -0.273249998239 0.16873842
v -0.897741774178 -0.263418592264 0.1521101
v -0.898310386035 -0.25842226607 0.17887056
v -0.895817339578 -0.260195109385 0.19520804
v -0.881646040457 -0.263337997965 0.2497713
v -0.841056924584 -0.383088059875 0.13679069
v -0.834408646524 -0.388809619129 0.12852502
v -0.819362662218 -0.420157390299 0.1358211
v -0.911475701799 -0.222561676684 0.13378498
v -0.910513426684 -0.223851069836 0.12651312
v -0.912525451214 -0.216759523131 0.1212289
v -0.904827481553 -0.234568955283 0.11482966
v -0.904127687153 -0.230539645046 0.10668516
v -0.899010180435 -0.239968195157 0.10268563
v -0.893105578463 -0.255198841006 0.10520655
v -0.889825147675 -0.254634738729 0.09808013
v -0.873904420369 -0.297264439808 0.108188
v -0.870317858438 -0.309835820685 0.11424792
v -0.859514464405 -0.333527942873 0.11771417
v -0.850110716987 -0.351659694406 0.11846557
v -0.872767196654 -0.197096653365 0.04943132
v -0.862357465878 -0.19959484537 0.04334718
v -0.865025518751 -0.223931664134 0.05522457
v -0.874910403726 -0.205799912602 0.0546186
v -0.863494689593 -0.248268482899 0.06547791
v -0.81494506553 -0.420157390299 0.12782207
v -0.811183554999 -0.419996201701 0.12343469
v -0.856452748275 -0.292671085109 0.08431205
v -0.868130885308 -0.269381876599 0.08077306
v -0.866643880023 -0.260920400259 0.07476166
v -0.875435249526 -0.172356920922 0.04215944
v -0.878409433541 -0.154869865965 0.03888711
v -0.875260243111 -0.150034728368 0.0352754
v -0.88685096366 -0.11433532758 0.03505725
v -0.881908578987 -0.115060618455 0.03200307
v -0.89096237139 -0.131983571135 0.04172313
v -0.879721605857 -0.104181544409 0.02904585
v -0.871586264696 -0.103375717051 0.02492511
v -0.885626265644 -0.080328233623 0.02955487
v -0.878190776699 -0.0755736903255 0.02553111
v -0.877797171257 -0.0582478239665 0.02424639
v -0.876747421841 -0.0349586154572 0.0228405
v -0.866906245108 -0.06187416271 0.02014992
v -0.842806410584 0.00654293888369 0.01348406
v -0.833796268608 -0.0286729539264 0.01205391
v -0.822949224148 0.0870478555608 0.01079345
v -0.861832620078 -0.0282700402472 0.01782292
v -0.86012684232 -0.0144899183328 0.0173139
v -0.860739104605 0.00815465141581 0.01733813
v -0.853303673475 0.00501182065044 0.01564136
v -0.827279288721 0.111948776602 0.01169032
v -0.81573233423 0.132417531542 0.01021171
v -0.806109929969 0.14805109107 0.00948453
v -0.796662416493 0.156834944605 0.00853917
v -0.789139395433 0.126776508772 0.00662425
v -0.7750994523 0.147084075113 0.00572738
v -0.74907500973 0.153047417264 0.00424877
v -0.735035066597 0.158204874241 0.00383669
v -0.71421554723 0.144424752326 0.00272167
v -0.723269455264 0.134512752052 0.00279438
v -0.704549376912 0.156190248029 0.00298831
v -0.683904863961 0.159413673093 0.00308526
v -0.666147060725 0.147325800195 0.00301254
v -0.6426595463 0.127501799646 0.00349736
v -0.633868118982 0.0926082840319 0.00369126
v -0.612523811631 -0.0145704548165 0.00424877
v -0.612917474889 -0.0319769732895 0.00424877
v -0.593541368195 -0.040035478135 0.00495172
v -0.546085259604 -0.0511562772622 0.0073272
v -0.521066858207 -0.0606654216723 0.00873309
v -0.505627210644 -0.0768630834773 0.00970268
v -0.880115211299 0.267478833599 0.2497713
v -0.895554916678 0.263046609682 0.19486868
v -0.882171001887 0.261193172069 0.2497713
v -0.890481233832 0.290526317027 0.14859536
v -0.894942538763 0.279566648683 0.14532301
v -0.900366118808 0.264174814236 0.14908016
v -0.855096925533 0.368855418895 0.14047509
v -0.863538455651 0.348709041151 0.13039145
v -0.878584439957 0.315910746047 0.12624648
v -0.881208784587 0.311962030108 0.13233063
v -0.888950404675 0.294072061472 0.1321367
v -0.898004312708 0.271185766642 0.12404069
v -0.899841273008 0.267156514219 0.13276693
v -0.911300695384 0.232101810007 0.1493468
v -0.893674132505 0.272958667772 0.18400937
v -0.839700986211 0.403104295749 0.1625331
v -0.838520054254 0.403104295749 0.14876503
v -0.837382830539 0.403104295749 0.14287484
v -0.836770568254 0.403104295749 0.13984489
v -0.836070658224 0.403104295749 0.13671798
v -0.857939927005 0.361925060788 0.13664526
v -0.505627210644 0.134270969155 0.01089042
v -0.505627210644 0.126776508772 0.01050258
v -0.52767137021 0.135157390813 0.00950876
v -0.59231667018 0.136124464584 0.00596976
v -0.59651555221 0.155384362856 0.00655153
v -0.626257681437 0.136205001068 0.00432149
v -0.707698567343 0.168761571091 0.0034731
v -0.73884028537 0.175208421219 0.004879
v -0.755242150233 0.181252357668 0.00630915
v -0.772475107669 0.183911622641 0.00805438
v -0.791457551106 0.20018993656 0.01227206
v -0.781660082615 0.18608743745 0.00921789
v -0.802523368039 0.205589176433 0.01476875
v -0.81477011693 0.208329093519 0.0179199
v -0.830953267136 0.208490224302 0.02264661
v -0.843025125242 0.215420582408 0.03011239
v -0.840706969569 0.230167720279 0.03471792
v -0.827541711621 0.245881931921 0.03568748
v -0.815951048887 0.249911184344 0.03319082
v -0.826492020021 0.202688070749 0.0197621
v -0.82308040669 0.282064840687 0.05023122
v -0.821155914275 0.311720305026 0.06397504
v -0.803704299996 0.403104295749 0.10426122
v -0.907932905926 -0.230297919964 0.16951412
v -0.905177320938 -0.241418719091 0.15518853
v -0.904302577938 -0.236422392897 0.18488199
v -0.905702224553 -0.225946290346 0.19557163
v -0.88475158046 -0.251491907963 0.2497713
v -0.833008999908 -0.385102686086 0.12207729
v -0.81713192303 -0.420157390299 0.13092473
v -0.910644667041 -0.22497927439 0.14001456
v -0.914799840829 -0.212166168431 0.13727549
v -0.916549326829 -0.206364014879 0.13150647
v -0.918605059602 -0.197983132838 0.12071988
v -0.918561293544 -0.193792634002 0.11075741
v -0.913925040014 -0.204671708048 0.10656396
v -0.910294712026 -0.208620366172 0.10043135
v -0.904477526538 -0.209265062748 0.08867517
v -0.899972513366 -0.230056137067 0.09655303
v -0.895423734135 -0.236341798598 0.0934746
v -0.890656182432 -0.236341798598 0.08620274
v -0.880902595629 -0.265674943557 0.09277165
v -0.873292042454 -0.290414733816 0.10140094
v -0.863013552036 -0.314832089064 0.10637003
v -0.860170550563 -0.327886977919 0.11332679
v -0.851729020445 -0.33659017934 0.10845464
v -0.881165018529 -0.173001617497 0.04671648
v -0.876791072269 -0.21933825162 0.06230253
v -0.888031953432 -0.197741349941 0.06252068
v -0.889519016532 -0.174371547133 0.05408531
v -0.871236425311 -0.241579907689 0.06843513
v -0.816344712145 -0.420157390299 0.12964001
v -0.836901750796 -0.368018544809 0.11434487
v -0.85391593576 -0.309029935511 0.09228685
v -0.880290217714 -0.252458923919 0.08368182
v -0.883089453129 -0.233601939327 0.07553732
v -0.868874503581 -0.283645506492 0.09061432
v -0.876353816399 -0.265755537856 0.0874632
v -0.883789247529 -0.156481578497 0.04339567
v -0.890393759532 -0.120459858328 0.03886288
v -0.897741774178 -0.109822567179 0.04215944
v -0.894155327878 -0.0978152885797 0.03728729
v -0.892493200547 -0.0833099336058 0.03406343
v -0.893717898563 -0.150921150026 0.04967371
v -0.907889139869 -0.132144759732 0.05682439
v -0.904652475138 -0.11578590933 0.04931012
v -0.893805372863 -0.0579255045862 0.0325121
v -0.887069620502 -0.0528485840932 0.02846408
v -0.884401625444 -0.0289952733068 0.02608863
v -0.874473032226 -0.0165851388431 0.02162853
v -0.886894729717 -0.000870927201059 0.02664614
v -0.847092766914 0.0532019502013 0.01467177
v -0.844381005799 0.0932529227926 0.0145506
v -0.870230441954 -0.00151562377694 0.0200772
v -0.854965685175 0.0532825445002 0.01632008
v -0.867693513808 0.0124256867352 0.01939851
v -0.868524606381 0.038777131711 0.01983482
v -0.836901750796 0.12089376092 0.01387188
v -0.827847842763 0.141765429539 0.01275685
v -0.820543594175 0.147003480815 0.01164183
v -0.787171194775 0.169567456264 0.00827253
v -0.777330075857 0.158043685643 0.00650305
v -0.803529351396 0.167875149433 0.01038137
v -0.74933754826 0.174483130344 0.00541228
v -0.59861505104 0.108322437859 0.00497597
v -0.600058405898 0.0579564934988 0.00483054
v -0.581644516504 0.00686525826406 0.00553346
v -0.548753254662 -0.0155375285879 0.00710905
v -0.505627210644 -0.0443065134544 0.00950876
v -0.904040155038 0.234519349897 0.19489294
v -0.882345950487 0.260629069792 0.2497713
v -0.898179203493 0.271024578044 0.14095989
v -0.908457693911 0.243544928514 0.12753117
v -0.911344461441 0.234519349897 0.13763908
v -0.835939475681 0.403104295749 0.13618469
v -0.845255748799 0.382716135108 0.1298582
v -0.84814251633 0.373851745089 0.1239922
v -0.863582106078 0.342342785321 0.12016237
v -0.874560448711 0.32203521898 0.12200457
v -0.887944421317 0.293507959195 0.12176216
v -0.89341176742 0.279486054384 0.11793232
v -0.905308561296 0.245640149024 0.11046654
v -0.909551151569 0.236695164706 0.11439335
v -0.909638683684 0.239032168113 0.1206229
v -0.905964647453 0.249669401447 0.12406492
v -0.915980714972 0.220578039385 0.13257301
v -0.920660676744 0.200915169619 0.14214763
v -0.923416261732 0.18786033858 0.14932254
v -0.505627210644 0.121296732415 0.01026016
v -0.562180993325 0.120168527861 0.00708479
v -0.806459769354 0.186812728324 0.01273263
v -0.821637051833 0.18818265796 0.01595649
v -0.840007175169 0.194871290985 0.02257389
v -0.846261732157 0.201640460494 0.02720362
v -0.85444089719 0.206233815194 0.03292418
v -0.85181655256 0.21920810975 0.03614804
v -0.854659496217 0.231215330534 0.04271695
v -0.841756661169 0.24805774673 0.04291087
v -0.832571628408 0.274409191706 0.05047363
v -0.831521878993 0.18786033858 0.01842892
v -0.835327155581 0.303500553768 0.06608391
v -0.811008548584 0.403104295749 0.10724267
v -0.804141729312 0.403104295749 0.10443088
v -0.907451710553 -0.228041510856 0.17792523
v -0.915062263729 -0.197580219159 0.18017951
v -0.923066364532 -0.179851381305 0.15080115
v -0.919785933744 -0.195162621453 0.14175981
v -0.915805708556 -0.186137042836 0.19275984
v -0.909463677269 -0.213294372985 0.19210538
v -0.892668149147 -0.219660628815 0.2497713
v -0.845911834957 -0.351256780727 0.11238146
v -0.924728434047 -0.178561988153 0.12971273
v -0.922322804075 -0.183558314348 0.11456302
v -0.922366512317 -0.177192058518 0.10472175
v -0.917380419402 -0.187909886151 0.09921938
v -0.910994506426 -0.200158889832 0.09490472
v -0.918298870644 -0.175902665366 0.09141424
v -0.914362411514 -0.180093106387 0.08688143
v -0.904827481553 -0.199675439669 0.0830031
v -0.89472388192 -0.218693612859 0.08091849
v -0.891443508947 -0.21264967641 0.07347697
v -0.883658064987 -0.240048789456 0.0801186
v -0.870492807038 -0.285337813323 0.09388667
v -0.86213875122 -0.303550159154 0.09686813
v -0.888687981775 -0.168488799281 0.05141896
v -0.884270385087 -0.220788833369 0.07008341
v -0.895904756063 -0.193067400943 0.06862906
v -0.899666324408 -0.177514377898 0.06516278
v -0.900541125223 -0.159543814963 0.05912715
v -0.905089904453 -0.0953171543903 0.04535908
v -0.903733966081 -0.0754125595429 0.04121411
v -0.90075972425 -0.0612294661341 0.03755394
v -0.916024481029 -0.0847604575401 0.05287334
v -0.911431935741 -0.139961539496 0.0638296
v -0.915937006729 -0.136657520133 0.0678049
v -0.918648710029 -0.114899429857 0.0641205
v -0.925778067832 -0.0868556780504 0.06404778
v -0.89384913892 -0.0274641550735 0.03076684
v -0.901109679266 -0.0343139188813 0.03551781
v -0.873335808511 0.0231435721831 0.02116799
v -0.881952229414 0.0153267346039 0.02458575
v -0.886894729717 0.0340225884135 0.02691275
v -0.89647336792 -0.00578665909631 0.03190613
v -0.90005992985 0.0174219551142 0.03362712
v -0.852997484517 0.0895459897503 0.01653823
v -0.848973551087 0.127098885967 0.01699877
v -0.870317858438 0.064000429948 0.02078015
v -0.840706969569 0.142329531816 0.0157868
v -0.838913659696 0.155706740051 0.01612616
v -0.821812000433 0.161267110707 0.01290229
v -0.55352074855 0.105179607093 0.00718176
v -0.573246752443 0.0862420282023 0.00609097
v -0.553127085292 0.033216761055 0.00691512
v -0.513281414247 0.0664985641375 0.00904822
v -0.515774518519 0.0110556992846 0.00890276
v -0.505627210644 0.0420005567753 0.00948453
v -0.911519467856 0.204944479857 0.19426268
v -0.89069994849 0.228636602046 0.2497713
v -0.916111897514 0.219691617728 0.1181747
v -0.918298870644 0.213405956197 0.12413764
v -0.833621377824 0.403104295749 0.13005209
v -0.833271422808 0.403104295749 0.12915522
v -0.841887959342 0.377236300936 0.11640522
v -0.85374098716 0.350320753683 0.10932726
v -0.858639721405 0.345163296706 0.11327833
v -0.866337691066 0.330819072515 0.11286625
v -0.878540673899 0.303097640089 0.10692754
v -0.880071560872 0.304467569724 0.11228451
v -0.881995995472 0.303500553768 0.11730209
v -0.897260694435 0.266270034746 0.11158156
v -0.90102214715 0.252570507131 0.10559437
v -0.906839448269 0.235889337348 0.10280684
v -0.916549326829 0.210263125432 0.10409153
v -0.920966865702 0.203896869602 0.12828261
v -0.92800880702 0.17762596111 0.13063386
v -0.929102206862 0.169406267667 0.13957825
v -0.926215554962 0.178512440582 0.14503214
v -0.92844617852 0.164893449451 0.14924982
v -0.505627210644 0.106791319625 0.00992084
v -0.831871834008 0.165457551728 0.01535049
v -0.838869951454 0.177545366811 0.01898643
v -0.848448705287 0.168036338031 0.0206832
v -0.849060967572 0.182702881603 0.02364042
v -0.854265890775 0.195354798963 0.029264
v -0.86021431662 0.19801412175 0.0335544
v -0.864719329793 0.205266799237 0.03898406
v -0.863538455651 0.216145873283 0.0421837
v -0.852822535917 0.252167593452 0.05074024
v -0.862707363078 0.243303145617 0.0530915
v -0.845168332314 0.259259140156 0.04974642
v -0.845999309257 0.278760821324 0.05941802
v -0.85006695093 0.287302834148 0.06598693
v -0.837820202039 0.313896119835 0.07282248
v -0.815251254487 0.403104295749 0.10966662
v -0.921623009675 -0.174290952834 0.17176837
v -0.93378222645 -0.135368184797 0.14134774
v -0.931376596478 -0.147697724962 0.13841474
v -0.92372245069 -0.179367873327 0.14408681
v -0.920092122702 -0.166957681048 0.19031164
v -0.899841273008 -0.188876959922 0.2497713
v -0.919217321887 -0.16679649245 0.19552314
v -0.931988974393 -0.1471336805 0.13228214
v -0.931157939635 -0.152210543178 0.12408915
v -0.929452161878 -0.158254479627 0.11672035
v -0.929058556435 -0.156803897877 0.11041805
v -0.929189681162 -0.151888223797 0.10348552
v -0.922322804075 -0.168327668499 0.09611672
v -0.930501853478 -0.126987302756 0.08496651
v -0.918823716444 -0.154386357987 0.07994893
v -0.908107854526 -0.181543688136 0.0776704
v -0.901415868223 -0.186217637135 0.07144085
v -0.899316369393 -0.202576487538 0.07742801
v -0.906795682211 -0.167763566222 0.0695259
v -0.912306678741 -0.0752513709451 0.04848596
v -0.916680509372 -0.0558302840759 0.04974642
v -0.909507443326 -0.0522038875173 0.04320174
v -0.920923215275 -0.0526068590117 0.05343086
v -0.930589385593 -0.0623576706881 0.06547791
v -0.92372245069 -0.0987823623511 0.06528398
v -0.914274879399 -0.155111591046 0.07337999
v -0.933126198108 -0.1140130082 0.08290616
v -0.932863775208 -0.103859225029 0.07873696
v -0.935750427108 -0.0891120871584 0.0783976
v -0.903733966081 -0.00449726594456 0.03614804
v -0.906489493253 -0.0370538359674 0.03971124
v -0.905789698853 -0.0231125254553 0.03811145
v -0.877053610799 0.0521543399462 0.0231314
v -0.89411156182 0.0409529465202 0.03091228
v -0.888994170732 0.0556194900919 0.02863377
v -0.879896612272 0.0669820721156 0.02492511
v -0.908720116811 0.00299719443907 0.0397355
v -0.906533259311 0.0466745057739 0.03891134
v -0.900584891281 0.0351507929675 0.03454822
v -0.86213875122 0.0862420282023 0.01901066
v -0.861307716463 0.107758335582 0.01964089
v -0.862751129136 0.132417531542 0.02189517
v -0.851641546145 0.146358784239 0.01930153
v -0.871280075738 0.0958317090961 0.02257389
v -0.505627210644 0.0830991974369 0.00953299
v -0.513237648189 0.0793116700956 0.00909668
v -0.534800728013 0.0607770048838 0.00790894
v -0.505627210644 0.0776193632646 0.00950876
v -0.505627210644 0.0649674459043 0.00948453
v -0.916680509372 0.190841980747 0.18274891
v -0.918648710029 0.174644318942 0.19079643
v -0.921885432575 0.155464957154 0.19530499
v -0.898616574993 0.194710102387 0.2497713
v -0.92319760489 0.196241220621 0.11924127
v -0.920485785959 0.200109342261 0.10738811
v -0.927877566662 0.176981322349 0.10954544
v -0.831696827593 0.403104295749 0.12639192
v -0.828766409636 0.403104295749 0.12147129
v -0.834058749324 0.390613509171 0.11764145
v -0.835021024439 0.383280237385 0.11257538
v -0.829378787551 0.403104295749 0.12236816
v -0.854484547617 0.34105339217 0.10309771
v -0.861132767863 0.322438132659 0.09689239
v -0.879284234357 0.288753415897 0.09529257
v -0.874079368969 0.30543458568 0.10164332
v -0.888994170732 0.274812105385 0.10033441
v -0.89262438309 0.269896431305 0.10319465
v -0.890568765947 0.277793805368 0.10748506
v -0.897785540235 0.254665727641 0.09871036
v -0.900409884866 0.24241672396 0.09308678
v -0.913268896041 0.213728275577 0.0972802
v -0.924378479032 0.178109469088 0.0963591
v -0.926652868647 0.175450146301 0.10106158
v -0.929277213278 0.173757897285 0.12534961
v -0.934569552965 0.146117059157 0.13654831
v -0.856846469348 0.162072995881 0.02322835
v -0.861657671478 0.17480550754 0.02768844
v -0.876003861384 0.180285283897 0.03840232
v -0.875041644084 0.1966441343 0.04303208
v -0.868349657781 0.227588991791 0.05044937
v -0.857152542675 0.267881747279 0.06072694
v -0.851422889302 0.263771900557 0.0552488
v -0.865944027808 0.251522896876 0.05895746
v -0.85181655256 0.299390707046 0.07374358
v -0.842543987684 0.323244017833 0.08108819
v -0.818925290718 0.403104295749 0.11184818
v -0.923503678217 -0.155192185345 0.18388817
v -0.92704658972 -0.151727035199 0.16532066
v -0.93185779185 -0.133272964286 0.15703073
v -0.936493987565 -0.112643020749 0.15024364
v -0.938987149653 -0.105954445539 0.14079022
v -0.941261539268 -0.0987017680523 0.13191855
v -0.936493987565 -0.126020228984 0.13056111
v -0.936843942581 -0.126423142664 0.12467092
v -0.905352327353 -0.161639035474 0.2497713
v -0.92512203949 -0.132628267711 0.1954262
v -0.925515644932 -0.13867220416 0.18829978
v -0.935138164823 -0.135448779096 0.11921701
v -0.935969199581 -0.127229027837 0.10964239
v -0.941655144711 -0.0933831224778 0.09497744
v -0.935794193165 -0.11433532758 0.09025073
v -0.921535477559 -0.0205337969669 0.05093417
v -0.914012514314 -0.0269806470954 0.04460764
v -0.927134006205 -0.0435006860959 0.05946648
v -0.938374771738 -0.0643723547147 0.07706442
v -0.940474212753 -0.0573614023092 0.07885814
v -0.942092574026 -0.03616741431 0.07813096
v -0.943360922468 -0.021581407222 0.07791281
v -0.931245413935 -0.0240795414115 0.06261763
v -0.940474212753 -0.0917714099456 0.09134153
v -0.939336989038 -0.0696104059903 0.07990044
v -0.915762058129 -0.0109441160731 0.0452621
v -0.893761606805 0.0798757723726 0.03268176
v -0.899228952908 0.0586817843735 0.03486335
v -0.881821046872 0.0843885327735 0.0266946
v -0.912919056656 0.0132315140937 0.04300782
v -0.913225245614 0.0357954895434 0.04388046
v -0.915849474614 0.0461104034969 0.04640138
v -0.906183304296 0.0669820721156 0.04009908
v -0.880202685599 0.109853556092 0.02800354
v -0.870886470296 0.137655582817 0.02659765
v -0.925690651347 0.130886413308 0.19528076
v -0.907801665569 0.147164669412 0.2497713
v -0.93351980355 0.143699461451 0.14471704
v -0.933476037493 0.138380815877 0.15029213
v -0.938768377181 0.117912118753 0.1405963
v -0.938943383596 0.104937824197 0.14973462
v -0.928139989562 0.176981322349 0.11393279
v -0.93369475215 0.152725040068 0.11184818
v -0.933344912765 0.156270842328 0.11749601
v -0.93395717505 0.141523646642 0.09034771
v -0.936756526096 0.132498068025 0.09374124
v -0.940999116368 0.116058623324 0.0978862
v -0.825967116405 0.403104295749 0.11783537
v -0.842237798727 0.363214396125 0.1059095
v -0.823911441448 0.403104295749 0.11582348
v -0.845343223099 0.345727398983 0.09706205
v -0.863363449236 0.309463895918 0.09032345
v -0.872373591211 0.290768042109 0.08760864
v -0.854571964102 0.31566896315 0.08559674
v -0.893324235305 0.259017357259 0.09425026
v -0.892405726247 0.248138283214 0.08431205
v -0.905702224553 0.223882058748 0.08918419
v -0.915587051714 0.199625834283 0.09068704
v -0.936668993981 0.140637224985 0.12212577
v -0.938943383596 0.128388221304 0.12469515
v -0.938899617538 0.12653478369 0.12954307
v -0.88475158046 0.134432157753 0.03348169
v -0.878409433541 0.152886228666 0.03331202
v -0.877403450184 0.167311047156 0.03585717
v -0.889169119332 0.160058311854 0.0424988
v -0.88947530829 0.176578350855 0.04758912
v -0.885013945544 0.190197284171 0.04882532
v -0.882608373387 0.201237546815 0.05081296
v -0.878978045399 0.227830774687 0.05917561
v -0.864763095851 0.265705932469 0.06525975
v -0.864763095851 0.278035530449 0.07182866
v -0.870973886781 0.249508270664 0.06230253
v -0.858071109548 0.301727710453 0.07982773
v -0.846786577957 0.330899666814 0.0886994
v -0.820762251018 0.403104295749 0.11322984
v -0.93037061312 -0.128679551772 0.17065337
v -0.940255555911 -0.0841963552631 0.15004975
v -0.940299206338 -0.0916908156468 0.14408681
v -0.932207746865 -0.11224010707 0.17433777
v -0.935400587723 -0.0955589372869 0.1694414
v -0.941348955753 -0.0920131350271 0.13754213
v -0.950271565614 -0.0422112929442 0.11075741
v -0.947297439414 -0.0642917604158 0.10896367
v -0.940780401711 -0.104342733007 0.12137434
v -0.911869307241 -0.116027634411 0.2497713
v -0.928139989562 -0.109983755777 0.19627458
v -0.930501853478 -0.0970094612213 0.19368094
v -0.937849925938 -0.120137481133 0.11584771
v -0.944673094784 -0.0796835948623 0.09854066
v -0.923984815775 0.00323891952056 0.05238855
v -0.92993324162 0.00203012066768 0.05927259
v -0.942617362011 -0.041163682689 0.07990044
v -0.943842117841 0.036520722603 0.07987621
v -0.935356821665 0.0231435721831 0.06671411
v -0.934875741923 -0.00240204543431 0.06547791
v -0.948871976814 -0.0504310442025 0.10637003
v -0.951058892129 0.0130703833111 0.10016471
v -0.948871976814 0.0206453801784 0.09085673
v -0.92249781049 0.0207259744773 0.05105537
v -0.916593035072 0.0188725368637 0.04606202
v -0.886194819687 0.112996386857 0.03161523
v -0.896123528535 0.0927694148145 0.03549355
v -0.923153838832 0.0406306271398 0.05234006
v -0.917817675272 0.0621469345193 0.04928589
v -0.90014740415 0.100586194578 0.03910527
v -0.911519467856 0.0715754268154 0.04487428
v -0.912787874114 0.0822933122633 0.04705584
v -0.933825992508 0.096959855835 0.17773131
v -0.931157939635 0.0922859068364 0.19210538
v -0.928139989562 0.108564220755 0.19642001
v -0.910425952384 0.127985307625 0.2497713
v -0.941742619011 0.104212591137 0.13499698
v -0.939993133011 0.103567894561 0.14508063
v -0.942923550968 0.0876119578378 0.14023271
v -0.937412554438 0.136849697644 0.11499932
v -0.937806159881 0.125487173435 0.09148696
v -0.929714584778 0.151758024112 0.08751166
v -0.929845825135 0.144021838647 0.08217895
v -0.934788209808 0.118637351812 0.08026403
v -0.942792368426 0.103003792284 0.09589857
v -0.949265697886 0.068996698327 0.11049077
v -0.945329180941 0.0920441817549 0.10564286
v -0.823517836005 0.398994391212 0.11281776
v -0.869749246581 0.278196719047 0.0768705
v -0.874954111969 0.277471428172 0.08220321
v -0.886019986717 0.250394692322 0.07776737
v -0.89454893332 0.224204378129 0.0731861
v -0.900409884866 0.220658633684 0.07914901
v -0.910513426684 0.204863885558 0.08479685
v -0.917642842302 0.186651539727 0.08632392
v -0.901153445323 0.114930476585 0.04220793
v -0.900584891281 0.140314905605 0.04664376
v -0.909201312184 0.145633551179 0.05568513
v -0.89647336792 0.178109469088 0.0544489
v -0.888644215717 0.202688070749 0.05675167
v -0.891093553932 0.212600071023 0.06353873
v -0.881427383614 0.246526628497 0.07042277
v -0.943011083083 -0.0645334854973 0.14621988
v -0.945154174526 -0.0576837216895 0.13826931
v -0.937018948996 -0.0758154732221 0.17278644
v -0.951190132486 -0.0260136311392 0.11495084
v -0.950752703171 -0.0337498166043 0.11179972
v -0.915106029787 -0.0860498506919 0.2497713
v -0.93255758625 -0.0683210128385 0.19530499
v -0.928927258262 0.0307185690504 0.05827874
v -0.942048807968 0.0708501937558 0.07994893
v -0.942529945526 0.0540883718587 0.07900357
v -0.93299495775 0.0439345886878 0.06426594
v -0.950796469229 0.0217735847324 0.09839523
v -0.952196115844 -0.00288555341243 0.11895037
v -0.952458538744 0.0136344277729 0.11793232
v -0.92774638412 0.0461909977958 0.05767277
v -0.920835683159 0.0744765324993 0.05386716
v -0.92249781049 0.090271280625 0.05752733
v -0.911606884341 0.10155326835 0.04875261
v -0.907626716969 0.11597808684 0.04758912
v -0.918036447744 0.11001474469 0.05600023
v -0.942792368426 0.0738318359234 0.14755306
v -0.943142207811 0.0652091709858 0.14983159
v -0.932513820193 0.0698025835007 0.19595945
v -0.915062263729 0.0899489612446 0.2497713
v -0.944541912241 0.0848720407516 0.13184583
v -0.950709052744 0.0521543399462 0.11553261
v -0.946028975341 0.0656121424802 0.1344637
v -0.944191957226 0.0685131903489 0.14297178
v -0.939555761511 0.0882566544136 0.07924598
v -0.911169512841 0.19414600011 0.07946414
v -0.913750091414 0.173516114388 0.07260433
v -0.919129847587 0.138944918154 0.06477496
v -0.924466011147 0.116542131302 0.06545365
v -0.937499970923 0.0951870125203 0.07776737
v -0.950315331671 0.0352313872664 0.10067374
v -0.950883943529 0.0482056240072 0.11434487
v -0.889956388032 0.224687943922 0.06824121
v -0.899972513366 0.202768665048 0.06862906
v -0.906751916153 0.197288830876 0.07459199
v -0.913925040014 0.140314905605 0.05919987
v -0.908676466384 0.170856791601 0.06499311
v -0.90128457005 0.175772523496 0.05844843
v -0.898747757535 0.194951885284 0.06368417
v -0.944279431526 -0.0389878678799 0.14968616
v -0.947122490814 -0.0425336701397 0.13339716
v -0.951321315029 -0.0195667810107 0.11827168
v -0.940036783438 -0.0362480086089 0.17125934
v -0.934394604365 -0.0453541237095 0.19523227
v -0.916155663572 -0.0733173390326 0.2497713
v -0.927527611647 0.0901906863261 0.06332058
v -0.940824167768 0.0652897652846 0.07750073
v -0.928139989562 0.0704472222614 0.06145415
v -0.946335164299 -0.0352809348375 0.14003879
v -0.946510112899 -0.0162627616475 0.1438444
v -0.935794193165 0.00178839558619 0.19474748
v -0.946553878956 0.0108945685019 0.1459775
v -0.951889926886 0.0276563325839 0.12055019
v -0.945197940584 0.0444180966659 0.14685011
v -0.934657027265 0.0431287613293 0.19491717
v -0.919042431102 0.0485280012027 0.2497713
v -0.918692476087 0.0529601673047 0.2497713
v -0.951321315029 0.0395024225858 0.11771417
v -0.906402076769 0.187215642004 0.06928352
v -0.913225245614 0.165457551728 0.06833819
v -0.917555310187 -0.054621485223 0.2497713
v -0.919086197159 -0.027222429992 0.2497713
v -0.919960997975 -0.00901008416056 0.2497713
v -0.920048414459 -0.00618957277556 0.2497713
v -0.920310837359 0.0171802300327 0.2497713
v -0.920310837359 0.0178249266086 0.2497713
v -0.939818126596 0.0240299938404 0.17528313
v -0.945416713056 0.0294292337138 0.14961341
f 1 2 3
f 1 3 4
f 1 4 5
f 1 5 6
f 1 6 7
f 1 7 8
f 1 8 9
f 1 9 10
f 1 10 11
f 1 11 12
f 1 12 13
f 1 13 14
f 1 14 15
f 1 15 16
f 1 16 36
f 1 36 54
f 1 54 53
f 1 53 83
f 1 83 85
f 1 85 129
f 1 129 128
f 1 128 192
f 1 192 271
f 1 271 366
f 1 366 364
f 1 364 477
f 1 477 587
f 1 587 674
f 1 674 761
f 1 761 760
f 1 760 757
f 1 757 697
f 1 697 607
f 1 607 500
f 1 500 499
f 1 499 381
f 1 381 380
f 1 380 379
f 1 379 378
f 1 378 280
f 1 280 200
f 1 200 136
f 1 136 89
f 1 89 57
f 1 57 37
f 1 37 17
f 1 17 38
f 1 38 60
f 1 60 105
f 1 105 167
f 1 167 238
f 1 238 323
f 1 323 414
f 1 414 528
f 1 528 550
f 1 550 432
f 1 432 331
f 1 331 242
f 1 242 170
f 1 170 107
f 1 107 64
f 1 64 63
f 1 63 43
f 1 43 23
f 1 23 22
f 1 22 21
f 1 21 18
f 1 18 2
f 2 18 3
f 3 19 20
f 3 20 4
f 3 18 21
f 3 21 22
f 3 22 23
f 3 23 19
f 4 20 5
f 5 20 24
f 5 24 25
f 5 25 26
f 5 26 27
f 5 27 6
f 6 27 7
f 7 27 8
f 8 27 28
f 8 28 29
f 8 29 10
f 8 10 9
f 10 12 11
f 10 29 30
f 10 30 31
f 10 31 32
f 10 32 12
f 12 32 13
f 13 32 14
f 14 32 33
f 14 33 34
f 14 34 35
f 14 35 15
f 15 35 36
f 15 36 16
f 17 37 56
f 17 56 87
f 17 87 133
f 17 133 194
f 17 194 273
f 17 273 367
f 17 367 478
f 17 478 480
f 17 480 589
f 17 589 676
f 17 676 765
f 17 765 835
f 17 835 909
f 17 909 959
f 17 959 996
f 17 996 995
f 17 995 1005
f 17 1005 1004
f 17 1004 1003
f 17 1003 1002
f 17 1002 1001
f 17 1001 1000
f 17 1000 984
f 17 984 941
f 17 941 883
f 17 883 807
f 17 807 718
f 17 718 628
f 17 628 526
f 17 526 411
f 17 411 310
f 17 310 225
f 17 225 221
f 17 221 157
f 17 157 155
f 17 155 100
f 17 100 58
f 17 58 38
f 19 39 40
f 19 40 41
f 19 41 42
f 19 42 20
f 19 23 43
f 19 43 39
f 20 42 24
f 24 42 44
f 24 44 45
f 24 45 46
f 24 46 25
f 25 46 47
f 25 47 48
f 25 48 26
f 26 48 28
f 26 28 27
f 28 48 49
f 28 49 29
f 29 49 50
f 29 50 30
f 30 50 31
f 31 50 51
f 31 51 52
f 31 52 32
f 32 52 33
f 33 52 34
f 34 53 54
f 34 54 35
f 34 52 55
f 34 55 53
f 35 54 36
f 37 57 99
f 37 99 154
f 37 154 220
f 37 220 303
f 37 303 406
f 37 406 405
f 37 405 521
f 37 521 621
f 37 621 620
f 37 620 712
f 37 712 798
f 37 798 873
f 37 873 848
f 37 848 846
f 37 846 770
f 37 770 773
f 37 773 769
f 37 769 680
f 37 680 679
f 37 679 593
f 37 593 497
f 37 497 496
f 37 496 495
f 37 495 494
f 37 494 493
f 37 493 376
f 37 376 375
f 37 375 279
f 37 279 199
f 37 199 135
f 37 135 88
f 37 88 56
f 38 58 59
f 38 59 60
f 39 61 62
f 39 62 40
f 39 43 63
f 39 63 64
f 39 64 61
f 40 65 41
f 40 62 65
f 41 65 66
f 41 66 44
f 41 44 42
f 44 66 67
f 44 67 68
f 44 68 45
f 45 69 70
f 45 70 71
f 45 71 46
f 45 68 69
f 46 71 72
f 46 72 47
f 47 72 48
f 48 72 73
f 48 73 49
f 49 73 74
f 49 74 75
f 49 75 76
f 49 76 50
f 50 76 77
f 50 77 51
f 51 77 78
f 51 78 79
f 51 79 80
f 51 80 52
f 52 81 82
f 52 82 55
f 52 80 81
f 53 55 83
f 55 84 85
f 55 85 83
f 55 82 86
f 55 86 84
f 56 88 87
f 57 89 90
f 57 90 91
f 57 91 92
f 57 92 93
f 57 93 94
f 57 94 95
f 57 95 96
f 57 96 97
f 57 97 98
f 57 98 99
f 58 100 59
f 59 101 102
f 59 102 103
f 59 103 104
f 59 104 105
f 59 105 60
f 59 100 101
f 61 106 62
f 61 64 107
f 61 107 106
f 62 108 109
f 62 109 65
f 62 106 108
f 65 109 110
f 65 110 111
f 65 111 66
f 66 112 67
f 66 111 112
f 67 113 68
f 67 112 113
f 68 113 114
f 68 114 69
f 69 114 115
f 69 115 116
f 69 116 117
f 69 117 118
f 69 118 70
f 70 118 71
f 71 118 119
f 71 119 120
f 71 120 73
f 71 73 72
f 73 120 74
f 74 120 121
f 74 121 75
f 75 121 122
f 75 122 78
f 75 78 77
f 75 77 76
f 78 122 123
f 78 123 79
f 79 123 124
f 79 124 125
f 79 125 80
f 80 126 127
f 80 127 81
f 80 125 126
f 81 86 82
f 81 127 86
f 84 128 129
f 84 129 85
f 84 86 130
f 84 130 131
f 84 131 128
f 86 127 132
f 86 132 130
f 87 88 134
f 87 134 133
f 88 135 134
f 89 136 137
f 89 137 138
f 89 138 90
f 90 138 137
f 90 137 139
f 90 139 91
f 91 139 140
f 91 140 92
f 92 140 141
f 92 141 142
f 92 142 143
f 92 143 94
f 92 94 93
f 94 143 144
f 94 144 145
f 94 145 146
f 94 146 95
f 95 146 96
f 96 146 97
f 97 146 147
f 97 147 148
f 97 148 98
f 98 148 149
f 98 149 150
f 98 150 151
f 98 151 152
f 98 152 153
f 98 153 99
f 99 153 154
f 100 155 101
f 101 156 102
f 101 155 157
f 101 157 156
f 102 158 159
f 102 159 103
f 102 156 160
f 102 160 158
f 103 161 162
f 103 162 104
f 103 159 163
f 103 163 164
f 103 164 165
f 103 165 161
f 104 162 166
f 104 166 105
f 105 166 167
f 106 168 169
f 106 169 109
f 106 109 108
f 106 107 168
f 107 170 168
f 109 169 171
f 109 171 110
f 110 171 111
f 111 172 112
f 111 171 173
f 111 173 174
f 111 174 172
f 112 172 175
f 112 175 113
f 113 176 114
f 113 175 176
f 114 177 115
f 114 176 177
f 115 177 116
f 116 178 179
f 116 179 117
f 116 177 180
f 116 180 178
f 117 179 181
f 117 181 118
f 118 181 119
f 119 182 183
f 119 183 120
f 119 181 184
f 119 184 182
f 120 183 185
f 120 185 121
f 121 185 186
f 121 186 122
f 122 186 123
f 123 186 187
f 123 187 124
f 124 188 125
f 124 187 189
f 124 189 188
f 125 188 190
f 125 190 191
f 125 191 132
f 125 132 126
f 126 132 127
f 128 131 192
f 130 132 131
f 131 193 192
f 131 132 190
f 131 190 193
f 132 191 190
f 133 134 195
f 133 195 194
f 134 135 196
f 134 196 197
f 134 197 198
f 134 198 195
f 135 199 196
f 136 200 137
f 137 200 201
f 137 201 202
f 137 202 139
f 139 202 140
f 140 202 203
f 140 203 204
f 140 204 141
f 141 204 205
f 141 205 206
f 141 206 142
f 142 144 143
f 142 206 207
f 142 207 144
f 144 208 209
f 144 209 145
f 144 207 208
f 145 209 146
f 146 209 147
f 147 210 148
f 147 209 211
f 147 211 212
f 147 212 210
f 148 210 149
f 149 210 213
f 149 213 214
f 149 214 215
f 149 215 216
f 149 216 217
f 149 217 150
f 150 217 218
f 150 218 152
f 150 152 151
f 152 218 219
f 152 219 220
f 152 220 154
f 152 154 153
f 156 157 160
f 157 221 160
f 158 222 159
f 158 160 222
f 159 222 223
f 159 223 163
f 160 224 222
f 160 221 225
f 160 225 224
f 161 165 162
f 162 165 226
f 162 226 166
f 163 227 228
f 163 228 229
f 163 229 164
f 163 223 227
f 164 230 231
f 164 231 165
f 164 229 232
f 164 232 233
f 164 233 234
f 164 234 235
f 164 235 236
f 164 236 230
f 165 231 237
f 165 237 226
f 166 226 167
f 167 226 238
f 168 239 240
f 168 240 241
f 168 241 171
f 168 171 169
f 168 170 239
f 170 242 239
f 171 241 243
f 171 243 244
f 171 244 173
f 172 174 245
f 172 245 246
f 172 246 175
f 173 244 247
f 173 247 245
f 173 245 174
f 175 246 248
f 175 248 176
f 176 180 177
f 176 248 249
f 176 249 250
f 176 250 180
f 178 251 179
f 178 180 252
f 178 252 253
f 178 253 254
f 178 254 251
f 179 251 255
f 179 255 184
f 179 184 181
f 180 250 256
f 180 256 257
f 180 257 252
f 182 184 258
f 182 258 259
f 182 259 185
f 182 185 183
f 184 260 261
f 184 261 258
f 184 255 260
f 185 259 186
f 186 259 262
f 186 262 187
f 187 262 263
f 187 263 189
f 188 189 264
f 188 264 265
f 188 265 266
f 188 266 267
f 188 267 190
f 189 263 268
f 189 268 269
f 189 269 264
f 190 270 193
f 190 267 270
f 192 193 271
f 193 272 271
f 193 270 272
f 194 195 273
f 195 198 274
f 195 274 275
f 195 275 276
f 195 276 273
f 196 199 197
f 197 277 278
f 197 278 198
f 197 199 277
f 198 278 274
f 199 279 277
f 200 280 201
f 201 280 281
f 201 281 202
f 202 281 280
f 202 280 282
f 202 282 283
f 202 283 203
f 203 283 284
f 203 284 205
f 203 205 204
f 205 285 286
f 205 286 206
f 205 284 285
f 206 286 287
f 206 287 207
f 207 287 288
f 207 288 208
f 208 288 289
f 208 289 290
f 208 290 291
f 208 291 209
f 209 291 211
f 210 212 292
f 210 292 213
f 211 291 293
f 211 293 212
f 212 293 294
f 212 294 295
f 212 295 292
f 213 296 297
f 213 297 214
f 213 292 296
f 214 297 215
f 215 217 216
f 215 297 298
f 215 298 299
f 215 299 300
f 215 300 217
f 217 300 301
f 217 301 302
f 217 302 218
f 218 302 220
f 218 220 219
f 220 302 303
f 222 304 305
f 222 305 227
f 222 227 223
f 222 224 306
f 222 306 304
f 224 307 308
f 224 308 306
f 224 225 309
f 224 309 307
f 225 310 309
f 226 237 238
f 227 311 228
f 227 305 311
f 228 311 233
f 228 233 232
f 228 232 229
f 230 312 313
f 230 313 237
f 230 237 231
f 230 236 314
f 230 314 312
f 233 311 315
f 233 315 316
f 233 316 317
f 233 317 234
f 234 318 235
f 234 317 319
f 234 319 320
f 234 320 318
f 235 318 321
f 235 321 322
f 235 322 314
f 235 314 236
f 237 313 238
f 238 313 312
f 238 312 323
f 239 324 325
f 239 325 240
f 239 242 324
f 240 326 327
f 240 327 328
f 240 328 241
f 240 325 329
f 240 329 330
f 240 330 326
f 241 328 243
f 242 331 332
f 242 332 333
f 242 333 324
f 243 328 244
f 244 328 327
f 244 327 334
f 244 334 247
f 245 247 335
f 245 335 336
f 245 336 246
f 246 336 337
f 246 337 338
f 246 338 248
f 247 334 335
f 248 339 249
f 248 338 340
f 248 340 339
f 249 339 250
f 250 339 341
f 250 341 256
f 251 254 342
f 251 342 343
f 251 343 255
f 252 257 253
f 253 257 344
f 253 344 342
f 253 342 254
f 255 343 345
f 255 345 346
f 255 346 347
f 255 347 348
f 255 348 260
f 256 341 349
f 256 349 257
f 257 349 344
f 258 261 350
f 258 350 259
f 259 350 262
f 260 351 352
f 260 352 261
f 260 348 351
f 261 353 354
f 261 354 355
f 261 355 350
f 261 352 356
f 261 356 353
f 262 355 263
f 262 350 355
f 263 355 357
f 263 357 358
f 263 358 359
f 263 359 268
f 264 269 360
f 264 360 361
f 264 361 265
f 265 361 266
f 266 362 363
f 266 363 364
f 266 364 270
f 266 270 267
f 266 361 362
f 268 359 365
f 268 365 360
f 268 360 269
f 270 364 272
f 271 272 366
f 272 364 366
f 273 276 368
f 273 368 367
f 274 369 275
f 274 278 370
f 274 370 371
f 274 371 369
f 275 369 276
f 276 369 372
f 276 372 373
f 276 373 374
f 276 374 368
f 277 279 375
f 277 375 376
f 277 376 377
f 277 377 370
f 277 370 278
f 280 378 282
f 282 378 379
f 282 379 283
f 283 379 380
f 283 380 381
f 283 381 382
f 283 382 284
f 284 382 383
f 284 383 384
f 284 384 285
f 285 384 385
f 285 385 286
f 286 385 386
f 286 386 287
f 287 387 288
f 287 386 388
f 287 388 387
f 288 387 289
f 289 389 290
f 289 387 389
f 290 390 391
f 290 391 291
f 290 389 390
f 291 391 294
f 291 294 293
f 292 392 296
f 292 295 392
f 294 391 393
f 294 393 295
f 295 393 394
f 295 394 392
f 296 392 395
f 296 395 396
f 296 396 297
f 297 396 298
f 298 397 398
f 298 398 399
f 298 399 299
f 298 396 400
f 298 400 397
f 299 399 401
f 299 401 402
f 299 402 300
f 300 403 301
f 300 402 404
f 300 404 405
f 300 405 403
f 301 403 303
f 301 303 302
f 303 403 406
f 304 407 305
f 304 306 308
f 304 308 407
f 305 407 408
f 305 408 311
f 307 309 308
f 308 409 407
f 308 309 409
f 309 410 409
f 309 310 411
f 309 411 410
f 311 408 315
f 312 314 412
f 312 412 413
f 312 413 414
f 312 414 323
f 314 322 412
f 315 415 416
f 315 416 417
f 315 417 316
f 315 408 415
f 316 417 317
f 317 417 418
f 317 418 419
f 317 419 420
f 317 420 319
f 318 320 321
f 319 420 320
f 320 420 421
f 320 421 422
f 320 422 423
f 320 423 424
f 320 424 321
f 321 424 425
f 321 425 322
f 322 413 412
f 322 425 426
f 322 426 413
f 324 333 329
f 324 329 325
f 326 427 428
f 326 428 334
f 326 334 327
f 326 330 429
f 326 429 430
f 326 430 427
f 329 333 431
f 329 431 330
f 330 431 429
f 331 432 433
f 331 433 434
f 331 434 332
f 332 434 435
f 332 435 436
f 332 436 431
f 332 431 333
f 334 428 427
f 334 427 335
f 335 427 437
f 335 437 336
f 336 437 438
f 336 438 439
f 336 439 337
f 337 440 441
f 337 441 338
f 337 439 442
f 337 442 440
f 338 443 340
f 338 441 443
f 339 340 443
f 339 443 444
f 339 444 341
f 341 444 443
f 341 443 445
f 341 445 446
f 341 446 447
f 341 447 448
f 341 448 449
f 341 449 349
f 342 450 451
f 342 451 343
f 342 344 450
f 343 451 450
f 343 450 452
f 343 452 346
f 343 346 345
f 344 349 453
f 344 453 454
f 344 454 455
f 344 455 456
f 344 456 450
f 346 452 457
f 346 457 458
f 346 458 347
f 347 458 459
f 347 459 460
f 347 460 461
f 347 461 351
f 347 351 348
f 349 449 453
f 351 462 356
f 351 356 352
f 351 461 462
f 353 356 354
f 354 356 463
f 354 463 464
f 354 464 465
f 354 465 466
f 354 466 355
f 355 466 357
f 356 462 463
f 357 466 358
f 358 466 465
f 358 465 359
f 359 465 467
f 359 467 468
f 359 468 469
f 359 469 470
f 359 470 365
f 360 365 471
f 360 471 472
f 360 472 473
f 360 473 361
f 361 473 472
f 361 472 474
f 361 474 362
f 362 474 363
f 363 474 475
f 363 475 476
f 363 476 477
f 363 477 364
f 365 470 471
f 367 368 478
f 368 374 479
f 368 479 480
f 368 480 478
f 369 371 481
f 369 481 482
f 369 482 483
f 369 483 372
f 370 377 484
f 370 484 485
f 370 485 486
f 370 486 487
f 370 487 371
f 371 487 488
f 371 488 489
f 371 489 490
f 371 490 482
f 371 482 481
f 372 483 373
f 373 483 491
f 373 491 374
f 374 491 492
f 374 492 479
f 376 493 377
f 377 493 494
f 377 494 495
f 377 495 496
f 377 496 497
f 377 497 498
f 377 498 484
f 381 499 382
f 382 499 500
f 382 500 501
f 382 501 383
f 383 501 502
f 383 502 503
f 383 503 384
f 384 503 502
f 384 502 385
f 385 388 386
f 385 502 504
f 385 504 469
f 385 469 468
f 385 468 388
f 387 388 468
f 387 468 505
f 387 505 389
f 389 506 390
f 389 505 506
f 390 506 507
f 390 507 393
f 390 393 391
f 392 394 395
f 393 507 508
f 393 508 394
f 394 509 395
f 394 508 510
f 394 510 509
f 395 509 511
f 395 511 512
f 395 512 396
f 396 512 400
f 397 400 513
f 397 513 514
f 397 514 515
f 397 515 398
f 398 515 516
f 398 516 517
f 398 517 399
f 399 517 402
f 399 402 401
f 400 512 518
f 400 518 513
f 402 517 519
f 402 519 404
f 403 405 406
f 404 519 520
f 404 520 405
f 405 520 521
f 407 409 522
f 407 522 523
f 407 523 408
f 408 523 415
f 409 524 522
f 409 410 524
f 410 525 524
f 410 411 525
f 411 526 525
f 413 426 527
f 413 527 528
f 413 528 414
f 415 523 529
f 415 529 530
f 415 530 531
f 415 531 532
f 415 532 417
f 415 417 416
f 417 532 533
f 417 533 534
f 417 534 418
f 418 534 419
f 419 534 535
f 419 535 420
f 420 535 536
f 420 536 537
f 420 537 538
f 420 538 422
f 420 422 421
f 422 538 539
f 422 539 540
f 422 540 423
f 423 541 542
f 423 542 543
f 423 543 425
f 423 425 424
f 423 540 541
f 425 543 426
f 426 543 542
f 426 542 544
f 426 544 527
f 427 545 437
f 427 430 545
f 429 431 546
f 429 546 430
f 430 546 547
f 430 547 548
f 430 548 545
f 431 436 549
f 431 549 546
f 432 550 527
f 432 527 433
f 433 527 551
f 433 551 552
f 433 552 434
f 434 552 435
f 435 553 554
f 435 554 549
f 435 549 436
f 435 552 555
f 435 555 556
f 435 556 553
f 437 545 557
f 437 557 438
f 438 557 442
f 438 442 439
f 440 558 559
f 440 559 560
f 440 560 561
f 440 561 441
f 440 442 558
f 441 561 443
f 442 557 562
f 442 562 563
f 442 563 564
f 442 564 559
f 442 559 558
f 443 561 445
f 445 561 565
f 445 565 566
f 445 566 446
f 446 566 447
f 447 566 567
f 447 567 448
f 448 568 449
f 448 567 569
f 448 569 568
f 449 568 453
f 450 457 452
f 450 456 570
f 450 570 571
f 450 571 457
f 453 455 454
f 453 568 572
f 453 572 455
f 455 573 456
f 455 572 574
f 455 574 575
f 455 575 573
f 456 573 570
f 457 576 577
f 457 577 458
f 457 571 576
f 458 577 578
f 458 578 459
f 459 578 460
f 460 579 580
f 460 580 462
f 460 462 461
f 460 578 581
f 460 581 579
f 462 582 463
f 462 580 582
f 463 582 506
f 463 506 464
f 464 505 465
f 464 506 505
f 465 505 467
f 467 505 468
f 469 504 470
f 470 504 583
f 470 583 471
f 471 583 472
f 472 583 584
f 472 584 474
f 474 584 585
f 474 585 586
f 474 586 475
f 475 586 587
f 475 587 476
f 476 587 477
f 479 588 589
f 479 589 480
f 479 492 491
f 479 491 588
f 482 490 590
f 482 590 483
f 483 590 490
f 483 490 591
f 483 591 592
f 483 592 491
f 484 498 485
f 485 498 497
f 485 497 593
f 485 593 594
f 485 594 595
f 485 595 596
f 485 596 597
f 485 597 486
f 486 597 598
f 486 598 487
f 487 598 489
f 487 489 488
f 489 598 599
f 489 599 600
f 489 600 601
f 489 601 602
f 489 602 603
f 489 603 591
f 489 591 490
f 491 592 604
f 491 604 605
f 491 605 606
f 491 606 588
f 500 607 501
f 501 607 608
f 501 608 502
f 502 608 583
f 502 583 504
f 506 582 507
f 507 580 508
f 507 582 580
f 508 579 510
f 508 580 579
f 509 510 609
f 509 609 511
f 510 579 609
f 511 610 512
f 511 609 610
f 512 610 518
f 513 611 612
f 513 612 514
f 513 518 611
f 514 612 613
f 514 613 614
f 514 614 515
f 515 614 615
f 515 615 616
f 515 616 516
f 516 616 617
f 516 617 519
f 516 519 517
f 518 610 618
f 518 618 611
f 519 617 520
f 520 617 619
f 520 619 620
f 520 620 621
f 520 621 521
f 522 524 622
f 522 622 623
f 522 623 624
f 522 624 625
f 522 625 523
f 523 625 530
f 523 530 529
f 524 525 622
f 525 626 627
f 525 627 622
f 525 526 628
f 525 628 626
f 527 550 528
f 527 544 629
f 527 629 551
f 530 625 531
f 531 625 630
f 531 630 532
f 532 631 533
f 532 630 631
f 533 631 632
f 533 632 534
f 534 632 633
f 534 633 535
f 535 633 634
f 535 634 536
f 536 635 636
f 536 636 637
f 536 637 539
f 536 539 538
f 536 538 537
f 536 634 635
f 539 637 638
f 539 638 639
f 539 639 554
f 539 554 640
f 539 640 553
f 539 553 540
f 540 553 556
f 540 556 555
f 540 555 641
f 540 641 541
f 541 641 542
f 542 641 642
f 542 642 544
f 544 551 629
f 544 642 551
f 545 548 643
f 545 643 562
f 545 562 557
f 546 549 644
f 546 644 547
f 547 644 639
f 547 639 645
f 547 645 646
f 547 646 548
f 548 646 647
f 548 647 562
f 548 562 643
f 549 554 644
f 551 642 552
f 552 642 555
f 553 640 554
f 554 639 644
f 555 642 641
f 559 564 648
f 559 648 560
f 560 649 561
f 560 648 649
f 561 649 650
f 561 650 565
f 562 647 563
f 563 651 564
f 563 647 652
f 563 652 653
f 563 653 654
f 563 654 655
f 563 655 651
f 564 651 648
f 565 656 566
f 565 650 657
f 565 657 656
f 566 656 567
f 567 656 569
f 568 658 572
f 568 569 659
f 568 659 658
f 569 660 659
f 569 656 661
f 569 661 662
f 569 662 660
f 570 573 571
f 571 573 663
f 571 663 664
f 571 664 576
f 572 658 574
f 573 575 665
f 573 665 663
f 574 658 575
f 575 658 665
f 576 664 666
f 576 666 577
f 577 666 667
f 577 667 668
f 577 668 578
f 578 668 581
f 579 581 609
f 581 668 609
f 583 608 669
f 583 669 670
f 583 670 585
f 583 585 584
f 585 670 671
f 585 671 586
f 586 671 672
f 586 672 673
f 586 673 587
f 587 673 674
f 588 675 676
f 588 676 589
f 588 606 675
f 591 604 592
f 591 603 602
f 591 602 677
f 591 677 678
f 591 678 604
f 593 679 595
f 593 595 594
f 595 679 680
f 595 680 681
f 595 681 682
f 595 682 683
f 595 683 684
f 595 684 596
f 596 684 685
f 596 685 686
f 596 686 597
f 597 686 687
f 597 687 598
f 598 687 599
f 599 687 686
f 599 686 688
f 599 688 600
f 600 688 689
f 600 689 690
f 600 690 691
f 600 691 601
f 601 691 677
f 601 677 602
f 604 678 692
f 604 692 605
f 605 692 693
f 605 693 606
f 606 693 694
f 606 694 695
f 606 695 696
f 606 696 675
f 607 697 669
f 607 669 608
f 609 668 698
f 609 698 610
f 610 698 618
f 611 618 699
f 611 699 700
f 611 700 701
f 611 701 702
f 611 702 612
f 612 702 613
f 613 702 703
f 613 703 704
f 613 704 705
f 613 705 614
f 614 705 615
f 615 706 616
f 615 705 707
f 615 707 706
f 616 706 708
f 616 708 617
f 617 708 709
f 617 709 619
f 618 698 699
f 619 709 710
f 619 710 711
f 619 711 620
f 620 711 712
f 622 627 623
f 623 627 626
f 623 626 713
f 623 713 624
f 624 714 715
f 624 715 716
f 624 716 625
f 624 713 714
f 625 716 630
f 626 717 713
f 626 628 718
f 626 718 719
f 626 719 717
f 630 716 720
f 630 720 721
f 630 721 722
f 630 722 631
f 631 722 723
f 631 723 632
f 632 723 724
f 632 724 725
f 632 725 633
f 633 725 635
f 633 635 634
f 635 725 726
f 635 726 727
f 635 727 636
f 636 727 728
f 636 728 637
f 637 728 729
f 637 729 730
f 637 730 638
f 638 730 639
f 639 729 645
f 639 730 729
f 645 729 646
f 646 729 731
f 646 731 652
f 646 652 647
f 648 651 649
f 649 651 732
f 649 732 733
f 649 733 734
f 649 734 650
f 650 734 657
f 651 735 733
f 651 733 732
f 651 655 736
f 651 736 735
f 652 731 653
f 653 737 654
f 653 731 738
f 653 738 739
f 653 739 740
f 653 740 737
f 654 737 655
f 655 737 740
f 655 740 741
f 655 741 736
f 656 657 742
f 656 742 661
f 657 734 743
f 657 743 744
f 657 744 742
f 658 659 745
f 658 745 665
f 659 660 745
f 660 662 746
f 660 746 747
f 660 747 748
f 660 748 745
f 661 742 662
f 662 742 749
f 662 749 750
f 662 750 751
f 662 751 746
f 663 665 752
f 663 752 753
f 663 753 664
f 664 753 754
f 664 754 755
f 664 755 667
f 664 667 666
f 665 753 752
f 665 745 748
f 665 748 756
f 665 756 753
f 667 698 668
f 667 755 700
f 667 700 699
f 667 699 698
f 669 697 757
f 669 757 758
f 669 758 759
f 669 759 670
f 670 759 671
f 671 759 672
f 672 759 758
f 672 758 760
f 672 760 761
f 672 761 673
f 673 761 674
f 675 762 763
f 675 763 764
f 675 764 765
f 675 765 676
f 675 696 762
f 677 766 678
f 677 691 767
f 677 767 768
f 677 768 766
f 678 766 692
f 680 769 681
f 681 770 771
f 681 771 772
f 681 772 682
f 681 769 773
f 681 773 770
f 682 772 774
f 682 774 775
f 682 775 776
f 682 776 777
f 682 777 685
f 682 685 684
f 682 684 683
f 685 777 776
f 685 776 778
f 685 778 779
f 685 779 686
f 686 779 780
f 686 780 688
f 688 780 779
f 688 779 781
f 688 781 689
f 689 781 690
f 690 781 782
f 690 782 783
f 690 783 691
f 691 783 784
f 691 784 785
f 691 785 767
f 692 766 786
f 692 786 693
f 693 786 787
f 693 787 694
f 694 787 696
f 694 696 695
f 696 787 764
f 696 764 763
f 696 763 762
f 700 755 754
f 700 754 788
f 700 788 701
f 701 788 789
f 701 789 702
f 702 789 703
f 703 790 791
f 703 791 704
f 703 789 790
f 704 791 705
f 705 791 792
f 705 792 707
f 706 707 793
f 706 793 794
f 706 794 708
f 707 795 793
f 707 792 795
f 708 794 709
f 709 794 710
f 710 796 711
f 710 794 793
f 710 793 796
f 711 796 797
f 711 797 798
f 711 798 712
f 713 717 799
f 713 799 800
f 713 800 714
f 714 800 801
f 714 801 802
f 714 802 803
f 714 803 804
f 714 804 805
f 714 805 806
f 714 806 720
f 714 720 715
f 715 720 716
f 717 719 799
f 718 807 719
f 719 808 809
f 719 809 799
f 719 807 808
f 720 806 810
f 720 810 721
f 721 810 722
f 722 810 811
f 722 811 723
f 723 811 724
f 724 811 812
f 724 812 813
f 724 813 725
f 725 813 726
f 726 739 727
f 726 813 739
f 727 739 738
f 727 738 728
f 728 738 731
f 728 731 729
f 733 814 815
f 733 815 734
f 733 735 814
f 734 815 743
f 735 816 814
f 735 736 816
f 736 741 817
f 736 817 818
f 736 818 819
f 736 819 820
f 736 820 821
f 736 821 816
f 739 741 740
f 739 813 812
f 739 812 741
f 741 812 822
f 741 822 823
f 741 823 818
f 741 818 817
f 742 744 824
f 742 824 749
f 743 815 744
f 744 815 824
f 746 825 747
f 746 751 826
f 746 826 825
f 747 827 748
f 747 825 827
f 748 827 756
f 749 824 828
f 749 828 750
f 750 828 829
f 750 829 830
f 750 830 831
f 750 831 825
f 750 825 826
f 750 826 751
f 753 756 754
f 754 756 832
f 754 832 833
f 754 833 788
f 756 827 832
f 757 760 758
f 764 834 835
f 764 835 765
f 764 787 836
f 764 836 837
f 764 837 838
f 764 838 839
f 764 839 834
f 766 768 840
f 766 840 786
f 767 785 768
f 768 841 842
f 768 842 840
f 768 785 843
f 768 843 844
f 768 844 845
f 768 845 841
f 770 846 772
f 770 772 771
f 772 847 774
f 772 846 848
f 772 848 849
f 772 849 847
f 774 847 775
f 775 850 851
f 775 851 776
f 775 847 852
f 775 852 850
f 776 853 778
f 776 851 854
f 776 854 853
f 778 853 781
f 778 781 779
f 781 853 782
f 782 855 783
f 782 853 854
f 782 854 855
f 783 855 856
f 783 856 784
f 784 856 843
f 784 843 785
f 786 857 787
f 786 840 842
f 786 842 857
f 787 857 858
f 787 858 859
f 787 859 838
f 787 838 837
f 787 837 836
f 788 833 789
f 789 833 860
f 789 860 861
f 789 861 862
f 789 862 790
f 790 862 863
f 790 863 864
f 790 864 791
f 791 864 865
f 791 865 866
f 791 866 792
f 792 866 867
f 792 867 795
f 793 795 868
f 793 868 869
f 793 869 796
f 795 867 870
f 795 870 868
f 796 869 871
f 796 871 872
f 796 872 797
f 797 872 798
f 798 872 873
f 799 809 874
f 799 874 801
f 799 801 800
f 801 874 802
f 802 875 876
f 802 876 803
f 802 874 877
f 802 877 878
f 802 878 875
f 803 876 879
f 803 879 804
f 804 806 805
f 804 879 880
f 804 880 881
f 804 881 882
f 804 882 806
f 806 882 810
f 807 883 884
f 807 884 808
f 808 884 885
f 808 885 877
f 808 877 874
f 808 874 809
f 810 882 886
f 810 886 887
f 810 887 812
f 810 812 811
f 812 887 823
f 812 823 822
f 814 888 824
f 814 824 815
f 814 816 821
f 814 821 889
f 814 889 888
f 818 823 887
f 818 887 890
f 818 890 819
f 819 890 820
f 820 891 892
f 820 892 893
f 820 893 821
f 820 890 894
f 820 894 895
f 820 895 896
f 820 896 891
f 821 893 889
f 824 888 897
f 824 897 898
f 824 898 828
f 825 899 832
f 825 832 827
f 825 831 900
f 825 900 899
f 828 898 829
f 829 898 830
f 830 898 897
f 830 897 901
f 830 901 902
f 830 902 831
f 831 903 900
f 831 902 904
f 831 904 905
f 831 905 903
f 832 899 860
f 832 860 833
f 834 906 907
f 834 907 908
f 834 908 909
f 834 909 835
f 834 839 906
f 838 859 910
f 838 910 911
f 838 911 839
f 839 911 912
f 839 912 906
f 841 845 842
f 842 845 913
f 842 913 857
f 843 914 844
f 843 856 915
f 843 915 916
f 843 916 917
f 843 917 914
f 844 914 845
f 845 914 918
f 845 918 919
f 845 919 920
f 845 920 913
f 847 849 852
f 848 873 921
f 848 921 849
f 849 921 872
f 849 872 852
f 850 852 871
f 850 871 851
f 851 871 922
f 851 922 923
f 851 923 924
f 851 924 854
f 852 872 871
f 854 924 925
f 854 925 926
f 854 926 855
f 855 926 927
f 855 927 856
f 856 927 928
f 856 928 916
f 856 916 915
f 857 913 858
f 858 913 920
f 858 920 919
f 858 919 859
f 859 919 910
f 860 862 861
f 860 899 903
f 860 903 929
f 860 929 930
f 860 930 863
f 860 863 862
f 863 930 864
f 864 866 865
f 864 930 931
f 864 931 932
f 864 932 933
f 864 933 866
f 866 933 867
f 867 933 934
f 867 934 935
f 867 935 870
f 868 870 869
f 869 870 935
f 869 935 922
f 869 922 871
f 872 921 873
f 875 936 937
f 875 937 879
f 875 879 876
f 875 878 938
f 875 938 936
f 877 885 878
f 878 885 938
f 879 937 880
f 880 939 940
f 880 940 895
f 880 895 894
f 880 894 887
f 880 887 881
f 880 937 939
f 881 887 882
f 882 887 886
f 883 941 885
f 883 885 884
f 885 941 942
f 885 942 938
f 887 894 890
f 888 889 943
f 888 943 897
f 889 893 943
f 891 944 945
f 891 945 946
f 891 946 892
f 891 896 944
f 892 946 943
f 892 943 893
f 895 947 896
f 895 940 948
f 895 948 949
f 895 949 947
f 896 947 944
f 897 943 901
f 899 900 903
f 901 943 950
f 901 950 902
f 902 905 904
f 902 950 951
f 902 951 952
f 902 952 905
f 903 905 953
f 903 953 954
f 903 954 929
f 905 952 955
f 905 955 953
f 906 912 956
f 906 956 907
f 907 956 957
f 907 957 958
f 907 958 959
f 907 959 908
f 908 959 909
f 910 960 912
f 910 912 911
f 910 919 961
f 910 961 960
f 912 960 961
f 912 961 962
f 912 962 963
f 912 963 956
f 914 917 964
f 914 964 918
f 916 965 966
f 916 966 967
f 916 967 917
f 916 928 965
f 917 967 968
f 917 968 969
f 917 969 964
f 918 970 919
f 918 964 944
f 918 944 970
f 919 970 971
f 919 971 961
f 922 924 923
f 922 935 924
f 924 935 925
f 925 935 972
f 925 972 973
f 925 973 974
f 925 974 926
f 926 974 927
f 927 974 965
f 927 965 928
f 929 954 930
f 930 954 931
f 931 955 975
f 931 975 967
f 931 967 976
f 931 976 977
f 931 977 932
f 931 954 955
f 932 977 978
f 932 978 933
f 933 978 934
f 934 978 973
f 934 973 972
f 934 972 935
f 936 938 937
f 937 979 980
f 937 980 981
f 937 981 939
f 937 938 979
f 938 982 979
f 938 942 983
f 938 983 982
f 939 981 948
f 939 948 940
f 941 984 942
f 942 984 983
f 943 946 950
f 944 964 985
f 944 985 986
f 944 986 945
f 944 947 970
f 945 986 946
f 946 986 985
f 946 985 987
f 946 987 950
f 947 949 971
f 947 971 970
f 948 981 988
f 948 988 979
f 948 979 982
f 948 982 989
f 948 989 990
f 948 990 991
f 948 991 949
f 949 991 992
f 949 992 971
f 950 987 985
f 950 985 952
f 950 952 951
f 952 985 955
f 953 955 954
f 955 985 968
f 955 968 967
f 955 967 975
f 956 963 957
f 957 963 992
f 957 992 993
f 957 993 994
f 957 994 958
f 958 994 995
f 958 995 996
f 958 996 959
f 961 971 997
f 961 997 992
f 961 992 962
f 962 992 963
f 964 969 985
f 965 974 966
f 966 998 999
f 966 999 967
f 966 974 998
f 967 999 976
f 968 985 969
f 971 992 997
f 973 998 974
f 973 978 998
f 976 999 998
f 976 998 977
f 977 998 978
f 979 988 980
f 980 988 981
f 982 983 990
f 982 990 989
f 983 984 1000
f 983 1000 1001
f 983 1001 1002
f 983 1002 1003
f 983 1003 990
f 990 1003 1004
f 990 1004 1005
f 990 1005 994
f 990 994 1006
f 990 1006 991
f 991 1007 992
f 991 1006 1007
f 992 1007 993
f 993 1007 994
f 994 1005 995
f 994 1007 1006
