# ABC bottle geometry; canonical radius 1 and height 1, bottom z=0.
# https://github.com/mikedh/trimesh
v 0.217936726013 0.895312353277 0.2497713
v 0.217936726013 0.403104295749 0.2497713
v 0.217936726013 0.895940572539 0.24608493
v 0.199810120027 0.899552804389 0.2497713
v -0.827709317698 0.403104295749 0.2497713
v 0.217936726013 0.403104295749 0.02839509
v 0.217936726013 0.903531526384 0.19466978
v 0.203331813375 0.907510190563 0.19391793
v 0.177747459617 0.904264448856 0.2497713
v -0.827605712976 0.40352310859 0.2497713
v -0.827812864606 0.403104295749 0.24948025
v -0.0444329262482 0.403104295749 0.01563829
v -0.0639060467393 0.419909132107 0.01364961
v -0.0619380195272 0.517753906406 0.00933266
v -0.074264148599 0.569477118887 0.0064224
v -0.0648383157992 0.597118650796 0.00576758
v -0.0541695154013 0.626278408163 0.00537953
v -0.0583127214561 0.645910173386 0.00450644
v -0.0459866501994 0.674703440609 0.00470045
v -0.0491975871944 0.688628967589 0.00438517
v -0.0366643643072 0.700093940218 0.00554931
v -0.0235096287134 0.708627222956 0.00714996
v -0.0172947907237 0.719620944416 0.00838682
v -0.00289708753196 0.736844593615 0.01183069
v -0.000514757058858 0.740299799558 0.01258251
v 0.0049750213167 0.75563879097 0.0159536
v 0.217936726013 0.543196670897 0.04886413
v 0.217936726013 0.903583849081 0.19025582
v 0.16407481604 0.915362989156 0.1767472
v 0.164696270931 0.915624718275 0.19137144
v 0.19898145569 0.907510190563 0.17390969
v 0.156306254099 0.90792906122 0.2497713
v 0.140562036401 0.919865169387 0.1934329
v -0.817765576915 0.423730712563 0.2497713
v -0.837756663205 0.407554153282 0.19571263
v -0.839828237325 0.403104295749 0.19571263
v -0.048576132303 0.403104295749 0.01544428
v -0.0580019651028 0.403104295749 0.01505625
v -0.073435484262 0.403104295749 0.01454693
v -0.0824469559858 0.403104295749 0.01435292
v -0.103991766227 0.403104295749 0.01398915
v -0.182609423436 0.403104295749 0.01282501
v -0.226734744256 0.494091038676 0.00714996
v -0.133512232225 0.538170916799 0.00610709
v -0.0875224311004 0.568534789993 0.00601009
v -0.0721925166641 0.519272074049 0.00877488
v -0.080375381866 0.594396367326 0.00511277
v -0.073435484262 0.612666990814 0.0047732
v -0.0851401006273 0.635387529651 0.00353634
v -0.0691886734844 0.672871163335 0.00319681
v -0.0495083435476 0.70831305551 0.00455493
v -0.0718817603108 0.700408049849 0.00300279
v -0.0357321530625 0.714595248133 0.00591308
v -0.0301388277793 0.73480290992 0.00741673
v -0.0148088555278 0.747000747207 0.01061806
v -0.0112871043644 0.765219047997 0.01311606
v -0.00527941800507 0.768621931242 0.01503199
v 0.00476786968623 0.769983072977 0.01840308
v 0.217936726013 0.559582636598 0.05175018
v 0.217936726013 0.902746223398 0.17720801
v 0.125957123764 0.922011614108 0.1799728
v 0.190177077781 0.908557280482 0.16670671
v 0.159413702001 0.914630008869 0.16287482
v 0.131964810123 0.918242240719 0.14684397
v 0.147191177652 0.917718782482 0.16949573
v 0.120363798481 0.922116259503 0.16597915
v 0.123678340199 0.921906853082 0.17148444
v 0.217936726013 0.902536874793 0.17422497
v 0.217936726013 0.901856275018 0.16857415
v 0.217936726013 0.901646926412 0.16724026
v 0.13579731764 0.911017777018 0.2497713
v 0.113631052507 0.923896271895 0.19399071
v -0.800674729082 0.454618101809 0.2497713
v -0.819319243051 0.442420148893 0.19573689
v -0.826777106454 0.429332305411 0.18084589
v -0.835788578177 0.411846984908 0.18467778
v -0.840242540586 0.403104295749 0.18499306
v -0.208090230287 0.403104295749 0.0124855
v -0.206018656167 0.418966803213 0.01161242
v -0.244447046981 0.518120338734 0.00574332
v -0.240821691095 0.420327887133 0.01122436
v -0.235642669072 0.538642110153 0.00484598
v -0.149877962629 0.589946509792 0.00377887
v -0.144906092237 0.5962286446 0.00358486
v -0.105027582195 0.591569380646 0.00455493
v -0.0958089010252 0.602196727591 0.00440943
v -0.114971265163 0.61795447403 0.00341508
v -0.093012209476 0.649417702026 0.00293005
v -0.086900976209 0.675959879134 0.00246924
v -0.0578984181952 0.733651174606 0.00474897
v -0.0688779171312 0.722657337517 0.00358486
v -0.0919763935085 0.71025009381 0.00234798
v -0.0371822722909 0.739043361033 0.00683469
v -0.0278599863987 0.754748726959 0.00935692
v -0.0371822722909 0.76799371198 0.00923568
v -0.0272385315073 0.782756806828 0.01270378
v -0.0195735742891 0.789038941635 0.01529878
v -0.00372575186898 0.781657394211 0.0179908
v 0.217936726013 0.787573154505 0.09533179
v 0.217936726013 0.768988363571 0.09149992
v 0.217936726013 0.749251895137 0.08747402
v 0.217936726013 0.738415141771 0.08533978
v 0.217936726013 0.577225098639 0.05500001
v 0.110109301344 0.924367407434 0.18123391
v 0.0944686305542 0.926199684708 0.16748279
v 0.192455861347 0.904107365133 0.1451948
v 0.169875292953 0.909970744914 0.1480566
v 0.150402172462 0.914001789606 0.14577687
v 0.109384299545 0.922011614108 0.14439449
v 0.107105458164 0.919393976033 0.13294733
v 0.106794759626 0.920650414558 0.13728851
v 0.0851464024771 0.926304445733 0.14701372
v 0.217936726013 0.900809242914 0.16282633
v 0.197842092815 0.903217474568 0.14781407
v 0.120260251573 0.913321247646 0.2497713
v 0.0939507225705 0.926513794339 0.19127443
v -0.799224609853 0.457183301556 0.2497713
v -0.805025202397 0.467705887476 0.19568837
v -0.811965042186 0.456345675873 0.18271333
v -0.824912626149 0.433049298286 0.17616516
v -0.834856366933 0.413522178459 0.17832363
v -0.840138993678 0.403104295749 0.1790027
v -0.230877950311 0.403104295749 0.01238847
v -0.255322999009 0.491264051996 0.00722271
v -0.275210480576 0.491996974468 0.00714996
v -0.303384374253 0.52524015704 0.00545228
v -0.304316585498 0.545918954367 0.00443369
v -0.258326842189 0.549269457099 0.00423968
v -0.241857507062 0.403104295749 0.01253399
v -0.271170821429 0.442367826195 0.01039979
v -0.290022487029 0.476605660358 0.00843534
v -0.261434232276 0.565027203538 0.00360909
v -0.261330627553 0.607641294531 0.00254199
v -0.110310151125 0.673289976177 0.0021297
v -0.0994341990962 0.672138240863 0.00225097
v -0.105027582195 0.695277592541 0.00200844
v -0.0752999067514 0.735535832393 0.0037061
v -0.0546873655699 0.745796689195 0.0055978
v -0.0862794635025 0.731975981055 0.0030998
v -0.103059497167 0.710040687389 0.00215396
v -0.107409912668 0.737211025944 0.00285727
v -0.0578984181952 0.770192479397 0.00736824
v -0.0574840571191 0.787049638453 0.00911438
v -0.035525001432 0.791761225105 0.01292205
v -0.0236132334362 0.797048766136 0.0159536
v -0.0185377583216 0.795530540678 0.01685092
v -0.0189520615826 0.8049014491 0.01913065
v 0.217936726013 0.827621930121 0.10505703
v 0.217936726013 0.801760352788 0.09860587
v 0.092500603342 0.926618555364 0.17575288
v 0.0710594556387 0.92818910352 0.14461276
v 0.0518970336856 0.930701922754 0.14817786
v 0.217936726013 0.8977204693 0.1470865
v 0.217936726013 0.897563501207 0.14633468
v 0.210789676778 0.89683052092 0.13915595
v 0.196184764141 0.901385081663 0.14078087
v 0.16334969861 0.905259158263 0.12918821
v 0.13786889176 0.912431241451 0.13202572
v 0.149159204864 0.911960105912 0.13847688
v 0.0739596940955 0.926409091128 0.13799185
v 0.0673304950297 0.926042600985 0.13166195
v 0.111559478387 0.914420660263 0.12314934
v 0.0612193195779 0.924786220275 0.12351313
v 0.0955044465217 0.915938827906 0.2497713
v 0.0700236396712 0.928974290875 0.16755554
v 0.0567652993547 0.930387813123 0.172115
v 0.0525185463922 0.930649542241 0.17856616
v 0.0644302565728 0.929079051901 0.19326311
v -0.784308998678 0.481474330733 0.2497713
v -0.770118504932 0.507545372302 0.24205902
v -0.793734889293 0.486709491252 0.19462126
v -0.804196480245 0.469328816144 0.18465352
v -0.791870408988 0.489745884353 0.18363491
v -0.796738732472 0.48142195022 0.17992428
v -0.797878095347 0.478909130986 0.17449173
v -0.815486793349 0.449644670409 0.17541334
v -0.82190878297 0.438075052385 0.17306083
v -0.838274513373 0.40614068885 0.16241404
v -0.839931784232 0.403104295749 0.16993228
v -0.326690002261 0.53712394251 0.00530678
v -0.335597927077 0.556808030431 0.00426391
v -0.30928845589 0.505398927581 0.00695592
v -0.320889525347 0.574084060143 0.00329381
v -0.25874114545 0.403104295749 0.0129948
v -0.262262896613 0.406768908112 0.01282501
v -0.294476449437 0.464931339124 0.00947818
v -0.282046773457 0.577068072731 0.00319681
v -0.311877995808 0.602720243643 0.00237224
v -0.285982827882 0.621147950855 0.00222671
v -0.309081304259 0.632979355812 0.0021297
v -0.127400941143 0.690042432022 0.0020327
v -0.0959124479329 0.753335262527 0.00380313
v -0.0859687071492 0.755952900601 0.00436091
v -0.0737462406153 0.769197769991 0.00601009
v -0.121600464229 0.7284683946 0.00244498
v -0.119735983924 0.75338764304 0.00360909
v -0.0723996682945 0.786787793704 0.00814432
v -0.0923906967695 0.80160332688 0.00899315
v -0.080375381866 0.807466706661 0.01069081
v -0.0686707655007 0.814010570587 0.01284927
v -0.046504500368 0.803487984667 0.01328582
v -0.0429828070197 0.818303402213 0.01714197
v -0.0333497647742 0.816209338005 0.0185971
v -0.0178126987074 0.813539435048 0.02218646
v 0.217936726013 0.847201372646 0.11082911
v 0.0486860388755 0.930859006477 0.14512205
v 0.0557295412023 0.929236077809 0.1375553
v 0.0552116332186 0.929811916558 0.14179945
v 0.0163688813287 0.934471238327 0.14623767
v 0.217936726013 0.895102946856 0.13978651
v 0.212861250898 0.894370082199 0.13442671
v 0.171221865274 0.901489784874 0.1268357
v 0.13465789695 0.90745792568 0.12128189
v 0.0352205469285 0.930387813123 0.1300613
v 0.0969545657501 0.91154129307 0.11298758
v 0.0703343382093 0.914472925145 0.10753077
v 0.0564546008165 0.920284040044 0.11209023
v 0.0596655378115 0.921959233595 0.11643142
v 0.0395709624289 0.927403742719 0.12145168
v 0.0316987957651 0.926199684708 0.11485502
v 0.0696093364103 0.91845164714 0.2497713
v 0.0369814225102 0.931434845227 0.19355416
v -0.777887009057 0.491578161627 0.2497713
v -0.769393445317 0.504666005109 0.2497713
v -0.762971397882 0.514351080976 0.2497713
v -0.742151762885 0.544086677093 0.2497713
v -0.750541779718 0.535501013842 0.241768
v -0.75572080174 0.543144348199 0.19547009
v -0.77778346215 0.510843494521 0.19646445
v -0.782651727819 0.50440427599 0.18855816
v -0.789488078515 0.493044064387 0.17941499
v -0.790316685037 0.490845296969 0.17175123
v -0.805439505658 0.464617229492 0.16386917
v -0.814554582105 0.450115863763 0.16881669
v -0.829366646372 0.419699667871 0.14897817
v -0.838481665004 0.403104295749 0.14878416
v -0.839724690417 0.403104295749 0.16253531
v -0.339016073518 0.541259690413 0.00545228
v -0.356003316628 0.565079584051 0.00467622
v -0.360250127406 0.579214459636 0.00399715
v -0.339016073518 0.575968660115 0.00341508
v -0.313431661944 0.490426484128 0.00824133
v -0.336219439784 0.604238469101 0.00251776
v -0.262780804597 0.403104295749 0.01316455
v -0.279767989892 0.421689028868 0.01236424
v -0.305145249835 0.454408637573 0.01081207
v -0.330626056685 0.625964298532 0.00220245
v -0.333526295142 0.650517114643 0.0024935
v -0.110206604217 0.758622803558 0.00397289
v -0.108963636619 0.773281195196 0.00506425
v -0.095083841411 0.773909414458 0.00542802
v -0.0959124479329 0.786054929047 0.00671342
v -0.328968785826 0.661301487496 0.002736
v -0.350720689883 0.66517550628 0.00314832
v -0.327829365136 0.680148007549 0.00343934
v -0.131233448659 0.755586410457 0.00382736
v -0.124915005947 0.770768318147 0.00474897
v -0.120564648261 0.799613908068 0.00780478
v -0.115074869886 0.816052254282 0.01056954
v -0.093012209476 0.814952899481 0.01122436
v -0.0745748471372 0.822439150115 0.01401341
v -0.0702244894519 0.826679601228 0.01539579
v -0.0604879002988 0.829506587908 0.01750574
v -0.0414290830685 0.826836684951 0.020125
v -0.0383216351661 0.830606000524 0.02228346
v 0.217936726013 0.863692099373 0.11626166
v 0.217936726013 0.86285447369 0.11594638
v 0.0224801724108 0.933528909434 0.14296359
v 0.0108791029532 0.932743664264 0.12710249
v 0.00766810814307 0.934418857815 0.13571212
v 0.00839316775728 0.934680586933 0.13918021
v -0.00372575186898 0.935727676852 0.14340013
v -0.0222666611155 0.936722386258 0.14747453
v 0.217936726013 0.89468419183 0.1387679
v 0.217936726013 0.892433043899 0.1337719
v 0.140872792755 0.903793255502 0.11897793
v 0.217936726013 0.890967141139 0.1317347
v 0.204056930805 0.892799534043 0.12872741
v -0.00248278427102 0.932115445002 0.11851713
v 0.0570760557079 0.913740060488 0.10219523
v 0.0489967952288 0.918399382257 0.10629392
v 0.0246553512535 0.924053297803 0.10779756
v 0.0167831845897 0.928660181244 0.11565533
v -0.00465796311366 0.928921968177 0.10833111
v 0.0573868120612 0.919289330638 0.2497713
v -0.0093190771522 0.933685935342 0.18021533
v -0.0146017038973 0.93227247091 0.19357842
v 0.00704665325166 0.921016904702 0.24957728
v -0.726718243726 0.564922558143 0.2497713
v -0.74308397413 0.559949126742 0.19561562
v -0.738319197553 0.566597751694 0.19175947
v -0.746709330016 0.555342185486 0.1810399
v -0.759760460887 0.537333348931 0.18038508
v -0.771672171068 0.52047613206 0.18070036
v -0.76514663454 0.529690014574 0.19044983
v -0.774986770601 0.513879887622 0.17158145
v -0.770429261285 0.518382125668 0.16219577
v -0.791663199543 0.486814194462 0.16442698
v -0.795599311782 0.476396253937 0.14863864
v -0.813208009784 0.447969419042 0.14905095
v -0.830402404525 0.415459216758 0.14182371
v -0.837549453759 0.403104295749 0.14386094
v -0.374958529136 0.56848240948 0.00552505
v -0.336530196137 0.512885178216 0.007635
v -0.349374175377 0.527438866643 0.00714996
v -0.366879268656 0.586753032968 0.00397289
v -0.358074948563 0.59827038611 0.00314832
v -0.355381861737 0.630100046434 0.00271177
v -0.276971356158 0.403104295749 0.01384363
v -0.307527638123 0.4403261425 0.01224297
v -0.326379245908 0.476343931239 0.01020575
v -0.363564726939 0.633345845956 0.00295427
v -0.123879189979 0.779772736424 0.00554931
v -0.105027582195 0.781238639185 0.00588882
v -0.361078791743 0.666013131963 0.00353634
v -0.3545531974 0.677268698171 0.00377887
v -0.344505851893 0.690565948074 0.00426391
v -0.140970037812 0.765690241351 0.00474897
v -0.138484102617 0.785740819416 0.00637388
v -0.138898405877 0.797048766136 0.007635
v -0.144906092237 0.811707157774 0.0098905
v -0.136308865959 0.817046963688 0.01066655
v -0.125847275007 0.830239568196 0.01331007
v -0.103991766227 0.828354910409 0.01343134
v -0.0934265127369 0.840866857326 0.01723897
v -0.0694994298377 0.845997314635 0.02174991
v -0.0525121867273 0.835369967689 0.02085257
v -0.042464899036 0.83783052204 0.02417517
v 0.217936726013 0.871440136941 0.11926895
v -0.0110799527339 0.934314154604 0.12392542
v -0.021230845148 0.936408276627 0.13382041
v -0.0454687422156 0.937193463982 0.12955198
v -0.0649418627068 0.937926386455 0.13309285
v -0.0399789638401 0.937245844495 0.14332736
v -0.0468152567213 0.937141141285 0.14635891
v 0.176815190557 0.895469437 0.12254304
v 0.0181297569104 0.906306132551 0.08201721
v 0.0533471529141 0.908033706615 0.09496802
v 0.121503161356 0.905102074539 0.11405468
v 0.217936726013 0.888192592786 0.12901843
v -0.0276528347682 0.934680586933 0.11900216
v -0.0176055470769 0.93180133537 0.11259952
v 0.0204085404759 0.920179279019 0.09979424
v 0.0331489728087 0.90735322247 0.08783782
v -0.000307605428388 0.913268867134 0.0838604
v 0.0286949525855 0.913844705883 0.09353712
v -0.00320784388523 0.921592743451 0.09453148
v 0.000935362169565 0.925571465445 0.10321385
v -0.0345927323722 0.928712561757 0.09899393
v 0.00632159363745 0.920964524189 0.2497713
v -0.0694994298377 0.937036495889 0.14655295
v -0.0493011919172 0.932167709884 0.1903286
v -0.0406004187315 0.931382464714 0.19547009
v -0.00952622878267 0.920912201491 0.2497713
v -0.00175772465681 0.920964524189 0.2497713
v -0.70216964812 0.595286315707 0.2497713
v -0.725268066682 0.583036097908 0.1959309
v -0.735833320173 0.569948254426 0.18572062
v -0.741530250179 0.561205565267 0.17170271
v -0.742876764684 0.558692688218 0.167119
v -0.760796276854 0.534820471882 0.17330337
v -0.762764304067 0.530894072585 0.16806483
v -0.76856478098 0.517178009841 0.14856589
v -0.78120160859 0.498279167091 0.14866289
v -0.800778391619 0.464878958611 0.14247853
v -0.784101904862 0.48707592358 0.13622141
v -0.811965042186 0.443990697048 0.13731277
v -0.817351215839 0.438336781503 0.14349714
v -0.834752820025 0.405512469588 0.1367307
v -0.836099334531 0.403104295749 0.1367307
v -0.385213026272 0.588375961637 0.005234
v -0.367604328271 0.545186031894 0.00700444
v -0.37682300944 0.533825762476 0.00887188
v -0.390599199925 0.570890583319 0.00678617
v -0.362528910971 0.513984590832 0.0095267
v -0.375269285489 0.608269513793 0.00387588
v -0.283807649039 0.403104295749 0.01428017
v -0.314260326281 0.433729840246 0.01350409
v -0.293751389823 0.403104295749 0.01508051
v -0.384902327734 0.636905697294 0.00426391
v -0.370918927804 0.643083186706 0.0034636
v -0.375994402918 0.651982959588 0.00399715
v -0.37133328888 0.674284627768 0.00436091
v -0.3639790302 0.689571296483 0.00491872
v -0.355796164998 0.700931508086 0.00528252
v -0.34854551104 0.715328170605 0.00632536
v -0.277385659419 0.767679602348 0.00938118
v -0.156817860233 0.792232418459 0.007732
v -0.232120917909 0.792232418459 0.01069081
v -0.202393300281 0.805948423388 0.01151538
v -0.168004568614 0.822125098299 0.01260674
v -0.152053141471 0.830396536288 0.01357687
v -0.146252606742 0.835788722715 0.01474097
v -0.120771799892 0.845944934122 0.01748151
v -0.104820430564 0.837935225251 0.01583233
v -0.110931663831 0.849452520577 0.01903364
v -0.097880475145 0.852070043021 0.02116787
v -0.0840006799371 0.856781745303 0.02449045
v -0.0611093551902 0.850918365522 0.02560607
v -0.0428792022969 0.846468507989 0.02824956
v -0.0344891854645 0.857985803315 0.03622863
v -0.0110799527339 0.857619313171 0.04275253
v 0.217936726013 0.879659310048 0.1232706
v -0.00911192552173 0.868456124353 0.04857311
v -0.0303459794097 0.93598940597 0.12586561
v -0.0445364731558 0.935256483498 0.11662543
v -0.0679457058865 0.936722386258 0.12152442
v -0.0918727887857 0.937507573613 0.12487125
v -0.0936336643674 0.937141141285 0.13840413
v -0.00911192552173 0.910337177243 0.07859764
v 0.0369814225102 0.899709888113 0.08211422
v 0.0185440601714 0.903008010332 0.07925245
v 0.00704665325166 0.900128643139 0.07340759
v -0.00527941800507 0.898767559219 0.06867838
v 0.217936726013 0.886255554487 0.12739351
v -0.0399789638401 0.932743664264 0.10896167
v -0.0479546195964 0.931644251647 0.10352913
v -0.023302477083 0.91232653824 0.07738501
v -0.0141874006363 0.918137537509 0.0867222
v -0.0427755975741 0.923006207884 0.08703747
v -0.0234060818058 0.923582162263 0.09266403
v -0.0679457058865 0.927246774627 0.09014177
v -0.0591413857931 0.930073703492 0.09773278
v -0.0983983831288 0.936408276627 0.14461276
v -0.0924943014923 0.929079051901 0.19243854
v -0.0725032730173 0.929654832835 0.19547009
v -0.0467116519985 0.919236950125 0.2497713
v -0.69781923262 0.600312069805 0.2497713
v -0.702894649919 0.609630655528 0.19612491
v -0.71273490161 0.598584495741 0.19440299
v -0.723092945655 0.585758381377 0.19071662
v -0.709523848985 0.60245845671 0.18130666
v -0.73137941558 0.57528806034 0.18142796
v -0.728893422569 0.576963311706 0.16949573
v -0.727754059693 0.57937154336 0.17565587
v -0.708488033018 0.597746870058 0.14829913
v -0.732104417379 0.567173648258 0.14878416
v -0.742876764684 0.552881688949 0.14810508
v -0.749920267011 0.538956219784 0.13988352
v -0.761935581915 0.522831983201 0.1412659
v -0.773433104464 0.504247250082 0.13823435
v -0.799638913114 0.463360790968 0.13723999
v -0.786173478982 0.479432647038 0.13161343
v -0.796117219766 0.464617229492 0.13141942
v -0.8083396863 0.444304806679 0.12989151
v -0.83247403646 0.404884250325 0.12962475
v -0.825534081041 0.419752048384 0.13452372
v -0.83361334152 0.403104295749 0.1300613
v -0.388009717822 0.612038771552 0.00472471
v -0.404893356209 0.591307651527 0.00698018
v -0.341398461806 0.467234751937 0.01253399
v -0.36532560252 0.486552465344 0.01306754
v -0.388631172713 0.532098188412 0.01052105
v -0.398471366589 0.549374102494 0.00981772
v -0.416597972575 0.562252597371 0.01083633
v -0.409140166987 0.588585368058 0.00765926
v -0.299241168198 0.403104295749 0.01554132
v -0.308563396275 0.403104295749 0.0165599
v -0.400439393801 0.634392820245 0.00579181
v -0.403132480628 0.648161263502 0.00630111
v -0.390599199925 0.67140531839 0.00571907
v -0.386870354946 0.688943077221 0.00644663
v -0.373508409907 0.698942147089 0.00608283
v -0.358592798732 0.713705241937 0.0065679
v -0.352585170187 0.740666231886 0.00933266
v -0.290540395013 0.78417027126 0.01238847
v -0.22103781425 0.818669892357 0.0145227
v -0.166554391571 0.833642393625 0.0148865
v -0.163654153114 0.840448044485 0.0165599
v -0.14428457953 0.845630824491 0.01745725
v -0.125640065561 0.856101145528 0.02143463
v -0.100055653988 0.86274977048 0.02565455
v -0.0882474907147 0.869136608498 0.03091735
v -0.0756106631047 0.872801220861 0.03499174
v -0.0674277979027 0.861231545022 0.02970472
v -0.0558267862602 0.860079867523 0.03157216
v -0.0450543811396 0.868194279604 0.03853261
v -0.02413114142 0.870707214468 0.04549307
v 0.217936726013 0.881282123086 0.1240952
v -0.00175772465681 0.878978710273 0.05655217
v -0.0469188614441 0.93452361884 0.11342412
v -0.0580019651028 0.933895399578 0.10915568
v -0.0773715386864 0.933371825711 0.10398993
v -0.0793395658985 0.935780057365 0.1137394
v -0.137759043002 0.934680586933 0.12023905
v -0.1346515951 0.935204102985 0.12778157
v -0.122532675474 0.935937025458 0.13057059
v -0.0983983831288 0.937141141285 0.13158917
v -0.103059497167 0.935465947734 0.11255103
v -0.112174631429 0.935675296339 0.11589786
v -0.022059509485 0.906463216274 0.07151592
v 0.0260018657591 0.896045275749 0.0760026
v 0.217936726013 0.884213870792 0.12572011
v 0.00248908612079 0.890286656994 0.06470099
v -0.0354213967092 0.887878483155 0.05308408
v -0.0300352230565 0.89625468217 0.06057805
v -0.0222666611155 0.898715178706 0.06450695
v -0.0796503222518 0.930126026189 0.09443447
v -0.0496119482704 0.909447228863 0.06865412
v -0.0373894239214 0.910860693295 0.07280129
v -0.0404968718238 0.919393976033 0.0824295
v -0.0593485374236 0.920284040044 0.08034378
v -0.0903191226496 0.923582162263 0.0808531
v -0.0636988951089 0.924838542973 0.08679494
v -0.101298621586 0.925780871866 0.0838604
v -0.133926535486 0.934471238327 0.13605163
v -0.118078713066 0.934471238327 0.14800808
v -0.122739827104 0.925990336102 0.19052261
v -0.112071026706 0.925885575077 0.19651294
v -0.123982794702 0.91154129307 0.2497713
v -0.090940577541 0.915205905433 0.2497713
v -0.0766464790721 0.916671692563 0.2497713
v -0.137344681926 0.932848309659 0.14558285
v -0.683939437412 0.615965170848 0.2497713
v -0.685389614455 0.614604029114 0.24892247
v -0.690879335016 0.623870234324 0.19442725
v -0.689947065956 0.62533607927 0.18482327
v -0.706002155637 0.606437178704 0.17483127
v -0.712009841996 0.597589786335 0.16796783
v -0.687668398021 0.622142602446 0.14883268
v -0.690050728494 0.61716922886 0.14216325
v -0.699787259832 0.603714953049 0.13903469
v -0.720917708997 0.581360904357 0.14764431
v -0.732311569009 0.563037900356 0.14155695
v -0.711699085643 0.58659600706 0.13658518
v -0.699165804941 0.598846224859 0.1325593
v -0.761210580115 0.519062667628 0.1360274
v -0.653590307077 0.643344973639 0.12125766
v -0.802228453033 0.448545315607 0.1257686
v -0.822633842584 0.411585197974 0.1200693
v -0.820147907388 0.421950815802 0.12605962
v -0.829366646372 0.403104295749 0.12237325
v -0.833199096074 0.403104295749 0.12913969
v -0.397953458605 0.61355699701 0.00574332
v -0.423434265456 0.621566763696 0.00860509
v -0.349477722285 0.458073249936 0.01469246
v -0.35134220259 0.446712980518 0.0165599
v -0.382002089277 0.496813322145 0.01420742
v -0.406032776899 0.540945580782 0.01190343
v -0.419498211031 0.551991740569 0.01265526
v -0.759035401273 0.403104295749 0.09266403
v -0.425609444298 0.561990868252 0.01255825
v -0.421673447689 0.573769950512 0.01066655
v -0.427577529326 0.617116906163 0.00933266
v -0.431824282288 0.586857793994 0.01158816
v -0.319957256287 0.403104295749 0.01813632
v -0.324411218696 0.408705888597 0.01791805
v -0.417323032189 0.634916394112 0.00778052
v -0.408622259003 0.668316602592 0.00761074
v -0.418358848156 0.660149752182 0.00862935
v -0.40002509054 0.678211027065 0.00707722
v -0.396814037915 0.699046850299 0.00836259
v -0.381794879832 0.703706172069 0.00714996
v -0.368018689347 0.723233234081 0.00804728
v -0.369675960206 0.742812676607 0.01069081
v -0.362528910971 0.749094811414 0.01117587
v -0.361078791743 0.761397409726 0.01323733
v -0.300173379443 0.792808199393 0.01461971
v -0.258119690558 0.809508390356 0.01495925
v -0.25252630746 0.8182510217 0.01648715
v -0.218862635407 0.832438335614 0.01760274
v -0.192656768943 0.844426766479 0.01930043
v -0.157750071477 0.852436533165 0.02014926
v -0.16013240195 0.858614022578 0.02284127
v -0.140555676736 0.864267938123 0.02546054
v -0.118182317788 0.864163292727 0.02558181
v -0.117975108343 0.871387756428 0.02965623
v -0.110931663831 0.877146375184 0.03360936
v -0.0985019878516 0.879083355668 0.03620437
v -0.0848293442741 0.885260845081 0.04195219
v -0.0743676955067 0.879711574931 0.03967246
v -0.047333164705 0.878874007063 0.04418343
v -0.0613165646358 0.869817208273 0.03584057
v -0.0172947907237 0.880130445587 0.05274454
v -0.10316310189 0.934000044973 0.1048145
v -0.094255177074 0.931958361278 0.09792683
v -0.130404784322 0.934209509209 0.11279356
v -0.149152903014 0.932324793607 0.10905868
v -0.163757757837 0.930754245452 0.10542083
v -0.153606865422 0.933110038777 0.11747429
v -0.153296109069 0.933267180316 0.12484702
v -0.154539076667 0.932848309659 0.13226825
v -0.111760270353 0.934680586933 0.11000451
v -0.0459866501994 0.905154397237 0.06521028
v -0.0141874006363 0.887616638407 0.0584681
v -0.0442257746177 0.88300981278 0.04770002
v -0.0489904355639 0.889606057219 0.05119237
v -0.0623523806032 0.903426823173 0.06069934
v -0.0733318795392 0.909708957981 0.06542856
v -0.0619380195272 0.914577686171 0.07260728
v -0.0861759165948 0.91426357654 0.06889665
v -0.113313994304 0.919551059756 0.07362586
v -0.115696382592 0.916619369866 0.06904218
v -0.126779486251 0.927717852351 0.08791056
v -0.106995609407 0.928974290875 0.09096637
v -0.121704011137 0.922273343226 0.07767603
v -0.123464886718 0.924681517065 0.08165342
v -0.154124773406 0.920755059953 0.19493654
v -0.171526319778 0.928450832638 0.14684397
v -0.127400941143 0.911331886649 0.24853441
v -0.155264136281 0.90656786167 0.2497713
v -0.672234821047 0.62884360791 0.2497713
v -0.661255264295 0.641617341761 0.24783111
v -0.653901063431 0.650569495155 0.24538159
v -0.665294923443 0.650517114643 0.19668272
v -0.673581335552 0.642612051167 0.19205052
v -0.69274381532 0.621828492814 0.17868742
v -0.660012296697 0.657218062292 0.18217975
v -0.658251421116 0.659050397381 0.1740067
v -0.679381928096 0.635439910163 0.16670671
v -0.668091614992 0.644549031651 0.1481536
v -0.660219448328 0.651825875865 0.14407918
v -0.656594150257 0.653344043508 0.13796759
v -0.654418971414 0.652663501548 0.13129815
v -0.681971352385 0.622404389379 0.1340872
v -0.656801359702 0.645124870401 0.12557459
v -0.627902348596 0.672033537652 0.11769253
v -0.590613320658 0.700460372547 0.10309258
v -0.550734810616 0.726112601274 0.08497602
v -0.823876810182 0.403104295749 0.11580086
v -0.828745133666 0.403104295749 0.12147593
v -0.825948384302 0.403104295749 0.11783805
v -0.434828125468 0.624289047166 0.0104968
v -0.367604328271 0.452785824535 0.01840308
v -0.378894641375 0.47304580902 0.01723897
v -0.40002509054 0.518539151576 0.01401341
v -0.772293683774 0.403104295749 0.09518629
v -0.323582612174 0.403104295749 0.01874262
v -0.440214356936 0.618373344687 0.01175791
v -0.434310217484 0.65690395266 0.0109576
v -0.429752708168 0.667531299606 0.01061806
v -0.420326875368 0.677949240131 0.00981772
v -0.412247557074 0.697214573025 0.01010877
v -0.396917642638 0.720353866888 0.0105938
v -0.380862668587 0.72982947852 0.00993899
v -0.386041690609 0.738153354837 0.01170942
v -0.374544225875 0.757313984521 0.01374662
v -0.37154044051 0.768569550729 0.0159536
v -0.346473879105 0.77919695549 0.01580808
v -0.312603055423 0.798514553267 0.0169237
v -0.251076188231 0.829506587908 0.01932466
v -0.234296154567 0.839139283263 0.02082834
v -0.219173391761 0.849609546485 0.02342334
v -0.189756472671 0.855158816635 0.02315655
v -0.17556592111 0.865210267016 0.02684292
v -0.155367741004 0.868927259892 0.02803129
v -0.145527547128 0.875732968567 0.03162065
v -0.130611935953 0.883166780873 0.03700471
v -0.107099156314 0.884266251305 0.03889638
v -0.0674277979027 0.883428567807 0.04345584
v -0.105234733825 0.892118934268 0.04534754
v -0.0771643870559 0.89070541202 0.04716647
v -0.119114529033 0.932167709884 0.10030356
v -0.142523703949 0.93227247091 0.10607564
v -0.151120930227 0.931120735595 0.10323811
v -0.15692140714 0.928817322782 0.09613213
v -0.183438087773 0.927508503745 0.10168594
v -0.183023726697 0.928869587665 0.10939822
v -0.173597893897 0.93091127136 0.12244603
v -0.1767053418 0.929654832835 0.13345662
v -0.0603842955759 0.895992895237 0.0545392
v -0.0744713002295 0.899238694758 0.05495149
v -0.0906298211878 0.899971617231 0.05354485
v -0.0958089010252 0.910284854546 0.06319731
v -0.120253891908 0.909290145139 0.06062657
v -0.146770514726 0.906881971301 0.05764353
v -0.146149059835 0.911855402701 0.06341559
v -0.145527547128 0.91787580839 0.07185546
v -0.148945751384 0.926409091128 0.08747402
v -0.142730913394 0.929079051901 0.09358561
v -0.1484278434 0.92321567212 0.08051357
v -0.133822930763 0.920755059953 0.07583284
v -0.193071072204 0.913687679975 0.19515482
v -0.190377985377 0.924943246183 0.14842039
v -0.200528877791 0.925204975302 0.13629416
v -0.18519890554 0.901123352545 0.2497713
v -0.662705441339 0.639313871132 0.2497713
v -0.646029012397 0.656956333173 0.2497713
v -0.627384498428 0.675541066292 0.2497713
v -0.640228419853 0.665123125767 0.24249557
v -0.649239949392 0.667321893185 0.19435447
v -0.620133786655 0.697476359959 0.17444324
v -0.636292365429 0.678943891722 0.14832336
v -0.668505918253 0.647480721542 0.16910771
v -0.648722099223 0.665018480372 0.14497653
v -0.638778300625 0.67140531839 0.13391742
v -0.630181132162 0.679100975445 0.13074034
v -0.642817959772 0.663395551704 0.1278058
v -0.635256549461 0.666431944805 0.12108788
v -0.579530216999 0.715694602934 0.10476601
v -0.589163201429 0.706166668605 0.10658494
v -0.610915105486 0.693131147821 0.11960849
v -0.558814071095 0.726583736813 0.09283382
v -0.53260820463 0.736530541799 0.07653618
v -0.820769420094 0.403104295749 0.11323011
v -0.447879314154 0.645700766965 0.01355261
v -0.777265554166 0.403104295749 0.09639892
v -0.455751423002 0.641198528919 0.01544428
v -0.445704135311 0.658631526724 0.01350409
v -0.444150353545 0.682713265111 0.01457119
v -0.426956016619 0.691403573757 0.01183069
v -0.40851865428 0.719149808877 0.0120247
v -0.405722020546 0.741556238082 0.01520175
v -0.395985431393 0.75914631961 0.01743299
v -0.380344760603 0.785112600153 0.02250174
v -0.351031446236 0.80443031356 0.02337483
v -0.320268012641 0.804377933048 0.01930043
v -0.277903567403 0.832228871378 0.02293828
v -0.277074903066 0.837987490133 0.02478147
v -0.240925295817 0.85029014626 0.02560607
v -0.206018656167 0.860498680364 0.02679443
v -0.186649082583 0.872173001599 0.03125688
v -0.16634723994 0.877408162117 0.03326982
v -0.167072299554 0.884685006331 0.03821731
v -0.1390020106 0.887354909288 0.03981799
v -0.132890719518 0.891961850545 0.04350436
v -0.123568491441 0.899709888113 0.05065882
v -0.186856234214 0.921435659728 0.08405441
v -0.187995597089 0.923372698028 0.09021455
v -0.195660554307 0.926199684708 0.10512978
v -0.206329354705 0.92206387899 0.09411919
v -0.209747501146 0.924367407434 0.1087434
v -0.1861311746 0.928869587665 0.11548558
v -0.197214278258 0.926984929878 0.12528357
v -0.105752641809 0.906672622695 0.05863786
v -0.121600464229 0.904159745646 0.05524254
v -0.156403499156 0.903688494477 0.05439371
v -0.17370149862 0.912850112107 0.06651992
v -0.153088957439 0.91426357654 0.06719899
v -0.160236006673 0.910127828638 0.06225148
v -0.159718098689 0.91902760152 0.07476574
v -0.175358769479 0.919341711151 0.07787004
v -0.220312754636 0.907562571076 0.19537309
v -0.211197678189 0.921435659728 0.147232
v -0.215340884244 0.922849181976 0.13389316
v -0.226320440995 0.891019521651 0.2497713
v -0.607393412138 0.693183528333 0.2497713
v -0.594860131435 0.716636931827 0.1959309
v -0.612986737421 0.700512695245 0.19634318
v -0.623448386188 0.691770006086 0.19374818
v -0.635463758907 0.680095684851 0.19656146
v -0.598899732767 0.716008712565 0.17422497
v -0.561714367367 0.74872832127 0.14803234
v -0.591959892978 0.721872092346 0.14866289
v -0.605839688186 0.709307764916 0.14766854
v -0.600867817795 0.712239454807 0.19180799
v -0.614229705019 0.699832153285 0.14211476
v -0.594342223452 0.718416886404 0.13537258
v -0.615679824247 0.695539321659 0.1317347
v -0.598071184061 0.709307764916 0.12251878
v -0.591234775549 0.71103533898 0.11463675
v -0.558296220926 0.736059348445 0.10200122
v -0.538719495712 0.744906740814 0.08958396
v -0.527843485869 0.74736723735 0.08104712
v -0.544623577349 0.747105508232 0.09829059
v -0.51769265127 0.750037140307 0.07401392
v -0.520903588265 0.742655592883 0.07137039
v -0.532401053 0.728206607667 0.07166141
v -0.81890493979 0.403104295749 0.1118477
v -0.789695287961 0.403104295749 0.09950322
v -0.453265487807 0.673708789018 0.01634163
v -0.45885881309 0.67412760186 0.01801506
v -0.459169569443 0.690408864351 0.0197612
v -0.443528898653 0.705329042922 0.01711771
v -0.441975174702 0.69517288933 0.01554132
v -0.432963702978 0.714124054778 0.01585656
v -0.422294902581 0.715014060974 0.01384363
v -0.426127352282 0.731923600543 0.01748151
v -0.408000804112 0.752707043264 0.01813632
v -0.404789751486 0.765009641576 0.02111936
v -0.400232242171 0.780086846055 0.02543628
v -0.360664430667 0.804377933048 0.02529079
v -0.329279484365 0.825370840006 0.02776453
v -0.304834493482 0.82730782049 0.0244177
v -0.267234767005 0.848562572196 0.02788579
v -0.221970025495 0.864110912215 0.02994725
v -0.204154175862 0.873743549754 0.03397316
v -0.184370299018 0.883795000135 0.03862962
v -0.18540605717 0.894265321173 0.04731199
v -0.160028855043 0.890338979691 0.04255849
v -0.152571049455 0.896359385381 0.04733622
v -0.213580008662 0.918347001745 0.08749828
v -0.18934216941 0.915834124696 0.07479
v -0.203221964618 0.915886505208 0.07806408
v -0.219691241929 0.911907725399 0.07556605
v -0.219173391761 0.92117393061 0.10086137
v -0.232431674262 0.916671692563 0.09331885
v -0.239578723497 0.918137537509 0.11065933
v -0.211094073466 0.924262646408 0.11172643
v -0.226423987903 0.920231659531 0.10483876
v -0.251283339862 0.914630008869 0.10287431
v -0.203843419509 0.925676226471 0.1173045
v -0.225595323566 0.921592743451 0.11985102
v -0.171940623038 0.899029288338 0.05058604
v -0.172976439006 0.907196080932 0.05994749
v -0.184266694295 0.913111841226 0.06899366
v -0.193278223834 0.906358513064 0.06123286
v -0.266613254298 0.895835811514 0.19345716
v -0.242375415046 0.913897086396 0.14820212
v -0.259776961417 0.909813719006 0.14667422
v -0.232431674262 0.918713491888 0.13571212
v -0.221866478587 0.919812788875 0.14274532
v -0.231499463017 0.919760466177 0.12853339
v -0.251801247846 0.915258285946 0.12732077
v -0.248797404666 0.884999115962 0.2497713
v -0.598381882599 0.700931508086 0.2497713
v -0.580255276613 0.715642280236 0.2497713
v -0.570207931107 0.736530541799 0.19583389
v -0.586262962972 0.727002549655 0.17340037
v -0.543484156658 0.763596119329 0.14609215
v -0.546487999838 0.760873951489 0.14046559
v -0.567929205356 0.742917322002 0.14189649
v -0.564925362177 0.744644953881 0.1345965
v -0.562439426981 0.745953715103 0.13035232
v -0.542551945414 0.761397409726 0.11975402
v -0.567618449003 0.736216432168 0.1156311
v -0.584916390652 0.723756807948 0.12608388
v -0.560782156122 0.738048651627 0.10801584
v -0.521835799509 0.763229744815 0.09026304
v -0.511892058726 0.758989178072 0.07653618
v -0.525771911749 0.766266080101 0.09901816
v -0.490761667376 0.775427524286 0.07219499
v -0.500705408159 0.755219920314 0.06419167
v -0.512927932508 0.743859650895 0.06649566
v -0.508784668638 0.741399154359 0.0623
v -0.490450911022 0.746739018088 0.05255049
v -0.522250160585 0.732080626451 0.06673819
v -0.521317891526 0.725903137038 0.06317309
v -0.815176036996 0.403104295749 0.10966498
v -0.500705408159 0.734279393868 0.05342358
v -0.493454754202 0.72993418173 0.04726347
v -0.803678572261 0.403104295749 0.10425669
v -0.456165726263 0.702135623913 0.02075559
v -0.450986704241 0.701873836979 0.01886389
v -0.450054492996 0.719463918508 0.02177417
v -0.43979999586 0.725693730618 0.01983398
v -0.434828125468 0.734907613131 0.02044028
v -0.426438108635 0.746791398601 0.02107084
v -0.420637573907 0.760664487253 0.02383563
v -0.425298687945 0.766684892942 0.02781302
v -0.404996960932 0.788829593029 0.03086883
v -0.375994402918 0.804220849325 0.02907416
v -0.349892083361 0.821706285457 0.03072333
v -0.312810207053 0.839086960565 0.03118411
v -0.300173379443 0.837673380502 0.02827382
v -0.286811492219 0.847253753159 0.03055355
v -0.280803805859 0.858456938854 0.03559807
v -0.258326842189 0.854897087517 0.02994725
v -0.246207922562 0.863953828492 0.03307581
v -0.239785875127 0.873795930267 0.0383386
v -0.209436744792 0.880706284337 0.03906617
v -0.192035256236 0.889291947588 0.04391664
v -0.211819133081 0.892014173242 0.04859737
v -0.209436744792 0.896725875524 0.05313256
v -0.185820418246 0.901123352545 0.05456346
v -0.234399701474 0.912797731595 0.08398166
v -0.243204079383 0.91290237699 0.08895341
v -0.203636267879 0.911907725399 0.07154018
v -0.218241122701 0.906986732326 0.06717473
v -0.241650355432 0.905730293802 0.07311657
v -0.241753902339 0.909185499744 0.07973748
v -0.262780804597 0.910808428413 0.09896967
v -0.257394573129 0.914001789606 0.1123085
v -0.241650355432 0.917980511601 0.11728024
v -0.289815335398 0.903479145871 0.10224375
v -0.280389502599 0.907300841957 0.11112013
v -0.204361327493 0.903165094055 0.05921993
v -0.288468763078 0.888454321905 0.19491228
v -0.303384374253 0.868246660117 0.2497713
v -0.288261611447 0.901699191295 0.14529181
v -0.271067216706 0.907824300194 0.13961676
v -0.286293584235 0.903897958713 0.13714299
v -0.258326842189 0.913582976765 0.12215498
v -0.276556995082 0.908557280482 0.11975402
v -0.271792276321 0.909708957981 0.12545332
v -0.289297427415 0.904054984621 0.13015831
v -0.563060939687 0.728834769114 0.2497713
v -0.548145270697 0.754434617328 0.19476676
v -0.536855015408 0.768307821611 0.1494875
v -0.525668364841 0.776945807559 0.14897817
v -0.519660678482 0.781762097421 0.14643168
v -0.530640177418 0.773438221104 0.13474199
v -0.528361451668 0.773909414458 0.12285832
v -0.547523815805 0.757994584296 0.12482277
v -0.528050695314 0.771972376159 0.1142002
v -0.531572388662 0.765480777115 0.10648793
v -0.513342235769 0.772862382354 0.0923245
v -0.500394651806 0.780400955686 0.08696473
v -0.498115868241 0.777940401335 0.08153218
v -0.492833241495 0.794117018431 0.09775704
v -0.509406181345 0.778516355715 0.09581685
v -0.485789796984 0.785060277456 0.07714248
v -0.469941974564 0.791813605618 0.06976974
v -0.469527613488 0.78495551643 0.0637309
v -0.470977732716 0.774380549997 0.05655217
v -0.489829398316 0.754801107472 0.05677044
v -0.460930445025 0.764538448222 0.0440864
v -0.473670877358 0.748780701783 0.0435771
v -0.810929226218 0.403104295749 0.10723975
v -0.460516083949 0.746581934365 0.03525853
v -0.468077494259 0.726688440024 0.03220272
v -0.804092933337 0.403104295749 0.10442647
v -0.460516083949 0.712187074294 0.02446619
v -0.460516083949 0.719568621718 0.02613962
v -0.446636288741 0.735535832393 0.02468446
v -0.444461109898 0.746215444221 0.02718246
v -0.435242486544 0.772024756671 0.03433692
v -0.414319189009 0.788829593029 0.03460371
v -0.391117107909 0.804849068587 0.03431267
v -0.373301258277 0.811393048143 0.03183892
v -0.354967500661 0.830187187683 0.03702897
v -0.329900997071 0.843379734375 0.03785354
v -0.311256483102 0.845054985741 0.03436118
v -0.303177222623 0.860969815903 0.04306781
v -0.271170821429 0.86897958259 0.04105484
v -0.25687672296 0.868142014722 0.03758675
v -0.260812777385 0.876570536434 0.04464421
v -0.230049343789 0.883847380648 0.04440171
v -0.241132447448 0.88992016685 0.05245352
v -0.228288468207 0.898034578931 0.0583711
v -0.261641383906 0.906306132551 0.08342385
v -0.271170821429 0.906096783946 0.08982649
v -0.22725265224 0.901908655531 0.06268802
v -0.244861350242 0.901594545899 0.06768402
v -0.275417632207 0.900338107375 0.07864612
v -0.265888194684 0.897772849813 0.06947872
v -0.302348558286 0.896882901432 0.09108764
v -0.317989229075 0.893794127819 0.10086137
v -0.297065989356 0.901908655531 0.10748228
v -0.302348558286 0.90044275277 0.11708623
v -0.310945784564 0.88164861323 0.19195348
v -0.310117120227 0.894422347081 0.14621341
v -0.311877995808 0.86500091841 0.2497713
v -0.336737347767 0.871544782336 0.19580963
v -0.309081304259 0.896621114499 0.13607588
v -0.32606854737 0.891019521651 0.13299584
v -0.296962384633 0.901699191295 0.12676296
v -0.544830728979 0.742341483252 0.2497713
v -0.530225816342 0.766999002573 0.19537309
v -0.521525043156 0.775218233496 0.18382892
v -0.496562144289 0.798619314292 0.14650443
v -0.491797483343 0.802336191538 0.13525131
v -0.496147841028 0.799195153042 0.12984303
v -0.487343520935 0.80568669427 0.12494403
v -0.513652934307 0.785897845324 0.12535632
v -0.489518641963 0.80217916563 0.11148393
v -0.504745067306 0.78825363865 0.10665768
v -0.522871615477 0.774537633721 0.10985902
v -0.484339677755 0.797624604886 0.09186369
v -0.46828464589 0.8029644108 0.08068332
v -0.473152969374 0.807990164898 0.09448296
v -0.485375493723 0.802597920656 0.10372314
v -0.447257801447 0.811393048143 0.07115212
v -0.4526439751 0.8010273725 0.06499201
v -0.450468796257 0.795897030822 0.05892891
v -0.460930445025 0.776683962811 0.05153191
v -0.441042963458 0.782076207053 0.04323757
v -0.458030206568 0.759460429241 0.03984225
v -0.452229671839 0.758465719835 0.03627712
v -0.458444509829 0.733755820001 0.02960771
v -0.447775709431 0.752759423777 0.03164491
v -0.424884442499 0.796263520966 0.04381964
v -0.407068535052 0.8049014491 0.04073957
v -0.376201554549 0.818617511844 0.03688344
v -0.367811479901 0.828511878502 0.04044855
v -0.349374175377 0.841547457101 0.04323757
v -0.339844737855 0.849766630208 0.04590535
v -0.328243726212 0.851075449245 0.04297081
v -0.313949627743 0.86274977048 0.04782128
v -0.292715573855 0.869136608498 0.04675418
v -0.282046773457 0.878874007063 0.05233222
v -0.250972583509 0.884580360936 0.04932493
v -0.263091503135 0.889972547363 0.05817708
v -0.289090275784 0.899395778481 0.08611587
v -0.294994357421 0.890810115231 0.07268003
v -0.295097904328 0.894998243646 0.08029529
v -0.282668228349 0.889396650798 0.06487074
v -0.290540395013 0.890338979691 0.06991526
v -0.3168498662 0.89002487006 0.08655241
v -0.337151651028 0.885208580198 0.09630191
v -0.332386932267 0.888977837957 0.1077733
v -0.330522509778 0.890286656994 0.11196896
v -0.308149093014 0.898348688563 0.11926895
v -0.347716846703 0.879188116694 0.14859015
v -0.326379245908 0.859346887235 0.2497713
v -0.380241155881 0.852750642796 0.19576114
v -0.357660587487 0.84667791441 0.2497713
v -0.333629899865 0.85641525516 0.2497713
v -0.35175650585 0.880025684562 0.1356636
v -0.329175937457 0.890391360204 0.12591413
v -0.348027603057 0.882590942124 0.12761179
v -0.533540415875 0.750194166215 0.2497713
v -0.513860085938 0.777521646309 0.19631892
v -0.483821769772 0.797781630794 0.19440299
v -0.52017852865 0.759303287703 0.2497713
v -0.467663190998 0.817151666899 0.14854163
v -0.484339677755 0.807309622938 0.14238152
v -0.480817926592 0.809927145383 0.13762805
v -0.45678723897 0.826208465689 0.1267387
v -0.462069865715 0.822439150115 0.1162374
v -0.478331991396 0.811445313025 0.11997229
v -0.49169387862 0.801707972275 0.11922044
v -0.462380564253 0.82097330517 0.11010152
v -0.462898472237 0.81814631849 0.1018557
v -0.461137596655 0.812440022432 0.08618864
v -0.446739893464 0.817361073319 0.07794282
v -0.451504612225 0.824166781994 0.09652019
v -0.444668319344 0.826889065464 0.0917182
v -0.423123509102 0.824166781994 0.06574383
v -0.429649103445 0.814377060731 0.06099036
v -0.42716316825 0.811707157774 0.0570372
v -0.438142725001 0.797624604886 0.05225947
v -0.447982861061 0.78610730956 0.05017376
v -0.423745021809 0.802336191538 0.04755449
v -0.397953458605 0.813696460956 0.04265553
v -0.389977745034 0.82380029185 0.04602659
v -0.367811479901 0.833799419533 0.04440171
v -0.363461122216 0.844583850202 0.05119237
v -0.343884397002 0.854739945978 0.0520412
v -0.326172094277 0.866780815172 0.0558731
v -0.299034016568 0.875575827028 0.05492726
v -0.289711730676 0.881334503599 0.05781329
v -0.322443191483 0.881020393968 0.07328635
v -0.333940656218 0.879397465299 0.07791856
v -0.303384374253 0.884161490279 0.06673819
v -0.333526295142 0.874267065806 0.06865412
v -0.31063502821 0.890496005599 0.08284181
v -0.335390775447 0.884004406556 0.09014177
v -0.328658029473 0.883795000135 0.08308432
v -0.362943214232 0.87384831078 0.09552583
v -0.358489251824 0.877826974959 0.10510552
v -0.354449592677 0.880235148798 0.1108776
v -0.340259041116 0.886464960907 0.11616465
v -0.371229684157 0.869555479154 0.14538881
v -0.370090263467 0.869346014918 0.14854163
v -0.409450865525 0.838877554144 0.1959309
v -0.405825567454 0.825632626939 0.2497713
v -0.397435550621 0.829349562 0.2497713
v -0.392774436583 0.831548271603 0.24921349
v -0.392981588213 0.858718667973 0.14878416
v -0.365429149428 0.874685878648 0.12996426
v -0.381069820218 0.86751379546 0.13251078
v -0.369572355483 0.871387756428 0.13978651
v -0.377444464331 0.869817208273 0.12501678
v -0.366982815564 0.874790639673 0.1157766
v -0.493661963648 0.776108124061 0.2497713
v -0.472013606499 0.789771921923 0.2497713
v -0.462484168976 0.810712448368 0.19411194
v -0.472531456667 0.805843777993 0.18880069
v -0.451401065317 0.827569549608 0.14604363
v -0.457305089139 0.824742620743 0.13847688
v -0.461862656269 0.82233450472 0.13413569
v -0.447257801447 0.831548271603 0.13168621
v -0.427370377695 0.843850869914 0.12964898
v -0.435553242897 0.839139283263 0.11628589
v -0.447154196724 0.83092005234 0.11133841
v -0.442493082686 0.831967142259 0.10214674
v -0.441353719811 0.825789710662 0.08550957
v -0.44114656818 0.823329098496 0.08114412
v -0.41587291296 0.837935225251 0.07816109
v -0.425920200652 0.841076263747 0.0981451
v -0.411004647291 0.847044346738 0.09004477
v -0.416287216221 0.842437405482 0.08694047
v -0.423537870178 0.835788722715 0.0828903
v -0.396503281562 0.838877554144 0.06390065
v -0.40644708016 0.828407233106 0.05909866
v -0.417219427466 0.81688993778 0.05512127
v -0.41908390777 0.83092005234 0.07141891
v -0.391635015893 0.847044346738 0.07037604
v -0.396399734654 0.826313168899 0.05145913
v -0.381587728201 0.838249334882 0.05402991
v -0.365221997797 0.856938713396 0.064895
v -0.352895926541 0.856834010186 0.05844384
v -0.337980315365 0.868456124353 0.0639734
v -0.324825579772 0.871230672705 0.06048107
v -0.3074240334 0.8782457878 0.06118438
v -0.351860110573 0.86966012455 0.07457173
v -0.360042975775 0.868560769748 0.07925245
v -0.358489251824 0.871387756428 0.08347237
v -0.360871640112 0.863063880111 0.07081258
v -0.349166965932 0.877251136209 0.08820158
v -0.375994402918 0.865419673437 0.08943847
v -0.387491809838 0.861126841811 0.09360987
v -0.38945983705 0.862383280336 0.10112813
v -0.369779507113 0.873115330492 0.1083796
v -0.391117107909 0.861912144797 0.13760379
v -0.42208775095 0.834218232375 0.18833989
v -0.440214356936 0.823433859521 0.19423324
v -0.435035334913 0.810869474276 0.24923775
v -0.412247557074 0.822386769602 0.2497713
v -0.406757778699 0.825423220518 0.24889821
v -0.403961087149 0.854739945978 0.14189649
v -0.40530765947 0.854897087517 0.13588187
v -0.382623486354 0.867670763552 0.12062708
v -0.397021247361 0.860184570733 0.12361014
v -0.434828125468 0.810817093763 0.2497713
v -0.428924043831 0.839924528433 0.14878416
v -0.436899757403 0.83704516124 0.13944697
v -0.404789751486 0.856519900555 0.11815333
v -0.415147795531 0.848038998329 0.14580113
v -0.423952173439 0.845159688952 0.11252677
v -0.428509682755 0.841652102496 0.10609987
v -0.398367761866 0.850028359327 0.0813624
v -0.405411264193 0.85301242973 0.09790257
v -0.388631172713 0.857148119817 0.08500028
v -0.376305101456 0.84678261762 0.06019002
v -0.387698961468 0.853221778336 0.07687569
v -0.375787193473 0.858299912946 0.07469299
v -0.37661585781 0.861074461299 0.08034378
v -0.388216869452 0.86421555761 0.10753077
v -0.404375448225 0.855630009989 0.10964075
f 1 2 6
f 1 6 27
f 1 27 59
f 1 59 103
f 1 103 102
f 1 102 101
f 1 101 100
f 1 100 99
f 1 99 149
f 1 149 148
f 1 148 205
f 1 205 267
f 1 267 266
f 1 266 329
f 1 329 403
f 1 403 479
f 1 479 493
f 1 493 415
f 1 415 340
f 1 340 277
f 1 277 275
f 1 275 274
f 1 274 210
f 1 210 154
f 1 154 153
f 1 153 113
f 1 113 70
f 1 70 69
f 1 69 68
f 1 68 60
f 1 60 28
f 1 28 7
f 1 7 3
f 1 3 4
f 1 4 9
f 1 9 32
f 1 32 71
f 1 71 115
f 1 115 164
f 1 164 221
f 1 221 285
f 1 285 350
f 1 350 355
f 1 355 354
f 1 354 427
f 1 427 512
f 1 512 511
f 1 511 510
f 1 510 601
f 1 601 676
f 1 676 736
f 1 736 805
f 1 805 869
f 1 869 933
f 1 933 985
f 1 985 988
f 1 988 987
f 1 987 1038
f 1 1038 1037
f 1 1037 1090
f 1 1090 1096
f 1 1096 1047
f 1 1047 1046
f 1 1046 995
f 1 995 992
f 1 992 938
f 1 938 877
f 1 877 807
f 1 807 806
f 1 806 737
f 1 737 679
f 1 679 678
f 1 678 677
f 1 677 602
f 1 602 514
f 1 514 428
f 1 428 356
f 1 356 289
f 1 289 226
f 1 226 225
f 1 225 224
f 1 224 223
f 1 223 169
f 1 169 117
f 1 117 73
f 1 73 34
f 1 34 10
f 1 10 5
f 1 5 2
f 2 5 11
f 2 11 36
f 2 36 77
f 2 77 122
f 2 122 179
f 2 179 237
f 2 237 236
f 2 236 302
f 2 302 370
f 2 370 448
f 2 448 533
f 2 533 532
f 2 532 621
f 2 621 622
f 2 622 620
f 2 620 695
f 2 695 759
f 2 759 829
f 2 829 899
f 2 899 902
f 2 902 832
f 2 832 760
f 2 760 697
f 2 697 627
f 2 627 541
f 2 541 628
f 2 628 546
f 2 546 458
f 2 458 457
f 2 457 379
f 2 379 377
f 2 377 309
f 2 309 244
f 2 244 184
f 2 184 129
f 2 129 123
f 2 123 78
f 2 78 42
f 2 42 41
f 2 41 40
f 2 40 39
f 2 39 38
f 2 38 37
f 2 37 12
f 2 12 6
f 3 7 8
f 3 8 4
f 4 8 9
f 5 10 11
f 6 12 13
f 6 13 14
f 6 14 15
f 6 15 16
f 6 16 17
f 6 17 18
f 6 18 19
f 6 19 20
f 6 20 21
f 6 21 22
f 6 22 23
f 6 23 24
f 6 24 25
f 6 25 26
f 6 26 27
f 7 28 8
f 8 29 30
f 8 30 9
f 8 28 31
f 8 31 29
f 9 30 33
f 9 33 32
f 10 34 35
f 10 35 36
f 10 36 11
f 12 37 13
f 13 37 38
f 13 38 39
f 13 39 40
f 13 40 41
f 13 41 42
f 13 42 43
f 13 43 44
f 13 44 45
f 13 45 46
f 13 46 14
f 14 46 15
f 15 46 45
f 15 45 47
f 15 47 16
f 16 47 48
f 16 48 17
f 17 48 18
f 18 48 49
f 18 49 50
f 18 50 19
f 19 50 20
f 20 51 21
f 20 50 52
f 20 52 51
f 21 51 53
f 21 53 22
f 22 53 54
f 22 54 23
f 23 54 55
f 23 55 24
f 24 55 25
f 25 55 56
f 25 56 57
f 25 57 26
f 26 57 58
f 26 58 27
f 27 58 59
f 28 60 31
f 29 61 33
f 29 33 30
f 29 31 62
f 29 62 63
f 29 63 64
f 29 64 65
f 29 65 66
f 29 66 67
f 29 67 61
f 31 68 69
f 31 69 70
f 31 70 62
f 31 60 68
f 32 33 72
f 32 72 71
f 33 61 72
f 34 73 74
f 34 74 35
f 35 74 75
f 35 75 76
f 35 76 77
f 35 77 36
f 42 78 79
f 42 79 43
f 43 80 44
f 43 79 78
f 43 78 81
f 43 81 80
f 44 80 82
f 44 82 83
f 44 83 84
f 44 84 85
f 44 85 45
f 45 85 47
f 47 85 86
f 47 86 49
f 47 49 48
f 49 87 88
f 49 88 89
f 49 89 50
f 49 86 87
f 50 89 52
f 51 90 53
f 51 52 91
f 51 91 90
f 52 89 92
f 52 92 91
f 53 93 54
f 53 90 93
f 54 93 94
f 54 94 55
f 55 94 95
f 55 95 56
f 56 96 97
f 56 97 57
f 56 95 96
f 57 97 98
f 57 98 58
f 58 98 99
f 58 99 100
f 58 100 101
f 58 101 102
f 58 102 103
f 58 103 59
f 61 104 72
f 61 67 105
f 61 105 104
f 62 70 106
f 62 106 107
f 62 107 108
f 62 108 64
f 62 64 63
f 64 109 65
f 64 108 110
f 64 110 111
f 64 111 109
f 65 109 66
f 66 105 67
f 66 109 112
f 66 112 105
f 70 113 114
f 70 114 106
f 71 72 115
f 72 104 116
f 72 116 115
f 73 117 74
f 74 118 119
f 74 119 120
f 74 120 75
f 74 117 118
f 75 120 76
f 76 120 77
f 77 120 121
f 77 121 122
f 78 123 81
f 80 81 124
f 80 124 125
f 80 125 126
f 80 126 127
f 80 127 128
f 80 128 82
f 81 123 129
f 81 129 130
f 81 130 131
f 81 131 126
f 81 126 125
f 81 125 124
f 82 128 132
f 82 132 84
f 82 84 83
f 84 132 133
f 84 133 134
f 84 134 135
f 84 135 87
f 84 87 85
f 85 87 86
f 87 135 88
f 88 135 89
f 89 135 136
f 89 136 92
f 90 91 137
f 90 137 138
f 90 138 93
f 91 92 139
f 91 139 137
f 92 136 140
f 92 140 141
f 92 141 139
f 93 138 95
f 93 95 94
f 95 138 142
f 95 142 143
f 95 143 96
f 96 144 145
f 96 145 97
f 96 143 144
f 97 145 146
f 97 146 98
f 98 146 147
f 98 147 148
f 98 148 149
f 98 149 99
f 104 105 150
f 104 150 116
f 105 112 151
f 105 151 152
f 105 152 150
f 106 108 107
f 106 114 153
f 106 153 154
f 106 154 155
f 106 155 156
f 106 156 157
f 106 157 158
f 106 158 159
f 106 159 108
f 108 159 158
f 108 158 110
f 109 160 151
f 109 151 112
f 109 111 161
f 109 161 160
f 110 161 111
f 110 158 162
f 110 162 163
f 110 163 161
f 113 153 114
f 115 116 164
f 116 150 165
f 116 165 166
f 116 166 167
f 116 167 168
f 116 168 164
f 117 169 170
f 117 170 171
f 117 171 118
f 118 171 119
f 119 172 173
f 119 173 174
f 119 174 175
f 119 175 176
f 119 176 120
f 119 171 172
f 120 176 177
f 120 177 178
f 120 178 121
f 121 178 122
f 122 178 179
f 126 180 181
f 126 181 127
f 126 131 182
f 126 182 180
f 127 181 183
f 127 183 128
f 128 183 132
f 129 184 130
f 130 184 185
f 130 185 186
f 130 186 131
f 131 186 182
f 132 183 187
f 132 187 188
f 132 188 133
f 133 188 134
f 134 188 189
f 134 189 190
f 134 190 136
f 134 136 135
f 136 191 140
f 136 190 191
f 137 192 193
f 137 193 138
f 137 139 192
f 138 194 142
f 138 193 194
f 139 141 192
f 140 191 190
f 140 190 195
f 140 195 141
f 141 195 196
f 141 196 192
f 142 194 143
f 143 194 197
f 143 197 198
f 143 198 199
f 143 199 200
f 143 200 201
f 143 201 144
f 144 201 145
f 145 202 203
f 145 203 147
f 145 147 146
f 145 201 202
f 147 203 204
f 147 204 205
f 147 205 148
f 150 152 165
f 151 206 152
f 151 160 207
f 151 207 208
f 151 208 206
f 152 206 209
f 152 209 165
f 154 210 155
f 155 210 211
f 155 211 156
f 156 211 157
f 157 211 212
f 157 212 213
f 157 213 162
f 157 162 158
f 160 161 207
f 161 214 207
f 161 163 214
f 162 213 215
f 162 215 216
f 162 216 217
f 162 217 218
f 162 218 163
f 163 219 214
f 163 218 220
f 163 220 219
f 164 168 221
f 165 209 166
f 166 209 167
f 167 222 168
f 167 209 222
f 168 222 221
f 169 223 170
f 170 223 224
f 170 224 225
f 170 225 226
f 170 226 227
f 170 227 228
f 170 228 229
f 170 229 171
f 171 229 230
f 171 230 173
f 171 173 172
f 173 231 232
f 173 232 174
f 173 230 231
f 174 232 175
f 175 232 233
f 175 233 176
f 176 233 234
f 176 234 177
f 177 234 235
f 177 235 236
f 177 236 178
f 178 236 237
f 178 237 179
f 180 182 238
f 180 238 181
f 181 238 239
f 181 239 240
f 181 240 241
f 181 241 183
f 182 186 242
f 182 242 238
f 183 241 243
f 183 243 188
f 183 188 187
f 184 244 185
f 185 244 245
f 185 245 186
f 186 245 246
f 186 246 242
f 188 243 247
f 188 247 190
f 188 190 189
f 190 247 248
f 190 248 195
f 192 196 249
f 192 249 250
f 192 250 251
f 192 251 193
f 193 251 194
f 194 252 197
f 194 251 252
f 195 248 253
f 195 253 254
f 195 254 255
f 195 255 256
f 195 256 196
f 196 256 257
f 196 257 249
f 197 252 198
f 198 252 258
f 198 258 259
f 198 259 260
f 198 260 199
f 199 260 261
f 199 261 200
f 200 261 262
f 200 262 201
f 201 262 202
f 202 262 263
f 202 263 264
f 202 264 203
f 203 264 265
f 203 265 204
f 204 265 266
f 204 266 267
f 204 267 205
f 206 208 268
f 206 268 209
f 207 214 269
f 207 269 270
f 207 270 208
f 208 270 268
f 209 268 271
f 209 271 272
f 209 272 273
f 209 273 222
f 210 274 211
f 211 275 212
f 211 274 275
f 212 276 215
f 212 215 213
f 212 275 277
f 212 277 278
f 212 278 276
f 214 219 279
f 214 279 269
f 215 280 216
f 215 276 280
f 216 280 281
f 216 281 217
f 217 281 282
f 217 282 218
f 218 282 220
f 219 220 283
f 219 283 279
f 220 282 284
f 220 284 283
f 221 222 285
f 222 286 287
f 222 287 288
f 222 288 285
f 222 273 286
f 226 289 227
f 227 289 228
f 228 290 291
f 228 291 292
f 228 292 293
f 228 293 294
f 228 294 295
f 228 295 230
f 228 230 229
f 228 289 290
f 230 295 294
f 230 294 231
f 231 294 232
f 232 296 297
f 232 297 298
f 232 298 233
f 232 294 296
f 233 298 299
f 233 299 300
f 233 300 234
f 234 300 235
f 235 300 301
f 235 301 236
f 236 301 302
f 238 303 239
f 238 242 304
f 238 304 305
f 238 305 303
f 239 303 240
f 240 303 306
f 240 306 307
f 240 307 241
f 241 307 243
f 242 246 304
f 243 308 247
f 243 307 308
f 244 309 245
f 245 309 246
f 246 309 310
f 246 310 311
f 246 311 305
f 246 305 304
f 247 308 248
f 248 308 312
f 248 312 254
f 248 254 253
f 249 257 250
f 250 257 313
f 250 313 314
f 250 314 251
f 251 314 252
f 252 314 258
f 254 312 315
f 254 315 316
f 254 316 255
f 255 316 317
f 255 317 256
f 256 317 318
f 256 318 257
f 257 318 319
f 257 319 313
f 258 320 321
f 258 321 322
f 258 322 259
f 258 314 313
f 258 313 320
f 259 322 323
f 259 323 324
f 259 324 260
f 260 324 261
f 261 325 262
f 261 324 325
f 262 325 326
f 262 326 263
f 263 326 327
f 263 327 264
f 264 327 265
f 265 327 328
f 265 328 329
f 265 329 266
f 268 270 271
f 269 279 330
f 269 330 270
f 270 330 331
f 270 331 271
f 271 331 272
f 272 331 273
f 273 331 332
f 273 332 333
f 273 333 334
f 273 334 335
f 273 335 286
f 276 278 336
f 276 336 337
f 276 337 338
f 276 338 339
f 276 339 280
f 277 340 278
f 278 340 337
f 278 337 336
f 279 341 330
f 279 283 284
f 279 284 342
f 279 342 341
f 280 343 281
f 280 339 338
f 280 338 344
f 280 344 337
f 280 337 345
f 280 345 346
f 280 346 343
f 281 343 282
f 282 343 347
f 282 347 348
f 282 348 284
f 284 348 349
f 284 349 342
f 285 288 350
f 286 335 287
f 287 335 351
f 287 351 352
f 287 352 353
f 287 353 354
f 287 354 355
f 287 355 288
f 288 355 350
f 289 356 357
f 289 357 290
f 290 357 291
f 291 357 358
f 291 358 292
f 292 358 359
f 292 359 293
f 293 359 360
f 293 360 361
f 293 361 294
f 294 361 296
f 296 361 362
f 296 362 297
f 297 362 363
f 297 363 364
f 297 364 298
f 298 364 299
f 299 365 300
f 299 364 366
f 299 366 365
f 300 365 367
f 300 367 368
f 300 368 301
f 301 368 369
f 301 369 370
f 301 370 302
f 303 371 306
f 303 305 372
f 303 372 373
f 303 373 374
f 303 374 371
f 305 311 375
f 305 375 372
f 306 371 376
f 306 376 307
f 307 312 308
f 307 376 312
f 309 377 310
f 310 378 311
f 310 377 379
f 310 379 378
f 311 378 375
f 312 376 380
f 312 380 381
f 312 381 315
f 313 319 320
f 315 381 382
f 315 382 383
f 315 383 316
f 316 383 384
f 316 384 385
f 316 385 317
f 317 385 318
f 318 385 319
f 319 386 387
f 319 387 388
f 319 388 320
f 319 385 386
f 320 388 389
f 320 389 321
f 321 389 390
f 321 390 391
f 321 391 392
f 321 392 322
f 322 392 323
f 323 392 393
f 323 393 394
f 323 394 395
f 323 395 324
f 324 395 325
f 325 395 394
f 325 394 396
f 325 396 397
f 325 397 326
f 326 397 398
f 326 398 399
f 326 399 327
f 327 399 328
f 328 399 400
f 328 400 401
f 328 401 402
f 328 402 329
f 329 402 404
f 329 404 403
f 330 405 331
f 330 341 405
f 331 405 332
f 332 405 406
f 332 406 407
f 332 407 333
f 333 407 408
f 333 408 409
f 333 409 351
f 333 351 335
f 333 335 334
f 337 410 345
f 337 344 338
f 337 340 411
f 337 411 412
f 337 412 413
f 337 413 414
f 337 414 410
f 340 415 411
f 341 342 416
f 341 416 406
f 341 406 405
f 342 349 417
f 342 417 416
f 343 346 345
f 343 345 347
f 345 410 418
f 345 418 419
f 345 419 347
f 347 419 420
f 347 420 421
f 347 421 349
f 347 349 348
f 349 421 420
f 349 420 422
f 349 422 423
f 349 423 417
f 351 409 424
f 351 424 352
f 352 425 426
f 352 426 427
f 352 427 354
f 352 354 353
f 352 424 425
f 356 428 429
f 356 429 430
f 356 430 357
f 357 430 431
f 357 431 358
f 358 431 432
f 358 432 433
f 358 433 359
f 359 434 360
f 359 433 435
f 359 435 434
f 360 362 361
f 360 434 436
f 360 436 437
f 360 437 438
f 360 438 363
f 360 363 362
f 363 438 439
f 363 439 440
f 363 440 441
f 363 441 364
f 364 441 366
f 365 366 442
f 365 442 367
f 366 443 444
f 366 444 445
f 366 445 442
f 366 441 443
f 367 442 445
f 367 445 446
f 367 446 447
f 367 447 368
f 368 447 369
f 369 447 446
f 369 446 370
f 370 446 448
f 371 449 376
f 371 374 450
f 371 450 449
f 372 375 373
f 373 375 451
f 373 451 452
f 373 452 453
f 373 453 454
f 373 454 374
f 374 454 455
f 374 455 456
f 374 456 450
f 375 378 451
f 376 449 380
f 378 379 457
f 378 457 458
f 378 458 451
f 380 459 460
f 380 460 461
f 380 461 382
f 380 382 381
f 380 449 459
f 382 461 383
f 383 461 462
f 383 462 463
f 383 463 384
f 384 463 385
f 385 463 464
f 385 464 386
f 386 464 465
f 386 465 387
f 387 465 466
f 387 466 389
f 387 389 388
f 389 466 467
f 389 467 390
f 390 467 391
f 391 467 468
f 391 468 392
f 392 468 393
f 393 468 469
f 393 469 470
f 393 470 394
f 394 470 471
f 394 471 396
f 396 471 472
f 396 472 397
f 397 472 398
f 398 472 473
f 398 473 474
f 398 474 475
f 398 475 399
f 399 475 476
f 399 476 400
f 400 476 401
f 401 476 477
f 401 477 478
f 401 478 404
f 401 404 402
f 403 404 479
f 404 478 480
f 404 480 479
f 406 416 481
f 406 481 482
f 406 482 483
f 406 483 484
f 406 484 407
f 407 484 408
f 408 485 486
f 408 486 487
f 408 487 488
f 408 488 409
f 408 484 489
f 408 489 490
f 408 490 485
f 409 488 487
f 409 487 424
f 410 414 491
f 410 491 418
f 411 492 413
f 411 413 412
f 411 415 493
f 411 493 492
f 413 492 414
f 414 494 495
f 414 495 496
f 414 496 497
f 414 497 491
f 414 492 494
f 416 417 481
f 417 483 482
f 417 482 481
f 417 423 498
f 417 498 483
f 418 491 499
f 418 499 500
f 418 500 501
f 418 501 419
f 419 501 420
f 420 501 502
f 420 502 503
f 420 503 504
f 420 504 422
f 422 504 503
f 422 503 505
f 422 505 498
f 422 498 423
f 424 487 506
f 424 506 507
f 424 507 425
f 425 508 509
f 425 509 510
f 425 510 511
f 425 511 512
f 425 512 427
f 425 427 426
f 425 507 513
f 425 513 508
f 428 514 515
f 428 515 516
f 428 516 429
f 429 516 430
f 430 516 517
f 430 517 432
f 430 432 431
f 432 517 518
f 432 518 433
f 433 518 435
f 434 435 518
f 434 518 519
f 434 519 436
f 436 520 521
f 436 521 522
f 436 522 523
f 436 523 437
f 436 519 518
f 436 518 520
f 437 523 438
f 438 523 524
f 438 524 439
f 439 441 440
f 439 524 525
f 439 525 526
f 439 526 527
f 439 527 443
f 439 443 441
f 443 527 526
f 443 526 528
f 443 528 529
f 443 529 530
f 443 530 444
f 444 530 445
f 445 530 531
f 445 531 446
f 446 531 532
f 446 532 533
f 446 533 448
f 449 450 534
f 449 534 459
f 450 456 535
f 450 535 534
f 451 458 536
f 451 536 452
f 452 536 537
f 452 537 538
f 452 538 539
f 452 539 453
f 453 539 454
f 454 539 455
f 455 539 540
f 455 540 541
f 455 541 542
f 455 542 543
f 455 543 456
f 456 544 535
f 456 543 545
f 456 545 544
f 458 546 547
f 458 547 536
f 459 534 535
f 459 535 548
f 459 548 460
f 460 549 461
f 460 548 550
f 460 550 549
f 461 549 551
f 461 551 462
f 462 551 552
f 462 552 553
f 462 553 463
f 463 553 554
f 463 554 464
f 464 554 465
f 465 554 555
f 465 555 556
f 465 556 466
f 466 556 557
f 466 557 558
f 466 558 559
f 466 559 467
f 467 559 560
f 467 560 561
f 467 561 468
f 468 561 562
f 468 562 469
f 469 562 563
f 469 563 470
f 470 563 471
f 471 563 564
f 471 564 565
f 471 565 566
f 471 566 472
f 472 566 567
f 472 567 568
f 472 568 473
f 473 568 569
f 473 569 570
f 473 570 571
f 473 571 474
f 474 571 572
f 474 572 573
f 474 573 475
f 475 573 476
f 476 573 477
f 477 573 572
f 477 572 574
f 477 574 478
f 478 574 480
f 479 480 493
f 480 574 494
f 480 494 493
f 483 575 484
f 483 498 576
f 483 576 575
f 484 575 489
f 485 490 577
f 485 577 578
f 485 578 579
f 485 579 580
f 485 580 486
f 486 580 581
f 486 581 582
f 486 582 506
f 486 506 487
f 489 583 490
f 489 575 583
f 490 583 577
f 491 497 496
f 491 496 584
f 491 584 499
f 492 493 494
f 494 574 585
f 494 585 495
f 495 574 572
f 495 572 586
f 495 586 587
f 495 587 496
f 495 585 574
f 496 587 584
f 498 505 576
f 499 584 588
f 499 588 589
f 499 589 590
f 499 590 501
f 499 501 500
f 501 590 502
f 502 590 591
f 502 591 503
f 503 592 505
f 503 591 593
f 503 593 592
f 505 594 595
f 505 595 576
f 505 592 596
f 505 596 597
f 505 597 594
f 506 582 513
f 506 513 507
f 508 598 510
f 508 510 509
f 508 513 599
f 508 599 598
f 510 598 600
f 510 600 601
f 513 582 599
f 514 602 603
f 514 603 604
f 514 604 515
f 515 604 516
f 516 605 606
f 516 606 517
f 516 604 605
f 517 607 518
f 517 606 608
f 517 608 609
f 517 609 607
f 518 610 520
f 518 607 610
f 520 611 521
f 520 610 611
f 521 612 613
f 521 613 614
f 521 614 615
f 521 615 522
f 521 611 612
f 522 524 523
f 522 615 525
f 522 525 524
f 525 615 526
f 526 615 616
f 526 616 528
f 528 616 617
f 528 617 618
f 528 618 529
f 529 618 619
f 529 619 620
f 529 620 530
f 530 621 532
f 530 532 531
f 530 620 622
f 530 622 621
f 535 623 548
f 535 544 623
f 536 547 537
f 537 547 541
f 537 541 624
f 537 624 625
f 537 625 538
f 538 625 626
f 538 626 539
f 539 626 540
f 540 626 541
f 541 627 542
f 541 626 625
f 541 625 624
f 541 547 628
f 542 627 543
f 543 627 545
f 544 545 629
f 544 629 623
f 545 627 629
f 546 628 547
f 548 623 630
f 548 630 550
f 549 550 631
f 549 631 632
f 549 632 551
f 550 630 631
f 551 632 633
f 551 633 552
f 552 633 634
f 552 634 553
f 553 634 635
f 553 635 554
f 554 635 555
f 555 636 637
f 555 637 557
f 555 557 556
f 555 635 636
f 557 637 638
f 557 638 639
f 557 639 640
f 557 640 558
f 558 640 559
f 559 640 560
f 560 640 641
f 560 641 561
f 561 641 642
f 561 642 562
f 562 642 643
f 562 643 644
f 562 644 563
f 563 644 564
f 564 644 645
f 564 645 646
f 564 646 565
f 565 646 647
f 565 647 566
f 566 647 567
f 567 647 568
f 568 648 649
f 568 649 569
f 568 647 648
f 569 649 570
f 570 650 571
f 570 649 651
f 570 651 652
f 570 652 650
f 571 650 572
f 572 587 586
f 572 650 587
f 575 653 654
f 575 654 583
f 575 576 653
f 576 595 594
f 576 594 653
f 577 583 654
f 577 654 579
f 577 579 578
f 579 654 655
f 579 655 656
f 579 656 657
f 579 657 658
f 579 658 580
f 580 658 659
f 580 659 581
f 581 659 582
f 582 660 599
f 582 659 660
f 584 587 661
f 584 661 588
f 587 650 652
f 587 652 661
f 588 661 662
f 588 662 589
f 589 591 590
f 589 662 663
f 589 663 664
f 589 664 591
f 591 664 593
f 592 593 596
f 593 664 665
f 593 665 666
f 593 666 667
f 593 667 668
f 593 668 596
f 594 669 670
f 594 670 653
f 594 597 671
f 594 671 669
f 596 668 672
f 596 672 671
f 596 671 597
f 598 673 601
f 598 601 600
f 598 599 674
f 598 674 673
f 599 660 675
f 599 675 674
f 601 673 676
f 602 677 603
f 603 677 604
f 604 677 678
f 604 678 679
f 604 679 680
f 604 680 605
f 605 681 606
f 605 680 681
f 606 681 608
f 607 609 610
f 608 681 682
f 608 682 609
f 609 682 683
f 609 683 684
f 609 684 610
f 610 684 683
f 610 683 685
f 610 685 611
f 611 685 612
f 612 685 613
f 613 685 686
f 613 686 614
f 614 686 687
f 614 687 688
f 614 688 616
f 614 616 615
f 616 688 689
f 616 689 617
f 617 690 691
f 617 691 618
f 617 689 688
f 617 688 692
f 617 692 690
f 618 691 690
f 618 690 693
f 618 693 619
f 619 693 694
f 619 694 695
f 619 695 620
f 623 629 696
f 623 696 630
f 627 697 629
f 629 698 696
f 629 697 698
f 630 696 699
f 630 699 700
f 630 700 631
f 631 700 701
f 631 701 632
f 632 701 633
f 633 701 702
f 633 702 634
f 634 702 636
f 634 636 635
f 636 702 703
f 636 703 637
f 637 703 704
f 637 704 638
f 638 704 705
f 638 705 706
f 638 706 707
f 638 707 639
f 639 707 640
f 640 707 641
f 641 707 708
f 641 708 642
f 642 708 709
f 642 709 710
f 642 710 643
f 643 710 644
f 644 710 711
f 644 711 645
f 645 711 712
f 645 712 713
f 645 713 646
f 646 713 647
f 647 713 714
f 647 714 715
f 647 715 648
f 648 715 716
f 648 716 649
f 649 716 651
f 651 717 663
f 651 663 652
f 651 716 717
f 652 663 662
f 652 662 661
f 653 655 654
f 653 670 655
f 655 670 656
f 656 670 669
f 656 669 718
f 656 718 719
f 656 719 657
f 657 720 658
f 657 719 721
f 657 721 720
f 658 722 723
f 658 723 659
f 658 720 722
f 659 724 660
f 659 723 724
f 660 724 675
f 663 717 725
f 663 725 664
f 664 725 665
f 665 725 726
f 665 726 666
f 666 726 717
f 666 717 727
f 666 727 667
f 667 728 729
f 667 729 668
f 667 727 730
f 667 730 728
f 668 731 671
f 668 671 672
f 668 729 728
f 668 728 731
f 669 671 718
f 671 731 732
f 671 732 718
f 673 733 676
f 673 674 734
f 673 734 733
f 674 675 734
f 675 724 735
f 675 735 734
f 676 733 736
f 679 737 738
f 679 738 739
f 679 739 740
f 679 740 741
f 679 741 680
f 680 741 681
f 681 741 682
f 682 742 743
f 682 743 744
f 682 744 745
f 682 745 683
f 682 741 740
f 682 740 746
f 682 746 742
f 683 745 747
f 683 747 748
f 683 748 749
f 683 749 685
f 685 749 686
f 686 749 687
f 687 749 750
f 687 750 688
f 688 750 692
f 690 692 751
f 690 751 752
f 690 752 693
f 692 750 751
f 693 753 754
f 693 754 694
f 693 752 755
f 693 755 753
f 694 754 756
f 694 756 757
f 694 757 758
f 694 758 695
f 695 758 759
f 696 698 699
f 697 760 698
f 698 760 761
f 698 761 699
f 699 761 700
f 700 761 762
f 700 762 763
f 700 763 764
f 700 764 765
f 700 765 701
f 701 765 766
f 701 766 767
f 701 767 702
f 702 767 703
f 703 767 768
f 703 768 769
f 703 769 704
f 704 769 770
f 704 770 705
f 705 770 771
f 705 771 772
f 705 772 706
f 706 772 773
f 706 773 774
f 706 774 707
f 707 774 708
f 708 774 709
f 709 774 775
f 709 775 710
f 710 775 776
f 710 776 711
f 711 776 712
f 712 776 777
f 712 777 778
f 712 778 713
f 713 778 714
f 714 778 779
f 714 779 780
f 714 780 715
f 715 780 781
f 715 781 716
f 716 781 717
f 717 726 725
f 717 781 727
f 718 782 721
f 718 721 719
f 718 732 783
f 718 783 784
f 718 784 785
f 718 785 782
f 720 721 786
f 720 786 722
f 721 782 787
f 721 787 786
f 722 788 789
f 722 789 723
f 722 786 790
f 722 790 791
f 722 791 788
f 723 789 792
f 723 792 724
f 724 792 793
f 724 793 735
f 727 781 794
f 727 794 795
f 727 795 728
f 727 728 730
f 728 796 732
f 728 732 731
f 728 795 797
f 728 797 796
f 732 796 783
f 733 798 736
f 733 734 799
f 733 799 800
f 733 800 798
f 734 735 801
f 734 801 802
f 734 802 799
f 735 793 803
f 735 803 804
f 735 804 801
f 736 798 805
f 737 806 738
f 738 746 739
f 738 806 807
f 738 807 808
f 738 808 809
f 738 809 746
f 739 746 740
f 742 809 743
f 742 746 809
f 743 810 811
f 743 811 812
f 743 812 744
f 743 809 810
f 744 812 745
f 745 812 748
f 745 748 747
f 748 813 814
f 748 814 815
f 748 815 816
f 748 816 817
f 748 817 750
f 748 750 749
f 748 812 813
f 750 817 816
f 750 816 751
f 751 816 818
f 751 818 752
f 752 818 755
f 753 819 754
f 753 755 819
f 754 820 756
f 754 819 820
f 755 818 821
f 755 821 819
f 756 820 822
f 756 822 823
f 756 823 757
f 757 823 824
f 757 824 825
f 757 825 758
f 758 825 826
f 758 826 827
f 758 827 828
f 758 828 759
f 759 828 830
f 759 830 831
f 759 831 829
f 760 832 763
f 760 763 762
f 760 762 761
f 763 833 834
f 763 834 764
f 763 832 833
f 764 766 765
f 764 834 835
f 764 835 836
f 764 836 766
f 766 836 768
f 766 768 767
f 768 836 837
f 768 837 838
f 768 838 769
f 769 838 839
f 769 839 770
f 770 839 771
f 771 839 840
f 771 840 841
f 771 841 842
f 771 842 772
f 772 842 843
f 772 843 773
f 773 843 844
f 773 844 845
f 773 845 774
f 774 845 775
f 775 845 846
f 775 846 847
f 775 847 848
f 775 848 776
f 776 848 849
f 776 849 850
f 776 850 851
f 776 851 777
f 777 851 778
f 778 851 852
f 778 852 779
f 779 852 853
f 779 853 854
f 779 854 855
f 779 855 794
f 779 794 780
f 780 794 781
f 782 785 856
f 782 856 857
f 782 857 787
f 783 796 784
f 784 796 858
f 784 858 785
f 785 858 859
f 785 859 860
f 785 860 861
f 785 861 856
f 786 791 790
f 786 787 791
f 787 857 862
f 787 862 791
f 788 863 864
f 788 864 793
f 788 793 789
f 788 791 863
f 789 793 792
f 791 862 865
f 791 865 866
f 791 866 863
f 793 804 803
f 793 864 804
f 794 855 797
f 794 797 795
f 796 797 859
f 796 859 858
f 797 855 867
f 797 867 859
f 798 868 869
f 798 869 805
f 798 800 870
f 798 870 868
f 799 802 801
f 799 801 800
f 800 801 804
f 800 804 871
f 800 871 872
f 800 872 870
f 804 864 863
f 804 863 873
f 804 873 874
f 804 874 875
f 804 875 876
f 804 876 872
f 804 872 871
f 807 877 878
f 807 878 808
f 808 878 809
f 809 878 810
f 810 879 880
f 810 880 881
f 810 881 882
f 810 882 811
f 810 878 879
f 811 882 883
f 811 883 813
f 811 813 812
f 813 883 884
f 813 884 815
f 813 815 814
f 815 884 883
f 815 883 885
f 815 885 886
f 815 886 816
f 816 886 818
f 818 886 821
f 819 887 888
f 819 888 889
f 819 889 820
f 819 821 887
f 820 889 822
f 821 886 890
f 821 890 891
f 821 891 887
f 822 889 892
f 822 892 893
f 822 893 894
f 822 894 895
f 822 895 823
f 823 895 896
f 823 896 826
f 823 826 825
f 823 825 824
f 826 830 827
f 826 896 897
f 826 897 898
f 826 898 831
f 826 831 830
f 827 830 828
f 829 831 899
f 831 898 900
f 831 900 901
f 831 901 899
f 832 902 903
f 832 903 833
f 833 903 835
f 833 835 834
f 835 903 904
f 835 904 905
f 835 905 837
f 835 837 836
f 837 905 838
f 838 905 906
f 838 906 839
f 839 906 840
f 840 906 907
f 840 907 841
f 841 907 908
f 841 908 909
f 841 909 842
f 842 909 910
f 842 910 843
f 843 910 911
f 843 911 912
f 843 912 844
f 844 846 845
f 844 912 913
f 844 913 847
f 844 847 846
f 847 913 912
f 847 912 914
f 847 914 915
f 847 915 916
f 847 916 849
f 847 849 848
f 849 916 850
f 850 916 915
f 850 915 917
f 850 917 918
f 850 918 851
f 851 918 853
f 851 853 852
f 853 918 919
f 853 919 920
f 853 920 854
f 854 920 867
f 854 867 855
f 856 921 857
f 856 861 921
f 857 921 922
f 857 922 862
f 859 867 923
f 859 923 924
f 859 924 860
f 860 925 921
f 860 921 861
f 860 924 926
f 860 926 925
f 862 922 865
f 863 866 874
f 863 874 873
f 865 922 927
f 865 927 928
f 865 928 929
f 865 929 866
f 866 929 930
f 866 930 874
f 867 920 923
f 868 931 869
f 868 870 932
f 868 932 931
f 869 931 934
f 869 934 933
f 870 872 932
f 872 876 935
f 872 935 932
f 874 876 875
f 874 930 876
f 876 936 935
f 876 930 937
f 876 937 936
f 877 938 878
f 878 938 939
f 878 939 940
f 878 940 941
f 878 941 881
f 878 881 880
f 878 880 879
f 881 941 942
f 881 942 943
f 881 943 882
f 882 943 944
f 882 944 945
f 882 945 883
f 883 945 946
f 883 946 885
f 885 946 947
f 885 947 948
f 885 948 886
f 886 948 890
f 887 891 890
f 887 890 949
f 887 949 888
f 888 949 950
f 888 950 892
f 888 892 889
f 890 951 949
f 890 948 947
f 890 947 952
f 890 952 951
f 892 950 893
f 893 950 953
f 893 953 954
f 893 954 955
f 893 955 894
f 894 955 895
f 895 955 956
f 895 956 897
f 895 897 896
f 897 956 957
f 897 957 907
f 897 907 958
f 897 958 898
f 898 958 900
f 899 901 904
f 899 904 903
f 899 903 902
f 900 958 959
f 900 959 906
f 900 906 960
f 900 960 901
f 901 960 904
f 904 960 905
f 905 960 906
f 906 959 961
f 906 961 907
f 907 961 959
f 907 959 958
f 907 957 962
f 907 962 908
f 908 962 963
f 908 963 909
f 909 963 964
f 909 964 910
f 910 964 911
f 911 964 965
f 911 965 966
f 911 966 912
f 912 966 967
f 912 967 968
f 912 968 914
f 914 968 969
f 914 969 970
f 914 970 915
f 915 970 917
f 917 970 971
f 917 971 972
f 917 972 918
f 918 972 919
f 919 972 973
f 919 973 920
f 920 973 923
f 921 974 922
f 921 925 974
f 922 974 927
f 923 973 924
f 924 973 926
f 925 975 976
f 925 976 974
f 925 926 975
f 926 973 977
f 926 977 978
f 926 978 975
f 927 974 976
f 927 976 979
f 927 979 980
f 927 980 928
f 928 981 982
f 928 982 929
f 928 980 981
f 929 982 930
f 930 982 983
f 930 983 937
f 931 932 934
f 932 935 936
f 932 936 984
f 932 984 934
f 933 934 985
f 934 986 987
f 934 987 988
f 934 988 985
f 934 984 986
f 936 989 984
f 936 937 983
f 936 983 990
f 936 990 991
f 936 991 989
f 938 992 939
f 939 993 994
f 939 994 940
f 939 992 995
f 939 995 993
f 940 994 996
f 940 996 941
f 941 996 997
f 941 997 942
f 942 998 944
f 942 944 943
f 942 997 998
f 944 999 1000
f 944 1000 1001
f 944 1001 946
f 944 946 1002
f 944 1002 945
f 944 998 999
f 945 1002 946
f 946 1001 1000
f 946 1000 1003
f 946 1003 1004
f 946 1004 952
f 946 952 947
f 949 951 1005
f 949 1005 950
f 950 1006 953
f 950 1005 1006
f 951 1007 1008
f 951 1008 1005
f 951 952 1004
f 951 1004 1007
f 953 1006 1009
f 953 1009 1010
f 953 1010 954
f 954 1010 955
f 955 1010 1011
f 955 1011 1012
f 955 1012 956
f 956 1012 1013
f 956 1013 957
f 957 1013 1012
f 957 1012 962
f 962 1012 1014
f 962 1014 963
f 963 1015 964
f 963 1014 1016
f 963 1016 1015
f 964 1015 1016
f 964 1016 965
f 965 1016 1017
f 965 1017 966
f 966 1017 967
f 967 1017 1018
f 967 1018 1019
f 967 1019 1020
f 967 1020 969
f 967 969 968
f 969 1020 1021
f 969 1021 971
f 969 971 970
f 971 1021 1022
f 971 1022 973
f 971 973 972
f 973 1022 977
f 975 1023 1024
f 975 1024 976
f 975 978 1025
f 975 1025 1026
f 975 1026 1023
f 976 1024 1027
f 976 1027 979
f 977 1025 978
f 977 1022 1025
f 979 1028 980
f 979 1027 1024
f 979 1024 1029
f 979 1029 1028
f 980 1028 1030
f 980 1030 1031
f 980 1031 981
f 981 1031 982
f 982 1031 1032
f 982 1032 1033
f 982 1033 990
f 982 990 983
f 984 989 1034
f 984 1034 1035
f 984 1035 986
f 986 1036 1037
f 986 1037 1038
f 986 1038 1039
f 986 1039 987
f 986 1035 1040
f 986 1040 1036
f 987 1039 1038
f 989 991 1041
f 989 1041 1042
f 989 1042 1043
f 989 1043 1034
f 990 1033 991
f 991 1044 1041
f 991 1033 1045
f 991 1045 1044
f 993 995 994
f 994 995 1046
f 994 1046 1047
f 994 1047 1048
f 994 1048 1049
f 994 1049 996
f 996 1050 1051
f 996 1051 997
f 996 1049 1050
f 997 1051 1052
f 997 1052 999
f 997 999 998
f 999 1052 1051
f 999 1051 1053
f 999 1053 1054
f 999 1054 1055
f 999 1055 1000
f 1000 1055 1056
f 1000 1056 1003
f 1003 1056 1057
f 1003 1057 1004
f 1004 1057 1007
f 1005 1008 1058
f 1005 1058 1059
f 1005 1059 1006
f 1006 1059 1060
f 1006 1060 1009
f 1007 1057 1008
f 1008 1057 1061
f 1008 1061 1062
f 1008 1062 1063
f 1008 1063 1064
f 1008 1064 1058
f 1009 1065 1066
f 1009 1066 1067
f 1009 1067 1010
f 1009 1060 1068
f 1009 1068 1069
f 1009 1069 1065
f 1010 1067 1011
f 1011 1067 1012
f 1012 1067 1014
f 1014 1067 1016
f 1016 1067 1070
f 1016 1070 1071
f 1016 1071 1018
f 1016 1018 1017
f 1018 1071 1072
f 1018 1072 1073
f 1018 1073 1019
f 1019 1073 1020
f 1020 1073 1072
f 1020 1072 1074
f 1020 1074 1075
f 1020 1075 1076
f 1020 1076 1021
f 1021 1076 1022
f 1022 1076 1025
f 1023 1026 1024
f 1024 1077 1078
f 1024 1078 1079
f 1024 1079 1028
f 1024 1028 1029
f 1024 1026 1077
f 1025 1076 1075
f 1025 1075 1026
f 1026 1075 1074
f 1026 1074 1072
f 1026 1072 1080
f 1026 1080 1077
f 1028 1079 1081
f 1028 1081 1030
f 1030 1081 1079
f 1030 1079 1082
f 1030 1082 1083
f 1030 1083 1084
f 1030 1084 1031
f 1031 1084 1085
f 1031 1085 1032
f 1032 1085 1045
f 1032 1045 1033
f 1034 1043 1042
f 1034 1042 1086
f 1034 1086 1040
f 1034 1040 1035
f 1036 1087 1088
f 1036 1088 1089
f 1036 1089 1090
f 1036 1090 1091
f 1036 1091 1037
f 1036 1040 1087
f 1037 1091 1090
f 1040 1086 1092
f 1040 1092 1087
f 1041 1044 1042
f 1042 1093 1086
f 1042 1044 1094
f 1042 1094 1095
f 1042 1095 1093
f 1044 1045 1094
f 1045 1085 1094
f 1047 1096 1089
f 1047 1089 1088
f 1047 1088 1048
f 1048 1088 1097
f 1048 1097 1050
f 1048 1050 1049
f 1050 1097 1098
f 1050 1098 1054
f 1050 1054 1053
f 1050 1053 1051
f 1054 1093 1095
f 1054 1095 1099
f 1054 1099 1055
f 1054 1098 1100
f 1054 1100 1092
f 1054 1092 1093
f 1055 1101 1102
f 1055 1102 1056
f 1055 1099 1101
f 1056 1102 1057
f 1057 1102 1061
f 1058 1064 1059
f 1059 1064 1060
f 1060 1064 1063
f 1060 1063 1103
f 1060 1103 1069
f 1060 1069 1068
f 1061 1104 1062
f 1061 1102 1104
f 1062 1105 1103
f 1062 1103 1063
f 1062 1104 1083
f 1062 1083 1105
f 1065 1072 1106
f 1065 1106 1071
f 1065 1071 1066
f 1065 1069 1072
f 1066 1071 1070
f 1066 1070 1067
f 1069 1103 1107
f 1069 1107 1108
f 1069 1108 1072
f 1071 1106 1072
f 1072 1108 1080
f 1077 1080 1108
f 1077 1108 1078
f 1078 1108 1109
f 1078 1109 1079
f 1079 1109 1082
f 1082 1109 1105
f 1082 1105 1083
f 1083 1104 1084
f 1084 1110 1085
f 1084 1104 1110
f 1085 1110 1094
f 1086 1093 1092
f 1087 1092 1100
f 1087 1100 1088
f 1088 1100 1097
f 1089 1096 1090
f 1094 1099 1095
f 1094 1110 1099
f 1097 1100 1098
f 1099 1110 1111
f 1099 1111 1101
f 1101 1111 1102
f 1102 1111 1110
f 1102 1110 1104
f 1103 1109 1107
f 1103 1105 1109
f 1107 1109 1108
