# ABC bottle geometry; canonical radius 1 and height 1, bottom z=0.
# https://github.com/mikedh/trimesh
v 0.217936668197 -0.420157390299 0.2497713
v -0.819150191595 -0.420157390299 0.2497713
v 0.217936668197 -0.893422203052 0.2497713
v 0.217936668197 -0.420157390299 0.03221264
v -0.812064426404 -0.434041810717 0.2497713
v -0.830959800246 -0.420157390299 0.19419223
v 0.200376361464 -0.897751862919 0.2497713
v 0.214137057493 -0.900737667776 0.19319189
v 0.217936668197 -0.899692659202 0.19292352
v 0.217936668197 -0.531680705319 0.04472893
v -0.0104504615387 -0.737060764407 0.01288927
v -0.00757502577493 -0.716109715607 0.01147419
v -0.0218492358372 -0.727456109393 0.00952232
v -0.0299619134647 -0.724967803776 0.00791204
v -0.0245192544245 -0.711581056044 0.00800964
v -0.0231842451309 -0.692122967488 0.00725329
v -0.0309888259013 -0.695954839038 0.00625297
v -0.0442361235269 -0.673361551315 0.00434992
v -0.0546079853889 -0.662910945238 0.00327641
v -0.0582022367322 -0.620511174952 0.00420353
v -0.063747575453 -0.566516174537 0.00583822
v -0.0451603562829 -0.489977665231 0.01054704
v -0.043311890771 -0.451459603142 0.01257211
v -0.040231095646 -0.435285934618 0.01369441
v -0.0480357342315 -0.420157390299 0.01406038
v -0.809086368775 -0.439665257686 0.2497713
v -0.825003684988 -0.4315038419 0.19421661
v -0.831165217422 -0.420157390299 0.18343261
v -0.828905975373 -0.424536713367 0.18372539
v 0.182405220378 -0.901434455789 0.2497713
v 0.175524814548 -0.90894892021 0.1931431
v 0.163509904351 -0.911437168011 0.19070327
v 0.175935591086 -0.90850108417 0.18382299
v 0.207256651663 -0.901882291829 0.18765351
v 0.217936668197 -0.898946150173 0.18565285
v 0.217936668197 -0.549546333783 0.04707116
v -0.00634275397704 -0.74785976449 0.01549989
v -0.0168173533348 -0.760300945681 0.01457274
v -0.0246219341052 -0.747809927843 0.01086423
v 0.217936668197 -0.550442121492 0.04719314
v -0.0440307063505 -0.730591250745 0.00637496
v -0.0359180287231 -0.712526622585 0.00635058
v -0.0489599669875 -0.699488211044 0.00420353
v -0.0550187619266 -0.684459166572 0.00337398
v -0.0731952623741 -0.6669418743 0.00198328
v -0.0724763889793 -0.635888555615 0.00286162
v -0.0794594744895 -0.606079303015 0.0034228
v -0.072887165517 -0.567262683567 0.00530145
v -0.060974877185 -0.508390687398 0.00864398
v -0.0635422160917 -0.438918806472 0.01193774
v -0.0593318288494 -0.420157390299 0.01340163
v -0.796660682039 -0.463054775456 0.2497713
v -0.818431376015 -0.443347850557 0.18709233
v -0.812064426404 -0.454744023174 0.19572932
v -0.830857120565 -0.420157390299 0.17618635
v -0.819766385309 -0.440262430221 0.17333177
v 0.171417164802 -0.903624088416 0.2497713
v 0.150570703582 -0.913875636981 0.1929723
v 0.141225696342 -0.914920761185 0.18423775
v 0.167925650954 -0.909745150256 0.18011445
v 0.185486015503 -0.905813721042 0.17716229
v 0.202532866018 -0.902330185683 0.18135878
v 0.217936668197 -0.898846650325 0.18475011
v 0.217936668197 -0.565122771957 0.04948658
v 0.217936668197 -0.567660740775 0.04990134
v -0.0291403603893 -0.767566689389 0.01306006
v 0.217936668197 -0.568208192293 0.04999894
v 0.217936668197 -0.5818935552 0.05246314
v -0.00541852122106 -0.758360149398 0.01767132
v -0.0192819547457 -0.773787251077 0.016671
v -0.0440307063505 -0.757762919048 0.00915635
v -0.0592291491688 -0.738354609324 0.00539905
v -0.0661094971832 -0.720737817203 0.00359356
v -0.0531702964146 -0.713472131311 0.00442311
v -0.07411949513 -0.701379228495 0.00227606
v -0.09732787808 -0.683414100183 0.00086099
v -0.0991763435919 -0.662612330063 0.00095856
v -0.0852102303867 -0.651017099934 0.00169051
v -0.0883937051923 -0.600207077519 0.003252
v -0.0807944837832 -0.560544391377 0.00532585
v -0.0765840965409 -0.515059200756 0.00757048
v -0.0825402696145 -0.443994859738 0.0110594
v -0.0749410482054 -0.420157390299 0.01274288
v -0.0624125661593 -0.420157390299 0.01325524
v -0.783721423456 -0.48505094846 0.2497713
v -0.804259845633 -0.468379665065 0.18370101
v -0.80292483634 -0.470818134035 0.191728
v -0.790499149605 -0.49102273162 0.19550973
v -0.828597878516 -0.420157390299 0.16205981
v -0.828187159793 -0.420804341665 0.16179141
v -0.816685590184 -0.439864315198 0.15766814
v -0.809702504674 -0.455838868395 0.16776899
v -0.811242873328 -0.454793802006 0.17345375
v -0.799227963131 -0.476342081155 0.17779663
v 0.158272546857 -0.905813721042 0.2497713
v 0.119968458584 -0.918553575224 0.19350907
v 0.124076108331 -0.91750856665 0.18257868
v 0.129621504867 -0.916463442445 0.17801622
v 0.144511850828 -0.911138610651 0.16308454
v 0.183534812495 -0.905017490996 0.17086756
v 0.21454783403 -0.896955632873 0.16735423
v 0.209721310889 -0.899841937882 0.1768207
v 0.217936668197 -0.897602526424 0.17591798
v -0.038382630134 -0.775976941519 0.01286489
v 0.217936668197 -0.596623984496 0.05529332
v 0.217936668197 -0.600455856047 0.05604967
v 0.217936668197 -0.629220042257 0.06180763
v 0.217936668197 -0.656292210712 0.06749243
v 0.217936668197 -0.692919197534 0.07573903
v 0.217936668197 -0.743878556445 0.08774292
v 0.217936668197 -0.798470671579 0.10094234
v -0.0149688878228 -0.776872729228 0.01886684
v -0.0213357796189 -0.787273614288 0.02011114
v -0.0305780493636 -0.784934587351 0.01676857
v -0.0513218887178 -0.775728105175 0.01086423
v -0.0623098864787 -0.767068958887 0.00825363
v -0.0700117875684 -0.754229662673 0.0059602
v -0.0835671820511 -0.752836202277 0.00481349
v -0.0797675713466 -0.734224180414 0.00349599
v -0.0846967741684 -0.722081498767 0.00249565
v -0.0882909676966 -0.704514427663 0.00164172
v -0.105235196346 -0.701080671136 0.00095856
v -0.123103599937 -0.684309887893 0.00051939
v -0.121665910962 -0.67047518849 0.0005438
v -0.12443860923 -0.64952413969 0.00078779
v -0.10667288532 -0.643602135362 0.00122696
v -0.118995892375 -0.606029581999 0.00232488
v -0.129162394876 -0.593090670306 0.00259325
v -0.125465521667 -0.563132139027 0.00395954
v -0.107802477438 -0.564127426584 0.00437433
v -0.0981494311553 -0.536507922242 0.00591141
v -0.0905502097462 -0.486941965911 0.00861961
v -0.182870343143 -0.420157390299 0.01074225
v -0.0950686360303 -0.420157390299 0.01230371
v -0.0782271448765 -0.420157390299 0.0126453
v -0.129470491733 -0.513665798175 0.00639936
v -0.148160448399 -0.523917404555 0.00547224
v -0.169828462694 -0.496297784582 0.00652134
v -0.182870343143 -0.484652833437 0.00696051
v -0.201252202952 -0.455440753372 0.00832683
v -0.22425522654 -0.445686877493 0.0084976
v -0.780435268969 -0.490475280102 0.2497713
v -0.787931810698 -0.495153218345 0.18191993
v -0.784953753069 -0.499731598925 0.18601882
v -0.777251851979 -0.511476107733 0.18962976
v -0.764620748067 -0.530386802587 0.19516814
v -0.770063349292 -0.507893072526 0.24647754
v -0.825619820887 -0.420157390299 0.15025109
v -0.814118309092 -0.440760102907 0.15098304
v -0.798303730375 -0.470619076523 0.1580829
v -0.796147225821 -0.476839696026 0.16364568
v -0.789985693386 -0.488385147324 0.167647
v -0.776532978584 -0.512172780116 0.1767475
v 0.14173915256 -0.90835168986 0.2497713
v 0.0873123887132 -0.922684119764 0.19138643
v 0.103948520506 -0.920544208154 0.18948337
v 0.0995327739023 -0.921041823025 0.18567726
v 0.108877723328 -0.919648362629 0.18323743
v 0.108672306151 -0.913129127951 0.24633116
v 0.0921389118544 -0.91477142469 0.2497713
v 0.0890581745445 -0.921788274239 0.17725986
v 0.0888528151833 -0.920345092827 0.1650852
v 0.11082886852 -0.91735917234 0.16603673
v 0.181070211084 -0.904022203439 0.16401166
v 0.102305414355 -0.917060557165 0.15854648
v 0.124589564549 -0.912880349423 0.1565946
v 0.146771092877 -0.907057902758 0.15037307
v 0.217936668197 -0.895860729837 0.16681746
v 0.217936668197 -0.896109623995 0.16769579
v 0.194625547752 -0.899443822859 0.15910763
v 0.215574746467 -0.894069212233 0.15905884
v 0.217936668197 -0.893372539851 0.15888804
v -0.0478303170551 -0.786079211404 0.01359683
v 0.217936668197 -0.802700715967 0.10204026
v 0.217936668197 -0.817132587904 0.10582197
v 0.217936668197 -0.835495831239 0.11128718
v -0.0363288052608 -0.807975826744 0.02250218
v -0.0446468422495 -0.809219950645 0.02108708
v -0.0645691285283 -0.786477326427 0.01144978
v -0.0669310502586 -0.776474614205 0.00920516
v -0.0804863869261 -0.767168574366 0.00661895
v -0.0908583066032 -0.760848339384 0.00527704
v -0.104105546414 -0.748208042866 0.00349599
v -0.103078633977 -0.723474901348 0.0018369
v -0.133783558656 -0.698841259677 0.00078779
v -0.115709795704 -0.717304060676 0.00137335
v -0.326023046858 -0.601899095274 0.00095856
v -0.147749671861 -0.683414100183 0.00066578
v -0.352004128076 -0.625437891723 0.00120255
v -0.329206521664 -0.619217330035 0.00098297
v -0.334649180704 -0.588860683733 0.00112936
v -0.139123538015 -0.63404725918 0.00098297
v -0.19088034109 -0.548998882265 0.00356919
v -0.135118567949 -0.573732081598 0.00330079
v -0.171060792307 -0.595131024253 0.00200769
v -0.158840407117 -0.557060856018 0.00366676
v -0.218709887819 -0.420157390299 0.01013228
v -0.196733776667 -0.531033753953 0.00427672
v -0.219223344038 -0.508539966077 0.00505745
v -0.202997988783 -0.485399284651 0.00659454
v -0.212342938208 -0.467583435019 0.00744849
v -0.237502524166 -0.505155930567 0.00498426
v -0.258657082243 -0.492764470392 0.00544783
v -0.244074833138 -0.421252177704 0.00969312
v -0.241918270769 -0.420157390299 0.00979072
v -0.776738395761 -0.496198284734 0.2497713
v -0.759075409347 -0.538249661013 0.18704355
v -0.755686517365 -0.543027099105 0.19258195
v -0.738126152816 -0.566565953369 0.1958757
v -0.743260772814 -0.544321001837 0.2497713
v -0.752503100374 -0.531581205471 0.2497713
v -0.760923817043 -0.519936138695 0.2497713
v -0.819355608771 -0.420157390299 0.13580737
v -0.796660682039 -0.469574010134 0.15073904
v -0.815247901209 -0.423342368298 0.13083011
v -0.783002607876 -0.496098727071 0.16113266
v -0.768933757175 -0.518940851137 0.16459721
v -0.770576805511 -0.518542736114 0.16979402
v -0.759999584287 -0.535064683014 0.17450288
v -0.745109238326 -0.556563183332 0.17704028
v -0.751578867618 -0.547754758364 0.17884576
v 0.126438030061 -0.91034232279 0.2497713
v 0.0624608996126 -0.924873694575 0.1942898
v 0.0482894270461 -0.926267154971 0.19185001
v 0.0697520819798 -0.924127243361 0.18070003
v 0.0707789944164 -0.916562942294 0.2497713
v 0.0675955196108 -0.923729128338 0.17274621
v 0.0736543145499 -0.922435225606 0.16610992
v 0.0740650910875 -0.919200584405 0.1501047
v 0.193290538458 -0.897751862919 0.15286168
v 0.0939873773664 -0.916214548287 0.15042186
v 0.121406147559 -0.9112381105 0.14912876
v 0.176346367624 -0.89979215905 0.14849442
v 0.111342324738 -0.906162115049 0.13205004
v 0.217936668197 -0.889839167845 0.14937276
v -0.0629260801927 -0.792449167402 0.01320645
v -0.0613856537227 -0.823950379942 0.02250218
v -0.0730925826934 -0.831116508171 0.02281934
v 0.217936668197 -0.847041282536 0.11533728
v -0.0202061875017 -0.816585136386 0.03084636
v -0.0145581112851 -0.828429202858 0.03743386
v -0.0471115014755 -0.820466844583 0.02452722
v 0.217936668197 -0.85863657048 0.11955816
v -0.106056691606 -0.80678142386 0.01225492
v -0.109342846093 -0.801058477043 0.01066905
v -0.0791513776325 -0.782496176197 0.00927836
v -0.117044747182 -0.818326932973 0.014036
v -0.107186341539 -0.777221065419 0.00669214
v -0.109958981992 -0.792797561409 0.00903437
v -0.119920125131 -0.773588251381 0.0057162
v -0.112218224041 -0.760052109338 0.00437433
v -0.120741678206 -0.754329220336 0.00364238
v -0.125465521667 -0.740594020782 0.00254446
v -0.141177362888 -0.723723679876 0.00161731
v -0.333519588586 -0.643801192873 0.00149533
v -0.346766828397 -0.606477418038 0.00105616
v -0.347074925254 -0.655048028996 0.00208089
v -0.357446844931 -0.659875245919 0.00254446
v -0.37356946269 -0.635689440288 0.00225168
v -0.364224513265 -0.611951586327 0.00144655
v -0.347588381472 -0.573831581446 0.00164172
v -0.31544576782 -0.563679590545 0.00181252
v -0.31708887397 -0.576966838429 0.00144655
v -0.291929288013 -0.564226984248 0.00195891
v -0.226001012372 -0.560643891225 0.00269085
v -0.271801642372 -0.531083532784 0.00337398
v -0.279298184101 -0.499781377756 0.00493547
v -0.244177512819 -0.420157390299 0.00976631
v -0.27447166096 -0.459173125074 0.00735089
v -0.73946116211 -0.564724656934 0.1864824
v -0.726213922299 -0.581445661345 0.19465578
v -0.714609673009 -0.595777975619 0.19509494
v -0.717382371277 -0.577962125987 0.2497713
v -0.719538933646 -0.575274820674 0.2497713
v -0.725084330182 -0.568158413461 0.2497713
v -0.738228832497 -0.551138793875 0.2497713
v -0.817301726083 -0.420157390299 0.13136688
v -0.785569888968 -0.485847120691 0.14988512
v -0.765339621462 -0.517199112366 0.15037307
v -0.804259845633 -0.445786377341 0.1366857
v -0.785261849926 -0.474102669697 0.13497782
v -0.817096366721 -0.420157390299 0.13092771
v -0.816274813646 -0.420157390299 0.12963462
v -0.814939804352 -0.420157390299 0.12782913
v -0.804259845633 -0.440760102907 0.13104969
v -0.757637662557 -0.532725713893 0.1593028
v -0.745520014864 -0.551089072858 0.1622062
v -0.746238830443 -0.551785745241 0.16696385
v -0.72323586467 -0.583237236764 0.17225826
v -0.713171984035 -0.596773263176 0.17796743
v -0.731245862617 -0.571542448972 0.16723222
v 0.0342206341602 -0.918454075375 0.2497713
v 0.0228218020465 -0.927262442528 0.19389945
v 0.00587757339687 -0.928158230238 0.18897101
v 0.0149144837803 -0.927760057399 0.18599442
v 0.0301129265986 -0.927063442832 0.18067563
v 0.0176871820482 -0.927561057703 0.17094076
v 0.0402794290992 -0.926217433954 0.17311218
v 0.0302156062792 -0.92656571233 0.16671985
v 0.0249783066003 -0.925570424773 0.15625304
v 0.058969385765 -0.923132013618 0.16144985
v 0.0341178966644 -0.923928185849 0.15098304
v 0.0582505123703 -0.921240880536 0.15054387
v 0.0141956682007 -0.918603354055 0.12438899
v 0.0336044404461 -0.915269039561 0.12260795
v 0.209207854671 -0.891780021944 0.14883599
v 0.0654389572418 -0.910441938269 0.1231935
v 0.137015366914 -0.899095428853 0.12914664
v 0.179221745572 -0.891282407072 0.1337823
v 0.0811508562784 -0.90850108417 0.12521854
v 0.0854639232012 -0.904669154805 0.11958256
v 0.193393275954 -0.886106796143 0.13144007
v 0.217936668197 -0.882971654791 0.13761282
v -0.0807944837832 -0.832111795728 0.02206302
v -0.0449549391065 -0.828379481841 0.02852851
v -0.0575861008332 -0.84181595059 0.03162709
v -0.0694983313501 -0.837785021529 0.02689385
v -0.0816160368585 -0.843806583521 0.02738181
v -0.0357126693618 -0.835645109919 0.03423768
v 0.217936668197 -0.86122431813 0.12068048
v -0.121768590643 -0.811359862255 0.01205975
v -0.132756646219 -0.829076212039 0.01696378
v -0.130702821346 -0.817082809072 0.01323086
v -0.109958981992 -0.841517393231 0.02277055
v -0.123206279617 -0.791404043198 0.00818044
v -0.132345869681 -0.766272786656 0.0047403
v -0.130908180707 -0.789612525594 0.00781447
v -0.141588139426 -0.752686865782 0.00349599
v -0.145182390769 -0.74357994127 0.00281283
v -0.362478727434 -0.586272878268 0.00181252
v -0.367305250575 -0.679781228329 0.00413033
v -0.381784819998 -0.659875245919 0.00361797
v -0.37428827827 -0.652410502515 0.00295922
v -0.395648253523 -0.63101155986 0.00354478
v -0.38353060583 -0.620411617289 0.00254446
v -0.391951322499 -0.610309347404 0.00303242
v -0.374493695446 -0.598863395955 0.00208089
v -0.360322165065 -0.560892727569 0.00261766
v -0.333827627628 -0.545515346906 0.00278842
v -0.304971168462 -0.528545506151 0.0034228
v -0.287205444552 -0.539095669891 0.00293481
v -0.250647084296 -0.547953815876 0.00293481
v -0.290799695895 -0.490326001422 0.00556982
v -0.264921294358 -0.420157390299 0.00998589
v -0.301376974934 -0.48077112524 0.00637496
v -0.285973172754 -0.439515979006 0.00893676
v -0.72087394294 -0.587815617344 0.18528688
v -0.704956626727 -0.60652719687 0.1824567
v -0.695919774158 -0.617276418121 0.19521695
v -0.696946686595 -0.601749816594 0.2497713
v -0.739255744933 -0.553776378171 0.15064144
v -0.771911814804 -0.495053660682 0.13597813
v -0.7465469273 -0.53401967444 0.13893032
v -0.811037513967 -0.420157390299 0.12346187
v -0.719847030503 -0.582689785246 0.15966877
v -0.69078515416 -0.621655799005 0.17069677
v -0.714404313648 -0.592045603917 0.16652468
v 0.0140929885201 -0.919100968927 0.2497713
v -0.00387815256613 -0.928108451406 0.19411904
v -0.0079858023126 -0.928407066581 0.18609202
v -0.0164065767971 -0.928257730086 0.17098954
v -0.0146607909658 -0.928008951558 0.16540235
v -0.0334534273122 -0.927561057703 0.14988512
v -0.00192700737353 -0.926764827657 0.15388641
v 0.0229244817271 -0.924674637064 0.14917755
v -0.043311890771 -0.92148971688 0.11650839
v -0.00706156955662 -0.919001469078 0.11938739
v -0.0108611802612 -0.91676205762 0.11192152
v 0.0178925992247 -0.915269039561 0.11702076
v 0.0300102469179 -0.912084119377 0.11377579
v 0.134139988966 -0.896457960187 0.12380344
v 0.161045245125 -0.892725588485 0.12819511
v 0.0449005928792 -0.906560230072 0.10906693
v 0.0813562734548 -0.900389331585 0.11155555
v 0.179119065891 -0.887749092882 0.12846351
v 0.217936668197 -0.878094716851 0.13075691
v 0.217936668197 -0.8794383406 0.13231841
v 0.217936668197 -0.881130358356 0.13456306
v -0.0927067143001 -0.838531472743 0.0234049
v -0.0676499236533 -0.844652592398 0.03077316
v -0.0243138372481 -0.85296334468 0.04580244
v -0.0563537712202 -0.850425318047 0.03631154
v -0.0764814168603 -0.854107968732 0.03423768
v -0.096711742181 -0.852465729809 0.03028518
v -0.104208226094 -0.846245110305 0.02564955
v -0.0122988692355 -0.8439558622 0.0448997
v 0.217936668197 -0.868390446359 0.12412062
v -0.142512372182 -0.804790848745 0.01052266
v -0.13994509109 -0.825493061202 0.01567066
v -0.125978977885 -0.841517393231 0.02220941
v -0.15000891391 -0.839078924261 0.02081871
v -0.162023881923 -0.83460004353 0.01908642
v -0.145798526668 -0.815540069997 0.01291367
v -0.127724705901 -0.850773712053 0.02664986
v -0.1475443125 -0.780057649412 0.00654575
v -0.157505397824 -0.774633259955 0.00610659
v -0.154835437052 -0.793792733336 0.008766
v -0.160483513268 -0.758260591734 0.00449631
v -0.386097886921 -0.583336736612 0.00310561
v -0.38127136378 -0.571940563995 0.00320321
v -0.363813736727 -0.691824410128 0.00503308
v -0.378087888974 -0.679582228633 0.00469148
v -0.396161709741 -0.675501462925 0.00576502
v -0.396264389422 -0.657586055629 0.0046427
v -0.404479804545 -0.650917542271 0.00493547
v -0.402528659352 -0.630165550983 0.00415474
v -0.406225532561 -0.598017387077 0.00434992
v -0.380757907562 -0.547605479684 0.00459391
v -0.35878179641 -0.545117231883 0.00361797
v -0.342967217692 -0.525858200839 0.00437433
v -0.324482678203 -0.517597227389 0.00437433
v -0.285459716536 -0.420655062985 0.01042506
v -0.284740843141 -0.420157390299 0.01044947
v -0.322634212691 -0.474600284568 0.00742409
v -0.681234787558 -0.633101692639 0.18233469
v -0.680824011021 -0.633698922988 0.19548532
v -0.666960577496 -0.634495095219 0.2497713
v -0.713480080892 -0.586820271971 0.15100741
v -0.728575844029 -0.556115289477 0.13663688
v -0.7007462973 -0.590801480016 0.13463625
v -0.784542976531 -0.470171240484 0.13146448
v -0.703313520576 -0.583087900269 0.13087893
v -0.720155069545 -0.564376320743 0.13402629
v -0.687909776212 -0.599112232298 0.12743878
v -0.808264815699 -0.420157390299 0.12141243
v -0.541881694548 -0.708644972203 0.070591
v -0.558620506021 -0.700533219618 0.07952073
v -0.702697500307 -0.600903807716 0.15313005
v -0.698897889603 -0.60896566584 0.16188902
v -0.684212845188 -0.62533833406 0.159376
v -0.66993869294 -0.639272591126 0.15305686
v -0.669733333579 -0.644249086728 0.16952565
v 0.003721068843 -0.919300084253 0.2497713
v -0.0323238351949 -0.927411721208 0.19541213
v -0.0458791718625 -0.927710336383 0.19163042
v -0.0284215448097 -0.928208009069 0.19004452
v -0.0210276827619 -0.918951690247 0.2497713
v -0.0366369021178 -0.928556345261 0.17757705
v -0.0416687846203 -0.928407066581 0.16486561
v -0.0663149143596 -0.927809836231 0.15083665
v -0.0910636659645 -0.922435225606 0.11465412
v -0.0518352871209 -0.923480291995 0.12368146
v -0.0324265148756 -0.92517230975 0.13702726
v -0.0798702510272 -0.921688774391 0.11136037
v -0.0577914601945 -0.920544208154 0.1109212
v -0.0582022367322 -0.919648362629 0.10777384
v -0.0351992131435 -0.917707566346 0.10770065
v -0.00654811333831 -0.913129127951 0.10450447
v 0.00331029230533 -0.908550805187 0.09972245
v 0.162585671595 -0.888196986737 0.12370586
v 0.00259147672575 -0.904619375973 0.09396446
v 0.0269294517929 -0.901733070964 0.09752661
v 0.000640331533147 -0.898498256318 0.08615702
v 0.000948370575051 -0.892974424828 0.08044785
v 0.0220002489711 -0.8902870617 0.08383921
v 0.217936668197 -0.874163287638 0.12765837
v 0.00248879704511 -0.886057075127 0.07459229
v -0.0360207084037 -0.85709388922 0.04492411
v -0.0182550423091 -0.855003756442 0.04853505
v -0.052451480835 -0.86689754393 0.04699796
v -0.0794594744895 -0.859183964183 0.0369215
v -0.102565177759 -0.859134185352 0.03350574
v 0.217936668197 -0.871824260701 0.12619448
v -0.0114773161601 -0.868490061837 0.05846509
v -0.167671900325 -0.809170171814 0.01210853
v -0.169931142374 -0.800112968318 0.01035187
v -0.16541271609 -0.827035800277 0.01659781
v -0.162537338141 -0.843060074491 0.02294135
v -0.194782631475 -0.840920278511 0.02374649
v -0.190469564552 -0.832111795728 0.01964757
v -0.18399993526 -0.816485636538 0.01447517
v -0.138302042755 -0.856844995062 0.03011441
v -0.164488483334 -0.859681579054 0.03177348
v -0.133680878975 -0.862120105839 0.03370094
v -0.171471511029 -0.7798585919 0.00730211
v -0.400577456345 -0.564177263231 0.00515506
v -0.396367069102 -0.554473050554 0.00527704
v -0.358371019872 -0.707400790487 0.00664335
v -0.372439812758 -0.704414927815 0.00691172
v -0.389486721088 -0.695258166655 0.00705811
v -0.402425921857 -0.69600461787 0.0084244
v -0.411668191601 -0.681323967405 0.00805843
v -0.415057025768 -0.659775746071 0.00671655
v -0.42234815032 -0.637779630882 0.00644815
v -0.418548539616 -0.607671820923 0.00564301
v -0.418035083397 -0.596972378503 0.00581381
v -0.418137763078 -0.579305807551 0.00627738
v -0.383838702687 -0.529341736197 0.00639936
v -0.364635231987 -0.509485532618 0.00676534
v -0.348820711085 -0.511575665397 0.00564301
v -0.361759854039 -0.529092899854 0.00498426
v -0.328076871731 -0.492067798009 0.00632617
v -0.285459716536 -0.420157390299 0.01047385
v -0.313391942946 -0.436181722327 0.01037627
v -0.296550451792 -0.420157390299 0.01101062
v -0.663469121464 -0.652311002667 0.19416782
v -0.667371354034 -0.647533564575 0.17889455
v -0.639952583842 -0.661517484842 0.2497713
v -0.693249755571 -0.610657683595 0.1499339
v -0.682775156213 -0.616131851884 0.1393207
v -0.67147900378 -0.623098922602 0.12990299
v -0.645292563201 -0.640616214874 0.11655718
v -0.6498110473 -0.639023754782 0.11985093
v -0.800768273971 -0.420157390299 0.11743551
v -0.490638405507 -0.703519140105 0.0368239
v -0.503680285956 -0.707102233127 0.04543647
v -0.516824846086 -0.708445914691 0.05400023
v -0.537979404163 -0.704016812792 0.06578454
v -0.518570574102 -0.714965091554 0.05790395
v -0.509841818391 -0.720140644669 0.05451259
v -0.514052147818 -0.725515313109 0.06012416
v -0.525450979932 -0.723823295354 0.06710204
v -0.546194761471 -0.717552839204 0.07969153
v -0.549275498781 -0.706903175616 0.07566583
v -0.575975453393 -0.696502290556 0.09179303
v -0.684315524868 -0.621854798701 0.15120262
v -0.63974722448 -0.670674246002 0.15073904
v -0.657102171852 -0.65380396291 0.15583828
v -0.642314505572 -0.657187940606 0.13070813
v -0.636255710633 -0.66649403826 0.13488021
v -0.648784077049 -0.664254626802 0.16223058
v -0.64816794115 -0.666344701765 0.16850093
v -0.656280618777 -0.658780400698 0.17379534
v -0.0916798596786 -0.925072809902 0.1929723
v -0.0864425021846 -0.926167655123 0.18514049
v -0.0498841997435 -0.92790945171 0.18577483
v -0.0539918494899 -0.917408951171 0.2497713
v -0.0460845312238 -0.928506566429 0.17198986
v -0.061899109941 -0.928058672574 0.16725662
v -0.0883937051923 -0.926864327505 0.15632623
v -0.110369758529 -0.9257695401 0.15212974
v -0.107289021219 -0.925869039948 0.15047067
v -0.119612086089 -0.923281234483 0.12714601
v -0.109034749236 -0.922236225909 0.11609361
v -0.10975362263 -0.919996756636 0.10689551
v -0.111191311605 -0.918055960352 0.09930766
v -0.0791513776325 -0.91949908395 0.10443127
v -0.0705252437867 -0.917110393812 0.09967363
v -0.0527595198769 -0.913825915964 0.09579432
v -0.0260596230795 -0.911138610651 0.09667265
v -0.00665079301895 -0.910193101926 0.09982002
v -0.0299619134647 -0.909048535688 0.09264696
v -0.0324265148756 -0.904569597142 0.08552268
v -0.0268811761548 -0.901434455789 0.0825949
v -0.0206169062242 -0.892078579303 0.07420194
v -0.0118880926978 -0.8781942167 0.06466225
v -0.0344803975639 -0.885459844777 0.06483302
v -0.0333507476316 -0.868788619197 0.05275592
v -0.0333507476316 -0.873217663282 0.05595207
v -0.0285242244904 -0.876850535136 0.0597094
v -0.0583049164128 -0.877547207518 0.05360985
v -0.0793567948089 -0.86689754393 0.04197192
v -0.106878244682 -0.865106026327 0.03736067
v -0.201354940447 -0.804691348897 0.01301128
v -0.246950153272 -0.788816295548 0.0126209
v -0.27210973923 -0.778813583326 0.01220614
v -0.273342011027 -0.770054879375 0.01088864
v -0.205873366731 -0.821163516965 0.01711017
v -0.171574248525 -0.850922932918 0.02721101
v -0.224974099935 -0.837735242697 0.02469802
v -0.209775657117 -0.848733300292 0.02862611
v -0.230930215193 -0.82360204375 0.01976958
v -0.239556349039 -0.807876269081 0.01598784
v -0.257630169806 -0.801008698212 0.01557308
v -0.148263128079 -0.867444937633 0.03687268
v -0.201662979489 -0.85495397761 0.03126112
v -0.184102672756 -0.864707853489 0.03589678
v -0.126184337246 -0.868639340517 0.03877574
v -0.256397840193 -0.76393387535 0.00915635
v -0.412078968139 -0.558553816262 0.00676534
v -0.417419005314 -0.54412188651 0.00866839
v -0.400577456345 -0.530486302435 0.00791204
v -0.353852593588 -0.726211985492 0.00896117
v -0.378601345193 -0.718996078431 0.00927836
v -0.399550543908 -0.708495635708 0.00976631
v -0.421115878522 -0.705260936692 0.01218173
v -0.416186675701 -0.691675073633 0.00979072
v -0.430460827948 -0.680627237207 0.01071784
v -0.433336263711 -0.653903462759 0.008766
v -0.434055079291 -0.642905405164 0.00827801
v -0.431898574737 -0.614190997786 0.00739968
v -0.429331235831 -0.588960183581 0.00749728
v -0.430871604485 -0.563082360195 0.00910756
v -0.373364045514 -0.499731598925 0.00847322
v -0.328693065445 -0.430259660184 0.01210853
v -0.320066931599 -0.420157390299 0.0126209
v -0.298296179809 -0.420157390299 0.01110822
v -0.648989494225 -0.666842374452 0.18238351
v -0.629888818837 -0.685205617787 0.18296906
v -0.633893788903 -0.680328679847 0.19582689
v -0.628759168904 -0.671868591071 0.2497713
v -0.668501003966 -0.629966551286 0.13495341
v -0.650119086342 -0.643303520187 0.12409621
v -0.616744200892 -0.671570033711 0.11233631
v -0.591071216531 -0.689087325984 0.10050318
v -0.790191052748 -0.420157390299 0.11289746
v -0.467738061599 -0.684011272718 0.02050152
v -0.474413050252 -0.684309887893 0.02372208
v -0.470613439547 -0.697796193288 0.02518597
v -0.483655319997 -0.701329507479 0.03257862
v -0.477801884419 -0.714915312723 0.03389612
v -0.480574582687 -0.726510542852 0.03970289
v -0.492384133523 -0.718398848082 0.04328942
v -0.505631431149 -0.713173516136 0.0490962
v -0.496594520765 -0.72675943701 0.04943776
v -0.482936446602 -0.739897290584 0.04775429
v -0.49967531589 -0.73760815811 0.05773315
v -0.496286481723 -0.745471016537 0.06031936
v -0.519186767816 -0.735418467668 0.07029822
v -0.533974434097 -0.724868303928 0.0747875
v -0.533358298198 -0.735020352645 0.0825949
v -0.547940489487 -0.726062706812 0.08879206
v -0.562214757364 -0.710386710975 0.08930442
v -0.628451129862 -0.682219697299 0.15044627
v -0.639336447943 -0.672515542437 0.15627745
v -0.620954588134 -0.682020697603 0.13368472
v -0.600621583133 -0.70167784367 0.13051295
v -0.639028351086 -0.656242374065 0.12446219
v -0.605550785954 -0.68684785671 0.11465412
v -0.611404163717 -0.685106117939 0.12141243
v -0.613149949548 -0.687046972037 0.12799993
v -0.636255710633 -0.678338046917 0.16842774
v -0.116633970645 -0.922335725757 0.19372866
v -0.123206279617 -0.922136610431 0.19080088
v -0.118277076795 -0.922932898292 0.18867823
v -0.065288001923 -0.916811778637 0.2497713
v -0.117044747182 -0.924276522041 0.17281941
v -0.1430258284 -0.923231513467 0.1511538
v -0.0894206176289 -0.926466212482 0.17086756
v -0.145182390769 -0.920295371811 0.11706954
v -0.137788528721 -0.918951690247 0.1067979
v -0.129265132371 -0.91661277894 0.0962579
v -0.130600141665 -0.9124822344 0.08454674
v -0.0688821954512 -0.912780849575 0.0908415
v -0.060974877185 -0.907953632652 0.08430278
v -0.0548134025653 -0.900837283255 0.07661736
v -0.0651852644272 -0.897055132721 0.07044461
v -0.0377664942351 -0.892974424828 0.07129854
v -0.062207206798 -0.887649593034 0.06156367
v -0.0753518247431 -0.875258075044 0.04882783
v -0.098560207693 -0.875258075044 0.04587564
v -0.114888242629 -0.871874039533 0.04177675
v -0.295215442499 -0.781252052296 0.01398718
v -0.293777753525 -0.770602330893 0.01210853
v -0.317602330189 -0.751094463505 0.01057145
v -0.229800623076 -0.819421720378 0.01833007
v -0.249414812498 -0.825542840034 0.02225819
v -0.239864445896 -0.848534300595 0.03172469
v -0.241918270769 -0.840024432987 0.02767459
v -0.267796672307 -0.812454649661 0.01942798
v -0.298501596985 -0.798321392899 0.01835448
v -0.314521535064 -0.793643570286 0.01852527
v -0.311543477434 -0.782844512388 0.01569507
v -0.172087704743 -0.868689061534 0.03858057
v -0.149290040516 -0.876950092799 0.04426536
v -0.212959131922 -0.859880694381 0.03545761
v -0.171984967247 -0.874660902509 0.04333821
v -0.193961078399 -0.871674982021 0.0424355
v -0.205154551152 -0.86674826525 0.03950769
v -0.430358148267 -0.55054162134 0.01003468
v -0.418343180254 -0.527201824587 0.01079103
v -0.408587454291 -0.526952988244 0.00932714
v -0.385173654165 -0.485697899826 0.01164496
v -0.372439812758 -0.733975286256 0.01120579
v -0.390718992886 -0.723823295354 0.0110594
v -0.431077021662 -0.692670361191 0.01220614
v -0.407868580897 -0.727953724264 0.01413357
v -0.419575452052 -0.724470188905 0.01547548
v -0.436827777559 -0.702026179861 0.01476794
v -0.447918512816 -0.676496808297 0.01342604
v -0.444632358329 -0.656441489392 0.01088864
v -0.449766978328 -0.646040604332 0.01120579
v -0.445145814548 -0.618072705983 0.00966871
v -0.447713095639 -0.599908462344 0.01022989
v -0.442681213137 -0.585625926902 0.0099127
v -0.440935427305 -0.568357470973 0.01047385
v -0.355290282562 -0.443994859738 0.01330405
v -0.341837625575 -0.420157390299 0.01486552
v -0.331260346537 -0.420157390299 0.01369441
v -0.323353086086 -0.420157390299 0.01286489
v -0.601237719031 -0.710884383661 0.18448174
v -0.620646491277 -0.693367091389 0.18962976
v -0.629375362618 -0.685255396618 0.17530802
v -0.609350396659 -0.703519140105 0.17218506
v -0.60257267051 -0.70964025976 0.1782358
v -0.614279599481 -0.698691923183 0.19482657
v -0.598978476982 -0.69829380816 0.2497713
v -0.622803053646 -0.667986998504 0.11592284
v -0.601545815889 -0.684508945404 0.10755426
v -0.575256637814 -0.705659051715 0.09840494
v -0.783721423456 -0.420157390299 0.11072603
v -0.472975361278 -0.630215329814 0.01689059
v -0.46476000397 -0.648727909644 0.01506072
v -0.470613439547 -0.648827467308 0.01708576
v -0.46948384743 -0.659676246222 0.01752493
v -0.459830743333 -0.677093923017 0.01676857
v -0.451718065705 -0.702175516356 0.01850086
v -0.45479886083 -0.708644972203 0.02108708
v -0.461987305702 -0.715811100432 0.02647907
v -0.471537672303 -0.710884383661 0.02955323
v -0.472872623782 -0.725764091637 0.03531122
v -0.4524369391 -0.743629720101 0.03306657
v -0.45705810288 -0.744774344154 0.03604317
v -0.482320368518 -0.734771574117 0.04475331
v -0.475542642369 -0.751193963354 0.05016971
v -0.485298368332 -0.749352666918 0.05531773
v -0.458290374678 -0.752338587406 0.04058123
v -0.48344990282 -0.760947954862 0.06227121
v -0.50039413147 -0.757215525345 0.07246965
v -0.512409099482 -0.75154235736 0.07764208
v -0.525656339293 -0.74482406517 0.08413199
v -0.539725189994 -0.740146184743 0.09369609
v -0.552664332947 -0.727207330865 0.09494039
v -0.606269601534 -0.704016812792 0.15173936
v -0.577618501729 -0.723375401499 0.12802434
v -0.590865799354 -0.704962321517 0.11809427
v -0.561701301146 -0.735020352645 0.11870423
v -0.583369257626 -0.708097520685 0.11123839
v -0.581315432753 -0.703767976448 0.10365054
v -0.567965513261 -0.721832662424 0.10760304
v -0.613766085447 -0.698890980694 0.16340169
v -0.15842963058 -0.917309451323 0.19363105
v -0.115915155065 -0.911686004354 0.24640435
v -0.135837383529 -0.921439995863 0.1825299
v -0.121357814105 -0.923530128641 0.17677191
v -0.132448549362 -0.908849420362 0.2497713
v -0.145593167307 -0.920643708002 0.17623514
v -0.156375805707 -0.920842765513 0.15593585
v -0.161099649167 -0.920544208154 0.15047067
v -0.200225290515 -0.914174252156 0.1243158
v -0.168082676862 -0.918702853904 0.12460858
v -0.165001939552 -0.917408951171 0.1096769
v -0.15463007769 -0.916961057317 0.10252821
v -0.139431634872 -0.91462214601 0.09128067
v -0.177941140321 -0.909347093048 0.08410758
v -0.176811548204 -0.907704796309 0.08088702
v -0.138199305259 -0.908600584018 0.0785692
v -0.10657020564 -0.906012778554 0.07639778
v -0.0979440717941 -0.907655075293 0.07983792
v -0.0791513776325 -0.905266269524 0.07827643
v -0.0905502097462 -0.902479464363 0.07366517
v -0.105748652564 -0.900240052905 0.0692735
v -0.0803837072455 -0.893919933554 0.0650526
v -0.086031783462 -0.883369769814 0.05463457
v -0.106980924362 -0.885161287417 0.05385384
v -0.110164399168 -0.879935955471 0.04907179
v -0.135323927311 -0.879687119128 0.04702234
v -0.363402960189 -0.745321737857 0.0125477
v -0.333519588586 -0.756070901293 0.01230371
v -0.27221241891 -0.828031087835 0.02601552
v -0.286897347695 -0.816336300043 0.02311212
v -0.283611251024 -0.837834858176 0.03260303
v -0.253727879421 -0.841169057039 0.02965084
v -0.237913300704 -0.855202756138 0.03565279
v -0.260710907116 -0.852067556971 0.03738505
v -0.263688964745 -0.845150265085 0.03365213
v -0.346972245573 -0.773140299711 0.01693937
v -0.357754883973 -0.76393387535 0.01584145
v -0.31318652577 -0.813698773561 0.02582031
v -0.346253372179 -0.790110198281 0.02196541
v -0.357652204292 -0.776474614205 0.01923281
v -0.134091655513 -0.889291774142 0.0557813
v -0.151343923204 -0.884763172394 0.05151162
v -0.174449626473 -0.882623260784 0.05038929
v -0.236989067948 -0.866200813733 0.04382619
v -0.198479562499 -0.878293716548 0.04846185
v -0.217682975383 -0.872819548259 0.0462904
v -0.440730067944 -0.549844891142 0.0123769
v -0.4314877982 -0.534218674137 0.0123769
v -0.414338210189 -0.510978492862 0.0125477
v -0.392772875574 -0.469822846477 0.01523149
v -0.37048872538 -0.434788319747 0.01691496
v -0.386816702501 -0.739797790736 0.01374322
v -0.390308274163 -0.745072901514 0.0153535
v -0.412284385315 -0.734671958638 0.0164758
v -0.421423917564 -0.736015698018 0.01867166
v -0.438265408718 -0.716607330478 0.01801291
v -0.447918512816 -0.693516370068 0.01598784
v -0.463424994676 -0.660721254796 0.01576826
v -0.453874628074 -0.654450914277 0.0126453
v -0.456133870124 -0.626283900601 0.01213294
v -0.453566531217 -0.602745104152 0.01149857
v -0.451512706344 -0.573085130232 0.01257211
v -0.456955365384 -0.568108692445 0.01430437
v -0.351387992177 -0.420157390299 0.01628062
v -0.589222751019 -0.72033970218 0.19460699
v -0.57936428756 -0.729396905676 0.16732982
v -0.579056190703 -0.729546242171 0.17672312
v -0.565706271212 -0.740544299766 0.17818701
v -0.575256637814 -0.731835432461 0.15242252
v -0.590352343136 -0.719493693302 0.16364568
v -0.566733183648 -0.724569688753 0.2497713
v -0.582342345189 -0.725614812958 0.19621727
v -0.558209729483 -0.726659821532 0.10096675
v -0.778176084735 -0.420157390299 0.10916454
v -0.465992333583 -0.617823869639 0.01457274
v -0.436314321341 -0.729994136026 0.02091628
v -0.453771948393 -0.716557551646 0.02303892
v -0.455209637368 -0.733079556362 0.02952886
v -0.436622418198 -0.749601445446 0.02869931
v -0.43230929346 -0.763187366321 0.03370094
v -0.4671219257 -0.765725392954 0.05482978
v -0.449561561151 -0.764481269053 0.04319182
v -0.478212660956 -0.769358206992 0.06493062
v -0.496491841085 -0.767367574062 0.07842281
v -0.508301391921 -0.761495348565 0.08388799
v -0.51898135064 -0.760350724513 0.09472081
v -0.528839814099 -0.753433374812 0.09801456
v -0.542497888262 -0.742286038537 0.10074717
v -0.560160874676 -0.728949011821 0.10640752
v -0.50511797493 -0.768760976643 0.08874324
v -0.57618087057 -0.728152839591 0.13983306
v -0.568992425698 -0.725415697631 0.11480051
v -0.559647418458 -0.73302977753 0.11194593
v -0.54147091801 -0.747909485506 0.10867658
v -0.515695196154 -0.767865304564 0.10240623
v -0.529045231275 -0.761445569734 0.11309263
v -0.53910899628 -0.755573286422 0.12172961
v -0.554512798459 -0.744724507507 0.13056174
v -0.151035826347 -0.906510509055 0.2497713
v -0.163564250578 -0.904370597445 0.2497713
v -0.213986044359 -0.906012778554 0.19438741
v -0.201354940447 -0.909994044414 0.18477452
v -0.210597210192 -0.91233295572 0.15374002
v -0.182562246286 -0.915716933416 0.16723222
v -0.179584188657 -0.917657787514 0.14995831
v -0.230622118336 -0.908451305339 0.1283415
v -0.213780627182 -0.911138610651 0.11536166
v -0.208954104041 -0.911586504506 0.1081886
v -0.17075269545 -0.914323530835 0.0989905
v -0.154116563657 -0.914373367482 0.09350088
v -0.219017926861 -0.904121703287 0.08554709
v -0.21645064577 -0.900090774225 0.07759327
v -0.204538357438 -0.908998699041 0.09494039
v -0.219531440895 -0.906062615201 0.09198821
v -0.199301057759 -0.895412835982 0.0676876
v -0.172498481281 -0.895860729837 0.06471103
v -0.164077706796 -0.899991274377 0.06905392
v -0.140253130132 -0.897403468912 0.06468663
v -0.106467468144 -0.890685176723 0.05897745
v -0.286589308653 -0.830569114468 0.02943125
v -0.30784654641 -0.826936300429 0.03143191
v -0.267899351987 -0.853859132389 0.03977609
v -0.298604276666 -0.842910795811 0.03901973
v -0.312056933653 -0.830220778277 0.03416449
v -0.393389011473 -0.757265304177 0.01908642
v -0.332903394872 -0.812852764684 0.02904087
v -0.356009155957 -0.799316680456 0.02774778
v -0.36576488192 -0.785382481206 0.02394167
v -0.378601345193 -0.775230432489 0.02255097
v -0.16613153167 -0.889490773839 0.05683041
v -0.201149523271 -0.888694601608 0.05963621
v -0.230211399614 -0.873566057288 0.04904741
v -0.246025920516 -0.873416778608 0.051658
v -0.262251275771 -0.863812123594 0.0464856
v -0.202073756027 -0.884564172698 0.05548853
v -0.774684513072 -0.420157390299 0.1081886
v -0.415981258524 -0.492515691864 0.01613423
v -0.383838702687 -0.444741310952 0.01791531
v -0.371412958136 -0.421501071863 0.01969638
v -0.359295252628 -0.420157390299 0.01747614
v -0.418753956792 -0.751641857208 0.0233317
v -0.460652296408 -0.585824984414 0.01415798
v -0.561393204289 -0.743082326399 0.18731192
v -0.556464001467 -0.747411870635 0.15266651
v -0.553383206342 -0.7499996761 0.16010794
v -0.531201735829 -0.76731779523 0.15086102
v -0.553075109485 -0.750049397116 0.18045604
v -0.559031282559 -0.744923622834 0.14978752
v -0.561085107432 -0.72889934862 0.2497713
v -0.56303631044 -0.740942414789 0.19504616
v -0.444426941153 -0.730292751201 0.02406365
v -0.409819726089 -0.764232374895 0.02584472
v -0.411052055702 -0.76960698552 0.0287481
v -0.425634304807 -0.778564746983 0.03960529
v -0.41454356955 -0.774683038786 0.03284699
v -0.446891600379 -0.777668959274 0.05060887
v -0.456955365384 -0.785631317549 0.06329593
v -0.434260496467 -0.781052994785 0.04575366
v -0.459830743333 -0.798620008074 0.07754448
v -0.490946444549 -0.778116853129 0.0852055
v -0.454593443654 -0.8052387426 0.08086264
v -0.491973356985 -0.778614468 0.08725497
v -0.488892619675 -0.787572229463 0.09769738
v -0.498340306597 -0.783590963602 0.10618794
v -0.51281987602 -0.773837029909 0.1108236
v -0.505220654611 -0.781401273161 0.11509329
v -0.516105972691 -0.774284923763 0.12075368
v -0.537774044801 -0.759355436955 0.13351393
v -0.171060792307 -0.902778079538 0.2497713
v -0.194987990836 -0.897751862919 0.24747786
v -0.200019931154 -0.896010008517 0.2497713
v -0.232573321344 -0.888196986737 0.2497713
v -0.235962155511 -0.901036282951 0.19206959
v -0.227746798203 -0.903624088416 0.18877584
v -0.227746798203 -0.905764000026 0.17328298
v -0.241610173912 -0.905415606019 0.15205655
v -0.254549432496 -0.902429685532 0.13031775
v -0.255884383975 -0.902131185987 0.1259017
v -0.251057860833 -0.903325473241 0.11833826
v -0.250236307758 -0.902977194865 0.11106759
v -0.245409784617 -0.90267857969 0.10289419
v -0.217169519165 -0.90835168986 0.09991762
v -0.263483605384 -0.893770597059 0.08501032
v -0.263278188207 -0.890784676571 0.07825202
v -0.254549432496 -0.892825088333 0.07842281
v -0.225898332691 -0.899145265499 0.0786424
v -0.232059807311 -0.903275694409 0.0918906
v -0.232470583848 -0.887500256539 0.06449145
v -0.218709887819 -0.890934013066 0.06585774
v -0.155143476094 -0.89441760624 0.06197843
v -0.330336113781 -0.819969114081 0.03238344
v -0.284330066603 -0.861871327311 0.05009651
v -0.288129677308 -0.852117335802 0.04328942
v -0.321401883078 -0.83967603898 0.04258189
v -0.316164641214 -0.83400292881 0.03748265
v -0.333622268267 -0.825443340185 0.03636032
v -0.366278338138 -0.802949494495 0.03209066
v -0.37901212173 -0.78503420283 0.02672306
v -0.392362099037 -0.773638030212 0.02533236
v -0.236167514872 -0.879886234455 0.05653763
v -0.24664211423 -0.881926530586 0.06139287
v -0.274779700002 -0.869535070411 0.05509815
v -0.370899501918 -0.420157390299 0.01989156
v -0.367921386474 -0.420157390299 0.01925722
v -0.547735130126 -0.753085096435 0.19292352
v -0.514154827499 -0.779460476877 0.15076345
v -0.527094086082 -0.769855821863 0.1663295
v -0.508404129417 -0.781301773313 0.12839031
v -0.498751083134 -0.787721508143 0.12321788
v -0.487044154163 -0.796529875295 0.1259017
v -0.524424067495 -0.771547839619 0.17101395
v -0.528429037561 -0.752288808574 0.2497713
v -0.535822899609 -0.761445569734 0.1946314
v -0.396675165959 -0.785432317853 0.03201747
v -0.405404037301 -0.792100773396 0.03931251
v -0.421526597245 -0.785780596229 0.04265508
v -0.411770871282 -0.782048282342 0.03592116
v -0.438470825895 -0.790060419449 0.05504936
v -0.449869658008 -0.786825720433 0.05968499
v -0.4314877982 -0.79926695944 0.05875787
v -0.442270436599 -0.801307313387 0.0677852
v -0.416494772558 -0.798122393203 0.0490962
v -0.445248494228 -0.810364574698 0.07930115
v -0.405198620125 -0.839228260756 0.08747455
v -0.408998230829 -0.838481751727 0.09106109
v -0.449253522109 -0.816336300043 0.10018599
v -0.459933480828 -0.808224663088 0.09730703
v -0.479753029611 -0.797375884173 0.10445568
v -0.476774971982 -0.797375884173 0.09960043
v -0.480779942048 -0.799466016951 0.11536166
v -0.248695939103 -0.88371816382 0.2497713
v -0.262456692947 -0.893770597059 0.19253314
v -0.244999008079 -0.899493659506 0.18687275
v -0.262353955451 -0.897801641751 0.16852534
v -0.250236307758 -0.900289831737 0.17269742
v -0.255268248076 -0.90193207066 0.1525445
v -0.283200474486 -0.894616605936 0.15088543
v -0.275498573396 -0.896706738715 0.11297065
v -0.255987063655 -0.901185677261 0.10894495
v -0.262970149165 -0.897353632266 0.09791696
v -0.329411881025 -0.872371654404 0.08281448
v -0.322736892372 -0.873068384602 0.07974032
v -0.296550451792 -0.879836397808 0.07678813
v -0.274060884422 -0.893073924676 0.09315932
v -0.310619244678 -0.882324703425 0.09381807
v -0.308976196343 -0.874163287638 0.07386035
v -0.27991432 -0.879488119432 0.06956628
v -0.272417778271 -0.876004526258 0.06195402
v -0.235962155511 -0.892178194782 0.0718841
v -0.312775749232 -0.857591504091 0.0555861
v -0.317705009869 -0.848633800443 0.04855943
v -0.345226459742 -0.82847898169 0.04184994
v -0.333622268267 -0.838979366598 0.04616842
v -0.362067950896 -0.819371999362 0.0409472
v -0.365559464743 -0.810812468552 0.0366531
v -0.379320218587 -0.806184251326 0.03850737
v -0.393183652112 -0.795285751395 0.03660432
v -0.296242354935 -0.872272154556 0.06627253
v -0.308360002629 -0.867196159105 0.06485742
v -0.49967531589 -0.789463246914 0.15015349
v -0.494232599035 -0.793195676432 0.16179141
v -0.505734110829 -0.78503420283 0.16523159
v -0.490022211793 -0.794887636372 0.13148889
v -0.479855709292 -0.800610583189 0.11931419
v -0.454182667116 -0.817480924095 0.11519089
v -0.478315340637 -0.802601216119 0.12780476
v -0.524629426856 -0.770801388404 0.17774785
v -0.513949468137 -0.7620925211 0.2497713
v -0.516208652372 -0.77448403909 0.19597328
v -0.507787935703 -0.782993791068 0.17181909
v -0.506555663905 -0.783143069748 0.17872375
v -0.397085942497 -0.804193618396 0.04399696
v -0.427585449999 -0.795086693883 0.05292672
v -0.403555571789 -0.815341012485 0.05675721
v -0.414646307046 -0.814694118934 0.06266159
v -0.395545573842 -0.840024432987 0.07913035
v -0.397496719035 -0.840721163185 0.08176535
v -0.410846696341 -0.833007583438 0.08230212
v -0.435903544803 -0.816883693746 0.08078945
v -0.397702078396 -0.845150265085 0.09089029
v -0.447918512816 -0.819620835705 0.1070419
v -0.277038942051 -0.875805468746 0.2497713
v -0.270672050255 -0.890685176723 0.19536334
v -0.283713930704 -0.887898371562 0.18992254
v -0.292031967693 -0.88784859273 0.17496645
v -0.295728898717 -0.885459844777 0.18221271
v -0.308462740124 -0.883817663668 0.16449964
v -0.317602330189 -0.882225145761 0.15432557
v -0.322120756473 -0.882075867081 0.1284391
v -0.289670045963 -0.892626030821 0.13126928
v -0.294188530062 -0.891033570729 0.11928979
v -0.314829631921 -0.884116221028 0.10884735
v -0.279606223143 -0.893770597059 0.10235745
v -0.274882437497 -0.895860729837 0.10716388
v -0.352414904613 -0.863911623443 0.08288768
v -0.326639182757 -0.867245822307 0.07366517
v -0.326331143715 -0.880035513135 0.10953051
v -0.354263370125 -0.841368056736 0.05663523
v -0.34573991596 -0.852366172145 0.06502822
v -0.352312224933 -0.8471408402 0.06214923
v -0.354468729487 -0.837337127674 0.05263394
v -0.35888447609 -0.827832088139 0.04626602
v -0.383017149611 -0.812802985852 0.04438734
v -0.486222601088 -0.798620008074 0.15049505
v -0.480882679544 -0.801158034707 0.16657346
v -0.490535668011 -0.794091348511 0.17574719
v -0.456647326342 -0.81792881795 0.15130019
v -0.425736984487 -0.833654534804 0.11216551
v -0.447815833135 -0.822009525843 0.12111965
v -0.493924502178 -0.775081153809 0.2497713
v -0.479444932754 -0.799714795479 0.18884903
v -0.479855709292 -0.798321392899 0.19494855
v -0.387535575895 -0.821810468332 0.05402464
v -0.399858640765 -0.820566344431 0.0598802
v -0.402528659352 -0.826289349063 0.06788281
v -0.376239423462 -0.849380309473 0.07773966
v -0.378601345193 -0.85097271175 0.0812774
v -0.383838702687 -0.831514623194 0.0621736
v -0.361759854039 -0.863762344763 0.09860012
v -0.368024123969 -0.862418721014 0.10667592
v -0.399550543908 -0.847041282536 0.1055536
v -0.422964344034 -0.833803813484 0.10521203
v -0.283508571343 -0.873864672463 0.2497713
v -0.303430799807 -0.881130358356 0.19265515
v -0.320991164355 -0.880184733999 0.16001037
v -0.349744943841 -0.870530357969 0.1514222
v -0.325098814102 -0.87973689796 0.15078783
v -0.345842595641 -0.873118163434 0.12621886
v -0.321401883078 -0.882125645913 0.12114406
v -0.306614274613 -0.887052362684 0.12302271
v -0.344713003524 -0.85908440652 0.07259166
v -0.369667172305 -0.841417893383 0.06475982
v -0.374082918908 -0.824497773644 0.05007213
v -0.426147761025 -0.834799101041 0.1286099
v -0.415878578844 -0.840173769482 0.13807639
v -0.423683159614 -0.835545610071 0.15422797
v -0.431282381023 -0.830369999141 0.16584152
v -0.448637328395 -0.818177596478 0.18426216
v -0.417213588137 -0.838929645581 0.11658159
v -0.433336263711 -0.830071499597 0.11850902
v -0.478520699998 -0.784785308671 0.2497713
v -0.445145814548 -0.818426432821 0.19385064
v -0.461165752626 -0.80892133547 0.19536334
v -0.448021192496 -0.802601216119 0.2497713
v -0.374596375127 -0.860527587932 0.12207118
v -0.385687168199 -0.855003756442 0.11521527
v -0.397804815892 -0.849778424496 0.12646285
v -0.289772783459 -0.871724760853 0.2497713
v -0.306716954293 -0.879687119128 0.194363
v -0.317191553651 -0.876452420113 0.19143522
v -0.324585357884 -0.876502198944 0.17477125
v -0.324893454741 -0.877995101373 0.16452402
v -0.345329139423 -0.868689061534 0.1743077
v -0.364532552307 -0.860826203107 0.17716229
v -0.388151711794 -0.854555862587 0.15188575
v -0.378087888974 -0.858835570177 0.14976311
v -0.408279357434 -0.840074269634 0.18030965
v -0.410230502627 -0.836491118796 0.19497296
v -0.440627330448 -0.80678142386 0.2497713
v -0.442167756919 -0.805935414983 0.2497713
v -0.381682140318 -0.857392388765 0.12831712
v -0.312570389871 -0.863861844611 0.2497713
v -0.352620263975 -0.862169826856 0.19502175
v -0.339270344484 -0.869485349395 0.1838474
v -0.376136743782 -0.852814066 0.19282591
v -0.39359442865 -0.845100486253 0.19104487
v -0.399961320446 -0.827185078957 0.2497713
v -0.357754883973 -0.846394388985 0.2497713
v -0.382195596536 -0.835396331391 0.2497713
f 1 2 5
f 1 5 26
f 1 26 52
f 1 52 85
f 1 85 142
f 1 142 206
f 1 206 212
f 1 212 211
f 1 211 210
f 1 210 276
f 1 276 275
f 1 275 274
f 1 274 273
f 1 273 350
f 1 350 417
f 1 417 498
f 1 498 591
f 1 591 687
f 1 687 792
f 1 792 870
f 1 870 933
f 1 933 989
f 1 989 1031
f 1 1031 1062
f 1 1062 1065
f 1 1065 1081
f 1 1081 1080
f 1 1080 1088
f 1 1088 1090
f 1 1090 1089
f 1 1089 1083
f 1 1083 1069
f 1 1069 1044
f 1 1044 1003
f 1 1003 952
f 1 952 893
f 1 893 892
f 1 892 890
f 1 890 821
f 1 821 820
f 1 820 726
f 1 726 626
f 1 626 527
f 1 527 437
f 1 437 433
f 1 433 358
f 1 358 292
f 1 292 226
f 1 226 160
f 1 160 222
f 1 222 154
f 1 154 95
f 1 95 57
f 1 57 30
f 1 30 7
f 1 7 3
f 1 3 9
f 1 9 35
f 1 35 63
f 1 63 103
f 1 103 169
f 1 169 168
f 1 168 172
f 1 172 235
f 1 235 313
f 1 313 378
f 1 378 377
f 1 377 376
f 1 376 456
f 1 456 463
f 1 463 387
f 1 387 320
f 1 320 243
f 1 243 239
f 1 239 176
f 1 176 175
f 1 175 174
f 1 174 111
f 1 111 110
f 1 110 109
f 1 109 108
f 1 108 107
f 1 107 106
f 1 106 105
f 1 105 68
f 1 68 67
f 1 67 65
f 1 65 64
f 1 64 40
f 1 40 36
f 1 36 10
f 1 10 4
f 1 4 25
f 1 25 51
f 1 51 84
f 1 84 83
f 1 83 135
f 1 135 134
f 1 134 133
f 1 133 197
f 1 197 205
f 1 205 268
f 1 268 344
f 1 344 413
f 1 413 493
f 1 493 495
f 1 495 587
f 1 587 586
f 1 586 680
f 1 680 679
f 1 679 678
f 1 678 785
f 1 785 861
f 1 861 925
f 1 925 924
f 1 924 857
f 1 857 795
f 1 795 691
f 1 691 596
f 1 596 504
f 1 504 425
f 1 425 354
f 1 354 284
f 1 284 283
f 1 283 282
f 1 282 277
f 1 277 213
f 1 213 148
f 1 148 89
f 1 89 55
f 1 55 28
f 1 28 6
f 1 6 2
f 2 6 5
f 3 7 8
f 3 8 9
f 4 10 11
f 4 11 12
f 4 12 13
f 4 13 14
f 4 14 15
f 4 15 16
f 4 16 17
f 4 17 18
f 4 18 19
f 4 19 20
f 4 20 21
f 4 21 22
f 4 22 23
f 4 23 24
f 4 24 25
f 5 6 27
f 5 27 26
f 6 28 29
f 6 29 27
f 7 30 31
f 7 31 8
f 8 31 32
f 8 32 33
f 8 33 34
f 8 34 35
f 8 35 9
f 10 36 11
f 11 37 38
f 11 38 39
f 11 39 12
f 11 36 40
f 11 40 37
f 12 39 13
f 13 39 14
f 14 41 42
f 14 42 15
f 14 39 41
f 15 42 17
f 15 17 16
f 17 42 43
f 17 43 18
f 18 43 44
f 18 44 19
f 19 44 45
f 19 45 46
f 19 46 20
f 20 46 47
f 20 47 21
f 21 47 48
f 21 48 49
f 21 49 22
f 22 49 23
f 23 49 50
f 23 50 24
f 24 50 25
f 25 50 51
f 26 27 52
f 27 29 53
f 27 53 54
f 27 54 52
f 28 55 29
f 29 55 56
f 29 56 53
f 30 57 31
f 31 58 32
f 31 57 58
f 32 58 59
f 32 59 60
f 32 60 33
f 33 60 61
f 33 61 34
f 34 61 62
f 34 62 63
f 34 63 35
f 37 40 64
f 37 64 65
f 37 65 38
f 38 66 39
f 38 65 67
f 38 67 68
f 38 68 69
f 38 69 70
f 38 70 66
f 39 71 41
f 39 66 71
f 41 72 73
f 41 73 74
f 41 74 42
f 41 71 72
f 42 74 43
f 43 73 75
f 43 75 44
f 43 74 73
f 44 75 45
f 45 76 77
f 45 77 78
f 45 78 46
f 45 75 76
f 46 78 47
f 47 78 79
f 47 79 48
f 48 80 81
f 48 81 49
f 48 79 80
f 49 81 50
f 50 82 83
f 50 83 84
f 50 84 51
f 50 81 82
f 52 54 85
f 53 56 86
f 53 86 54
f 54 86 87
f 54 87 88
f 54 88 85
f 55 89 56
f 56 89 90
f 56 90 91
f 56 91 92
f 56 92 93
f 56 93 94
f 56 94 86
f 57 95 58
f 58 96 97
f 58 97 98
f 58 98 59
f 58 95 96
f 59 98 60
f 60 98 99
f 60 99 61
f 61 99 100
f 61 100 101
f 61 101 102
f 61 102 62
f 62 102 103
f 62 103 63
f 66 70 104
f 66 104 71
f 68 105 69
f 69 105 106
f 69 106 107
f 69 107 108
f 69 108 109
f 69 109 70
f 70 109 110
f 70 110 111
f 70 111 112
f 70 112 113
f 70 113 114
f 70 114 104
f 71 104 115
f 71 115 116
f 71 116 117
f 71 117 72
f 72 117 118
f 72 118 119
f 72 119 73
f 73 119 120
f 73 120 75
f 75 120 121
f 75 121 76
f 76 122 123
f 76 123 124
f 76 124 77
f 76 121 122
f 77 124 125
f 77 125 126
f 77 126 78
f 78 126 79
f 79 126 127
f 79 127 128
f 79 128 129
f 79 129 130
f 79 130 131
f 79 131 80
f 80 131 81
f 81 132 82
f 81 131 132
f 82 133 134
f 82 134 135
f 82 135 83
f 82 132 136
f 82 136 137
f 82 137 138
f 82 138 139
f 82 139 140
f 82 140 141
f 82 141 133
f 85 88 142
f 86 143 87
f 86 94 143
f 87 143 88
f 88 143 144
f 88 144 145
f 88 145 146
f 88 146 147
f 88 147 142
f 89 148 90
f 90 148 91
f 91 148 149
f 91 149 150
f 91 150 151
f 91 151 92
f 92 151 152
f 92 152 94
f 92 94 93
f 94 152 153
f 94 153 143
f 95 154 96
f 96 155 156
f 96 156 157
f 96 157 158
f 96 158 97
f 96 154 159
f 96 159 160
f 96 160 155
f 97 158 98
f 98 158 161
f 98 161 162
f 98 162 163
f 98 163 99
f 99 164 100
f 99 163 165
f 99 165 166
f 99 166 167
f 99 167 164
f 100 164 101
f 101 168 169
f 101 169 103
f 101 103 102
f 101 164 170
f 101 170 171
f 101 171 172
f 101 172 168
f 104 114 173
f 104 173 115
f 111 174 112
f 112 174 175
f 112 175 176
f 112 176 113
f 113 177 114
f 113 176 177
f 114 177 178
f 114 178 173
f 115 179 180
f 115 180 116
f 115 173 179
f 116 181 117
f 116 180 181
f 117 181 118
f 118 181 182
f 118 182 183
f 118 183 119
f 119 183 184
f 119 184 120
f 120 184 121
f 121 184 122
f 122 185 123
f 122 184 186
f 122 186 185
f 123 187 124
f 123 185 188
f 123 188 189
f 123 189 190
f 123 190 187
f 124 187 125
f 125 187 191
f 125 191 192
f 125 192 126
f 126 192 128
f 126 128 127
f 128 193 194
f 128 194 129
f 128 192 195
f 128 195 193
f 129 194 196
f 129 196 137
f 129 137 136
f 129 136 131
f 129 131 130
f 131 136 132
f 133 141 197
f 137 196 198
f 137 198 138
f 138 198 199
f 138 199 200
f 138 200 139
f 139 200 201
f 139 201 141
f 139 141 140
f 141 201 199
f 141 199 202
f 141 202 203
f 141 203 204
f 141 204 205
f 141 205 197
f 142 147 206
f 143 145 144
f 143 153 145
f 145 153 146
f 146 153 207
f 146 207 208
f 146 208 209
f 146 209 210
f 146 210 211
f 146 211 212
f 146 212 147
f 147 212 206
f 148 213 149
f 149 214 150
f 149 213 215
f 149 215 214
f 150 214 151
f 151 216 152
f 151 214 216
f 152 216 217
f 152 217 218
f 152 218 153
f 153 218 219
f 153 219 220
f 153 220 221
f 153 221 207
f 154 222 159
f 155 223 224
f 155 224 225
f 155 225 157
f 155 157 156
f 155 160 223
f 157 225 161
f 157 161 158
f 159 222 160
f 160 226 223
f 161 227 228
f 161 228 162
f 161 225 227
f 162 228 229
f 162 229 165
f 162 165 163
f 164 167 230
f 164 230 170
f 165 229 231
f 165 231 166
f 166 231 232
f 166 232 167
f 167 233 230
f 167 232 234
f 167 234 233
f 170 230 171
f 171 230 172
f 172 230 235
f 173 236 179
f 173 178 237
f 173 237 238
f 173 238 236
f 176 239 177
f 177 240 241
f 177 241 242
f 177 242 237
f 177 237 178
f 177 239 243
f 177 243 240
f 179 244 245
f 179 245 246
f 179 246 180
f 179 236 247
f 179 247 244
f 180 246 181
f 181 248 182
f 181 246 249
f 181 249 248
f 182 250 251
f 182 251 183
f 182 248 250
f 183 251 252
f 183 252 253
f 183 253 184
f 184 253 186
f 185 186 254
f 185 254 255
f 185 255 189
f 185 189 188
f 186 253 254
f 187 256 191
f 187 190 256
f 189 256 190
f 189 255 257
f 189 257 258
f 189 258 259
f 189 259 260
f 189 260 256
f 191 256 261
f 191 261 262
f 191 262 263
f 191 263 192
f 192 263 262
f 192 262 264
f 192 264 195
f 193 195 265
f 193 265 266
f 193 266 198
f 193 198 196
f 193 196 194
f 195 264 265
f 198 266 202
f 198 202 199
f 199 201 200
f 202 266 203
f 203 266 267
f 203 267 204
f 204 268 205
f 204 267 269
f 204 269 268
f 207 270 208
f 207 221 220
f 207 220 270
f 208 270 209
f 209 270 271
f 209 271 272
f 209 272 273
f 209 273 274
f 209 274 275
f 209 275 276
f 209 276 210
f 213 277 215
f 214 278 279
f 214 279 216
f 214 215 280
f 214 280 281
f 214 281 278
f 215 277 282
f 215 282 283
f 215 283 284
f 215 284 285
f 215 285 281
f 215 281 280
f 216 279 217
f 217 279 286
f 217 286 287
f 217 287 218
f 218 287 288
f 218 288 219
f 219 288 220
f 220 289 290
f 220 290 270
f 220 288 291
f 220 291 289
f 223 226 224
f 224 226 292
f 224 292 293
f 224 293 294
f 224 294 295
f 224 295 296
f 224 296 297
f 224 297 298
f 224 298 225
f 225 298 227
f 227 298 299
f 227 299 228
f 228 299 300
f 228 300 301
f 228 301 302
f 228 302 303
f 228 303 229
f 229 303 304
f 229 304 305
f 229 305 231
f 230 233 306
f 230 306 235
f 231 305 307
f 231 307 232
f 232 307 234
f 233 234 308
f 233 308 309
f 233 309 306
f 234 307 310
f 234 310 311
f 234 311 308
f 235 306 309
f 235 309 312
f 235 312 313
f 236 238 314
f 236 314 247
f 237 242 315
f 237 315 238
f 238 315 316
f 238 316 317
f 238 317 318
f 238 318 314
f 240 243 241
f 241 319 242
f 241 243 319
f 242 319 315
f 243 320 319
f 244 247 245
f 245 249 246
f 245 247 321
f 245 321 249
f 247 322 323
f 247 323 321
f 247 314 324
f 247 324 322
f 248 249 325
f 248 325 250
f 249 321 325
f 250 326 251
f 250 325 327
f 250 327 326
f 251 326 252
f 252 328 253
f 252 326 328
f 253 328 329
f 253 329 254
f 254 257 255
f 254 329 258
f 254 258 257
f 256 260 330
f 256 330 261
f 258 329 331
f 258 331 332
f 258 332 333
f 258 333 259
f 259 333 332
f 259 332 334
f 259 334 335
f 259 335 260
f 260 335 336
f 260 336 337
f 260 337 330
f 261 330 338
f 261 338 339
f 261 339 262
f 262 339 340
f 262 340 341
f 262 341 264
f 264 341 342
f 264 342 265
f 265 342 266
f 266 342 341
f 266 341 340
f 266 340 267
f 267 343 269
f 267 340 343
f 268 269 344
f 269 343 345
f 269 345 346
f 269 346 344
f 270 347 271
f 270 290 347
f 271 347 272
f 272 347 290
f 272 290 348
f 272 348 349
f 272 349 350
f 272 350 273
f 278 281 279
f 279 351 286
f 279 281 352
f 279 352 353
f 279 353 351
f 281 285 354
f 281 354 352
f 284 354 285
f 286 351 287
f 287 291 288
f 287 351 355
f 287 355 291
f 289 356 290
f 289 291 357
f 289 357 356
f 290 356 348
f 291 355 357
f 292 358 359
f 292 359 293
f 293 359 294
f 294 360 297
f 294 297 295
f 294 359 360
f 295 297 296
f 297 361 362
f 297 362 363
f 297 363 364
f 297 364 299
f 297 299 298
f 297 360 361
f 299 364 300
f 300 364 365
f 300 365 302
f 300 302 301
f 302 365 303
f 303 365 304
f 304 366 367
f 304 367 368
f 304 368 369
f 304 369 305
f 304 365 366
f 305 369 370
f 305 370 307
f 307 370 311
f 307 311 310
f 308 311 371
f 308 371 372
f 308 372 309
f 309 372 312
f 311 370 373
f 311 373 374
f 311 374 371
f 312 372 375
f 312 375 376
f 312 376 377
f 312 377 378
f 312 378 313
f 314 318 379
f 314 379 324
f 315 319 316
f 316 380 317
f 316 319 381
f 316 381 382
f 316 382 380
f 317 380 318
f 318 380 382
f 318 382 383
f 318 383 384
f 318 384 385
f 318 385 379
f 319 386 381
f 319 320 386
f 320 387 386
f 321 388 325
f 321 323 388
f 322 389 323
f 322 324 390
f 322 390 391
f 322 391 392
f 322 392 389
f 323 389 393
f 323 393 388
f 324 379 385
f 324 385 394
f 324 394 390
f 325 388 327
f 326 327 395
f 326 395 396
f 326 396 328
f 327 388 397
f 327 397 395
f 328 396 398
f 328 398 329
f 329 398 331
f 330 337 399
f 330 399 400
f 330 400 338
f 331 398 401
f 331 401 402
f 331 402 332
f 332 402 403
f 332 403 404
f 332 404 405
f 332 405 334
f 334 406 336
f 334 336 335
f 334 405 406
f 336 406 407
f 336 407 399
f 336 399 337
f 338 400 408
f 338 408 409
f 338 409 410
f 338 410 339
f 339 410 411
f 339 411 343
f 339 343 340
f 343 411 345
f 344 346 412
f 344 412 413
f 345 411 414
f 345 414 346
f 346 414 412
f 348 415 349
f 348 356 415
f 349 415 416
f 349 416 350
f 350 416 417
f 351 418 355
f 351 353 419
f 351 419 420
f 351 420 418
f 352 354 421
f 352 421 422
f 352 422 423
f 352 423 419
f 352 419 353
f 354 424 422
f 354 422 421
f 354 425 426
f 354 426 427
f 354 427 424
f 355 418 428
f 355 428 357
f 356 357 429
f 356 429 430
f 356 430 431
f 356 431 432
f 356 432 415
f 357 428 429
f 358 433 359
f 359 434 435
f 359 435 436
f 359 436 360
f 359 433 437
f 359 437 434
f 360 436 438
f 360 438 361
f 361 438 439
f 361 439 362
f 362 439 363
f 363 439 440
f 363 440 441
f 363 441 442
f 363 442 443
f 363 443 364
f 364 443 365
f 365 443 442
f 365 442 366
f 366 442 444
f 366 444 445
f 366 445 446
f 366 446 447
f 366 447 367
f 367 447 368
f 368 447 448
f 368 448 369
f 369 448 370
f 370 448 449
f 370 449 373
f 371 374 450
f 371 450 372
f 372 450 375
f 373 449 451
f 373 451 374
f 374 451 452
f 374 452 453
f 374 453 454
f 374 454 455
f 374 455 450
f 375 450 376
f 376 450 455
f 376 455 457
f 376 457 456
f 381 458 382
f 381 386 459
f 381 459 458
f 382 458 460
f 382 460 383
f 383 461 462
f 383 462 384
f 383 460 461
f 384 462 385
f 385 462 394
f 386 387 459
f 387 463 464
f 387 464 459
f 388 393 465
f 388 465 466
f 388 466 397
f 389 392 467
f 389 467 393
f 390 394 391
f 391 394 468
f 391 468 392
f 392 468 469
f 392 469 470
f 392 470 467
f 393 467 471
f 393 471 465
f 394 472 473
f 394 473 468
f 394 462 474
f 394 474 472
f 395 397 475
f 395 475 396
f 396 401 398
f 396 475 401
f 397 466 475
f 399 407 476
f 399 476 400
f 400 476 477
f 400 477 408
f 401 475 478
f 401 478 479
f 401 479 480
f 401 480 402
f 402 480 403
f 403 405 404
f 403 480 481
f 403 481 482
f 403 482 483
f 403 483 405
f 405 483 484
f 405 484 406
f 406 484 485
f 406 485 407
f 407 485 486
f 407 486 487
f 407 487 476
f 408 477 488
f 408 488 489
f 408 489 490
f 408 490 491
f 408 491 409
f 409 491 490
f 409 490 410
f 410 490 492
f 410 492 411
f 411 492 414
f 412 493 413
f 412 414 494
f 412 494 495
f 412 495 493
f 414 492 490
f 414 490 489
f 414 489 494
f 415 496 416
f 415 432 497
f 415 497 496
f 416 496 417
f 417 496 498
f 418 499 428
f 418 420 500
f 418 500 499
f 419 423 420
f 420 423 422
f 420 422 424
f 420 424 501
f 420 501 500
f 424 427 502
f 424 502 503
f 424 503 501
f 425 504 505
f 425 505 506
f 425 506 507
f 425 507 508
f 425 508 426
f 426 508 509
f 426 509 510
f 426 510 511
f 426 511 512
f 426 512 513
f 426 513 514
f 426 514 427
f 427 514 513
f 427 513 515
f 427 515 502
f 428 430 429
f 428 499 516
f 428 516 430
f 430 516 431
f 431 517 518
f 431 518 432
f 431 516 519
f 431 519 520
f 431 520 517
f 432 518 517
f 432 517 521
f 432 521 522
f 432 522 523
f 432 523 497
f 434 437 435
f 435 524 525
f 435 525 526
f 435 526 436
f 435 437 527
f 435 527 524
f 436 526 438
f 438 528 439
f 438 526 528
f 439 528 440
f 440 528 529
f 440 529 530
f 440 530 531
f 440 531 532
f 440 532 533
f 440 533 534
f 440 534 441
f 441 444 442
f 441 534 535
f 441 535 536
f 441 536 444
f 444 536 537
f 444 537 446
f 444 446 445
f 446 537 538
f 446 538 447
f 447 538 539
f 447 539 448
f 448 539 540
f 448 540 541
f 448 541 449
f 449 541 542
f 449 542 543
f 449 543 451
f 451 543 544
f 451 544 453
f 451 453 452
f 453 544 545
f 453 545 454
f 454 545 457
f 454 457 455
f 456 457 546
f 456 546 464
f 456 464 463
f 457 545 547
f 457 547 546
f 458 459 464
f 458 464 548
f 458 548 460
f 460 548 549
f 460 549 550
f 460 550 551
f 460 551 552
f 460 552 461
f 461 552 462
f 462 552 553
f 462 553 474
f 464 546 548
f 465 471 466
f 466 471 554
f 466 554 555
f 466 555 556
f 466 556 557
f 466 557 475
f 467 558 471
f 467 470 558
f 468 473 559
f 468 559 469
f 469 560 470
f 469 559 561
f 469 561 560
f 470 562 558
f 470 560 562
f 471 558 563
f 471 563 564
f 471 564 554
f 472 474 565
f 472 565 473
f 473 566 559
f 473 565 567
f 473 567 566
f 474 553 568
f 474 568 565
f 475 557 569
f 475 569 478
f 476 487 570
f 476 570 477
f 477 570 571
f 477 571 572
f 477 572 488
f 478 569 479
f 479 569 573
f 479 573 574
f 479 574 480
f 480 574 575
f 480 575 481
f 481 575 576
f 481 576 577
f 481 577 482
f 482 577 578
f 482 578 579
f 482 579 483
f 483 579 484
f 484 579 580
f 484 580 581
f 484 581 485
f 485 581 582
f 485 582 486
f 486 582 487
f 487 582 583
f 487 583 570
f 488 572 584
f 488 584 489
f 489 584 585
f 489 585 494
f 494 585 586
f 494 586 587
f 494 587 495
f 496 588 589
f 496 589 590
f 496 590 498
f 496 497 588
f 497 523 588
f 498 590 591
f 499 500 516
f 500 501 592
f 500 592 516
f 501 519 592
f 501 503 593
f 501 593 519
f 502 594 503
f 502 515 595
f 502 595 594
f 503 594 593
f 504 596 597
f 504 597 598
f 504 598 599
f 504 599 600
f 504 600 505
f 505 600 601
f 505 601 602
f 505 602 603
f 505 603 506
f 506 603 604
f 506 604 507
f 507 604 510
f 507 510 509
f 507 509 508
f 510 604 603
f 510 603 602
f 510 602 605
f 510 605 511
f 511 605 606
f 511 606 607
f 511 607 608
f 511 608 512
f 512 608 609
f 512 609 610
f 512 610 513
f 513 611 612
f 513 612 613
f 513 613 515
f 513 610 611
f 515 613 595
f 516 592 519
f 517 614 615
f 517 615 521
f 517 520 616
f 517 616 617
f 517 617 614
f 519 593 618
f 519 618 619
f 519 619 620
f 519 620 520
f 520 620 621
f 520 621 616
f 521 615 522
f 522 622 523
f 522 615 614
f 522 614 622
f 523 622 588
f 524 623 624
f 524 624 625
f 524 625 525
f 524 527 626
f 524 626 623
f 525 625 627
f 525 627 628
f 525 628 531
f 525 531 629
f 525 629 529
f 525 529 526
f 526 529 528
f 529 629 531
f 529 531 530
f 531 628 533
f 531 533 532
f 533 630 534
f 533 628 630
f 534 630 631
f 534 631 535
f 535 631 536
f 536 631 632
f 536 632 633
f 536 633 537
f 537 633 538
f 538 633 634
f 538 634 539
f 539 634 635
f 539 635 540
f 540 635 542
f 540 542 541
f 542 635 543
f 543 635 544
f 544 635 636
f 544 636 637
f 544 637 638
f 544 638 545
f 545 638 547
f 546 547 550
f 546 550 548
f 547 639 551
f 547 551 550
f 547 638 639
f 548 550 549
f 551 640 552
f 551 639 640
f 552 640 641
f 552 641 553
f 553 641 642
f 553 642 568
f 554 564 555
f 555 564 643
f 555 643 556
f 556 643 644
f 556 644 557
f 557 644 645
f 557 645 573
f 557 573 569
f 558 562 646
f 558 646 563
f 559 566 561
f 560 647 562
f 560 561 648
f 560 648 649
f 560 649 647
f 561 566 648
f 562 647 650
f 562 650 646
f 563 646 650
f 563 650 564
f 564 651 652
f 564 652 653
f 564 653 643
f 564 650 651
f 565 654 567
f 565 568 642
f 565 642 655
f 565 655 654
f 566 567 656
f 566 656 648
f 567 654 657
f 567 657 658
f 567 658 659
f 567 659 656
f 570 583 571
f 571 583 660
f 571 660 661
f 571 661 662
f 571 662 572
f 572 662 663
f 572 663 584
f 573 645 574
f 574 645 644
f 574 644 664
f 574 664 665
f 574 665 575
f 575 665 576
f 576 666 577
f 576 665 667
f 576 667 668
f 576 668 669
f 576 669 666
f 577 666 578
f 578 666 670
f 578 670 671
f 578 671 579
f 579 671 672
f 579 672 580
f 580 672 673
f 580 673 581
f 581 673 674
f 581 674 582
f 582 674 675
f 582 675 676
f 582 676 583
f 583 676 660
f 584 663 677
f 584 677 585
f 585 677 678
f 585 678 679
f 585 679 680
f 585 680 586
f 588 622 589
f 589 681 682
f 589 682 590
f 589 622 683
f 589 683 684
f 589 684 685
f 589 685 681
f 590 682 686
f 590 686 591
f 591 686 687
f 593 594 688
f 593 688 619
f 593 619 618
f 594 619 688
f 594 595 689
f 594 689 619
f 595 613 690
f 595 690 689
f 596 691 692
f 596 692 693
f 596 693 694
f 596 694 695
f 596 695 597
f 597 695 696
f 597 696 697
f 597 697 698
f 597 698 599
f 597 599 598
f 599 698 699
f 599 699 700
f 599 700 600
f 600 700 601
f 601 701 602
f 601 700 699
f 601 699 701
f 602 701 702
f 602 702 703
f 602 703 704
f 602 704 605
f 605 704 606
f 606 705 706
f 606 706 608
f 606 608 607
f 606 704 707
f 606 707 705
f 608 708 709
f 608 709 609
f 608 706 708
f 609 709 710
f 609 710 611
f 609 611 610
f 611 710 711
f 611 711 712
f 611 712 612
f 612 712 713
f 612 713 690
f 612 690 613
f 614 714 622
f 614 617 715
f 614 715 714
f 616 621 617
f 617 621 716
f 617 716 717
f 617 717 715
f 619 718 716
f 619 716 620
f 619 689 690
f 619 690 719
f 619 719 720
f 619 720 718
f 620 716 621
f 622 721 683
f 622 714 721
f 623 722 624
f 623 626 723
f 623 723 722
f 624 722 724
f 624 724 625
f 625 724 628
f 625 628 725
f 625 725 627
f 626 726 723
f 627 725 628
f 628 724 727
f 628 727 722
f 628 722 728
f 628 728 729
f 628 729 730
f 628 730 731
f 628 731 630
f 630 731 732
f 630 732 733
f 630 733 631
f 631 733 632
f 632 734 633
f 632 733 734
f 633 735 736
f 633 736 737
f 633 737 738
f 633 738 739
f 633 739 634
f 633 734 735
f 634 739 635
f 635 739 738
f 635 738 740
f 635 740 637
f 635 637 636
f 637 741 742
f 637 742 743
f 637 743 639
f 637 639 638
f 637 740 741
f 639 743 744
f 639 744 640
f 640 744 641
f 641 744 745
f 641 745 746
f 641 746 747
f 641 747 642
f 642 747 655
f 643 653 748
f 643 748 749
f 643 749 644
f 644 749 664
f 647 649 750
f 647 750 751
f 647 751 650
f 648 752 753
f 648 753 649
f 648 656 754
f 648 754 755
f 648 755 756
f 648 756 752
f 649 753 750
f 650 751 652
f 650 652 651
f 652 757 758
f 652 758 653
f 652 751 759
f 652 759 760
f 652 760 761
f 652 761 757
f 653 758 748
f 654 655 657
f 655 747 762
f 655 762 763
f 655 763 764
f 655 764 657
f 656 659 765
f 656 765 754
f 657 764 766
f 657 766 658
f 658 766 659
f 659 766 767
f 659 767 765
f 660 676 768
f 660 768 769
f 660 769 661
f 661 769 770
f 661 770 663
f 661 663 662
f 663 770 771
f 663 771 772
f 663 772 677
f 664 749 748
f 664 748 773
f 664 773 665
f 665 773 667
f 666 669 670
f 667 773 774
f 667 774 775
f 667 775 668
f 668 775 776
f 668 776 777
f 668 777 669
f 669 777 697
f 669 697 778
f 669 778 670
f 670 778 696
f 670 696 779
f 670 779 780
f 670 780 671
f 671 780 672
f 672 781 673
f 672 780 693
f 672 693 781
f 673 781 782
f 673 782 674
f 674 676 675
f 674 782 783
f 674 783 676
f 676 783 784
f 676 784 768
f 677 772 678
f 678 772 785
f 681 786 686
f 681 686 682
f 681 685 787
f 681 787 788
f 681 788 789
f 681 789 786
f 683 721 684
f 684 721 790
f 684 790 791
f 684 791 787
f 684 787 685
f 686 786 687
f 687 786 793
f 687 793 792
f 690 713 794
f 690 794 719
f 691 795 782
f 691 782 796
f 691 796 692
f 692 796 693
f 693 796 781
f 693 780 779
f 693 779 695
f 693 695 694
f 695 779 696
f 696 778 697
f 697 777 698
f 698 777 797
f 698 797 798
f 698 798 699
f 699 799 701
f 699 798 799
f 701 799 702
f 702 799 800
f 702 800 801
f 702 801 707
f 702 707 703
f 703 707 704
f 705 802 706
f 705 707 803
f 705 803 802
f 706 802 708
f 707 801 803
f 708 804 709
f 708 802 804
f 709 804 805
f 709 805 710
f 710 805 806
f 710 806 711
f 711 806 712
f 712 807 808
f 712 808 809
f 712 809 810
f 712 810 720
f 712 720 794
f 712 794 713
f 712 806 811
f 712 811 807
f 714 790 721
f 714 715 812
f 714 812 790
f 715 717 812
f 716 718 720
f 716 720 813
f 716 813 717
f 717 813 814
f 717 814 808
f 717 808 815
f 717 815 816
f 717 816 817
f 717 817 818
f 717 818 819
f 717 819 812
f 719 794 720
f 720 810 814
f 720 814 813
f 722 723 820
f 722 820 821
f 722 821 822
f 722 822 823
f 722 823 824
f 722 824 825
f 722 825 728
f 722 727 724
f 723 726 820
f 728 825 826
f 728 826 729
f 729 826 730
f 730 827 828
f 730 828 829
f 730 829 731
f 730 826 824
f 730 824 827
f 731 829 732
f 732 829 830
f 732 830 733
f 733 830 735
f 733 735 831
f 733 831 734
f 734 831 735
f 735 832 833
f 735 833 736
f 735 830 834
f 735 834 835
f 735 835 832
f 736 833 836
f 736 836 837
f 736 837 838
f 736 838 737
f 737 838 839
f 737 839 742
f 737 742 738
f 738 742 740
f 740 742 741
f 742 839 762
f 742 762 840
f 742 840 743
f 743 840 744
f 744 840 745
f 745 840 762
f 745 762 747
f 745 747 746
f 748 758 773
f 750 753 841
f 750 841 759
f 750 759 751
f 752 842 841
f 752 841 753
f 752 756 755
f 752 755 843
f 752 843 844
f 752 844 845
f 752 845 842
f 754 765 843
f 754 843 755
f 757 761 758
f 758 761 846
f 758 846 774
f 758 774 773
f 759 841 842
f 759 842 847
f 759 847 760
f 760 847 848
f 760 848 849
f 760 849 850
f 760 850 761
f 761 850 846
f 762 851 763
f 762 839 851
f 763 851 764
f 764 851 852
f 764 852 766
f 765 767 853
f 765 853 854
f 765 854 855
f 765 855 843
f 766 852 856
f 766 856 853
f 766 853 767
f 768 784 857
f 768 857 769
f 769 857 770
f 770 858 771
f 770 857 858
f 771 859 772
f 771 858 857
f 771 857 859
f 772 860 861
f 772 861 785
f 772 859 857
f 772 857 860
f 774 846 775
f 775 846 776
f 776 846 862
f 776 862 797
f 776 797 777
f 781 796 782
f 782 863 783
f 782 795 857
f 782 857 863
f 783 863 784
f 784 863 857
f 786 864 793
f 786 789 864
f 787 789 788
f 787 791 790
f 787 790 865
f 787 865 789
f 789 865 866
f 789 866 867
f 789 867 868
f 789 868 864
f 790 869 865
f 790 812 819
f 790 819 869
f 792 793 871
f 792 871 870
f 793 864 871
f 797 862 800
f 797 800 872
f 797 872 798
f 798 872 799
f 799 872 800
f 800 862 873
f 800 873 874
f 800 874 801
f 801 875 803
f 801 874 876
f 801 876 875
f 802 803 877
f 802 877 878
f 802 878 804
f 803 875 879
f 803 879 877
f 804 878 880
f 804 880 805
f 805 880 881
f 805 881 811
f 805 811 806
f 807 816 808
f 807 811 816
f 808 816 815
f 808 814 809
f 809 814 810
f 811 881 882
f 811 882 883
f 811 883 884
f 811 884 816
f 816 884 885
f 816 885 886
f 816 886 817
f 817 886 887
f 817 887 888
f 817 888 818
f 818 888 889
f 818 889 819
f 819 889 869
f 821 890 822
f 822 890 891
f 822 891 892
f 822 892 893
f 822 893 894
f 822 894 895
f 822 895 896
f 822 896 824
f 822 824 823
f 824 896 897
f 824 897 827
f 824 826 825
f 827 898 899
f 827 899 900
f 827 900 901
f 827 901 828
f 827 897 898
f 828 901 829
f 829 901 902
f 829 902 903
f 829 903 834
f 829 834 830
f 832 904 905
f 832 905 906
f 832 906 907
f 832 907 833
f 832 835 908
f 832 908 904
f 833 907 909
f 833 909 910
f 833 910 836
f 834 903 835
f 835 903 908
f 836 910 852
f 836 852 837
f 837 852 851
f 837 851 838
f 838 851 911
f 838 911 839
f 839 911 851
f 842 845 912
f 842 912 847
f 843 855 913
f 843 913 914
f 843 914 844
f 844 914 915
f 844 915 916
f 844 916 845
f 845 916 917
f 845 917 912
f 846 850 873
f 846 873 862
f 847 912 918
f 847 918 848
f 848 918 919
f 848 919 849
f 849 919 850
f 850 919 920
f 850 920 873
f 852 921 856
f 852 910 909
f 852 909 921
f 853 856 921
f 853 921 854
f 854 921 922
f 854 922 923
f 854 923 913
f 854 913 855
f 857 924 860
f 860 924 925
f 860 925 861
f 864 868 926
f 864 926 871
f 865 869 867
f 865 867 866
f 867 927 928
f 867 928 868
f 867 869 889
f 867 889 888
f 867 888 929
f 867 929 930
f 867 930 931
f 867 931 927
f 868 928 932
f 868 932 926
f 870 871 926
f 870 926 934
f 870 934 933
f 873 920 919
f 873 919 935
f 873 935 874
f 874 935 876
f 875 936 937
f 875 937 879
f 875 876 938
f 875 938 936
f 876 935 938
f 877 879 939
f 877 939 940
f 877 940 878
f 878 940 939
f 878 939 941
f 878 941 942
f 878 942 880
f 879 943 939
f 879 937 943
f 880 944 882
f 880 882 881
f 880 942 944
f 882 944 945
f 882 945 946
f 882 946 947
f 882 947 948
f 882 948 949
f 882 949 950
f 882 950 884
f 882 884 883
f 884 950 949
f 884 949 885
f 885 949 887
f 885 887 886
f 887 951 930
f 887 930 888
f 887 949 951
f 888 930 929
f 890 892 891
f 893 952 953
f 893 953 894
f 894 953 954
f 894 954 955
f 894 955 956
f 894 956 895
f 895 956 957
f 895 957 897
f 895 897 896
f 897 957 898
f 898 957 958
f 898 958 899
f 899 959 900
f 899 958 959
f 900 959 901
f 901 959 960
f 901 960 902
f 902 961 908
f 902 908 903
f 902 960 961
f 904 962 963
f 904 963 964
f 904 964 905
f 904 908 961
f 904 961 965
f 904 965 966
f 904 966 962
f 905 964 967
f 905 967 968
f 905 968 969
f 905 969 922
f 905 922 909
f 905 909 970
f 905 970 906
f 906 970 907
f 907 970 909
f 909 922 921
f 912 917 918
f 913 923 971
f 913 971 972
f 913 972 914
f 914 972 915
f 915 973 917
f 915 917 916
f 915 972 974
f 915 974 973
f 917 973 975
f 917 975 976
f 917 976 918
f 918 935 919
f 918 976 977
f 918 977 978
f 918 978 935
f 922 969 923
f 923 969 979
f 923 979 980
f 923 980 971
f 926 932 934
f 927 981 982
f 927 982 983
f 927 983 928
f 927 931 984
f 927 984 981
f 928 983 932
f 930 951 931
f 931 951 985
f 931 985 986
f 931 986 987
f 931 987 984
f 932 983 988
f 932 988 934
f 933 934 990
f 933 990 989
f 934 988 991
f 934 991 992
f 934 992 990
f 935 978 936
f 935 936 938
f 936 978 993
f 936 993 943
f 936 943 937
f 939 994 941
f 939 943 994
f 941 994 943
f 941 943 995
f 941 995 996
f 941 996 942
f 942 996 944
f 943 993 995
f 944 997 998
f 944 998 999
f 944 999 1000
f 944 1000 945
f 944 996 997
f 945 1001 946
f 945 1000 999
f 945 999 998
f 945 998 1001
f 946 1001 1002
f 946 1002 947
f 947 1002 948
f 948 1002 949
f 949 1002 986
f 949 986 951
f 951 986 985
f 952 1003 953
f 953 1003 1004
f 953 1004 1005
f 953 1005 958
f 953 958 955
f 953 955 954
f 955 958 957
f 955 957 956
f 958 1006 1007
f 958 1007 1008
f 958 1008 1009
f 958 1009 1010
f 958 1010 1011
f 958 1011 959
f 958 1005 1006
f 959 1012 1013
f 959 1013 1014
f 959 1014 1015
f 959 1015 960
f 959 1011 1012
f 960 1015 1014
f 960 1014 961
f 961 1014 965
f 962 1016 963
f 962 966 1016
f 963 1016 1017
f 963 1017 967
f 963 967 964
f 965 1014 966
f 966 1014 1013
f 966 1013 1018
f 966 1018 1016
f 967 1017 980
f 967 980 979
f 967 979 968
f 968 979 969
f 971 1019 972
f 971 980 1020
f 971 1020 1021
f 971 1021 1019
f 972 1019 1022
f 972 1022 974
f 973 974 1023
f 973 1023 975
f 974 1022 1023
f 975 977 976
f 975 1023 1024
f 975 1024 977
f 977 1024 993
f 977 993 978
f 980 1017 1020
f 981 1025 982
f 981 984 1025
f 982 1026 1027
f 982 1027 992
f 982 992 991
f 982 991 983
f 982 1025 1028
f 982 1028 1026
f 983 991 988
f 984 987 1025
f 986 1029 1030
f 986 1030 987
f 986 1002 1029
f 987 1030 1028
f 987 1028 1025
f 989 990 1031
f 990 1032 1033
f 990 1033 1031
f 990 992 1032
f 992 1027 1032
f 993 1024 1034
f 993 1034 995
f 995 1034 1035
f 995 1035 996
f 996 1035 1036
f 996 1036 997
f 997 1037 1038
f 997 1038 998
f 997 1036 1039
f 997 1039 1037
f 998 1038 1001
f 1001 1038 1016
f 1001 1016 1040
f 1001 1040 1041
f 1001 1041 1042
f 1001 1042 1029
f 1001 1029 1043
f 1001 1043 1002
f 1002 1043 1029
f 1003 1044 1004
f 1004 1045 1005
f 1004 1044 1045
f 1005 1007 1006
f 1005 1045 1007
f 1007 1045 1046
f 1007 1046 1008
f 1008 1046 1009
f 1009 1046 1047
f 1009 1047 1048
f 1009 1048 1010
f 1010 1049 1018
f 1010 1018 1050
f 1010 1050 1013
f 1010 1013 1051
f 1010 1051 1011
f 1010 1048 1047
f 1010 1047 1049
f 1011 1051 1012
f 1012 1051 1013
f 1013 1050 1018
f 1016 1038 1037
f 1016 1037 1052
f 1016 1052 1017
f 1016 1018 1040
f 1017 1052 1020
f 1018 1049 1041
f 1018 1041 1040
f 1019 1034 1022
f 1019 1021 1053
f 1019 1053 1034
f 1020 1052 1021
f 1021 1052 1037
f 1021 1037 1053
f 1022 1034 1054
f 1022 1054 1023
f 1023 1054 1024
f 1024 1054 1034
f 1026 1028 1032
f 1026 1032 1027
f 1028 1030 1055
f 1028 1055 1056
f 1028 1056 1057
f 1028 1057 1058
f 1028 1058 1059
f 1028 1059 1032
f 1029 1060 1061
f 1029 1061 1030
f 1029 1042 1060
f 1030 1061 1055
f 1031 1033 1062
f 1032 1059 1063
f 1032 1063 1033
f 1033 1063 1064
f 1033 1064 1065
f 1033 1065 1062
f 1034 1053 1039
f 1034 1039 1035
f 1035 1039 1036
f 1037 1039 1053
f 1041 1049 1066
f 1041 1066 1067
f 1041 1067 1042
f 1042 1067 1068
f 1042 1068 1060
f 1044 1069 1070
f 1044 1070 1045
f 1045 1070 1071
f 1045 1071 1046
f 1046 1072 1073
f 1046 1073 1074
f 1046 1074 1047
f 1046 1071 1072
f 1047 1074 1075
f 1047 1075 1076
f 1047 1076 1077
f 1047 1077 1049
f 1049 1077 1076
f 1049 1076 1066
f 1055 1061 1060
f 1055 1060 1068
f 1055 1068 1056
f 1056 1068 1076
f 1056 1076 1057
f 1057 1076 1058
f 1058 1076 1078
f 1058 1078 1063
f 1058 1063 1059
f 1063 1078 1079
f 1063 1079 1080
f 1063 1080 1081
f 1063 1081 1064
f 1064 1081 1065
f 1066 1076 1082
f 1066 1082 1068
f 1066 1068 1067
f 1068 1082 1076
f 1069 1083 1070
f 1070 1083 1071
f 1071 1083 1084
f 1071 1084 1085
f 1071 1085 1072
f 1072 1074 1073
f 1072 1085 1074
f 1074 1085 1075
f 1075 1085 1084
f 1075 1084 1086
f 1075 1086 1076
f 1076 1086 1087
f 1076 1087 1078
f 1078 1087 1079
f 1079 1087 1086
f 1079 1086 1088
f 1079 1088 1080
f 1083 1089 1084
f 1084 1089 1086
f 1086 1089 1090
f 1086 1090 1088
