# ABC bottle geometry; canonical radius 1 and height 1, bottom z=0.
# https://github.com/mikedh/trimesh
v -0.245339654858 -0.420157390299 0.00977364
v -0.244064773305 -0.420157390299 0.00977364
v -0.264816938038 -0.420157390299 0.00998625
v -0.505627210644 -0.0768630834773 0.00970277
v -0.505627210644 -0.0443065134544 0.0095138
v -0.00254632310493 -0.0106217966927 0.00842708
v -0.241798304363 -0.420157390299 0.00979728
v -0.505627210644 -0.0799253199438 0.00975001
v -0.284648396739 -0.420157390299 0.0104351
v -0.505627210644 -0.0287535482253 0.00949016
v -0.0950457412367 -0.420157390299 0.01230145
v -0.182729042952 -0.420157390299 0.01074225
v -0.218638081421 -0.420157390299 0.01012802
v -0.505627210644 0.0649674459043 0.00946653
v -0.505627210644 0.0776193632646 0.0095138
v -0.505627210644 0.0830991974369 0.0095374
v -0.230820250806 0.403104295749 0.01239592
v -0.208014087753 0.403104295749 0.01249042
v -0.00247549956395 -0.00127384088031 0.00854519
v 0.00396973174075 -0.00691486365031 0.00861606
v 0.217936726013 -0.261968010514 0.01648289
v -0.505627210644 -0.0875003746263 0.00993901
v -0.296476448419 -0.420157390299 0.01100209
v -0.505627210644 -0.0996687840085 0.01029336
v -0.0781890447022 -0.420157390299 0.01265579
v -0.505627210644 0.106791319625 0.00991538
v -0.241727538637 0.403104295749 0.01253766
v -0.188324276134 0.403104295749 0.01275027
v -0.116081257949 0.403104295749 0.01381338
v -0.103969912106 0.403104295749 0.01400238
v 0.217936726013 0.285610585132 0.01721525
v 0.217936726013 0.260629069792 0.01690814
v 0.217936726013 0.249508270664 0.01681364
v 0.217936726013 0.243786711411 0.0167664
v 0.217936726013 -0.0869362723493 0.01636478
v 0.217936726013 -0.239242904282 0.01638842
v 0.217936726013 -0.271235372028 0.0166719
v -0.0749310461869 -0.420157390299 0.01272666
v -0.505627210644 -0.105793256941 0.01057687
v -0.323390492478 -0.420157390299 0.01284477
v -0.505627210644 0.121296732415 0.01024613
v -0.258655058713 0.403104295749 0.01301014
v -0.0824386306063 0.403104295749 0.01435673
v 0.217936726013 0.308174502766 0.01787671
v 0.217936726013 -0.274458739277 0.01674277
v -0.0623238777415 -0.420157390299 0.01327002
v 0.217936726013 -0.311366938918 0.01771134
v 0.217936726013 -0.333689131471 0.01875082
v 0.217936726013 -0.340861214659 0.0192233
v 0.217936726013 -0.348758588722 0.01976666
v -0.505627210644 -0.120540452627 0.01147458
v -0.331323075959 -0.420157390299 0.01369524
v -0.505627210644 0.126776508772 0.01050597
v -0.262762997535 0.403104295749 0.01317552
v -0.0734436940113 0.403104295749 0.01454574
v 0.217936726013 0.314621352895 0.01808935
v -0.0592783498491 -0.420157390299 0.01341176
v 0.217936726013 -0.356817151383 0.02049899
v -0.341876246086 -0.420157390299 0.01487646
v -0.505627210644 -0.131016555178 0.01225418
v -0.505627210644 0.134270969155 0.01088399
v -0.276857460341 0.403104295749 0.01383698
v -0.0580034682964 0.403104295749 0.01506546
v 0.217936726013 0.330980203298 0.01891619
v 0.217936726013 0.322357596175 0.01842007
v -0.0480877678535 -0.420157390299 0.01404962
v 0.217936726013 -0.366165107195 0.02144396
v 0.217936726013 -0.370597273297 0.02194008
v 0.217936726013 -0.378011139382 0.02295592
v -0.351367005283 -0.420157390299 0.01627028
v -0.505627210644 -0.141009149752 0.01324639
v -0.359370412304 -0.420157390299 0.01747513
v -0.505627210644 0.151758024112 0.01213604
v -0.283727632892 0.403104295749 0.01428586
v -0.0485835326403 0.403104295749 0.01544344
v 0.217936726013 0.357170517491 0.02094787
v 0.217936726013 0.355961718638 0.02082974
v -0.0369680093988 -0.420157390299 0.01480559
v 0.217936726013 -0.383249190658 0.02397174
v 0.217936726013 -0.402589741043 0.02824771
v -0.505627210644 -0.15204935458 0.01471108
v -0.368011231194 -0.420157390299 0.01924694
v -0.370915112005 -0.420157390299 0.01988477
v -0.505627210644 0.163684708413 0.01327002
v -0.299097035066 0.403104295749 0.01553792
v -0.293714214691 0.403104295749 0.01508906
v -0.0444047702772 0.403104295749 0.01563242
v 0.217936726013 0.379089796365 0.02361739
v 0.217936726013 -0.418062169788 0.03167322
v 0.217936726013 -0.420157390299 0.03221658
v -0.505627210644 -0.160027322942 0.01593953
v -0.382247341082 -0.420157390299 0.02338114
v -0.505627210644 0.168600382493 0.01383698
v -0.308516912906 0.403104295749 0.01657739
v -0.30447985544 0.403104295749 0.01610491
v 0.217936726013 0.403104295749 0.02838945
v 0.217936726013 0.396496257023 0.02680665
v 0.217936726013 0.39141933653 0.02583808
v 0.217936726013 -0.420157390299 0.24974769
v -0.505627210644 -0.420157390299 0.0637548
v -0.505627210644 0.18536220439 0.01624668
v -0.319990846881 0.403104295749 0.01813659
v 0.217936726013 0.403104295749 0.24974769
v -0.505627210644 -0.420157390299 0.24974769
v -0.505627210644 0.199625834283 0.01882169
v -0.334510250933 0.403104295749 0.02061713
v -0.323603020916 0.403104295749 0.01872718
v -0.505627210644 0.403104295749 0.24974769
v -0.505627210644 0.200673444538 0.01903433
v -0.34329277472 0.403104295749 0.02257794
v -0.335076897076 0.403104295749 0.02073526
v -0.505627210644 0.403104295749 0.06252635
f 1 2 7
f 1 7 13
f 1 13 12
f 1 12 11
f 1 11 25
f 1 25 38
f 1 38 46
f 1 46 57
f 1 57 66
f 1 66 78
f 1 78 90
f 1 90 99
f 1 99 104
f 1 104 100
f 1 100 92
f 1 92 83
f 1 83 82
f 1 82 72
f 1 72 70
f 1 70 59
f 1 59 52
f 1 52 40
f 1 40 23
f 1 23 9
f 1 9 3
f 1 3 4
f 1 4 5
f 1 5 6
f 1 6 2
f 2 6 7
f 3 8 4
f 3 9 8
f 4 8 22
f 4 22 24
f 4 24 39
f 4 39 51
f 4 51 60
f 4 60 71
f 4 71 81
f 4 81 91
f 4 91 100
f 4 100 104
f 4 104 108
f 4 108 112
f 4 112 109
f 4 109 105
f 4 105 101
f 4 101 93
f 4 93 84
f 4 84 73
f 4 73 61
f 4 61 53
f 4 53 41
f 4 41 26
f 4 26 16
f 4 16 15
f 4 15 14
f 4 14 10
f 4 10 5
f 5 10 6
f 6 11 12
f 6 12 13
f 6 13 7
f 6 10 14
f 6 14 15
f 6 15 16
f 6 16 17
f 6 17 18
f 6 18 19
f 6 19 20
f 6 20 21
f 6 21 11
f 8 9 22
f 9 23 24
f 9 24 22
f 11 21 25
f 16 26 17
f 17 26 27
f 17 27 42
f 17 42 54
f 17 54 62
f 17 62 74
f 17 74 86
f 17 86 85
f 17 85 95
f 17 95 94
f 17 94 102
f 17 102 107
f 17 107 106
f 17 106 111
f 17 111 110
f 17 110 112
f 17 112 108
f 17 108 103
f 17 103 96
f 17 96 87
f 17 87 75
f 17 75 63
f 17 63 55
f 17 55 43
f 17 43 30
f 17 30 29
f 17 29 28
f 17 28 18
f 18 28 19
f 19 28 29
f 19 29 30
f 19 30 31
f 19 31 20
f 20 31 32
f 20 32 33
f 20 33 34
f 20 34 35
f 20 35 36
f 20 36 21
f 21 36 35
f 21 35 34
f 21 34 33
f 21 33 32
f 21 32 31
f 21 31 44
f 21 44 56
f 21 56 65
f 21 65 64
f 21 64 77
f 21 77 76
f 21 76 88
f 21 88 98
f 21 98 97
f 21 97 96
f 21 96 103
f 21 103 99
f 21 99 90
f 21 90 89
f 21 89 80
f 21 80 79
f 21 79 69
f 21 69 68
f 21 68 67
f 21 67 58
f 21 58 50
f 21 50 49
f 21 49 48
f 21 48 47
f 21 47 45
f 21 45 37
f 21 37 38
f 21 38 25
f 23 39 24
f 23 40 39
f 26 41 27
f 27 41 42
f 30 43 31
f 31 43 44
f 37 45 38
f 38 45 47
f 38 47 48
f 38 48 49
f 38 49 50
f 38 50 46
f 39 40 51
f 40 52 51
f 41 53 54
f 41 54 42
f 43 55 44
f 44 55 56
f 46 50 58
f 46 58 57
f 51 52 59
f 51 59 60
f 53 61 54
f 54 61 62
f 55 63 64
f 55 64 65
f 55 65 56
f 57 58 67
f 57 67 68
f 57 68 69
f 57 69 66
f 59 70 60
f 60 70 72
f 60 72 71
f 61 73 74
f 61 74 62
f 63 75 76
f 63 76 77
f 63 77 64
f 66 69 79
f 66 79 80
f 66 80 78
f 71 72 82
f 71 82 83
f 71 83 81
f 73 84 85
f 73 85 86
f 73 86 74
f 75 87 88
f 75 88 76
f 78 80 89
f 78 89 90
f 81 83 91
f 83 92 91
f 84 93 94
f 84 94 95
f 84 95 85
f 87 96 97
f 87 97 98
f 87 98 88
f 91 92 100
f 93 101 102
f 93 102 94
f 99 103 108
f 99 108 104
f 101 105 106
f 101 106 107
f 101 107 102
f 105 109 110
f 105 110 111
f 105 111 106
f 109 112 110
