# ABC bottle geometry; canonical radius 1 and height 1, bottom z=0.
# https://github.com/mikedh/trimesh
v 0.459232805714 -0.0344574285356 0.930214425843
v 0.447364284692 -0.103729007756 0.930214425843
v 0.417513202204 -0.0782456606026 0.861095210543
v 0.422728169946 -0.0351752332319 0.861095210543
v 0.422728169946 -0.0344574285356 0.861095210543
v 0.422548355405 0.0346346822071 0.861095210543
v 0.45896301469 0.0346346822071 0.930214425843
v 0.43999147325 0.0346346822071 0.979697980405
v 0.43999147325 -0.0344574285356 0.979697980405
v 0.426864181231 -0.167257872554 0.930214425843
v 0.408521921471 -0.112791715974 0.861095210543
v 0.423357590051 -0.0864110956474 0.979697980405
v 0.417333387663 0.0769873048815 0.861095210543
v 0.417243480393 0.0777051095778 0.861095210543
v 0.417153573123 0.0782435150095 0.861095210543
v 0.447094562881 0.103906261427 0.930214425843
v 0.423357590051 0.0865884185316 0.979697980405
v 0.419401393306 0.0781537461645 0.989597405534
v 0.431719450679 0.0346346822071 0.989597405534
v 0.426864181231 0.167883832025 0.930214425843
v 0.431719450679 -0.0344574285356 0.989597405534
v 0.419401393306 -0.077976492493 0.989597405534
v 0.412837747297 -0.201893627558 0.930214425843
v 0.385773997826 -0.172910818131 0.861095210543
v 0.408162292389 -0.113778757992 0.861095210543
v 0.4084320142 0.112251164949 0.861095210543
v 0.413017561837 0.202519587029 0.930214425843
v 0.402317904542 0.112789570381 0.989597405534
v 0.415355289291 0.0695396745329 0.994574359246
v 0.419311486036 0.0346346822071 0.995145482972
v 0.385863905096 0.173088141015 0.861095210543
v 0.419311486036 -0.0344574285356 0.995145482972
v 0.415355289291 -0.0693624208614 0.994574359246
v 0.402317904542 -0.112612247497 0.989597405534
v 0.388381447091 -0.242092697718 0.930214425843
v 0.35781110644 -0.225672058784 0.861095210543
v 0.350797854866 -0.215622308547 0.987612098015
v 0.358440457332 0.225041808127 0.861095210543
v 0.35799092098 0.225849381668 0.861095210543
v 0.388561261631 0.24226995139 0.930214425843
v 0.350797854866 0.215799631431 0.987612098015
v 0.366262874338 0.17918979239 0.990386102089
v 0.345223258043 0.206288217413 0.994220758855
v 0.357451408146 0.160167033567 0.995852545172
v 0.380559030084 0.0970868053552 0.996423668899
v 0.380648937354 0.0346346822071 0.997865054244
v 0.380648937354 -0.0344574285356 0.997865054244
v 0.380559030084 -0.096909482471 0.996423668899
v 0.345223258043 -0.206110963742 0.994220758855
v 0.357451408146 -0.159989710683 0.995852545172
v 0.366262874338 -0.179012469506 0.990386102089
v 0.356192637149 -0.289200992795 0.930214425843
v 0.354394353317 -0.286957671436 0.936646355778
v 0.333894249856 -0.259769477568 0.861095210543
v 0.330657380486 -0.240028914049 0.990386102089
v 0.29280406645 -0.300417184315 0.989597405534
v 0.357631222686 0.226387787099 0.861095210543
v 0.356102729878 0.289198777989 0.930214425843
v 0.354304446046 0.287045294688 0.936646355778
v 0.29280406645 0.300594507199 0.989597405534
v 0.330657380486 0.240206236933 0.990386102089
v 0.284262322069 0.288301504816 0.995444610967
v 0.299097990649 0.24226995139 0.996573237845
v 0.317799879491 0.17918979239 0.997511523144
v 0.311416048022 0.103906261427 0.999605636874
v 0.311416048022 0.0346346822071 0.999986369528
v 0.311416048022 -0.0344574285356 0.999986369528
v 0.311416048022 -0.103729007756 0.999605636874
v 0.317799879491 -0.179012469506 0.997511523144
v 0.284262322069 -0.288124181932 0.995444610967
v 0.299097990649 -0.242092697718 0.996573237845
v 0.324183641747 -0.323836747799 0.930214425843
v 0.298918176108 -0.29898150571 0.861095210543
v 0.33290520067 -0.260935988064 0.861095210543
v 0.333444713504 -0.260307883 0.861095210543
v 0.273203104905 -0.341513527649 0.979697980405
v 0.267718415352 -0.334963239686 0.989597405534
v 0.333264898963 0.260485205884 0.861095210543
v 0.298738361568 0.298979360117 0.861095210543
v 0.324003827206 0.323834602206 0.930214425843
v 0.273203104905 0.341690850533 0.979697980405
v 0.267718415352 0.335140562571 0.989597405534
v 0.220873820583 0.356137405431 0.995730177779
v 0.243262115146 0.311451830977 0.996886006211
v 0.24218315869 0.24226995139 0.999306449488
v 0.24218315869 0.173088141015 0.999986369528
v 0.0345743287508 0.0346346822071 1
v 0.0345743287508 -0.0344574285356 1
v 0.24218315869 -0.172910818131 0.999986369528
v 0.24218315869 -0.242092697718 0.999306449488
v 0.220873820583 -0.355960082546 0.995730177779
v 0.243262115146 -0.311274577306 0.996886006211
v 0.289567197081 -0.356498487978 0.930214425843
v 0.287139562357 -0.354524403941 0.937747781104
v 0.261604305695 -0.333078924494 0.861095210543
v 0.233101901474 -0.365740664674 0.989597405534
v 0.238586591026 -0.370406637444 0.979697980405
v 0.261154769343 0.33361511512 0.861095210543
v 0.28938738254 0.356586042017 0.930214425843
v 0.287049655087 0.354701726825 0.937747781104
v 0.238586591026 0.370583891115 0.979697980405
v 0.233101901474 0.365917987558 0.989597405534
v 0.172950269358 0.394452091186 0.989597405534
v 0.172950269358 0.36600768719 0.996736437264
v 0.172950269358 0.31154153061 0.999456067928
v 0.172950269358 0.24226995139 0.999986369528
v 0.0345743287508 0.31154153061 0.999986369528
v -0.0345686533111 0.0346346822071 1
v -0.0345686533111 -0.0344574285356 1
v 0.0345743287508 -0.311364276938 0.999986369528
v 0.172950269358 -0.242092697718 0.999986369528
v 0.172950269358 -0.311364276938 0.999456067928
v 0.172950269358 -0.394274768302 0.989597405534
v 0.172950269358 -0.365830364306 0.996736437264
v 0.208016250375 -0.415361380007 0.935259343842
v 0.208016250375 -0.415361380007 0.93485137994
v 0.23552960541 -0.394364537147 0.931016723174
v 0.226358510136 -0.35838280317 0.861095210543
v 0.26097488559 -0.333617329926 0.861095210543
v 0.172950269358 -0.402799140301 0.979697980405
v 0.226538324677 0.358829294164 0.861095210543
v 0.235709419951 0.394541860031 0.930894355781
v 0.208285972186 0.415718102155 0.934661018563
v 0.208285972186 0.415718102155 0.935340938602
v 0.172950269358 0.402976463185 0.979697980405
v 0.0975133630973 0.407552736323 0.988645549155
v 0.103807218083 0.372109338566 0.99721239515
v 0.103807218083 0.31154153061 0.999931966422
v 0.0345743287508 0.373545017171 0.997266788357
v -0.0345686533111 0.31154153061 0.999986369528
v -0.172944524705 0.24226995139 0.999986369528
v -0.242177414038 0.173088141015 0.999986369528
v -0.311410372582 0.0346346822071 0.999986369528
v -0.311410372582 -0.0344574285356 0.999986369528
v -0.242177414038 -0.172910818131 0.999986369528
v -0.172944524705 -0.242092697718 0.999986369528
v -0.0345686533111 -0.311364276938 0.999986369528
v 0.0345743287508 -0.373367694287 0.997266788357
v 0.103807218083 -0.311364276938 0.999931966422
v 0.103807218083 -0.371932015682 0.99721239515
v 0.0975133630973 -0.407375413439 0.988645549155
v 0.103807218083 -0.447484714754 0.930214425843
v 0.176276976785 -0.424962493657 0.931016723174
v 0.115136295483 -0.408541923935 0.861095210543
v 0.172950269358 -0.386737507534 0.861095210543
v 0.173849342061 -0.386288801734 0.861095210543
v 0.0702697298735 -0.415181911529 0.984715696852
v 0.0345743287508 -0.458342038532 0.930214425843
v 0.225729090031 0.359277930751 0.861095210543
v 0.172950269358 0.38727369816 0.861095210543
v 0.113607733462 0.409167814193 0.861095210543
v 0.176456860538 0.425229516173 0.930894355781
v 0.103807218083 0.447392800316 0.930214425843
v 0.0702697298735 0.415359234414 0.984715696852
v 0.0345743287508 0.458339892939 0.930214425843
v 0.0345743287508 0.408180772175 0.989964567107
v -0.0345686533111 0.373545017171 0.997266788357
v -0.103801542643 0.31154153061 0.999931966422
v -0.172944524705 0.31154153061 0.999483269481
v -0.242177414038 0.24226995139 0.999333700535
v -0.311410372582 0.103906261427 0.999632838427
v -0.380643261915 0.0346346822071 0.997946658903
v -0.311410372582 -0.103729007756 0.999632838427
v -0.380643261915 -0.0344574285356 0.997946658903
v -0.242177414038 -0.242092697718 0.999333700535
v -0.172944524705 -0.311364276938 0.999483269481
v -0.103801542643 -0.311364276938 0.999931966422
v -0.0345686533111 -0.373367694287 0.997266788357
v 0.0345743287508 -0.408003518503 0.989964567107
v 0.0795308016305 -0.417694331785 0.861095210543
v 0.114147246297 -0.408900791677 0.861095210543
v 0.0345743287508 -0.415540848484 0.985014854542
v -0.0345686533111 -0.457713933468 0.930214425843
v 0.0345743287508 -0.422898709987 0.861095210543
v 0.0352037488557 -0.422898709987 0.861095210543
v -0.0345686533111 -0.415540848484 0.985014854542
v 0.0795308016305 0.417512717715 0.861095210543
v 0.0789912887959 0.41760248656 0.861095210543
v 0.0345743287508 0.415718102155 0.985014854542
v 0.0782720306333 0.417692186192 0.861095210543
v 0.0345743287508 0.422896495182 0.861095210543
v 0.0334953722943 0.422896495182 0.861095210543
v -0.0345686533111 0.422717095917 0.861095210543
v -0.0345686533111 0.45807072483 0.930214425843
v -0.0345686533111 0.415718102155 0.985014854542
v -0.0345686533111 0.408180772175 0.989964567107
v -0.103801542643 0.372109338566 0.99721239515
v -0.172944524705 0.366276924512 0.996750067737
v -0.221317681495 0.35640657354 0.995757379332
v -0.243526161518 0.311810767932 0.996913197865
v -0.299631758831 0.24226995139 0.996600439398
v -0.318063925862 0.179548729345 0.997525094224
v -0.380823076455 0.097535441942 0.996478072005
v -0.419845254218 0.0346346822071 0.99521344726
v -0.380823076455 -0.0973581882705 0.996478072005
v -0.318063925862 -0.179371406461 0.997525094224
v -0.419845254218 -0.0344574285356 0.99521344726
v -0.299631758831 -0.242092697718 0.996600439398
v -0.243526161518 -0.311633445048 0.996913197865
v -0.221317681495 -0.356229250656 0.995757379332
v -0.172944524705 -0.366099601628 0.996750067737
v -0.103801542643 -0.371932015682 0.99721239515
v -0.0345686533111 -0.408003518503 0.989964567107
v -0.103801542643 -0.446497741948 0.930214425843
v -0.0771873295245 -0.416976527089 0.861095210543
v -0.0765579786322 -0.417066226721 0.861095210543
v -0.0345686533111 -0.422270604923 0.861095210543
v -0.0704438689744 -0.415181911529 0.984715696852
v -0.172944524705 -0.403158077256 0.979697980405
v -0.0778167496294 0.417423018083 0.861095210543
v -0.103801542643 0.446854464097 0.930214425843
v -0.172944524705 0.40333540014 0.979697980405
v -0.0704438689744 0.415359234414 0.984715696852
v -0.0975975257152 0.407552736323 0.988645549155
v -0.172944524705 0.39481102814 0.989597405534
v -0.233725646139 0.366187155667 0.989597405534
v -0.268342090805 0.335948136112 0.989597405534
v -0.28461627571 0.28892960988 0.995471812519
v -0.357895269058 0.160884838264 0.995879746725
v -0.415709242932 0.0703472480742 0.994615121981
v -0.432792731696 0.0346346822071 0.989597405534
v -0.357895269058 -0.160707584592 0.995879746725
v -0.415709242932 -0.0700802255577 0.994615121981
v -0.432792731696 -0.0344574285356 0.989597405534
v -0.28461627571 -0.288752286996 0.995471812519
v -0.268342090805 -0.335770813228 0.989597405534
v -0.233725646139 -0.366009832783 0.989597405534
v -0.172944524705 -0.394633705256 0.989597405534
v -0.0975975257152 -0.407375413439 0.988645549155
v -0.208010574936 -0.415361380007 0.935259343842
v -0.208010574936 -0.415361380007 0.934878581493
v -0.176091486805 -0.424603556702 0.931030314052
v -0.111803774191 -0.408541923935 0.861095210543
v -0.077726842359 -0.416886758244 0.861095210543
v -0.239210335692 -0.370675805553 0.979697980405
v -0.111893681461 0.408808946451 0.861095210543
v -0.176001579534 0.424691110742 0.931152711142
v -0.207740783912 0.415359234414 0.935068972566
v -0.207740783912 0.415359234414 0.93519133996
v -0.239210335692 0.370853128438 0.979697980405
v -0.273826780358 0.342498424074 0.979697980405
v -0.293427741903 0.30140208074 0.989597405534
v -0.345577211684 0.207006091322 0.994383958274
v -0.402941649208 0.113956080877 0.989597405534
v -0.419935161488 0.0793202566603 0.989597405534
v -0.441154592325 0.0346346822071 0.979697980405
v -0.345577211684 -0.206828768438 0.994383958274
v -0.419935161488 -0.0791429337761 0.989597405534
v -0.402941649208 -0.113778757992 0.989597405534
v -0.441154592325 -0.0344574285356 0.979697980405
v -0.293427741903 -0.301224757856 0.989597405534
v -0.273826780358 -0.34232110119 0.979697980405
v -0.290370687074 -0.356947124565 0.930214425843
v -0.235523860758 -0.394723474101 0.931030314052
v -0.227611536481 -0.358113635061 0.861095210543
v -0.226982185589 -0.358472572015 0.861095210543
v -0.226172950943 -0.358921208602 0.861095210543
v -0.172944524705 -0.386558039056 0.861095210543
v -0.171955475519 -0.386916976011 0.861095210543
v -0.287763237809 -0.354793572051 0.937870178193
v -0.112433194295 0.408629477974 0.861095210543
v -0.113422243482 0.40827054102 0.861095210543
v -0.172944524705 0.386376424986 0.861095210543
v -0.173843666621 0.385927788399 0.861095210543
v -0.226892278318 0.358380657577 0.861095210543
v -0.235344046217 0.39481102814 0.931152711142
v -0.290640478098 0.357214147081 0.930214425843
v -0.355197912523 0.288122036339 0.936755122395
v -0.415709242932 0.208621238405 0.935259343842
v -0.325256922764 0.32553944892 0.930214425843
v -0.357445732706 0.290903693917 0.930214425843
v -0.351241715778 0.216427736495 0.987788858616
v -0.331371032422 0.24065487352 0.990494898402
v -0.366976457061 0.179548729345 0.990494898402
v -0.447898052875 0.103906261427 0.930214425843
v -0.459316968332 0.0346346822071 0.930214425843
v -0.366976457061 -0.179371406461 0.990494898402
v -0.351241715778 -0.216250413611 0.987788858616
v -0.331371032422 -0.240477550636 0.990494898402
v -0.415889057473 -0.208713152843 0.935286535497
v -0.459047246521 -0.0344574285356 0.930214425843
v -0.447718238334 -0.103729007756 0.930214425843
v -0.355108005252 -0.287765244977 0.936755122395
v -0.357445732706 -0.290546902555 0.930214425843
v -0.324987200953 -0.325092957927 0.930214425843
v -0.299451944291 -0.300327484683 0.861095210543
v -0.261598630255 -0.334335134622 0.861095210543
v -0.261508722985 0.334691925984 0.861095210543
v -0.262138073877 0.334153520552 0.861095210543
v -0.300261178936 0.300145870612 0.861095210543
v -0.415709242932 0.208621238405 0.934511449617
v -0.395299046742 0.23598890075 0.930812751122
v -0.334787716332 0.262369521076 0.861095210543
v -0.335237252683 0.261741416012 0.861095210543
v -0.359064132784 0.227733766072 0.861095210543
v -0.4252400365 0.176677372134 0.930812751122
v -0.409325411464 0.1133279066 0.861095210543
v -0.417597434035 0.079230557028 0.861095210543
v -0.422812332564 0.0346346822071 0.861095210543
v -0.422632518023 -0.0344574285356 0.861095210543
v -0.415889057473 -0.208713152843 0.934348250198
v -0.417417619494 -0.0777072551708 0.861095210543
v -0.417327643011 -0.0784251290798 0.861095210543
v -0.425329943771 -0.176589748882 0.930703954809
v -0.417237735741 -0.0789635345115 0.861095210543
v -0.409145596923 -0.113060884083 0.861095210543
v -0.395388954012 -0.23590134671 0.930703954809
v -0.358794410973 -0.228094779407 0.861095210543
v -0.334607832579 -0.26210249856 0.861095210543
v -0.300620808017 -0.299160974187 0.861095210543
v -0.387566537005 0.173088141015 0.861095210543
v -0.409145596923 0.113866312032 0.861095210543
v -0.387746351546 -0.172910818131 0.861095210543
v -0.359154040055 -0.227556443188 0.861095210543
f 1 2 3
f 1 3 4
f 1 4 5
f 1 5 6
f 1 6 7
f 1 7 8
f 1 8 9
f 1 9 2
f 2 10 11
f 2 11 3
f 2 9 12
f 2 12 10
f 3 11 25
f 3 25 24
f 3 24 36
f 3 36 54
f 3 54 75
f 3 75 74
f 3 74 73
f 3 73 95
f 3 95 119
f 3 119 118
f 3 118 146
f 3 146 145
f 3 145 144
f 3 144 171
f 3 171 170
f 3 170 175
f 3 175 174
f 3 174 207
f 3 207 206
f 3 206 205
f 3 205 234
f 3 234 233
f 3 233 259
f 3 259 258
f 3 258 257
f 3 257 256
f 3 256 255
f 3 255 287
f 3 287 286
f 3 286 310
f 3 310 309
f 3 309 308
f 3 308 314
f 3 314 313
f 3 313 306
f 3 306 305
f 3 305 303
f 3 303 302
f 3 302 300
f 3 300 299
f 3 299 298
f 3 298 297
f 3 297 312
f 3 312 311
f 3 311 295
f 3 295 294
f 3 294 293
f 3 293 290
f 3 290 289
f 3 289 288
f 3 288 265
f 3 265 264
f 3 264 263
f 3 263 262
f 3 262 261
f 3 261 236
f 3 236 210
f 3 210 183
f 3 183 182
f 3 182 181
f 3 181 180
f 3 180 178
f 3 178 177
f 3 177 151
f 3 151 150
f 3 150 149
f 3 149 121
f 3 121 98
f 3 98 79
f 3 79 78
f 3 78 57
f 3 57 39
f 3 39 38
f 3 38 31
f 3 31 26
f 3 26 15
f 3 15 14
f 3 14 13
f 3 13 6
f 3 6 5
f 3 5 4
f 6 13 7
f 7 13 14
f 7 14 15
f 7 15 16
f 7 16 8
f 8 17 18
f 8 18 19
f 8 19 21
f 8 21 9
f 8 16 20
f 8 20 17
f 9 21 22
f 9 22 12
f 10 23 24
f 10 24 25
f 10 25 11
f 10 12 23
f 12 22 23
f 15 26 16
f 16 26 20
f 17 20 27
f 17 27 18
f 18 28 29
f 18 29 19
f 18 27 28
f 19 29 30
f 19 30 32
f 19 32 21
f 20 26 31
f 20 31 27
f 21 32 33
f 21 33 22
f 22 33 34
f 22 34 23
f 23 35 36
f 23 36 24
f 23 34 37
f 23 37 35
f 27 31 38
f 27 38 39
f 27 39 40
f 27 40 41
f 27 41 28
f 28 41 42
f 28 42 43
f 28 43 29
f 29 43 44
f 29 44 45
f 29 45 30
f 30 45 46
f 30 46 47
f 30 47 32
f 32 47 48
f 32 48 33
f 33 49 34
f 33 48 50
f 33 50 49
f 34 49 51
f 34 51 37
f 35 52 36
f 35 37 53
f 35 53 52
f 36 52 54
f 37 51 49
f 37 49 55
f 37 55 56
f 37 56 53
f 39 57 40
f 40 57 58
f 40 58 59
f 40 59 41
f 41 59 60
f 41 60 61
f 41 61 43
f 41 43 42
f 43 61 60
f 43 60 62
f 43 62 44
f 44 63 64
f 44 64 45
f 44 62 63
f 45 64 65
f 45 65 46
f 46 65 66
f 46 66 67
f 46 67 47
f 47 67 68
f 47 68 48
f 48 68 69
f 48 69 50
f 49 50 70
f 49 70 56
f 49 56 55
f 50 69 71
f 50 71 70
f 52 72 73
f 52 73 74
f 52 74 75
f 52 75 54
f 52 53 72
f 53 56 76
f 53 76 72
f 56 70 77
f 56 77 76
f 57 78 58
f 58 78 79
f 58 79 80
f 58 80 59
f 59 81 60
f 59 80 81
f 60 81 82
f 60 82 62
f 62 82 83
f 62 83 84
f 62 84 63
f 63 84 85
f 63 85 64
f 64 85 65
f 65 85 86
f 65 86 66
f 66 86 87
f 66 87 88
f 66 88 67
f 67 88 89
f 67 89 68
f 68 90 69
f 68 89 90
f 69 90 71
f 70 91 77
f 70 71 92
f 70 92 91
f 71 90 92
f 72 93 73
f 72 76 94
f 72 94 93
f 73 93 95
f 76 77 96
f 76 96 97
f 76 97 94
f 77 91 96
f 79 98 99
f 79 99 80
f 80 99 100
f 80 100 81
f 81 101 102
f 81 102 82
f 81 100 101
f 82 102 83
f 83 102 103
f 83 103 104
f 83 104 105
f 83 105 84
f 84 105 85
f 85 105 86
f 86 105 106
f 86 106 87
f 87 106 107
f 87 107 130
f 87 130 108
f 87 108 109
f 87 109 88
f 88 109 137
f 88 137 110
f 88 110 111
f 88 111 89
f 89 111 112
f 89 112 90
f 90 112 92
f 91 113 96
f 91 92 112
f 91 112 114
f 91 114 113
f 93 94 97
f 93 97 115
f 93 115 116
f 93 116 117
f 93 117 118
f 93 118 119
f 93 119 95
f 96 113 120
f 96 120 97
f 97 120 115
f 98 121 99
f 99 122 123
f 99 123 124
f 99 124 100
f 99 121 122
f 100 124 101
f 101 124 125
f 101 125 102
f 102 125 103
f 103 125 126
f 103 126 104
f 104 127 105
f 104 126 127
f 105 127 128
f 105 128 106
f 106 128 107
f 107 128 129
f 107 129 157
f 107 157 130
f 108 130 131
f 108 131 132
f 108 132 133
f 108 133 134
f 108 134 109
f 109 134 135
f 109 135 136
f 109 136 137
f 110 137 168
f 110 168 138
f 110 138 139
f 110 139 111
f 111 139 112
f 112 139 140
f 112 140 114
f 113 141 120
f 113 114 141
f 114 140 141
f 115 120 142
f 115 142 116
f 116 142 143
f 116 143 144
f 116 144 145
f 116 145 146
f 116 146 118
f 116 118 117
f 120 141 147
f 120 147 148
f 120 148 142
f 121 149 123
f 121 123 122
f 123 149 150
f 123 150 151
f 123 151 152
f 123 152 153
f 123 153 124
f 124 153 125
f 125 154 126
f 125 153 155
f 125 155 154
f 126 156 127
f 126 154 156
f 127 156 129
f 127 129 128
f 129 156 186
f 129 186 157
f 130 157 158
f 130 158 131
f 131 158 159
f 131 159 132
f 132 159 160
f 132 160 161
f 132 161 133
f 133 161 162
f 133 162 164
f 133 164 134
f 134 163 135
f 134 164 163
f 135 163 165
f 135 165 166
f 135 166 136
f 136 166 167
f 136 167 137
f 137 167 168
f 138 140 139
f 138 168 203
f 138 203 169
f 138 169 140
f 140 169 141
f 141 169 147
f 142 148 170
f 142 170 171
f 142 171 143
f 143 171 144
f 147 169 172
f 147 172 148
f 148 173 207
f 148 207 174
f 148 174 175
f 148 175 170
f 148 172 176
f 148 176 173
f 151 177 153
f 151 153 152
f 153 177 178
f 153 178 155
f 154 179 156
f 154 155 179
f 155 178 180
f 155 180 181
f 155 181 182
f 155 182 183
f 155 183 184
f 155 184 185
f 155 185 179
f 156 179 185
f 156 185 186
f 157 187 158
f 157 186 187
f 158 187 159
f 159 187 188
f 159 188 189
f 159 189 190
f 159 190 160
f 160 190 191
f 160 191 192
f 160 192 161
f 161 192 193
f 161 193 162
f 162 193 194
f 162 194 197
f 162 197 164
f 163 164 195
f 163 195 196
f 163 196 165
f 164 197 195
f 165 196 198
f 165 198 199
f 165 199 166
f 166 199 200
f 166 200 201
f 166 201 202
f 166 202 167
f 167 202 168
f 168 202 203
f 169 203 176
f 169 176 172
f 173 204 205
f 173 205 206
f 173 206 207
f 173 176 208
f 173 208 209
f 173 209 204
f 176 203 208
f 183 210 184
f 184 210 211
f 184 211 212
f 184 212 213
f 184 213 185
f 185 213 186
f 186 213 214
f 186 214 187
f 187 214 188
f 188 214 215
f 188 215 189
f 189 215 216
f 189 216 217
f 189 217 218
f 189 218 190
f 190 218 191
f 191 219 192
f 191 218 219
f 192 219 193
f 193 219 220
f 193 220 194
f 194 220 221
f 194 221 224
f 194 224 197
f 195 222 196
f 195 197 223
f 195 223 222
f 196 222 198
f 197 224 223
f 198 222 225
f 198 225 199
f 199 225 200
f 200 225 226
f 200 226 227
f 200 227 228
f 200 228 201
f 201 228 229
f 201 229 202
f 202 229 203
f 203 229 208
f 204 209 230
f 204 230 231
f 204 231 232
f 204 232 233
f 204 233 234
f 204 234 205
f 208 229 228
f 208 228 209
f 209 228 227
f 209 227 235
f 209 235 230
f 210 236 211
f 211 237 238
f 211 238 239
f 211 239 212
f 211 236 237
f 212 239 240
f 212 240 216
f 212 216 215
f 212 215 213
f 213 215 214
f 216 240 241
f 216 241 217
f 217 242 218
f 217 241 242
f 218 242 243
f 218 243 219
f 219 243 220
f 220 243 244
f 220 244 245
f 220 245 221
f 221 245 246
f 221 246 250
f 221 250 224
f 222 223 247
f 222 247 225
f 223 224 248
f 223 248 249
f 223 249 247
f 224 250 248
f 225 247 251
f 225 251 226
f 226 251 252
f 226 252 227
f 227 252 235
f 230 235 253
f 230 253 231
f 231 253 254
f 231 254 255
f 231 255 256
f 231 256 257
f 231 257 258
f 231 258 259
f 231 259 233
f 231 233 232
f 235 252 260
f 235 260 253
f 236 261 237
f 237 261 262
f 237 262 238
f 238 262 263
f 238 263 264
f 238 264 265
f 238 265 266
f 238 266 267
f 238 267 239
f 239 267 240
f 240 267 241
f 241 268 269
f 241 269 242
f 241 267 270
f 241 270 271
f 241 271 268
f 242 272 273
f 242 273 243
f 242 269 272
f 243 273 272
f 243 272 274
f 243 274 244
f 244 274 272
f 244 272 269
f 244 269 245
f 245 269 246
f 246 269 275
f 246 275 276
f 246 276 250
f 247 277 278
f 247 278 279
f 247 279 251
f 247 249 277
f 248 250 280
f 248 280 249
f 249 278 277
f 249 280 278
f 250 276 281
f 250 281 282
f 250 282 280
f 251 279 278
f 251 278 280
f 251 280 252
f 252 280 283
f 252 283 284
f 252 284 285
f 252 285 260
f 253 285 286
f 253 286 287
f 253 287 255
f 253 255 254
f 253 260 285
f 265 288 267
f 265 267 266
f 267 288 289
f 267 289 290
f 267 290 270
f 268 271 269
f 269 271 291
f 269 291 275
f 270 290 271
f 271 292 291
f 271 290 293
f 271 293 294
f 271 294 295
f 271 295 292
f 275 291 296
f 275 296 297
f 275 297 298
f 275 298 276
f 276 298 299
f 276 299 300
f 276 300 281
f 280 282 301
f 280 301 284
f 280 284 283
f 281 300 302
f 281 302 303
f 281 303 282
f 282 304 301
f 282 303 305
f 282 305 306
f 282 306 304
f 284 301 307
f 284 307 308
f 284 308 309
f 284 309 310
f 284 310 285
f 285 310 286
f 291 292 295
f 291 295 311
f 291 311 312
f 291 312 296
f 296 312 297
f 301 304 306
f 301 306 313
f 301 313 314
f 301 314 308
f 301 308 307
