# ABC bottle geometry; canonical radius 1 and height 1, bottom z=0.
# https://github.com/mikedh/trimesh
v 0.14318342301 -0.19640163315 0.873363589098
v 0.14318342301 -0.327816431219 0.873363589098
v 0.14318342301 -0.19667679769 0.872616179772
v -0.250419496262 -0.0935991501587 0.841674132364
v -0.239479690967 -0.0935991501587 0.850792330192
v -0.229926581917 -0.0935991501587 0.861446052914
v -0.223917415615 -0.0935991501587 0.871012702277
v -0.223763267185 -0.0935991501587 0.871365994438
v -0.223146993278 -0.0935991501587 0.873295636498
v -0.223146993278 -0.0935991501587 0.873363589098
v -0.270989484821 -0.327816431219 0.873363589098
v 0.14318342301 -0.327816431219 0.781311944211
v 0.14318342301 -0.19720410045 0.871365994438
v -0.276613471936 -0.0935991501587 0.821521693086
v -0.264440990903 -0.0935991501587 0.830599135189
v -0.414208854477 -0.0935991501587 0.873363589098
v -0.300496244562 -0.300488025444 0.873363589098
v -0.553884409309 -0.327816431219 0.73455234057
v -0.328231000947 -0.327816431219 0.73455234057
v -0.453885061138 -0.0935991501587 0.73455234057
v 0.14318342301 -0.301840693902 0.793528448085
v -0.290480882109 -0.0935991501587 0.811982250496
v 0.14318342301 -0.204036201894 0.86147324979
v -0.362206146278 -0.0935991501587 0.772397584391
v -0.343485171327 -0.0935991501587 0.781923468131
v -0.34271474899 -0.0935991501587 0.782317525915
v -0.317522290373 -0.0935991501587 0.796083143223
v -0.307429917668 -0.0935991501587 0.801708987119
v -0.41382367529 -0.0959606273416 0.873363589098
v -0.643868395028 -0.0935991501587 0.73455234057
v -0.330157024808 -0.268505552382 0.873363589098
v -0.587320227024 -0.273480581005 0.73455234057
v -0.363824001204 -0.219213553907 0.873363589098
v -0.451342699408 -0.0935991501587 0.735503578007
v 0.14318342301 -0.219121832393 0.843929899401
v 0.14318342301 -0.222813015675 0.841429528734
v 0.14318342301 -0.235537232953 0.833276156884
v 0.14318342301 -0.279235178531 0.805378021772
v 0.14318342301 -0.284256067911 0.802225361563
v 0.14318342301 -0.210845340978 0.852817062346
v -0.3783847595 -0.0935991501587 0.764896502083
v -0.393330760945 -0.161553342503 0.873363589098
v -0.642866877971 -0.0988952040793 0.73455234057
v -0.638167397661 -0.122601185727 0.73455234057
v -0.629923910639 -0.159925573467 0.73455234057
v -0.617058145446 -0.203623519045 0.73455234057
v -0.612204516706 -0.219236452304 0.73455234057
v -0.369987251974 -0.209034192877 0.873363589098
v -0.382313881436 -0.188560786943 0.873363589098
v -0.43439366385 -0.0935991501587 0.741971921324
v 0.14318342301 -0.211945871217 0.851485355665
v -0.40827676239 -0.0935991501587 0.75231310761
v -0.407506340053 -0.0935991501587 0.752625673738
v -0.389555723477 -0.0935991501587 0.760126756045
v -0.389940966626 -0.170150795254 0.873363589098
f 1 2 12
f 1 12 21
f 1 21 39
f 1 39 38
f 1 38 37
f 1 37 36
f 1 36 35
f 1 35 51
f 1 51 40
f 1 40 23
f 1 23 13
f 1 13 3
f 1 3 4
f 1 4 5
f 1 5 6
f 1 6 7
f 1 7 8
f 1 8 9
f 1 9 10
f 1 10 16
f 1 16 29
f 1 29 42
f 1 42 55
f 1 55 49
f 1 49 48
f 1 48 33
f 1 33 31
f 1 31 17
f 1 17 11
f 1 11 2
f 2 11 18
f 2 18 19
f 2 19 12
f 3 13 14
f 3 14 15
f 3 15 4
f 4 15 14
f 4 14 22
f 4 22 28
f 4 28 27
f 4 27 26
f 4 26 25
f 4 25 24
f 4 24 41
f 4 41 54
f 4 54 53
f 4 53 52
f 4 52 50
f 4 50 34
f 4 34 20
f 4 20 30
f 4 30 16
f 4 16 10
f 4 10 9
f 4 9 8
f 4 8 7
f 4 7 6
f 4 6 5
f 11 17 18
f 12 19 20
f 12 20 21
f 13 22 14
f 13 23 24
f 13 24 25
f 13 25 26
f 13 26 27
f 13 27 28
f 13 28 22
f 16 30 29
f 17 31 18
f 18 32 47
f 18 47 46
f 18 46 45
f 18 45 44
f 18 44 43
f 18 43 30
f 18 30 20
f 18 20 19
f 18 31 33
f 18 33 32
f 20 34 35
f 20 35 36
f 20 36 37
f 20 37 38
f 20 38 39
f 20 39 21
f 23 40 41
f 23 41 24
f 29 30 43
f 29 43 44
f 29 44 45
f 29 45 46
f 29 46 47
f 29 47 42
f 32 33 48
f 32 48 49
f 32 49 47
f 34 50 35
f 35 50 52
f 35 52 53
f 35 53 51
f 40 51 41
f 41 51 54
f 42 47 55
f 47 49 55
f 51 53 54
