# ABC bottle geometry; canonical radius 1 and height 1, bottom z=0.
# https://github.com/mikedh/trimesh
v 0.327818126212 -0.0318089761271 0.797620231839
v 0.327818126212 0.328225788044 0.734548728175
v 0.327818126212 -0.0318089761271 0.873306077802
v 0.324091124209 -0.0318089761271 0.799768517774
v -0.397933082972 0.146829736946 0.873306077802
v -0.174547383495 0.766944242785 0.43725878299
v 0.327740476339 0.715440374255 0.43725878299
v 0.327818126212 0.553739887161 0.734548728175
v 0.24108820744 -0.0318089761271 0.873306077802
v 0.327818126212 0.271108678015 0.873306077802
v 0.327740476339 0.146829736946 0.996639780523
v 0.28775309453 0.146829736946 0.998788036768
v 0.223307473946 0.146829736946 0.999063528843
v -0.236974299275 0.146829736946 0.999449085128
v 0.315860749398 -0.0318089761271 0.804726118211
v 0.304679807349 -0.0318089761271 0.811942167765
v 0.29078124768 -0.0318089761271 0.821857329052
v 0.278280385719 -0.0318089761271 0.831772510133
v 0.266555894561 -0.0318089761271 0.841632574984
v -0.465406920668 0.146829736946 0.930703895613
v -0.174547383495 0.947355534872 0.43725878299
v 0.327740476339 0.906093390325 0.43725878299
v 0.327740476339 0.305871323538 0.977305217003
v 0.327740476339 0.913479210836 0.475542373538
v 0.327740476339 0.914070027866 0.479012686917
v 0.327740476339 0.915153224402 0.485732957622
v 0.327740476339 0.91544872886 0.495482888984
v 0.327740476339 0.913577584398 0.505232800552
v 0.327740476339 0.912199011329 0.50870311393
v 0.327740476339 0.909539982904 0.515147971736
v 0.327740476339 0.908062908348 0.517902189803
v 0.327740476339 0.90412380834 0.525008066279
v 0.327740476339 0.897427370306 0.53492324736
v 0.327740476339 0.892404817914 0.541368105165
v 0.327740476339 0.803873409303 0.644596072413
v -0.287754309808 0.146829736946 0.998788036768
v -0.299090551603 0.146829736946 0.998237250557
v -0.333953361624 0.146829736946 0.996309261291
v -0.340553153069 0.146829736946 0.995703368748
v -0.365943190317 0.146829736946 0.992288141908
v -0.393895545439 0.146829736946 0.98733054147
v -0.399796615955 0.146829736946 0.985457678332
v -0.415480994772 0.146829736946 0.980004328737
v -0.457952980622 0.146829736946 0.938470800656
v 0.241709406422 -0.0318089761271 0.871323051483
v 0.327740476339 0.29553116203 0.98027976143
v 0.327740476339 0.267957398008 0.986944955494
v 0.327740476339 0.265790877013 0.98722037829
v 0.327740476339 0.228566269999 0.99140678698
v 0.327740476339 0.201189444988 0.994326264663
v 0.327740476339 0.17765328246 0.995813502237
v 0.327740476339 0.160025737965 0.996364357727
v 0.28775309453 0.160025737965 0.998567769789
v 0.22377330922 0.223937787513 0.999173662332
v 0.22377330922 0.160025737965 0.999449085128
v 0.0319116031623 0.287948402509 0.999999940618
v -0.0320681821478 0.287948402509 0.999999940618
v -0.22377458846 0.223937787513 0.999173662332
v 0.258092570132 -0.0318089761271 0.849619806388
v 0.247532763103 -0.0318089761271 0.860636678654
v -0.448635507594 0.194099064972 0.936157255104
v -0.461835218409 0.160025737965 0.930703895613
v -0.155757201655 0.950900692898 0.43725878299
v -0.174547383495 0.954741355383 0.476313545492
v 0.32230530506 0.908062908348 0.43725878299
v 0.320364122205 0.320446025551 0.975542526941
v 0.309804379137 0.309908925033 0.982097547928
v 0.28775309453 0.920569590852 0.43725878299
v 0.28775309453 0.927758472353 0.475542373538
v 0.28775309453 0.929334048394 0.485457544723
v 0.28775309453 0.927856845915 0.505232800552
v 0.28775309453 0.929629552852 0.495317629368
v 0.28775309453 0.923819308383 0.515147971736
v 0.28775309453 0.918403069857 0.525008066279
v 0.28775309453 0.911706631823 0.53492324736
v 0.320907671314 0.895851666341 0.54037657716
v 0.26624529507 0.835189398286 0.641952027424
v 0.287675444657 0.824258291824 0.644651149055
v 0.205759562145 0.3915469566 0.980224694686
v 0.237749518762 0.372245334577 0.980224694686
v -0.287754309808 0.160025737965 0.998567769789
v -0.331623993367 0.160025737965 0.996199117905
v -0.323238254849 0.197545785475 0.995427936054
v -0.36361382206 0.160025737965 0.991847449599
v -0.391876776673 0.160025737965 0.986944955494
v -0.411210507622 0.160025737965 0.980224694686
v 0.267177093542 0.32911204557 0.986834782416
v 0.287131895549 0.287357521517 0.990139846076
v 0.307086761517 0.240186631015 0.993444909735
v 0.323237039571 0.197545785475 0.995427936054
v 0.286588410402 0.220885008992 0.996639780523
v 0.264459475922 0.26460911503 0.995758405802
v 0.220745156071 0.286766640525 0.996639780523
v 0.15979352391 0.287948402509 0.998567769789
v 0.0958137385998 0.287948402509 0.999559278
v 0.0958137385998 0.342997429066 0.996970309652
v 0.0255446973728 0.356488870581 0.996805010448
v -0.0958926677125 0.287948402509 0.999559278
v -0.0257012123963 0.356488870581 0.996805010448
v -0.0958926677125 0.342997429066 0.996970309652
v -0.159717153277 0.287948402509 0.998567769789
v -0.220746371349 0.286766640525 0.996639780523
v -0.264460755162 0.26460911503 0.995758405802
v -0.28658962568 0.220885008992 0.996639780523
v -0.400650700592 0.279577759024 0.930703895613
v -0.43271824312 0.227384508016 0.930703895613
v -0.174547383495 0.9452874514 0.525008066279
v -0.174547383495 0.950605252402 0.515147971736
v -0.449179056703 0.195477765966 0.930703895613
v -0.391410877437 0.205916364998 0.980224694686
v -0.372154860323 0.238020173982 0.980224694686
v -0.174547383495 0.956513934396 0.495317629368
v -0.174547383495 0.9562184939 0.485457544723
v -0.0958926677125 0.957695632418 0.43725878299
v -0.138442303435 0.961339355892 0.475542373538
v -0.0958926677125 0.96695259739 0.475542373538
v 0.288141343894 0.336596367567 0.979343339758
v 0.22377330922 0.937803129403 0.43725878299
v 0.22377330922 0.945188949914 0.475542373538
v 0.22377330922 0.946764589918 0.485457544723
v 0.22377330922 0.947158595862 0.495317629368
v 0.22377330922 0.9452874514 0.505232800552
v 0.22377330922 0.941348351392 0.515147971736
v 0.22377330922 0.936030486428 0.525008066279
v 0.22377330922 0.929531051366 0.53492324736
v 0.22377330922 0.921948227883 0.544838418544
v 0.229752029608 0.842476653349 0.644651149055
v 0.255064416983 0.831250170353 0.648562134948
v 0.15979352391 0.411439523577 0.980224694686
v 0.19434573444 0.385145895101 0.985457678332
v -0.307088040757 0.240186631015 0.993444909735
v -0.347463607968 0.217438288489 0.989423760661
v -0.385043971647 0.194492942992 0.985457678332
v 0.217173453812 0.347625911553 0.989423760661
v 0.240001173185 0.307250024532 0.993444909735
v 0.197373887589 0.323400366548 0.995427936054
v 0.15979352391 0.331770946071 0.996199117905
v 0.0958137385998 0.374904235078 0.993885572354
v 0.0426266459751 0.381009856082 0.99471185064
v -6.39620038731e-07 0.383767258069 0.995042350078
v -0.000155939365443 0.383767258069 0.995042350078
v -0.0428608748333 0.381009856082 0.99471185064
v -0.0958926677125 0.374904235078 0.993885572354
v -0.159717153277 0.331770946071 0.996199117905
v -0.19737516683 0.323400366548 0.995427936054
v -0.240002452425 0.307250024532 0.993444909735
v -0.287133174789 0.287357521517 0.990139846076
v -0.320365401445 0.320446025551 0.975542526941
v -0.376813532875 0.31138606355 0.930703895613
v -0.174547383495 0.85567271833 0.64393506364
v -0.174547383495 0.931402131866 0.544838418544
v -0.174547383495 0.938886389901 0.53492324736
v -0.174547383495 0.943810376845 0.527321601933
v -0.15979480315 0.948044789425 0.525008066279
v -0.156067801146 0.954150410429 0.515147971736
v -0.132153047518 0.960157657871 0.511898014409
v -0.174547383495 0.954445914887 0.505948905761
v -0.174547383495 0.954642789935 0.505232800552
v -0.328984025619 0.267366517017 0.986834782416
v -0.336515615537 0.288342280529 0.979343339758
v -0.170742795581 0.955430673899 0.505232800552
v -0.143722174969 0.962225613418 0.495317629368
v -0.142790440458 0.962028610446 0.485457544723
v -0.0319905322751 0.97227033443 0.475542373538
v -0.0319905322751 0.969709935415 0.46562718256
v -0.0319905322751 0.966460217885 0.455712021273
v -0.0326116672947 0.959763651927 0.43725878299
v -0.0958926677125 0.968528237394 0.485457544723
v 0.155755986377 0.950900692898 0.43725878299
v 0.170508566723 0.955332172413 0.475542373538
v 0.174779117835 0.9562184939 0.485457544723
v 0.175710852346 0.956317059348 0.495317629368
v 0.170741516341 0.955430673899 0.505232800552
v 0.132229418151 0.960157657871 0.511898014409
v 0.156066521906 0.954150410429 0.515147971736
v 0.159871173783 0.948044789425 0.525008066279
v 0.159871173783 0.941643727926 0.53492324736
v 0.159871173783 0.934257907415 0.544838418544
v 0.159871173783 0.859217876357 0.643769804024
v 0.064522694799 0.447876246627 0.975322160993
v 0.0898350821737 0.433892425606 0.979233146887
v 0.15979352391 0.392039400068 0.986944955494
v 0.15979352391 0.363776253569 0.991847449599
v 0.0958137385998 0.401690179098 0.988928011504
v 0.0255446973728 0.40228106009 0.990855931491
v -0.0257012123963 0.40228106009 0.990855931491
v -0.0958926677125 0.401690179098 0.988928011504
v -0.159717153277 0.392039400068 0.986944955494
v -0.159717153277 0.363776253569 0.991847449599
v -0.194346949718 0.385145895101 0.985457678332
v -0.21709708318 0.347625911553 0.989423760661
v -0.26717830882 0.32911204557 0.986834782416
v -0.309805658377 0.309908925033 0.982097547928
v -0.288220209044 0.336596367567 0.979343339758
v -0.23775073404 0.372245334577 0.980224694686
v -0.15979480315 0.859217876357 0.643769804024
v -0.205760841385 0.3915469566 0.980224694686
v -0.159717153277 0.411439523577 0.980224694686
v -0.0646792098225 0.447876246627 0.975322160993
v -0.15979480315 0.934257907415 0.544838418544
v -0.15979480315 0.941643727926 0.53492324736
v -0.121670890361 0.958582017867 0.518453035395
v -0.0986102213711 0.962914995896 0.515147971736
v -0.0958926677125 0.967149472438 0.505232800552
v -0.138752902926 0.961339355892 0.505232800552
v -0.0958926677125 0.968922051452 0.495317629368
v 0.031989253035 0.97227033443 0.475542373538
v -0.0319905322751 0.973846038396 0.485457544723
v 0.031989253035 0.969709935415 0.46562718256
v 0.031989253035 0.966460217885 0.455712021273
v 0.0325328021439 0.959763651927 0.43725878299
v 0.142633925435 0.95277183736 0.43725878299
v 0.13851873803 0.961339355892 0.475542373538
v 0.142866811091 0.962028610446 0.485457544723
v 0.143720959691 0.962225613418 0.495317629368
v 0.138751623686 0.961339355892 0.505232800552
v 0.098609006093 0.962914995896 0.515147971736
v 0.121669675083 0.958582017867 0.518453035395
v 0.0958913884725 0.967149472438 0.505232800552
v 0.098609006093 0.95710487935 0.525889421206
v 0.0958913884725 0.951393072404 0.53492324736
v 0.0958913884725 0.943810376845 0.544838418544
v 0.0958913884725 0.866111381324 0.643769804024
v 0.0319116031623 0.449353449106 0.976093342843
v 0.0319116031623 0.438816284626 0.981050943281
v -0.0320681821478 0.438816284626 0.981050943281
v -0.0898362974518 0.433892425606 0.979233146887
v -0.0958926677125 0.866111381324 0.643769804024
v -0.0958926677125 0.943810376845 0.544838418544
v -0.0958926677125 0.951393072404 0.53492324736
v -0.0320681821478 0.449353449106 0.976093342843
v -0.0986102213711 0.95710487935 0.525889421206
v -0.0790436047663 0.961142416883 0.523190289678
v -0.0319905322751 0.968528237394 0.515147971736
v -0.0319905322751 0.972467337402 0.505232800552
v -0.0319905322751 0.974239916416 0.495317629368
v 0.0958913884725 0.96695259739 0.475542373538
v 0.0996960403488 0.957498693408 0.43725878299
v 0.031989253035 0.973846038396 0.485457544723
v 0.0658426147109 0.959566776879 0.43725878299
v 0.0958913884725 0.968528237394 0.485457544723
v 0.0958913884725 0.968922051452 0.495317629368
v 0.031989253035 0.968528237394 0.515147971736
v 0.0790423255262 0.961142416883 0.523190289678
v 0.031989253035 0.972467337402 0.505232800552
v 0.0615721275603 0.959172834897 0.529800397203
v 0.0369585890399 0.956907876378 0.534702901205
v 0.031989253035 0.949128113885 0.544838418544
v -0.0319905322751 0.949128113885 0.544838418544
v -0.036959804318 0.956907876378 0.534702901205
v -0.0616510566731 0.959172834897 0.529800397203
v -0.036959804318 0.962718120848 0.525889421206
v -0.0189461212052 0.960256031433 0.531287674365
v 0.031989253035 0.974239916416 0.495317629368
v 0.0190224918379 0.960256031433 0.531287674365
v 0.0369585890399 0.962718120848 0.525889421206
f 1 2 8
f 1 8 10
f 1 10 3
f 1 3 9
f 1 9 45
f 1 45 60
f 1 60 59
f 1 59 19
f 1 19 18
f 1 18 17
f 1 17 16
f 1 16 15
f 1 15 4
f 1 4 5
f 1 5 6
f 1 6 7
f 1 7 2
f 2 7 22
f 2 22 8
f 3 10 11
f 3 11 12
f 3 12 13
f 3 13 14
f 3 14 9
f 4 15 5
f 5 15 16
f 5 16 17
f 5 17 18
f 5 18 19
f 5 19 20
f 5 20 6
f 6 21 63
f 6 63 114
f 6 114 167
f 6 167 211
f 6 211 240
f 6 240 238
f 6 238 212
f 6 212 169
f 6 169 118
f 6 118 68
f 6 68 65
f 6 65 22
f 6 22 7
f 6 20 21
f 8 23 10
f 8 22 24
f 8 24 25
f 8 25 26
f 8 26 27
f 8 27 28
f 8 28 29
f 8 29 30
f 8 30 31
f 8 31 32
f 8 32 33
f 8 33 34
f 8 34 35
f 8 35 23
f 9 14 36
f 9 36 37
f 9 37 38
f 9 38 39
f 9 39 40
f 9 40 41
f 9 41 42
f 9 42 43
f 9 43 44
f 9 44 20
f 9 20 45
f 10 23 46
f 10 46 47
f 10 47 48
f 10 48 49
f 10 49 50
f 10 50 51
f 10 51 52
f 10 52 11
f 11 52 53
f 11 53 12
f 12 53 54
f 12 54 55
f 12 55 13
f 13 55 14
f 14 55 56
f 14 56 57
f 14 57 58
f 14 58 36
f 19 59 20
f 20 59 60
f 20 60 45
f 20 44 61
f 20 61 62
f 20 62 21
f 21 62 64
f 21 64 63
f 22 65 24
f 23 66 67
f 23 67 46
f 23 35 66
f 24 65 68
f 24 68 69
f 24 69 25
f 25 69 26
f 26 69 70
f 26 70 27
f 27 71 28
f 27 70 72
f 27 72 71
f 28 71 29
f 29 73 30
f 29 71 73
f 30 73 31
f 31 73 74
f 31 74 32
f 32 74 75
f 32 75 33
f 33 75 76
f 33 76 34
f 34 76 77
f 34 77 78
f 34 78 35
f 35 78 79
f 35 79 80
f 35 80 66
f 36 58 81
f 36 81 37
f 37 81 82
f 37 82 38
f 38 82 39
f 39 82 83
f 39 83 40
f 40 84 85
f 40 85 41
f 40 83 84
f 41 85 42
f 42 85 86
f 42 86 43
f 43 86 61
f 43 61 44
f 46 67 47
f 47 67 87
f 47 87 88
f 47 88 89
f 47 89 48
f 48 89 49
f 49 89 50
f 50 90 51
f 50 89 90
f 51 90 53
f 51 53 52
f 53 91 54
f 53 90 91
f 54 91 92
f 54 92 93
f 54 93 94
f 54 94 95
f 54 95 56
f 54 56 55
f 56 95 96
f 56 96 97
f 56 97 99
f 56 99 57
f 57 98 58
f 57 99 100
f 57 100 98
f 58 98 101
f 58 101 102
f 58 102 103
f 58 103 104
f 58 104 81
f 61 105 106
f 61 106 107
f 61 107 108
f 61 108 109
f 61 109 62
f 61 86 110
f 61 110 111
f 61 111 105
f 62 109 112
f 62 112 113
f 62 113 64
f 63 64 115
f 63 115 116
f 63 116 114
f 64 113 115
f 66 80 117
f 66 117 67
f 67 117 87
f 68 118 119
f 68 119 69
f 69 119 120
f 69 120 70
f 70 120 121
f 70 121 72
f 71 122 123
f 71 123 73
f 71 72 121
f 71 121 122
f 73 123 124
f 73 124 74
f 74 124 125
f 74 125 75
f 75 125 126
f 75 126 77
f 75 77 76
f 77 126 127
f 77 127 128
f 77 128 78
f 78 128 129
f 78 129 79
f 79 129 130
f 79 130 80
f 80 130 87
f 80 87 117
f 81 104 83
f 81 83 82
f 83 104 103
f 83 103 131
f 83 131 132
f 83 132 133
f 83 133 84
f 84 133 85
f 85 133 86
f 86 133 110
f 87 130 134
f 87 134 135
f 87 135 88
f 88 135 92
f 88 92 89
f 89 92 90
f 90 92 91
f 92 136 93
f 92 135 136
f 93 136 94
f 94 136 137
f 94 137 96
f 94 96 95
f 96 137 138
f 96 138 139
f 96 139 140
f 96 140 97
f 97 140 141
f 97 141 99
f 98 100 101
f 99 141 100
f 100 141 142
f 100 142 143
f 100 143 144
f 100 144 101
f 101 144 145
f 101 145 102
f 102 145 103
f 103 145 146
f 103 146 147
f 103 147 131
f 105 111 148
f 105 148 149
f 105 149 150
f 105 150 151
f 105 151 152
f 105 152 106
f 106 152 153
f 106 153 107
f 107 153 154
f 107 154 155
f 107 155 108
f 108 155 156
f 108 156 157
f 108 157 109
f 109 157 158
f 109 158 112
f 110 133 111
f 111 133 159
f 111 159 160
f 111 160 148
f 112 158 161
f 112 161 162
f 112 162 113
f 113 163 115
f 113 162 163
f 114 116 164
f 114 164 165
f 114 165 166
f 114 166 167
f 115 163 168
f 115 168 116
f 116 168 208
f 116 208 164
f 118 169 119
f 119 169 170
f 119 170 171
f 119 171 120
f 120 171 121
f 121 172 173
f 121 173 122
f 121 171 172
f 122 173 174
f 122 174 123
f 123 174 175
f 123 175 124
f 124 175 176
f 124 176 177
f 124 177 125
f 125 177 178
f 125 178 179
f 125 179 126
f 126 179 127
f 127 179 180
f 127 180 128
f 128 180 129
f 129 180 181
f 129 181 182
f 129 182 130
f 130 182 183
f 130 183 136
f 130 136 134
f 131 147 159
f 131 159 132
f 132 159 133
f 134 136 135
f 136 138 137
f 136 183 138
f 138 183 182
f 138 182 184
f 138 184 139
f 139 184 185
f 139 185 140
f 140 185 186
f 140 186 141
f 141 186 142
f 142 186 187
f 142 187 143
f 143 145 144
f 143 187 188
f 143 188 189
f 143 189 145
f 145 189 190
f 145 190 191
f 145 191 146
f 146 191 192
f 146 192 147
f 147 192 159
f 148 160 193
f 148 193 194
f 148 194 195
f 148 195 150
f 148 150 149
f 150 196 151
f 150 195 197
f 150 197 198
f 150 198 199
f 150 199 196
f 151 200 152
f 151 196 200
f 152 200 201
f 152 201 153
f 153 201 154
f 154 201 202
f 154 202 155
f 155 202 156
f 156 202 203
f 156 203 204
f 156 204 205
f 156 205 161
f 156 161 157
f 157 161 158
f 159 192 193
f 159 193 160
f 161 205 162
f 162 205 206
f 162 206 163
f 163 206 168
f 164 207 209
f 164 209 165
f 164 208 239
f 164 239 207
f 165 209 210
f 165 210 166
f 166 210 211
f 166 211 167
f 168 206 236
f 168 236 208
f 169 212 213
f 169 213 170
f 170 213 171
f 171 214 215
f 171 215 172
f 171 213 214
f 172 215 216
f 172 216 173
f 173 216 174
f 174 217 218
f 174 218 175
f 174 216 219
f 174 219 217
f 175 218 176
f 176 218 177
f 177 218 220
f 177 220 221
f 177 221 178
f 178 221 179
f 179 221 222
f 179 222 223
f 179 223 180
f 180 224 225
f 180 225 181
f 180 223 224
f 181 225 184
f 181 184 182
f 184 225 185
f 185 225 226
f 185 226 186
f 186 226 187
f 187 226 227
f 187 227 188
f 188 227 198
f 188 198 190
f 188 190 189
f 190 198 197
f 190 197 195
f 190 195 192
f 190 192 191
f 192 195 194
f 192 194 193
f 196 228 229
f 196 229 230
f 196 230 200
f 196 199 228
f 198 227 199
f 199 227 226
f 199 226 231
f 199 231 228
f 200 230 201
f 201 230 232
f 201 232 202
f 202 233 203
f 202 232 233
f 203 233 234
f 203 234 204
f 204 206 205
f 204 234 235
f 204 235 236
f 204 236 206
f 207 237 238
f 207 238 209
f 207 239 241
f 207 241 237
f 208 236 254
f 208 254 239
f 209 238 240
f 209 240 210
f 210 240 211
f 212 238 237
f 212 237 213
f 213 237 241
f 213 241 214
f 214 241 242
f 214 242 215
f 215 242 216
f 216 242 219
f 217 243 244
f 217 244 218
f 217 219 243
f 218 244 220
f 219 242 254
f 219 254 245
f 219 245 243
f 220 246 221
f 220 244 246
f 221 246 222
f 222 246 223
f 223 246 247
f 223 247 248
f 223 248 249
f 223 249 228
f 223 228 231
f 223 231 224
f 224 231 226
f 224 226 225
f 228 249 250
f 228 250 251
f 228 251 229
f 229 251 230
f 230 251 232
f 232 251 233
f 233 251 234
f 234 251 252
f 234 252 253
f 234 253 255
f 234 255 243
f 234 243 245
f 234 245 235
f 235 245 254
f 235 254 236
f 239 254 242
f 239 242 241
f 243 255 256
f 243 256 246
f 243 246 244
f 246 256 255
f 246 255 247
f 247 255 248
f 248 255 253
f 248 253 249
f 249 253 250
f 250 253 251
f 251 253 252
