# ABC bottle geometry; canonical radius 1 and height 1, bottom z=0.
# https://github.com/mikedh/trimesh
v 0.566566475627 0.0533240672559 0.690778108641
v 0.327841472344 0.616448043872 0.602650810558
v 0.566566475627 0.408519594138 0.602650810558
v 0.566566475627 0.0533240672559 0.765473129284
v 0.428192483612 0.0533240672559 0.746937449235
v 0.327841472344 0.812779414761 0.602650810558
v 0.414404130475 0.0533240672559 0.752593132498
v 0.408514892931 0.0533240672559 0.755067523616
v 0.388323175662 0.0533240672559 0.763771988483
v 0.370725501422 0.0533240672559 0.771968342877
v 0.364275381066 0.0533240672559 0.77523804466
v 0.350720745091 0.0533240672559 0.782285588391
v 0.344831507546 0.0533240672559 0.785555280277
v 0.333333441882 0.0533240672559 0.791984213857
v 0.327841472344 0.0533240672559 0.795806245778
v 0.566566475627 0.668783290529 0.602650810558
v 0.566566475627 0.0913860648246 0.764766158979
v 0.454927769725 0.0533240672559 0.828326523508
v 0.351375140353 0.803709922422 0.602650810558
v 0.327841472344 0.807426946353 0.633867617665
v 0.327841472344 0.0533240672559 0.828326523508
v 0.554227053764 0.679265191838 0.602650810558
v 0.566566475627 0.667519465295 0.633867617665
v 0.566566475627 0.0959951668237 0.76465569889
v 0.451375511916 0.081350170569 0.828326523508
v 0.406084400745 0.778880448176 0.602650810558
v 0.327841472344 0.803858634081 0.644582513563
v 0.327841472344 0.322062473313 0.828326523508
v 0.547216050595 0.685212314996 0.602650810558
v 0.549833503718 0.681718390535 0.633867617665
v 0.566566475627 0.66647873953 0.639214020595
v 0.566566475627 0.145356755959 0.760170916329
v 0.448197175981 0.0980766183538 0.828326523508
v 0.437844222073 0.762079676543 0.602650810558
v 0.357895363065 0.788544659227 0.644538333486
v 0.51667144338 0.70714251953 0.643765102963
v 0.512137624659 0.703871630576 0.648846385843
v 0.327841472344 0.789585384992 0.653662578363
v 0.343335820048 0.782225724941 0.653662578363
v 0.327841472344 0.772412930154 0.661770542912
v 0.328355598931 0.321467690639 0.828326523508
v 0.566566475627 0.58909098312 0.670894787789
v 0.566566475627 0.613846133517 0.663560053764
v 0.566566475627 0.631910730385 0.658147360925
v 0.566566475627 0.637634818035 0.656291589854
v 0.540742584107 0.669080585923 0.652756777918
v 0.330365476978 0.773676691427 0.660864762261
v 0.545883977903 0.686327428572 0.602650810558
v 0.517839901266 0.70803466156 0.633867617665
v 0.548641635738 0.680677600808 0.643765102963
v 0.521976451981 0.706250505424 0.602650810558
v 0.518657847372 0.709001127439 0.602650810558
v 0.566566475627 0.665512337613 0.643765102963
v 0.566566475627 0.155243938555 0.759110475717
v 0.445112352497 0.111903860389 0.828326523508
v 0.566566475627 0.16684095344 0.757784895261
v 0.483789792467 0.732789811957 0.602650810558
v 0.566566475627 0.652056778783 0.650989357105
v 0.327841472344 0.774197022329 0.661041492466
v 0.355348012299 0.28957597966 0.828326523508
v 0.566566475627 0.569836948828 0.676307470731
v 0.430225643829 0.159481293388 0.828326523508
v 0.566566475627 0.216871649097 0.751355961681
v 0.566566475627 0.235084893662 0.748925780331
v 0.364041663904 0.278648007336 0.828326523508
v 0.566566475627 0.566566059874 0.677213271177
v 0.419802587564 0.182303639952 0.828326523508
v 0.566566475627 0.256494767294 0.745170048216
v 0.566566475627 0.275823061473 0.741370126127
v 0.566566475627 0.426807226513 0.71139047994
v 0.382877898386 0.254413251802 0.828326523508
v 0.566566475627 0.500923966045 0.694136180475
v 0.399423909358 0.22556939427 0.828326523508
v 0.566566475627 0.450372939486 0.706353387034
v 0.393487915589 0.236051295578 0.828326523508
v 0.566566475627 0.468809155597 0.70204532478
f 1 2 3
f 1 3 16
f 1 16 23
f 1 23 31
f 1 31 53
f 1 53 58
f 1 58 45
f 1 45 44
f 1 44 43
f 1 43 42
f 1 42 61
f 1 61 66
f 1 66 72
f 1 72 76
f 1 76 74
f 1 74 70
f 1 70 69
f 1 69 68
f 1 68 64
f 1 64 63
f 1 63 56
f 1 56 54
f 1 54 32
f 1 32 24
f 1 24 17
f 1 17 4
f 1 4 18
f 1 18 21
f 1 21 15
f 1 15 14
f 1 14 13
f 1 13 12
f 1 12 11
f 1 11 10
f 1 10 9
f 1 9 8
f 1 8 7
f 1 7 5
f 1 5 2
f 2 6 19
f 2 19 26
f 2 26 34
f 2 34 57
f 2 57 52
f 2 52 51
f 2 51 48
f 2 48 29
f 2 29 22
f 2 22 16
f 2 16 3
f 2 5 7
f 2 7 8
f 2 8 9
f 2 9 10
f 2 10 11
f 2 11 12
f 2 12 13
f 2 13 14
f 2 14 15
f 2 15 21
f 2 21 28
f 2 28 40
f 2 40 59
f 2 59 38
f 2 38 27
f 2 27 20
f 2 20 6
f 4 17 18
f 6 20 19
f 16 22 23
f 17 24 18
f 18 25 33
f 18 33 55
f 18 55 62
f 18 62 67
f 18 67 73
f 18 73 75
f 18 75 71
f 18 71 65
f 18 65 60
f 18 60 41
f 18 41 28
f 18 28 21
f 18 24 25
f 19 20 26
f 20 27 26
f 22 29 30
f 22 30 23
f 23 30 31
f 24 32 25
f 25 32 33
f 26 27 35
f 26 35 36
f 26 36 34
f 27 37 35
f 27 38 39
f 27 39 37
f 28 41 42
f 28 42 43
f 28 43 44
f 28 44 45
f 28 45 46
f 28 46 37
f 28 37 47
f 28 47 40
f 29 48 30
f 30 49 36
f 30 36 50
f 30 50 31
f 30 48 51
f 30 51 52
f 30 52 49
f 31 50 53
f 32 54 33
f 33 54 56
f 33 56 55
f 34 36 49
f 34 49 57
f 35 37 36
f 36 37 50
f 37 46 58
f 37 58 53
f 37 53 50
f 37 39 47
f 38 59 47
f 38 47 39
f 40 47 59
f 41 60 42
f 42 60 61
f 45 58 46
f 49 52 57
f 55 56 63
f 55 63 64
f 55 64 62
f 60 65 61
f 61 65 66
f 62 64 68
f 62 68 69
f 62 69 70
f 62 70 67
f 65 71 66
f 66 71 72
f 67 70 73
f 70 74 73
f 71 75 76
f 71 76 72
f 73 74 76
f 73 76 75
