# ABC bottle geometry; canonical radius 1 and height 1, bottom z=0.
# https://github.com/mikedh/trimesh
v 0.327768939431 0.906115137406 0.437239662043
v 0.322358521448 0.908093738034 0.437239662043
v 0.327768939431 0.71558671932 0.437239662043
v 0.327768939431 0.934352187408 0.419221534177
v 0.257088558557 0.959827422045 0.421249047379
v 0.287780662154 0.920625237795 0.437239662043
v -0.174617485852 0.767031870731 0.437239662043
v 0.327768939431 0.590065572173 0.275554732875
v 0.327768939431 0.939092731325 0.416103750893
v 0.295306175682 0.950717313833 0.416103750893
v 0.26333521578 0.961970980681 0.416103750893
v 0.223838806312 0.970297810193 0.416103750893
v 0.15989695047 0.98184000964 0.416103750893
v 0.223838806312 0.962960280995 0.422587978848
v 0.155814447649 0.950964654902 0.437239662043
v 0.223838806312 0.93781483445 0.437239662043
v 0.279074729845 0.922974945969 0.437239662043
v -0.174617485852 0.947378433269 0.437239662043
v -0.174617485852 0.644684774064 0.267176877937
v 0.327768939431 0.576792049205 0.257766135553
v 0.327768939431 0.583593704735 0.266909095602
v 0.327768939431 0.941772227592 0.406214826476
v 0.299044307074 0.952036466201 0.406214826476
v 0.267073347172 0.963248877556 0.406214826476
v 0.223838806312 0.972853667906 0.406214826476
v 0.15989695047 0.984436994921 0.406214826476
v 0.0959058438853 0.986003488358 0.416103750893
v 0.0997423488396 0.957560288818 0.437239662043
v 0.142681769014 0.952819680939 0.437239662043
v -0.168272455067 0.948615074652 0.437239662043
v -0.174617485852 0.977470509307 0.417595689529
v -0.174617485852 0.638666397234 0.257766135553
v 0.327768939431 0.571639334135 0.250478560593
v 0.327768939431 0.93835077208 0.400820858705
v 0.262105546255 0.961558745566 0.399022876046
v 0.15989695047 0.978459809621 0.396306761316
v 0.0959058438853 0.982540777354 0.396306761316
v 0.0959058438853 0.988353068608 0.406214826476
v -0.0959197876022 0.986003488358 0.416103750893
v 0.0326034161962 0.959868677537 0.437239662043
v 0.0658531684416 0.959580080976 0.437239662043
v -0.155828391366 0.950964654902 0.437239662043
v -0.159861707406 0.98184000964 0.416103750893
v -0.174617485852 0.979160577336 0.416103750893
v -0.174617485852 0.632441806903 0.247877201238
v 0.327768939431 0.568795007785 0.245907090466
v 0.327768939431 0.935382807177 0.396191996045
v 0.250202537144 0.958343439593 0.392423872922
v 0.226888322771 0.966010692921 0.395962465501
v 0.285173826724 0.950387525741 0.395962465501
v 0.287780662154 0.790116205662 0.241852054164
v 0.223838806312 0.810727257829 0.241852054164
v 0.159946073289 0.825567210271 0.241852054164
v 0.134172583828 0.830142860142 0.241852054164
v 0.128860539407 0.831668034125 0.242674522117
v 0.117596894487 0.832162716262 0.241852054164
v 0.0959058438853 0.834265083368 0.241852054164
v -0.0959197876022 0.982540777354 0.396306761316
v -0.0681788269024 0.834842148567 0.241852054164
v -0.0959197876022 0.988353068608 0.406214826476
v -0.159861707406 0.984436994921 0.406214826476
v -0.0959197876022 0.957725182864 0.437239662043
v -0.0325681731321 0.959868677537 0.437239662043
v -0.174617485852 0.981757562617 0.406214826476
v -0.174617485852 0.630009715668 0.241852054164
v 0.327768939431 0.56722857831 0.241852054164
v 0.327768939431 0.773998420306 0.241852054164
v 0.311832678242 0.780635117828 0.241852054164
v 0.203377425235 0.815673951284 0.241852054164
v -0.159861707406 0.978459809621 0.396306761316
v -0.0959197876022 0.834265083368 0.241852054164
v -0.174617485852 0.977181912746 0.398602076648
v -0.174617485852 0.822022116206 0.241852054164
v -0.174617485852 0.975739185786 0.396230257733
v -0.12518547455 0.831461948548 0.241852054164
v -0.134186527545 0.830142860142 0.241852054164
v -0.149237490639 0.827545810899 0.241852054164
v -0.159960017006 0.825567210271 0.241852054164
f 1 2 6
f 1 6 17
f 1 17 16
f 1 16 15
f 1 15 29
f 1 29 28
f 1 28 41
f 1 41 40
f 1 40 63
f 1 63 62
f 1 62 42
f 1 42 30
f 1 30 18
f 1 18 7
f 1 7 3
f 1 3 8
f 1 8 21
f 1 21 20
f 1 20 33
f 1 33 46
f 1 46 66
f 1 66 67
f 1 67 47
f 1 47 34
f 1 34 22
f 1 22 9
f 1 9 4
f 1 4 5
f 1 5 2
f 2 5 6
f 3 7 8
f 4 9 5
f 5 9 10
f 5 10 11
f 5 11 12
f 5 12 13
f 5 13 14
f 5 14 15
f 5 15 16
f 5 16 17
f 5 17 6
f 7 18 31
f 7 31 44
f 7 44 64
f 7 64 72
f 7 72 74
f 7 74 73
f 7 73 65
f 7 65 45
f 7 45 32
f 7 32 19
f 7 19 20
f 7 20 21
f 7 21 8
f 9 22 10
f 10 22 23
f 10 23 11
f 11 23 24
f 11 24 25
f 11 25 12
f 12 25 26
f 12 26 13
f 13 27 28
f 13 28 29
f 13 29 15
f 13 15 14
f 13 26 27
f 18 30 31
f 19 32 33
f 19 33 20
f 22 34 35
f 22 35 23
f 23 35 24
f 24 35 25
f 25 35 36
f 25 36 26
f 26 36 37
f 26 37 38
f 26 38 27
f 27 38 60
f 27 60 39
f 27 39 63
f 27 63 40
f 27 40 41
f 27 41 28
f 30 42 31
f 31 42 43
f 31 43 44
f 32 45 33
f 33 45 46
f 34 47 35
f 35 48 49
f 35 49 36
f 35 47 50
f 35 50 51
f 35 51 52
f 35 52 48
f 36 49 48
f 36 48 53
f 36 53 54
f 36 54 55
f 36 55 56
f 36 56 57
f 36 57 37
f 37 58 60
f 37 60 38
f 37 57 59
f 37 59 58
f 39 60 61
f 39 61 43
f 39 43 62
f 39 62 63
f 42 62 43
f 43 61 64
f 43 64 44
f 45 65 46
f 46 65 66
f 47 67 68
f 47 68 51
f 47 51 50
f 48 52 69
f 48 69 53
f 51 68 67
f 51 67 66
f 51 66 65
f 51 65 73
f 51 73 78
f 51 78 77
f 51 77 76
f 51 76 75
f 51 75 71
f 51 71 59
f 51 59 57
f 51 57 56
f 51 56 54
f 51 54 53
f 51 53 69
f 51 69 52
f 54 56 55
f 58 70 61
f 58 61 60
f 58 59 71
f 58 71 70
f 61 70 72
f 61 72 64
f 70 74 72
f 70 71 75
f 70 75 76
f 70 76 77
f 70 77 74
f 73 74 78
f 74 77 78
