# ABC bottle geometry; canonical radius 1 and height 1, bottom z=0.
# https://github.com/mikedh/trimesh
v 0.941774434281 -0.327877898705 0.406185719485
v 0.938969124753 -0.327877898705 0.416096615178
v 0.930425975744 -0.351797257597 0.416096615178
v 0.933103745036 -0.351797257597 0.406185719485
v 0.926855744611 -0.351797257597 0.396302822322
v 0.935271353385 -0.327877898705 0.396162839569
v 0.908366567962 -0.327877898705 0.458567871332
v 0.90721902565 -0.402674362452 0.416096615178
v 0.891662762726 -0.37390649178 0.458567871332
v 0.872918633529 -0.415797638673 0.458567871332
v 0.908494108198 -0.404549088785 0.406185719485
v 0.905433846122 -0.399894573764 0.396302822322
v 0.900078435462 -0.391555079775 0.386419925159
v 0.89650820433 -0.385866171226 0.380400597504
v 0.773077783204 -0.329946557834 0.241872016354
v 0.773842832732 -0.327877898705 0.241872016354
v 0.715697981225 -0.327877898705 0.458567871332
v 0.790036732873 -0.604307991575 0.416096615178
v 0.791566831929 -0.606182717909 0.406185719485
v 0.844738765559 -0.471523319269 0.458567871332
v 0.826377257069 -0.503458844221 0.458567871332
v 0.787996536835 -0.601722135683 0.396302822322
v 0.78200355292 -0.593899838457 0.386419925159
v 0.831860207965 -0.384314644898 0.321691134172
v 0.671069260567 -0.500355791565 0.241872016354
v 0.0416763624836 -0.840010534328 0.172551763359
v 0.0416763624836 -0.700502559946 0.172551763359
v -0.360874969054 -0.60107567171 0.172551763359
v 0.56702047793 -0.327877898705 0.241872016354
v -0.222525794296 -0.754094851865 0.458567871332
v 0.568550576987 -0.327877898705 0.248031336659
v -0.360874969054 -0.544121728753 0.237980468111
v -0.360874969054 -0.545737920667 0.241872016354
v 0.764534570232 -0.636243516527 0.416096615178
v 0.766192209525 -0.638182972409 0.406185719485
v 0.799472471646 -0.543733863161 0.458567871332
v 0.772440209949 -0.581940159011 0.458567871332
v 0.762366897921 -0.633657660635 0.396302822322
v 0.653982770662 -0.528865063855 0.241872016354
v -0.0763985840201 -0.844471180516 0.172551763359
v 0.626950508965 -0.560865254393 0.241872016354
v 0.594945329391 -0.595063499194 0.241872016354
v 0.560772413544 -0.627128355317 0.241872016354
v 0.52876723397 -0.65408610128 0.241872016354
v 0.329850518885 -0.773036367806 0.241872016354
v 0.385827762043 -0.896641277279 0.380400597504
v 0.351782386431 -0.926895944731 0.396302822322
v 0.262142388369 -0.961482055123 0.399018521379
v 0.226949406484 -0.965942701311 0.395966849859
v 0.159878785261 -0.978419577521 0.396302822322
v 0.0959959023868 -0.982492294155 0.396302822322
v -0.360874969054 -0.590667518591 0.178907043683
v -0.360874969054 -0.767088924838 0.172551763359
v -0.360874969054 -0.577608780033 0.188537963973
v -0.360874969054 -0.565067302199 0.198392862606
v -0.360874969054 -0.55414201628 0.208303778092
v -0.360874969054 -0.546901581403 0.217682711612
v -0.360874969054 -0.54347526478 0.228097551154
v -0.222525794296 -0.940277883295 0.458567871332
v -0.360874969054 -0.754030186279 0.241872016354
v 0.706389654764 -0.706450130838 0.414136826946
v 0.745662964762 -0.613875683963 0.458567871332
v 0.713657785188 -0.651564910973 0.458567871332
v 0.737884801319 -0.671540756478 0.406185719485
v 0.705369588726 -0.705351071726 0.399718435144
v 0.726153849998 -0.676324666634 0.396386808015
v -0.0975653380758 -0.845246975661 0.172551763359
v 0.700906703868 -0.700955091124 0.393139176476
v 0.676297130991 -0.726167377962 0.396386808015
v 0.633453589861 -0.762434281892 0.396302822322
v 0.601575886561 -0.788034498284 0.396302822322
v 0.593797723118 -0.781957660182 0.386419925159
v 0.579516542741 -0.770579779123 0.369117843121
v 0.384297599024 -0.831865101058 0.321691134172
v 0.391438189213 -0.900067465978 0.386419925159
v 0.39985392591 -0.905433174521 0.396302822322
v 0.351782386431 -0.933102050043 0.406185719485
v 0.298992945585 -0.951979028322 0.406185719485
v 0.288282060302 -0.955793146575 0.406185719485
v 0.267115242284 -0.963227514247 0.406185719485
v 0.223889144409 -0.972795270596 0.406185719485
v 0.159878785261 -0.984367020489 0.406185719485
v 0.0959959023868 -0.988310533876 0.406185719485
v -0.0957802225097 -0.982492294155 0.396302822322
v -0.340473264526 -0.778919273112 0.172551763359
v -0.222525794296 -0.973053868978 0.406185719485
v -0.222525794296 -0.970403347499 0.416096615178
v -0.158770451658 -0.952366829951 0.458567871332
v 0.703074440141 -0.703153081425 0.42074409404
v 0.651432541606 -0.713690501753 0.458567871332
v 0.677699753774 -0.728559301059 0.416880524532
v 0.636131231229 -0.764567606607 0.416096615178
v 0.638043950993 -0.766248464107 0.406185719485
v 0.671451689388 -0.737803857403 0.406185719485
v 0.707027228018 -0.707096530849 0.406185719485
v 0.68343772118 -0.683500435925 0.458567871332
v -0.155837729818 -0.837424678435 0.172551763359
v -0.159790581658 -0.978419577521 0.396302822322
v 0.606166311655 -0.791590082118 0.406185719485
v 0.404444287042 -0.908536227177 0.406185719485
v 0.402531695202 -0.907178633645 0.416096615178
v 0.351782386431 -0.930516258112 0.416096615178
v 0.288282060302 -0.955017415392 0.409181384048
v 0.263417470917 -0.961869984677 0.416096615178
v 0.223889144409 -0.970274016327 0.416096615178
v 0.159878785261 -0.981781164596 0.416096615178
v 0.0959959023868 -0.985918610779 0.416096615178
v -0.0957802225097 -0.988310533876 0.406185719485
v -0.159790581658 -0.984367020489 0.406185719485
v -0.28768382368 -0.801868840102 0.172551763359
v -0.222525794296 -0.966783162042 0.395966849859
v -0.159790581658 -0.981781164596 0.416096615178
v -0.141939042225 -0.955469946569 0.458567871332
v 0.6138168709 -0.745626090666 0.458567871332
v 0.604253591891 -0.790103157414 0.416096615178
v 0.581811691326 -0.772519235005 0.458567871332
v -0.163998386045 -0.836067148865 0.172551763359
v 0.503392611566 -0.82643472693 0.458567871332
v 0.471387431992 -0.844729778897 0.458567871332
v 0.415792745579 -0.872915851182 0.458567871332
v 0.288282060302 -0.953142625096 0.416096615178
v 0.373714190015 -0.891663434327 0.458567871332
v 0.364533467751 -0.895025085365 0.458567871332
v 0.341836550677 -0.903299849806 0.458567871332
v 0.304475896481 -0.91668178837 0.458567871332
v 0.287772027283 -0.9226292953 0.458567871332
v 0.257169470492 -0.959736659961 0.421248037888
v 0.223889144409 -0.940083950499 0.458567871332
v 0.158858719223 -0.952366829951 0.458567871332
v 0.123410720829 -0.958766932021 0.458567871332
v 0.091788034038 -0.96251644865 0.458567871332
v 0.0319855432388 -0.967364960429 0.458567871332
v -0.0957802225097 -0.985918610779 0.416096615178
v -0.262819234294 -0.8098204685 0.172551763359
v -0.224438450098 -0.821974080742 0.172551763359
v -0.189373072411 -0.831089369875 0.172551763359
v -0.184655171043 -0.832059033854 0.172551763359
v -0.0318973396355 -0.967364960429 0.458567871332
v -0.0710431093978 -0.964326509397 0.458567871332
v -0.0916998304346 -0.96251644865 0.458567871332
v -0.12319497699 -0.958766932021 0.458567871332
v 0.543685987602 -0.799412315381 0.458567871332
f 1 2 3
f 1 3 4
f 1 4 5
f 1 5 6
f 1 6 16
f 1 16 29
f 1 29 31
f 1 31 17
f 1 17 7
f 1 7 2
f 2 7 3
f 3 8 4
f 3 7 9
f 3 9 10
f 3 10 8
f 4 11 12
f 4 12 5
f 4 8 11
f 5 12 13
f 5 13 14
f 5 14 15
f 5 15 16
f 5 16 6
f 7 17 30
f 7 30 59
f 7 59 88
f 7 88 113
f 7 113 141
f 7 141 140
f 7 140 139
f 7 139 138
f 7 138 132
f 7 132 131
f 7 131 130
f 7 130 129
f 7 129 128
f 7 128 126
f 7 126 125
f 7 125 124
f 7 124 123
f 7 123 122
f 7 122 120
f 7 120 119
f 7 119 118
f 7 118 142
f 7 142 116
f 7 116 114
f 7 114 90
f 7 90 96
f 7 96 63
f 7 63 62
f 7 62 37
f 7 37 36
f 7 36 21
f 7 21 20
f 7 20 10
f 7 10 9
f 8 18 19
f 8 19 11
f 8 10 20
f 8 20 21
f 8 21 18
f 11 19 12
f 12 22 13
f 12 19 22
f 13 23 24
f 13 24 15
f 13 15 14
f 13 22 23
f 15 25 26
f 15 26 16
f 15 24 23
f 15 23 25
f 16 26 27
f 16 27 28
f 16 28 29
f 17 31 32
f 17 32 33
f 17 33 30
f 18 34 35
f 18 35 19
f 18 21 36
f 18 36 37
f 18 37 34
f 19 35 22
f 22 38 23
f 22 35 38
f 23 38 39
f 23 39 25
f 25 39 26
f 26 40 67
f 26 67 97
f 26 97 117
f 26 117 137
f 26 137 136
f 26 136 135
f 26 135 134
f 26 134 110
f 26 110 85
f 26 85 53
f 26 53 28
f 26 28 27
f 26 39 41
f 26 41 42
f 26 42 43
f 26 43 44
f 26 44 45
f 26 45 46
f 26 46 47
f 26 47 48
f 26 48 49
f 26 49 50
f 26 50 51
f 26 51 40
f 28 52 29
f 28 53 60
f 28 60 33
f 28 33 32
f 28 32 58
f 28 58 57
f 28 57 56
f 28 56 55
f 28 55 54
f 28 54 52
f 29 52 54
f 29 54 55
f 29 55 56
f 29 56 57
f 29 57 58
f 29 58 31
f 30 33 60
f 30 60 59
f 31 58 32
f 34 61 35
f 34 37 62
f 34 62 63
f 34 63 61
f 35 64 65
f 35 65 38
f 35 61 64
f 38 65 66
f 38 66 41
f 38 41 39
f 40 51 67
f 41 66 68
f 41 68 42
f 42 68 43
f 43 68 69
f 43 69 70
f 43 70 44
f 44 70 71
f 44 71 72
f 44 72 73
f 44 73 45
f 45 73 72
f 45 72 74
f 45 74 46
f 46 74 72
f 46 72 75
f 46 75 47
f 47 75 76
f 47 76 77
f 47 77 48
f 48 77 78
f 48 78 79
f 48 79 80
f 48 80 81
f 48 81 50
f 48 50 49
f 50 81 82
f 50 82 51
f 51 82 83
f 51 83 108
f 51 108 84
f 51 84 67
f 53 85 86
f 53 86 60
f 59 60 87
f 59 87 88
f 60 86 87
f 61 89 90
f 61 90 91
f 61 91 92
f 61 92 93
f 61 93 94
f 61 94 95
f 61 95 64
f 61 63 89
f 63 96 89
f 64 95 65
f 65 70 69
f 65 69 68
f 65 68 66
f 65 95 94
f 65 94 93
f 65 93 70
f 67 84 98
f 67 98 97
f 70 93 71
f 71 76 75
f 71 75 72
f 71 93 99
f 71 99 76
f 76 99 100
f 76 100 77
f 77 100 101
f 77 101 102
f 77 102 78
f 78 102 103
f 78 103 79
f 79 103 80
f 80 103 104
f 80 104 81
f 81 104 105
f 81 105 82
f 82 105 106
f 82 106 107
f 82 107 83
f 83 107 133
f 83 133 108
f 84 108 109
f 84 109 98
f 85 110 86
f 86 110 111
f 86 111 98
f 86 98 109
f 86 109 112
f 86 112 87
f 87 112 113
f 87 113 88
f 89 96 90
f 90 114 92
f 90 92 91
f 92 115 93
f 92 114 116
f 92 116 115
f 93 115 99
f 97 98 117
f 98 111 117
f 99 115 101
f 99 101 100
f 101 115 118
f 101 118 119
f 101 119 120
f 101 120 102
f 102 121 103
f 102 120 122
f 102 122 123
f 102 123 124
f 102 124 125
f 102 125 121
f 103 121 104
f 104 121 126
f 104 126 127
f 104 127 105
f 105 127 128
f 105 128 129
f 105 129 130
f 105 130 106
f 106 130 131
f 106 131 132
f 106 132 107
f 107 132 138
f 107 138 133
f 108 133 109
f 109 133 112
f 110 134 111
f 111 134 135
f 111 135 136
f 111 136 137
f 111 137 117
f 112 133 138
f 112 138 139
f 112 139 140
f 112 140 141
f 112 141 113
f 115 116 142
f 115 142 118
f 121 125 126
f 126 128 127
