# ABC bottle geometry; canonical radius 1 and height 1, bottom z=0.
# https://github.com/mikedh/trimesh
v 0.9155055591 -0.32786625762 0.495534343334
v 0.895340066253 -0.383706174355 0.499138048083
v 0.904587181077 -0.358238103463 0.495640329993
v 0.895340066253 -0.384101587463 0.492513589951
v 0.895340066253 -0.384101587463 0.489651821504
v 0.904475759266 -0.357763569356 0.485995128375
v 0.914948514008 -0.32786625762 0.48578314516
v 0.14208538729 -0.16612054939 0.992156650756
v 0.91338867262 -0.32786625762 0.505285541509
v 0.905924114882 -0.349379621775 0.505285541509
v 0.883418955895 -0.409569658355 0.495640329993
v 0.894225848146 -0.381333311936 0.505285541509
v 0.878516907918 -0.415897099589 0.505285541509
v 0.883084818387 -0.409569658355 0.485995128375
v 0.895005800821 -0.383073398251 0.483027363372
v 0.91338867262 -0.32786625762 0.47560797066
v 0.14208538729 -0.166278727426 0.990089826786
v -0.120512026775 -0.185656592157 0.990089826786
v -0.120512026775 -0.185893891191 0.995972299131
v 0.14208538729 -0.17450443301 0.996555250497
v 0.305749188092 -0.32786625762 0.977264867054
v 0.803759588918 -0.32786625762 0.644611125705
v 0.892331869249 -0.32786625762 0.541428585553
v 0.89756824662 -0.32786625762 0.534645132587
v 0.903918778136 -0.32786625762 0.525105917627
v 0.904921446509 -0.32786625762 0.523410061809
v 0.909489356978 -0.32786625762 0.51519572462
v 0.910826226821 -0.32786625762 0.465697797446
v 0.908152423173 -0.32786625762 0.458702371163
v 0.903807292364 -0.343684956646 0.51519572462
v 0.8922205114 -0.375717703844 0.51519572462
v 0.848547127232 -0.478301628667 0.495375348501
v 0.874171841071 -0.415897099589 0.51519572462
v 0.847433037048 -0.476482485315 0.505285541509
v 0.845316150568 -0.472686020575 0.51519572462
v 0.84832428361 -0.477906215559 0.485518163668
v 0.878294128259 -0.415897099589 0.47560797066
v 0.894225848146 -0.3811751339 0.47560797066
v 0.14208538729 -0.194594130882 0.881236728224
v -0.120512026775 -0.207565433382 0.881236728224
v -0.222565194891 -0.32786625762 0.991626677874
v -0.22267655274 -0.32786625762 0.762049499916
v -0.22267655274 -0.32786625762 0.862370291416
v -0.120512026775 -0.22243493627 0.998304144181
v 0.14208538729 -0.181860127417 0.997297236284
v 0.270097470715 -0.32786625762 0.986539100521
v 0.295387919122 -0.32786625762 0.980285630334
v 0.288257562855 -0.336645682272 0.979384699198
v 0.237788087851 -0.372395837172 0.980179623881
v 0.511972346841 -0.703875660182 0.648850780098
v 0.586172492826 -0.64874764055 0.643763192847
v 0.61814767422 -0.618375858669 0.643763192847
v 0.630180142427 -0.605958211275 0.643816201022
v 0.648563078188 -0.586343111471 0.643816201022
v 0.703711821509 -0.512153583179 0.648903778375
v 0.788273364388 -0.358000804429 0.644611125705
v 0.832058170367 -0.449037156997 0.550490835806
v 0.853672082792 -0.415897099589 0.544873295468
v 0.883418955895 -0.346215933139 0.544184357444
v 0.885981465656 -0.358791758569 0.53496310246
v 0.901133424754 -0.336091963204 0.525105917627
v 0.904475759266 -0.345345921963 0.465697797446
v 0.906481223936 -0.333007331605 0.458702371163
v 0.752175959768 -0.605958211275 0.45859636471
v 0.715632931867 -0.32786625762 0.458702371163
v 0.889323864131 -0.368124774364 0.525105917627
v 0.868378354646 -0.415897099589 0.525105917627
v 0.830498392941 -0.51025538279 0.495375348501
v 0.829384302757 -0.508515296475 0.505285541509
v 0.842419503299 -0.467465889553 0.525105917627
v 0.826933214807 -0.504639774698 0.51519572462
v 0.824036503575 -0.499498700713 0.525105917627
v 0.830164255432 -0.509938962757 0.485518163668
v 0.829384302757 -0.508357118439 0.47560797066
v 0.847321487313 -0.476403428278 0.47560797066
v 0.875620132725 -0.415897099589 0.465697797446
v 0.892777556492 -0.377299612123 0.465697797446
v 0.14208538729 -0.197520584445 0.873340380702
v -0.120512026775 -0.20985911084 0.873340380702
v -0.222565194891 -0.338069348554 0.990354778587
v -0.200951346428 -0.32786625762 0.994329471281
v -0.22267655274 -0.367571119258 0.862370291416
v -0.22267655274 -0.754020783865 0.45859636471
v -0.120512026775 -0.287924224872 0.999152067142
v -0.0958900452704 -0.287924224872 0.999576033571
v -0.031939682482 -0.287924224872 1
v 0.14208538729 -0.241812801001 0.999470027118
v 0.14208538729 -0.223305011409 0.998940113619
v 0.267869226386 -0.32786625762 0.986963057053
v 0.267312181294 -0.329210866866 0.986857080291
v 0.194448905152 -0.385208897674 0.985479184449
v 0.205924328267 -0.391536338907 0.980179623881
v 0.287700517763 -0.824255541458 0.64466413388
v 0.357667082674 -0.788505450519 0.644558127427
v 0.516540193348 -0.707118469817 0.643763192847
v 0.548515374742 -0.680701394673 0.643763192847
v 0.640318631737 -0.704271137252 0.540633641076
v 0.675413304022 -0.675560320688 0.53496310246
v 0.704268930563 -0.640521934966 0.540633641076
v 0.680649681393 -0.54869469222 0.643816201022
v 0.706942798173 -0.516741002059 0.643816201022
v 0.834620616166 -0.453703696876 0.544873295468
v 0.838854261203 -0.461296626356 0.53496310246
v 0.861693749584 -0.415897099589 0.53496310246
v 0.891552044498 -0.373898560491 0.458702371163
v 0.903250311234 -0.341865813294 0.458702371163
v 0.772341516577 -0.581834749629 0.458702371163
v 0.745602648592 -0.613867496826 0.45859636471
v 0.500051236483 -0.605958211275 0.45859636471
v 0.872834907266 -0.415897099589 0.458702371163
v 0.844536325817 -0.471499653327 0.458702371163
v 0.826264811866 -0.503453343488 0.458702371163
v 0.799191678449 -0.54371179627 0.458702371163
v 0.807659032484 -0.54371179627 0.495375348501
v 0.807213409203 -0.54371179627 0.485518163668
v 0.805542209966 -0.54371179627 0.505285541509
v 0.800751519837 -0.54371179627 0.51519572462
v 0.794512410132 -0.54371179627 0.525105917627
v 0.82024848182 -0.493092138481 0.53496310246
v 0.784485406594 -0.548141037114 0.534327162714
v 0.805542209966 -0.54371179627 0.47560797066
v 0.802311297264 -0.54371179627 0.465697797446
v 0.827824525331 -0.505826141946 0.465697797446
v 0.84587319566 -0.473793330786 0.465697797446
v -0.222565194891 -0.345662278034 0.98918889565
v -0.177443455107 -0.32786625762 0.995813383473
v -0.217105973898 -0.347639599421 0.989453877143
v -0.194266613441 -0.385208897674 0.985479184449
v -0.159728986248 -0.363774654518 0.991891659367
v -0.222565194891 -0.381491489971 0.980179623881
v -0.22267655274 -0.826549282879 0.654839288586
v -0.22267655274 -0.940285430812 0.45859636471
v -0.159728986248 -0.32786625762 0.996396324942
v -0.0957786234596 -0.343052180542 0.996979276308
v -0.0255892149275 -0.356577138147 0.996820231989
v 0.0321220381551 -0.287924224872 1
v 0.0959609791327 -0.287924224872 0.999576033571
v 0.14208538729 -0.287924224872 0.99888708565
v 0.193334751007 -0.32786625762 0.995018399409
v 0.201133574177 -0.32786625762 0.994329471281
v 0.228429487254 -0.32786625762 0.99141469466
v 0.217288329571 -0.347639599421 0.989453877143
v 0.159911277959 -0.363774654518 0.991891659367
v 0.159911277959 -0.392010936976 0.986910058775
v 0.159911277959 -0.411388737746 0.980179623881
v 0.255168291277 -0.831215822757 0.648585788708
v 0.26642087077 -0.835170465533 0.641961340473
v 0.358446971387 -0.886185664354 0.53496310246
v 0.415489757567 -0.853599198089 0.544873295468
v 0.448801872766 -0.832085833934 0.550437847425
v 0.453481141083 -0.834695931426 0.544873295468
v 0.485456322478 -0.815950842799 0.544873295468
v 0.492920880216 -0.820380019681 0.53496310246
v 0.53514597273 -0.783997152638 0.544873295468
v 0.572246045723 -0.765014764977 0.537135932883
v 0.601547359507 -0.743185044751 0.534274174333
v 0.643438122628 -0.706960291781 0.53496310246
v 0.680315415961 -0.680464031677 0.52505291935
v 0.706719954552 -0.643606566565 0.53496310246
v 0.738695135946 -0.605958211275 0.535016110635
v 0.764876894877 -0.572422676797 0.537135932883
v 0.783816939692 -0.535486090686 0.544873295468
v 0.815792121086 -0.485657387037 0.544873295468
v 0.773789872193 -0.583574835944 0.465697797446
v 0.755295514621 -0.605958211275 0.465644799168
v 0.736355533768 -0.624782420901 0.45859636471
v 0.715187244624 -0.65333505943 0.465644799168
v 0.776686583424 -0.587054944613 0.495375348501
v 0.776463739803 -0.586817645578 0.485518163668
v 0.775572429279 -0.585710335367 0.505285541509
v 0.773232827101 -0.582704760805 0.51519572462
v 0.769890428627 -0.57875011803 0.525105917627
v 0.767885027919 -0.576219141536 0.530617461409
v 0.775461007468 -0.585631214368 0.47560797066
v -0.159728986248 -0.331820964358 0.996184312037
v -0.0957786234596 -0.375005870703 0.993852506575
v -0.205742036556 -0.391536338907 0.980179623881
v -0.159728986248 -0.411388737746 0.980179623881
v -0.159728986248 -0.392010936976 0.986910058775
v -0.22267655274 -0.830503925654 0.653037426315
v -0.22267655274 -0.840153425444 0.647419905771
v -0.22267655274 -0.844187125257 0.644611125705
v -0.142014517389 -0.955471289771 0.45859636471
v -0.12686249433 -0.959267818473 0.461087155109
v -0.22267655274 -0.942816407305 0.465644799168
v -0.0426352168837 -0.381016955865 0.994700439432
v 3.54349501457e-05 -0.383864288429 0.995071397687
v 0.0257715706005 -0.356577138147 0.996820231989
v 0.0959609791327 -0.343052180542 0.996979276308
v 0.14208538729 -0.303268261867 0.998145159245
v 0.159911277959 -0.32786625762 0.996396324942
v 0.177625746818 -0.32786625762 0.995813383473
v 0.0959609791327 -0.375005870703 0.993852506575
v 0.0959609791327 -0.401739365879 0.988870905983
v 0.0899447130484 -0.433851298038 0.979225714262
v 0.0647656224897 -0.447850725787 0.975304019846
v 0.22998926468 -0.84252615994 0.64466413388
v 0.223972998596 -0.921935819254 0.544873295468
v 0.287811939574 -0.911732792283 0.53496310246
v 0.321012632962 -0.89583503622 0.540368669481
v 0.415489757567 -0.861666789599 0.53496310246
v 0.326694633614 -0.897891478607 0.53496310246
v 0.336053234211 -0.901213345278 0.52505291935
v 0.367805571984 -0.889428410026 0.52505291935
v 0.460834340973 -0.838966994234 0.53496310246
v 0.499271411732 -0.824097427384 0.52505291935
v 0.547958265688 -0.784550807743 0.534274174333
v 0.576034067478 -0.76794121854 0.530564473029
v 0.648340298529 -0.711073176554 0.52505291935
v 0.684214859527 -0.684339617415 0.515142736239
v 0.710842241739 -0.648510405478 0.52505291935
v 0.758637849133 -0.605958211275 0.475554972382
v 0.748833625256 -0.617663961566 0.475554972382
v 0.71362753116 -0.651436859041 0.45859636471
v 0.716858443862 -0.655233323781 0.475554972382
v 0.687111506796 -0.687266070979 0.475554972382
v 0.685106106089 -0.685288749591 0.465644799168
v 0.760977515273 -0.605958211275 0.495375348501
v 0.760643313803 -0.605958211275 0.485465175287
v 0.758749270944 -0.605958211275 0.505285541509
v 0.746271115495 -0.614816692964 0.515142736239
v 0.757078071707 -0.605958211275 0.508624274662
v 0.752175959768 -0.605958211275 0.517580538256
v 0.747051004208 -0.605958211275 0.525105917627
v -0.0957786234596 -0.401739365879 0.988870905983
v -0.0644719729299 -0.447850725787 0.975304019846
v -0.0898737791861 -0.433851298038 0.979225714262
v -0.22267655274 -0.922173118289 0.544873295468
v -0.159840408059 -0.859214806181 0.643763192847
v -0.123185894385 -0.958793220404 0.45859636471
v -0.101683467733 -0.963380639284 0.464849864588
v -0.0957786234596 -0.967018925988 0.475554972382
v -0.132990118263 -0.960296007685 0.467658614963
v -0.156609431395 -0.954996819626 0.464849864588
v -0.108479558569 -0.960533242758 0.45859636471
v -0.091656400234 -0.962510628107 0.45859636471
v -0.17042452065 -0.955392168772 0.475554972382
v -0.22267655274 -0.945426504797 0.475554972382
v -0.0255892149275 -0.402213963948 0.990884751469
v 0.000258278571639 -0.383864288429 0.995071397687
v 0.0428175725567 -0.381016955865 0.994700439432
v 0.159911277959 -0.331820964358 0.996184312037
v 0.0257715706005 -0.402213963948 0.990884751469
v 0.0321220381551 -0.438755072989 0.981027546842
v 0.0321220381551 -0.449353513068 0.976045946251
v 0.0960723369814 -0.866016845482 0.643763192847
v 0.16002269977 -0.859214806181 0.643763192847
v 0.223972998596 -0.929528748734 0.53496310246
v 0.287811939574 -0.918455710586 0.52505291935
v 0.415489757567 -0.868468700977 0.52505291935
v 0.467407588187 -0.84252615994 0.52505291935
v 0.34362921376 -0.903902499806 0.515142736239
v 0.375381551532 -0.892275806552 0.515142736239
v 0.50439630333 -0.827102937984 0.515142736239
v 0.543390419182 -0.794674713716 0.52505291935
v 0.578596513277 -0.770076717963 0.52505291935
v 0.61057163071 -0.743026802753 0.52505291935
v 0.652239614171 -0.714474164224 0.515142736239
v 0.687222928607 -0.687345191977 0.505285541509
v 0.714295998062 -0.652385927255 0.515142736239
v 0.74972493578 -0.618850392776 0.485465175287
v 0.717749754385 -0.656498812028 0.485465175287
v 0.683434970814 -0.68339048524 0.45859636471
v 0.688225660942 -0.688452438226 0.485465175287
v 0.655136389364 -0.716926019719 0.475554972382
v 0.653130988657 -0.715185997365 0.465644799168
v 0.651348367609 -0.713683274046 0.45859636471
v 0.74983635759 -0.61908769181 0.495375348501
v 0.748833625256 -0.617663961566 0.505285541509
v 0.716858443862 -0.655391501817 0.505285541509
v -0.0318283246333 -0.438755072989 0.981027546842
v -0.0318283246333 -0.449353513068 0.976045946251
v -0.0957786234596 -0.866016845482 0.643763192847
v -0.22267655274 -0.929845040843 0.53496310246
v -0.159840408059 -0.93427434565 0.544873295468
v -0.0957786234596 -0.951358404998 0.53496310246
v -0.0957786234596 -0.943765475518 0.544873295468
v -0.0614637759258 -0.959267818473 0.529822536726
v -0.0318283246333 -0.972239120972 0.475554972382
v -0.0318283246333 -0.973820901328 0.485465175287
v -0.0957786234596 -0.968521713269 0.485465175287
v -0.138449275293 -0.961245139861 0.475554972382
v -0.0711566419547 -0.96432977146 0.45859636471
v -0.0318283246333 -0.969708144479 0.465644799168
v -0.142794342141 -0.962115214999 0.485465175287
v -0.174769523535 -0.956104065875 0.485465175287
v -0.22267655274 -0.946929228116 0.485465175287
v 0.0321220381551 -0.9491439125 0.544873295468
v 0.0617575534096 -0.959267818473 0.529822536726
v 0.0960723369814 -0.943765475518 0.544873295468
v 0.0960723369814 -0.951358404998 0.53496310246
v 0.16002269977 -0.93427434565 0.544873295468
v 0.16002269977 -0.941709097094 0.53496310246
v 0.223972998596 -0.936014368003 0.52505291935
v 0.287811939574 -0.923834019643 0.515142736239
v 0.415489757567 -0.874321672065 0.515142736239
v 0.472421121936 -0.845373492504 0.515142736239
v 0.287811939574 -0.927867719456 0.505285541509
v 0.34908837079 -0.905958942193 0.505285541509
v 0.381063552184 -0.894411369938 0.505285541509
v 0.508407104745 -0.829475736442 0.505285541509
v 0.543390419182 -0.800923097913 0.515142736239
v 0.582495956844 -0.773240470561 0.515142736239
v 0.614471074276 -0.746427854385 0.515142736239
v 0.617590629129 -0.748879709879 0.505285541509
v 0.655247811175 -0.716926019719 0.505285541509
v 0.688559926374 -0.688689737261 0.495375348501
v 0.717861176196 -0.656736111062 0.495375348501
v 0.656250479548 -0.717875151894 0.485465175287
v 0.617479207318 -0.748879709879 0.475554972382
v 0.615473742648 -0.747218808525 0.465644799168
v 0.613579827714 -0.745636900245 0.45859636471
v -0.0318283246333 -0.9491439125 0.544873295468
v -0.159840408059 -0.941709097094 0.53496310246
v -0.22267655274 -0.936172546039 0.52505291935
v -0.159840408059 -0.948115659326 0.52505291935
v -0.0984524910695 -0.957132255088 0.525900862104
v -0.0790668229737 -0.961166018862 0.523198078594
v -0.0318283246333 -0.968521713269 0.515142736239
v -0.0368417944209 -0.962668806143 0.525900862104
v -0.0189045459027 -0.960216886686 0.531253411053
v -0.0368417944209 -0.956895020015 0.534751119246
v 0.0321220381551 -0.972239120972 0.475554972382
v 0.0321220381551 -0.973820901328 0.485465175287
v -0.0318283246333 -0.974137321361 0.495375348501
v -0.0957786234596 -0.96883806934 0.495375348501
v -0.0318283246333 -0.967335282059 0.45859636471
v 0.0321220381551 -0.969708144479 0.465644799168
v -0.143685652665 -0.962194208074 0.495375348501
v -0.175772255869 -0.95634136491 0.495375348501
v -0.22267655274 -0.947324705186 0.495375348501
v 0.0190868376138 -0.960216886686 0.531253411053
v 0.0371355719046 -0.956895020015 0.534751119246
v 0.0371355719046 -0.962668806143 0.525900862104
v 0.0321220381551 -0.968521713269 0.515142736239
v 0.079137756836 -0.961166018862 0.523198078594
v 0.0987462685533 -0.957132255088 0.525900862104
v 0.121808472632 -0.95855592137 0.518481459495
v 0.16002269977 -0.948115659326 0.52505291935
v 0.156234678014 -0.954126744488 0.51519572462
v 0.223972998596 -0.941313620024 0.515142736239
v 0.415489757567 -0.87859260695 0.505285541509
v 0.476431987313 -0.847588112927 0.505285541509
v 0.383403154362 -0.895360502113 0.499085059702
v 0.223972998596 -0.945347383798 0.505285541509
v 0.287811939574 -0.929607869733 0.495375348501
v 0.510078303982 -0.830503925654 0.495375348501
v 0.543390419182 -0.805668694828 0.505285541509
v 0.585504025924 -0.775692326055 0.505285541509
v 0.618927562934 -0.750145198126 0.495375348501
v 0.65658474498 -0.718112450928 0.495375348501
v 0.618593297501 -0.749828842055 0.485465175287
v 0.585504025924 -0.775613269018 0.475554972382
v 0.583610047027 -0.773952303702 0.465644799168
v 0.581604582358 -0.772528637419 0.45859636471
v -0.121626116959 -0.95855592137 0.518481459495
v -0.22267655274 -0.94155098302 0.515142736239
v -0.155940964493 -0.954126744488 0.51519572462
v -0.0984524910695 -0.962906105177 0.51519572462
v -0.0957786234596 -0.967098046987 0.505285541509
v -0.0318283246333 -0.97239736297 0.505285541509
v 0.0960723369814 -0.967018925988 0.475554972382
v 0.0960723369814 -0.968521713269 0.485465175287
v 0.0321220381551 -0.974137321361 0.495375348501
v -0.138783540726 -0.961324196898 0.505285541509
v 0.0321220381551 -0.967335282059 0.45859636471
v 0.0919501137558 -0.962510628107 0.45859636471
v -0.17075872212 -0.955392168772 0.505285541509
v -0.22267655274 -0.945584682832 0.505285541509
v 0.0987462685533 -0.962906105177 0.51519572462
v 0.0321220381551 -0.97239736297 0.505285541509
v 0.0960723369814 -0.967098046987 0.505285541509
v 0.132392585223 -0.96013782965 0.511909999641
v 0.409250711823 -0.883417388826 0.495640329993
v 0.47799176474 -0.848537245102 0.495375348501
v 0.357889862333 -0.90461439691 0.495640329993
v 0.383737419794 -0.89543955915 0.492513589951
v 0.170941013831 -0.955392168772 0.505285541509
v 0.17584312577 -0.95634136491 0.495375348501
v 0.223972998596 -0.947087470113 0.495375348501
v 0.383737419794 -0.89543955915 0.489545834846
v 0.287811939574 -0.929291513662 0.485465175287
v 0.543390419182 -0.807804258214 0.495375348501
v 0.477880342929 -0.848379131028 0.485465175287
v 0.50974403855 -0.83034581158 0.485465175287
v 0.586952381539 -0.776720515267 0.495375348501
v 0.586618116107 -0.776562401194 0.485465175287
v 0.543390419182 -0.807408781144 0.485465175287
v 0.543390419182 -0.805510516793 0.475554972382
v 0.543390419182 -0.802346764195 0.465644799168
v 0.555088621956 -0.791273726047 0.45859636471
v -0.13221022955 -0.96013782965 0.511909999641
v 0.101865759444 -0.963380639284 0.464849864588
v 0.127044786041 -0.959267818473 0.461087155109
v 0.133172473936 -0.960296007685 0.467658614963
v 0.138743052777 -0.961245139861 0.475554972382
v 0.142976697814 -0.962115214999 0.485465175287
v 0.0960723369814 -0.96883806934 0.495375348501
v 0.123479607907 -0.958793220404 0.45859636471
v 0.138965832437 -0.961324196898 0.505285541509
v 0.409250711823 -0.883180153754 0.485995128375
v 0.143868008338 -0.962194208074 0.495375348501
v 0.174951879208 -0.956104065875 0.485465175287
v 0.223972998596 -0.946771114042 0.485465175287
v 0.357444239052 -0.904535275911 0.485995128375
v 0.38273468746 -0.895044018118 0.483027363372
v 0.287811939574 -0.927709605382 0.475554972382
v 0.415489757567 -0.878513613875 0.475554972382
v 0.476320565502 -0.847508991928 0.475554972382
v 0.508184261124 -0.829396615443 0.475554972382
v 0.505621879287 -0.827814835087 0.465644799168
v 0.543390419182 -0.799420310632 0.45859636471
v 0.156680301295 -0.954996819626 0.464849864588
v 0.159019967435 -0.952307665098 0.45859636471
v 0.223972998596 -0.940048067815 0.45859636471
v 0.170718234171 -0.955392168772 0.475554972382
v 0.223972998596 -0.942500051234 0.465644799168
v 0.223972998596 -0.9451891418 0.475554972382
v 0.348865527169 -0.905879821194 0.475554972382
v 0.380840708563 -0.894411369938 0.475554972382
v 0.287811939574 -0.925099571852 0.465644799168
v 0.415489757567 -0.87558709635 0.465644799168
v 0.47364663393 -0.846006268609 0.465644799168
v 0.471195609942 -0.8447407164 0.45859636471
v 0.503170727374 -0.826391104843 0.45859636471
v 0.287811939574 -0.922568595359 0.45859636471
v 0.345300349035 -0.904535275911 0.465644799168
v 0.377052750769 -0.892908518695 0.465644799168
v 0.341846592712 -0.903269723702 0.45859636471
v 0.415489757567 -0.872977126782 0.45859636471
v 0.373598930484 -0.89164309441 0.45859636471
f 1 2 3
f 1 3 4
f 1 4 5
f 1 5 6
f 1 6 7
f 1 7 8
f 1 8 9
f 1 9 10
f 1 10 2
f 2 11 4
f 2 4 3
f 2 10 12
f 2 12 13
f 2 13 11
f 4 11 5
f 5 11 14
f 5 14 15
f 5 15 6
f 6 15 16
f 6 16 7
f 7 16 8
f 8 17 18
f 8 18 19
f 8 19 20
f 8 20 21
f 8 21 22
f 8 22 23
f 8 23 24
f 8 24 25
f 8 25 26
f 8 26 27
f 8 27 9
f 8 16 28
f 8 28 29
f 8 29 17
f 9 27 10
f 10 27 30
f 10 30 31
f 10 31 12
f 11 13 32
f 11 32 14
f 12 31 33
f 12 33 13
f 13 34 32
f 13 33 35
f 13 35 34
f 14 32 36
f 14 36 37
f 14 37 15
f 15 37 38
f 15 38 16
f 16 38 28
f 17 39 40
f 17 40 18
f 17 29 39
f 18 41 19
f 18 40 42
f 18 42 43
f 18 43 41
f 19 44 45
f 19 45 20
f 19 41 44
f 20 45 46
f 20 46 47
f 20 47 21
f 21 47 48
f 21 48 49
f 21 49 50
f 21 50 51
f 21 51 52
f 21 52 53
f 21 53 54
f 21 54 55
f 21 55 22
f 22 55 56
f 22 56 57
f 22 57 58
f 22 58 59
f 22 59 23
f 23 59 60
f 23 60 24
f 24 61 25
f 24 60 61
f 25 61 26
f 26 61 27
f 27 61 30
f 28 38 62
f 28 62 63
f 28 63 29
f 29 63 64
f 29 64 109
f 29 109 65
f 29 65 39
f 30 61 31
f 31 61 66
f 31 66 67
f 31 67 33
f 32 68 36
f 32 34 69
f 32 69 68
f 33 67 70
f 33 70 35
f 34 35 69
f 35 71 69
f 35 70 72
f 35 72 71
f 36 68 73
f 36 73 74
f 36 74 75
f 36 75 37
f 37 75 76
f 37 76 38
f 38 76 77
f 38 77 62
f 39 78 79
f 39 79 40
f 39 65 78
f 40 79 42
f 41 80 81
f 41 81 44
f 41 43 82
f 41 82 80
f 42 79 65
f 42 65 83
f 42 83 132
f 42 132 185
f 42 185 238
f 42 238 287
f 42 287 331
f 42 331 369
f 42 369 357
f 42 357 315
f 42 315 274
f 42 274 228
f 42 228 182
f 42 182 181
f 42 181 180
f 42 180 131
f 42 131 82
f 42 82 43
f 44 84 85
f 44 85 86
f 44 86 87
f 44 87 88
f 44 88 45
f 44 81 84
f 45 88 89
f 45 89 46
f 46 89 90
f 46 90 47
f 47 90 48
f 48 90 49
f 49 90 91
f 49 91 92
f 49 92 50
f 50 93 94
f 50 94 95
f 50 95 96
f 50 96 51
f 50 92 93
f 51 96 97
f 51 97 52
f 52 97 98
f 52 98 99
f 52 99 53
f 53 99 54
f 54 99 100
f 54 100 55
f 55 100 101
f 55 101 56
f 56 101 57
f 57 102 58
f 57 101 102
f 58 102 103
f 58 103 104
f 58 104 60
f 58 60 59
f 60 104 66
f 60 66 61
f 62 77 105
f 62 105 106
f 62 106 63
f 63 106 64
f 64 107 108
f 64 108 166
f 64 166 214
f 64 214 263
f 64 263 267
f 64 267 312
f 64 312 355
f 64 355 391
f 64 391 412
f 64 412 425
f 64 425 424
f 64 424 430
f 64 430 431
f 64 431 429
f 64 429 426
f 64 426 415
f 64 415 414
f 64 414 399
f 64 399 367
f 64 367 366
f 64 366 327
f 64 327 283
f 64 283 236
f 64 236 235
f 64 235 230
f 64 230 183
f 64 183 132
f 64 132 83
f 64 83 109
f 64 106 105
f 64 105 110
f 64 110 111
f 64 111 112
f 64 112 113
f 64 113 107
f 65 109 83
f 65 79 78
f 66 104 67
f 67 104 103
f 67 103 70
f 68 114 115
f 68 115 73
f 68 69 116
f 68 116 114
f 69 71 117
f 69 117 116
f 70 103 72
f 71 72 118
f 71 118 117
f 72 103 119
f 72 119 120
f 72 120 118
f 73 115 121
f 73 121 74
f 74 121 122
f 74 122 123
f 74 123 124
f 74 124 75
f 75 124 76
f 76 124 111
f 76 111 110
f 76 110 105
f 76 105 77
f 80 82 125
f 80 125 81
f 81 126 84
f 81 125 127
f 81 127 128
f 81 128 129
f 81 129 126
f 82 130 125
f 82 131 130
f 84 126 133
f 84 133 134
f 84 134 85
f 85 134 135
f 85 135 86
f 86 135 188
f 86 188 136
f 86 136 87
f 87 136 137
f 87 137 138
f 87 138 139
f 87 139 140
f 87 140 141
f 87 141 89
f 87 89 88
f 89 141 90
f 90 141 142
f 90 142 91
f 91 142 140
f 91 140 139
f 91 139 143
f 91 143 144
f 91 144 145
f 91 145 92
f 92 145 93
f 93 146 147
f 93 147 148
f 93 148 149
f 93 149 150
f 93 150 94
f 93 145 146
f 94 150 95
f 95 150 151
f 95 151 152
f 95 152 153
f 95 153 154
f 95 154 155
f 95 155 96
f 96 155 156
f 96 156 97
f 97 156 157
f 97 157 98
f 98 157 158
f 98 158 99
f 99 158 159
f 99 159 160
f 99 160 161
f 99 161 100
f 100 161 101
f 101 161 162
f 101 162 119
f 101 119 163
f 101 163 102
f 102 163 119
f 102 119 103
f 107 113 122
f 107 122 164
f 107 164 165
f 107 165 108
f 108 165 167
f 108 167 166
f 111 124 123
f 111 123 112
f 112 123 113
f 113 123 122
f 114 168 169
f 114 169 115
f 114 116 170
f 114 170 168
f 115 169 121
f 116 117 171
f 116 171 170
f 117 118 172
f 117 172 171
f 118 120 173
f 118 173 172
f 119 162 120
f 120 162 161
f 120 161 173
f 121 174 164
f 121 164 122
f 121 169 174
f 125 130 128
f 125 128 127
f 126 175 133
f 126 129 176
f 126 176 175
f 128 130 177
f 128 177 178
f 128 178 179
f 128 179 129
f 129 179 176
f 130 131 180
f 130 180 181
f 130 181 182
f 130 182 177
f 132 183 184
f 132 184 185
f 133 175 134
f 134 175 176
f 134 176 186
f 134 186 187
f 134 187 135
f 135 187 240
f 135 240 188
f 136 188 137
f 137 188 189
f 137 189 138
f 138 189 190
f 138 190 191
f 138 191 192
f 138 192 139
f 139 192 193
f 139 193 143
f 140 142 141
f 143 193 144
f 144 193 194
f 144 194 195
f 144 195 145
f 145 195 196
f 145 196 146
f 146 197 147
f 146 196 197
f 147 197 198
f 147 198 199
f 147 199 200
f 147 200 148
f 148 201 149
f 148 200 202
f 148 202 203
f 148 203 204
f 148 204 201
f 149 151 150
f 149 201 151
f 151 201 205
f 151 205 153
f 151 153 152
f 153 205 206
f 153 206 207
f 153 207 154
f 154 207 155
f 155 207 208
f 155 208 156
f 156 208 209
f 156 209 157
f 157 209 158
f 158 209 210
f 158 210 211
f 158 211 159
f 159 211 173
f 159 173 160
f 160 173 161
f 164 174 165
f 165 174 212
f 165 212 213
f 165 213 167
f 166 167 214
f 167 213 215
f 167 215 216
f 167 216 217
f 167 217 214
f 168 218 219
f 168 219 169
f 168 170 220
f 168 220 218
f 169 219 174
f 170 171 220
f 171 221 222
f 171 222 220
f 171 172 223
f 171 223 221
f 172 173 224
f 172 224 223
f 173 211 224
f 174 219 212
f 176 179 225
f 176 225 186
f 177 182 178
f 178 226 227
f 178 227 179
f 178 182 226
f 179 227 225
f 182 228 229
f 182 229 226
f 183 230 184
f 184 231 232
f 184 232 233
f 184 233 234
f 184 234 185
f 184 230 235
f 184 235 236
f 184 236 231
f 185 234 233
f 185 233 237
f 185 237 238
f 186 225 239
f 186 239 187
f 187 239 243
f 187 243 240
f 188 240 189
f 189 240 241
f 189 241 193
f 189 193 242
f 189 242 190
f 190 242 191
f 191 242 192
f 192 242 193
f 193 241 194
f 194 241 243
f 194 243 244
f 194 244 195
f 195 244 196
f 196 244 245
f 196 245 246
f 196 246 247
f 196 247 197
f 197 247 198
f 198 247 248
f 198 248 199
f 199 202 200
f 199 248 249
f 199 249 202
f 201 204 250
f 201 250 251
f 201 251 205
f 202 249 203
f 203 249 252
f 203 252 253
f 203 253 204
f 204 253 250
f 205 251 206
f 206 251 254
f 206 254 255
f 206 255 207
f 207 255 208
f 208 255 256
f 208 256 257
f 208 257 209
f 209 257 304
f 209 304 258
f 209 258 210
f 210 258 259
f 210 259 260
f 210 260 211
f 211 260 224
f 212 219 213
f 213 219 261
f 213 261 262
f 213 262 215
f 214 217 263
f 215 262 264
f 215 264 216
f 216 265 266
f 216 266 217
f 216 264 265
f 217 266 267
f 217 267 263
f 218 268 261
f 218 261 219
f 218 220 269
f 218 269 270
f 218 270 268
f 220 222 269
f 221 223 260
f 221 260 270
f 221 270 222
f 222 270 269
f 223 224 260
f 225 271 239
f 225 227 271
f 226 272 271
f 226 271 227
f 226 229 273
f 226 273 272
f 228 274 229
f 229 274 275
f 229 275 276
f 229 276 277
f 229 277 278
f 229 278 273
f 231 236 232
f 232 279 280
f 232 280 281
f 232 281 282
f 232 282 233
f 232 236 283
f 232 283 284
f 232 284 279
f 233 282 237
f 237 282 285
f 237 285 286
f 237 286 238
f 238 286 287
f 239 271 244
f 239 244 243
f 240 243 241
f 244 271 272
f 244 272 245
f 245 272 273
f 245 273 246
f 246 273 313
f 246 313 288
f 246 288 289
f 246 289 247
f 247 289 290
f 247 290 291
f 247 291 292
f 247 292 248
f 248 292 293
f 248 293 294
f 248 294 249
f 249 294 295
f 249 295 252
f 250 253 296
f 250 296 251
f 251 296 297
f 251 297 254
f 252 295 298
f 252 298 299
f 252 299 300
f 252 300 253
f 253 300 296
f 254 297 301
f 254 301 302
f 254 302 255
f 255 302 256
f 256 302 303
f 256 303 304
f 256 304 257
f 258 304 305
f 258 305 306
f 258 306 259
f 259 306 307
f 259 307 270
f 259 270 260
f 261 268 308
f 261 308 262
f 262 308 307
f 262 307 264
f 264 307 351
f 264 351 309
f 264 309 265
f 265 309 352
f 265 352 310
f 265 310 311
f 265 311 266
f 266 311 267
f 267 311 312
f 268 270 308
f 270 307 308
f 273 278 313
f 274 314 275
f 274 315 316
f 274 316 314
f 275 314 276
f 276 314 317
f 276 317 278
f 276 278 277
f 278 317 318
f 278 318 319
f 278 319 320
f 278 320 321
f 278 321 322
f 278 322 313
f 279 323 324
f 279 324 280
f 279 284 328
f 279 328 323
f 280 324 364
f 280 364 325
f 280 325 326
f 280 326 281
f 281 326 285
f 281 285 282
f 283 327 284
f 284 327 366
f 284 366 328
f 285 326 329
f 285 329 330
f 285 330 286
f 286 330 287
f 287 330 331
f 288 313 321
f 288 321 332
f 288 332 333
f 288 333 289
f 289 332 334
f 289 334 335
f 289 335 336
f 289 336 337
f 289 337 291
f 289 291 290
f 289 333 332
f 291 337 293
f 291 293 292
f 293 337 338
f 293 338 339
f 293 339 294
f 294 339 340
f 294 340 341
f 294 341 295
f 295 341 345
f 295 345 298
f 296 300 342
f 296 342 297
f 297 342 343
f 297 343 301
f 298 344 299
f 298 345 380
f 298 380 346
f 298 346 344
f 299 344 300
f 300 344 342
f 301 343 347
f 301 347 348
f 301 348 302
f 302 348 303
f 303 348 349
f 303 349 305
f 303 305 304
f 305 349 350
f 305 350 306
f 306 350 351
f 306 351 307
f 309 351 350
f 309 350 352
f 310 352 387
f 310 387 353
f 310 353 354
f 310 354 311
f 311 354 355
f 311 355 312
f 313 322 321
f 314 316 356
f 314 356 317
f 315 357 316
f 316 357 358
f 316 358 356
f 317 356 318
f 318 356 359
f 318 359 319
f 319 335 332
f 319 332 321
f 319 321 320
f 319 359 360
f 319 360 361
f 319 361 371
f 319 371 335
f 323 362 324
f 323 328 362
f 324 363 398
f 324 398 364
f 324 362 363
f 325 364 371
f 325 371 361
f 325 361 360
f 325 360 326
f 326 360 365
f 326 365 329
f 328 366 367
f 328 367 362
f 329 365 330
f 330 365 368
f 330 368 369
f 330 369 331
f 332 335 334
f 335 370 336
f 335 371 372
f 335 372 370
f 336 370 338
f 336 338 337
f 338 370 373
f 338 373 340
f 338 340 339
f 340 373 341
f 341 373 345
f 342 344 374
f 342 374 375
f 342 375 343
f 343 375 347
f 344 376 377
f 344 377 374
f 344 346 376
f 345 373 378
f 345 378 379
f 345 379 380
f 346 381 377
f 346 377 376
f 346 380 404
f 346 404 382
f 346 382 381
f 347 383 348
f 347 375 384
f 347 384 385
f 347 385 383
f 348 383 349
f 349 383 386
f 349 386 350
f 350 386 387
f 350 387 352
f 353 387 388
f 353 388 389
f 353 389 354
f 354 389 390
f 354 390 391
f 354 391 355
f 356 358 392
f 356 392 359
f 357 392 358
f 357 369 392
f 359 392 360
f 360 392 365
f 362 367 393
f 362 393 394
f 362 394 395
f 362 395 396
f 362 396 363
f 363 397 398
f 363 396 397
f 364 398 372
f 364 372 371
f 365 392 368
f 367 399 394
f 367 394 393
f 368 392 369
f 370 372 373
f 372 400 373
f 372 398 400
f 373 400 378
f 374 377 381
f 374 381 401
f 374 401 384
f 374 384 375
f 378 400 379
f 379 400 402
f 379 402 397
f 379 397 403
f 379 403 404
f 379 404 380
f 381 382 405
f 381 405 406
f 381 406 401
f 382 404 418
f 382 418 407
f 382 407 406
f 382 406 405
f 383 385 388
f 383 388 386
f 384 408 409
f 384 409 385
f 384 401 408
f 385 409 410
f 385 410 389
f 385 389 388
f 386 388 387
f 389 410 390
f 390 410 411
f 390 411 412
f 390 412 391
f 394 413 395
f 394 399 414
f 394 414 415
f 394 415 413
f 395 416 396
f 395 413 417
f 395 417 416
f 396 416 397
f 397 402 398
f 397 416 403
f 398 402 400
f 401 406 408
f 403 416 404
f 404 416 418
f 406 407 419
f 406 419 420
f 406 420 408
f 407 418 421
f 407 421 419
f 408 420 422
f 408 422 423
f 408 423 409
f 409 423 410
f 410 423 411
f 411 423 424
f 411 424 425
f 411 425 412
f 413 415 417
f 415 426 421
f 415 421 417
f 416 417 418
f 417 421 418
f 419 421 427
f 419 427 420
f 420 427 428
f 420 428 422
f 421 426 429
f 421 429 427
f 422 428 430
f 422 430 424
f 422 424 423
f 427 429 431
f 427 431 428
f 428 431 430
