# ABC bottle geometry; canonical radius 1 and height 1, bottom z=0.
# https://github.com/mikedh/trimesh
v -0.30178635818 0.698372945027 0.0659041156345
v -0.30178635818 0.633077972993 0.172536690272
v -0.30178635818 0.946453286845 0.0659041156345
v 0.697126613401 0.30491509158 0.0659041156345
v -0.030998161785 0.655428152045 0.241828073804
v -0.30178635818 0.796011583559 0.172536690272
v 0.631321928158 0.30491509158 0.172536690272
v 0.482864518119 0.441447041846 0.241828073804
v -0.30178635818 0.946250783141 0.069745021079
v -0.260643118999 0.961038350702 0.0659041156345
v 0.945450842339 0.30491509158 0.0659041156345
v -0.030998161785 0.825249127226 0.241828073804
v -0.30178635818 0.91350198131 0.101712404543
v 0.79418550033 0.30491509158 0.172536690272
v 0.701399595069 0.441447041846 0.241828073804
v -0.30178635818 0.941321615274 0.0792525558358
v -0.257224733664 0.959822944705 0.0754288810171
v -0.260276872564 0.96090326295 0.069745021079
v -0.246114853401 0.964009385782 0.0659041156345
v 0.928602930709 0.351843757974 0.0659041156345
v 0.945084595905 0.30491509158 0.069745021079
v -0.0958261472285 0.974880623808 0.0895351718494
v -0.1597996003 0.96535981557 0.0895868439332
v -0.203384525017 0.961510965949 0.0863143116164
v -0.245992749935 0.957459612624 0.0820255880436
v -0.28774637852 0.936122271903 0.0895351718494
v -0.30178635818 0.931193104037 0.0895351718494
v -0.30178635818 0.928357156709 0.0915503732202
v -0.30178635818 0.917485854721 0.0992149534834
v 0.0562937911147 0.83422971238 0.241828073804
v 0.902354267522 0.30491509158 0.107757969068
v 0.91639418322 0.30491509158 0.0991632813996
v 0.929945876942 0.30491509158 0.0895351718494
v 0.913342044319 0.351843757974 0.0895351718494
v 0.898569571791 0.391142269002 0.0895351718494
v 0.883919138765 0.423148280082 0.0895351718494
v 0.68406333354 0.477572014089 0.241828073804
v -0.282252490121 0.94834400368 0.0790975593783
v -0.224383378813 0.963536706573 0.0790975593783
v -0.1597996003 0.974880623808 0.0796487018802
v -0.1597996003 0.979809791675 0.069745021079
v -0.22377298941 0.96819582686 0.069745021079
v -0.22377298941 0.968465938402 0.0659041156345
v 0.906261066718 0.408698303977 0.0659041156345
v 0.906138963253 0.408225624768 0.069745021079
v 0.92811458081 0.351843757974 0.069745021079
v 0.92310904231 0.351843757974 0.0796487018802
v 0.940201160871 0.30491509158 0.0792697765647
v -0.0318527581188 0.980147383131 0.0895351718494
v -0.0958261472285 0.984266344295 0.0796487018802
v 0.0960940840627 0.83422971238 0.241828073804
v 0.90357511029 0.40241864236 0.0796487018802
v 0.889168884195 0.43442465344 0.0796487018802
v 0.865239931002 0.479867802294 0.0796487018802
v 0.850223251543 0.485607240826 0.0902930224803
v 0.835572946442 0.518220954905 0.0875027695435
v 0.654030038583 0.528889625265 0.241828073804
v -0.1597996003 0.980079903217 0.0659041156345
v -0.0958261472285 0.989195576123 0.069745021079
v -0.0958261472285 0.98953316758 0.0659041156345
v 0.891976944089 0.440569227305 0.0659041156345
v 0.891854840624 0.440299115762 0.069745021079
v -0.0318527581188 0.98953316758 0.0796487018802
v 0.0319985275256 0.980147383131 0.0895351718494
v 0.117703391223 0.832136491841 0.241828073804
v 0.0959719805973 0.984266344295 0.0796487018802
v 0.0319985275256 0.98953316758 0.0796487018802
v 0.870978026332 0.479867802294 0.069745021079
v 0.83960172118 0.524568160397 0.0796487018802
v 0.818358660454 0.556641715353 0.0796487018802
v 0.626926779062 0.560828156431 0.241828073804
v 0.780511767104 0.591888873055 0.0895351718494
v 0.786371965899 0.599046285251 0.0796487018802
v 0.760001199246 0.630917272541 0.0796487018802
v 0.728136608156 0.668527698362 0.0796487018802
v -0.0318527581188 0.994394855532 0.069745021079
v -0.0710425977018 0.991558844242 0.0659041156345
v 0.884041370155 0.455626906408 0.0659041156345
v 0.134307159885 0.830110815178 0.241828073804
v 0.159945369707 0.974880623808 0.0796487018802
v 0.0959719805973 0.989195576123 0.069745021079
v 0.0319985275256 0.994394855532 0.069745021079
v 0.871222233263 0.479867802294 0.0659041156345
v 0.842653924043 0.529429784387 0.0659041156345
v 0.842409781074 0.529024713017 0.069745021079
v 0.821410863316 0.561165747887 0.069745021079
v 0.607515014469 0.581827905694 0.241828073804
v 0.700422959232 0.700466229528 0.0796487018802
v 0.7894241048 0.60276004712 0.069745021079
v 0.76329760904 0.634631034409 0.069745021079
v 0.703108851699 0.70323463298 0.0740854266325
v -0.0318527581188 0.994732446988 0.0659041156345
v 0.160067473172 0.825519238768 0.241828073804
v 0.203530294424 0.961510965949 0.0863143116164
v 0.159945369707 0.979809791675 0.069745021079
v 0.246138519342 0.957459612624 0.0820255880436
v 0.224407108716 0.963536706573 0.0790975593783
v 0.25737050307 0.959822944705 0.0754288810171
v 0.0959719805973 0.98953316758 0.0659041156345
v 0.0319985275256 0.994732446988 0.0659041156345
v 0.821655006285 0.561300771677 0.0659041156345
v 0.78966831173 0.602962614786 0.0659041156345
v 0.594940084507 0.595129955716 0.241828073804
v 0.668436264677 0.728083167902 0.0796487018802
v 0.560755847385 0.62706842292 0.241828073804
v 0.581632597715 0.607621735072 0.241828073804
v 0.763419648543 0.634968689828 0.0659041156345
v 0.704573901398 0.704585126729 0.0674886899151
v 0.726427415489 0.677710851182 0.0703822969165
v 0.677714848807 0.72632753882 0.0703822969165
v 0.63461827399 0.763195237852 0.069745021079
v 0.630955681724 0.760089242944 0.0796487018802
v 0.203530294424 0.815660839073 0.241828073804
v 0.159945369707 0.980079903217 0.0659041156345
v 0.223918758817 0.96819582686 0.069745021079
v 0.224040862282 0.810664127331 0.241828073804
v 0.287892147927 0.7900695134 0.241828073804
v 0.282276156063 0.94834400368 0.0790975593783
v 0.351621394068 0.923157813338 0.0796487018802
v 0.351621394068 0.928357156709 0.069745021079
v 0.292287297023 0.949559409677 0.069745021079
v 0.260422641971 0.96090326295 0.069745021079
v 0.52876915283 0.654077722257 0.241828073804
v 0.704573901398 0.704585126729 0.0659041156345
v 0.634862416958 0.763465349395 0.0659041156345
v 0.602631515473 0.789461810401 0.069745021079
v 0.598968923207 0.786423295407 0.0796487018802
v 0.223918758817 0.968465938402 0.0659041156345
v 0.311943204585 0.780616249037 0.241828073804
v 0.390933337116 0.898579389958 0.0895351718494
v 0.402287360347 0.903508557825 0.0796487018802
v 0.408025455677 0.906142001448 0.069745021079
v 0.373963258058 0.919849186802 0.0659041156345
v 0.351621394068 0.928559660414 0.0659041156345
v 0.307059769551 0.944630241811 0.0659041156345
v 0.260788952367 0.961038350702 0.0659041156345
v 0.556360698289 0.818361762611 0.0796487018802
v 0.518147622467 0.835512662253 0.0875027695435
v 0.329889983442 0.773053701509 0.241828073804
v 0.602875722404 0.789596898153 0.0659041156345
v 0.560999990354 0.821467885443 0.069745021079
v 0.434152015399 0.88919360551 0.0796487018802
v 0.440134253697 0.891894529047 0.069745021079
v 0.408513741614 0.906209481362 0.0659041156345
v 0.524374003734 0.839564079541 0.0796487018802
v 0.479568236249 0.865357908919 0.0796487018802
v 0.561244197285 0.821535365357 0.0659041156345
v 0.529257438768 0.842670138411 0.0659041156345
v 0.529013295799 0.842400026868 0.069745021079
v 0.440378396666 0.8920296168 0.0659041156345
v 0.479568236249 0.870962387622 0.069745021079
v 0.479568236249 0.871299979078 0.0659041156345
v 0.499102104308 0.860091149596 0.0659041156345
f 1 2 6
f 1 6 13
f 1 13 29
f 1 29 28
f 1 28 27
f 1 27 16
f 1 16 9
f 1 9 3
f 1 3 10
f 1 10 19
f 1 19 43
f 1 43 58
f 1 58 60
f 1 60 77
f 1 77 92
f 1 92 100
f 1 100 99
f 1 99 114
f 1 114 128
f 1 128 136
f 1 136 135
f 1 135 134
f 1 134 133
f 1 133 144
f 1 144 150
f 1 150 152
f 1 152 153
f 1 153 148
f 1 148 147
f 1 147 140
f 1 140 125
f 1 125 124
f 1 124 107
f 1 107 102
f 1 102 101
f 1 101 84
f 1 84 83
f 1 83 78
f 1 78 61
f 1 61 44
f 1 44 20
f 1 20 11
f 1 11 4
f 1 4 2
f 2 5 12
f 2 12 6
f 2 4 7
f 2 7 8
f 2 8 5
f 3 9 10
f 4 11 21
f 4 21 48
f 4 48 33
f 4 33 32
f 4 32 31
f 4 31 14
f 4 14 7
f 5 8 15
f 5 15 37
f 5 37 57
f 5 57 71
f 5 71 87
f 5 87 103
f 5 103 106
f 5 106 105
f 5 105 123
f 5 123 139
f 5 139 129
f 5 129 117
f 5 117 116
f 5 116 113
f 5 113 93
f 5 93 79
f 5 79 65
f 5 65 51
f 5 51 30
f 5 30 12
f 6 12 13
f 7 14 15
f 7 15 8
f 9 16 17
f 9 17 18
f 9 18 10
f 10 18 19
f 11 20 21
f 12 22 23
f 12 23 24
f 12 24 25
f 12 25 26
f 12 26 27
f 12 27 28
f 12 28 29
f 12 29 13
f 12 30 22
f 14 31 15
f 15 31 32
f 15 32 33
f 15 33 34
f 15 34 35
f 15 35 36
f 15 36 37
f 16 27 38
f 16 38 17
f 17 38 25
f 17 25 39
f 17 39 40
f 17 40 41
f 17 41 42
f 17 42 18
f 18 42 19
f 19 42 43
f 20 44 45
f 20 45 46
f 20 46 21
f 21 46 47
f 21 47 48
f 22 30 49
f 22 49 63
f 22 63 50
f 22 50 40
f 22 40 23
f 23 40 24
f 24 40 25
f 25 40 39
f 25 38 26
f 26 38 27
f 30 51 64
f 30 64 49
f 33 48 34
f 34 48 47
f 34 47 35
f 35 47 52
f 35 52 53
f 35 53 36
f 36 53 37
f 37 53 54
f 37 54 55
f 37 55 56
f 37 56 57
f 40 50 59
f 40 59 41
f 41 58 43
f 41 43 42
f 41 59 60
f 41 60 58
f 44 61 62
f 44 62 45
f 45 52 46
f 45 62 52
f 46 52 47
f 49 64 67
f 49 67 63
f 50 63 59
f 51 65 66
f 51 66 67
f 51 67 64
f 52 62 53
f 53 62 54
f 54 62 68
f 54 68 69
f 54 69 56
f 54 56 55
f 56 69 70
f 56 70 57
f 57 70 72
f 57 72 73
f 57 73 74
f 57 74 75
f 57 75 71
f 59 63 76
f 59 76 77
f 59 77 60
f 61 78 62
f 62 78 68
f 63 67 82
f 63 82 76
f 65 79 66
f 66 79 80
f 66 80 95
f 66 95 81
f 66 81 67
f 67 81 82
f 68 83 84
f 68 84 85
f 68 85 69
f 68 78 83
f 69 85 86
f 69 86 70
f 70 86 73
f 70 73 72
f 71 75 88
f 71 88 87
f 73 89 90
f 73 90 74
f 73 86 89
f 74 90 91
f 74 91 75
f 75 91 88
f 76 92 77
f 76 82 100
f 76 100 92
f 79 93 94
f 79 94 80
f 80 94 96
f 80 96 97
f 80 97 98
f 80 98 95
f 81 99 100
f 81 100 82
f 81 95 99
f 84 101 86
f 84 86 85
f 86 101 102
f 86 102 89
f 87 88 103
f 88 91 104
f 88 104 105
f 88 105 106
f 88 106 103
f 89 102 90
f 90 102 107
f 90 107 108
f 90 108 109
f 90 109 91
f 91 109 108
f 91 108 110
f 91 110 111
f 91 111 112
f 91 112 104
f 93 113 96
f 93 96 94
f 95 114 99
f 95 98 115
f 95 115 128
f 95 128 114
f 96 98 97
f 96 113 116
f 96 116 117
f 96 117 118
f 96 118 98
f 98 118 119
f 98 119 120
f 98 120 121
f 98 121 122
f 98 122 115
f 104 112 105
f 105 112 123
f 107 124 108
f 108 124 125
f 108 125 111
f 108 111 110
f 111 125 126
f 111 126 127
f 111 127 112
f 112 127 123
f 115 122 128
f 117 129 130
f 117 130 119
f 117 119 118
f 119 130 131
f 119 131 120
f 120 131 132
f 120 132 133
f 120 133 134
f 120 134 135
f 120 135 121
f 121 135 122
f 122 136 128
f 122 135 136
f 123 127 137
f 123 137 138
f 123 138 139
f 125 140 126
f 126 141 127
f 126 140 141
f 127 141 137
f 129 139 130
f 130 139 131
f 131 139 142
f 131 142 143
f 131 143 132
f 132 143 144
f 132 144 133
f 137 141 145
f 137 145 138
f 138 145 146
f 138 146 139
f 139 146 142
f 140 147 141
f 141 147 148
f 141 148 149
f 141 149 145
f 142 146 143
f 143 150 144
f 143 146 151
f 143 151 152
f 143 152 150
f 145 149 151
f 145 151 146
f 148 153 149
f 149 153 151
f 151 153 152
