# ABC bottle geometry; canonical radius 1 and height 1, bottom z=0.
# https://github.com/mikedh/trimesh
v -0.222896773919 -0.972952617126 0.406170131756
v -0.222896773919 -0.966588525664 0.395955893913
v -0.222896773919 -0.970332157789 0.416078315679
v -0.22402992478 -0.970207303957 0.416078315679
v -0.263465954116 -0.961846638545 0.416078315679
v -0.267243358178 -0.962969555485 0.406170131756
v -0.260897367964 -0.960972981534 0.0658868949055
v -0.225389820944 -0.968085876175 0.0658868949055
v -0.222896773919 -0.960723465757 0.390026282296
v -0.222896773919 -0.939509571705 0.456705736509
v -0.257346581281 -0.959600356931 0.421204560496
v -0.287943445454 -0.921914647831 0.456705736509
v -0.295573792706 -0.950615678209 0.416078315679
v -0.299275657642 -0.951863576905 0.406170131756
v -0.292778525212 -0.949617423215 0.0658868949055
v -0.225389820944 -0.724750683538 0.0658868949055
v -0.222896773919 -0.810729112727 0.24190074726
v -0.22402992478 -0.939260055927 0.456705736509
v -0.222896773919 -0.753950937357 0.456705736509
v -0.341129194876 -0.902946907469 0.456705736509
v -0.351932505254 -0.930400167075 0.416078315679
v -0.351932505254 -0.933020626412 0.406170131756
v -0.351932505254 -0.928528319032 0.0658868949055
v -0.698395107862 0.301624950063 0.0658868949055
v -0.632895137605 0.301624950063 0.172581672004
v -0.222896773919 -0.615062626869 0.24190074726
v -0.787012801216 -0.015210004616 0.435703424567
v -0.715771153758 -0.328051811393 0.456705736509
v -0.222896773919 -0.623298630335 0.257815056279
v -0.373085955213 -0.891216915578 0.456705736509
v -0.415846025928 -0.872124449308 0.456705736509
v -0.402776221943 -0.907064909202 0.416078315679
v -0.404740495082 -0.908437597767 0.406170131756
v -0.440701276862 -0.891965718758 0.0658868949055
v -0.408593438271 -0.906191380115 0.0658868949055
v -0.374219170036 -0.919793220049 0.0658868949055
v -0.946494446395 0.301624950063 0.0658868949055
v -0.796003044632 0.301624950063 0.172581672004
v -0.222896773919 -0.617183990689 0.247792107085
v -0.957750991532 -0.015210004616 0.435703424567
v -0.907587190945 -0.328051811393 0.456705736509
v -0.470995984528 -0.844296948017 0.456705736509
v -0.502952808827 -0.825953220964 0.456705736509
v -0.604338021736 -0.789889652245 0.416078315679
v -0.60615115266 -0.791511856587 0.406170131756
v -0.529318970216 -0.842674679713 0.0658868949055
v -0.479759546603 -0.871251048145 0.0658868949055
v -0.960999557747 0.260694704355 0.0658868949055
v -0.946192161964 0.301624950063 0.0697507118371
v -0.913404407273 0.301624950063 0.101732346939
v -0.969385424189 -0.015210004616 0.41550448932
v -0.98585480868 -0.0960721770764 0.416040063887
v -0.961075160835 -0.0402922567008 0.435703424567
v -0.917483967842 0.301624950063 0.0992074614766
v -0.928211803055 0.301624950063 0.091594612679
v -0.931082545713 0.301624950063 0.0895288278912
v -0.941281607041 0.301624950063 0.0792763283593
v -0.959639789507 -0.0768549209368 0.435703424567
v -0.957977672874 -0.107926958836 0.435703424567
v -0.981699645022 -0.159963311049 0.416040063887
v -0.959639789507 -0.257297426481 0.421204560496
v -0.961830616063 -0.263536728073 0.416040063887
v -0.950574006964 -0.295482295059 0.416040063887
v -0.938939574307 -0.328051811393 0.416078315679
v -0.901694499452 -0.344274174626 0.456705736509
v -0.539971202341 -0.801120484657 0.456705736509
v -0.54382414553 -0.798499961358 0.456705736509
v -0.577518497664 -0.774915123746 0.456705736509
v -0.58144697998 -0.771920230839 0.456705736509
v -0.635992561605 -0.764433030551 0.416078315679
v -0.637956834744 -0.766180088725 0.406170131756
v -0.602902586445 -0.789515282636 0.0658868949055
v -0.561426808806 -0.821460849622 0.0658868949055
v -0.964021506582 0.245969819557 0.0658868949055
v -0.960848543456 0.260195608838 0.0697507118371
v -0.98827238054 -0.0960721770764 0.406131879965
v -0.984268295136 -0.159963311049 0.406131879965
v -0.970140943378 -0.223979170929 0.416040063887
v -0.97270952953 -0.223979170929 0.406131879965
v -0.963114909139 -0.26715563429 0.406131879965
v -0.951858300039 -0.299225927184 0.406131879965
v -0.941659302674 -0.328051811393 0.406170131756
v -0.930327154448 -0.351761374913 0.416078315679
v -0.89119334558 -0.372975268966 0.456705736509
v -0.613252662064 -0.745090984542 0.456705736509
v -0.706327675582 -0.706406956486 0.414089034474
v -0.67761948146 -0.728494315663 0.416843440583
v -0.671500108625 -0.737728510162 0.406170131756
v -0.704590019823 -0.704535108442 0.0658868949055
v -0.634783807656 -0.763309985687 0.0658868949055
v -0.968478826746 0.22375767051 0.0658868949055
v -0.968176606277 0.22375767051 0.0697507118371
v -0.979735499807 0.159866600499 0.0697507118371
v -0.989254453148 0.095850676657 0.0697507118371
v -0.989481134489 0.095850676657 0.0658868949055
v -0.991520946755 0.0708932144418 0.0658868949055
v -0.994693973843 0.0318348167767 0.0658868949055
v -0.994693973843 -0.0320563171961 0.0658868949055
v -0.989481134489 -0.0960721770764 0.0658868949055
v -0.98585480868 -0.120904849422 0.0658868949055
v -0.980037656314 -0.159963311049 0.0658868949055
v -0.968478826746 -0.223979170929 0.0658868949055
v -0.960999557747 -0.260791414905 0.0658868949055
v -0.954124729685 -0.280383040653 0.0658868949055
v -0.933046946776 -0.351761374913 0.406170131756
v -0.936370988156 -0.330297965083 0.0658868949055
v -0.907058417059 -0.4026746183 0.416078315679
v -0.87389283881 -0.412033666631 0.456705736509
v -0.650951099603 -0.713145481518 0.456705736509
v -0.766086032598 -0.638023451171 0.406170131756
v -0.737680058944 -0.671341706722 0.406170131756
v -0.70708313081 -0.706906052002 0.406170131756
v -0.703003570241 -0.703037630008 0.420707247618
v -0.728387659022 -0.677581072276 0.416843440583
v -0.764423979928 -0.63602687722 0.416078315679
v -0.763366304232 -0.634778978524 0.0658868949055
v -0.980037656314 0.159866600499 0.0658868949055
v -0.908418249261 -0.404671192251 0.406170131756
v -0.928589498688 -0.351636585043 0.0658868949055
v -0.906227422704 -0.408414824376 0.0658868949055
v -0.892024403896 -0.440485181231 0.0658868949055
v -0.791470121379 -0.605953158277 0.406170131756
v -0.789959146962 -0.604081310234 0.416078315679
v -0.825919928741 -0.5027540469 0.456705736509
v -0.842464980283 -0.47405295256 0.456705736509
v -0.844278047245 -0.470808479914 0.456705736509
v -0.872155310975 -0.415777298755 0.456705736509
v -0.682907795978 -0.682822118874 0.456705736509
v -0.789581387367 -0.6028334755 0.0658868949055
v -0.710105079645 -0.654121024534 0.456705736509
v -0.713202503644 -0.65075182598 0.456705736509
v -0.716451069859 -0.647132983724 0.456705736509
v -0.769334598813 -0.584489748447 0.456705736509
v -0.77205432718 -0.581245275801 0.456705736509
v -0.871248713532 -0.479543578897 0.0658868949055
v -0.859992040471 -0.499135204645 0.0658868949055
v -0.842615994574 -0.529208923588 0.0658868949055
v -0.821613686831 -0.561154554536 0.0658868949055
v -0.798571630783 -0.543559502739 0.456705736509
f 1 2 9
f 1 9 17
f 1 17 26
f 1 26 39
f 1 39 29
f 1 29 19
f 1 19 10
f 1 10 3
f 1 3 4
f 1 4 5
f 1 5 6
f 1 6 7
f 1 7 8
f 1 8 2
f 2 8 9
f 3 10 4
f 4 10 11
f 4 11 5
f 5 11 12
f 5 12 13
f 5 13 14
f 5 14 6
f 6 14 7
f 7 15 23
f 7 23 36
f 7 36 35
f 7 35 34
f 7 34 47
f 7 47 46
f 7 46 73
f 7 73 72
f 7 72 90
f 7 90 89
f 7 89 116
f 7 116 129
f 7 129 138
f 7 138 137
f 7 137 136
f 7 136 135
f 7 135 121
f 7 121 120
f 7 120 119
f 7 119 106
f 7 106 104
f 7 104 103
f 7 103 102
f 7 102 101
f 7 101 100
f 7 100 99
f 7 99 98
f 7 98 97
f 7 97 96
f 7 96 95
f 7 95 117
f 7 117 91
f 7 91 74
f 7 74 48
f 7 48 37
f 7 37 24
f 7 24 16
f 7 16 8
f 7 14 15
f 8 16 26
f 8 26 17
f 8 17 9
f 10 18 11
f 10 19 28
f 10 28 41
f 10 41 65
f 10 65 84
f 10 84 108
f 10 108 127
f 10 127 126
f 10 126 125
f 10 125 124
f 10 124 139
f 10 139 134
f 10 134 133
f 10 133 132
f 10 132 131
f 10 131 130
f 10 130 128
f 10 128 109
f 10 109 85
f 10 85 69
f 10 69 68
f 10 68 67
f 10 67 66
f 10 66 43
f 10 43 42
f 10 42 31
f 10 31 30
f 10 30 20
f 10 20 12
f 10 12 18
f 11 18 12
f 12 20 13
f 13 20 21
f 13 21 22
f 13 22 14
f 14 22 23
f 14 23 15
f 16 24 25
f 16 25 26
f 19 27 28
f 19 29 25
f 19 25 27
f 20 30 21
f 21 30 31
f 21 31 32
f 21 32 22
f 22 32 33
f 22 33 34
f 22 34 35
f 22 35 36
f 22 36 23
f 24 37 49
f 24 49 57
f 24 57 56
f 24 56 55
f 24 55 54
f 24 54 50
f 24 50 38
f 24 38 25
f 25 38 40
f 25 40 27
f 25 29 39
f 25 39 26
f 27 40 41
f 27 41 28
f 31 42 32
f 32 42 43
f 32 43 44
f 32 44 45
f 32 45 33
f 33 45 46
f 33 46 47
f 33 47 34
f 37 48 49
f 38 50 40
f 40 51 52
f 40 52 53
f 40 53 41
f 40 50 54
f 40 54 55
f 40 55 56
f 40 56 57
f 40 57 51
f 41 53 58
f 41 58 59
f 41 59 60
f 41 60 61
f 41 61 62
f 41 62 63
f 41 63 64
f 41 64 83
f 41 83 65
f 43 66 44
f 44 66 67
f 44 67 68
f 44 68 69
f 44 69 70
f 44 70 71
f 44 71 45
f 45 71 72
f 45 72 73
f 45 73 46
f 48 74 75
f 48 75 49
f 49 75 51
f 49 51 57
f 51 76 52
f 51 75 76
f 52 76 77
f 52 77 60
f 52 60 59
f 52 59 58
f 52 58 53
f 60 77 79
f 60 79 78
f 60 78 61
f 61 78 62
f 62 78 79
f 62 79 80
f 62 80 81
f 62 81 63
f 63 81 82
f 63 82 64
f 64 82 105
f 64 105 83
f 65 83 84
f 69 85 70
f 70 86 71
f 70 85 87
f 70 87 86
f 71 86 88
f 71 88 89
f 71 89 90
f 71 90 72
f 74 91 92
f 74 92 75
f 75 92 76
f 76 92 93
f 76 93 94
f 76 94 95
f 76 95 96
f 76 96 97
f 76 97 98
f 76 98 77
f 77 98 99
f 77 99 100
f 77 100 101
f 77 101 102
f 77 102 79
f 79 102 103
f 79 103 80
f 80 103 104
f 80 104 81
f 81 104 82
f 82 104 106
f 82 106 105
f 83 105 107
f 83 107 108
f 83 108 84
f 85 109 87
f 86 110 111
f 86 111 112
f 86 112 88
f 86 87 113
f 86 113 114
f 86 114 115
f 86 115 110
f 87 109 113
f 88 112 89
f 89 112 111
f 89 111 110
f 89 110 116
f 91 117 93
f 91 93 92
f 93 117 94
f 94 117 95
f 105 118 107
f 105 106 119
f 105 119 120
f 105 120 121
f 105 121 118
f 107 118 122
f 107 122 123
f 107 123 124
f 107 124 125
f 107 125 126
f 107 126 127
f 107 127 108
f 109 128 113
f 110 115 123
f 110 123 122
f 110 122 129
f 110 129 116
f 113 128 130
f 113 130 131
f 113 131 132
f 113 132 114
f 114 132 115
f 115 132 133
f 115 133 134
f 115 134 123
f 118 121 135
f 118 135 136
f 118 136 137
f 118 137 122
f 122 137 138
f 122 138 129
f 123 134 139
f 123 139 124
