# ABC bottle geometry; canonical radius 1 and height 1, bottom z=0.
# https://github.com/mikedh/trimesh
v 0.566566475627 -0.327816431219 0.639994228483
v 0.566566475627 0.0532613844921 0.690809452347
v 0.566566475627 -0.327816431219 0.729608031764
v 0.143278598472 -0.327816431219 0.781304214677
v 0.566566475627 0.0532613844921 0.765516962967
v 0.327833477093 0.321971839153 0.828313578271
v 0.327833477093 0.361226216398 0.930754518618
v 0.344992627834 0.344836528564 0.930754518618
v 0.376942800085 0.311315129688 0.930754518618
v 0.400874247796 0.279345065254 0.930754518618
v 0.566566475627 -0.275747074612 0.741413217537
v 0.487792086935 -0.0319246833921 0.930754518618
v 0.479067029987 -0.0958648122598 0.930754518618
v 0.461907815284 -0.159804941128 0.930754518618
v 0.44869569584 -0.19393333942 0.9361461606
v 0.400874247796 -0.279321719123 0.930754518618
v 0.376942800085 -0.311291847518 0.930754518618
v 0.361279336842 -0.327749015267 0.930754518618
v 0.305854725398 -0.327816431219 0.977270528121
v 0.143278598472 -0.301781720935 0.793567521325
v 0.190269052161 0.146676036251 0.881278404368
v 0.193302002461 0.146676036251 0.873349545297
v 0.142115257545 -0.327816431219 0.873349545297
v 0.142115257545 -0.197373152026 0.873349545297
v 0.566566475627 0.0318805496094 0.765869374298
v 0.432824484009 0.227275708647 0.930754518618
v 0.44869569584 0.193956685552 0.9361461606
v 0.461907815284 0.159828287259 0.930754518618
v 0.479067029987 0.0958881583913 0.930754518618
v 0.487792086935 0.0318805496094 0.930754518618
v 0.162099737922 0.146676036251 0.990097675084
v 0.327833477093 0.305716983223 0.977305751439
v 0.372247925039 0.237797458284 0.980230622971
v 0.566566475627 -0.248835509217 0.746804849623
v 0.449318877643 -0.0319246833921 0.976107624172
v 0.447823190145 -0.0645692271568 0.975332335079
v 0.566566475627 -0.235008842839 0.748954451855
v 0.566566475627 -0.216663132964 0.751421232203
v 0.566566475627 -0.166752046254 0.757764309562
v 0.566566475627 -0.145303795419 0.760195836901
v 0.566566475627 -0.0959322921739 0.76467121734
v 0.566566475627 -0.0319921633062 0.765869374298
v 0.411385891436 -0.159804941128 0.980230622971
v 0.391484497703 -0.205804111681 0.980230622971
v 0.372247925039 -0.237774176115 0.980230622971
v 0.320521021 -0.320397222542 0.975543793754
v 0.295467807665 -0.327816431219 0.980301109196
v 0.143278598472 -0.284177970305 0.80223641648
v 0.142115257545 -0.327816431219 0.996793153877
v 0.143278598472 -0.219023778641 0.843924654006
v 0.143278598472 -0.22273338298 0.841387407227
v 0.143278598472 -0.235413530438 0.833211856266
v 0.143278598472 -0.279119407304 0.805407989799
v 0.142115257545 -0.194472922885 0.881278404368
v 0.391484497703 0.20582739385 0.980230622971
v 0.411385891436 0.159828287259 0.980230622971
v 0.447823190145 0.0645925732882 0.975332335079
v 0.449318877643 0.0318805496094 0.976107624172
v 0.142115257545 -0.16621246279 0.990097675084
v 0.142115257545 -0.166010150971 0.992176791091
v 0.142115257545 -0.174306150798 0.99658173479
v 0.142115257545 -0.181725359475 0.997321770874
v 0.171988071834 0.146676036251 0.996722667652
v 0.336641556722 0.288180712507 0.979384867447
v 0.327833477093 0.295330129452 0.980301109196
v 0.329121416003 0.267204565223 0.986890888343
v 0.385169273213 0.19436137315 0.985481312298
v 0.438765786624 -0.0319246833921 0.981076368598
v 0.433863162989 -0.0898619781964 0.979279157903
v 0.391983081524 -0.159804941128 0.986926101765
v 0.385169273213 -0.194338027019 0.985481312298
v 0.336641556722 -0.28822484629 0.979384867447
v 0.329121416003 -0.267181219091 0.986890888343
v 0.327874988434 -0.295374263235 0.980301109196
v 0.309967929981 -0.309875472905 0.982133563004
v 0.270165270439 -0.327816431219 0.986573720124
v 0.159980804657 -0.327816431219 0.996405529125
v 0.159980804657 -0.287820158691 0.998590364573
v 0.142115257545 -0.303130679596 0.998132243698
v 0.433863162989 0.0898853243278 0.979279157903
v 0.391983081524 0.159828287259 0.986926101765
v 0.438765786624 0.0318805496094 0.981076368598
v 0.142115257545 -0.223138070579 0.998942775904
v 0.142115257545 -0.241686092272 0.999506606322
v 0.223424076679 0.146676036251 0.999048485447
v 0.327833477093 0.26781156464 0.986996597887
v 0.327833477093 0.265585814829 0.987278513096
v 0.327833477093 0.228354875576 0.991436755007
v 0.347610144919 0.217225998599 0.989463348544
v 0.327833477093 0.201038622582 0.994361626539
v 0.363730680641 0.159828287259 0.991894875882
v 0.40220382597 -0.0255846416442 0.990908167702
v 0.401746817453 -0.0958648122598 0.988934761238
v 0.374948528766 -0.0958648122598 0.993868292243
v 0.363730680641 -0.159804941128 0.991894875882
v 0.327874988434 -0.193326340003 0.995066449201
v 0.323387861976 -0.197440631941 0.995454073954
v 0.327874988434 -0.201082756365 0.994361626539
v 0.347610144919 -0.217202716429 0.989463348544
v 0.327874988434 -0.270081448233 0.986573720124
v 0.327874988434 -0.228398945397 0.991436755007
v 0.307267326254 -0.240067341878 0.993480657593
v 0.327874988434 -0.26778828247 0.986996597887
v 0.267921675229 -0.327816431219 0.986996597887
v 0.177638539218 -0.327816431219 0.995841698707
v 0.19753986899 -0.323297451683 0.995454073954
v 0.223922660499 -0.223812549909 0.999154194991
v 0.142115257545 -0.287820158691 0.998872279782
v 0.220889710199 -0.286606095896 0.996652230912
v 0.401746817453 0.0958881583913 0.988934761238
v 0.374948528766 0.0958881583913 0.993868292243
v 0.40220382597 0.0256079238136 0.990908167702
v 0.287864580303 -0.0959322921739 0.999612315866
v 0.287864580303 -0.0319921633062 0.999999940618
v 0.287864580303 0.0318805496094 0.999999940618
v 0.287864580303 0.0958881583913 0.999612315866
v 0.287864580303 0.146676036251 0.998766570238
v 0.327833477093 0.177499517803 0.995841698707
v 0.383756608395 -2.20349103343e-05 0.995066449201
v 0.380972918025 -0.0426488088095 0.994749251292
v 0.342998356515 -0.0958648122598 0.996969359543
v 0.331780444428 -0.159804941128 0.996194110038
v 0.327874988434 -0.177543651586 0.995841698707
v 0.327874988434 -0.159872421042 0.996405529125
v 0.287864580303 -0.159872421042 0.998590364573
v 0.286701239376 -0.220777424902 0.996652230912
v 0.264597889698 -0.264483301768 0.995771202585
v 0.28728290984 -0.287213095312 0.990168161309
v 0.240167794205 -0.307177555581 0.993480657593
v 0.228534448902 -0.327816431219 0.991436755007
v 0.193426664406 -0.327816431219 0.995066449201
v 0.201196129017 -0.327816431219 0.994361626539
v 0.380972918025 0.0426721549409 0.994749251292
v 0.331780444428 0.159828287259 0.996194110038
v 0.342998356515 0.0958881583913 0.996969359543
v 0.383756608395 0.000180276907916 0.995066449201
v 0.327874988434 -0.0959322921739 0.997709395627
v 0.327874988434 -0.055059164535 0.997991310836
v 0.327833477093 -0.0282150790535 0.99816745712
v 0.327833477093 0.0282384251849 0.99816745712
v 0.356501375153 0.0256079238136 0.996828377196
v 0.327874988434 0.0958881583913 0.997709395627
v 0.327833477093 0.159828287259 0.996405529125
v 0.356501375153 -0.0255846416442 0.996828377196
v 0.327874988434 -0.11346856289 0.997427480418
f 1 2 5
f 1 5 25
f 1 25 42
f 1 42 41
f 1 41 40
f 1 40 39
f 1 39 38
f 1 38 37
f 1 37 34
f 1 34 11
f 1 11 3
f 1 3 19
f 1 19 47
f 1 47 76
f 1 76 104
f 1 104 130
f 1 130 132
f 1 132 131
f 1 131 105
f 1 105 77
f 1 77 49
f 1 49 23
f 1 23 4
f 1 4 2
f 2 4 6
f 2 6 7
f 2 7 8
f 2 8 9
f 2 9 10
f 2 10 5
f 3 11 12
f 3 12 13
f 3 13 14
f 3 14 15
f 3 15 16
f 3 16 17
f 3 17 18
f 3 18 19
f 4 20 21
f 4 21 22
f 4 22 6
f 4 23 24
f 4 24 20
f 5 10 26
f 5 26 27
f 5 27 28
f 5 28 29
f 5 29 30
f 5 30 25
f 6 22 21
f 6 21 7
f 7 21 31
f 7 31 32
f 7 32 8
f 8 32 9
f 9 32 10
f 10 32 33
f 10 33 27
f 10 27 26
f 11 34 12
f 12 30 58
f 12 58 35
f 12 35 36
f 12 36 13
f 12 34 37
f 12 37 38
f 12 38 39
f 12 39 40
f 12 40 41
f 12 41 42
f 12 42 25
f 12 25 30
f 13 36 15
f 13 15 14
f 15 36 43
f 15 43 44
f 15 44 45
f 15 45 16
f 16 45 46
f 16 46 17
f 17 46 18
f 18 46 19
f 19 46 47
f 20 24 48
f 20 48 21
f 21 48 31
f 23 49 79
f 23 79 108
f 23 108 84
f 23 84 83
f 23 83 62
f 23 62 61
f 23 61 60
f 23 60 59
f 23 59 54
f 23 54 24
f 24 50 51
f 24 51 52
f 24 52 53
f 24 53 48
f 24 54 31
f 24 31 50
f 27 33 55
f 27 55 56
f 27 56 57
f 27 57 29
f 27 29 28
f 29 57 30
f 30 57 58
f 31 59 60
f 31 60 61
f 31 61 62
f 31 62 63
f 31 63 32
f 31 48 53
f 31 53 52
f 31 52 51
f 31 51 50
f 31 54 59
f 32 64 33
f 32 63 65
f 32 65 64
f 33 64 66
f 33 66 67
f 33 67 55
f 35 58 82
f 35 82 68
f 35 68 36
f 36 68 69
f 36 69 43
f 43 69 70
f 43 70 71
f 43 71 44
f 44 71 45
f 45 72 46
f 45 71 73
f 45 73 72
f 46 72 74
f 46 74 75
f 46 75 47
f 47 75 76
f 49 77 78
f 49 78 79
f 55 67 56
f 56 80 57
f 56 67 81
f 56 81 80
f 57 80 82
f 57 82 58
f 62 83 63
f 63 83 84
f 63 84 85
f 63 85 86
f 63 86 65
f 64 65 66
f 65 86 66
f 66 86 87
f 66 87 88
f 66 88 89
f 66 89 67
f 67 89 90
f 67 90 91
f 67 91 81
f 68 82 112
f 68 112 92
f 68 92 93
f 68 93 69
f 69 93 70
f 70 93 94
f 70 94 95
f 70 95 71
f 71 95 96
f 71 96 97
f 71 97 98
f 71 98 99
f 71 99 73
f 72 73 100
f 72 100 74
f 73 99 101
f 73 101 102
f 73 102 103
f 73 103 104
f 73 104 76
f 73 76 100
f 74 100 75
f 75 100 76
f 77 105 106
f 77 106 78
f 78 107 108
f 78 108 79
f 78 106 109
f 78 109 107
f 80 81 110
f 80 110 82
f 81 91 111
f 81 111 110
f 82 110 112
f 84 107 113
f 84 113 114
f 84 114 115
f 84 115 85
f 84 108 107
f 85 90 88
f 85 88 87
f 85 87 86
f 85 115 116
f 85 116 117
f 85 117 90
f 88 90 89
f 90 117 118
f 90 118 91
f 91 118 111
f 92 112 136
f 92 136 119
f 92 119 120
f 92 120 93
f 93 120 94
f 94 120 121
f 94 121 122
f 94 122 123
f 94 123 97
f 94 97 96
f 94 96 95
f 97 123 122
f 97 122 124
f 97 124 125
f 97 125 126
f 97 126 127
f 97 127 102
f 97 102 98
f 98 102 101
f 98 101 99
f 102 128 103
f 102 127 128
f 103 128 104
f 104 128 129
f 104 129 130
f 105 131 106
f 106 127 109
f 106 131 132
f 106 132 129
f 106 129 127
f 107 109 127
f 107 127 126
f 107 126 125
f 107 125 113
f 110 111 133
f 110 133 112
f 111 118 134
f 111 134 135
f 111 135 133
f 112 133 136
f 113 125 137
f 113 137 138
f 113 138 139
f 113 139 114
f 114 139 140
f 114 140 115
f 115 140 116
f 116 140 141
f 116 141 142
f 116 142 117
f 117 142 135
f 117 135 143
f 117 143 118
f 118 143 134
f 119 136 141
f 119 141 144
f 119 144 120
f 120 144 121
f 121 144 137
f 121 137 145
f 121 145 122
f 122 145 125
f 122 125 124
f 125 145 137
f 127 129 128
f 129 132 130
f 133 135 141
f 133 141 136
f 134 143 135
f 135 142 141
f 137 144 138
f 138 144 139
f 139 144 141
f 139 141 140
