# ABC bottle geometry; canonical radius 1 and height 1, bottom z=0.
# https://github.com/mikedh/trimesh
v -0.222700858301 -0.947403250527 0.495299181415
v -0.223867909024 -0.947160642646 0.495299181415
v -0.222700858301 -0.947039306725 0.485402072202
v -0.222700858301 -0.945583723402 0.505196270833
v -0.223867909024 -0.945341179484 0.505196270833
v -0.287835797401 -0.929693834666 0.495299181415
v -0.287835797401 -0.929390654768 0.485402072202
v -0.223867909024 -0.946796762806 0.485402072202
v -0.222700858301 -0.945523151385 0.475504972886
v -0.222700858301 -0.945523151385 0.50540573032
v -0.223867909024 -0.941399009299 0.515093370149
v -0.287835797401 -0.927874435466 0.505196270833
v -0.38396998564 -0.895548614367 0.492471438753
v -0.38396998564 -0.895548614367 0.489538956451
v -0.383605274294 -0.895366642466 0.499069501664
v -0.358100809022 -0.904706566157 0.495613360748
v -0.357711792114 -0.904585230236 0.485925730816
v -0.382997443371 -0.895124098547 0.482940893539
v -0.287835797401 -0.927813735524 0.475504972886
v -0.223867909024 -0.945280543504 0.475504972886
v -0.223867909024 -0.942611920778 0.465607863674
v -0.222700858301 -0.942794020603 0.465607863674
v -0.222700858301 -0.941520281258 0.515302829636
v -0.223867909024 -0.936061891772 0.524990469465
v -0.287835797401 -0.92387156534 0.515093370149
v -0.34925083428 -0.906040813558 0.505196270833
v -0.409474450913 -0.883540195874 0.495613360748
v -0.409474450913 -0.883236952013 0.485925730816
v -0.381222561726 -0.894517546864 0.505196270833
v -0.415747268595 -0.878627594166 0.505196270833
v -0.415747268595 -0.878506386169 0.475504972886
v -0.381076728357 -0.894456910885 0.475504972886
v -0.349104936949 -0.905980177578 0.475504972886
v -0.287835797401 -0.925145176761 0.465607863674
v -0.223867909024 -0.939458338139 0.456705716715
v -0.222798144509 -0.939640182116 0.456705716715
v -0.222700858301 -0.922840497837 0.456705716715
v -0.222700858301 -0.936243863673 0.524990469465
v -0.222700858301 -0.936122591713 0.525199938849
v -0.222700858301 -0.929875742605 0.53488756878
v -0.223867909024 -0.929633198687 0.53488756878
v -0.287835797401 -0.918473811833 0.524990469465
v -0.343610153082 -0.903978742515 0.515093370149
v -0.471059690684 -0.852063534338 0.49645121849
v -0.471059690684 -0.852245506239 0.495351536389
v -0.471059690684 -0.851942198416 0.485454437074
v -0.37558194449 -0.892334267824 0.515093370149
v -0.415747268595 -0.874382180121 0.515093370149
v -0.471059690684 -0.850365407097 0.505196270833
v -0.471059690684 -0.846241265011 0.515093370149
v -0.471059690684 -0.850001463295 0.50608648355
v -0.471059690684 -0.850304771117 0.475504972886
v -0.471059690684 -0.84751481247 0.465607863674
v -0.415747268595 -0.875655919466 0.465607863674
v -0.377259539928 -0.893001327562 0.465607863674
v -0.345312054081 -0.904585230236 0.465607863674
v -0.344169372882 -0.901856099455 0.456705716715
v -0.287835797401 -0.921991466198 0.456705716715
v -0.222700858301 -0.754176595306 0.456705716715
v -0.222700858301 -0.922234010117 0.544784658199
v -0.287835797401 -0.911802446905 0.53488756878
v -0.223867909024 -0.921991466198 0.544784658199
v -0.266318659488 -0.835203150117 0.641975225923
v -0.336024451309 -0.901249547772 0.524990469465
v -0.367996242717 -0.889483801121 0.524990469465
v -0.415747268595 -0.868620674698 0.524990469465
v -0.46746131627 -0.842541702707 0.524990469465
v -0.471059690684 -0.844543009846 0.518130582195
v -0.471059690684 -0.844300465927 0.456705716715
v -0.415747268595 -0.872320237002 0.456705716715
v -0.411857163481 -0.874079000223 0.456705716715
v -0.372883195661 -0.891363900263 0.456705716715
v -0.471059690684 -0.630271320263 0.456705716715
v -0.222700858301 -0.327877067199 0.762049559298
v -0.222700858301 -0.844239829948 0.644593499201
v -0.320998945093 -0.895851922189 0.540333594617
v -0.326688173452 -0.89791392927 0.53488756878
v -0.229848932044 -0.842541702707 0.644645873969
v -0.255158952824 -0.831260979932 0.648573288834
v -0.287714205632 -0.824286435106 0.644645873969
v -0.358660028822 -0.886208754637 0.53488756878
v -0.415747268595 -0.861706573965 0.53488756878
v -0.461139951427 -0.839024048342 0.53488756878
v -0.471059690684 -0.840479631664 0.524990469465
v -0.471059690684 -0.327877067199 0.688214041072
v -0.252217020456 -0.327877067199 0.75314741234
v -0.222700858301 -0.327877067199 0.991672718582
v -0.222700858301 -0.3814298306 0.980204663217
v -0.357857689445 -0.788564359524 0.644541134329
v -0.44895902741 -0.832170711513 0.550387788548
v -0.415747268595 -0.853640325657 0.544784658199
v -0.453627166338 -0.834778634297 0.544784658199
v -0.471059690684 -0.833262414995 0.53488756878
v -0.471059690684 -0.327877067199 0.763777629756
v -0.228487436829 -0.327877067199 0.991410894223
v -0.222700858301 -0.33806602253 0.990415951763
v -0.222700858301 -0.345586483059 0.989211549816
v -0.267291201757 -0.32915067862 0.986855081103
v -0.23787232581 -0.372332514789 0.980204663217
v -0.471059690684 -0.709599811795 0.650982102625
v -0.471059690684 -0.719728131146 0.643860381099
v -0.471059690684 -0.815431663213 0.553634450183
v -0.471059690684 -0.824528979024 0.544784658199
v -0.471059690684 -0.407326766728 0.745292552919
v -0.361285797005 -0.327877067199 0.930719146845
v -0.265686523004 -0.327877067199 0.987274000077
v -0.26789903268 -0.327877067199 0.986959820744
v -0.295421499174 -0.327877067199 0.980309373167
v -0.288297730993 -0.336610439208 0.979366795578
v -0.305827541547 -0.327877067199 0.977272180915
v -0.471059690684 -0.695711230198 0.656847067229
v -0.471059690684 -0.422913539527 0.74126040831
v -0.471059690684 -0.454754080903 0.732777180325
v -0.471059690684 -0.471068549421 0.728378461821
v -0.471059690684 -0.526804719786 0.713035346566
v -0.471059690684 -0.532384381232 0.71146438062
v -0.471059690684 -0.563618434887 0.702405129149
v -0.471059690684 -0.588423795457 0.695073948136
v -0.471059690684 -0.628633829002 0.682663295389
v -0.471059690684 -0.649254347545 0.675593928838
f 1 2 8
f 1 8 3
f 1 3 9
f 1 9 22
f 1 22 37
f 1 37 59
f 1 59 74
f 1 74 87
f 1 87 96
f 1 96 97
f 1 97 88
f 1 88 75
f 1 75 60
f 1 60 40
f 1 40 39
f 1 39 38
f 1 38 23
f 1 23 10
f 1 10 4
f 1 4 5
f 1 5 2
f 2 5 12
f 2 12 6
f 2 6 7
f 2 7 8
f 3 8 20
f 3 20 9
f 4 10 5
f 5 10 11
f 5 11 12
f 6 13 14
f 6 14 7
f 6 12 15
f 6 15 16
f 6 16 13
f 7 14 17
f 7 17 18
f 7 18 19
f 7 19 20
f 7 20 8
f 9 20 21
f 9 21 22
f 10 23 11
f 11 23 24
f 11 24 25
f 11 25 12
f 12 26 15
f 12 25 26
f 13 16 15
f 13 15 27
f 13 27 14
f 14 27 28
f 14 28 18
f 14 18 17
f 15 26 29
f 15 29 30
f 15 30 27
f 18 28 31
f 18 31 32
f 18 32 33
f 18 33 19
f 19 33 34
f 19 34 21
f 19 21 20
f 21 34 58
f 21 58 35
f 21 35 36
f 21 36 22
f 22 36 37
f 23 38 24
f 24 38 39
f 24 39 40
f 24 40 41
f 24 41 42
f 24 42 25
f 25 42 43
f 25 43 26
f 26 43 29
f 27 30 44
f 27 44 45
f 27 45 46
f 27 46 28
f 28 46 31
f 29 43 47
f 29 47 48
f 29 48 30
f 30 49 44
f 30 48 50
f 30 50 51
f 30 51 49
f 31 46 52
f 31 52 53
f 31 53 54
f 31 54 32
f 32 54 55
f 32 55 56
f 32 56 33
f 33 56 34
f 34 56 57
f 34 57 58
f 35 58 57
f 35 57 72
f 35 72 71
f 35 71 70
f 35 70 69
f 35 69 73
f 35 73 59
f 35 59 37
f 35 37 36
f 40 60 62
f 40 62 41
f 41 61 42
f 41 62 63
f 41 63 61
f 42 61 64
f 42 64 43
f 43 64 47
f 44 49 51
f 44 51 50
f 44 50 68
f 44 68 84
f 44 84 93
f 44 93 103
f 44 103 102
f 44 102 101
f 44 101 100
f 44 100 111
f 44 111 120
f 44 120 119
f 44 119 118
f 44 118 117
f 44 117 116
f 44 116 115
f 44 115 114
f 44 114 113
f 44 113 112
f 44 112 104
f 44 104 94
f 44 94 85
f 44 85 73
f 44 73 69
f 44 69 53
f 44 53 52
f 44 52 46
f 44 46 45
f 47 64 65
f 47 65 66
f 47 66 48
f 48 66 67
f 48 67 50
f 50 67 68
f 53 69 54
f 54 69 70
f 54 70 71
f 54 71 55
f 55 71 72
f 55 72 57
f 55 57 56
f 59 73 74
f 60 75 62
f 61 76 77
f 61 77 64
f 61 63 76
f 62 75 78
f 62 78 63
f 63 78 79
f 63 79 80
f 63 80 81
f 63 81 76
f 64 77 81
f 64 81 65
f 65 81 82
f 65 82 66
f 66 82 83
f 66 83 67
f 67 83 84
f 67 84 68
f 73 85 86
f 73 86 74
f 74 86 85
f 74 85 94
f 74 94 105
f 74 105 110
f 74 110 108
f 74 108 107
f 74 107 106
f 74 106 95
f 74 95 87
f 75 88 78
f 76 81 77
f 78 88 79
f 79 88 80
f 80 89 90
f 80 90 91
f 80 91 81
f 80 88 89
f 81 91 82
f 82 91 92
f 82 92 83
f 83 93 84
f 83 92 93
f 87 95 96
f 88 97 98
f 88 98 99
f 88 99 89
f 89 100 101
f 89 101 102
f 89 102 90
f 89 99 100
f 90 102 103
f 90 103 92
f 90 92 91
f 92 103 93
f 94 104 105
f 95 106 97
f 95 97 96
f 97 106 98
f 98 106 107
f 98 107 108
f 98 108 109
f 98 109 99
f 99 109 110
f 99 110 100
f 100 110 105
f 100 105 111
f 104 112 105
f 105 112 113
f 105 113 114
f 105 114 115
f 105 115 116
f 105 116 117
f 105 117 118
f 105 118 119
f 105 119 120
f 105 120 111
f 108 110 109
