# ABC bottle geometry; canonical radius 1 and height 1, bottom z=0.
# https://github.com/mikedh/trimesh
v -0.824012198014 -0.014928763685 0.241905230588
v -0.655456839004 -0.014928763685 0.241905230588
v -0.948531508294 -0.014928763685 0.376203757407
v -0.839003292672 0.0314134350952 0.172561551463
v -0.701460550859 0.0314134350952 0.172561551463
v -0.696494796726 0.0314134350952 0.176227518054
v -0.0311741852197 0.701375065641 0.172561551463
v -0.0311741852197 0.693179869933 0.178757569735
v -0.0311741852197 0.68137478665 0.188567902309
v -0.0311741852197 0.670838005942 0.198429906967
v -0.0311741852197 0.662252514086 0.208343504533
v -0.0311741852197 0.656008543268 0.218360396781
v -0.0311741852197 0.653276790044 0.228119106756
v -0.0311741852197 0.653276790044 0.228222371748
v -0.0311741852197 0.653862170304 0.238135999005
v -0.70933088355 -0.014928763685 0.593373944497
v -0.970268483614 -0.014928763685 0.406564219231
v -0.946470204795 0.301954226459 0.0658868949055
v -0.698368691554 0.301954226459 0.0658868949055
v -0.0311741852197 0.838938211333 0.172561551463
v -0.30185594884 0.698350622288 0.0658868949055
v -0.0311741852197 0.655228014935 0.241905230588
v -0.174713300933 0.685569990522 0.593373944497
v -0.891940293861 -0.014928763685 0.593373944497
v -0.973828864598 -0.014928763685 0.485305190756
v -0.988351373615 0.095999772088 0.406202781862
v -0.928668363839 0.351906248852 0.0658868949055
v -0.984322598877 0.159903250728 0.406202781862
v -0.972798180867 0.223904207461 0.406202781862
v -0.963147785609 0.267124420832 0.406202781862
v -0.95199812098 0.29912493118 0.406202781862
v -0.174713300933 0.981769715398 0.406202781862
v -0.0311741852197 0.825181967122 0.241905230588
v -0.30185594884 0.946549613623 0.0658868949055
v -0.174713300933 0.872889946571 0.593373944497
v -0.89681240762 -0.014928763685 0.590172680266
v -0.891940293861 0.0320963574105 0.593373944497
v -0.974109849681 -0.014928763685 0.495218798219
v -0.974109849681 0.0320963574105 0.495218798219
v -0.972329723151 0.0320963574105 0.505132425476
v -0.906275458169 0.408590016304 0.0658868949055
v -0.93307195592 0.351906248852 0.406202781862
v -0.967082856011 0.095999772088 0.505132425476
v -0.981792901624 0.159903250728 0.416116399222
v -0.970174779278 0.223904207461 0.416116399222
v -0.961836052834 0.263417055164 0.416116399222
v -0.950592683869 0.295612649623 0.416116399222
v -0.223996280766 0.972793991356 0.406202781862
v -0.223996280766 0.970257386206 0.416116399222
v -0.174713300933 0.979135568192 0.416116399222
v -0.174713300933 0.954647395199 0.505132425476
v -0.174713300933 0.950647275439 0.515046042835
v -0.174713300933 0.94528137501 0.524908017802
v -0.174713300933 0.943817860399 0.527179897107
v -0.174713300933 0.938647108044 0.534821645059
v -0.174713300933 0.931427460819 0.544683629923
v -0.174713300933 0.922549278834 0.554648879778
v -0.174713300933 0.912012562088 0.564510864642
v -0.174713300933 0.909280744902 0.566885999042
v -0.174713300933 0.900987943176 0.573701607265
v -0.174713300933 0.89698795134 0.576851258794
v -0.174713300933 0.891914677079 0.580465582993
v -0.351888499396 0.92859816554 0.0658868949055
v -0.299232483289 0.951915578014 0.406202781862
v -0.267189182361 0.963135281037 0.406202781862
v -0.223996280766 0.862255623807 0.593373944497
v -0.18323943605 0.893768359913 0.578090438696
v -0.223996280766 0.875816847868 0.584338099361
v -0.89681240762 0.0320963574105 0.590172680266
v -0.905057493691 -0.014928763685 0.584338099361
v -0.886787131057 0.0911216459006 0.593373944497
v -0.895875492187 0.0674140012411 0.589553070521
v -0.972329723151 -0.014928763685 0.505132425476
v -0.96858206142 0.0320963574105 0.514994410339
v -0.892033998197 0.440590526652 0.0658868949055
v -0.930354849995 0.351906248852 0.416116399222
v -0.895313394097 0.383711611126 0.498988049596
v -0.907118733228 0.402833819728 0.416116399222
v -0.908524234301 0.40478510858 0.406202781862
v -0.96286660864 0.0987315253114 0.515046042835
v -0.960149502715 0.132293028364 0.511793136211
v -0.961180186446 0.138829753273 0.505132425476
v -0.955371221216 0.170927805677 0.505132425476
v -0.945252240317 0.223904207461 0.505132425476
v -0.927825152742 0.287905228156 0.505132425476
v -0.905994473086 0.34936957974 0.505132425476
v -0.263441456668 0.961866978462 0.416116399222
v -0.223996280766 0.945378853104 0.505132425476
v -0.223996280766 0.94128125525 0.514994410339
v -0.223996280766 0.935915354821 0.524908017802
v -0.223996280766 0.929573777985 0.534821645059
v -0.223996280766 0.921866356518 0.544683629923
v -0.223996280766 0.912890568515 0.554648879778
v -0.22493326016 0.901963555621 0.564459232146
v -0.204226840646 0.898158647897 0.571533012746
v -0.408573354202 0.906256365511 0.0658868949055
v -0.351982203731 0.932988453524 0.406202781862
v -0.351982203731 0.930354242356 0.416116399222
v -0.295391053261 0.950647275439 0.416116399222
v -0.287989242248 0.85679211736 0.584338099361
v -0.289113566353 0.842548034945 0.593373944497
v -0.22493326016 0.889182987817 0.574682644481
v -0.24685758019 0.893280585671 0.567712128873
v -0.905057493691 0.0320963574105 0.584338099361
v -0.918361974269 -0.014928763685 0.574424472105
v -0.876012347733 0.160000792783 0.593373944497
v -0.892971041554 0.110048770391 0.587539373489
v -0.899997971261 0.0916094841042 0.584286456969
v -0.912740353749 0.095999772088 0.574424472105
v -0.918361974269 0.0320963574105 0.574424472105
v -0.96858206142 -0.014928763685 0.514994410339
v -0.960149502715 0.0190229715529 0.531155668571
v -0.962679263931 0.0371696316717 0.525785799923
v -0.959212587283 0.0616578046645 0.529658306395
v -0.961180186446 0.079121478506 0.523049228156
v -0.871233938309 0.479810684225 0.0658868949055
v -0.894376350741 0.381370090088 0.505132425476
v -0.878542108948 0.415809663529 0.505132425476
v -0.847529363826 0.476786240872 0.505132425476
v -0.830477157555 0.509957511738 0.495218798219
v -0.791500439369 0.605958978819 0.406202781862
v -0.842563609693 0.529274868414 0.0658868949055
v -0.958463080521 0.121853853674 0.518350591852
v -0.954153128814 0.156195885059 0.515046042835
v -0.941317041991 0.223904207461 0.514994410339
v -0.928387250832 0.271222082648 0.514994410339
v -0.92379625008 0.287905228156 0.514994410339
v -0.903839465252 0.343710989182 0.514994410339
v -0.287989242248 0.927720095151 0.505132425476
v -0.287989242248 0.923817581408 0.514994410339
v -0.287989242248 0.918354074962 0.524908017802
v -0.287989242248 0.91162226594 0.534821645059
v -0.27084326768 0.900695253046 0.554648879778
v -0.26119280846 0.897085493396 0.561154683129
v -0.421034623683 0.900792795102 0.0658868949055
v -0.404544515502 0.908500280531 0.406202781862
v -0.402858029346 0.906939287826 0.416116399222
v -0.383744455615 0.895329352617 0.498988049596
v -0.44061665513 0.892012155173 0.0658868949055
v -0.349358802143 0.905963675381 0.505132425476
v -0.338677659192 0.838352831073 0.584338099361
v -0.325841572368 0.83366985296 0.590637372729
v -0.287989242248 0.870841179625 0.574424472105
v -0.296983899043 0.839718739666 0.593373944497
v -0.930354849995 -0.014928763685 0.564510864642
v -0.862239345477 0.223904207461 0.593373944497
v -0.875731298688 0.223904207461 0.584338099361
v -0.893720548315 0.183220663201 0.578090438696
v -0.889035843227 0.161074011246 0.584286456969
v -0.897561914382 0.14058583009 0.580930305147
v -0.902246683431 0.161074011246 0.574682644481
v -0.914989065919 0.159903250728 0.564510864642
v -0.924826933811 0.095999772088 0.564510864642
v -0.930354849995 0.0320963574105 0.564510864642
v -0.960149502715 -0.014928763685 0.531155668571
v -0.949093670346 0.0320963574105 0.544683629923
v -0.956870234739 0.0371696316717 0.534615105178
v -0.95705764341 0.0987315253114 0.525785799923
v -0.943659394535 0.095999772088 0.544683629923
v -0.951342318554 0.095999772088 0.534821645059
v -0.892221406868 0.375613893511 0.514994410339
v -0.874138452905 0.415809663529 0.514994410339
v -0.845374483915 0.472883727129 0.514994410339
v -0.829352769489 0.508396455072 0.505132425476
v -0.789907593587 0.604202838041 0.416116399222
v -0.766203083065 0.637959489167 0.406202781862
v -0.789626544542 0.60283699341 0.0658868949055
v -0.821576141134 0.561275378762 0.0658868949055
v -0.834505932293 0.541665267994 0.0658868949055
v -0.941691795372 0.159903250728 0.534821645059
v -0.947969346242 0.159903250728 0.524908017802
v -0.935976470516 0.223904207461 0.524908017802
v -0.918361974269 0.287905228156 0.524908017802
v -0.901216063663 0.336101109771 0.524908017802
v -0.34373711766 0.903817238455 0.514994410339
v -0.336054257603 0.90118309125 0.524908017802
v -0.326778551763 0.897865957767 0.534821645059
v -0.321156867281 0.895817190821 0.540243156099
v -0.290331594792 0.903622154344 0.544012387682
v -0.313192894217 0.892890289524 0.546800601843
v -0.302792928235 0.889182987817 0.554648879778
v -0.351982203731 0.871328953866 0.554648879778
v -0.351982203731 0.860206856861 0.564510864642
v -0.284709974272 0.884597487798 0.564459232146
v -0.6059864505 0.791425252034 0.406202781862
v -0.510137532798 0.830547867551 0.495218798219
v -0.476688858721 0.847523767151 0.505132425476
v -0.46478968733 0.879231523407 0.0658868949055
v -0.479780718026 0.871231347848 0.0658868949055
v -0.509856483753 0.853865280025 0.0658868949055
v -0.529251106529 0.842645577001 0.0658868949055
v -0.415787756543 0.878451059035 0.505132425476
v -0.381308398735 0.894451282228 0.505132425476
v -0.37072096012 0.826255121623 0.584338099361
v -0.381683152116 0.830547867551 0.578710048441
v -0.344111935003 0.822059917751 0.593373944497
v -0.356947957864 0.844596865853 0.574992449354
v -0.940380126558 -0.014928763685 0.554648879778
v -0.842469905358 0.289075988675 0.593373944497
v -0.856711429292 0.287905228156 0.584338099361
v -0.861770951722 0.271222082648 0.584338099361
v -0.893158386263 0.246831387749 0.567712128873
v -0.889129483601 0.22478227785 0.574682644481
v -0.898030500022 0.204099076544 0.571533012746
v -0.90205927476 0.22478227785 0.564459232146
v -0.912834058084 0.223904207461 0.554648879778
v -0.925482736236 0.159903250728 0.554648879778
v -0.935133259419 0.095999772088 0.554648879778
v -0.940380126558 0.0320963574105 0.554648879778
v -0.949093670346 -0.014928763685 0.544683629923
v -0.934196280024 0.159903250728 0.544683629923
v -0.889410596608 0.368004014101 0.524908017802
v -0.868516832385 0.415809663529 0.524908017802
v -0.842469905358 0.467810452868 0.524908017802
v -0.82410590235 0.49942073103 0.524908017802
v -0.82691671261 0.504494005291 0.514994410339
v -0.800682376911 0.543616556846 0.514994410339
v -0.80555449067 0.543616556846 0.505132425476
v -0.764610237283 0.636008200315 0.416116399222
v -0.775572493241 0.585763551754 0.505132425476
v -0.706332664618 0.706448339902 0.414102702191
v -0.737626394823 0.671520992219 0.406202781862
v -0.710455207654 0.697667699972 0.0658868949055
v -0.763485913179 0.63473989774 0.0658868949055
v -0.929511638898 0.223904207461 0.534821645059
v -0.916394375106 0.271222082648 0.534821645059
v -0.911616093607 0.287905228156 0.534821645059
v -0.897749323053 0.3268326956 0.534821645059
v -0.886037624296 0.358735599929 0.534821645059
v -0.375686778215 0.892304973226 0.514994410339
v -0.368191262867 0.889280465911 0.524908017802
v -0.358821852692 0.886158480502 0.534821645059
v -0.346266878875 0.883426727279 0.544012387682
v -0.415787756543 0.853475047839 0.544683629923
v -0.418973384146 0.843035873149 0.55402927993
v -0.401358887899 0.839913823778 0.564510864642
v -0.391427379634 0.835035761552 0.572152612594
v -0.63802981539 0.76615661467 0.406202781862
v -0.604206260008 0.790059407403 0.416116399222
v -0.508638455313 0.829377107032 0.505132425476
v -0.561294407458 0.821669621603 0.0658868949055
v -0.602800886859 0.789669111255 0.0658868949055
v -0.47284736473 0.845377330225 0.514994410339
v -0.415787756543 0.874255855163 0.514994410339
v -0.42009770825 0.787522802253 0.593373944497
v -0.350670470956 0.819425706583 0.593373944497
v -0.414007566051 0.819425706583 0.574992449354
v -0.415787756543 0.804401159797 0.584338099361
v -0.839659095097 0.297173642328 0.593373944497
v -0.833662721196 0.325857019192 0.590637372729
v -0.838347426284 0.33863771492 0.584338099361
v -0.870859184929 0.287905228156 0.574424472105
v -0.897280865337 0.261075534126 0.561154683129
v -0.921922419215 0.223904207461 0.544683629923
v -0.861677247387 0.415809663529 0.534821645059
v -0.838909588336 0.46127379192 0.534821645059
v -0.794592362636 0.543616556846 0.524908017802
v -0.820358176657 0.493079154194 0.534821645059
v -0.784473381738 0.54800684483 0.534202035314
v -0.76995087272 0.578739052603 0.524908017802
v -0.773136436361 0.582739108401 0.514994410339
v -0.746433706908 0.614544470675 0.514994410339
v -0.74877599549 0.617666456084 0.505132425476
v -0.716826398898 0.655228014935 0.505132425476
v -0.687312795222 0.687326067338 0.505132425476
v -0.655269494294 0.71669243048 0.505132425476
v -0.617510804548 0.748790482884 0.505132425476
v -0.636062216227 0.764595621965 0.416116399222
v -0.671478489468 0.73786346999 0.406202781862
v -0.707082235342 0.70713132618 0.406202781862
v -0.704552474126 0.704594657068 0.0658868949055
v -0.900653837649 0.270734244445 0.554648879778
v -0.903464711871 0.290246749194 0.544012387682
v -0.895688147478 0.321076499023 0.540243156099
v -0.883414222707 0.346247594331 0.544012387682
v -0.853525865651 0.415809663529 0.544683629923
v -0.415787756543 0.868499658587 0.524908017802
v -0.415787756543 0.861572765453 0.534821645059
v -0.453733790999 0.834743071423 0.544683629923
v -0.449236494582 0.832108860255 0.550311680843
v -0.442303141287 0.828499036643 0.556920739289
v -0.43340225279 0.823816058529 0.564510864642
v -0.61526215634 0.779522626695 0.0658868949055
v -0.634750483452 0.763424797484 0.0658868949055
v -0.697712825166 0.7104483957 0.0658868949055
v -0.585561207955 0.775522634859 0.505132425476
v -0.543679975173 0.80566939841 0.505132425476
v -0.543679975173 0.800986420297 0.514994410339
v -0.504797025285 0.826938043938 0.514994410339
v -0.467694201926 0.842548034945 0.524908017802
v -0.436306767385 0.77883970438 0.593373944497
v -0.464508574323 0.777668943861 0.584338099361
v -0.454670770393 0.771620121116 0.591721684834
v -0.822044726775 0.344101221367 0.593373944497
v -0.826260846222 0.370735767324 0.584338099361
v -0.830477157555 0.381662780218 0.578710048441
v -0.844812257901 0.356979459151 0.574992449354
v -0.860271746314 0.351906248852 0.564510864642
v -0.884632187185 0.284685636729 0.564459232146
v -0.871327642645 0.351906248852 0.554648879778
v -0.889129483601 0.30273469083 0.554648879778
v -0.834599636629 0.453761454565 0.544683629923
v -0.767889569222 0.576104841436 0.530432813628
v -0.815860816278 0.485664422857 0.544683629923
v -0.783911219686 0.535421297176 0.544683629923
v -0.764985054626 0.572202327693 0.537041891868
v -0.71092366537 0.648398663857 0.524908017802
v -0.714390342018 0.652398719655 0.514994410339
v -0.684408280627 0.684204081929 0.514994410339
v -0.652364979698 0.714448515461 0.514994410339
v -0.614606289952 0.746448961846 0.514994410339
v -0.892971041554 0.313173929482 0.546800601843
v -0.843219540043 0.418931648938 0.55402927993
v -0.831976171078 0.449078476452 0.550311680843
v -0.461323010682 0.838938211333 0.534821645059
v -0.493272607275 0.820401319028 0.534821645059
v -0.485870860225 0.816011031044 0.544683629923
v -0.474252801841 0.812889045635 0.55402927993
v -0.479874422362 0.796986300536 0.564510864642
v -0.482591528286 0.78225444388 0.573908147146
v -0.582562925062 0.773181113821 0.514994410339
v -0.578721558995 0.769961522394 0.524908017802
v -0.543679975173 0.794547301405 0.524908017802
v -0.499643798519 0.824108748659 0.524908017802
v -0.467038335538 0.760693108223 0.593373944497
v -0.496551939213 0.757278432684 0.584338099361
v -0.513416864737 0.768693219819 0.570242180554
v -0.505827645053 0.763327255428 0.576851258794
v -0.479968126697 0.752302700479 0.593373944497
v -0.819327556888 0.350735488333 0.593373944497
v -0.790376115265 0.414151128769 0.593373944497
v -0.819327556888 0.414151128769 0.574992449354
v -0.835068158307 0.391516574648 0.572152612594
v -0.804430230528 0.415809663529 0.584338099361
v -0.839940144142 0.401370369079 0.564510864642
v -0.743060670634 0.601568690835 0.534202035314
v -0.812956365644 0.474152029704 0.55402927993
v -0.778758056882 0.527908959821 0.554648879778
v -0.760956215926 0.567129117394 0.544683629923
v -0.724321850283 0.612105407581 0.544167295067
v -0.704177656784 0.640398552261 0.540501318578
v -0.706801122335 0.64352053767 0.534821645059
v -0.680285737591 0.680301568187 0.524908017802
v -0.648242372701 0.71103377596 0.524908017802
v -0.610577451252 0.743034286308 0.524908017802
v -0.828415854057 0.44234666743 0.556920739289
v -0.535434953064 0.784010520697 0.544683629923
v -0.54798992688 0.784400752882 0.534202035314
v -0.527939437716 0.778644620268 0.554648879778
v -0.519038485257 0.772595733562 0.564510864642
v -0.576285502115 0.768010297504 0.530432813628
v -0.530000677253 0.717082662666 0.593373944497
v -0.525597085172 0.720204648075 0.593373944497
v -0.53833946766 0.743619666567 0.573908147146
v -0.546303440724 0.721375408594 0.583563582232
v -0.55098808185 0.748497792754 0.564510864642
v -0.787377896334 0.420004867401 0.593373944497
v -0.823824853305 0.433370879427 0.564510864642
v -0.777540028442 0.464688467459 0.584338099361
v -0.778851761217 0.436200238668 0.593373944497
v -0.771543590579 0.454639524955 0.591721684834
v -0.79693471518 0.479908226281 0.564510864642
v -0.755334595405 0.559714322095 0.554648879778
v -0.772480569974 0.519030777836 0.564510864642
v -0.723291294477 0.599129627742 0.554648879778
v -0.700429931091 0.636105806333 0.547110396818
v -0.66398297412 0.664203802938 0.554648879778
v -0.670541574035 0.670447773756 0.543805857698
v -0.675413623832 0.675521048017 0.534821645059
v -0.643464027239 0.706936178106 0.534821645059
v -0.572350367751 0.764888248133 0.537041891868
v -0.567384549657 0.760888192335 0.544683629923
v -0.559795329973 0.755229601776 0.554648879778
v -0.640278399636 0.704301966938 0.540501318578
v -0.533186240894 0.714643599572 0.593373944497
v -0.581719713965 0.708692318884 0.574424472105
v -0.576472846825 0.704301966938 0.579742708256
v -0.590901715469 0.716497282407 0.564510864642
v -0.782131029194 0.482639979504 0.573908147146
v -0.757208490233 0.496298745621 0.584338099361
v -0.76329856847 0.505664701848 0.576851258794
v -0.760675102919 0.467029988497 0.593373944497
v -0.768545435609 0.513177039203 0.570242180554
v -0.748588586819 0.551031288183 0.564510864642
v -0.716451581555 0.591031910127 0.564510864642
v -0.689467739095 0.623129962531 0.564510864642
v -0.696120043346 0.630934990016 0.554648879778
v -0.630815349087 0.696009165212 0.554648879778
v -0.636249624898 0.70059460127 0.547110396818
v -0.657424438167 0.657471993917 0.564510864642
v -0.611982888363 0.724302309891 0.544167295067
v -0.598959392868 0.723326633484 0.554648879778
v -0.561481816129 0.69152127121 0.593373944497
v -0.569258444484 0.698253080232 0.58635180629
v -0.613669374519 0.68166747678 0.574424472105
v -0.643464027239 0.64352053767 0.581549885201
v -0.606829725559 0.670838005942 0.5839250196
v -0.622851376023 0.689472504264 0.564510864642
v -0.752242672138 0.480005768337 0.593373944497
v -0.720386779881 0.525665044801 0.593373944497
v -0.743622832686 0.538153050399 0.573908147146
v -0.721323695314 0.546250768014 0.583563582232
v -0.708581312826 0.581861038012 0.574424472105
v -0.681597470366 0.613763942342 0.574424472105
v -0.649554169438 0.649666966432 0.574424472105
v -0.594836849833 0.663228190493 0.593373944497
v -0.670822687042 0.606739443191 0.5839250196
v -0.637092835996 0.636886270704 0.588107330944
v -0.603831506627 0.655520705064 0.593373944497
v -0.714577686727 0.533079776138 0.593373944497
v -0.70408401641 0.576495073621 0.579742708256
v -0.698087578547 0.569373032414 0.58635180629
v -0.655550543339 0.603910147911 0.593373944497
v -0.631096462094 0.630934990016 0.593373944497
v -0.691529042594 0.561568068891 0.593373944497
f 1 2 16
f 1 16 24
f 1 24 36
f 1 36 70
f 1 70 105
f 1 105 145
f 1 145 198
f 1 198 210
f 1 210 155
f 1 155 111
f 1 111 73
f 1 73 38
f 1 38 25
f 1 25 17
f 1 17 3
f 1 3 4
f 1 4 5
f 1 5 2
f 2 5 6
f 2 6 7
f 2 7 8
f 2 8 9
f 2 9 10
f 2 10 11
f 2 11 12
f 2 12 13
f 2 13 14
f 2 14 15
f 2 15 16
f 3 17 4
f 4 18 19
f 4 19 5
f 4 17 18
f 5 19 7
f 5 7 6
f 7 20 33
f 7 33 22
f 7 22 15
f 7 15 14
f 7 14 13
f 7 13 12
f 7 12 11
f 7 11 10
f 7 10 9
f 7 9 8
f 7 19 21
f 7 21 34
f 7 34 20
f 15 22 16
f 16 23 35
f 16 35 66
f 16 66 101
f 16 101 144
f 16 144 196
f 16 196 246
f 16 246 245
f 16 245 291
f 16 291 325
f 16 325 329
f 16 329 353
f 16 353 352
f 16 352 375
f 16 375 393
f 16 393 406
f 16 406 409
f 16 409 414
f 16 414 413
f 16 413 415
f 16 415 410
f 16 410 400
f 16 400 399
f 16 399 382
f 16 382 360
f 16 360 357
f 16 357 331
f 16 331 330
f 16 330 294
f 16 294 249
f 16 249 199
f 16 199 146
f 16 146 106
f 16 106 71
f 16 71 37
f 16 37 24
f 16 22 23
f 17 25 26
f 17 26 18
f 18 27 41
f 18 41 75
f 18 75 116
f 18 116 122
f 18 122 169
f 18 169 168
f 18 168 167
f 18 167 224
f 18 224 223
f 18 223 271
f 18 271 285
f 18 285 284
f 18 284 283
f 18 283 242
f 18 242 241
f 18 241 191
f 18 191 190
f 18 190 189
f 18 189 188
f 18 188 139
f 18 139 135
f 18 135 96
f 18 96 63
f 18 63 34
f 18 34 21
f 18 21 19
f 18 26 28
f 18 28 29
f 18 29 30
f 18 30 31
f 18 31 27
f 20 32 33
f 20 34 32
f 22 33 35
f 22 35 23
f 24 37 69
f 24 69 36
f 25 38 26
f 26 38 39
f 26 39 40
f 26 40 28
f 27 31 42
f 27 42 41
f 28 40 43
f 28 43 44
f 28 44 29
f 29 44 45
f 29 45 46
f 29 46 30
f 30 46 31
f 31 46 47
f 31 47 42
f 32 34 48
f 32 48 49
f 32 49 50
f 32 50 33
f 33 50 51
f 33 51 52
f 33 52 53
f 33 53 54
f 33 54 55
f 33 55 56
f 33 56 57
f 33 57 58
f 33 58 59
f 33 59 60
f 33 60 61
f 33 61 62
f 33 62 35
f 34 63 64
f 34 64 65
f 34 65 48
f 35 62 67
f 35 67 68
f 35 68 66
f 36 69 104
f 36 104 70
f 37 71 72
f 37 72 69
f 38 73 40
f 38 40 39
f 40 73 111
f 40 111 74
f 40 74 43
f 41 42 75
f 42 47 76
f 42 76 77
f 42 77 78
f 42 78 79
f 42 79 75
f 43 74 80
f 43 80 81
f 43 81 82
f 43 82 44
f 44 82 83
f 44 83 45
f 45 83 84
f 45 84 46
f 46 84 85
f 46 85 47
f 47 85 86
f 47 86 76
f 48 65 87
f 48 87 49
f 49 88 51
f 49 51 50
f 49 87 88
f 51 88 52
f 52 88 89
f 52 89 90
f 52 90 53
f 53 90 91
f 53 91 54
f 54 91 55
f 55 91 56
f 56 91 92
f 56 92 57
f 57 92 93
f 57 93 58
f 58 93 94
f 58 94 95
f 58 95 59
f 59 95 60
f 60 95 61
f 61 95 67
f 61 67 62
f 63 96 97
f 63 97 64
f 64 97 98
f 64 98 99
f 64 99 87
f 64 87 65
f 66 68 100
f 66 100 101
f 67 95 102
f 67 102 68
f 68 102 103
f 68 103 100
f 69 72 104
f 70 104 110
f 70 110 105
f 71 106 107
f 71 107 72
f 72 107 108
f 72 108 109
f 72 109 110
f 72 110 104
f 74 111 155
f 74 155 112
f 74 112 113
f 74 113 114
f 74 114 115
f 74 115 80
f 75 79 116
f 76 86 77
f 77 86 117
f 77 117 118
f 77 118 78
f 78 118 119
f 78 119 79
f 79 119 120
f 79 120 121
f 79 121 122
f 79 122 116
f 80 115 123
f 80 123 81
f 81 123 124
f 81 124 125
f 81 125 84
f 81 84 83
f 81 83 82
f 84 125 85
f 85 125 126
f 85 126 127
f 85 127 86
f 86 127 128
f 86 128 117
f 87 99 129
f 87 129 88
f 88 129 130
f 88 130 89
f 89 130 90
f 90 130 131
f 90 131 91
f 91 131 132
f 91 132 92
f 92 132 133
f 92 133 93
f 93 133 134
f 93 134 94
f 94 134 103
f 94 103 95
f 95 103 102
f 96 135 97
f 97 136 137
f 97 137 138
f 97 138 98
f 97 135 139
f 97 139 136
f 98 138 140
f 98 140 99
f 99 140 129
f 100 141 142
f 100 142 101
f 100 103 143
f 100 143 141
f 101 142 144
f 103 134 143
f 105 110 154
f 105 154 145
f 106 146 147
f 106 147 148
f 106 148 149
f 106 149 150
f 106 150 107
f 107 150 109
f 107 109 108
f 109 151 152
f 109 152 153
f 109 153 110
f 109 150 151
f 110 153 154
f 112 114 113
f 112 155 210
f 112 210 156
f 112 156 157
f 112 157 114
f 114 158 115
f 114 157 156
f 114 156 159
f 114 159 160
f 114 160 158
f 115 158 123
f 117 128 161
f 117 161 162
f 117 162 118
f 118 162 163
f 118 163 119
f 119 163 164
f 119 164 120
f 120 164 121
f 121 164 165
f 121 165 166
f 121 166 167
f 121 167 168
f 121 168 169
f 121 169 122
f 123 158 170
f 123 170 171
f 123 171 124
f 124 171 172
f 124 172 125
f 125 172 126
f 126 172 127
f 127 172 173
f 127 173 174
f 127 174 128
f 128 174 161
f 129 140 130
f 130 175 176
f 130 176 131
f 130 140 175
f 131 176 177
f 131 177 132
f 132 177 178
f 132 178 179
f 132 179 133
f 133 179 180
f 133 180 181
f 133 181 134
f 134 181 182
f 134 182 183
f 134 183 184
f 134 184 143
f 136 185 186
f 136 186 187
f 136 187 137
f 136 139 188
f 136 188 189
f 136 189 190
f 136 190 191
f 136 191 185
f 137 187 192
f 137 192 138
f 138 192 193
f 138 193 140
f 140 193 230
f 140 230 175
f 141 194 142
f 141 143 195
f 141 195 194
f 142 194 196
f 142 196 144
f 143 184 183
f 143 183 197
f 143 197 195
f 145 154 209
f 145 209 198
f 146 199 200
f 146 200 201
f 146 201 147
f 147 201 202
f 147 202 203
f 147 203 148
f 148 203 204
f 148 204 151
f 148 151 150
f 148 150 149
f 151 204 152
f 152 204 205
f 152 205 206
f 152 206 207
f 152 207 153
f 153 207 208
f 153 208 154
f 154 208 209
f 156 210 198
f 156 198 209
f 156 209 208
f 156 208 159
f 158 160 170
f 159 208 211
f 159 211 160
f 160 211 170
f 161 174 212
f 161 212 213
f 161 213 162
f 162 213 214
f 162 214 163
f 163 214 215
f 163 215 216
f 163 216 164
f 164 216 217
f 164 217 218
f 164 218 165
f 165 219 166
f 165 218 220
f 165 220 219
f 166 219 221
f 166 221 222
f 166 222 223
f 166 223 224
f 166 224 167
f 170 211 225
f 170 225 172
f 170 172 171
f 172 225 173
f 173 225 226
f 173 226 227
f 173 227 174
f 174 227 228
f 174 228 229
f 174 229 212
f 175 230 176
f 176 230 231
f 176 231 232
f 176 232 177
f 177 232 178
f 178 233 179
f 178 232 233
f 179 233 180
f 180 182 181
f 180 233 182
f 182 233 234
f 182 234 235
f 182 235 236
f 182 236 183
f 183 236 237
f 183 237 195
f 183 195 197
f 185 238 239
f 185 239 240
f 185 240 186
f 185 191 241
f 185 241 242
f 185 242 238
f 186 240 187
f 187 240 243
f 187 243 192
f 192 243 244
f 192 244 193
f 193 244 230
f 194 245 246
f 194 246 196
f 194 195 245
f 195 237 247
f 195 247 248
f 195 248 245
f 199 249 200
f 200 249 250
f 200 250 251
f 200 251 252
f 200 252 202
f 200 202 201
f 202 253 205
f 202 205 204
f 202 204 203
f 202 252 253
f 205 253 206
f 206 254 207
f 206 253 254
f 207 254 211
f 207 211 208
f 211 254 225
f 212 229 255
f 212 255 213
f 213 255 256
f 213 256 214
f 214 256 215
f 215 257 216
f 215 256 258
f 215 258 259
f 215 259 257
f 216 257 217
f 217 257 260
f 217 260 261
f 217 261 218
f 218 261 220
f 219 220 221
f 220 261 262
f 220 262 263
f 220 263 221
f 221 263 264
f 221 264 265
f 221 265 266
f 221 266 267
f 221 267 268
f 221 268 238
f 221 238 269
f 221 269 270
f 221 270 222
f 222 270 271
f 222 271 223
f 225 254 226
f 226 254 272
f 226 272 227
f 227 272 273
f 227 273 274
f 227 274 228
f 228 274 229
f 229 274 275
f 229 275 276
f 229 276 255
f 230 244 277
f 230 277 231
f 231 277 278
f 231 278 232
f 232 278 234
f 232 234 233
f 234 279 280
f 234 280 235
f 234 278 279
f 235 280 281
f 235 281 236
f 236 281 282
f 236 282 237
f 237 282 247
f 238 268 239
f 238 242 283
f 238 283 284
f 238 284 285
f 238 285 269
f 239 268 286
f 239 286 287
f 239 287 240
f 240 287 288
f 240 288 289
f 240 289 243
f 243 289 324
f 243 324 290
f 243 290 244
f 244 290 277
f 245 248 291
f 247 282 292
f 247 292 248
f 248 292 293
f 248 293 291
f 249 294 250
f 250 295 251
f 250 294 295
f 251 295 296
f 251 296 297
f 251 297 252
f 252 297 298
f 252 298 299
f 252 299 253
f 253 299 298
f 253 298 300
f 253 300 301
f 253 301 272
f 253 272 254
f 255 276 302
f 255 302 256
f 256 302 258
f 257 259 303
f 257 303 260
f 258 302 304
f 258 304 305
f 258 305 259
f 259 305 306
f 259 306 303
f 260 303 307
f 260 307 308
f 260 308 262
f 260 262 261
f 262 308 263
f 263 308 264
f 264 308 265
f 265 308 309
f 265 309 310
f 265 310 266
f 266 310 267
f 267 310 311
f 267 311 286
f 267 286 268
f 269 285 271
f 269 271 270
f 272 301 312
f 272 312 273
f 273 312 274
f 274 312 275
f 275 312 300
f 275 300 276
f 276 300 313
f 276 313 314
f 276 314 302
f 277 290 315
f 277 315 278
f 278 315 279
f 279 315 316
f 279 316 317
f 279 317 280
f 280 318 281
f 280 317 318
f 281 319 282
f 281 318 319
f 282 319 320
f 282 320 292
f 286 311 321
f 286 321 287
f 287 321 288
f 288 321 322
f 288 322 323
f 288 323 324
f 288 324 289
f 290 324 315
f 291 293 325
f 292 326 293
f 292 320 327
f 292 327 328
f 292 328 326
f 293 326 329
f 293 329 325
f 294 330 295
f 295 330 331
f 295 331 296
f 296 332 333
f 296 333 298
f 296 298 297
f 296 331 334
f 296 334 332
f 298 333 335
f 298 335 300
f 300 312 301
f 300 335 313
f 302 314 304
f 303 306 336
f 303 336 307
f 304 314 337
f 304 337 338
f 304 338 305
f 305 338 339
f 305 339 306
f 306 339 340
f 306 340 341
f 306 341 336
f 307 336 342
f 307 342 343
f 307 343 309
f 307 309 308
f 309 343 344
f 309 344 310
f 310 344 345
f 310 345 311
f 311 345 322
f 311 322 321
f 313 335 346
f 313 346 314
f 314 346 337
f 315 324 316
f 316 347 317
f 316 324 348
f 316 348 347
f 317 347 349
f 317 349 318
f 318 349 350
f 318 350 319
f 319 350 327
f 319 327 320
f 322 345 351
f 322 351 323
f 323 351 348
f 323 348 324
f 326 352 353
f 326 353 329
f 326 328 352
f 327 354 355
f 327 355 328
f 327 350 356
f 327 356 354
f 328 355 352
f 331 357 334
f 332 358 333
f 332 334 359
f 332 359 358
f 333 358 335
f 334 357 360
f 334 360 361
f 334 361 359
f 335 358 346
f 336 341 342
f 337 346 362
f 337 362 338
f 338 363 339
f 338 362 364
f 338 364 363
f 339 363 365
f 339 365 340
f 340 365 366
f 340 366 341
f 341 366 367
f 341 367 368
f 341 368 369
f 341 369 342
f 342 369 343
f 343 369 370
f 343 370 344
f 344 351 345
f 344 370 351
f 346 358 362
f 347 348 351
f 347 351 371
f 347 371 372
f 347 372 349
f 349 372 373
f 349 373 350
f 350 373 356
f 351 370 374
f 351 374 371
f 352 355 375
f 354 356 376
f 354 376 377
f 354 377 355
f 355 377 375
f 356 378 376
f 356 373 378
f 358 359 379
f 358 379 362
f 359 361 380
f 359 380 381
f 359 381 379
f 360 382 361
f 361 382 380
f 362 383 364
f 362 379 383
f 363 364 384
f 363 384 385
f 363 385 365
f 364 383 384
f 365 385 386
f 365 386 387
f 365 387 366
f 366 387 367
f 367 388 389
f 367 389 368
f 367 387 390
f 367 390 388
f 368 374 369
f 368 389 374
f 369 374 370
f 371 374 391
f 371 391 372
f 372 392 373
f 372 391 392
f 373 392 378
f 374 389 391
f 375 377 394
f 375 394 393
f 376 395 377
f 376 378 398
f 376 398 395
f 377 395 396
f 377 396 397
f 377 397 394
f 378 392 398
f 379 381 383
f 380 382 399
f 380 399 400
f 380 400 381
f 381 401 383
f 381 400 402
f 381 402 401
f 383 401 384
f 384 401 403
f 384 403 385
f 385 403 386
f 386 403 404
f 386 404 396
f 386 396 405
f 386 405 390
f 386 390 387
f 388 390 398
f 388 398 392
f 388 392 389
f 389 392 391
f 390 405 398
f 393 394 406
f 394 397 406
f 395 405 396
f 395 398 405
f 396 407 408
f 396 408 397
f 396 404 407
f 397 408 409
f 397 409 406
f 400 410 402
f 401 402 411
f 401 411 403
f 402 410 411
f 403 411 404
f 404 411 407
f 407 412 413
f 407 413 408
f 407 411 412
f 408 413 414
f 408 414 409
f 410 415 412
f 410 412 411
f 412 415 413
