# ABC bottle geometry; canonical radius 1 and height 1, bottom z=0.
# https://github.com/mikedh/trimesh
v 0.684721246712 -0.330085867079 0.0659041156345
v 0.697254793256 0.304849146754 0.0659041156345
v 0.936306194646 -0.330085867079 0.0659041156345
v 0.618202041924 -0.330085867079 0.172585680277
v 0.567088661427 -0.327720360289 0.241856745328
v 0.32790677755 0.567164488382 0.241925262056
v 0.32790677755 0.773829624578 0.241925262056
v 0.945314539309 0.304849146754 0.0659041156345
v 0.936763075239 -0.328965380695 0.0659041156345
v 0.941658982864 -0.327720360289 0.406298445981
v 0.936306194646 -0.330085867079 0.066109665818
v 0.783488174992 -0.330085867079 0.172585680277
v 0.566631716871 -0.327720360289 0.729494919286
v 0.566631716871 -0.327720360289 0.639874188126
v 0.32790677755 0.616465313613 0.602532215159
v 0.32790677755 0.935302342976 0.396226388018
v 0.351798824666 0.926836460067 0.396363421473
v 0.385874390344 0.896583647513 0.380467392159
v 0.329930407428 0.772958078313 0.241925262056
v 0.961046825668 0.260652681318 0.0659041156345
v 0.391553704592 0.900069576724 0.386496923591
v 0.399909380967 0.905422940601 0.396363421473
v 0.60175171811 0.78789774752 0.396363421473
v 0.606255986384 0.791508146791 0.406298445981
v 0.638242680939 0.765986283853 0.406298445981
v 0.671600145199 0.737849910046 0.406298445981
v 0.705414617977 0.705231718626 0.399789287557
v 0.707177154955 0.706974683232 0.406298445981
v 0.737923498331 0.671368506802 0.406298445981
v 0.766254572479 0.63800330314 0.406298445981
v 0.791517517224 0.606007589942 0.406298445981
v 0.908562547542 0.404322343482 0.406298445981
v 0.933172760038 0.351660059099 0.406298445981
v 0.951973047874 0.298873304657 0.406298445981
v 0.961046825668 -0.260616478824 0.0659041156345
v 0.951973047874 -0.298837102162 0.406298445981
v 0.93904786198 -0.327720360289 0.416027910407
v 0.936045037784 -0.330085867079 0.0698095889156
v 0.89733459342 -0.330085867079 0.105507150517
v 0.793932850415 -0.327720360289 0.650973997006
v 0.789493887346 -0.327720360289 0.653509145627
v 0.775720053584 -0.327720360289 0.660292361066
v 0.774218609505 -0.327720360289 0.660909021513
v 0.699996524552 -0.327720360289 0.687356735783
v 0.586802902336 -0.327720360289 0.723465377957
v 0.566631716871 -0.275556148031 0.741211388614
v 0.566631716871 -0.248664794628 0.746692786224
v 0.566631716871 -0.234845611805 0.74881679489
v 0.566631716871 -0.216544547409 0.751283426783
v 0.566631716871 -0.166621179994 0.757587044921
v 0.566631716871 -0.14508325443 0.760053666917
v 0.566631716871 -0.0956578951773 0.764644317374
v 0.566631716871 -0.0316664048205 0.765877628372
v 0.32790677755 0.812672662176 0.602532215159
v 0.32790677755 0.941776129274 0.406298445981
v 0.351798824666 0.933185840268 0.406298445981
v 0.968488612932 0.224050552526 0.0659041156345
v 0.963201001996 0.266877527497 0.406298445981
v 0.972731788307 0.224050552526 0.406298445981
v 0.404544195692 0.908535459633 0.406298445981
v 0.60429759775 0.789889716207 0.416027910407
v 0.636284292305 0.764492323329 0.416027910407
v 0.510230725438 0.830600252432 0.495233999966
v 0.508468188459 0.829479766048 0.505100497848
v 0.543718800109 0.805700803754 0.505100497848
v 0.566631716871 0.789267237985 0.505100497848
v 0.706524358744 0.70635220501 0.414177938962
v 0.76462258195 0.636135868475 0.416027910407
v 0.790081378351 0.604015557294 0.416027910407
v 0.805683054298 0.543385526088 0.505100497848
v 0.829444554965 0.508277421782 0.505100497848
v 0.830489054488 0.510020322426 0.495165483238
v 0.847526805346 0.476157110601 0.505100497848
v 0.878534305583 0.415651549456 0.505100497848
v 0.907126472631 0.402454844855 0.416027910407
v 0.895310963541 0.383406832177 0.499002449688
v 0.930431028742 0.351660059099 0.416027910407
v 0.950602214207 0.295262905386 0.416027910407
v 0.961895409573 0.263267128226 0.416027910407
v 0.968488612932 -0.223765345951 0.0659041156345
v 0.972731788307 -0.223640875891 0.406298445981
v 0.963201001996 -0.266841388965 0.406298445981
v 0.961895409573 -0.263106455673 0.416027910407
v 0.950602214207 -0.295226702892 0.416027910407
v 0.927885149102 -0.287756836307 0.505100497848
v 0.913589001616 -0.327720360289 0.505100497848
v 0.931083824953 -0.330085867079 0.0794705564084
v 0.909541741859 -0.327720360289 0.514966995731
v 0.90804029778 -0.330085867079 0.0987924320122
v 0.808424785594 -0.287756836307 0.653509145627
v 0.803855212113 -0.327720360289 0.644396331751
v 0.824222249235 -0.287507832226 0.644533365207
v 0.782378434225 -0.289126326772 0.663718217252
v 0.764557340706 -0.311660268661 0.667281136585
v 0.70391323786 -0.320001617548 0.68831597987
v 0.580666643533 -0.262857451592 0.739429923999
v 0.57120122639 -0.244307383114 0.746007609048
v 0.579295809866 -0.201480408143 0.74881679489
v 0.709918886251 -0.20994622709 0.700443549565
v 0.700975654908 -0.178448458092 0.707089721651
v 0.768212961113 -0.0686420077534 0.688453013325
v 0.640135700406 -0.0660275608451 0.737785512634
v 0.829901563483 -0.183179279785 0.657757212445
v 0.833752971584 -0.140725842916 0.659333116979
v 0.566631716871 0.0320760814553 0.765877628372
v 0.32790677755 0.824126466134 0.595817516448
v 0.566631716871 0.0961921058337 0.764644317374
v 0.566631716871 0.145492931065 0.760053666917
v 0.566631716871 0.155452710536 0.75909442283
v 0.566631716871 0.216954224044 0.751283426783
v 0.566631716871 0.23525528844 0.74881679489
v 0.566631716871 0.256419803826 0.745048364962
v 0.566631716871 0.426607281289 0.711337808262
v 0.566631716871 0.450137239502 0.706267511019
v 0.566631716871 0.468687307979 0.701950937371
v 0.566631716871 0.500807555198 0.694002907869
v 0.566631716871 0.566293006079 0.677079107842
v 0.566631716871 0.569654401269 0.676188380483
v 0.566631716871 0.588826947968 0.670707012565
v 0.566631716871 0.613726396646 0.663375633613
v 0.566631716871 0.631778456961 0.658031279356
v 0.566631716871 0.637505294977 0.656112791182
v 0.566631716871 0.651822485962 0.65083696355
v 0.566631716871 0.665392664704 0.64357412112
v 0.32790677755 0.939037212306 0.416096427135
v 0.351798824666 0.9304469233 0.416096427135
v 0.383654908809 0.89533869107 0.499002449688
v 0.402651112264 0.90716603313 0.416096427135
v 0.98004296516 0.160059062169 0.0659041156345
v 0.984351381779 0.160059062169 0.406298445981
v 0.970185908667 0.224050552526 0.416027910407
v 0.476481557866 0.847531826363 0.505100497848
v 0.585823708019 0.775448055162 0.505100497848
v 0.617810338612 0.748681171819 0.505100497848
v 0.472630085803 0.845415451579 0.515035522356
v 0.504616716396 0.827114259259 0.515035522356
v 0.543718800109 0.80084544804 0.515035522356
v 0.566631716871 0.78466082239 0.515035522356
v 0.582886125067 0.773082612335 0.514966995731
v 0.655541588659 0.716685458622 0.505100497848
v 0.687397672802 0.687179658311 0.505100497848
v 0.717099516654 0.65505934713 0.505100497848
v 0.748955664759 0.617461265976 0.505100497848
v 0.775654748378 0.585590022838 0.505100497848
v 0.773304720393 0.582477631729 0.514966995731
v 0.800852323956 0.543385526088 0.514966995731
v 0.827094463019 0.504417954469 0.514966995731
v 0.845437870261 0.472422241271 0.514966995731
v 0.894462315674 0.38104138935 0.505100497848
v 0.874225825002 0.415651549456 0.514966995731
v 0.905951362696 0.349170146212 0.505100497848
v 0.927885149102 0.287668568742 0.505100497848
v 0.945314539309 0.224050552526 0.505100497848
v 0.98004296516 -0.159773855594 0.0659041156345
v 0.984351381779 -0.159649385534 0.406298445981
v 0.970185908667 -0.223640875891 0.416027910407
v 0.945314539309 -0.223640875891 0.505100497848
v 0.923837825383 -0.287756836307 0.514966995731
v 0.921030916805 -0.330085867079 0.0895426044743
v 0.904123584473 -0.327720360289 0.52483350351
v 0.897399898626 -0.327720360289 0.534768528017
v 0.89400543508 -0.327720360289 0.539290671643
v 0.892438685795 -0.327720360289 0.541277676544
v 0.831207155906 -0.254765170748 0.648438858282
v 0.825919481007 -0.229616717989 0.65405727945
v 0.804638554775 -0.223640875891 0.663375633613
v 0.835123805251 -0.266094376722 0.641792666402
v 0.77226022087 -0.268957763749 0.670158868845
v 0.709853581045 -0.287756836307 0.690439998433
v 0.702542404193 -0.252648668039 0.69770285076
v 0.769910192886 -0.199363905435 0.679134629472
v 0.768212961113 0.0691762184098 0.688453013325
v 0.835972453118 -0.0956578951773 0.660292361066
v 0.640135700406 0.0663127674204 0.737785512634
v 0.836886342229 -0.212311605955 0.651111030462
v 0.841716944648 -0.161018875999 0.65405727945
v 0.850529693504 -0.0956578951773 0.653509145627
v 0.32790677755 0.832343217037 0.59095276939
v 0.700975654908 0.178733600706 0.707089721651
v 0.833752971584 0.141011049492 0.659333116979
v 0.829901563483 0.183838024463 0.657757212445
v 0.579295809866 0.202014554837 0.74881679489
v 0.709918886251 0.210231369703 0.700443549565
v 0.57120122639 0.244343585609 0.746007609048
v 0.580666643533 0.263018124145 0.739429923999
v 0.575052698453 0.382286345793 0.717641416502
v 0.571788717395 0.441422416474 0.706815654739
v 0.582951430273 0.456113145562 0.700306516109
v 0.57629298567 0.512261295194 0.68831597987
v 0.580601338327 0.580236658962 0.669747758581
v 0.568067855744 0.567786966604 0.676393930667
v 0.569438689411 0.634143899788 0.656523901446
v 0.580013847321 0.642858658854 0.649877709567
v 0.586476504231 0.648336556751 0.64357412112
v 0.640658014129 0.704111232243 0.540455465913
v 0.572506818813 0.764865797469 0.53702959983
v 0.566631716871 0.761628872339 0.544703552525
v 0.535428364977 0.784038344168 0.544703552525
v 0.485620576904 0.815909523344 0.544703552525
v 0.448999131586 0.832094276918 0.550321973693
v 0.442210076571 0.828483813686 0.556899638948
v 0.401280278596 0.840062023741 0.564505065017
v 0.391357852936 0.835082134005 0.572179017712
v 0.381631278931 0.830600252432 0.578756682967
v 0.32790677755 0.842302996508 0.584306587407
v 0.32790677755 0.913515221445 0.505100497848
v 0.349318250232 0.905920948763 0.505100497848
v 0.381304880825 0.894467208767 0.505100497848
v 0.415772149814 0.878656057258 0.505100497848
v 0.989443077097 0.0960675718121 0.0659041156345
v 0.988333400292 0.0960675718121 0.406298445981
v 0.994730751995 0.0320760814553 0.0659041156345
v 0.981740260895 0.160059062169 0.416027910407
v 0.961307918568 0.139019080805 0.505100497848
v 0.967052474059 0.0961921058337 0.505100497848
v 0.972340021034 0.0320760814553 0.505100497848
v 0.955367575382 0.171014794002 0.505100497848
v 0.61487275566 0.746315728992 0.514966995731
v 0.415772149814 0.874298645744 0.515035522356
v 0.467538326523 0.842427466568 0.524970536966
v 0.499459715871 0.82400186815 0.524970536966
v 0.543718800109 0.794620601861 0.524970536966
v 0.566631716871 0.778560446271 0.524970536966
v 0.578904170516 0.769845687205 0.52483350351
v 0.652538700501 0.714319951833 0.514966995731
v 0.68446008985 0.6841916733 0.514966995731
v 0.714553700976 0.652195960103 0.514966995731
v 0.746475026363 0.614597814986 0.514966995731
v 0.770040739336 0.578618228378 0.52483350351
v 0.79465088787 0.543385526088 0.52483350351
v 0.824091702785 0.499313530712 0.52483350351
v 0.842435046065 0.467317817514 0.52483350351
v 0.892242834139 0.375314487371 0.514966995731
v 0.903927732817 0.343318774174 0.514966995731
v 0.868546638679 0.415651549456 0.52483350351
v 0.923837825383 0.287668568742 0.514966995731
v 0.941267279552 0.224050552526 0.514966995731
v 0.96006763135 0.132545230545 0.511746679831
v 0.989443077097 -0.0957823652369 0.0659041156345
v 0.981740260895 -0.159649385534 0.416027910407
v 0.994730751995 -0.0319154089016 0.0659041156345
v 0.988333400292 -0.0956578951773 0.406298445981
v 0.972340021034 -0.0316664048205 0.505100497848
v 0.967052474059 -0.0956578951773 0.505100497848
v 0.961307918568 -0.13873387423 0.505100497848
v 0.955367575382 -0.170605117368 0.505100497848
v 0.96006763135 -0.13213555391 0.511746679831
v 0.941267279552 -0.223640875891 0.514966995731
v 0.935979732578 -0.223640875891 0.52483350351
v 0.918419667997 -0.287756836307 0.52483350351
v 0.911695982149 -0.287756836307 0.534768528017
v 0.895767908097 -0.320748565829 0.54024991573
v 0.842435046065 -0.229616717989 0.644533365207
v 0.921944741954 -0.223640875891 0.544635035797
v 0.835972453118 0.0961921058337 0.660292361066
v 0.859211704023 -0.159649385534 0.64357412112
v 0.866000695076 -0.0956578951773 0.64357412112
v 0.866066000282 0.0961921058337 0.64357412112
v 0.850529693504 0.0961921058337 0.653509145627
v 0.769910192886 0.199898116091 0.679134629472
v 0.841716944648 0.161428552634 0.65405727945
v 0.836886342229 0.212721346552 0.651111030462
v 0.825919481007 0.230150928645 0.65405727945
v 0.804638554775 0.224050552526 0.663375633613
v 0.702542404193 0.252684870534 0.69770285076
v 0.70391323786 0.320037820042 0.68831597987
v 0.77226022087 0.269118500265 0.670158868845
v 0.645423311342 0.456735559821 0.680504983822
v 0.641310746379 0.513257247556 0.668788514494
v 0.650449765416 0.52408850933 0.663375633613
v 0.623359042448 0.556084222527 0.663375633613
v 0.634391208876 0.569156393107 0.656523901446
v 0.591372411855 0.591067920736 0.663375633613
v 0.607235180702 0.606879008283 0.653235068819
v 0.643334376257 0.5797386508 0.649877709567
v 0.618463134823 0.618083744197 0.64357412112
v 0.675647468918 0.675352380213 0.534768528017
v 0.643726079569 0.706725679151 0.534768528017
v 0.60175171811 0.742954269841 0.53415186757
v 0.566631716871 0.769721217145 0.536344422655
v 0.576358226914 0.767729248459 0.53038340795
v 0.566631716871 0.773705090557 0.531685245573
v 0.548157763178 0.784536352331 0.534220384298
v 0.493127669374 0.820391404918 0.534837044745
v 0.453699187555 0.834708659865 0.544703552525
v 0.415772149814 0.853632202483 0.544703552525
v 0.418840279216 0.843174542773 0.554021906687
v 0.351798824666 0.871310852619 0.554638557238
v 0.351798824666 0.860355056824 0.564505065017
v 0.356890583947 0.844792909395 0.575056740075
v 0.32790677755 0.855748705191 0.574782663267
v 0.32790677755 0.849897333152 0.57896223315
v 0.32790677755 0.912145794942 0.508594890556
v 0.343638935984 0.903929044038 0.515035522356
v 0.375625630539 0.892226235999 0.515035522356
v 0.974102621974 0.0320760814553 0.495165483238
v 0.962809362646 0.098806552742 0.514966995731
v 0.968553918138 0.0320760814553 0.514966995731
v 0.610825495903 0.742954269841 0.52483350351
v 0.648621987194 0.710958556643 0.52483350351
v 0.415772149814 0.868571807727 0.524970536966
v 0.461206280025 0.838941601319 0.534837044745
v 0.680543376543 0.680332269949 0.52483350351
v 0.711159173468 0.648212086692 0.52483350351
v 0.743080562817 0.610489471516 0.52483350351
v 0.768017109457 0.576003717507 0.53038340795
v 0.784597915759 0.547867407662 0.53415186757
v 0.820370777171 0.492839680452 0.534768528017
v 0.838909972108 0.460968501276 0.534768528017
v 0.889435861599 0.367720150727 0.52483350351
v 0.901186065483 0.335848907589 0.52483350351
v 0.861692278458 0.415651549456 0.534768528017
v 0.918419667997 0.287668568742 0.52483350351
v 0.935979732578 0.224050552526 0.52483350351
v 0.954061982959 0.156324192839 0.514966995731
v 0.948121575811 0.160183596191 0.52483350351
v 0.958566187272 0.122087442912 0.518255838255
v 0.974102621974 -0.0316664048205 0.495165483238
v 0.968553918138 -0.0316664048205 0.514966995731
v 0.962809362646 -0.0983968121452 0.514966995731
v 0.958566187272 -0.121553296217 0.518255838255
v 0.954061982959 -0.155789982182 0.514966995731
v 0.948121575811 -0.159649385534 0.52483350351
v 0.941724224108 -0.159649385534 0.534768528017
v 0.929517075669 -0.223640875891 0.534768528017
v 0.934282436843 -0.159649385534 0.544635035797
v 0.951385492907 -0.0956578951773 0.534768528017
v 0.959218983483 -0.0614212092122 0.529698240672
v 0.949166075334 -0.0316664048205 0.544635035797
v 0.859211704023 0.160183596191 0.64357412112
v 0.949166075334 0.0320760814553 0.544635035797
v 0.959218983483 0.0619554198686 0.529698240672
v 0.842435046065 0.230150928645 0.644533365207
v 0.831207155906 0.255050313361 0.648438858282
v 0.808424785594 0.287668568742 0.653509145627
v 0.782378434225 0.289411533348 0.663718217252
v 0.709853581045 0.287668568742 0.690439998433
v 0.764557340706 0.311572001095 0.667281136585
v 0.773631118499 0.329997535551 0.660703461433
v 0.70391323786 0.512012227151 0.648712915296
v 0.648883144055 0.58621250106 0.64357412112
v 0.704435423659 0.640368745967 0.540455465913
v 0.415772149814 0.861724483327 0.534837044745
v 0.34611957438 0.883387006874 0.544018375349
v 0.358718426131 0.886125987804 0.534837044745
v 0.32790677755 0.888615836729 0.54559426009
v 0.32790677755 0.880025611685 0.554638557238
v 0.32790677755 0.876166144371 0.558132949946
v 0.32790677755 0.86894534583 0.564505065017
v 0.32790677755 0.864214460175 0.568204998012
v 0.32790677755 0.909531411995 0.515035522356
v 0.33606660227 0.901189999146 0.524970536966
v 0.368053296825 0.889487382994 0.524970536966
v 0.961177308156 0.0792604679404 0.522983532064
v 0.962613447029 0.0371804412504 0.525724230869
v 0.9601981778 0.0192529149568 0.531137101854
v 0.707046608505 0.643356667016 0.534768528017
v 0.743211109267 0.601401174347 0.53415186757
v 0.765014285261 0.572268848177 0.53702959983
v 0.78394518351 0.535168711223 0.544635035797
v 0.707242460161 0.516494108724 0.64357412112
v 0.815931878065 0.485369941791 0.544635035797
v 0.834732101939 0.453498634691 0.544635035797
v 0.886106639298 0.358507383499 0.534768528017
v 0.897791537975 0.326511670302 0.534768528017
v 0.911695982149 0.287668568742 0.534768528017
v 0.853597758943 0.415651549456 0.544635035797
v 0.929517075669 0.224050552526 0.534768528017
v 0.941724224108 0.160183596191 0.534768528017
v 0.957130048399 0.098806552742 0.525724230869
v 0.9601981778 -0.018843238322 0.531137101854
v 0.962613447029 -0.036646294556 0.525724230869
v 0.961177308156 -0.0789752613651 0.522983532064
v 0.957130048399 -0.0983968121452 0.525724230869
v 0.956869019461 -0.036646294556 0.534562967937
v 0.951385492907 0.0961921058337 0.534768528017
v 0.934282436843 0.160183596191 0.544635035797
v 0.921944741954 0.224050552526 0.544635035797
v 0.956869019461 0.0371804412504 0.534562967937
v 0.835123805251 0.266130579216 0.641792666402
v 0.824222249235 0.287668568742 0.644533365207
v 0.782182646531 0.343069770093 0.653509145627
v 0.788449387823 0.357760435218 0.644396331751
v 0.680804469442 0.548489885883 0.64357412112
v 0.32790677755 0.892475304043 0.541277676544
v 0.32790677755 0.897455193778 0.534837044745
v 0.32790677755 0.898326676081 0.53360372385
v 0.32790677755 0.904053514098 0.524970536966
v 0.832120981055 0.448767749037 0.550253456965
v 0.895767908097 0.320784768323 0.54024991573
f 1 2 8
f 1 8 20
f 1 20 57
f 1 57 129
f 1 129 210
f 1 210 212
f 1 212 241
f 1 241 239
f 1 239 154
f 1 154 80
f 1 80 35
f 1 35 9
f 1 9 3
f 1 3 11
f 1 11 38
f 1 38 87
f 1 87 159
f 1 159 89
f 1 89 39
f 1 39 12
f 1 12 4
f 1 4 5
f 1 5 6
f 1 6 7
f 1 7 2
f 2 7 8
f 3 9 10
f 3 10 11
f 4 12 13
f 4 13 14
f 4 14 5
f 5 14 6
f 6 14 13
f 6 13 15
f 6 15 54
f 6 54 106
f 6 106 178
f 6 178 205
f 6 205 292
f 6 292 291
f 6 291 350
f 6 350 349
f 6 349 348
f 6 348 347
f 6 347 346
f 6 346 385
f 6 385 386
f 6 386 387
f 6 387 388
f 6 388 351
f 6 351 293
f 6 293 206
f 6 206 125
f 6 125 55
f 6 55 16
f 6 16 7
f 7 16 17
f 7 17 18
f 7 18 19
f 7 19 8
f 8 19 18
f 8 18 21
f 8 21 22
f 8 22 23
f 8 23 24
f 8 24 25
f 8 25 26
f 8 26 27
f 8 27 28
f 8 28 29
f 8 29 30
f 8 30 31
f 8 31 32
f 8 32 33
f 8 33 34
f 8 34 20
f 9 35 36
f 9 36 10
f 10 36 37
f 10 37 38
f 10 38 11
f 12 39 40
f 12 40 41
f 12 41 42
f 12 42 43
f 12 43 44
f 12 44 45
f 12 45 13
f 13 45 46
f 13 46 15
f 15 46 47
f 15 47 48
f 15 48 49
f 15 49 50
f 15 50 51
f 15 51 52
f 15 52 53
f 15 53 105
f 15 105 54
f 16 55 17
f 17 55 56
f 17 56 22
f 17 22 21
f 17 21 18
f 20 34 58
f 20 58 59
f 20 59 57
f 22 56 60
f 22 60 24
f 22 24 23
f 24 61 62
f 24 62 25
f 24 60 63
f 24 63 64
f 24 64 65
f 24 65 66
f 24 66 61
f 25 62 67
f 25 67 26
f 26 28 27
f 26 67 28
f 28 67 29
f 29 67 30
f 30 67 68
f 30 68 69
f 30 69 31
f 31 69 70
f 31 70 71
f 31 71 72
f 31 72 32
f 32 72 71
f 32 71 73
f 32 73 74
f 32 74 75
f 32 75 33
f 33 75 76
f 33 76 77
f 33 77 78
f 33 78 34
f 34 78 79
f 34 79 58
f 35 80 81
f 35 81 82
f 35 82 36
f 36 82 83
f 36 83 84
f 36 84 37
f 37 84 85
f 37 85 86
f 37 86 38
f 38 86 88
f 38 88 87
f 39 89 40
f 40 90 41
f 40 89 91
f 40 91 92
f 40 92 90
f 41 90 42
f 42 90 43
f 43 90 93
f 43 93 94
f 43 94 95
f 43 95 44
f 44 95 45
f 45 95 46
f 46 96 47
f 46 95 96
f 47 97 48
f 47 96 95
f 47 95 97
f 48 97 49
f 49 98 50
f 49 97 98
f 50 98 99
f 50 99 51
f 51 99 100
f 51 100 52
f 52 101 102
f 52 102 53
f 52 100 103
f 52 103 104
f 52 104 101
f 53 102 174
f 53 174 105
f 54 105 107
f 54 107 108
f 54 108 109
f 54 109 110
f 54 110 111
f 54 111 112
f 54 112 113
f 54 113 114
f 54 114 115
f 54 115 116
f 54 116 117
f 54 117 118
f 54 118 119
f 54 119 120
f 54 120 121
f 54 121 122
f 54 122 123
f 54 123 124
f 54 124 106
f 55 125 126
f 55 126 56
f 56 126 127
f 56 127 128
f 56 128 60
f 57 59 130
f 57 130 129
f 58 79 59
f 59 79 131
f 59 131 130
f 60 128 132
f 60 132 63
f 61 66 133
f 61 133 62
f 62 133 134
f 62 134 67
f 63 132 64
f 64 132 135
f 64 135 136
f 64 136 137
f 64 137 65
f 65 137 138
f 65 138 139
f 65 139 66
f 66 139 133
f 67 134 140
f 67 140 141
f 67 141 142
f 67 142 143
f 67 143 144
f 67 144 68
f 68 144 69
f 69 144 70
f 70 144 145
f 70 145 146
f 70 146 71
f 71 146 147
f 71 147 148
f 71 148 73
f 73 148 74
f 74 149 76
f 74 76 75
f 74 148 150
f 74 150 149
f 76 149 77
f 77 149 151
f 77 151 78
f 78 151 152
f 78 152 79
f 79 152 153
f 79 153 131
f 80 154 155
f 80 155 81
f 81 155 156
f 81 156 83
f 81 83 82
f 83 156 157
f 83 157 85
f 83 85 84
f 85 157 248
f 85 248 158
f 85 158 88
f 85 88 86
f 87 88 160
f 87 160 161
f 87 161 162
f 87 162 163
f 87 163 91
f 87 91 159
f 88 158 250
f 88 250 160
f 89 159 91
f 90 92 164
f 90 164 165
f 90 165 166
f 90 166 93
f 91 163 92
f 92 163 167
f 92 167 164
f 93 166 168
f 93 168 94
f 94 168 95
f 95 168 169
f 95 169 98
f 95 98 97
f 98 169 170
f 98 170 99
f 99 170 168
f 99 168 166
f 99 166 171
f 99 171 100
f 100 171 103
f 101 172 174
f 101 174 102
f 101 104 173
f 101 173 255
f 101 255 172
f 103 165 175
f 103 175 176
f 103 176 104
f 103 171 166
f 103 166 165
f 104 176 177
f 104 177 173
f 105 174 107
f 106 124 178
f 107 179 108
f 107 174 172
f 107 172 180
f 107 180 181
f 107 181 179
f 108 179 109
f 109 182 110
f 109 179 183
f 109 183 182
f 110 182 184
f 110 184 111
f 111 184 112
f 112 184 185
f 112 185 186
f 112 186 113
f 113 186 187
f 113 187 114
f 114 187 188
f 114 188 115
f 115 188 116
f 116 188 189
f 116 189 190
f 116 190 191
f 116 191 117
f 117 191 118
f 118 191 119
f 119 191 190
f 119 190 120
f 120 190 121
f 121 192 122
f 121 190 192
f 122 192 123
f 123 193 124
f 123 192 193
f 124 193 194
f 124 194 195
f 124 195 196
f 124 196 197
f 124 197 198
f 124 198 199
f 124 199 200
f 124 200 201
f 124 201 202
f 124 202 203
f 124 203 204
f 124 204 205
f 124 205 178
f 125 206 207
f 125 207 208
f 125 208 126
f 126 208 127
f 127 208 209
f 127 209 128
f 128 209 132
f 129 130 210
f 130 211 212
f 130 212 210
f 130 131 213
f 130 213 214
f 130 214 215
f 130 215 216
f 130 216 211
f 131 153 217
f 131 217 214
f 131 214 213
f 132 209 135
f 133 139 218
f 133 218 134
f 134 218 140
f 135 209 219
f 135 219 220
f 135 220 136
f 136 220 221
f 136 221 222
f 136 222 137
f 137 222 223
f 137 223 138
f 138 223 139
f 139 223 224
f 139 224 218
f 140 218 225
f 140 225 141
f 141 225 226
f 141 226 227
f 141 227 142
f 142 227 228
f 142 228 143
f 143 228 144
f 144 228 145
f 145 228 229
f 145 229 146
f 146 229 230
f 146 230 147
f 147 230 231
f 147 231 232
f 147 232 148
f 148 232 150
f 149 150 233
f 149 233 234
f 149 234 151
f 150 232 235
f 150 235 233
f 151 234 236
f 151 236 152
f 152 236 237
f 152 237 153
f 153 237 238
f 153 238 217
f 154 239 155
f 155 240 156
f 155 239 241
f 155 241 242
f 155 242 243
f 155 243 244
f 155 244 245
f 155 245 240
f 156 240 245
f 156 245 246
f 156 246 157
f 157 246 247
f 157 247 248
f 158 248 249
f 158 249 250
f 160 250 251
f 160 251 161
f 161 251 162
f 162 252 163
f 162 251 252
f 163 252 167
f 164 175 165
f 164 167 253
f 164 253 175
f 167 254 253
f 167 252 251
f 167 251 254
f 168 170 169
f 172 255 180
f 173 177 259
f 173 259 255
f 175 253 256
f 175 256 176
f 176 256 177
f 177 257 258
f 177 258 259
f 177 256 257
f 179 260 183
f 179 181 260
f 180 255 259
f 180 259 261
f 180 261 181
f 181 261 262
f 181 262 263
f 181 263 264
f 181 264 260
f 182 183 265
f 182 265 266
f 182 266 184
f 183 260 264
f 183 264 267
f 183 267 265
f 184 266 185
f 185 266 268
f 185 268 186
f 186 268 187
f 187 268 188
f 188 268 269
f 188 269 189
f 189 269 270
f 189 270 271
f 189 271 190
f 190 271 272
f 190 272 273
f 190 273 192
f 192 273 274
f 192 274 193
f 193 274 275
f 193 275 276
f 193 276 194
f 194 276 195
f 195 277 278
f 195 278 279
f 195 279 196
f 195 276 277
f 196 280 198
f 196 198 197
f 196 279 281
f 196 281 282
f 196 282 280
f 198 280 283
f 198 283 284
f 198 284 199
f 199 284 285
f 199 285 200
f 200 285 286
f 200 286 287
f 200 287 201
f 201 287 202
f 202 287 288
f 202 288 289
f 202 289 203
f 203 289 204
f 204 289 290
f 204 290 291
f 204 291 292
f 204 292 205
f 206 293 207
f 207 293 294
f 207 294 208
f 208 294 295
f 208 295 219
f 208 219 209
f 211 216 296
f 211 296 318
f 211 318 242
f 211 242 241
f 211 241 212
f 214 217 238
f 214 238 215
f 215 238 297
f 215 297 298
f 215 298 216
f 216 243 318
f 216 318 296
f 216 298 319
f 216 319 243
f 218 224 299
f 218 299 300
f 218 300 225
f 219 295 301
f 219 301 220
f 220 301 302
f 220 302 221
f 221 302 284
f 221 284 283
f 221 283 222
f 222 283 282
f 222 282 223
f 223 282 281
f 223 281 224
f 224 281 299
f 225 300 226
f 226 300 303
f 226 303 304
f 226 304 227
f 227 304 228
f 228 304 305
f 228 305 229
f 229 305 306
f 229 306 230
f 230 306 307
f 230 307 231
f 231 307 308
f 231 308 309
f 231 309 232
f 232 309 235
f 233 235 310
f 233 310 311
f 233 311 234
f 234 311 236
f 235 309 312
f 235 312 310
f 236 311 313
f 236 313 314
f 236 314 237
f 237 315 238
f 237 314 316
f 237 316 315
f 238 315 317
f 238 317 297
f 242 318 243
f 243 319 244
f 244 319 320
f 244 320 247
f 244 247 245
f 245 247 246
f 247 320 321
f 247 321 322
f 247 322 248
f 248 322 323
f 248 323 249
f 249 323 324
f 249 324 325
f 249 325 250
f 250 325 251
f 251 325 254
f 253 254 256
f 254 325 256
f 256 325 326
f 256 326 327
f 256 327 328
f 256 328 257
f 257 329 258
f 257 328 329
f 258 330 259
f 258 329 331
f 258 331 332
f 258 332 330
f 259 330 261
f 261 330 262
f 262 330 333
f 262 333 334
f 262 334 263
f 263 335 336
f 263 336 264
f 263 334 335
f 264 336 267
f 265 267 337
f 265 337 266
f 266 337 267
f 266 267 338
f 266 338 339
f 266 339 340
f 266 340 268
f 267 336 338
f 268 340 270
f 268 270 269
f 270 272 271
f 270 340 272
f 272 340 275
f 272 275 274
f 272 274 273
f 275 340 341
f 275 341 276
f 276 341 342
f 276 342 277
f 277 342 303
f 277 303 278
f 278 303 300
f 278 300 279
f 279 300 281
f 280 282 283
f 281 300 299
f 284 302 285
f 285 302 343
f 285 343 286
f 286 344 288
f 286 288 287
f 286 343 345
f 286 345 344
f 288 344 346
f 288 346 347
f 288 347 348
f 288 348 289
f 289 348 349
f 289 349 350
f 289 350 291
f 289 291 290
f 293 351 294
f 294 351 352
f 294 352 353
f 294 353 295
f 295 353 301
f 297 317 354
f 297 354 298
f 298 354 332
f 298 332 355
f 298 355 356
f 298 356 371
f 298 371 319
f 301 353 343
f 301 343 302
f 303 342 357
f 303 357 304
f 304 306 305
f 304 357 306
f 306 358 359
f 306 359 307
f 306 357 358
f 307 359 360
f 307 360 308
f 308 360 361
f 308 361 362
f 308 362 363
f 308 363 309
f 309 363 312
f 310 312 364
f 310 364 311
f 311 364 365
f 311 365 366
f 311 366 313
f 312 363 367
f 312 367 364
f 313 366 368
f 313 368 314
f 314 368 369
f 314 369 316
f 315 316 317
f 316 369 317
f 317 369 370
f 317 370 354
f 319 371 372
f 319 372 328
f 319 328 373
f 319 373 320
f 320 373 321
f 321 373 374
f 321 374 324
f 321 324 323
f 321 323 322
f 324 374 327
f 324 327 326
f 324 326 325
f 327 374 328
f 328 374 373
f 328 372 371
f 328 371 375
f 328 375 329
f 329 375 371
f 329 371 356
f 329 356 331
f 330 376 377
f 330 377 368
f 330 368 378
f 330 378 333
f 330 332 376
f 331 356 379
f 331 379 332
f 332 379 356
f 332 356 355
f 332 354 370
f 332 370 376
f 333 378 380
f 333 380 334
f 334 380 381
f 334 381 335
f 335 382 339
f 335 339 336
f 335 381 382
f 336 339 338
f 339 382 340
f 340 382 381
f 340 381 383
f 340 383 361
f 340 361 384
f 340 384 341
f 341 384 342
f 342 359 358
f 342 358 357
f 342 384 359
f 343 353 345
f 344 385 346
f 344 345 385
f 345 386 385
f 345 353 387
f 345 387 386
f 351 388 352
f 352 388 387
f 352 387 353
f 359 384 361
f 359 361 360
f 361 383 389
f 361 389 363
f 361 363 362
f 363 389 367
f 364 367 381
f 364 381 380
f 364 380 390
f 364 390 365
f 365 390 366
f 366 390 380
f 366 380 378
f 366 378 368
f 367 389 381
f 368 377 369
f 369 376 370
f 369 377 376
f 381 389 383
