# ABC bottle geometry; canonical radius 1 and height 1, bottom z=0.
# https://github.com/mikedh/trimesh
v -0.225170175423 -0.968151693077 0.0659041156345
v -0.225170175423 -0.72487361851 0.0659041156345
v -0.184686640349 -0.975502846182 0.0659041156345
v -0.225170175423 -0.967892263189 0.069745021079
v -0.225170175423 -0.663556827269 0.172502268608
v 0.660349804376 -0.111273258993 0.198510191193
v 0.670925601906 -0.111273258993 0.188485935598
v 0.683093349751 -0.111273258993 0.1785822449
v 0.691735959676 -0.111273258993 0.172536690272
v 0.684571703546 -0.330162941293 0.0659041156345
v -0.159782458483 -0.980000014674 0.0659041156345
v -0.159782458483 -0.979740456863 0.069745021079
v -0.225170175423 -0.963395158659 0.0789942053138
v -0.225170175423 -0.744505412397 0.172536690272
v 0.0417253573786 -0.654303124359 0.241828073804
v 0.645111624497 -0.111273258993 0.241828073804
v 0.644656790688 -0.111273258993 0.240777421297
v 0.643633334664 -0.111273258993 0.237952717005
v 0.643064712449 -0.111273258993 0.228066256933
v 0.644088168473 -0.111273258993 0.224208130759
v 0.645793971154 -0.111273258993 0.218162566235
v 0.647386049393 -0.111273258993 0.215251738504
v 0.651707322374 -0.111273258993 0.208276106162
v 0.653413061094 -0.111273258993 0.206209232708
v 0.843549136249 -0.111273258993 0.172536690272
v 0.936342780912 -0.330162941293 0.0659041156345
v -0.120549892282 -0.985794396567 0.0659041156345
v -0.0957593708965 -0.989167304917 0.069745021079
v -0.0957593708965 -0.984324165946 0.0796487018802
v -0.159782458483 -0.974810969186 0.0796487018802
v -0.203336361629 -0.9614060043 0.0863143116164
v -0.225170175423 -0.963222141438 0.079200883752
v -0.225170175423 -0.821821723248 0.172485037982
v 0.0417253573786 -0.828913318542 0.241828073804
v 0.832632229352 -0.111273258993 0.241828073804
v 0.936001543621 -0.330162941293 0.069745021079
v 0.928610030492 -0.351956778835 0.0659041156345
v -0.0957593708965 -0.989426734805 0.0659041156345
v -0.0318500077526 -0.994702192961 0.0659041156345
v -0.0318500077526 -0.994356222482 0.069745021079
v -0.0957593708965 -0.974897445815 0.0895351718494
v -0.0318500077526 -0.989513147472 0.0796487018802
v -0.0318500077526 -0.980172967933 0.0895351718494
v -0.159668798002 -0.965297836388 0.0895868439332
v -0.224260443842 -0.953449578753 0.0895868439332
v -0.225170175423 -0.953622468049 0.0892768213274
v 0.0562811906 -0.834275317288 0.241828073804
v -0.225170175423 -0.939439277462 0.0994388526505
v -0.225170175423 -0.939785120017 0.0992149534834
v 0.832177395542 -0.117845994511 0.241828073804
v 0.930884327463 -0.330162941293 0.0794764846938
v 0.923151577043 -0.351956778835 0.0796314811512
v 0.928155068758 -0.351956778835 0.069745021079
v 0.90609387004 -0.408344018437 0.069745021079
v 0.906321318926 -0.408689988916 0.0659041156345
v 0.0321730158722 -0.994702192961 0.0659041156345
v 0.0321730158722 -0.994356222482 0.069745021079
v 0.0321730158722 -0.989513147472 0.0796487018802
v 0.0321730158722 -0.980172967933 0.0895351718494
v 0.0683352779639 -0.834794177064 0.241828073804
v 0.831381324442 -0.125370036912 0.241828073804
v 0.830130419532 -0.134277833306 0.241828073804
v 0.825581697665 -0.160136392232 0.241828073804
v 0.810571030634 -0.223874784939 0.241828073804
v 0.802610767366 -0.24895499024 0.241828073804
v 0.790101782231 -0.287872543572 0.241828073804
v 0.898588440582 -0.391220302646 0.0895351718494
v 0.903478335778 -0.402463159915 0.0796314811512
v 0.891879146185 -0.440342929735 0.069745021079
v 0.892106531109 -0.440602359623 0.0659041156345
v 0.096082442978 -0.989426734805 0.0659041156345
v 0.096082442978 -0.989167304917 0.069745021079
v 0.096082442978 -0.984324165946 0.0796487018802
v 0.096082442978 -0.834188840659 0.241828073804
v 0.77304413919 -0.329989988035 0.241828073804
v 0.88914988748 -0.434462071213 0.0796314811512
v 0.865382886081 -0.479779406805 0.0796314811512
v 0.870955063972 -0.479779406805 0.069745021079
v 0.87118257682 -0.479779406805 0.0659041156345
v 0.135201348699 -0.98371876558 0.0659041156345
v 0.159991806122 -0.979740456863 0.069745021079
v 0.134291553156 -0.830124055313 0.241828073804
v 0.125421622269 -0.831421332676 0.241828073804
v 0.159991806122 -0.974810969186 0.0796487018802
v 0.653981619346 -0.528815557264 0.241828073804
v 0.835475148538 -0.51835105362 0.0874855389176
v 0.839568908672 -0.524664359251 0.0796314811512
v 0.84241189182 -0.529074987152 0.069745021079
v 0.842639340706 -0.529334481001 0.0659041156345
v 0.159991806122 -0.980000014674 0.0659041156345
v 0.199224372324 -0.972908419381 0.0659041156345
v 0.224014893709 -0.968151693077 0.069745021079
v 0.257447897095 -0.95984929705 0.0754288810171
v 0.203545645305 -0.9614060043 0.0863143116164
v 0.149416072554 -0.82752956455 0.241828073804
v 0.224583451961 -0.963481571326 0.0790975593783
v 0.246189816869 -0.957514300137 0.0820255880436
v 0.626916800989 -0.560727991932 0.241828073804
v 0.760080256283 -0.630952579567 0.0796314811512
v 0.786462791944 -0.598953668269 0.0796314811512
v 0.780549504686 -0.591775596346 0.0895351718494
v 0.818303781054 -0.556490253328 0.0796314811512
v 0.821487873569 -0.561073898449 0.069745021079
v 0.821601598012 -0.56124691567 0.0659041156345
v 0.224014893709 -0.968411250889 0.0659041156345
v 0.246303541312 -0.964000431102 0.0659041156345
v 0.260404540724 -0.960887144525 0.069745021079
v 0.292359254277 -0.949557810627 0.069745021079
v 0.351947344439 -0.928282832861 0.069745021079
v 0.351947344439 -0.923180391926 0.0796314811512
v 0.310895251113 -0.938055523471 0.0793214585455
v 0.282465803404 -0.948347009894 0.0790975593783
v 0.160105530565 -0.825453997524 0.241828073804
v 0.287924256853 -0.790082241838 0.241828073804
v 0.249032736056 -0.802622312508 0.241828073804
v 0.223901169266 -0.810665278647 0.241828073804
v 0.594962087436 -0.594975423514 0.241828073804
v 0.700492166121 -0.700398813576 0.0796314811512
v 0.728125606692 -0.668399902278 0.0796314811512
v 0.703221360864 -0.703252734227 0.0740854266325
v 0.76326441276 -0.634671394434 0.069745021079
v 0.789419499535 -0.602672483136 0.069745021079
v 0.789646884459 -0.602931913024 0.0659041156345
v 0.260859438496 -0.961060097784 0.0659041156345
v 0.292927812529 -0.949730699923 0.0659041156345
v 0.336140542346 -0.934250231974 0.0659041156345
v 0.351947344439 -0.928542262748 0.0659041156345
v 0.386290079407 -0.915050949158 0.0659041156345
v 0.408123893201 -0.906056612173 0.069745021079
v 0.402324266424 -0.903548598039 0.0796314811512
v 0.302593814517 -0.946271378906 0.0659041156345
v 0.39106625016 -0.898618982439 0.0895351718494
v 0.329999806202 -0.773044938715 0.241828073804
v 0.560733076912 -0.626887858183 0.241828073804
v 0.66853751653 -0.728073573602 0.0796314811512
v 0.630896964604 -0.760072420937 0.0796314811512
v 0.634535954891 -0.763272376029 0.069745021079
v 0.677748620745 -0.726343913093 0.0703650662906
v 0.704586054178 -0.704550011589 0.0674886899151
v 0.763491861645 -0.634930824322 0.0659041156345
v 0.779526048662 -0.615385507064 0.0659041156345
v 0.40846506653 -0.906229501469 0.0659041156345
v 0.440533440563 -0.892046246921 0.0659041156345
v 0.440192267235 -0.891786817033 0.069745021079
v 0.434278979977 -0.889105785679 0.0796314811512
v 0.479652346284 -0.865236317149 0.0796314811512
v 0.51820262979 -0.835572594651 0.0874855389176
v 0.528778363359 -0.654043694471 0.241828073804
v 0.548224155738 -0.637525315085 0.241828073804
v 0.598828526609 -0.786363426971 0.0796314811512
v 0.602694965781 -0.789390364843 0.069745021079
v 0.615317611397 -0.779444720974 0.0659041156345
v 0.634763339814 -0.763445329287 0.0659041156345
v 0.697762907415 -0.710430934073 0.0659041156345
v 0.704586054178 -0.704550011589 0.0659041156345
v 0.710385616994 -0.697717846184 0.0659041156345
v 0.479652346284 -0.871290192892 0.0659041156345
v 0.479652346284 -0.870857809746 0.069745021079
v 0.524457154339 -0.839550775444 0.0796314811512
v 0.556525528373 -0.818362274307 0.0796314811512
v 0.591664334441 -0.780482568449 0.0895351718494
v 0.56096058976 -0.82138927614 0.069745021079
v 0.602808690224 -0.78964979473 0.0659041156345
v 0.561187974683 -0.821648706028 0.0659041156345
v 0.529233325092 -0.842664189944 0.0659041156345
v 0.529005876207 -0.842404760057 0.069745021079
f 1 2 10
f 1 10 26
f 1 26 37
f 1 37 55
f 1 55 70
f 1 70 79
f 1 79 89
f 1 89 104
f 1 104 123
f 1 123 141
f 1 141 140
f 1 140 156
f 1 156 155
f 1 155 154
f 1 154 153
f 1 153 152
f 1 152 163
f 1 163 164
f 1 164 165
f 1 165 157
f 1 157 143
f 1 143 142
f 1 142 128
f 1 128 127
f 1 127 126
f 1 126 131
f 1 131 125
f 1 125 124
f 1 124 106
f 1 106 105
f 1 105 91
f 1 91 90
f 1 90 80
f 1 80 71
f 1 71 56
f 1 56 39
f 1 39 38
f 1 38 27
f 1 27 11
f 1 11 3
f 1 3 4
f 1 4 13
f 1 13 32
f 1 32 46
f 1 46 49
f 1 49 48
f 1 48 33
f 1 33 14
f 1 14 5
f 1 5 2
f 2 5 6
f 2 6 7
f 2 7 8
f 2 8 9
f 2 9 10
f 3 11 12
f 3 12 4
f 4 12 13
f 5 14 15
f 5 15 16
f 5 16 17
f 5 17 18
f 5 18 19
f 5 19 20
f 5 20 21
f 5 21 22
f 5 22 23
f 5 23 24
f 5 24 6
f 6 24 23
f 6 23 22
f 6 22 21
f 6 21 20
f 6 20 19
f 6 19 18
f 6 18 17
f 6 17 16
f 6 16 35
f 6 35 25
f 6 25 9
f 6 9 8
f 6 8 7
f 9 25 26
f 9 26 10
f 11 27 12
f 12 27 28
f 12 28 29
f 12 29 30
f 12 30 13
f 13 31 32
f 13 30 31
f 14 33 34
f 14 34 15
f 15 34 47
f 15 47 60
f 15 60 74
f 15 74 83
f 15 83 82
f 15 82 95
f 15 95 113
f 15 113 116
f 15 116 115
f 15 115 114
f 15 114 133
f 15 133 148
f 15 148 149
f 15 149 134
f 15 134 117
f 15 117 98
f 15 98 85
f 15 85 75
f 15 75 66
f 15 66 65
f 15 65 64
f 15 64 63
f 15 63 62
f 15 62 61
f 15 61 50
f 15 50 35
f 15 35 16
f 25 35 36
f 25 36 26
f 26 36 37
f 27 38 28
f 28 38 39
f 28 39 40
f 28 40 42
f 28 42 29
f 29 41 30
f 29 42 43
f 29 43 41
f 30 41 44
f 30 44 31
f 31 45 46
f 31 46 32
f 31 44 47
f 31 47 45
f 33 48 34
f 34 48 49
f 34 49 47
f 35 50 51
f 35 51 36
f 36 51 52
f 36 52 53
f 36 53 37
f 37 53 54
f 37 54 55
f 39 56 57
f 39 57 40
f 40 57 58
f 40 58 42
f 41 43 47
f 41 47 44
f 42 58 59
f 42 59 43
f 43 59 60
f 43 60 47
f 45 47 46
f 46 47 49
f 50 61 51
f 51 61 62
f 51 62 63
f 51 63 64
f 51 64 65
f 51 65 66
f 51 66 52
f 52 67 68
f 52 68 53
f 52 66 67
f 53 68 54
f 54 68 69
f 54 69 55
f 55 69 70
f 56 71 72
f 56 72 57
f 57 72 73
f 57 73 58
f 58 73 74
f 58 74 59
f 59 74 60
f 66 75 67
f 67 76 68
f 67 75 76
f 68 76 69
f 69 76 77
f 69 77 78
f 69 78 70
f 70 78 79
f 71 80 72
f 72 80 81
f 72 81 73
f 73 82 83
f 73 83 74
f 73 81 84
f 73 84 82
f 75 85 86
f 75 86 77
f 75 77 76
f 77 86 87
f 77 87 78
f 78 87 88
f 78 88 89
f 78 89 79
f 80 90 81
f 81 90 91
f 81 91 92
f 81 92 93
f 81 93 84
f 82 84 94
f 82 94 95
f 84 93 96
f 84 96 97
f 84 97 94
f 85 98 99
f 85 99 100
f 85 100 101
f 85 101 102
f 85 102 86
f 86 102 87
f 87 102 103
f 87 103 88
f 88 103 89
f 89 103 104
f 91 105 92
f 92 105 106
f 92 106 107
f 92 107 93
f 93 107 108
f 93 108 109
f 93 109 110
f 93 110 111
f 93 111 112
f 93 112 97
f 93 97 96
f 94 97 95
f 95 97 113
f 97 112 114
f 97 114 115
f 97 115 116
f 97 116 113
f 98 117 118
f 98 118 119
f 98 119 99
f 99 119 120
f 99 120 121
f 99 121 100
f 100 121 122
f 100 122 103
f 100 103 102
f 100 102 101
f 103 122 123
f 103 123 104
f 106 124 107
f 107 124 125
f 107 125 108
f 108 125 109
f 109 126 127
f 109 127 128
f 109 128 129
f 109 129 130
f 109 130 110
f 109 125 131
f 109 131 126
f 110 130 132
f 110 132 114
f 110 114 111
f 111 114 112
f 114 132 133
f 117 134 118
f 118 134 135
f 118 135 120
f 118 120 119
f 120 135 136
f 120 136 137
f 120 137 138
f 120 138 139
f 120 139 121
f 121 140 141
f 121 141 122
f 121 139 140
f 122 141 123
f 128 142 129
f 129 142 143
f 129 143 144
f 129 144 130
f 130 144 145
f 130 145 133
f 130 133 132
f 133 145 146
f 133 146 147
f 133 147 148
f 134 149 135
f 135 149 136
f 136 149 148
f 136 148 150
f 136 150 151
f 136 151 137
f 137 151 152
f 137 152 153
f 137 153 139
f 137 139 138
f 139 153 154
f 139 154 155
f 139 155 156
f 139 156 140
f 143 157 158
f 143 158 144
f 144 158 146
f 144 146 145
f 146 158 159
f 146 159 147
f 147 159 160
f 147 160 148
f 148 160 161
f 148 161 150
f 150 161 160
f 150 160 162
f 150 162 151
f 151 163 152
f 151 162 164
f 151 164 163
f 157 165 166
f 157 166 158
f 158 166 159
f 159 166 162
f 159 162 160
f 162 166 165
f 162 165 164
