# ABC bottle geometry; canonical radius 1 and height 1, bottom z=0.
# https://github.com/mikedh/trimesh
v -0.471073954211 -0.852278638557 0.4953371264
v -0.478281832427 -0.848508334276 0.49530501073
v -0.477965732204 -0.848426462911 0.485414868985
v -0.471073954211 -0.851950769325 0.486442421963
v -0.328306284226 -0.327888644321 0.734530804762
v -0.471073954211 -0.850311615051 0.505195152476
v -0.476511492084 -0.847606917756 0.505195152476
v -0.510274987144 -0.830558869015 0.49530501073
v -0.509958822959 -0.830394934399 0.485414868985
v -0.476448297624 -0.847524918467 0.475524737137
v -0.471073954211 -0.850229679724 0.475524737137
v -0.471073954211 -0.851868833998 0.485479100325
v -0.462980841861 -0.0149594654468 0.734530804762
v -0.471073954211 -0.327888644321 0.763783785672
v -0.471073954211 -0.407391368352 0.74528794093
v -0.471073954211 -0.422964069511 0.741241970254
v -0.471073954211 -0.45476514633 0.732764700245
v -0.471073954211 -0.471075457318 0.72836552648
v -0.471073954211 -0.53238271822 0.711443102133
v -0.471073954211 -0.563610055865 0.702323637492
v -0.471073954211 -0.588362455896 0.69500235345
v -0.471073954211 -0.62852362247 0.682607565547
v -0.471073954211 -0.64917791295 0.675511081297
v -0.471073954211 -0.695732081811 0.65679044666
v -0.471073954211 -0.709583565446 0.650946265694
v -0.471073954211 -0.719664872724 0.643817675671
v -0.471073954211 -0.815395908453 0.553682529666
v -0.471073954211 -0.824493671998 0.54478782523
v -0.471073954211 -0.833181630984 0.534897683484
v -0.471073954211 -0.840476113754 0.525007541739
v -0.471073954211 -0.844574287266 0.518135827589
v -0.471073954211 -0.846213441539 0.515117399994
v -0.471073954211 -0.84998374582 0.506126368342
v -0.471073954211 -0.84744298314 0.465634585494
v -0.471073954211 -0.844574287266 0.457478442493
v -0.471073954211 -0.844246418034 0.456739890955
v -0.471073954211 -0.630162840705 0.456739890955
v -0.472717841672 -0.845393896384 0.515117399994
v -0.508504646801 -0.829493389955 0.505195152476
v -0.54372231802 -0.805642470407 0.505195152476
v -0.54372231802 -0.807855491779 0.49530501073
v -0.54372231802 -0.80556053508 0.475524737137
v -0.508441388379 -0.829411390666 0.475524737137
v -0.54372231802 -0.80744568722 0.485414868985
v -0.473855981569 -0.846049506923 0.465634585494
v -0.642104258999 -0.0149594654468 0.734530804762
v -0.787084886394 -0.0149594654468 0.435739390158
v -0.645392097884 -0.0452851946851 0.734530804762
v -0.645834714951 -0.0818400555566 0.734530804762
v -0.645834714951 -0.083233403849 0.734530804762
v -0.644443669291 -0.0909378191015 0.734530804762
v -0.642989493133 -0.0989700396239 0.734530804762
v -0.638247414127 -0.122656896632 0.734530804762
v -0.630027848896 -0.159949431294 0.734530804762
v -0.617129399119 -0.203634904282 0.734530804762
v -0.612324125654 -0.21928960473 0.734530804762
v -0.587412524195 -0.273548124881 0.734530804762
v -0.703877547061 -0.320266228358 0.68838752507
v -0.645392097884 -0.45697810374 0.6806488066
v -0.513120272925 -0.385589535559 0.738191436886
v -0.582923350953 -0.456404300603 0.700300647205
v -0.56502998037 -0.499106357781 0.69500235345
v -0.510907251553 -0.510826819333 0.707814585678
v -0.512424750095 -0.576232125823 0.688419630843
v -0.513626084451 -0.641145692428 0.66892835869
v -0.478914160797 -0.619343923598 0.683699339968
v -0.512171780369 -0.703846237661 0.648826958089
v -0.516724212033 -0.707124738093 0.643689222889
v -0.485679485909 -0.81596971159 0.54478782523
v -0.493203592273 -0.820395690372 0.534897683484
v -0.499526300318 -0.824083931401 0.525007541739
v -0.504647737968 -0.827116433967 0.515117399994
v -0.505785813903 -0.827854107758 0.465634585494
v -0.502877397624 -0.825968955617 0.456739890955
v -0.474108887332 -0.84252520051 0.456739890955
v -0.906774489723 -0.327888644321 0.435739390158
v -0.715384951178 -0.327888644321 0.435739390158
v -0.54372231802 -0.800970749606 0.515117399994
v -0.582796962034 -0.773267718374 0.515117399994
v -0.585768636734 -0.775644546438 0.505195152476
v -0.587096423972 -0.77679208875 0.49530501073
v -0.586906712669 -0.776546218807 0.485414868985
v -0.585705378312 -0.775562675073 0.475524737137
v -0.583745326665 -0.773923392876 0.465634585494
v -0.54372231802 -0.802364097898 0.465634585494
v -0.643242398896 -0.0149594654468 0.734209697549
v -0.957799154921 -0.0149594654468 0.435739390158
v -0.647921219479 -0.0149594654468 0.732861037358
v -0.768179892757 -0.0621693088095 0.688515958059
v -0.768179892757 -0.0689721156554 0.688515958059
v -0.708429914763 -0.0960194084232 0.709901797408
v -0.765144959635 -0.111592109582 0.687359981989
v -0.833746767269 -0.140934359049 0.659455651373
v -0.76109840346 -0.159949431294 0.685818647573
v -0.741561081453 -0.159949431294 0.693204143161
v -0.714436522585 -0.158392148386 0.703543844901
v -0.700905872362 -0.178636634308 0.707108159707
v -0.639954560011 -0.192570117232 0.727915976382
v -0.695088911881 -0.228469303601 0.703543844901
v -0.702423306941 -0.252811835111 0.697731789502
v -0.709757702002 -0.287891412364 0.690506832676
v -0.764512695227 -0.311906138604 0.667419139944
v -0.772416096274 -0.327888644321 0.661735517533
v -0.773617494592 -0.330429470963 0.660804311564
v -0.703877547061 -0.512138168336 0.648826958089
v -0.650387082653 -0.524350433736 0.663501612152
v -0.641219152789 -0.513531516629 0.66892835869
v -0.576284478723 -0.512302102952 0.688419630843
v -0.580520746202 -0.580494169989 0.669859564659
v -0.556431056493 -0.623196099243 0.663501612152
v -0.524437901776 -0.650243392011 0.663501612152
v -0.54081383778 -0.669094593602 0.652712370211
v -0.580014934675 -0.643194779184 0.650047175395
v -0.586400901142 -0.648686173065 0.643689222889
v -0.548717302788 -0.680651120538 0.643689222889
v -0.57242756989 -0.764989563947 0.537145443872
v -0.535439494366 -0.783922700865 0.54478782523
v -0.548211491262 -0.78449644004 0.534255469059
v -0.54372231802 -0.794659618684 0.525007541739
v -0.53992873157 -0.801298618838 0.456739890955
v -0.921000662777 -0.288547086865 0.435739390158
v -0.54372231802 -0.798675792907 0.456739890955
v -0.577359360199 -0.774988935898 0.456739890955
v -0.581405916374 -0.772120240025 0.456739890955
v -0.613399007129 -0.745236881873 0.456739890955
v -0.651145799942 -0.713271806475 0.456739890955
v -0.683012501778 -0.682946077237 0.456739890955
v -0.710263513528 -0.654259566234 0.456739890955
v -0.713235188228 -0.650981065801 0.456739890955
v -0.745228278983 -0.613278790543 0.456739890955
v -0.769444421574 -0.584592215577 0.456739890955
v -0.772099996051 -0.581313779107 0.456739890955
v -0.775008412329 -0.577297604884 0.456739890955
v -0.798655548933 -0.543611439886 0.456739890955
v -0.801247864988 -0.539841199568 0.456739890955
v -0.826033013564 -0.50279459881 0.456739890955
v -0.844369001215 -0.470829587375 0.456739890955
v -0.847403870374 -0.464928388936 0.456739890955
v -0.872252341335 -0.415833393433 0.456739890955
v -0.87560337468 -0.415833393433 0.465634585494
v -0.894445173857 -0.381163620739 0.475524737137
v -0.895140696687 -0.38304877288 0.48297444427
v -0.578876794778 -0.770071217231 0.525007541739
v -0.614789988827 -0.746466295549 0.515117399994
v -0.617761727489 -0.748925122902 0.505195152476
v -0.619152709187 -0.750072601252 0.49530501073
v -0.618899803424 -0.749908666636 0.485414868985
v -0.617635274607 -0.748843187575 0.475524737137
v -0.615675222961 -0.747121970051 0.465634585494
v -0.961150188266 -0.0402036053634 0.435739390158
v -0.959759078644 -0.0149594654468 0.437055944576
v -0.749590999344 -0.0149594654468 0.69240137018
v -0.835201007389 -0.0571696548148 0.660162097138
v -0.836022983101 -0.0960194084232 0.660418973011
v -0.85056532034 -0.0960194084232 0.653611480304
v -0.841650232278 -0.161342779587 0.654189483184
v -0.829889922398 -0.183554352976 0.657882230978
v -0.820658670151 -0.161342779587 0.663052071951
v -0.769887038641 -0.199700793309 0.679268040636
v -0.709820896461 -0.210191841185 0.700493311533
v -0.772289643392 -0.269204145388 0.670180661975
v -0.782342871351 -0.289448695272 0.663854844932
v -0.774186500579 -0.327888644321 0.661029081664
v -0.808392548744 -0.287891412364 0.653611480304
v -0.789550749567 -0.327888644321 0.653611480304
v -0.782216354507 -0.343379410153 0.653611480304
v -0.643305593356 -0.579920430815 0.650047175395
v -0.634327310834 -0.56934738365 0.656629888105
v -0.824262673221 -0.287727477748 0.644620448652
v -0.788539126514 -0.357968567579 0.644524111539
v -0.707102127525 -0.516646082445 0.643689222889
v -0.680736285946 -0.548611093881 0.643689222889
v -0.648806389651 -0.586395368429 0.643689222889
v -0.623325718244 -0.556315509133 0.663501612152
v -0.591269369067 -0.591149152481 0.663501612152
v -0.56939270073 -0.634178950966 0.656629888105
v -0.618457186357 -0.618278380575 0.643689222889
v -0.607202688004 -0.607049722871 0.653322478864
v -0.640586824419 -0.704256106181 0.540581305895
v -0.576347737145 -0.768022194437 0.530530605595
v -0.921253632502 -0.287727477748 0.435739390158
v -0.914108820822 -0.327888644321 0.478960589263
v -0.92776605185 -0.287891412364 0.475524737137
v -0.653358757352 -0.715238957904 0.465634585494
v -0.68535191207 -0.685322969263 0.465634585494
v -0.715195303837 -0.6532760225 0.465634585494
v -0.74718833063 -0.615573683279 0.465634585494
v -0.773996789275 -0.583608671844 0.465634585494
v -0.80238587696 -0.543611439886 0.465634585494
v -0.827866676291 -0.505745230011 0.465634585494
v -0.84607621106 -0.473780218576 0.465634585494
v -0.878511790958 -0.415833393433 0.475524737137
v -0.883253869963 -0.409522326473 0.485928650423
v -0.89551999137 -0.384032316613 0.489557166877
v -0.904561596275 -0.357804632963 0.485928650423
v -0.915183766259 -0.327888644321 0.485703870425
v -0.648553483887 -0.711058913027 0.525007541739
v -0.652473587181 -0.714419348787 0.515117399994
v -0.655382067421 -0.716960111467 0.505195152476
v -0.656773049119 -0.718107589816 0.49530501073
v -0.656520143356 -0.717861719873 0.485414868985
v -0.655318808999 -0.71687817614 0.475524737137
v -0.959759078644 -0.0767584662349 0.435739390158
v -0.969685853721 -0.0320074502251 0.465634585494
v -0.969685853721 -0.0149594654468 0.465634585494
v -0.967283248969 -0.0149594654468 0.458377542689
v -0.966398078798 -0.0149594654468 0.455744453646
v -0.815031420974 -0.0149594654468 0.663469506379
v -0.841839879619 -0.0458589338599 0.653611480304
v -0.86605602221 -0.0960194084232 0.643721338559
v -0.859227438676 -0.159949431294 0.643721338559
v -0.836844958813 -0.212486797884 0.651267382804
v -0.825906624645 -0.229862651894 0.654189483184
v -0.804662092792 -0.223879454165 0.663533727822
v -0.831217709636 -0.255188727137 0.648505860773
v -0.835201007389 -0.266335513476 0.6418910126
v -0.886162414165 -0.358706177408 0.534897683484
v -0.853663383959 -0.415833393433 0.54478782523
v -0.83216613823 -0.448945819256 0.550407226198
v -0.834758390323 -0.453617667981 0.54478782523
v -0.81597991353 -0.485582679416 0.54478782523
v -0.820405764388 -0.493123096091 0.534897683484
v -0.783986758812 -0.535415284748 0.54478782523
v -0.765018506754 -0.572379950178 0.537145443872
v -0.704320100166 -0.640490017926 0.540581305895
v -0.675614848296 -0.675569531216 0.534897683484
v -0.643684952001 -0.706960803477 0.534897683484
v -0.938198574492 -0.224862933937 0.435739390158
v -0.945216805367 -0.223879454165 0.475524737137
v -0.92928348643 -0.287891412364 0.485414868985
v -0.687311899754 -0.687208121403 0.475524737137
v -0.716902385758 -0.655243109968 0.475524737137
v -0.748895540475 -0.617540770747 0.475524737137
v -0.775577482277 -0.585657694638 0.475524737137
v -0.805610521386 -0.543611439886 0.475524737137
v -0.829447305331 -0.50836799198 0.475524737137
v -0.847530323256 -0.476320981255 0.475524737137
v -0.84841555739 -0.477960263453 0.485414868985
v -0.883506839688 -0.409522326473 0.49559401217
v -0.89551999137 -0.384032316613 0.49247925736
v -0.915499930444 -0.327888644321 0.495465569285
v -0.929662845075 -0.287891412364 0.4953371264
v -0.680483380183 -0.680405250595 0.525007541739
v -0.684403483476 -0.684339425529 0.515117399994
v -0.687375158176 -0.687371992057 0.505195152476
v -0.688702945415 -0.68868334106 0.49530501073
v -0.688513234111 -0.68843753508 0.485414868985
v -0.958051996722 -0.107739933937 0.435739390158
v -0.972278169776 -0.0320074502251 0.475524737137
v -0.972278169776 -0.0149594654468 0.475524737137
v -0.846771669928 -0.0149594654468 0.643625011343
v -0.930295109484 -0.0149594654468 0.564600214493
v -0.940411595864 -0.0149594654468 0.554710072748
v -0.946797498369 -0.0149594654468 0.547453029942
v -0.949136908661 -0.0149594654468 0.54478782523
v -0.949136908661 -0.0320074502251 0.54478782523
v -0.959190072657 -0.0616775049617 0.529759948284
v -0.943762629209 -0.0960194084232 0.54478782523
v -0.951349866071 -0.0960194084232 0.534897683484
v -0.934278535161 -0.159949431294 0.54478782523
v -0.929536456156 -0.223879454165 0.534897683484
v -0.92194909137 -0.223879454165 0.54478782523
v -0.84247220799 -0.229862651894 0.644620448652
v -0.911706280032 -0.287891412364 0.534897683484
v -0.895836155555 -0.321003902149 0.540356525898
v -0.89248512221 -0.327888644321 0.541384078876
v -0.897480043017 -0.327888644321 0.534897683484
v -0.898302018728 -0.327888644321 0.533709581848
v -0.90127375739 -0.33608479946 0.525007541739
v -0.88945025305 -0.368049810895 0.525007541739
v -0.861693365812 -0.415833393433 0.534897683484
v -0.838994657801 -0.461158148617 0.534897683484
v -0.824136220339 -0.499434163051 0.525007541739
v -0.784555828761 -0.548119353995 0.534255469059
v -0.767990245416 -0.576232125823 0.530530605595
v -0.743141774455 -0.601558265029 0.534255469059
v -0.706975674643 -0.643522584454 0.534897683484
v -0.938388221834 -0.223879454165 0.435739390158
v -0.955333227786 -0.170604413786 0.475524737137
v -0.951476318952 -0.155195647242 0.435739390158
v -0.946734303909 -0.223879454165 0.485414868985
v -0.956155203498 -0.174866457952 0.485414868985
v -0.717914008811 -0.656472523644 0.485414868985
v -0.749907163529 -0.618770184423 0.485414868985
v -0.77658910533 -0.586805172987 0.485414868985
v -0.807507314611 -0.543611439886 0.485414868985
v -0.830395733924 -0.509843275599 0.485414868985
v -0.830522250768 -0.510253080158 0.49530501073
v -0.848541946309 -0.478206133396 0.49530501073
v -0.87863824384 -0.415833393433 0.505195152476
v -0.89539360245 -0.383704447381 0.499094095637
v -0.904688049157 -0.358132438233 0.49559401217
v -0.947113662554 -0.223879454165 0.4953371264
v -0.92782924631 -0.287891412364 0.505227268145
v -0.71108548924 -0.648440303122 0.525007541739
v -0.714436522585 -0.652374414094 0.515117399994
v -0.71696564418 -0.655325045295 0.505195152476
v -0.718103720115 -0.656718393587 0.49530501073
v -0.951982130479 -0.151753276156 0.435739390158
v -0.961276641148 -0.13863940235 0.475524737137
v -0.966967084784 -0.0960194084232 0.475524737137
v -0.968547713824 -0.0960194084232 0.485414868985
v -0.973795604356 -0.0320074502251 0.485414868985
v -0.972720786843 -0.0149594654468 0.478157826179
v -0.960265018094 -0.0149594654468 0.531269157133
v -0.960265018094 -0.019057511035 0.531269157133
v -0.956850726328 -0.0370071042199 0.534705019157
v -0.962667622846 -0.0370071042199 0.525906651832
v -0.968547713824 -0.0320074502251 0.515117399994
v -0.961150188266 -0.0791352942988 0.523177225677
v -0.957103568129 -0.098724169681 0.525906651832
v -0.941676060719 -0.159949431294 0.534897683484
v -0.935985617082 -0.223879454165 0.525039657409
v -0.918408346722 -0.287891412364 0.525039657409
v -0.903044097734 -0.327888644321 0.526709424813
v -0.909619711542 -0.327888644321 0.515117399994
v -0.903929267905 -0.343707215423 0.515117399994
v -0.892358669328 -0.375672226859 0.515117399994
v -0.868585143805 -0.415833393433 0.525007541739
v -0.84253540245 -0.467469151615 0.525007541739
v -0.794735381677 -0.543611439886 0.525007541739
v -0.827171089499 -0.504597751662 0.515117399994
v -0.770013491522 -0.578772952465 0.525007541739
v -0.743078579995 -0.610656028574 0.525007541739
v -0.962035294476 -0.142901446516 0.485414868985
v -0.956344914801 -0.175768002396 0.4953371264
v -0.962225005779 -0.14388499025 0.4953371264
v -0.75009681087 -0.619016054366 0.49530501073
v -0.776778816634 -0.58705104293 0.49530501073
v -0.807886737218 -0.543611439886 0.49530501073
v -0.805737038229 -0.543611439886 0.505195152476
v -0.829510499791 -0.508449927307 0.505195152476
v -0.84759364564 -0.476484915871 0.505195152476
v -0.894445173857 -0.381327555355 0.505195152476
v -0.84544388269 -0.472632740226 0.515117399994
v -0.874338781901 -0.415833393433 0.515117399994
v -0.906015836395 -0.349280608593 0.505195152476
v -0.913666331679 -0.327888644321 0.505195152476
v -0.945280063789 -0.223879454165 0.505227268145
v -0.923846012519 -0.287891412364 0.515117399994
v -0.74642961334 -0.614672138835 0.515117399994
v -0.748958734935 -0.617622706074 0.505195152476
v -0.968863941971 -0.0960194084232 0.4953371264
v -0.974238221422 -0.0320074502251 0.4953371264
v -0.973795604356 -0.0149594654468 0.485414868985
v -0.973922121199 -0.0149594654468 0.488047967925
v -0.968547713824 -0.0149594654468 0.515117399994
v -0.962857270187 -0.098724169681 0.515149515664
v -0.972404686619 -0.0320074502251 0.505227268145
v -0.967093537666 -0.0960194084232 0.505227268145
v -0.958557808249 -0.121837287515 0.518489040575
v -0.948062091147 -0.159949431294 0.525039657409
v -0.954131893429 -0.156179190976 0.515149515664
v -0.941296766036 -0.223879454165 0.515117399994
v -0.800994959224 -0.543611439886 0.515117399994
v -0.773238071985 -0.582789062726 0.515117399994
v -0.955396422246 -0.170850283728 0.505227268145
v -0.961339835607 -0.138885272293 0.505227268145
v -0.775703999121 -0.585657694638 0.505195152476
v -0.960138565213 -0.132328399352 0.511874212195
v -0.974238221422 -0.0149594654468 0.4953371264
v -0.972404686619 -0.0149594654468 0.505227268145
f 1 2 3
f 1 3 4
f 1 4 5
f 1 5 6
f 1 6 7
f 1 7 2
f 2 7 8
f 2 8 3
f 3 9 10
f 3 10 11
f 3 11 12
f 3 12 4
f 3 8 9
f 4 12 5
f 5 13 14
f 5 14 15
f 5 15 16
f 5 16 17
f 5 17 18
f 5 18 19
f 5 19 20
f 5 20 21
f 5 21 22
f 5 22 23
f 5 23 24
f 5 24 25
f 5 25 26
f 5 26 27
f 5 27 28
f 5 28 29
f 5 29 30
f 5 30 31
f 5 31 32
f 5 32 33
f 5 33 6
f 5 12 11
f 5 11 34
f 5 34 35
f 5 35 36
f 5 36 37
f 5 37 13
f 6 33 7
f 7 33 38
f 7 38 39
f 7 39 8
f 8 39 40
f 8 40 41
f 8 41 9
f 9 42 43
f 9 43 10
f 9 41 44
f 9 44 42
f 10 43 45
f 10 45 11
f 11 45 34
f 13 46 14
f 13 37 47
f 13 47 87
f 13 87 151
f 13 151 207
f 13 207 206
f 13 206 205
f 13 205 250
f 13 250 304
f 13 304 345
f 13 345 346
f 13 346 361
f 13 361 362
f 13 362 347
f 13 347 305
f 13 305 255
f 13 255 254
f 13 254 253
f 13 253 252
f 13 252 251
f 13 251 208
f 13 208 152
f 13 152 88
f 13 88 86
f 13 86 46
f 14 46 48
f 14 48 49
f 14 49 50
f 14 50 51
f 14 51 52
f 14 52 53
f 14 53 54
f 14 54 55
f 14 55 56
f 14 56 57
f 14 57 58
f 14 58 59
f 14 59 60
f 14 60 15
f 15 60 61
f 15 61 62
f 15 62 63
f 15 63 16
f 16 63 17
f 17 63 18
f 18 63 19
f 19 63 64
f 19 64 20
f 20 64 65
f 20 65 21
f 21 65 66
f 21 66 22
f 22 66 65
f 22 65 67
f 22 67 23
f 23 67 24
f 24 67 25
f 25 67 26
f 26 67 27
f 27 67 28
f 28 67 68
f 28 68 69
f 28 69 70
f 28 70 29
f 29 70 71
f 29 71 30
f 30 71 72
f 30 72 31
f 31 72 38
f 31 38 32
f 32 38 33
f 34 45 35
f 35 45 73
f 35 73 74
f 35 74 75
f 35 75 36
f 36 75 76
f 36 76 77
f 36 77 37
f 37 77 47
f 38 72 39
f 39 72 78
f 39 78 40
f 40 78 79
f 40 79 80
f 40 80 41
f 41 81 82
f 41 82 44
f 41 80 81
f 42 44 83
f 42 83 84
f 42 84 85
f 42 85 43
f 43 85 73
f 43 73 45
f 44 82 83
f 46 86 48
f 47 77 76
f 47 76 121
f 47 121 181
f 47 181 228
f 47 228 278
f 47 278 280
f 47 280 299
f 47 299 248
f 47 248 203
f 47 203 150
f 47 150 87
f 48 86 88
f 48 88 89
f 48 89 49
f 49 89 90
f 49 90 50
f 50 90 91
f 50 91 92
f 50 92 93
f 50 93 94
f 50 94 95
f 50 95 96
f 50 96 51
f 51 96 52
f 52 96 97
f 52 97 53
f 53 97 54
f 54 98 55
f 54 97 98
f 55 98 56
f 56 98 99
f 56 99 100
f 56 100 101
f 56 101 58
f 56 58 57
f 58 101 102
f 58 102 103
f 58 103 104
f 58 104 105
f 58 105 59
f 59 105 106
f 59 106 107
f 59 107 61
f 59 61 60
f 61 108 62
f 61 107 108
f 62 108 63
f 63 108 109
f 63 109 64
f 64 109 110
f 64 110 65
f 65 110 111
f 65 111 67
f 67 111 112
f 67 112 113
f 67 113 114
f 67 114 115
f 67 115 68
f 68 115 116
f 68 116 117
f 68 117 70
f 68 70 69
f 70 118 71
f 70 117 118
f 71 118 119
f 71 119 72
f 72 119 78
f 73 85 120
f 73 120 74
f 74 120 76
f 74 76 75
f 76 120 122
f 76 122 123
f 76 123 124
f 76 124 125
f 76 125 126
f 76 126 127
f 76 127 128
f 76 128 129
f 76 129 130
f 76 130 131
f 76 131 132
f 76 132 133
f 76 133 134
f 76 134 135
f 76 135 136
f 76 136 137
f 76 137 138
f 76 138 139
f 76 139 140
f 76 140 141
f 76 141 142
f 76 142 121
f 78 119 143
f 78 143 79
f 79 143 144
f 79 144 145
f 79 145 80
f 80 145 146
f 80 146 81
f 81 146 147
f 81 147 82
f 82 147 83
f 83 148 84
f 83 147 148
f 84 148 149
f 84 149 124
f 84 124 85
f 85 124 123
f 85 123 122
f 85 122 120
f 87 150 151
f 88 152 89
f 89 152 153
f 89 153 154
f 89 154 90
f 90 154 93
f 90 93 92
f 90 92 91
f 93 154 155
f 93 155 156
f 93 156 157
f 93 157 158
f 93 158 94
f 94 97 95
f 94 158 157
f 94 157 97
f 95 97 96
f 97 157 159
f 97 159 160
f 97 160 98
f 98 160 99
f 99 160 161
f 99 161 100
f 100 161 101
f 101 161 102
f 102 161 162
f 102 162 163
f 102 163 103
f 103 163 104
f 104 163 164
f 104 164 165
f 104 165 166
f 104 166 105
f 105 167 168
f 105 168 106
f 105 166 169
f 105 169 170
f 105 170 171
f 105 171 172
f 105 172 173
f 105 173 167
f 106 174 107
f 106 168 174
f 107 174 108
f 108 174 109
f 109 174 168
f 109 168 175
f 109 175 176
f 109 176 110
f 110 176 111
f 111 176 112
f 112 176 113
f 113 167 177
f 113 177 114
f 113 176 178
f 113 178 167
f 114 177 179
f 114 179 115
f 115 179 116
f 116 179 180
f 116 180 118
f 116 118 117
f 118 180 119
f 119 180 143
f 121 142 182
f 121 182 183
f 121 183 181
f 124 149 125
f 125 149 184
f 125 184 126
f 126 184 185
f 126 185 127
f 127 185 128
f 128 185 186
f 128 186 129
f 129 186 187
f 129 187 130
f 130 187 131
f 131 187 188
f 131 188 132
f 132 188 133
f 133 188 189
f 133 189 134
f 134 189 135
f 135 189 190
f 135 190 136
f 136 190 137
f 137 190 191
f 137 191 138
f 138 191 140
f 138 140 139
f 140 191 192
f 140 192 141
f 141 192 142
f 142 192 193
f 142 193 194
f 142 194 195
f 142 195 196
f 142 196 182
f 143 180 197
f 143 197 144
f 144 197 198
f 144 198 199
f 144 199 145
f 145 199 200
f 145 200 146
f 146 200 147
f 147 201 202
f 147 202 148
f 147 200 201
f 148 202 184
f 148 184 149
f 150 203 204
f 150 204 205
f 150 205 206
f 150 206 207
f 150 207 151
f 152 208 153
f 153 208 209
f 153 209 210
f 153 210 155
f 153 155 154
f 155 210 211
f 155 211 156
f 156 212 157
f 156 211 212
f 157 212 213
f 157 213 214
f 157 214 159
f 159 214 160
f 160 214 161
f 161 214 162
f 162 214 164
f 162 164 163
f 164 213 215
f 164 215 169
f 164 169 165
f 164 214 213
f 165 169 166
f 167 178 168
f 167 173 177
f 168 178 175
f 169 216 217
f 169 217 218
f 169 218 219
f 169 219 170
f 169 215 216
f 170 219 171
f 171 219 220
f 171 220 221
f 171 221 222
f 171 222 223
f 171 223 224
f 171 224 172
f 172 224 225
f 172 225 173
f 173 225 177
f 175 178 176
f 177 225 226
f 177 226 179
f 179 226 227
f 179 227 180
f 180 227 197
f 181 183 229
f 181 229 228
f 182 196 183
f 183 196 230
f 183 230 281
f 183 281 229
f 184 202 231
f 184 231 185
f 185 231 186
f 186 231 232
f 186 232 233
f 186 233 187
f 187 233 188
f 188 233 234
f 188 234 235
f 188 235 189
f 189 235 236
f 189 236 190
f 190 236 191
f 191 236 237
f 191 237 192
f 192 237 238
f 192 238 193
f 193 238 239
f 193 239 194
f 194 239 240
f 194 240 241
f 194 241 242
f 194 242 196
f 194 196 195
f 196 242 230
f 197 227 243
f 197 243 244
f 197 244 198
f 198 244 245
f 198 245 199
f 199 245 246
f 199 246 200
f 200 246 247
f 200 247 201
f 201 247 202
f 202 247 231
f 203 248 249
f 203 249 204
f 204 249 250
f 204 250 205
f 208 251 209
f 209 251 210
f 210 251 252
f 210 252 253
f 210 253 254
f 210 254 255
f 210 255 256
f 210 256 257
f 210 257 258
f 210 258 211
f 211 258 259
f 211 259 260
f 211 260 261
f 211 261 262
f 211 262 263
f 211 263 212
f 212 263 215
f 212 215 213
f 215 263 216
f 216 262 264
f 216 264 265
f 216 265 266
f 216 266 217
f 216 263 262
f 217 266 265
f 217 265 267
f 217 267 268
f 217 268 269
f 217 269 270
f 217 270 271
f 217 271 218
f 218 271 220
f 218 220 219
f 220 271 272
f 220 272 222
f 220 222 221
f 222 272 273
f 222 273 274
f 222 274 223
f 223 274 224
f 224 274 275
f 224 275 276
f 224 276 225
f 225 276 277
f 225 277 226
f 226 277 243
f 226 243 227
f 228 229 278
f 229 279 280
f 229 280 278
f 229 281 282
f 229 282 279
f 230 242 293
f 230 293 281
f 231 247 232
f 232 247 283
f 232 283 284
f 232 284 233
f 233 284 234
f 234 284 285
f 234 285 286
f 234 286 235
f 235 286 287
f 235 287 236
f 236 287 238
f 236 238 237
f 238 287 288
f 238 288 289
f 238 289 239
f 239 289 290
f 239 290 291
f 239 291 240
f 240 291 292
f 240 292 241
f 241 292 291
f 241 291 242
f 242 291 294
f 242 294 339
f 242 339 293
f 243 277 295
f 243 295 244
f 244 295 296
f 244 296 245
f 245 296 297
f 245 297 246
f 246 298 283
f 246 283 247
f 246 297 298
f 248 299 300
f 248 300 301
f 248 301 249
f 249 301 302
f 249 302 303
f 249 303 304
f 249 304 250
f 255 305 306
f 255 306 256
f 256 306 307
f 256 307 257
f 257 307 306
f 257 306 308
f 257 308 309
f 257 309 310
f 257 310 311
f 257 311 259
f 257 259 258
f 259 312 260
f 259 311 312
f 260 312 261
f 261 312 313
f 261 313 314
f 261 314 264
f 261 264 262
f 264 314 268
f 264 268 267
f 264 267 265
f 268 314 315
f 268 315 269
f 269 315 314
f 269 314 316
f 269 316 317
f 269 317 318
f 269 318 270
f 270 319 271
f 270 318 319
f 271 319 272
f 272 319 320
f 272 320 273
f 273 321 274
f 273 320 322
f 273 322 321
f 274 321 275
f 275 277 276
f 275 321 323
f 275 323 324
f 275 324 295
f 275 295 277
f 279 300 280
f 279 282 300
f 280 300 299
f 281 293 282
f 282 325 300
f 282 293 326
f 282 326 327
f 282 327 325
f 283 298 328
f 283 328 284
f 284 328 329
f 284 329 285
f 285 329 330
f 285 330 286
f 286 330 288
f 286 288 287
f 288 330 331
f 288 331 332
f 288 332 333
f 288 333 289
f 289 333 290
f 290 334 291
f 290 333 335
f 290 335 336
f 290 336 334
f 291 334 337
f 291 337 338
f 291 338 294
f 293 339 326
f 294 338 340
f 294 340 354
f 294 354 339
f 295 324 341
f 295 341 296
f 296 341 342
f 296 342 297
f 297 342 328
f 297 328 298
f 300 325 302
f 300 302 301
f 302 325 327
f 302 327 343
f 302 343 344
f 302 344 303
f 303 345 304
f 303 344 346
f 303 346 345
f 305 347 309
f 305 309 306
f 306 309 308
f 309 348 310
f 309 347 362
f 309 362 349
f 309 349 350
f 309 350 348
f 310 348 351
f 310 351 311
f 311 351 312
f 312 351 352
f 312 352 313
f 313 352 353
f 313 353 354
f 313 354 340
f 313 340 314
f 314 340 316
f 316 338 337
f 316 337 317
f 316 340 338
f 317 337 334
f 317 334 318
f 318 336 319
f 318 334 336
f 319 336 320
f 320 336 335
f 320 335 322
f 321 322 355
f 321 355 323
f 322 335 332
f 322 332 355
f 323 355 356
f 323 356 341
f 323 341 324
f 326 339 357
f 326 357 358
f 326 358 327
f 327 358 343
f 328 342 359
f 328 359 329
f 329 359 330
f 330 359 331
f 331 359 356
f 331 356 355
f 331 355 332
f 332 335 333
f 339 360 357
f 339 354 360
f 341 356 342
f 342 356 359
f 343 358 350
f 343 350 344
f 344 361 346
f 344 350 349
f 344 349 362
f 344 362 361
f 348 350 360
f 348 360 351
f 350 358 360
f 351 360 353
f 351 353 352
f 353 360 354
f 357 360 358
