# ABC bottle geometry; canonical radius 1 and height 1, bottom z=0.
# https://github.com/mikedh/trimesh
v -0.271060866417 -0.327816431219 0.873360105365
v -0.892079155372 -0.014847340054 0.59341516538
v -0.120639119277 -0.327816431219 0.873360105365
v -0.361298781292 -0.327816431219 0.930750005599
v -0.709262380244 -0.014847340054 0.59341516538
v -0.377005482849 -0.311362909305 0.930750005599
v -0.400867531786 -0.279396106933 0.930750005599
v -0.846771350118 -0.014847340054 0.643681077682
v -0.866027239308 0.0960962907519 0.643760679017
v -0.892079155372 0.0320451878074 0.59341516538
v -0.174706393037 0.685601651714 0.59341516538
v -0.120639119277 -0.209703747133 0.873360105365
v -0.120639119277 -0.327816431219 0.997174236733
v -0.305872314949 -0.327816431219 0.977314629022
v -0.320521852506 -0.320412317575 0.975523673212
v -0.372323656051 -0.237792277362 0.98021994414
v -0.448742771874 -0.193955406311 0.936162619263
v -0.411439363672 -0.159873188586 0.98021994414
v -0.44791209733 -0.0645604004003 0.975324674823
v -0.859155481422 0.160029895495 0.643760679017
v -0.886717732283 0.0918653960817 0.59341516538
v -0.886793271409 0.091160214989 0.59341516538
v -0.449346893001 -0.032005979099 0.976120658482
v -0.449346893001 0.0320451878074 0.976120658482
v -0.44791209733 0.0647171073098 0.975324674823
v -0.174706393037 0.872819012708 0.59341516538
v -0.120639119277 -0.207353271415 0.881280057162
v -0.147748199341 0.632480375991 0.734541790399
v -0.120639119277 -0.28774033411 0.999243802163
v -0.159981316353 -0.28774033411 0.99860700138
v -0.159981316353 -0.327816431219 0.996418038896
v -0.295451561316 -0.327816431219 0.980299515784
v -0.30995002062 -0.309835048918 0.982130287106
v -0.33660605781 -0.288210454839 0.979384164762
v -0.391504006115 -0.205825411028 0.98021994414
v -0.329130306722 -0.267173479689 0.986866343856
v -0.385236369355 -0.194307964877 0.985473404618
v -0.433942220026 -0.0899457684214 0.979264767708
v -0.392032588115 -0.159873188586 0.986945925397
v -0.438850600241 -0.032005979099 0.981055723518
v -0.842391679827 0.229957251697 0.64467605973
v -0.835142418194 0.266390009104 0.641969733104
v -0.862251562219 0.223963500239 0.59341516538
v -0.875919410941 0.160147393696 0.59341516538
v -0.877127589232 0.153330962944 0.59341516538
v -0.438850600241 0.0320451878074 0.981055723518
v -0.433942220026 0.0899849771298 0.979264767708
v -0.415668083634 0.146749592555 0.980020965545
v -0.831215726814 0.255342619719 0.648576337101
v -0.218352849202 0.863416981911 0.59341516538
v -0.174706393037 0.855660437625 0.643959677406
v -0.120639119277 -0.18537611877 0.990129850135
v -0.174706393037 0.852839777217 0.645909816092
v -0.174706393037 0.840382089608 0.653471596521
v -0.147748199341 0.397547935765 0.873360105365
v -0.120639119277 -0.185728677335 0.995980266193
v -0.223940761746 -0.223806793329 0.99920398665
v -0.120639119277 -0.222278932943 0.998328381862
v -0.177726870746 0.146749592555 0.997293633786
v -0.223412179746 0.146749592555 0.999084589596
v -0.237080028468 0.146749592555 0.999482596271
v -0.159981316353 -0.223806793329 0.999442780758
v -0.220920284037 -0.286565160213 0.996617066976
v -0.197511277974 -0.323350412223 0.995462862464
v -0.177651331619 -0.327816431219 0.995821053626
v -0.267964849582 -0.327816431219 0.98698574091
v -0.347555457405 -0.217225358979 0.989493079043
v -0.287296149974 -0.287152779143 0.990169635957
v -0.307231571494 -0.240025254879 0.993472937956
v -0.323391315924 -0.197363621688 0.995462862464
v -0.363715201836 -0.159873188586 0.991881010226
v -0.401773745456 -0.0958220856413 0.988935879596
v -0.374966630013 -0.0958220856413 0.993870944631
v -0.40222678833 -0.0255421069116 0.990925843691
v -0.824268621687 0.287779542819 0.64467605973
v -0.819435780599 0.350537909703 0.59341516538
v -0.822003151472 0.344074037516 0.59341516538
v -0.839748705865 0.296946513252 0.59341516538
v -0.842467154991 0.289072342841 0.59341516538
v -0.40222678833 0.0256988138211 0.990925843691
v -0.401773745456 0.0959787285887 0.988935879596
v -0.39407144095 0.146749592555 0.987343932072
v -0.399961446039 0.146749592555 0.985473404618
v -0.512173635267 0.703818030417 0.648894722647
v -0.579908757749 0.643057644648 0.650128498803
v -0.61826926599 0.618259895556 0.643760679017
v -0.643113067724 0.579829220997 0.650128498803
v -0.70382548199 0.511899781948 0.648894722647
v -0.224016300873 0.862124245851 0.59341516538
v -0.26637903962 0.835093519242 0.641969733104
v -0.229981845088 0.842380006761 0.64467605973
v -0.212613858404 0.836856376031 0.651362255165
v -0.174706393037 0.834388402111 0.656456503076
v -0.340683763481 0.146749592555 0.995701656572
v -0.334114162101 0.146749592555 0.996338457355
v -0.299227174443 0.146749592555 0.998288625731
v -0.287900207139 0.146749592555 0.998805970078
v -0.171987879948 0.146749592555 0.996696648517
v -0.162020169189 0.146749592555 0.991443188038
v -0.287900207139 -0.032005979099 0.999999940618
v -0.287900207139 -0.0958220856413 0.999601993325
v -0.287900207139 -0.159873188586 0.99860700138
v -0.286692028848 -0.220751136518 0.996617066976
v -0.264642215367 -0.264470445405 0.995781287598
v -0.287900207139 0.0959787285887 0.999601993325
v -0.287900207139 0.0320451878074 0.999999940618
v -0.240176045303 -0.307132014635 0.993472937956
v -0.228547049417 -0.327816431219 0.991443188038
v -0.201211415936 -0.327816431219 0.994348532847
v -0.265699443329 -0.327816431219 0.987264330737
v -0.331773216722 -0.159873188586 0.996179244788
v -0.381007713355 -0.0427007459566 0.994746509831
v -0.343024644899 -0.0958220856413 0.996975258137
v -0.383801637646 -3.91767273723e-05 0.995064915171
v -0.78847548432 0.357824461184 0.644556662676
v -0.787493795485 0.419760148774 0.59341516538
v -0.790287783738 0.413883895517 0.59341516538
v -0.383801637646 0.000195883636861 0.995064915171
v -0.381007713355 0.042739890703 0.994746509831
v -0.374966630013 0.0959787285887 0.993870944631
v -0.366056147216 0.146749592555 0.992278967416
v -0.255278625734 0.831097684936 0.648576337101
v -0.287975746266 0.808297789035 0.653710390629
v -0.343402212608 0.78208974172 0.653710390629
v -0.287824731974 0.824281254183 0.64467605973
v -0.357900735874 0.788318553544 0.644556662676
v -0.516704383812 0.707108747592 0.643760679017
v -0.548570893761 0.680548141712 0.643760679017
v -0.586251805711 0.648581275378 0.643760679017
v -0.631106504129 0.631187639931 0.59341516538
v -0.648625505104 0.586293093184 0.643760679017
v -0.680642965383 0.548567535756 0.643760679017
v -0.707072513117 0.516600733384 0.643760679017
v -0.289032910266 0.842497632886 0.59341516538
v -0.29696176819 0.839676972477 0.59341516538
v -0.344157348026 0.821930714503 0.59341516538
v -0.350651474241 0.819462740583 0.59341516538
v -0.343024644899 0.0959787285887 0.996975258137
v -0.356541479329 -0.0255421069116 0.996816045571
v -0.356541479329 0.0256988138211 0.996816045571
v -0.778809802143 0.435978610325 0.59341516538
v -0.414006798507 0.790316470697 0.59341516538
v -0.419896867558 0.787378312087 0.59341516538
v -0.436283165406 0.778681526344 0.59341516538
v -0.467016908267 0.760700144043 0.59341516538
v -0.480005096735 0.752238354703 0.59341516538
v -0.525690469698 0.720271552331 0.59341516538
v -0.533166220787 0.7146304234 0.59341516538
v -0.561408067939 0.691477968934 0.59341516538
v -0.598862490433 0.659746162964 0.59341516538
v -0.603770870648 0.655515268294 0.59341516538
v -0.655572674193 0.603686728632 0.59341516538
v -0.691516825851 0.56137778193 0.59341516538
v -0.717115699041 0.529881036325 0.59341516538
v -0.720287255003 0.525532643453 0.59341516538
v -0.752304715282 0.47969785525 0.59341516538
v -0.760762219168 0.466770174837 0.59341516538
f 1 2 5
f 1 5 3
f 1 3 13
f 1 13 31
f 1 31 65
f 1 65 109
f 1 109 108
f 1 108 110
f 1 110 66
f 1 66 32
f 1 32 14
f 1 14 4
f 1 4 2
f 2 4 6
f 2 6 7
f 2 7 8
f 2 8 9
f 2 9 10
f 2 10 22
f 2 22 21
f 2 21 45
f 2 45 44
f 2 44 43
f 2 43 79
f 2 79 78
f 2 78 77
f 2 77 76
f 2 76 117
f 2 117 116
f 2 116 141
f 2 141 157
f 2 157 156
f 2 156 155
f 2 155 154
f 2 154 153
f 2 153 152
f 2 152 130
f 2 130 151
f 2 151 150
f 2 150 149
f 2 149 148
f 2 148 147
f 2 147 146
f 2 146 145
f 2 145 144
f 2 144 143
f 2 143 142
f 2 142 137
f 2 137 136
f 2 136 135
f 2 135 134
f 2 134 89
f 2 89 50
f 2 50 26
f 2 26 11
f 2 11 5
f 3 5 11
f 3 11 26
f 3 26 12
f 3 12 27
f 3 27 52
f 3 52 56
f 3 56 58
f 3 58 29
f 3 29 13
f 4 14 15
f 4 15 6
f 6 15 7
f 7 15 16
f 7 16 17
f 7 17 8
f 8 17 18
f 8 18 19
f 8 19 9
f 9 20 21
f 9 21 22
f 9 22 10
f 9 19 23
f 9 23 24
f 9 24 25
f 9 25 20
f 12 26 28
f 12 28 27
f 13 29 30
f 13 30 31
f 14 32 33
f 14 33 15
f 15 33 34
f 15 34 16
f 16 35 17
f 16 34 36
f 16 36 37
f 16 37 35
f 17 35 18
f 18 38 19
f 18 35 37
f 18 37 39
f 18 39 38
f 19 38 40
f 19 40 23
f 20 41 42
f 20 42 43
f 20 43 44
f 20 44 45
f 20 45 21
f 20 25 41
f 23 40 46
f 23 46 24
f 24 46 25
f 25 46 47
f 25 47 48
f 25 48 49
f 25 49 41
f 26 50 51
f 26 51 28
f 27 28 52
f 28 51 53
f 28 53 54
f 28 54 55
f 28 55 56
f 28 56 52
f 29 57 30
f 29 58 59
f 29 59 60
f 29 60 61
f 29 61 62
f 29 62 57
f 30 57 63
f 30 63 64
f 30 64 31
f 31 64 65
f 32 66 33
f 33 66 36
f 33 36 34
f 36 67 37
f 36 66 68
f 36 68 69
f 36 69 67
f 37 67 70
f 37 70 71
f 37 71 39
f 38 39 72
f 38 72 40
f 39 71 73
f 39 73 72
f 40 72 74
f 40 74 80
f 40 80 46
f 41 49 42
f 42 49 75
f 42 75 76
f 42 76 77
f 42 77 78
f 42 78 79
f 42 79 43
f 46 80 81
f 46 81 47
f 47 81 82
f 47 82 83
f 47 83 48
f 48 83 84
f 48 84 85
f 48 85 86
f 48 86 87
f 48 87 88
f 48 88 75
f 48 75 49
f 50 89 51
f 51 89 90
f 51 90 91
f 51 91 92
f 51 92 53
f 53 92 54
f 54 93 55
f 54 92 94
f 54 94 95
f 54 95 96
f 54 96 97
f 54 97 61
f 54 61 93
f 55 61 60
f 55 60 59
f 55 59 98
f 55 98 99
f 55 99 56
f 55 93 61
f 56 98 58
f 56 99 98
f 57 62 100
f 57 100 101
f 57 101 102
f 57 102 103
f 57 103 104
f 57 104 63
f 58 98 59
f 61 97 105
f 61 105 106
f 61 106 62
f 62 106 100
f 63 104 64
f 64 104 107
f 64 107 108
f 64 108 109
f 64 109 65
f 66 110 107
f 66 107 68
f 67 69 70
f 68 107 104
f 68 104 69
f 69 104 70
f 70 104 103
f 70 103 102
f 70 102 111
f 70 111 73
f 70 73 71
f 72 73 112
f 72 112 74
f 73 111 113
f 73 113 112
f 74 112 114
f 74 114 118
f 74 118 80
f 75 88 115
f 75 115 116
f 75 116 117
f 75 117 76
f 80 118 119
f 80 119 81
f 81 119 120
f 81 120 82
f 82 120 121
f 82 121 122
f 82 122 123
f 82 123 124
f 82 124 84
f 82 84 83
f 84 124 125
f 84 125 126
f 84 126 127
f 84 127 128
f 84 128 129
f 84 129 85
f 85 129 86
f 86 129 130
f 86 130 131
f 86 131 87
f 87 131 88
f 88 131 132
f 88 132 133
f 88 133 115
f 89 134 90
f 90 134 135
f 90 135 136
f 90 136 137
f 90 137 125
f 90 125 122
f 90 122 91
f 91 122 92
f 92 122 121
f 92 121 94
f 94 121 120
f 94 120 138
f 94 138 95
f 95 138 96
f 96 138 105
f 96 105 97
f 100 106 140
f 100 140 139
f 100 139 101
f 101 139 113
f 101 113 102
f 102 113 111
f 105 138 140
f 105 140 106
f 107 110 108
f 112 113 114
f 113 139 114
f 114 139 140
f 114 140 118
f 115 133 116
f 116 133 141
f 118 140 138
f 118 138 119
f 119 138 120
f 122 125 123
f 123 125 124
f 125 137 142
f 125 142 143
f 125 143 126
f 126 143 127
f 127 143 144
f 127 144 145
f 127 145 146
f 127 146 147
f 127 147 148
f 127 148 149
f 127 149 128
f 128 149 150
f 128 150 129
f 129 150 151
f 129 151 130
f 130 152 131
f 131 152 153
f 131 153 132
f 132 153 133
f 133 153 154
f 133 154 155
f 133 155 156
f 133 156 157
f 133 157 141
