# ABC bottle geometry; canonical radius 1 and height 1, bottom z=0.
# https://github.com/mikedh/trimesh
v -0.328122390084 -0.92452642699 0.38182423
v -0.419837378773 -0.899907363886 0.38182423
v -0.328122390084 -0.914451062564 0.3474171
v -0.13592179832 -0.328149700716 0.89751947
v -0.13592179832 -0.328149700716 0.9988476
v -0.328122390084 -0.866965197455 0.52998886
v -0.396031542783 -0.848829431971 0.52998886
v -0.702165793977 -0.702078865399 0.38182423
v -0.695149357228 -0.695157502504 0.3474171
v -0.415744411704 -0.890883219224 0.3474171
v -0.366295192792 -0.88930632113 0.33408229
v -0.328122390084 -0.899469298611 0.33408229
v -0.328205896277 -0.0300052125539 0.95011795
v -0.13592179832 -0.313781296596 0.91521692
v -0.328122390084 -0.88790451225 0.32379307
v -0.328122390084 -0.780141412902 0.23900998
v -0.328122390084 -0.728450189603 0.23900998
v -0.778260880815 -0.0692555189428 0.20591986
v -0.13592179832 -0.315533557695 1
v -0.153128865422 -0.328149700716 0.99843603
v -0.328205896277 -0.759377324217 0.6499199
v -0.328205896277 -0.773745728337 0.63691434
v -0.328122390084 -0.815974878595 0.59855616
v -0.374815151702 -0.803621506292 0.59855616
v -0.626989617502 -0.626819935655 0.59855616
v -0.662238882082 -0.662127723018 0.52998886
v -0.891025111304 -0.415586776653 0.3474171
v -0.848675903782 -0.395961657683 0.52998886
v -0.899879231882 -0.419792134844 0.38182423
v -0.806076040785 -0.375986018044 0.15908337
v -0.745266831028 -0.462722189542 0.15908337
v -0.404718582527 -0.867490807337 0.32379307
v -0.885261678136 -0.0692555189428 0.15908337
v -0.977978946485 -0.0699563549349 0.3474171
v -0.987250666475 -0.0699563549349 0.38017794
v -0.987668334336 -0.0699563549349 0.38182423
v -0.328205896277 -0.029567147279 0.98518354
v -0.32795530925 -0.029567147279 0.98518354
v -0.324697677902 -0.029567147279 0.98600668
v -0.315175370885 -0.029567147279 0.99448502
v -0.831635917514 -0.0692555189428 0.16040039
v -0.833891200755 -0.0692555189428 0.15908337
v -0.13592179832 -0.299850957751 0.95011795
v -0.360030517123 -0.771643015018 0.23900998
v -0.682870592917 -0.462722189542 0.15908337
v -0.145945347839 -0.312817552991 1
v -0.13592179832 -0.285745392796 0.99448502
v -0.328205896277 -0.029567147279 0.99695438
v -0.333301143005 -0.0699563549349 1
v -0.156302922129 -0.328149700716 0.99835372
v -0.328205896277 -0.705846226763 0.69115905
v -0.329208244384 -0.705583387598 0.69115905
v -0.351343477379 -0.753156797314 0.6499199
v -0.597754373116 -0.597557449085 0.63691434
v -0.803570170517 -0.374934661385 0.59855616
v -0.979399030901 -0.0857265679345 0.3474171
v -0.886013370769 -0.0776662353248 0.15908337
v -0.989255431137 -0.0866903115392 0.38182423
v -0.932956787862 -0.0816964358535 0.52998886
v -0.931954371307 -0.0699563549349 0.52998886
v -0.244092093031 -0.244129533922 1
v -0.82812769914 -0.0699563549349 0.64942601
v -0.421674994154 -0.0699563549349 0.97382426
v -0.414491476571 -0.0699563549349 0.97728145
v -0.412319699523 -0.0699563549349 0.97826922
v -0.35242933168 -0.0699563549349 0.99827141
v -0.930116755927 -0.0699563549349 0.5326229
v -0.882588727035 -0.0699563549349 0.59855616
v -0.312920087644 -0.145916189119 1
v -0.257373205449 -0.257359036775 0.99835372
v -0.298970651891 -0.298974827201 0.97835153
v -0.257289630808 -0.328149700716 0.97835153
v -0.272909601108 -0.328149700716 0.97390658
v -0.305402408394 -0.305458124821 0.97390658
v -0.587647385853 -0.587569629266 0.6499199
v -0.753202109691 -0.351279341885 0.6499199
v -0.883256913475 -0.0774034646075 0.59855616
v -0.827877180561 -0.0725847465841 0.6499199
v -0.391437401661 -0.182625785361 0.97382426
v -0.383251604419 -0.178770810942 0.97826922
v -0.329876499271 -0.153888908673 0.99827141
v -0.841910054059 -0.0737237162987 0.63691434
v -0.328205896277 -0.156254461158 0.99835372
v -0.328205896277 -0.257183810665 0.97835153
v -0.328205896277 -0.272954023665 0.97390658
f 1 2 3
f 1 3 4
f 1 4 5
f 1 5 6
f 1 6 7
f 1 7 2
f 2 7 8
f 2 8 9
f 2 9 10
f 2 10 3
f 3 10 11
f 3 11 12
f 3 12 4
f 4 13 14
f 4 14 43
f 4 43 47
f 4 47 19
f 4 19 5
f 4 12 15
f 4 15 16
f 4 16 17
f 4 17 18
f 4 18 13
f 5 19 20
f 5 20 21
f 5 21 22
f 5 22 23
f 5 23 6
f 6 23 24
f 6 24 7
f 7 24 25
f 7 25 26
f 7 26 8
f 8 27 9
f 8 26 28
f 8 28 29
f 8 29 27
f 9 27 30
f 9 30 31
f 9 31 10
f 10 31 32
f 10 32 11
f 11 32 15
f 11 15 12
f 13 33 34
f 13 34 35
f 13 35 36
f 13 36 37
f 13 37 38
f 13 38 39
f 13 39 40
f 13 40 14
f 13 18 41
f 13 41 42
f 13 42 33
f 14 40 43
f 15 44 16
f 15 32 44
f 16 44 31
f 16 31 45
f 16 45 17
f 17 45 42
f 17 42 41
f 17 41 18
f 19 46 20
f 19 47 40
f 19 40 48
f 19 48 49
f 19 49 69
f 19 69 61
f 19 61 46
f 20 50 21
f 20 46 50
f 21 50 51
f 21 51 52
f 21 52 53
f 21 53 24
f 21 24 22
f 22 24 23
f 24 54 25
f 24 53 54
f 25 54 55
f 25 55 26
f 26 55 28
f 27 56 57
f 27 57 30
f 27 29 58
f 27 58 56
f 28 58 29
f 28 55 59
f 28 59 58
f 30 57 33
f 30 33 42
f 30 42 45
f 30 45 31
f 31 44 32
f 33 57 56
f 33 56 34
f 34 56 58
f 34 58 35
f 35 58 36
f 36 58 60
f 36 60 48
f 36 48 37
f 37 48 40
f 37 40 39
f 37 39 38
f 40 47 43
f 46 61 50
f 48 62 63
f 48 63 64
f 48 64 65
f 48 65 66
f 48 66 49
f 48 60 67
f 48 67 68
f 48 68 62
f 49 66 69
f 50 61 70
f 50 70 71
f 50 71 72
f 50 72 52
f 50 52 51
f 52 73 53
f 52 72 73
f 53 73 74
f 53 74 75
f 53 75 54
f 54 75 76
f 54 76 55
f 55 77 59
f 55 76 78
f 55 78 77
f 58 59 60
f 59 77 67
f 59 67 60
f 61 69 70
f 62 78 63
f 62 68 78
f 63 78 76
f 63 76 79
f 63 79 80
f 63 80 64
f 64 80 65
f 65 80 66
f 66 80 81
f 66 81 69
f 67 77 68
f 68 77 82
f 68 82 78
f 69 81 83
f 69 83 70
f 70 83 71
f 71 84 85
f 71 85 74
f 71 74 72
f 71 83 84
f 72 74 73
f 74 85 75
f 75 85 76
f 76 85 79
f 77 78 82
f 79 85 80
f 80 85 84
f 80 84 83
f 80 83 81
