# ABC bottle geometry; canonical radius 1 and height 1, bottom z=0.
# https://github.com/mikedh/trimesh
v 0.639573726999 -0.0892124039115 0.74567853
v 0.632514305095 -0.169494573404 0.74567853
v 0.587500770881 -0.0892124039115 0.74567853
v 0.419060839626 -0.0892124039115 0.97393554
v 0.417087218667 -0.111779336546 0.97393554
v 0.55857983833 -0.328118009431 0.74567853
v 0.584540407891 -0.0892124039115 0.74699794
v 0.501345172768 -0.328118009431 0.74567853
v -0.135902975203 -0.328118009431 0.89760923
v 0.410027796763 -0.0892124039115 0.97836676
v 0.4082819013 -0.10941741179 0.97836676
v 0.353703964734 -0.247695453707 0.97393554
v 0.273317344052 -0.328118009431 0.97393554
v 0.583098214869 -0.0892124039115 0.74764518
v -0.135902975203 -0.313735915771 0.91525939
v 0.423311647089 -0.0892124039115 0.82989639
v 0.434394219409 -0.0892124039115 0.82379726
v 0.497170205355 -0.0892124039115 0.78946781
v -0.135902975203 -0.328118009431 0.99890465
v 0.35188222922 -0.0892124039115 0.998357
v 0.346189091839 -0.242433742175 0.97836676
v 0.351426778229 -0.0941934798774 0.998357
v 0.298063377638 -0.20871195645 0.998357
v 0.260564784767 -0.328118009431 0.97836676
v -0.135902975203 -0.313198053751 0.91657877
v 0.366532432517 -0.0892124039115 0.87117136
v -0.0887640714817 -0.328118009431 0.99997512
v -0.135902975203 -0.315489819615 0.99997512
v 0.333360624056 -0.0892124039115 0.99997512
v 0.333360624056 -0.0893527216948 0.99997512
v 0.282729929407 -0.198001397375 0.99997512
v 0.198016524316 -0.282726849261 0.99997512
v 0.208719554144 -0.298067689843 0.998357
v 0.144349558179 -0.328118009431 0.998357
v -0.135902975203 -0.299704685017 0.95021117
v 0.331538820094 -0.0892124039115 0.91525939
v 0.100702445385 -0.328118009431 0.99997512
v -0.135902975203 -0.285626636037 0.99459791
v 0.332905173065 -0.0892124039115 0.99990043
v 0.1072305078 -0.328118009431 0.99975109
v 0.316584914355 -0.0892124039115 0.95021117
v 0.302541979045 -0.0892124039115 0.99459791
f 1 2 6
f 1 6 8
f 1 8 3
f 1 3 7
f 1 7 14
f 1 14 18
f 1 18 17
f 1 17 16
f 1 16 26
f 1 26 36
f 1 36 41
f 1 41 42
f 1 42 39
f 1 39 29
f 1 29 20
f 1 20 10
f 1 10 4
f 1 4 5
f 1 5 2
f 2 5 6
f 3 8 9
f 3 9 7
f 4 10 11
f 4 11 5
f 5 11 12
f 5 12 6
f 6 12 13
f 6 13 24
f 6 24 34
f 6 34 40
f 6 40 37
f 6 37 27
f 6 27 19
f 6 19 9
f 6 9 8
f 7 9 14
f 9 15 16
f 9 16 17
f 9 17 18
f 9 18 14
f 9 19 28
f 9 28 38
f 9 38 35
f 9 35 25
f 9 25 15
f 10 20 11
f 11 21 12
f 11 20 22
f 11 22 23
f 11 23 21
f 12 21 24
f 12 24 13
f 15 25 26
f 15 26 16
f 19 27 28
f 20 29 30
f 20 30 22
f 21 23 24
f 22 30 23
f 23 30 31
f 23 31 32
f 23 32 33
f 23 33 24
f 24 33 34
f 25 35 26
f 26 35 36
f 27 37 32
f 27 32 31
f 27 31 30
f 27 30 29
f 27 29 28
f 28 29 38
f 29 39 38
f 32 37 40
f 32 40 33
f 33 40 34
f 35 38 36
f 36 38 41
f 38 39 42
f 38 42 41
