# ABC bottle geometry; canonical radius 1 and height 1, bottom z=0.
# https://github.com/mikedh/trimesh
v 0.202722235188 -0.754623905299 0.64850453
v -0.328118693908 -0.708806658201 0.64850453
v 0.202722235188 -0.805382460249 0.64850453
v 0.202722235188 -0.774004939774 0.23892102
v -0.328118693908 -0.760992758366 0.64850453
v -0.328118693908 -0.728626921562 0.23892102
v -0.0725189683451 -0.829457843278 0.64850453
v 0.202722235188 -0.858858867991 0.59862963
v 0.202722235188 -0.824132133147 0.23892102
v -0.328118693908 -0.816171118149 0.59862963
v -0.328118693908 -0.780318897786 0.23892102
v -0.0772474723011 -0.883345895484 0.59862963
v -0.0816122451835 -0.933116202553 0.53003161
v 0.202722235188 -0.90824484123 0.53003161
v -0.00127942439339 -0.841975900746 0.23892102
v 0.202722235188 -0.928614192034 0.32379653
v -0.0834309005511 -0.953650306969 0.32379653
v -0.328118693908 -0.867066910736 0.53003161
v -0.144901657321 -0.829402879776 0.23892102
v -0.328118693908 -0.888067691565 0.32379653
v -0.0865486248018 -0.989255431137 0.38172998
v 0.202722235188 -0.963944704033 0.38172998
v -0.074181699854 -0.848344753813 0.23892102
v 0.202722235188 -0.954226773492 0.34737083
v -0.085665238796 -0.979455089566 0.34737083
v -0.328118693908 -0.914503904187 0.34737083
v -0.328118693908 -0.92452375753 0.38172998
f 1 2 5
f 1 5 7
f 1 7 3
f 1 3 8
f 1 8 14
f 1 14 22
f 1 22 24
f 1 24 16
f 1 16 9
f 1 9 4
f 1 4 2
f 2 4 6
f 2 6 11
f 2 11 20
f 2 20 26
f 2 26 27
f 2 27 18
f 2 18 10
f 2 10 5
f 3 7 8
f 4 9 15
f 4 15 23
f 4 23 19
f 4 19 11
f 4 11 6
f 5 10 7
f 7 10 12
f 7 12 8
f 8 12 13
f 8 13 14
f 9 16 17
f 9 17 15
f 10 18 13
f 10 13 12
f 11 19 17
f 11 17 20
f 13 18 21
f 13 21 14
f 14 21 22
f 15 17 23
f 16 24 17
f 17 19 23
f 17 24 25
f 17 25 26
f 17 26 20
f 18 27 21
f 21 27 26
f 21 26 25
f 21 25 24
f 21 24 22
