# ABC bottle geometry; canonical radius 1 and height 1, bottom z=0.
# https://github.com/mikedh/trimesh
v 0.796240243306 0.0521876744619 0.23892933
v 0.846203367544 0.0521876744619 0.23892933
v 0.803151544389 0.0521876744619 0.25083849
v 0.253773267158 0.755551029384 0.25083849
v 0.253773267158 0.752319750401 0.24568269
v 0.253773267158 0.748389894199 0.23892933
v 0.778313996229 0.0691298489671 0.20592493
v 0.778386003209 0.0691298489671 0.20577967
v 0.831588825497 0.0691298489671 0.16039407
v 0.833892569709 0.0691298489671 0.15908697
v 0.950881118403 0.0521876744619 0.32374591
v 0.885295559748 0.0691298489671 0.15908697
v 0.929787180255 0.0521876744619 0.39374864
v 0.253773267158 0.886198111109 0.39374864
v 0.253773267158 0.800089810356 0.23892933
v 0.330517785765 0.811268141008 0.02285761
v 0.80372746333 0.35871926455 0.02285761
v 0.953256869594 0.0521876744619 0.32592443
v 0.858154198928 0.35871926455 0.02285761
v 0.88932712923 0.35871926455 0.03385907
v 0.897102377173 0.35871926455 0.0366185
v 0.923379791133 0.35871926455 0.05923867
v 0.976510606442 0.0521876744619 0.34731011
v 0.963767903626 0.0521876744619 0.39374864
v 0.253773267158 0.921217802106 0.39374864
v 0.253773267158 0.907856126746 0.32374591
v 0.330517785765 0.904712255474 0.0366185
v 0.330589792744 0.865675300564 0.02285761
v 0.330517785765 0.864976723346 0.02285761
v 0.848291159265 0.395660214015 0.02285761
v 0.882847801577 0.411729132774 0.0366185
v 0.906173545404 0.422732784897 0.05923867
v 0.899982108773 0.419763592154 0.38169423
v 0.989253377706 0.0866833983216 0.38169423
v 0.986085686635 0.0521876744619 0.38169423
v 0.966647635226 0.0846748005886 0.39374864
v 0.984069901894 0.0521876744619 0.38681373
v 0.410213974505 0.879298993716 0.39374864
v 0.418781162327 0.897900408898 0.38681373
v 0.253773267158 0.931697487092 0.39026304
v 0.253773267158 0.934317391226 0.34731011
v 0.330517785765 0.930911502162 0.05923867
v 0.422668786298 0.906284225334 0.05923867
v 0.411797854264 0.882879492861 0.0366185
v 0.395599432458 0.848296429737 0.02285761
v 0.80934298102 0.451290054822 0.02285761
v 0.688826706358 0.68883019719 0.0366185
v 0.707040981353 0.706994984499 0.05923867
v 0.702145465011 0.702017125575 0.38169423
v 0.897966324032 0.41889026796 0.38681373
v 0.987021640474 0.0865087197932 0.38681373
v 0.880543988917 0.40596528892 0.39374864
v 0.686090988716 0.686035614528 0.39374864
v 0.253773267158 0.942002561997 0.38681373
v 0.700561585251 0.700445155715 0.38681373
v 0.419717047718 0.899821667367 0.38169423
v 0.253773267158 0.944360448339 0.38169423
v 0.253773267158 0.9432251748 0.38427213
v 0.661829359497 0.661844897125 0.02285761
v 0.879248068628 0.410157162914 0.39374864
f 1 2 11
f 1 11 18
f 1 18 23
f 1 23 35
f 1 35 37
f 1 37 24
f 1 24 13
f 1 13 3
f 1 3 4
f 1 4 5
f 1 5 6
f 1 6 7
f 1 7 8
f 1 8 9
f 1 9 10
f 1 10 12
f 1 12 2
f 2 12 11
f 3 13 14
f 3 14 4
f 4 14 25
f 4 25 40
f 4 40 54
f 4 54 58
f 4 58 57
f 4 57 41
f 4 41 26
f 4 26 15
f 4 15 6
f 4 6 5
f 6 8 7
f 6 15 29
f 6 29 16
f 6 16 8
f 8 16 9
f 9 16 10
f 10 16 17
f 10 17 19
f 10 19 12
f 11 12 18
f 12 19 20
f 12 20 21
f 12 21 22
f 12 22 23
f 12 23 18
f 13 24 36
f 13 36 52
f 13 52 60
f 13 60 53
f 13 53 38
f 13 38 25
f 13 25 14
f 15 26 27
f 15 27 28
f 15 28 29
f 16 29 28
f 16 28 45
f 16 45 59
f 16 59 46
f 16 46 30
f 16 30 19
f 16 19 17
f 19 30 20
f 20 30 31
f 20 31 21
f 21 31 32
f 21 32 22
f 22 32 33
f 22 33 34
f 22 34 23
f 23 34 35
f 24 37 36
f 25 38 39
f 25 39 40
f 26 41 42
f 26 42 27
f 27 42 43
f 27 43 44
f 27 44 45
f 27 45 28
f 30 46 31
f 31 47 32
f 31 46 47
f 32 47 48
f 32 48 33
f 33 49 50
f 33 50 34
f 33 48 49
f 34 50 51
f 34 51 37
f 34 37 35
f 36 37 51
f 36 51 50
f 36 50 52
f 38 53 39
f 39 54 40
f 39 53 55
f 39 55 49
f 39 49 56
f 39 56 57
f 39 57 58
f 39 58 54
f 41 57 42
f 42 57 43
f 43 48 47
f 43 47 44
f 43 57 56
f 43 56 49
f 43 49 48
f 44 47 59
f 44 59 45
f 46 59 47
f 49 55 50
f 50 55 53
f 50 53 60
f 50 60 52
