# ABC bottle geometry; canonical radius 1 and height 1, bottom z=0.
# https://github.com/mikedh/trimesh
v 0.883299214153 0.395770620154 0.39381939
v 0.848174866624 0.395770620154 0.39381939
v 0.879417065997 0.410125197839 0.39381939
v 0.848914375566 0.395873497046 0.5300507
v 0.848914375566 0.395770620154 0.53008515
v 0.253773267158 0.886244450202 0.39381939
v 0.446956904777 0.395770620154 0.7456785
v 0.253773267158 0.546056373494 0.7456785
v 0.688636695545 0.682553406279 0.39381939
v 0.66232430481 0.66233354525 0.5300507
v 0.848606292472 0.395770620154 0.53053293
v 0.253773267158 0.921333341822 0.39381939
v 0.5102422785 0.395770620154 0.7456785
v 0.253773267158 0.599718753635 0.7456785
v 0.68611022252 0.686103514645 0.39381939
v 0.395872607226 0.848891582482 0.5300507
v 0.627015080046 0.627038831397 0.59863137
v 0.413681261155 0.876931935383 0.39381939
v 0.793331763671 0.395770620154 0.59363679
v 0.253773267158 0.88696472534 0.5300507
v 0.410107196094 0.879401459922 0.39381939
v 0.463101732034 0.463067302841 0.7456785
v 0.659058322843 0.395770620154 0.69115153
v 0.550665983797 0.550635387675 0.69115153
v 0.276758141443 0.593544771168 0.7456785
v 0.329136442747 0.705705977427 0.69115153
v 0.253773267158 0.725874434234 0.69115153
v 0.253773267158 0.857072177699 0.5703173
v 0.374798039777 0.803615551342 0.59863137
v 0.587700569715 0.587730892046 0.64985159
v 0.788956586739 0.395770620154 0.59863137
v 0.441719081491 0.478090751443 0.7456785
v 0.722097216402 0.395770620154 0.64985159
v 0.351258602232 0.753245847771 0.64985159
v 0.253773267158 0.779382533261 0.64985159
v 0.253773267158 0.836029096192 0.59863137
f 1 2 6
f 1 6 12
f 1 12 21
f 1 21 18
f 1 18 15
f 1 15 9
f 1 9 3
f 1 3 4
f 1 4 5
f 1 5 11
f 1 11 19
f 1 19 31
f 1 31 33
f 1 33 23
f 1 23 13
f 1 13 7
f 1 7 2
f 2 7 8
f 2 8 6
f 3 9 10
f 3 10 4
f 4 10 11
f 4 11 5
f 6 8 14
f 6 14 27
f 6 27 35
f 6 35 36
f 6 36 28
f 6 28 20
f 6 20 12
f 7 13 22
f 7 22 32
f 7 32 25
f 7 25 14
f 7 14 8
f 9 15 10
f 10 16 17
f 10 17 11
f 10 15 18
f 10 18 16
f 11 17 19
f 12 20 16
f 12 16 21
f 13 23 24
f 13 24 22
f 14 25 26
f 14 26 27
f 16 20 28
f 16 28 29
f 16 29 17
f 16 18 21
f 17 29 30
f 17 30 31
f 17 31 19
f 22 24 32
f 23 33 24
f 24 26 32
f 24 33 30
f 24 30 34
f 24 34 26
f 25 32 26
f 26 34 35
f 26 35 27
f 28 36 29
f 29 36 35
f 29 35 34
f 29 34 30
f 30 33 31
