# ABC bottle geometry; canonical radius 1 and height 1, bottom z=0.
# https://github.com/mikedh/trimesh
v 0.587526507216 -0.0892124039115 0.74567853
v 0.639533274409 -0.0892124039115 0.74567853
v 0.584559983933 -0.0892124039115 0.74699794
v 0.17884227034 0.566032766057 0.74567853
v 0.652372762272 0.0570762091385 0.74567853
v 0.419083906501 -0.0892124039115 0.97393554
v 0.583123061383 -0.0892124039115 0.74764518
v 0.497140430606 -0.0892124039115 0.78946781
v 0.434426389828 -0.0892124039115 0.82379726
v 0.423348266608 -0.0892124039115 0.82989639
v 0.366567272396 -0.0892124039115 0.87117136
v 0.17884227034 0.561521994232 0.74764518
v 0.17884227034 0.619746002839 0.74567853
v 0.6456054067 0.0823366271841 0.74567853
v 0.391411870669 0.182545701553 0.97393554
v 0.43016202972 0.0376450709474 0.97393554
v 0.411343156198 -0.0892124039115 0.97776929
v 0.331618014082 -0.0892124039115 0.91525939
v 0.17884227034 0.396704452114 0.82989639
v 0.17884227034 0.399688498008 0.82830313
v 0.17884227034 0.472832804533 0.78946781
v 0.251568361423 0.600245458681 0.74567853
v 0.17884227034 0.392332492223 0.97393554
v 0.182550424444 0.391360877133 0.97393554
v 0.593505892875 0.276717278167 0.74567853
v 0.305382832352 0.305308771941 0.97393554
v 0.298939918874 0.298854838384 0.97836676
v 0.383114845916 0.178659514984 0.97836676
v 0.421077035053 0.0368816737583 0.97836676
v 0.463025481297 0.463047863695 0.74567853
v 0.410091658466 -0.0892124039115 0.97836676
v 0.316646311941 -0.0892124039115 0.95021117
v 0.17884227034 0.330014079147 0.87117136
v 0.276783740883 0.593444563736 0.74567853
v 0.17884227034 0.383519029579 0.97814271
v 0.441657273219 0.478037636028 0.74567853
v 0.17884227034 0.382894444324 0.97836676
v 0.257315983173 0.257355545943 0.998357
v 0.329810241898 0.153815395845 0.998357
v 0.362534676198 0.0317463166783 0.998357
v 0.351966488338 -0.0892124039115 0.998357
v 0.17884227034 0.287612577582 0.91525939
v 0.17884227034 0.320367881794 0.881154
v 0.302601733886 -0.0892124039115 0.99459791
v 0.17884227034 0.31224847882 0.998357
v 0.244105714123 0.244100785889 0.99997512
v 0.312845479652 0.145904210771 0.99997512
v 0.343854888401 0.0301501847808 0.99997512
v 0.333425717818 -0.0892124039115 0.99997512
v 0.17884227034 0.271096147766 0.95021117
v 0.332962189999 -0.0892124039115 0.99990043
v 0.17884227034 0.289694482801 0.99997512
v 0.17884227034 0.269500015868 0.99678862
v 0.17884227034 0.255620602111 0.99459791
f 1 2 6
f 1 6 17
f 1 17 31
f 1 31 41
f 1 41 49
f 1 49 51
f 1 51 44
f 1 44 32
f 1 32 18
f 1 18 11
f 1 11 10
f 1 10 9
f 1 9 8
f 1 8 7
f 1 7 3
f 1 3 4
f 1 4 13
f 1 13 22
f 1 22 34
f 1 34 36
f 1 36 30
f 1 30 25
f 1 25 14
f 1 14 5
f 1 5 2
f 2 5 6
f 3 7 4
f 4 7 8
f 4 8 9
f 4 9 10
f 4 10 11
f 4 11 12
f 4 12 21
f 4 21 20
f 4 20 19
f 4 19 33
f 4 33 43
f 4 43 42
f 4 42 50
f 4 50 54
f 4 54 53
f 4 53 52
f 4 52 45
f 4 45 37
f 4 37 35
f 4 35 23
f 4 23 13
f 5 14 15
f 5 15 16
f 5 16 6
f 6 16 17
f 11 18 19
f 11 19 20
f 11 20 21
f 11 21 12
f 13 23 24
f 13 24 22
f 14 25 15
f 15 26 27
f 15 27 28
f 15 28 29
f 15 29 16
f 15 25 30
f 15 30 26
f 16 29 17
f 17 29 31
f 18 32 33
f 18 33 19
f 22 24 34
f 23 35 24
f 24 35 27
f 24 27 26
f 24 26 36
f 24 36 34
f 26 30 36
f 27 35 37
f 27 37 38
f 27 38 28
f 28 38 39
f 28 39 40
f 28 40 29
f 29 40 31
f 31 40 41
f 32 42 43
f 32 43 33
f 32 44 42
f 37 45 38
f 38 45 46
f 38 46 39
f 39 46 47
f 39 47 40
f 40 47 48
f 40 48 41
f 41 48 49
f 42 44 50
f 44 51 52
f 44 52 53
f 44 53 54
f 44 54 50
f 45 52 46
f 46 52 49
f 46 49 48
f 46 48 47
f 49 52 51
