# ABC bottle geometry; canonical radius 1 and height 1, bottom z=0.
# https://github.com/mikedh/trimesh
v 0.178815370395 0.25565366235 0.99454966
v 0.178815370395 0.289790925609 0.99997512
v -0.135882440893 0.311736353135 0.99997512
v -0.135882440893 0.280898063634 0.99454966
v -0.135882440893 0.294954551589 0.95018163
v 0.178815370395 0.271216273478 0.95018163
v 0.253773267158 0.54610736703 0.74564253
v 0.145836173758 0.312883810364 0.99997512
v 0.253773267158 0.599751608531 0.74564253
v 0.178815370395 0.312310081749 0.99834746
v -0.0892900920501 0.333466581094 0.99997512
v -0.135882440893 0.332103924298 0.99834746
v -0.328118693908 0.558657800259 0.74564253
v -0.328118693908 0.501427652245 0.74564253
v -0.135882440893 0.302843422712 0.93161458
v -0.135882440893 0.309871700913 0.91521767
v 0.178815370395 0.277455623498 0.93685913
v 0.253773267158 0.891352701993 0.38418764
v 0.178815370395 0.287711142269 0.91521767
v 0.0300387519265 0.343937230983 0.99997512
v 0.153753450677 0.32980900984 0.99834746
v 0.253773267158 0.725901744866 0.69114698
v 0.178815370395 0.383596717718 0.97809249
v 0.178815370395 0.383022989103 0.97833362
v -0.0941316031574 0.351539237799 0.99834746
v -0.109339586756 0.408410788317 0.97833362
v -0.135882440893 0.396003753018 0.97833362
v -0.328118693908 0.693127069955 0.69114698
v -0.328118693908 0.869479007656 0.38418764
v -0.135882440893 0.348168530852 0.87115103
v 0.253773267158 0.94334742239 0.38418764
v 0.178815370395 0.320414083991 0.88109767
v 0.178815370395 0.330095874147 0.87115103
v 0.0316906002512 0.362511951562 0.99834746
v 0.178587576452 0.383166455481 0.97833362
v 0.0367599053014 0.421176421113 0.97833362
v 0.253773267158 0.779330855248 0.64985336
v 0.178815370395 0.392417914952 0.97393298
v 0.0375573894447 0.430212749465 0.97393298
v -0.11173190229 0.417160252362 0.97393298
v -0.135882440893 0.405900674292 0.97393298
v -0.328118693908 0.750070285214 0.64985336
v -0.328118693908 0.924844503448 0.38418764
v 0.0864280884036 0.988170603553 0.38418764
v 0.0815865772963 0.933091972067 0.53013198
v 0.253773267158 0.886906271005 0.53013198
v 0.253773267158 0.8359872062 0.59867337
v 0.0772007225225 0.88332043294 0.59867337
v 0.0724162283487 0.827883203958 0.64985336
v -0.215055278525 0.802710535863 0.64985336
v -0.328118693908 0.810527673798 0.59867337
v -0.328118693908 0.864745712361 0.53013198
v -0.242395548359 0.904692063403 0.53013198
v -0.25669221929 0.958121242233 0.38418764
v -0.0958972800059 0.972249394929 0.38418764
v -0.229465914876 0.856426579 0.59867337
f 1 2 3
f 1 3 4
f 1 4 5
f 1 5 6
f 1 6 7
f 1 7 2
f 2 8 20
f 2 20 11
f 2 11 3
f 2 7 9
f 2 9 10
f 2 10 8
f 3 11 12
f 3 12 13
f 3 13 14
f 3 14 4
f 4 14 5
f 5 15 6
f 5 14 15
f 6 15 16
f 6 16 17
f 6 17 7
f 7 18 31
f 7 31 46
f 7 46 47
f 7 47 37
f 7 37 22
f 7 22 9
f 7 17 19
f 7 19 18
f 8 10 21
f 8 21 20
f 9 22 23
f 9 23 24
f 9 24 10
f 10 24 21
f 11 20 25
f 11 25 12
f 12 25 26
f 12 26 27
f 12 27 13
f 13 28 42
f 13 42 51
f 13 51 52
f 13 52 43
f 13 43 29
f 13 29 14
f 13 27 28
f 14 29 30
f 14 30 16
f 14 16 15
f 16 19 17
f 16 30 19
f 18 29 43
f 18 43 54
f 18 54 55
f 18 55 44
f 18 44 31
f 18 19 32
f 18 32 33
f 18 33 29
f 19 30 32
f 20 21 34
f 20 34 25
f 21 24 35
f 21 35 36
f 21 36 34
f 22 37 38
f 22 38 23
f 23 35 24
f 23 38 35
f 25 34 36
f 25 36 26
f 26 36 39
f 26 39 40
f 26 40 41
f 26 41 27
f 27 41 28
f 28 41 42
f 29 33 30
f 30 33 32
f 31 44 45
f 31 45 46
f 35 38 36
f 36 38 39
f 37 47 48
f 37 48 49
f 37 49 38
f 38 49 39
f 39 49 40
f 40 49 50
f 40 50 42
f 40 42 41
f 42 50 51
f 43 52 53
f 43 53 54
f 44 55 45
f 45 47 46
f 45 55 53
f 45 53 48
f 45 48 47
f 48 53 56
f 48 56 50
f 48 50 49
f 50 56 51
f 51 56 53
f 51 53 52
f 53 55 54
