# ABC bottle geometry; canonical radius 1 and height 1, bottom z=0.
# https://github.com/mikedh/trimesh
v 0.330291703014 -0.755926122776 0.15908161
v -0.708880787059 -0.425334824182 0.15908161
v -0.61558609392 -0.462712880655 0.20588547
v -0.628516891014 -0.462712880655 0.22441244
v -0.63878890568 -0.462712880655 0.23889989
v 0.202071845151 -0.773972564012 0.23889989
v 0.330291703014 -0.812356254082 0.15908161
v 0.330291703014 -0.804981288284 0.02287871
v -0.763141605434 -0.425334824182 0.02287871
v -0.771359299305 -0.425334824182 0.15908161
v -0.699696337886 -0.462712880655 0.23889989
v 0.202071845151 -0.82414513821 0.23889989
v 0.330291703014 -0.887671037148 0.12042028
v 0.330291703014 -0.862975791755 0.02287871
v -0.827311871013 -0.425334824182 0.02287871
v -0.854744408345 -0.425334824182 0.12042028
v -0.602051108985 -0.60222380253 0.23889989
v -0.899337399895 -0.425334824182 0.08675027
v -0.0743076436206 -0.848281645034 0.23889989
v -0.086875804804 -0.992094778595 0.08675027
v 0.257541176103 -0.961924127953 0.08675027
v 0.330291703014 -0.928066062859 0.08675027
v 0.330291703014 -0.904432372832 0.03662592
v 0.251982196213 -0.940916502353 0.03662592
v 0.242072612114 -0.904041331127 0.02287871
v -0.809184661492 -0.451315038232 0.02287871
v -0.873234253777 -0.425334824182 0.03662592
v -0.419812258468 -0.72977828031 0.23889989
v -0.704046873647 -0.704300883058 0.08675027
v -0.420899892408 -0.902532812284 0.08675027
v -0.904292123497 -0.425334824182 0.05923474
v -0.145124591477 -0.829341208399 0.23889989
v -0.361321782968 -0.918512064557 0.08675027
v -0.361321782968 -0.922646510932 0.05923474
v -0.0872383722666 -0.996061528107 0.05923474
v 0.258628741595 -0.965779239267 0.05923474
v 0.330291703014 -0.932423990971 0.05923474
v -0.0849422257494 -0.97041650244 0.03662592
v -0.0816793923764 -0.932368069201 0.02287871
v -0.661750097062 -0.66195037503 0.02287871
v -0.688699188294 -0.688936291124 0.03662592
v -0.359750771376 -0.771737746633 0.23889989
v -0.706947276452 -0.707094507453 0.05923474
v -0.422591714189 -0.90616444186 0.05923474
v -0.411715443234 -0.882866008665 0.03662592
v -0.361321782968 -0.861746607973 0.02438033
v -0.361200904332 -0.857444464735 0.02287871
v -0.39552174432 -0.848225791712 0.02287871
f 1 2 3
f 1 3 4
f 1 4 5
f 1 5 6
f 1 6 12
f 1 12 7
f 1 7 13
f 1 13 22
f 1 22 37
f 1 37 23
f 1 23 14
f 1 14 8
f 1 8 9
f 1 9 2
f 2 10 11
f 2 11 5
f 2 5 4
f 2 4 3
f 2 9 15
f 2 15 27
f 2 27 31
f 2 31 18
f 2 18 16
f 2 16 10
f 5 11 17
f 5 17 28
f 5 28 42
f 5 42 32
f 5 32 19
f 5 19 12
f 5 12 6
f 7 12 13
f 8 14 25
f 8 25 39
f 8 39 47
f 8 47 48
f 8 48 40
f 8 40 26
f 8 26 15
f 8 15 9
f 10 16 11
f 11 16 18
f 11 18 17
f 12 19 20
f 12 20 21
f 12 21 22
f 12 22 13
f 14 23 24
f 14 24 25
f 15 26 27
f 17 18 29
f 17 29 30
f 17 30 28
f 18 31 29
f 19 32 20
f 20 33 34
f 20 34 35
f 20 35 36
f 20 36 21
f 20 32 33
f 21 36 22
f 22 36 37
f 23 37 24
f 24 38 25
f 24 37 36
f 24 36 38
f 25 38 39
f 26 40 27
f 27 41 31
f 27 40 41
f 28 30 42
f 29 31 43
f 29 43 30
f 30 43 44
f 30 44 34
f 30 34 33
f 30 33 32
f 30 32 42
f 31 41 43
f 34 44 45
f 34 45 38
f 34 38 35
f 35 38 36
f 38 45 46
f 38 46 39
f 39 46 47
f 40 48 45
f 40 45 41
f 41 45 43
f 43 45 44
f 45 48 46
f 46 48 47
