# ABC bottle geometry; canonical radius 1 and height 1, bottom z=0.
# https://github.com/mikedh/trimesh
v 0.69431066757 -0.46262348796 0.15913877
v 0.750819308386 -0.46262348796 0.15913877
v 0.691845934369 -0.46262348796 0.1603764
v 0.814613522306 -0.309795655519 0.02289289
v 0.925963417987 -0.328044975736 0.38170077
v 0.925455878297 -0.328044975736 0.38286768
v 0.924875920942 -0.328044975736 0.38410532
v 0.709643020637 -0.46262348796 0.23891315
v 0.872608162672 -0.309795655519 0.02289289
v 0.914110672156 -0.309795655519 0.03661299
v 0.919149038846 -0.309795655519 0.04067948
v 0.942093118303 -0.309795655519 0.05924401
v 0.625876931703 -0.46262348796 0.20588598
v 0.803848273519 0.358675252679 0.02289289
v 0.959129134604 -0.256977235509 0.38170077
v 0.958186678233 -0.256655668218 0.38410532
v 0.869491054451 -0.328044975736 0.38410532
v 0.652772017701 -0.46262348796 0.23891315
v 0.904106630232 -0.242184797893 0.02289289
v 0.941005758153 -0.252073231653 0.03661299
v 0.965871027631 -0.258745855609 0.05924401
v 0.755748911683 0.358675252679 0.15910339
v 0.858181988694 0.358675252679 0.02289289
v 0.986241678942 0.052135311972 0.38170077
v 0.974135265937 -0.0744038810856 0.38410532
v 0.934807613648 0.052135311972 0.38410532
v 0.932451506946 0.0814789090654 0.02289289
v 0.970474340745 0.0848554340668 0.03661299
v 0.996173234752 0.0871064051026 0.05924401
v 0.810771347607 0.358675252679 0.15910339
v 0.897110933135 0.358675252679 0.03661299
v 0.985154181897 0.052135311972 0.38410532
v 0.923389852945 0.358675252679 0.05924401
v 0.919293942625 0.358675252679 0.08675486
v 0.881379940667 0.358675252679 0.12041849
f 1 2 8
f 1 8 18
f 1 18 13
f 1 13 3
f 1 3 4
f 1 4 9
f 1 9 2
f 2 5 6
f 2 6 7
f 2 7 8
f 2 9 10
f 2 10 11
f 2 11 12
f 2 12 5
f 3 13 4
f 4 14 23
f 4 23 27
f 4 27 19
f 4 19 9
f 4 13 14
f 5 15 6
f 5 12 15
f 6 16 7
f 6 15 16
f 7 17 18
f 7 18 8
f 7 16 25
f 7 25 32
f 7 32 26
f 7 26 17
f 9 19 20
f 9 20 10
f 10 20 11
f 11 20 21
f 11 21 12
f 12 21 15
f 13 18 22
f 13 22 14
f 14 22 30
f 14 30 35
f 14 35 34
f 14 34 33
f 14 33 31
f 14 31 23
f 15 24 16
f 15 21 24
f 16 24 25
f 17 26 18
f 18 26 22
f 19 27 20
f 20 28 29
f 20 29 21
f 20 27 28
f 21 29 24
f 22 26 32
f 22 32 30
f 23 31 27
f 24 32 25
f 24 29 33
f 24 33 34
f 24 34 32
f 27 31 28
f 28 31 29
f 29 31 33
f 30 32 35
f 32 34 35
