# ABC bottle geometry; canonical radius 1 and height 1, bottom z=0.
# https://github.com/mikedh/trimesh
v -0.671828473187 0.494565701953 0.1590834
v -0.751295430582 0.494565701953 0.03043297
v -0.735897299275 0.494565701953 0.1590834
v -0.709069702709 -0.425286157868 0.1590834
v -0.809363857568 0.494565701953 0.03043297
v -0.788568419837 -0.425286157868 0.03043297
v -0.811205237572 0.494565701953 0.1203976
v -0.859145800746 0.230207340353 0.1590834
v -0.771582917938 -0.425286157868 0.1590834
v -0.812792676612 0.494565701953 0.03156635
v -0.924452845713 0.247675193188 0.03043297
v -0.852827872767 -0.425286157868 0.03043297
v -0.818856732074 0.494565701953 0.11402553
v -0.962011604112 0.257759729606 0.08673641
v -0.926072112933 0.248125373706 0.1203976
v -0.884322507256 -0.0573814174293 0.1590834
v -0.854859742718 -0.425286157868 0.1203976
v -0.806157219756 -0.37585405088 0.1590834
v -0.828000317972 0.494565701953 0.03660357
v -0.940993985149 0.252087126536 0.03660357
v -0.953407728323 -0.0834030423375 0.03043297
v -0.970488509419 -0.0848437295102 0.03660357
v -0.873432752104 -0.425286157868 0.03660357
v -0.882925626611 -0.411690049138 0.03660357
v -0.867400456374 -0.404396809893 0.03043297
v -0.851589653889 0.494565701953 0.08673641
v -0.855970991115 0.494565701953 0.05923325
v -0.965884990962 0.258750099366 0.05923325
v -0.99614147502 -0.087094700546 0.05923325
v -0.992141186135 -0.0867345972006 0.08673641
v -0.95509044656 -0.0834931195097 0.1203976
v -0.88606867651 -0.0774604130933 0.1590834
v -0.868924444397 -0.405117153479 0.1203976
v -0.902641575678 -0.420874224521 0.08673641
v -0.899561908348 -0.425286157868 0.08673641
v -0.897276028986 -0.292926925395 0.03043297
v -0.904387676485 -0.425286157868 0.05923325
v -0.906260953116 -0.422585006314 0.05923325
v -0.9043559852 -0.425286157868 0.05949768
f 1 2 5
f 1 5 10
f 1 10 19
f 1 19 27
f 1 27 26
f 1 26 13
f 1 13 7
f 1 7 3
f 1 3 8
f 1 8 16
f 1 16 32
f 1 32 18
f 1 18 9
f 1 9 4
f 1 4 2
f 2 4 6
f 2 6 12
f 2 12 25
f 2 25 36
f 2 36 21
f 2 21 11
f 2 11 5
f 3 7 8
f 4 9 17
f 4 17 35
f 4 35 39
f 4 39 37
f 4 37 23
f 4 23 12
f 4 12 6
f 5 11 10
f 7 13 14
f 7 14 15
f 7 15 8
f 8 15 16
f 9 18 17
f 10 11 19
f 11 20 19
f 11 21 22
f 11 22 20
f 12 23 24
f 12 24 25
f 13 26 14
f 14 26 27
f 14 27 28
f 14 28 29
f 14 29 30
f 14 30 31
f 14 31 15
f 15 31 16
f 16 31 32
f 17 18 33
f 17 33 34
f 17 34 35
f 18 32 31
f 18 31 33
f 19 20 28
f 19 28 27
f 20 22 28
f 21 36 22
f 22 36 24
f 22 24 29
f 22 29 28
f 23 37 24
f 24 36 25
f 24 37 38
f 24 38 29
f 29 38 34
f 29 34 30
f 30 34 31
f 31 34 33
f 34 38 39
f 34 39 35
f 37 39 38
