# ABC bottle geometry; canonical radius 1 and height 1, bottom z=0.
# https://github.com/mikedh/trimesh
v -0.847848234203 -0.0698347918211 0.23892766
v -0.885287277576 -0.0690548987365 0.15908337
v -0.797734867265 -0.0698347918211 0.23892766
v -0.952327486734 -0.0698347918211 0.32387538
v -0.833839864981 -0.0690548987365 0.15908337
v -0.953411492946 -0.0698347918211 0.32478084
v -0.977926104862 -0.0698347918211 0.34749942
v -0.949575889227 0.254473281777 0.34749942
v -0.85902163662 0.230298854927 0.15908337
v -0.831588483259 -0.0690548987365 0.16040039
v -0.77830653543 -0.0690548987365 0.20600218
v -0.331622394735 -0.0697372538498 0.91521692
v -0.328203637503 -0.0697372538498 0.92344826
v -0.328203637503 -0.0697372538498 0.99901223
v -0.829837454218 -0.0698347918211 0.60069632
v -0.449276186616 0.700433451158 0.15908337
v -0.987765393173 -0.0698347918211 0.38182423
v -0.959081495005 0.257007694735 0.38182423
v -0.80523933611 0.563867286198 0.34749942
v -0.728526782578 0.510059660039 0.15908337
v -0.328203637503 0.717199578181 0.23892766
v -0.13592179832 0.348149297049 0.87109679
v -0.13592179832 0.309938095181 0.91521692
v -0.13592179832 0.295024026003 0.95020026
v -0.13592179832 0.280987182538 0.99448502
v -0.13592179832 0.311790153026 0.99991769
v -0.333290054478 -0.0697372538498 1
v -0.880367804539 -0.0698347918211 0.60069632
v -0.449276186616 0.75697049777 0.15908337
v -0.93198195573 -0.0698347918211 0.52998886
v -0.904632171666 0.242581041623 0.52998886
v -0.813244157636 0.569618467227 0.38182423
v -0.564011573947 0.805221950394 0.34749942
v -0.51031277963 0.728409531669 0.15908337
v -0.328203637503 0.772274445043 0.23892766
v -0.13592179832 0.583362833674 0.74565072
v -0.13592179832 0.578976294423 0.74762625
v -0.13592179832 0.491538876247 0.78944159
v -0.13592179832 0.410534994214 0.82985765
v -0.13592179832 0.396693158244 0.83891213
v -0.13592179832 0.332162994663 0.99827141
v -0.208882185878 0.298240725627 0.99827141
v -0.198042329099 0.282839308831 0.99991769
v -0.328203637503 0.100848581223 1
v -0.343963104214 -0.0298689331848 1
v -0.352384840675 -0.0697372538498 0.99827141
v -0.412337359029 -0.0697372538498 0.97826922
v -0.42167629466 -0.0697372538498 0.97390658
v -0.828169794475 -0.0697372538498 0.64942601
v -0.880451105389 -0.0697372538498 0.60069632
v -0.882535680068 -0.0698347918211 0.59855616
v -0.328203637503 0.915274146146 0.34749942
v -0.328203637503 0.887103126588 0.32387538
v -0.85643670926 0.229616499814 0.59855616
v -0.767133201461 0.537255915913 0.52998886
v -0.537412318906 0.767205619127 0.52998886
v -0.569598206708 0.813312536887 0.38182423
v -0.328203637503 0.925996683569 0.38182423
v -0.13592179832 0.635415871511 0.74565072
v -0.13592179832 0.395913333607 0.97826922
v -0.242485625531 0.346297239204 0.97826922
v -0.346381224531 0.242581041623 0.97826922
v -0.298102324379 0.208853780083 0.99827141
v -0.282843141902 0.19813124266 0.99991769
v -0.333456793073 0.0894436886871 1
v -0.328203637503 0.144518555549 0.99827141
v -0.351634380101 0.0944150450797 0.99827141
v -0.36255753773 -0.0315260519823 0.99827141
v -0.421259379724 -0.0366923474223 0.97826922
v -0.430348207462 -0.0374721720592 0.97390658
v -0.417256968961 0.11196099674 0.97390658
v -0.802654477197 0.215287316225 0.64983758
v -0.855352703048 0.217529252165 0.60069632
v -0.729360544002 0.496802709658 0.60069632
v -0.726275400856 0.508500010765 0.59855616
v -0.508728489185 0.726264996806 0.59855616
v -0.328203637503 0.81048564691 0.59855616
v -0.328203637503 0.864585750088 0.52998886
v -0.13592179832 0.405856046392 0.97390658
v -0.247738781101 0.353803008555 0.97390658
v -0.353885693375 0.247844806587 0.97390658
v -0.408418386012 0.109621522829 0.97826922
v -0.68074816666 0.476624807069 0.64983758
v -0.724441002518 0.507232770062 0.60069632
v -0.72435763322 0.507330239586 0.60069632
v -0.50747767593 0.724510408485 0.60069632
v -0.328203637503 0.808048703476 0.60069632
v -0.328203637503 0.749952076038 0.64983758
v -0.476876010125 0.680742964635 0.64983758
f 1 2 5
f 1 5 3
f 1 3 15
f 1 15 28
f 1 28 51
f 1 51 30
f 1 30 17
f 1 17 7
f 1 7 6
f 1 6 4
f 1 4 2
f 2 4 6
f 2 6 7
f 2 7 8
f 2 8 9
f 2 9 20
f 2 20 34
f 2 34 29
f 2 29 16
f 2 16 5
f 3 5 10
f 3 10 11
f 3 11 12
f 3 12 13
f 3 13 14
f 3 14 15
f 5 16 10
f 7 17 8
f 8 17 18
f 8 18 19
f 8 19 20
f 8 20 9
f 10 16 21
f 10 21 11
f 11 21 12
f 12 22 23
f 12 23 13
f 12 21 22
f 13 23 24
f 13 24 25
f 13 25 14
f 14 25 26
f 14 26 27
f 14 27 15
f 15 27 28
f 16 29 35
f 16 35 21
f 17 30 31
f 17 31 18
f 18 31 32
f 18 32 19
f 19 32 33
f 19 33 34
f 19 34 20
f 21 35 59
f 21 59 36
f 21 36 37
f 21 37 38
f 21 38 39
f 21 39 40
f 21 40 22
f 22 40 39
f 22 39 38
f 22 38 37
f 22 37 36
f 22 36 59
f 22 59 79
f 22 79 60
f 22 60 41
f 22 41 26
f 22 26 25
f 22 25 24
f 22 24 23
f 26 41 42
f 26 42 43
f 26 43 44
f 26 44 27
f 27 44 65
f 27 65 45
f 27 45 46
f 27 46 28
f 28 46 47
f 28 47 48
f 28 48 49
f 28 49 50
f 28 50 51
f 29 34 33
f 29 33 52
f 29 52 53
f 29 53 35
f 30 51 54
f 30 54 31
f 31 54 55
f 31 55 32
f 32 55 56
f 32 56 57
f 32 57 33
f 33 57 58
f 33 58 52
f 35 53 59
f 41 60 42
f 42 60 61
f 42 61 62
f 42 62 63
f 42 63 64
f 42 64 43
f 43 64 44
f 44 64 63
f 44 63 66
f 44 66 67
f 44 67 65
f 45 65 67
f 45 67 68
f 45 68 46
f 46 68 69
f 46 69 47
f 47 69 48
f 48 70 49
f 48 69 70
f 49 70 71
f 49 71 72
f 49 72 73
f 49 73 50
f 50 73 54
f 50 54 51
f 52 58 59
f 52 59 53
f 54 74 75
f 54 75 55
f 54 73 72
f 54 72 74
f 55 75 76
f 55 76 56
f 56 58 57
f 56 76 77
f 56 77 78
f 56 78 58
f 58 78 59
f 59 78 77
f 59 77 79
f 60 79 80
f 60 80 61
f 61 80 81
f 61 81 62
f 62 82 67
f 62 67 66
f 62 66 63
f 62 81 82
f 67 82 69
f 67 69 68
f 69 82 71
f 69 71 70
f 71 82 81
f 71 81 72
f 72 81 83
f 72 83 74
f 74 84 75
f 74 83 84
f 75 84 85
f 75 85 86
f 75 86 76
f 76 86 77
f 77 86 87
f 77 87 79
f 79 87 88
f 79 88 89
f 79 89 80
f 80 89 81
f 81 89 83
f 83 89 86
f 83 86 85
f 83 85 84
f 86 89 87
f 87 89 88
