# ABC bottle geometry; canonical radius 1 and height 1, bottom z=0.
# https://github.com/mikedh/trimesh
v 0.37828606608 0.758958287403 0.2388767
v 0.253603790654 0.943370283922 0.38410529
v 0.37828606608 0.698027719875 0.2388767
v 0.37828606608 0.804472174297 0.15911347
v 0.253603790654 0.891375563524 0.38410529
v 0.330322093793 0.926824353147 0.08679342
v 0.253603790654 0.94440144851 0.38168193
v 0.0865149485338 0.989178701266 0.38168193
v 0.086273259708 0.988147742021 0.38410529
v 0.37828606608 0.674853450805 0.20591897
v -0.671727649726 0.494565701953 0.15911347
v 0.37828606608 0.742068612283 0.15911347
v 0.330322093793 0.887202238856 0.03043297
v 0.330322093793 0.904681111771 0.03662986
v 0.330322093793 0.930948532367 0.05923635
v -0.328005481414 0.869477844045 0.38410529
v -0.256844720764 0.959130777348 0.38168193
v -0.256603100385 0.958148895103 0.38410529
v 0.0869981892902 0.996150647011 0.05923635
v 0.37828606608 0.739319136654 0.160429
v -0.751224724109 0.494565701953 0.03043297
v 0.330322093793 0.832703496279 0.03043297
v -0.735760266982 0.494565701953 0.15911347
v 0.194766216872 0.923534688276 0.03043297
v 0.0848234689913 0.97047242421 0.03662986
v -0.328005481414 0.924860451762 0.38410529
v -0.811149589593 0.494565701953 0.12040892
v -0.328005481414 0.925940556455 0.38168193
v -0.217579492776 0.969490541965 0.05923635
v -0.258777820684 0.965857269644 0.05923635
v -0.573504037767 0.819103349135 0.05923635
v -0.252132918046 0.941013629639 0.03662986
v -0.809337299861 0.494565701953 0.03043297
v 0.0832528680855 0.953386304193 0.03043297
v -0.57120850728 0.815813821159 0.08675882
v -0.815740582121 0.571305839908 0.08675882
v -0.851502177729 0.494565701953 0.08675882
v -0.558643631586 0.797991203899 0.03662986
v -0.797859715869 0.558834942905 0.03662986
v -0.819002594121 0.573613485638 0.05923635
v -0.217579492776 0.927069875044 0.03043297
v -0.247662735707 0.924418484968 0.03043297
v -0.444351511555 0.832703496279 0.03043297
v -0.548857527136 0.783949226856 0.03043297
v -0.783965859647 0.54896629053 0.03043297
v -0.827943027247 0.494565701953 0.03662986
v -0.855972428516 0.494565701953 0.05923635
v -0.702294133413 0.630616181948 0.03043297
f 1 2 5
f 1 5 3
f 1 3 10
f 1 10 20
f 1 20 12
f 1 12 4
f 1 4 2
f 2 4 6
f 2 6 7
f 2 7 8
f 2 8 9
f 2 9 18
f 2 18 26
f 2 26 16
f 2 16 5
f 3 5 11
f 3 11 10
f 4 12 22
f 4 22 13
f 4 13 14
f 4 14 15
f 4 15 6
f 5 16 11
f 6 15 7
f 7 15 8
f 8 17 18
f 8 18 9
f 8 15 19
f 8 19 17
f 10 11 21
f 10 21 22
f 10 22 20
f 11 16 23
f 11 23 27
f 11 27 37
f 11 37 47
f 11 47 46
f 11 46 33
f 11 33 21
f 12 20 22
f 13 22 21
f 13 21 33
f 13 33 45
f 13 45 48
f 13 48 44
f 13 44 43
f 13 43 42
f 13 42 41
f 13 41 34
f 13 34 24
f 13 24 14
f 14 25 15
f 14 24 25
f 15 25 19
f 16 26 27
f 16 27 23
f 17 28 26
f 17 26 18
f 17 19 29
f 17 29 30
f 17 30 31
f 17 31 28
f 19 25 32
f 19 32 29
f 24 34 25
f 25 34 32
f 26 28 35
f 26 35 36
f 26 36 37
f 26 37 27
f 28 31 35
f 29 32 30
f 30 32 31
f 31 32 38
f 31 38 39
f 31 39 40
f 31 40 36
f 31 36 35
f 32 34 41
f 32 41 42
f 32 42 43
f 32 43 44
f 32 44 38
f 33 46 45
f 36 40 47
f 36 47 37
f 38 44 48
f 38 48 45
f 38 45 39
f 39 46 40
f 39 45 46
f 40 46 47
