# ABC bottle geometry; canonical radius 1 and height 1, bottom z=0.
# https://github.com/mikedh/trimesh
v 0.288044756355 -0.32816564903 0.8623057
v 0.288044756355 -0.711818493861 0.6912028
v 0.288044756355 -0.32816564903 0.82645425
v 0.273328158789 -0.32816564903 0.97391999
v 0.288044756355 -0.768792236794 0.64988075
v 0.247694906126 -0.353781789768 0.97391999
v -0.328118693908 -0.32816564903 0.81479049
v 0.288044756355 -0.692729115032 0.65628032
v 0.260541717893 -0.32816564903 0.97835839
v 0.242447637058 -0.346273624748 0.97835839
v 0.215065271889 -0.802799860111 0.64988075
v 0.215487525746 -0.804222956225 0.6485389
v 0.288044756355 -0.770411709357 0.6485389
v 0.111748192843 -0.417184140609 0.97391999
v 0.109395919212 -0.408350965028 0.97835839
v -0.328118693908 -0.32816564903 0.84678844
v -0.328118693908 -0.384403305405 0.78946739
v 0.288044756355 -0.714811985538 0.6485389
v -0.328118693908 -0.685319104012 0.65628032
v 0.144257153786 -0.32816564903 0.9983485
v -0.0723891230598 -0.827925299293 0.64988075
v -0.0725097963535 -0.829446549408 0.6485389
v 0.207284821922 -0.804959111229 0.6485389
v -0.0375881909094 -0.430237527532 0.97391999
v -0.0368041225151 -0.421109958397 0.97835839
v 0.0941365998394 -0.351524384648 0.9983485
v -0.0316774582929 -0.362516742901 0.9983485
v -0.272811104869 -0.32816564903 0.97391999
v -0.328118693908 -0.705978809956 0.6912028
v -0.328118693908 -0.708775993632 0.6485389
v 0.100650493581 -0.32816564903 1
v -0.328118693908 -0.759419351104 0.64988075
v -0.32142382445 -0.762756313336 0.6485389
v -0.178601334439 -0.383127440292 0.97835839
v -0.182461373988 -0.39142076887 0.97391999
v -0.15375215017 -0.329834130145 0.9983485
v 0.0893115161799 -0.333416477378 1
v -0.0300490190813 -0.343868988627 1
v -0.152968081776 -0.32816564903 0.99852055
v -0.257129600088 -0.32816564903 0.97835839
v -0.328118693908 -0.760940601219 0.6485389
v -0.0887944622602 -0.32816564903 1
v -0.156164657776 -0.32816564903 0.9983485
f 1 2 5
f 1 5 13
f 1 13 18
f 1 18 8
f 1 8 3
f 1 3 7
f 1 7 16
f 1 16 28
f 1 28 40
f 1 40 43
f 1 43 39
f 1 39 42
f 1 42 31
f 1 31 20
f 1 20 9
f 1 9 4
f 1 4 2
f 2 4 6
f 2 6 5
f 3 8 7
f 4 9 10
f 4 10 6
f 5 11 12
f 5 12 13
f 5 6 14
f 5 14 11
f 6 10 15
f 6 15 14
f 7 8 17
f 7 17 19
f 7 19 30
f 7 30 41
f 7 41 32
f 7 32 29
f 7 29 16
f 8 18 19
f 8 19 17
f 9 20 10
f 10 20 15
f 11 21 22
f 11 22 23
f 11 23 12
f 11 14 24
f 11 24 21
f 12 23 22
f 12 22 33
f 12 33 41
f 12 41 30
f 12 30 18
f 12 18 13
f 14 15 24
f 15 25 24
f 15 20 26
f 15 26 27
f 15 27 25
f 16 29 28
f 18 30 19
f 20 31 26
f 21 32 22
f 21 24 32
f 22 32 33
f 24 25 34
f 24 34 35
f 24 35 32
f 25 27 36
f 25 36 34
f 26 31 37
f 26 37 38
f 26 38 27
f 27 38 39
f 27 39 36
f 28 35 40
f 28 29 35
f 29 32 35
f 31 42 38
f 31 38 37
f 32 41 33
f 34 36 43
f 34 43 40
f 34 40 35
f 36 39 43
f 38 42 39
