# ABC bottle geometry; canonical radius 1 and height 1, bottom z=0.
# https://github.com/mikedh/trimesh
v 0.869490301526 -0.328118009431 0.38416275
v 0.848099574155 0.395719147484 0.3938244
v 0.934821576979 0.0521516025244 0.38416275
v 0.924863942595 -0.328118009431 0.38416275
v 0.501422313325 -0.328118009431 0.74564311
v 0.446997152024 0.395719147484 0.74564311
v 0.883241512742 0.395719147484 0.3938244
v 0.985242616324 0.0521516025244 0.38416275
v 0.958161694823 -0.256697832001 0.38416275
v 0.864801291893 -0.328118009431 0.5300785
v 0.558639866962 -0.328118009431 0.74564311
v 0.510273627546 0.395719147484 0.74564311
v 0.848942576018 0.395719147484 0.53004311
v 0.904684944842 -0.242385486547 0.5300785
v 0.933083005419 0.0816265507526 0.5300785
v 0.930501363548 0.0521516025244 0.5300785
v 0.84730927702 -0.328118009431 0.55219768
v 0.632611774618 -0.169406618111 0.74564311
v 0.693201267261 -0.328118009431 0.69114147
v 0.578608045801 0.298083364367 0.74564311
v 0.659165785731 0.395719147484 0.69114147
v 0.848573779815 0.395719147484 0.53053859
v 0.803579479404 0.374675723739 0.59863025
v 0.883294217471 0.0773044892345 0.59863025
v 0.925864921748 0.0521516025244 0.53659039
v 0.856476751164 -0.229419301992 0.59863025
v 0.810481471601 -0.328118009431 0.59863025
v 0.652000406788 0.0521516025244 0.74564311
v 0.752104824625 -0.201503181666 0.69114147
v 0.774338485412 0.0521516025244 0.69114147
v 0.750050024695 -0.328118009431 0.64984056
v 0.80278918227 -0.215036181617 0.64984056
v 0.593518350356 0.27668565533 0.74564311
v 0.705793316692 0.32904622868 0.69114147
v 0.753211213235 0.351223351667 0.64984056
v 0.72207346505 0.395719147484 0.64984056
v 0.788932630044 0.395719147484 0.59863025
v 0.881134076532 0.0521516025244 0.59863025
v 0.82792064485 0.0724156123194 0.64984056
v 0.65242190772 0.0570404794396 0.74564311
v 0.775655624488 0.0678810206953 0.69114147
v 0.645677961261 0.082264277966 0.74564311
f 1 2 3
f 1 3 8
f 1 8 9
f 1 9 4
f 1 4 10
f 1 10 17
f 1 17 27
f 1 27 31
f 1 31 19
f 1 19 11
f 1 11 5
f 1 5 6
f 1 6 2
f 2 7 8
f 2 8 3
f 2 6 12
f 2 12 21
f 2 21 36
f 2 36 37
f 2 37 22
f 2 22 13
f 2 13 7
f 4 9 10
f 5 11 18
f 5 18 28
f 5 28 40
f 5 40 42
f 5 42 33
f 5 33 20
f 5 20 12
f 5 12 6
f 7 13 8
f 8 14 9
f 8 13 15
f 8 15 16
f 8 16 14
f 9 14 10
f 10 14 17
f 11 19 18
f 12 20 21
f 13 22 23
f 13 23 24
f 13 24 15
f 14 16 25
f 14 25 26
f 14 26 17
f 15 24 25
f 15 25 16
f 17 26 27
f 18 19 29
f 18 29 30
f 18 30 28
f 19 31 32
f 19 32 29
f 20 33 34
f 20 34 21
f 21 34 35
f 21 35 36
f 22 37 23
f 23 37 35
f 23 35 24
f 24 38 25
f 24 35 39
f 24 39 38
f 25 38 26
f 26 38 32
f 26 32 27
f 27 32 31
f 28 30 40
f 29 32 30
f 30 41 40
f 30 32 39
f 30 39 41
f 32 38 39
f 33 42 34
f 34 41 39
f 34 39 35
f 34 42 41
f 35 37 36
f 40 41 42
