# ABC bottle geometry; canonical radius 1 and height 1, bottom z=0.
# https://github.com/mikedh/trimesh
v 0.0832899667385 0.953433670001 0.03042999
v 0.0807055185122 0.922791551606 0.01940084
v -0.247701066419 0.924268242269 0.03042999
v 0.330287185466 0.887165413994 0.03042999
v 0.330287185466 0.855969553713 0.01940084
v 0.0751674836179 0.860769037933 0.00821081
v -0.223702823946 0.83474159497 0.00821081
v -0.239763186743 0.894549141097 0.01940084
v 0.330287185466 0.792654884374 0.00821081
v -0.531249424965 0.758690177765 0.01940084
v -0.54878661532 0.783609931611 0.03042999
v 0.895353264668 -0.309722416481 0.03042999
v 0.848279865394 0.395415102804 0.02285284
v 0.661832028958 0.661779871811 0.02285284
v 0.395451653876 0.848032153171 0.02285284
v 0.391574981536 0.839356407298 0.01940084
v 0.365176894283 0.78324079317 0.00820783
v 0.0648298276082 0.743184515123 0.00205737
v -0.193058925911 0.72047979727 0.00205737
v -0.495621233922 0.707927652848 0.00821081
v 0.330287185466 0.708481394734 0.00391293
v -0.758678815447 0.531089462692 0.01940084
v -0.783784678587 0.548810229776 0.03042999
v -0.70219070894 0.630399476532 0.03042999
v 0.783669207319 -0.548952327199 0.03042999
v 0.878000677758 -0.298093220835 0.02285284
v 0.894799454333 -0.239577830373 0.01940084
v 0.90402962657 -0.24197753826 0.02285284
v 0.932458283268 0.0816104655433 0.02285284
v 0.922674369145 0.0808720517643 0.01940084
v 0.839418900047 0.391169497366 0.01940084
v 0.655001701502 0.65495002349 0.01940084
v 0.611066492342 0.611017415342 0.00820783
v 0.0460004131407 0.527766874478 8.19999999997e-06
v -0.137124561291 0.511892004946 8.19999999997e-06
v 0.315149839894 0.675993447235 0.00205737
v -0.42768778229 0.611017415342 0.00205737
v -0.610997360166 0.427718515307 0.00205737
v -0.707913347279 0.495463393528 0.00821081
v 0.330287185466 0.665471735362 0.00205737
v 0.527626488247 0.527397667588 0.00205737
v -0.894730322157 0.239620336395 0.01940084
v -0.924266599524 0.247742340381 0.03042999
v 0.548855679048 -0.783752097483 0.03042999
v 0.531318557142 -0.758832275188 0.01940084
v 0.758563344178 -0.531416163561 0.01940084
v 0.862124918406 -0.309722416481 0.01940084
v 0.834803882376 -0.223518425845 0.00820783
v 0.861017366186 0.0755189625532 0.00820783
v 0.783300000429 0.365142191299 0.00820783
v 0.223956559567 0.479957730886 8.19999999997e-06
v 0.330287185466 0.405752211233 2.23999999996e-06
v -0.304004569481 0.433994621741 8.19999999997e-06
v -0.72065084807 0.193103416916 0.00205737
v -0.434148834408 0.303857954509 8.19999999997e-06
v -0.834734818648 0.223560863418 0.00821081
v 0.676046357307 0.315118011713 0.00205737
v 0.480368417081 0.224114673752 2.23999999996e-06
v 0.374776204961 0.374556350951 2.23999999996e-06
v -0.922789840414 -0.0806450107461 0.01940084
v -0.953433738449 -0.083229322077 0.03042999
v 0.476676416634 -0.817532200647 0.03042999
v 0.330287185466 -0.867187173343 0.02428547
v 0.330287185466 -0.85241992448 0.01940084
v 0.330287185466 -0.7850441847 0.00820783
v 0.495690366099 -0.707885146827 0.00821081
v 0.70779787601 -0.495790162844 0.00821081
v 0.666262443184 -0.309722416481 0.00205737
v 0.720535376801 -0.192876375898 0.00205737
v 0.743241395161 0.0649972506804 0.00205737
v -0.302527810371 -0.425276369847 2.23999999996e-06
v -0.511866268611 0.137172337785 8.19999999997e-06
v -0.52792656296 -0.0461264938026 8.19999999997e-06
v -0.743172262984 -0.0647702096622 0.00205737
v -0.860763630565 -0.0751073180903 0.00821081
v 0.527995695136 0.0461689998238 2.23999999996e-06
v -0.783230868253 -0.365099685278 0.00821081
v -0.839534439763 -0.391311663238 0.01940084
v -0.867224682683 -0.404233014549 0.03042999
v 0.330287185466 -0.885646285758 0.03042999
v 0.242047491808 -0.903920794728 0.02285284
v 0.23946311203 -0.894691238521 0.01940084
v 0.427941517911 -0.611159512765 0.00205737
v 0.223402749233 -0.834699225844 0.00820783
v 0.192943454643 -0.720621963141 0.00205737
v 0.611066492342 -0.42786061273 0.00205737
v 0.434217966584 -0.303815516936 2.23999999996e-06
v 0.51193533234 -0.136945296767 2.23999999996e-06
v -0.223887427391 -0.480284500202 2.23999999996e-06
v -0.315265311162 -0.676135544659 0.00205737
v -0.527372821074 -0.527539765012 0.00205737
v -0.424918799066 -0.425276369847 0.00068131
v -0.374707072785 -0.374698448375 8.19999999997e-06
v -0.480114749908 -0.223887632734 8.19999999997e-06
v -0.676161828575 -0.315260177585 0.00205737
v -0.804460059055 -0.425276369847 0.01767927
v -0.74114169354 -0.425276369847 0.00820783
v -0.858363785783 -0.41715436586 0.03042999
v -0.81590540418 -0.425276369847 0.01940084
v -0.852641147444 -0.425276369847 0.03042999
v -0.3953825217 -0.848174250594 0.02285284
v -0.0813748001149 -0.932347808682 0.02285284
v -0.0806364547837 -0.922749045585 0.01940084
v -0.0752829548864 -0.860911066909 0.00820783
v 0.303704494768 -0.434136787613 2.23999999996e-06
v 0.312934598557 -0.425276369847 2.23999999996e-06
v 0.137009090022 -0.511849567373 2.23999999996e-06
v -0.0649452988767 -0.743142009101 0.00205737
v -0.0461158844092 -0.528093575346 2.23999999996e-06
v -0.364923158662 -0.783198287148 0.00820783
v -0.610997360166 -0.611159512765 0.00820783
v -0.654932637774 -0.654907585916 0.01940084
v -0.661578293337 -0.661737434237 0.02285284
v -0.391321245915 -0.839498504721 0.01940084
f 1 2 3
f 1 3 11
f 1 11 24
f 1 24 23
f 1 23 43
f 1 43 61
f 1 61 79
f 1 79 98
f 1 98 100
f 1 100 80
f 1 80 62
f 1 62 44
f 1 44 25
f 1 25 12
f 1 12 4
f 1 4 5
f 1 5 2
f 2 6 7
f 2 7 8
f 2 8 3
f 2 5 9
f 2 9 6
f 3 8 10
f 3 10 11
f 4 12 13
f 4 13 14
f 4 14 15
f 4 15 16
f 4 16 5
f 5 16 17
f 5 17 9
f 6 18 7
f 6 9 18
f 7 18 19
f 7 19 20
f 7 20 10
f 7 10 8
f 9 17 21
f 9 21 18
f 10 22 23
f 10 23 24
f 10 24 11
f 10 20 22
f 12 25 26
f 12 26 27
f 12 27 28
f 12 28 29
f 12 29 13
f 13 29 30
f 13 30 31
f 13 31 32
f 13 32 14
f 14 32 16
f 14 16 15
f 16 32 17
f 17 32 33
f 17 33 21
f 18 34 35
f 18 35 19
f 18 21 36
f 18 36 34
f 19 35 37
f 19 37 20
f 20 37 38
f 20 38 39
f 20 39 22
f 21 40 36
f 21 33 41
f 21 41 40
f 22 39 42
f 22 42 23
f 23 42 43
f 25 44 45
f 25 45 46
f 25 46 26
f 26 47 27
f 26 46 47
f 27 47 48
f 27 48 49
f 27 49 30
f 27 30 29
f 27 29 28
f 30 49 31
f 31 49 50
f 31 50 32
f 32 50 33
f 33 50 41
f 34 36 51
f 34 51 52
f 34 52 35
f 35 53 37
f 35 52 53
f 36 40 52
f 36 52 51
f 37 53 55
f 37 55 38
f 38 54 39
f 38 55 54
f 39 54 56
f 39 56 42
f 40 41 52
f 41 50 57
f 41 57 58
f 41 58 59
f 41 59 52
f 42 60 61
f 42 61 43
f 42 56 60
f 44 62 45
f 45 62 63
f 45 63 64
f 45 64 65
f 45 65 66
f 45 66 67
f 45 67 46
f 46 67 47
f 47 67 48
f 48 67 68
f 48 68 69
f 48 69 70
f 48 70 49
f 49 70 50
f 50 70 57
f 52 59 58
f 52 58 76
f 52 76 88
f 52 88 87
f 52 87 106
f 52 106 105
f 52 105 107
f 52 107 109
f 52 109 89
f 52 89 71
f 52 71 55
f 52 55 53
f 54 55 72
f 54 72 73
f 54 73 74
f 54 74 56
f 55 71 72
f 56 75 60
f 56 74 75
f 57 70 58
f 58 70 76
f 60 75 77
f 60 77 78
f 60 78 61
f 61 78 79
f 62 80 63
f 63 80 81
f 63 81 82
f 63 82 64
f 64 82 65
f 65 83 66
f 65 82 84
f 65 84 85
f 65 85 83
f 66 83 67
f 67 83 86
f 67 86 68
f 68 86 87
f 68 87 88
f 68 88 69
f 69 88 70
f 70 88 76
f 71 89 90
f 71 90 91
f 71 91 92
f 71 92 93
f 71 93 94
f 71 94 73
f 71 73 72
f 73 95 74
f 73 94 95
f 74 95 77
f 74 77 75
f 77 96 78
f 77 95 97
f 77 97 96
f 78 98 79
f 78 96 99
f 78 99 98
f 80 100 101
f 80 101 102
f 80 102 81
f 81 102 82
f 82 102 103
f 82 103 104
f 82 104 84
f 83 105 106
f 83 106 86
f 83 85 107
f 83 107 105
f 84 104 85
f 85 104 108
f 85 108 109
f 85 109 107
f 86 106 87
f 89 109 90
f 90 109 108
f 90 108 104
f 90 104 110
f 90 110 111
f 90 111 91
f 91 111 95
f 91 95 92
f 92 95 94
f 92 94 93
f 95 111 97
f 96 97 111
f 96 111 112
f 96 112 99
f 98 99 112
f 98 112 113
f 98 113 100
f 100 113 101
f 101 114 102
f 101 113 112
f 101 112 114
f 102 114 103
f 103 114 104
f 104 114 110
f 110 114 111
f 111 114 112
