# ABC bottle geometry; canonical radius 1 and height 1, bottom z=0.
# https://github.com/mikedh/trimesh
v 0.942124535797 -0.309872248495 0.05925953
v 0.819003757732 -0.573678921639 0.05925953
v 0.797928368911 -0.55882378593 0.03662175
v 0.914096503482 -0.309872248495 0.03662175
v 0.937706715947 -0.309872248495 0.08678323
v 0.92597402738 -0.32812102113 0.38188905
v 0.573558795927 -0.819044826352 0.05925953
v 0.558856709273 -0.79797867797 0.03662175
v 0.813209796891 -0.569645024934 0.38188905
v 0.569503064406 -0.813282077661 0.38188905
v 0.783950527363 -0.549027072087 0.03051442
v 0.875639300583 -0.352388605298 0.03051442
v 0.895411034526 -0.309872248495 0.03051442
v 0.897294030731 -0.309872248495 0.1204142
v 0.751649373635 -0.32812102113 0.64849406
v 0.81031281647 -0.32812102113 0.59849545
v 0.864558439456 -0.32812102113 0.52984913
v 0.767003287728 -0.537309442014 0.52984913
v 0.330431404769 -0.932443293222 0.05925953
v 0.257283128277 -0.95914412465 0.38188905
v 0.330431404769 -0.904461873791 0.03662175
v 0.549007085359 -0.783955934731 0.03051442
v 0.537419232123 -0.767243949838 0.52984913
v 0.837327001464 -0.309872248495 0.03051442
v 0.837327001464 -0.309872248495 0.15127653
v 0.693058416913 -0.32812102113 0.69108246
v 0.749983630427 -0.32812102113 0.64979696
v 0.680746250124 -0.476864442464 0.64979696
v 0.726156164964 -0.508687694356 0.59849545
v 0.202240910968 -0.861561183156 0.15909392
v 0.202965156073 -0.963946346778 0.38188905
v 0.202892738407 -0.95414976983 0.34744376
v 0.242653527737 -0.904717936633 0.52984913
v 0.202965156073 -0.908239639205 0.52984913
v 0.330431404769 -0.88582890422 0.03051442
v 0.508811721587 -0.726264243881 0.59849545
v 0.330431404769 -0.827753016434 0.03051442
v 0.202240910968 -0.754885991539 0.2059167
v 0.288135791795 -0.32812102113 0.82642072
v 0.765482448299 -0.309872248495 0.15909392
v 0.821973155819 -0.309872248495 0.15909392
v 0.288135791795 -0.32812102113 0.86225039
v 0.637798878159 -0.446705975511 0.69108246
v 0.47680030697 -0.680738378639 0.64979696
v 0.477669387406 -0.681954968045 0.64849406
v 0.446744374671 -0.637837756452 0.69108246
v 0.202240910968 -0.824039181171 0.23905912
v 0.202240910968 -0.810208570624 0.15909392
v 0.202892738407 -0.954213768429 0.34809521
v 0.229762019622 -0.856310697046 0.59849545
v 0.202965156073 -0.858679877258 0.59849545
v 0.202240910968 -0.807839390412 0.16039681
v 0.202240910968 -0.754885991539 0.20599815
v 0.202965156073 -0.75456586165 0.64841264
v 0.202965156073 -0.805342213002 0.64841264
v 0.288135791795 -0.711729238061 0.69108246
v 0.288135791795 -0.768716602086 0.64979696
v 0.215711760408 -0.804125692044 0.64841264
v 0.202240910968 -0.773967156644 0.23905912
f 1 2 3
f 1 3 4
f 1 4 13
f 1 13 24
f 1 24 40
f 1 40 41
f 1 41 25
f 1 25 14
f 1 14 5
f 1 5 6
f 1 6 2
f 2 7 8
f 2 8 3
f 2 6 9
f 2 9 10
f 2 10 7
f 3 8 11
f 3 11 4
f 4 11 12
f 4 12 13
f 5 14 15
f 5 15 16
f 5 16 17
f 5 17 6
f 6 17 18
f 6 18 9
f 7 19 8
f 7 10 20
f 7 20 19
f 8 21 22
f 8 22 11
f 8 19 21
f 9 18 23
f 9 23 10
f 10 23 20
f 11 22 35
f 11 35 37
f 11 37 24
f 11 24 13
f 11 13 12
f 14 25 26
f 14 26 27
f 14 27 15
f 15 27 28
f 15 28 29
f 15 29 16
f 16 29 17
f 17 29 18
f 18 29 23
f 19 30 21
f 19 20 31
f 19 31 32
f 19 32 30
f 20 23 33
f 20 33 34
f 20 34 31
f 21 35 22
f 21 30 35
f 23 29 36
f 23 36 33
f 24 37 38
f 24 38 39
f 24 39 40
f 25 41 26
f 26 42 43
f 26 43 28
f 26 28 27
f 26 41 42
f 28 44 45
f 28 45 36
f 28 36 29
f 28 43 46
f 28 46 44
f 30 47 59
f 30 59 53
f 30 53 38
f 30 38 52
f 30 52 48
f 30 48 37
f 30 37 35
f 30 32 49
f 30 49 31
f 30 31 34
f 30 34 47
f 31 49 32
f 33 36 50
f 33 50 34
f 34 50 51
f 34 51 47
f 36 45 50
f 37 48 52
f 37 52 38
f 38 53 42
f 38 42 39
f 39 42 40
f 40 42 41
f 42 53 54
f 42 54 55
f 42 55 56
f 42 56 46
f 42 46 43
f 44 46 57
f 44 57 45
f 45 58 50
f 45 57 58
f 46 56 57
f 47 51 55
f 47 55 54
f 47 54 59
f 50 58 55
f 50 55 51
f 53 59 54
f 55 58 56
f 56 58 57
