# ABC bottle geometry; canonical radius 1 and height 1, bottom z=0.
# https://github.com/mikedh/trimesh
v -0.0332739943422 0.398681557213 0.969816217968
v -0.0332739943422 0.397666609607 0.959922182616
v -0.102994487386 0.385877822694 0.969816217968
v -0.102994487386 0.381115510317 0.979710223625
v -0.0332739943422 0.393528869646 0.979710223625
v 0.0363684097193 0.393528869646 0.979710223625
v 0.0363684097193 0.398603537953 0.969816217968
v 0.0363684097193 0.397510571087 0.959922182616
v 0.0363684097193 0.388220004113 0.946609992181
v -0.00922704995275 0.388141984853 0.946609992181
v -0.0332739943422 0.387985806888 0.946609992181
v -0.102994487386 0.373152246879 0.946609992181
v -0.102994487386 0.382286566165 0.959922182616
v -0.163111778638 0.361285370984 0.959922182616
v -0.166312869143 0.363002910265 0.969816217968
v -0.160613419253 0.360504690325 0.979710223625
v -0.102994487386 0.371356618615 0.989609445587
v -0.151088306443 0.355820327486 0.989609445587
v -0.0332739943422 0.383379602754 0.989609445587
v 0.0363684097193 0.383379602754 0.989609445587
v 0.106088833041 0.371434637875 0.989609445587
v 0.106088833041 0.381193599299 0.979710223625
v 0.106088833041 0.385877822694 0.969816217968
v 0.106088833041 0.382286566165 0.959922182616
v 0.0604152843865 0.383379602754 0.946609992181
v -0.13562961624 0.36269069378 0.946609992181
v -0.153352468602 0.356991453057 0.946609992181
v -0.197932980668 0.34590525782 0.959922182616
v -0.201134071173 0.345827238559 0.969816217968
v -0.195434621284 0.342314001291 0.979710223625
v -0.140392137784 0.350667639919 0.994705400175
v -0.102994487386 0.355586130261 0.995269889581
v -0.185909508474 0.336458652326 0.989609445587
v -0.0332739943422 0.361519568209 0.995891837535
v 0.0363684097193 0.361519568209 0.995897093433
v 0.106088833041 0.355586130261 0.99528033209
v 0.143564572421 0.350667639919 0.994710656073
v 0.154416919045 0.355820327486 0.989609445587
v 0.164098140098 0.360504690325 0.979710223625
v 0.16987567897 0.363080999248 0.969816217968
v 0.166674588465 0.361441479226 0.959922182616
v 0.106088833041 0.372918049654 0.946609992181
v 0.155431866651 0.356444969624 0.946609992181
v -0.188173670633 0.340127997837 0.946609992181
v -0.221745727833 0.317253085408 0.946609992181
v -0.238922096762 0.30530812053 0.946609992181
v -0.282643769465 0.285165694989 0.962274172316
v -0.242435403752 0.315613565387 0.969816217968
v -0.278115445146 0.280637579837 0.985161579871
v -0.102994487386 0.314676706763 0.997768193193
v -0.268824599283 0.271347012864 0.991757603439
v -0.222370300248 0.290630668764 0.995494616347
v -0.167249727766 0.31420824259 0.996127066199
v -0.244309190721 0.297735232283 0.988919537187
v -0.0332739943422 0.314676706763 0.998599228893
v 0.0363684097193 0.314676706763 0.998609730792
v 0.106088833041 0.314676706763 0.997789137601
v 0.170422162403 0.314364420555 0.996153197218
v 0.226011199058 0.290943024694 0.995525993366
v 0.272543587076 0.271971655001 0.992013707224
v 0.189316210059 0.336927046776 0.989609445587
v 0.198919342129 0.342704376481 0.979710223625
v 0.204696881001 0.346139524767 0.969816217968
v 0.201573879479 0.346139524767 0.959922182616
v 0.17830768547 0.345827238559 0.946609992181
v -0.250945568956 0.295627317811 0.946609992181
v -0.273821318053 0.276421681171 0.946609992181
v -0.293027651916 0.253546768742 0.946609992181
v -0.302786961951 0.241523714881 0.946609992181
v -0.343307613871 0.200302005176 0.959922182616
v -0.343151435906 0.203424867254 0.969816217968
v -0.312936647177 0.244958932889 0.969816217968
v -0.281941108067 0.284463033591 0.969816217968
v -0.339638128916 0.197725696253 0.979710223625
v -0.333938679026 0.188200932055 0.989609445587
v -0.295213725093 0.246832650136 0.988919537187
v -0.17271498043 0.244958932889 0.999074862935
v -0.348070135415 0.142685304423 0.994694957665
v -0.288108952407 0.224894526608 0.995499862347
v -0.244309190721 0.246832650136 0.996728129134
v -0.102994487386 0.244958932889 0.999775223743
v -0.0332739943422 0.244958932889 0.99998955749
v 0.0363684097193 0.244958932889 0.999994754
v 0.106088833041 0.244958932889 0.999790912253
v 0.175809326085 0.244958932889 0.999111446362
v 0.247793981289 0.247222955604 0.996769958561
v 0.291749851217 0.225441079764 0.995525993366
v 0.247793981289 0.298359734976 0.989071097099
v 0.351711034226 0.144012538236 0.994768114621
v 0.337969953027 0.190074649301 0.989609445587
v 0.299323088075 0.247222955604 0.989071097099
v 0.281678254974 0.281105974287 0.985417683657
v 0.245529819129 0.31655042401 0.969816217968
v 0.28612849031 0.285556000457 0.962101697691
v 0.240064566465 0.304683548114 0.946609992181
v 0.190331157664 0.339503425421 0.946609992181
v 0.251931930417 0.308430982608 0.959247962726
v -0.314810434146 0.224972615591 0.946609992181
v -0.355565283291 0.157206578224 0.946609992181
v -0.358688215092 0.165404108609 0.959922182616
v -0.360327804835 0.168604989947 0.969816217968
v -0.337686252964 0.192104544513 0.946609992181
v -0.357829445451 0.162827729964 0.979710223625
v -0.353144943167 0.153303035487 0.989609445587
v -0.242435403752 0.175241089293 0.999080118834
v -0.17271498043 0.175241089293 0.999947728063
v -0.368681792075 0.105523315419 0.989609445587
v -0.380939461495 0.0358054718221 0.989609445587
v -0.352988834924 0.105523315419 0.995269889581
v -0.312155896796 0.105523315419 0.997768193193
v -0.311687432623 0.169698026535 0.996127066199
v -0.102994487386 0.175241089293 1
v 0.106088833041 0.175241089293 1
v 0.175809326085 0.175241089293 0.999952924573
v 0.245529819129 0.175241089293 0.999116692362
v 0.315094134208 0.170478707193 0.996194967257
v 0.35686393096 0.105523315419 0.995348302435
v 0.373493816456 0.105523315419 0.989609445587
v 0.357176217168 0.155254771994 0.989609445587
v 0.315250242451 0.105523315419 0.997867540557
v 0.343825511159 0.1995994135 0.979710223625
v 0.350383800412 0.21052936105 0.965107022262
v 0.285738115119 0.285087606006 0.969816217968
v 0.305100557225 0.239259692166 0.946609992181
v 0.274963857478 0.274157658456 0.946609992181
v 0.262940385283 0.284697300538 0.946609992181
v 0.350383800412 0.21052936105 0.964694102666
v -0.362045483562 0.138859780947 0.946609992181
v -0.379690246941 0.105523315419 0.959922182616
v -0.383125534671 0.105523315419 0.969816217968
v -0.37844110211 0.105523315419 0.979710223625
v -0.242435403752 0.105523315419 0.999780469743
v -0.312155896796 0.0358054718221 0.998614927301
v -0.242435403752 0.0358054718221 0.999994754
v -0.17271498043 0.105523315419 1
v -0.39108914672 0.0358054718221 0.979710223625
v -0.38117365872 -0.0338342827918 0.989609445587
v -0.359078660004 0.0358054718221 0.995902280044
v 0.245529819129 0.0358054718221 1
v 0.245529819129 0.105523315419 0.999801354763
v 0.315250242451 0.0358054718221 0.99866718934
v 0.362875667057 0.0358054718221 0.99594936537
v 0.385595307911 0.0358054718221 0.989609445587
v 0.395901171101 0.0358054718221 0.979710223625
v 0.383409234734 0.105523315419 0.979710223625
v 0.361938808434 0.164779536193 0.979710223625
v 0.361704541486 0.178051665163 0.968969493757
v 0.388171826 0.105523315419 0.969816217968
v 0.339921759256 0.189840452076 0.946609992181
v 0.384580360305 0.105523315419 0.959922182616
v 0.360377307673 0.175475286518 0.960805500152
v 0.357098197907 0.154942555509 0.946609992181
v 0.346323870544 0.177817467937 0.946609992181
v -0.373288205376 0.105523315419 0.946609992181
v -0.395070917884 0.0358054718221 0.959922182616
v -0.396242043455 0.0358054718221 0.969816217968
v -0.359156679264 -0.0338342827918 0.995907535942
v -0.312155896796 -0.0338342827918 0.998620173301
v -0.242435403752 -0.0338342827918 0.999994754
v -0.17271498043 -0.103552056666 1
v -0.396554329662 -0.0338342827918 0.969816217968
v -0.391323343946 -0.0338342827918 0.979710223625
v -0.36930636449 -0.103552056666 0.989609445587
v -0.353301121132 -0.103552056666 0.99530121711
v 0.245529819129 -0.0338342827918 1
v 0.315250242451 -0.0338342827918 0.998677631849
v 0.36295375604 -0.0338342827918 0.995959807879
v 0.385673396893 -0.0338342827918 0.989609445587
v 0.395901171101 -0.0338342827918 0.979710223625
v 0.401054067836 0.0358054718221 0.969816217968
v 0.3997267643 0.0358054718221 0.959922182616
v 0.383799609924 0.0598515098216 0.946609992181
v 0.373337638491 0.105523315419 0.946609992181
v 0.367794366566 0.122464789899 0.946609992181
v -0.387419661765 0.0358054718221 0.946609992181
v -0.388512698353 -0.0338342827918 0.946609992181
v -0.395539382056 -0.0338342827918 0.959922182616
v -0.387810036955 0.0117594338226 0.946609992181
v -0.312155896796 -0.103552056666 0.99781002262
v -0.242435403752 -0.173269900262 0.999116692362
v -0.242435403752 -0.103552056666 0.999790912253
v -0.17271498043 -0.173269900262 0.999952924573
v -0.0332739943422 -0.242987674137 1
v -0.383906285052 -0.103552056666 0.969816217968
v -0.379143763508 -0.103552056666 0.979710223625
v -0.35361340734 -0.152502902306 0.989609445587
v -0.348304332641 -0.141416707068 0.994731541093
v 0.0363684097193 -0.242987674137 1
v 0.175809326085 -0.173269900262 0.999963426471
v 0.245529819129 -0.103552056666 0.999811797272
v 0.315250242451 -0.103552056666 0.997893681474
v 0.245529819129 -0.173269900262 0.999163718299
v 0.356942019942 -0.103552056666 0.995358744945
v 0.373649924698 -0.103552056666 0.989609445587
v 0.400975978853 -0.0338342827918 0.969816217968
v 0.383565412699 -0.103552056666 0.979710223625
v 0.399648745039 -0.0338342827918 0.959922182616
v 0.388952506658 -0.0338342827918 0.946609992181
v 0.388718309433 0.0358054718221 0.946609992181
v -0.384140482277 -0.057880251069 0.946609992181
v -0.380549086304 -0.103552056666 0.959922182616
v -0.311921629849 -0.168117142973 0.996168895626
v -0.17271498043 -0.242987674137 0.99913239077
v -0.288499327597 -0.223625998976 0.995525993366
v -0.244777654894 -0.245329785834 0.996775145172
v -0.102994487386 -0.242987674137 0.999801354763
v -0.0332739943422 -0.312705517733 0.998682887748
v 0.0363684097193 -0.312705517733 0.998688074359
v -0.347133276792 -0.208245885812 0.964939763942
v -0.358141731659 -0.175846209185 0.968870195884
v -0.358297909624 -0.162105685765 0.979710223625
v -0.347133276792 -0.208245885812 0.96481433505
v -0.340418809574 -0.196925563072 0.979710223625
v -0.334641340424 -0.187322779613 0.989609445587
v -0.269605349664 -0.270156574214 0.992107778894
v 0.106088833041 -0.242987674137 0.999811797272
v 0.175809326085 -0.242987674137 0.99915852179
v 0.315328331434 -0.168585607146 0.996226354174
v 0.351711034226 -0.142275546431 0.99477337052
v 0.248262375739 -0.245720230746 0.996811728599
v 0.292140226407 -0.224250571392 0.995557320895
v 0.35725430615 -0.153673958154 0.989609445587
v 0.38824984526 -0.103552056666 0.969816217968
v 0.362016897416 -0.163354830596 0.979710223625
v 0.384658449287 -0.103552056666 0.959922182616
v 0.374430675079 -0.103552056666 0.946609992181
v -0.374303152982 -0.103552056666 0.946609992181
v -0.223151050629 -0.289284052149 0.995536435876
v -0.167874300182 -0.312627428751 0.996194967257
v -0.102994487386 -0.312705517733 0.997872737066
v -0.0332739943422 -0.360485237802 0.995964994491
v 0.0363684097193 -0.360563257062 0.995964994491
v 0.106088833041 -0.312705517733 0.997909310595
v -0.283190252898 -0.283819008652 0.962012842327
v -0.282799877707 -0.283428703184 0.969816217968
v -0.278740017562 -0.2792908935 0.98550653902
v -0.355487194309 -0.157031017458 0.946609992181
v -0.34518140084 -0.179827910626 0.946609992181
v -0.339481950951 -0.191850894765 0.946609992181
v -0.302943139916 -0.244939480366 0.946609992181
v -0.285298306814 -0.266877534171 0.946609992181
v -0.296150653438 -0.245329785834 0.98912859524
v -0.244777654894 -0.296935099101 0.98912859524
v -0.187392920252 -0.335502341179 0.989609445587
v -0.141328996408 -0.349086826079 0.994757672112
v 0.171359090749 -0.312861625976 0.996231610072
v 0.226791949439 -0.289674427339 0.995557320895
v 0.273246248474 -0.27078114663 0.992358666373
v 0.33851643646 -0.188571854722 0.989609445587
v 0.344293975332 -0.198174707903 0.979710223625
v 0.361938808434 -0.176314673358 0.969089696446
v 0.350617997637 -0.20894854721 0.965300411601
v 0.350617997637 -0.20894854721 0.96454775906
v 0.360611504898 -0.173816383695 0.960716644788
v 0.357878878566 -0.154766925021 0.946609992181
v 0.363656417438 -0.136966680899 0.946609992181
v -0.102994487386 -0.354317602629 0.995348302435
v -0.0332739943422 -0.383282061248 0.989609445587
v 0.0363684097193 -0.383438239213 0.989609445587
v 0.106088833041 -0.354629888837 0.995379629964
v 0.145126073183 -0.349399042564 0.994794255539
v -0.208004576912 -0.347837611525 0.965080881345
v -0.276710052628 -0.27726106801 0.946609992181
v -0.266326170177 -0.285848903863 0.946609992181
v -0.208004576912 -0.347837611525 0.964709791176
v -0.196996122045 -0.341279670884 0.979710223625
v -0.152571718222 -0.354551799854 0.989609445587
v -0.102994487386 -0.370868701919 0.989609445587
v 0.248262375739 -0.297715779759 0.989280184846
v 0.282302827389 -0.279759357673 0.9857574265
v 0.300103838456 -0.245720230746 0.989280184846
v 0.191502283235 -0.336126913595 0.989609445587
v 0.286596954483 -0.284053275599 0.969816217968
v 0.286753132448 -0.284209383842 0.961829925192
v 0.296434353501 -0.25196588518 0.946609992181
v 0.306115574553 -0.239942901041 0.946609992181
v 0.318139046748 -0.222767159613 0.946609992181
v 0.341014865567 -0.189586802328 0.946609992181
v -0.0332739943422 -0.393509486845 0.979710223625
v 0.0363684097193 -0.393665595087 0.979710223625
v 0.106088833041 -0.371493274335 0.989609445587
v 0.156681081205 -0.354942105322 0.989609445587
v -0.102994487386 -0.385624172945 0.969816217968
v -0.17544753704 -0.359158003988 0.968959051248
v -0.162096831032 -0.359314181953 0.979710223625
v -0.244387279704 -0.303571128725 0.946609992181
v -0.191530869381 -0.340030456331 0.946609992181
v -0.179507397186 -0.345807786036 0.946609992181
v -0.15670966735 -0.356191319875 0.946609992181
v -0.102994487386 -0.375318797811 0.946609992181
v -0.102994487386 -0.382267183364 0.959922182616
v -0.102994487386 -0.380861930291 0.979710223625
v 0.201105415306 -0.3419042433 0.979710223625
v 0.211645475722 -0.348227986716 0.96540492578
v 0.254508378784 -0.293968345266 0.946609992181
v 0.27738412788 -0.274840867331 0.946609992181
v 0.211645475722 -0.348227986716 0.964474602104
v -0.0332739943422 -0.398662174412 0.969816217968
v 0.0363684097193 -0.398896371637 0.969816217968
v 0.106088833041 -0.381408413724 0.979710223625
v 0.166284213275 -0.359704487421 0.979710223625
v -0.0332739943422 -0.397413029581 0.959922182616
v -0.0573209387317 -0.385155778495 0.946609992181
v 0.179010346868 -0.359704487421 0.969147194587
v 0.106088833041 -0.386170726101 0.969816217968
v 0.242562995572 -0.303649217707 0.946609992181
v 0.106088833041 -0.382735577815 0.959922182616
v 0.140441640621 -0.363061546724 0.946609992181
v 0.158789065399 -0.356503536361 0.946609992181
v 0.193688356412 -0.338547114274 0.946609992181
v 0.225933110076 -0.315672201846 0.946609992181
v 0.0363684097193 -0.397569137824 0.959922182616
v -0.0332739943422 -0.389449766144 0.946609992181
v 0.106088833041 -0.374772314378 0.946609992181
v 0.0123214653298 -0.388981301971 0.946609992181
v 0.0363684097193 -0.38859092678 0.946609992181
f 1 2 3
f 1 3 4
f 1 4 5
f 1 5 6
f 1 6 7
f 1 7 2
f 2 7 8
f 2 8 9
f 2 9 10
f 2 10 11
f 2 11 12
f 2 12 13
f 2 13 3
f 3 13 14
f 3 14 15
f 3 15 16
f 3 16 4
f 4 17 5
f 4 16 18
f 4 18 17
f 5 17 19
f 5 19 20
f 5 20 6
f 6 20 21
f 6 21 22
f 6 22 7
f 7 22 23
f 7 23 8
f 8 23 24
f 8 24 25
f 8 25 9
f 9 25 42
f 9 42 43
f 9 43 65
f 9 65 96
f 9 96 95
f 9 95 126
f 9 126 125
f 9 125 124
f 9 124 149
f 9 149 153
f 9 153 152
f 9 152 174
f 9 174 173
f 9 173 172
f 9 172 199
f 9 199 198
f 9 198 226
f 9 226 256
f 9 256 255
f 9 255 278
f 9 278 277
f 9 277 276
f 9 276 275
f 9 275 296
f 9 296 295
f 9 295 306
f 9 306 311
f 9 311 310
f 9 310 309
f 9 309 308
f 9 308 314
f 9 314 316
f 9 316 315
f 9 315 313
f 9 313 303
f 9 303 290
f 9 290 289
f 9 289 288
f 9 288 287
f 9 287 286
f 9 286 264
f 9 264 263
f 9 263 241
f 9 241 240
f 9 240 239
f 9 239 238
f 9 238 237
f 9 237 227
f 9 227 200
f 9 200 176
f 9 176 178
f 9 178 175
f 9 175 154
f 9 154 128
f 9 128 99
f 9 99 102
f 9 102 98
f 9 98 69
f 9 69 68
f 9 68 67
f 9 67 66
f 9 66 46
f 9 46 45
f 9 45 44
f 9 44 27
f 9 27 26
f 9 26 12
f 9 12 11
f 9 11 10
f 12 26 13
f 13 26 27
f 13 27 14
f 14 27 28
f 14 28 15
f 15 28 29
f 15 29 16
f 16 29 30
f 16 30 18
f 17 18 31
f 17 31 32
f 17 32 19
f 18 30 33
f 18 33 31
f 19 32 34
f 19 34 35
f 19 35 20
f 20 35 36
f 20 36 21
f 21 36 37
f 21 37 38
f 21 38 22
f 22 38 39
f 22 39 23
f 23 39 40
f 23 40 41
f 23 41 24
f 24 42 25
f 24 41 43
f 24 43 42
f 27 44 28
f 28 44 45
f 28 45 46
f 28 46 47
f 28 47 29
f 29 47 48
f 29 48 49
f 29 49 30
f 30 49 33
f 31 50 32
f 31 33 51
f 31 51 52
f 31 52 53
f 31 53 50
f 32 50 34
f 33 49 54
f 33 54 51
f 34 50 55
f 34 55 56
f 34 56 35
f 35 56 57
f 35 57 36
f 36 57 37
f 37 57 58
f 37 58 59
f 37 59 60
f 37 60 61
f 37 61 38
f 38 61 62
f 38 62 39
f 39 62 63
f 39 63 40
f 40 63 64
f 40 64 41
f 41 64 43
f 43 64 65
f 46 66 47
f 47 66 67
f 47 67 68
f 47 68 69
f 47 69 70
f 47 70 71
f 47 71 72
f 47 72 73
f 47 73 48
f 48 73 49
f 49 73 72
f 49 72 71
f 49 71 74
f 49 74 75
f 49 75 76
f 49 76 51
f 49 51 54
f 50 53 77
f 50 77 55
f 51 76 75
f 51 75 78
f 51 78 79
f 51 79 52
f 52 77 53
f 52 79 80
f 52 80 77
f 55 77 81
f 55 81 82
f 55 82 56
f 56 82 83
f 56 83 84
f 56 84 85
f 56 85 57
f 57 85 58
f 58 85 59
f 59 85 86
f 59 86 87
f 59 87 60
f 60 88 61
f 60 87 89
f 60 89 90
f 60 90 91
f 60 91 92
f 60 92 88
f 61 88 92
f 61 92 62
f 62 92 63
f 63 93 94
f 63 94 64
f 63 92 93
f 64 95 96
f 64 96 65
f 64 94 97
f 64 97 95
f 69 98 70
f 70 99 100
f 70 100 101
f 70 101 71
f 70 98 102
f 70 102 99
f 71 101 103
f 71 103 74
f 74 103 104
f 74 104 75
f 75 104 78
f 77 80 105
f 77 105 106
f 77 106 81
f 78 104 107
f 78 107 108
f 78 108 109
f 78 109 110
f 78 110 111
f 78 111 79
f 79 111 105
f 79 105 80
f 81 106 82
f 82 106 112
f 82 112 83
f 83 113 114
f 83 114 84
f 83 112 113
f 84 114 85
f 85 114 115
f 85 115 86
f 86 115 87
f 87 116 89
f 87 115 116
f 89 117 118
f 89 118 119
f 89 119 90
f 89 116 120
f 89 120 117
f 90 121 92
f 90 92 91
f 90 119 121
f 92 121 122
f 92 122 123
f 92 123 93
f 93 123 94
f 94 124 125
f 94 125 126
f 94 126 95
f 94 95 97
f 94 123 122
f 94 122 127
f 94 127 124
f 99 128 100
f 100 128 129
f 100 129 130
f 100 130 101
f 101 130 103
f 103 130 131
f 103 131 104
f 104 131 107
f 105 132 106
f 105 111 110
f 105 110 133
f 105 133 132
f 106 132 134
f 106 134 135
f 106 135 112
f 107 131 136
f 107 136 108
f 108 137 138
f 108 138 109
f 108 136 162
f 108 162 137
f 109 138 110
f 110 138 133
f 112 135 160
f 112 160 183
f 112 183 188
f 112 188 165
f 112 165 139
f 112 139 113
f 113 139 114
f 114 139 140
f 114 140 115
f 115 140 141
f 115 141 120
f 115 120 116
f 117 142 143
f 117 143 118
f 117 120 142
f 118 143 144
f 118 144 145
f 118 145 119
f 119 145 146
f 119 146 121
f 120 141 142
f 121 146 122
f 122 146 147
f 122 147 148
f 122 148 127
f 124 127 149
f 127 148 150
f 127 150 151
f 127 151 152
f 127 152 153
f 127 153 149
f 128 154 129
f 129 154 155
f 129 155 130
f 130 155 156
f 130 156 131
f 131 156 136
f 132 133 134
f 133 138 157
f 133 157 158
f 133 158 134
f 134 158 159
f 134 159 160
f 134 160 135
f 136 156 161
f 136 161 162
f 137 163 164
f 137 164 157
f 137 157 138
f 137 162 163
f 139 165 166
f 139 166 141
f 139 141 140
f 141 166 167
f 141 167 142
f 142 167 143
f 143 167 168
f 143 168 144
f 144 169 170
f 144 170 145
f 144 168 169
f 145 170 148
f 145 148 146
f 146 148 147
f 148 170 171
f 148 171 150
f 150 172 173
f 150 173 174
f 150 174 152
f 150 152 151
f 150 171 172
f 154 175 155
f 155 176 177
f 155 177 156
f 155 175 178
f 155 178 176
f 156 177 161
f 157 164 179
f 157 179 158
f 158 179 180
f 158 180 181
f 158 181 159
f 159 181 182
f 159 182 160
f 160 182 183
f 161 177 184
f 161 184 185
f 161 185 162
f 162 185 163
f 163 185 186
f 163 186 187
f 163 187 164
f 164 187 179
f 165 188 189
f 165 189 190
f 165 190 166
f 166 191 167
f 166 190 192
f 166 192 191
f 167 193 168
f 167 191 193
f 168 193 194
f 168 194 169
f 169 195 170
f 169 194 196
f 169 196 195
f 170 195 197
f 170 197 171
f 171 197 198
f 171 198 199
f 171 199 172
f 176 200 177
f 177 200 201
f 177 201 184
f 179 187 202
f 179 202 180
f 180 203 182
f 180 182 181
f 180 202 204
f 180 204 205
f 180 205 203
f 182 203 206
f 182 206 183
f 183 206 207
f 183 207 208
f 183 208 188
f 184 209 210
f 184 210 211
f 184 211 185
f 184 201 212
f 184 212 209
f 185 211 186
f 186 211 213
f 186 213 214
f 186 214 187
f 187 214 215
f 187 215 204
f 187 204 202
f 188 208 216
f 188 216 189
f 189 217 192
f 189 192 190
f 189 216 217
f 191 218 219
f 191 219 193
f 191 192 218
f 192 217 220
f 192 220 221
f 192 221 218
f 193 219 194
f 194 219 222
f 194 222 196
f 195 196 223
f 195 223 197
f 196 222 224
f 196 224 223
f 197 223 225
f 197 225 226
f 197 226 198
f 200 227 201
f 201 227 212
f 203 205 228
f 203 228 229
f 203 229 230
f 203 230 207
f 203 207 206
f 204 215 228
f 204 228 205
f 207 230 231
f 207 231 208
f 208 231 232
f 208 232 233
f 208 233 217
f 208 217 216
f 209 212 234
f 209 234 235
f 209 235 236
f 209 236 213
f 209 213 211
f 209 211 210
f 212 227 237
f 212 237 238
f 212 238 239
f 212 239 240
f 212 240 241
f 212 241 234
f 213 236 214
f 214 236 242
f 214 242 215
f 215 242 236
f 215 236 243
f 215 243 244
f 215 244 245
f 215 245 228
f 217 246 247
f 217 247 220
f 217 233 246
f 218 221 219
f 219 221 248
f 219 248 249
f 219 249 222
f 220 247 221
f 221 247 248
f 222 249 250
f 222 250 224
f 223 224 251
f 223 251 252
f 223 252 253
f 223 253 225
f 224 250 252
f 224 252 251
f 225 253 254
f 225 254 255
f 225 255 256
f 225 256 226
f 228 245 229
f 229 245 230
f 230 257 231
f 230 245 257
f 231 257 258
f 231 258 259
f 231 259 232
f 232 259 260
f 232 260 233
f 233 260 261
f 233 261 246
f 234 262 235
f 234 241 263
f 234 263 264
f 234 264 265
f 234 265 262
f 235 262 236
f 236 262 266
f 236 266 244
f 236 244 243
f 244 266 267
f 244 267 245
f 245 267 268
f 245 268 257
f 246 261 247
f 247 261 248
f 248 269 270
f 248 270 271
f 248 271 249
f 248 261 272
f 248 272 269
f 249 271 270
f 249 270 250
f 250 270 252
f 252 270 273
f 252 273 274
f 252 274 253
f 253 255 254
f 253 274 275
f 253 275 276
f 253 276 277
f 253 277 278
f 253 278 255
f 257 268 258
f 258 268 279
f 258 279 280
f 258 280 259
f 259 280 281
f 259 281 260
f 260 281 261
f 261 281 282
f 261 282 272
f 262 265 283
f 262 283 284
f 262 284 285
f 262 285 266
f 264 286 265
f 265 287 288
f 265 288 289
f 265 289 290
f 265 290 291
f 265 291 283
f 265 286 287
f 266 285 267
f 267 285 292
f 267 292 268
f 268 292 279
f 269 272 270
f 270 272 293
f 270 293 294
f 270 294 273
f 272 282 293
f 273 294 274
f 274 295 296
f 274 296 275
f 274 294 297
f 274 297 295
f 279 292 298
f 279 298 299
f 279 299 280
f 280 299 300
f 280 300 281
f 281 300 282
f 282 301 293
f 282 300 301
f 283 291 302
f 283 302 298
f 283 298 292
f 283 292 285
f 283 285 284
f 290 303 302
f 290 302 291
f 293 301 294
f 294 301 304
f 294 304 305
f 294 305 297
f 295 297 306
f 297 305 307
f 297 307 308
f 297 308 309
f 297 309 310
f 297 310 311
f 297 311 306
f 298 302 299
f 299 312 305
f 299 305 300
f 299 302 312
f 300 305 301
f 301 305 304
f 302 303 313
f 302 313 312
f 305 312 307
f 307 312 314
f 307 314 308
f 312 313 315
f 312 315 316
f 312 316 314
