# ABC bottle geometry; canonical radius 1 and height 1, bottom z=0.
# https://github.com/mikedh/trimesh
v 0.994061591948 -0.0335874658292 0.613516156898
v 0.994061591948 -0.0335874658292 0.52444400466
v 0.993672611203 0.00103161123697 0.662977148206
v 0.984142199498 -0.043506439945 0.764917619883
v 0.975584204792 -0.131415600076 0.760787067885
v 0.981030144378 -0.123052548937 0.662977148206
v 0.978112823657 -0.142696041658 0.52444400466
v 0.967998905975 -0.210183817303 0.465027273163
v 0.981224669611 -0.117606888241 0.460367132507
v 0.993088965781 0.00103161123697 0.460102348076
v 0.977918298424 0.143592321899 0.657999278111
v 0.981030144378 0.0656021358837 0.76348781761
v 0.950883125729 -0.24285806037 0.766824055908
v 0.896423799596 0.0183412194924 0.816179117606
v 0.905370775046 -0.0608159784781 0.810036229668
v 0.963136402644 -0.24285806037 0.662977148206
v 0.961191498923 -0.24285806037 0.450199552894
v 0.974806243304 -0.14386298389 0.445221682799
v 0.980446708122 -0.00966525464486 0.405610521869
v 0.990366100572 0.00103161123697 0.445221682799
v 0.976945881425 0.144370283388 0.459890518552
v 0.962163985645 0.244726827333 0.662977148206
v 0.960997043412 0.209913225034 0.759463135833
v 0.889616462266 0.213997487986 0.805640863545
v 0.917040615705 -0.35216109171 0.763964421667
v 0.879502544584 -0.208044458071 0.811413077035
v 0.911205695376 -0.285840188575 0.7842995413
v 0.8709446196 -0.138222797961 0.82126291731
v 0.842547979439 0.207968321313 0.825870083263
v 0.843325940928 0.0339003098155 0.835402194099
v 0.829516601591 -0.084154683685 0.837679284775
v 0.931238796341 -0.341658611616 0.662977148206
v 0.931238796341 -0.341658611616 0.465027273163
v 0.923069991546 -0.35682886064 0.452688492891
v 0.915484483562 -0.33621295092 0.406246010442
v 0.946409672865 -0.243830477369 0.405610521869
v 0.943492073256 0.244726827333 0.405610521869
v 0.964692325621 0.209913225034 0.445221682799
v 0.929877328875 0.342360506069 0.662977148206
v 0.919568955681 0.357336160137 0.754379365823
v 0.952050067962 0.279540429632 0.460102348076
v 0.852078391145 0.34722273051 0.801510311548
v 0.842547979439 0.309491807491 0.815172974381
v 0.838463577042 -0.313846662712 0.816338002122
v 0.834573560433 -0.514754206114 0.766188567335
v 0.840214025252 -0.52759050095 0.751996335639
v 0.887865804889 -0.42567810375 0.751996335639
v 0.838269051808 -0.209600381047 0.828835647113
v 0.772723390993 0.23772524366 0.844987230147
v 0.788283178539 0.140286020435 0.84620523259
v 0.767860957384 0.00764428388824 0.855896198247
v 0.773112371737 -0.103409195661 0.852189275604
v 0.783226219697 -0.206682990605 0.845093159756
v 0.880085980839 -0.452128654911 0.662977148206
v 0.879891525328 -0.452128654911 0.460102348076
v 0.84099198674 -0.528757443183 0.445221682799
v 0.833212092967 -0.513392808371 0.405610521869
v 0.913539579841 0.342943942324 0.405610521869
v 0.909260582488 0.387482063229 0.460102348076
v 0.900897252459 0.405180582506 0.653127307931
v 0.877752096374 0.453997421874 0.662977148206
v 0.839825044508 0.528875831658 0.742093550356
v 0.841186511973 0.513316671613 0.755915087807
v 0.91742959645 0.361809403834 0.440296757713
v 0.778752836556 0.481809370778 0.803787402224
v 0.770389436805 0.421906615061 0.821739501571
v 0.768249938129 0.34722273051 0.83328392855
v 0.758136090168 -0.49822262907 0.810830563165
v 0.773890333225 -0.319681373875 0.836990880888
v 0.768249938129 -0.404284232542 0.826982185791
v 0.771750904271 -0.578157788528 0.775773633077
v 0.779725253555 -0.604413744733 0.756974215632
v 0.78672718584 -0.604997250711 0.657099024903
v 0.816290837955 -0.5699891929 0.613516156898
v 0.842158998695 -0.531285783159 0.662977148206
v 0.700759303869 0.396428550623 0.845146114663
v 0.702898802546 0.306768942281 0.854837070422
v 0.360194147175 0.141452962667 0.946609992181
v 0.725265997143 0.144759264132 0.862250915709
v 0.710484171086 0.0704643603249 0.868499743154
v 0.387423775381 0.00686632239986 0.946609992181
v 0.718264064859 -0.0685955933619 0.86680515645
v 0.71495762395 -0.182760849143 0.863733702583
v 0.694340877562 -0.285451207831 0.859867895424
v 0.842158998695 -0.531285783159 0.460102348076
v 0.77330689697 -0.614721769316 0.440296757713
v 0.773890333225 -0.597995667038 0.405610521869
v 0.831461644757 0.512733165635 0.405610521869
v 0.838074596298 0.52537500496 0.430393982327
v 0.875223547231 0.453997421874 0.440296757713
v 0.840408480763 0.530042704168 0.450199552894
v 0.836129553132 0.539378242029 0.658052233017
v 0.779725253555 0.605699075441 0.742093550356
v 0.789839171238 0.580998972491 0.756974215632
v 0.713012650506 0.573219357607 0.801510311548
v 0.704454795245 0.531209646401 0.819886040249
v 0.685393971834 0.503981203475 0.831059782883
v 0.709900665108 -0.484997283767 0.831377542016
v 0.695896870261 -0.557541878809 0.817344165142
v 0.703093258057 -0.397866085124 0.845516789111
v 0.619653855507 -0.686293807913 0.801510311548
v 0.678392109272 -0.696212782029 0.769524805632
v 0.708733722876 -0.688238711634 0.752737734025
v 0.768249938129 -0.626391121919 0.568927115975
v 0.759497557634 -0.634754173058 0.457613408079
v 0.637547597241 0.497562986334 0.843822212305
v 0.630934715423 0.372311883927 0.864263261547
v 0.264890378733 0.280512846632 0.946609992181
v 0.367390534971 -0.124608471914 0.946609992181
v 0.632490708122 -0.372387950963 0.864475091071
v 0.685393971834 -0.712938884307 0.441144065912
v 0.707955691665 -0.6719015901 0.405610521869
v 0.600982082563 0.772376522521 0.405610521869
v 0.770583892316 0.596169151792 0.405663466877
v 0.778169330578 0.604143152464 0.430393982327
v 0.754635124026 0.633316568834 0.447710622796
v 0.780503284766 0.60647703693 0.662977148206
v 0.712234619296 0.677854689738 0.742093550356
v 0.585422295017 0.733284132035 0.787423989665
v 0.672751644453 0.637206376276 0.791554541663
v 0.608761976336 0.77898912545 0.747071420451
v 0.592813208046 0.696525626015 0.801510311548
v 0.62665571807 0.62612052965 0.815543658727
v 0.53154647486 0.600447939978 0.844510645886
v 0.615958433854 -0.456407373375 0.856478731914
v 0.610123443802 -0.520394392044 0.846522991724
v 0.637742052752 -0.562209578017 0.832542569757
v 0.595925123722 -0.666066878937 0.817132335618
v 0.580559861409 -0.778676281464 0.771748980994
v 0.628211780491 -0.766617948116 0.756656486193
v 0.517153629547 -0.753976108791 0.805905647976
v 0.642215575338 -0.759227313976 0.662977148206
v 0.677808603294 -0.725386198399 0.460102348076
v 0.489340495364 0.558243703539 0.860874068343
v 0.586978287716 0.447384749223 0.862409800225
v 0.388590787336 0.604337677698 0.867652454751
v 0.169781135524 0.349362089742 0.946609992181
v 0.325184625196 -0.211934265513 0.946609992181
v 0.613429954433 -0.781788127417 0.440296757713
v 0.632101657655 -0.750086371071 0.405610521869
v 0.424572865758 0.883624527304 0.405610521869
v 0.519876634201 0.834807618214 0.410588391964
v 0.527267477507 0.839280861911 0.430393982327
v 0.626850243303 0.765569324637 0.435318887618
v 0.636575110519 0.74864883657 0.420544132154
v 0.696285851005 0.695553209016 0.455124477981
v 0.524933593042 0.837724938934 0.747071420451
v 0.466778845255 0.862814092351 0.756550556584
v 0.444411580935 0.851922701236 0.771748980994
v 0.49070196283 0.765374938848 0.804264016179
v 0.610512494268 0.781128484682 0.450199552894
v 0.593007663557 0.795131791473 0.662977148206
v 0.529406976184 0.840642259654 0.658052233017
v 0.559748589788 0.678827106738 0.818191463443
v 0.503733340677 0.684272837156 0.83079500835
v 0.437993154628 0.637789882254 0.853566122971
v 0.562860575186 -0.456212848141 0.866434482002
v 0.510151766985 -0.542760610529 0.861509556916
v 0.551190734526 -0.621528827755 0.839003187133
v 0.492841461506 -0.698352141261 0.831748226362
v 0.465028327323 -0.858027934945 0.765870837895
v 0.543021860009 -0.825937197855 0.751996335639
v 0.545161288963 -0.827104140088 0.662977148206
v 0.614402441155 -0.784122011882 0.460102348076
v 0.41971043215 -0.776536922232 0.821792476274
v 0.331019545526 -0.835272665993 0.816285017521
v 0.391702772734 0.703916190432 0.845781573541
v 0.323628632497 0.692830343806 0.85706121609
v 0.278699718069 0.627676452627 0.875595878798
v 0.216071517418 0.706250074898 0.862992304197
v 0.0772003020129 0.379313467601 0.946609992181
v 0.25711048496 -0.29089693825 0.946609992181
v 0.533491448304 -0.830604897063 0.440296757713
v 0.484478061756 -0.847719980085 0.405610521869
v 0.536408908469 -0.832355345273 0.460102348076
v 0.315070777236 0.926217674765 0.405610521869
v 0.422822347826 0.89412679823 0.420544132154
v 0.426712294713 0.898405586416 0.450199552894
v 0.529601501417 0.840642259654 0.450199552894
v 0.435464675207 0.895099215229 0.662977148206
v 0.405901092814 0.901711887881 0.747071420451
v 0.336465485112 0.909297047254 0.767300640168
v 0.405123061604 0.853089573746 0.783081578449
v 0.421071899616 0.76868117059 0.821633601656
v 0.593007663557 0.795326246984 0.613516156898
v 0.512096670706 0.850950214514 0.613516156898
v 0.378865920119 0.764013471382 0.832489585156
v 0.408429572235 -0.596245218828 0.866752181747
v 0.44557859289 -0.630864365616 0.854678195804
v 0.39967719174 -0.700491570215 0.84562271872
v 0.326546092662 -0.775953416254 0.836832026066
v 0.35144176668 -0.905483446292 0.772437384881
v 0.406873579536 -0.900232241107 0.756974215632
v 0.440716159282 -0.888951799525 0.658052233017
v 0.210625577832 -0.878060338688 0.811413077035
v 0.248163579232 -0.835661646738 0.826346697218
v 0.204012696014 0.763041054383 0.849647370803
v 0.0711708564498 0.71772497199 0.866858111356
v -0.0212154518277 0.387871043973 0.946609992181
v 0.160639704562 -0.352744527965 0.946609992181
v 0.424961846503 -0.893814023966 0.440296757713
v 0.426906819946 -0.896342433665 0.460102348076
v 0.383339372983 -0.903927523315 0.405610521869
v 0.210625577832 0.95422407918 0.405610521869
v 0.315070777236 0.935553003459 0.420544132154
v 0.34716283905 0.928746014741 0.435318887618
v 0.38139439954 0.918438059881 0.613516156898
v 0.435464675207 0.895293740463 0.613516156898
v 0.315070777236 0.941971150877 0.662977148206
v 0.280255710768 0.948778348761 0.747071420451
v 0.210625577832 0.955780002157 0.761899130821
v 0.213932018741 0.887125144835 0.805587908639
v 0.347940800538 0.822943740377 0.813372438272
v 0.190397812189 0.843365124863 0.826823301275
v 0.325184625196 -0.691739538332 0.857273075308
v 0.216655023395 -0.706131756145 0.863204133721
v 0.21295953202 -0.779065262208 0.845569773712
v 0.0639744686542 -0.980750697376 0.767088840338
v 0.122323741675 -0.981723184098 0.75713309025
v 0.315070777236 -0.935434754428 0.756974215632
v 0.103457443497 -0.905094465548 0.810353959108
v 0.315070777236 -0.941658376613 0.460102348076
v 0.140800989386 -0.874364986757 0.82126291731
v 0.142551437596 -0.83682858897 0.834025346732
v 0.140800989386 0.799216054426 0.843186753426
v 0.00465270891225 0.773737920265 0.853989782019
v -0.136746985913 0.360642461602 0.946609992181
v -0.0680893396993 0.717141535735 0.866752181747
v -0.181870355853 0.713446253526 0.863680747677
v 0.0242969685782 -0.388725072497 0.946609992181
v 0.315070777236 -0.939519017381 0.445221682799
v 0.280255710768 -0.935045773684 0.405610521869
v 0.0139885953844 0.978924321575 0.405610521869
v 0.159083711863 0.9748399889 0.431823794498
v 0.2454406443 0.959864265109 0.430393982327
v 0.280255710768 0.95247363097 0.450199552894
v 0.214321069208 0.969588783714 0.660541163116
v 0.14118997013 0.976979417854 0.752049290546
v 0.0351888477494 0.982814129017 0.759145406393
v 0.120573223742 0.904629278323 0.804899475058
v 0.105985922918 0.8729275917 0.82126291731
v 0.0787562947119 0.842392638142 0.833125073729
v 0.105985922918 -0.709438057609 0.868817502288
v 0.0696148637507 -0.768951832581 0.855366639284
v -0.0330798177205 -0.984835030051 0.761899130821
v 0.00154079323641 -0.89867631813 0.815225899593
v -0.136941441424 -0.908206311501 0.806170422509
v 0.036161334471 -0.993392606423 0.662977148206
v 0.138272509965 -0.984251524074 0.658052233017
v 0.280255710768 -0.950410478218 0.662977148206
v 0.036161334471 -0.844802659365 0.835455149006
v 0.228713844799 -0.96324663361 0.460102348076
v 0.00309671621317 0.830723285538 0.838367728255
v -0.102904406167 0.796687644727 0.845304989281
v -0.283787075836 0.693024799317 0.859761995509
v -0.332605937151 0.636039434044 0.867440625227
v -0.427715250082 0.602392843699 0.862621629749
v -0.261614336749 0.282457750353 0.946609992181
v -0.204626600917 0.780934029171 0.844881330232
v -0.0741187852624 -0.381139982846 0.946609992181
v -0.0324963117431 -0.749697390327 0.86002677994
v 0.036161334471 -0.712938884307 0.869611845682
v 0.144107430295 -0.979000318888 0.440296757713
v 0.175616055853 -0.958384548613 0.405610521869
v -0.242164602316 0.949556310249 0.405610521869
v -0.114963227571 0.978729796342 0.445221682799
v 0.0188510289926 0.990010028756 0.440296757713
v 0.139244996686 0.980480244552 0.450199552894
v 0.191953804888 0.974451008155 0.52444400466
v 0.105985922918 0.985147804315 0.653127307931
v 0.00154079323641 0.993510855454 0.662977148206
v -0.0659498410228 0.910658444997 0.805058349675
v 0.036161334471 0.913770290951 0.8060644929
v -0.093568519695 0.98125820604 0.752790679034
v 0.00154079323641 0.882652110305 0.82126291731
v -0.163198582908 -0.973554588469 0.763064158561
v -0.102904406167 -0.986585408539 0.662977148206
v -0.137719472635 -0.875337473478 0.82126291731
v -0.218630395764 -0.909178519334 0.798650647613
v -0.102904406167 -0.986585408539 0.52444400466
v -0.102904406167 -0.986001972284 0.460102348076
v 0.036161334471 -0.990475215981 0.445221682799
v 0.0781727887345 -0.99028076047 0.460102348076
v -0.0330798177205 -0.820297011925 0.841598066637
v -0.140831388311 -0.834883685249 0.834607860603
v -0.137719472635 0.852895118235 0.826346697218
v -0.345442789765 0.768486715079 0.833442803168
v -0.394456176313 0.70060995869 0.845199059671
v -0.523213474035 0.507287504939 0.865057595043
v -0.484508460681 0.626703965905 0.848641227578
v -0.569114944908 0.436882338852 0.868393843239
v -0.351666690839 0.159151481945 0.946609992181
v -0.239830648129 0.835974560446 0.826028957881
v -0.170978546404 -0.3494382265 0.946609992181
v -0.14238738101 -0.720329448724 0.86431623625
v -0.102904406167 -0.783344050394 0.8504946889
v 0.0731158298931 -0.975305036679 0.406510794873
v -0.137719472635 -0.969664781028 0.405610521869
v -0.33416192985 0.920771944346 0.405610521869
v -0.242164602316 0.961614713319 0.460102348076
v -0.131495501839 0.978535340831 0.460208267787
v 0.00154079323641 0.993316399943 0.460102348076
v 0.105985922918 0.985147804315 0.52444400466
v -0.102904406167 0.983203109761 0.662977148206
v -0.194707208467 0.894321253741 0.803046013736
v -0.242164602316 0.955196496179 0.756974215632
v -0.242164602316 0.962392674808 0.662977148206
v -0.242164602316 -0.945937164799 0.771748980994
v -0.334356455083 -0.921820428381 0.765288324025
v -0.191984273536 -0.978805863377 0.662977148206
v -0.242553583061 -0.835661646738 0.826293742312
v -0.242164602316 -0.875920909733 0.811413077035
v -0.412933424024 -0.831577383785 0.800874822975
v -0.211239482735 -0.976277453679 0.52444400466
v -0.20248710224 -0.973749113703 0.450676166849
v -0.102904406167 -0.983473562585 0.445221682799
v -0.200542128797 -0.975694017424 0.465027273163
v -0.205210106894 -0.782177108161 0.845146114663
v -0.312961677485 0.836946977445 0.816126172597
v -0.42596473215 0.764207996615 0.822692719583
v -0.500651823927 0.71013988234 0.825605298832
v -0.612487866637 0.562911472469 0.838526602872
v -0.539551292792 0.646541844414 0.833919417123
v -0.659361754509 0.458276140338 0.846787766257
v -0.629214666138 0.373673281671 0.86431623625
v -0.387454244029 0.0235924246778 0.946609992181
v -0.698650204118 0.346055788278 0.852824734483
v -0.705068700148 0.215747936196 0.863204133721
v -0.267449257079 -0.281366944878 0.946609992181
v -0.414489416723 -0.624446218198 0.860556338903
v -0.309849761809 -0.660815743474 0.865322379474
v -0.242164602316 -0.950799458962 0.405610521869
v -0.548303743009 0.811468913007 0.405610521869
v -0.529242919598 0.840836715165 0.460102348076
v -0.451443912145 0.877400835397 0.455124477981
v -0.340385830924 0.929718501463 0.460102348076
v -0.340969336901 0.930690918462 0.52444400466
v -0.326382036077 0.936914401202 0.658052233017
v -0.209489034525 0.96744935476 0.52444400466
v -0.176813466734 0.972311648924 0.653127307931
v -0.302847829524 0.91824360437 0.771748980994
v -0.339218888691 0.924078315533 0.756762386108
v -0.42849321157 -0.891480139501 0.756974215632
v -0.423825303195 -0.899065298874 0.662977148206
v -0.40262505083 -0.764673044395 0.828729747198
v -0.32657656131 -0.834689229738 0.81580843326
v -0.320741571258 -0.761561198442 0.839956405145
v -0.508237192467 -0.838968017924 0.765817882989
v -0.489176438778 -0.774008512533 0.806011577586
v -0.378701863534 -0.916569153473 0.52444400466
v -0.432188702946 -0.895564472176 0.460102348076
v -0.311989190763 -0.936990677405 0.445221682799
v -0.347776743952 -0.706520736889 0.851130157677
v -0.344859283788 0.850950214514 0.801510311548
v -0.479062521095 0.780156067683 0.803787402224
v -0.586230725153 0.693802760806 0.807070695513
v -0.665002219327 0.595002209559 0.817132335618
v -0.705457680892 0.487255101197 0.831059782883
v -0.380063331 -0.0746247600357 0.946609992181
v -0.708375141057 0.105277962624 0.868764517687
v -0.768863843031 0.0510153928376 0.855101854853
v -0.711292601222 0.00103161123697 0.869399986463
v -0.725490921302 -0.103409195661 0.864898720425
v -0.771586777963 0.397595492855 0.826982185791
v -0.781311714902 0.323495044559 0.834925590042
v -0.781895220879 0.192409161267 0.845252014578
v -0.348749230674 -0.17128595205 0.946609992181
v -0.56016803918 -0.492776898651 0.861721356745
v -0.492482879687 -0.561237161017 0.861774341346
v -0.499873792716 -0.611998904106 0.850441714197
v -0.429854679036 -0.695240295307 0.843133768825
v -0.342914310344 -0.913651832753 0.405610521869
v -0.430243729503 -0.893425043222 0.445221682799
v -0.661306727952 0.718891914223 0.405610521869
v -0.633882644235 0.757789779475 0.460102348076
v -0.560557019924 0.819831894423 0.52444400466
v -0.530604456786 0.841614676653 0.662977148206
v -0.369949483039 0.918049079137 0.613516156898
v -0.404764549507 0.90151743237 0.653127307931
v -0.451443912145 0.876817399142 0.751996335639
v -0.522241057036 0.837141502679 0.756974215632
v -0.526908965411 -0.839551454179 0.751996335639
v -0.52846495811 -0.840912851923 0.460102348076
v -0.47011568509 -0.71430028205 0.831430467228
v -0.5819517278 -0.688822217611 0.812789954096
v -0.633882644235 -0.71994046798 0.776726821395
v -0.684257428527 -0.7057427754 0.762958258646
v -0.625908225229 -0.760394256209 0.757662649214
v -0.628825685394 -0.629308442639 0.822692719583
v -0.526714440178 -0.839356998669 0.445221682799
v -0.602568474187 0.77782225294 0.756974215632
v -0.734632282541 0.640123766719 0.766453341867
v -0.772753789918 0.570691017631 0.775455903638
v -0.755443554162 0.498535473056 0.810195074592
v -0.701373208772 -0.219713810674 0.863945532107
v -0.837521489245 0.0698808543475 0.835614023623
v -0.783256688345 -0.103409195661 0.850600588815
v -0.783062232834 -0.206682990605 0.845304989281
v -0.834798484591 0.331663570465 0.816285017521
v -0.839077481944 0.212052584266 0.826558526743
v -0.698261223374 -0.316958508666 0.856319857296
v -0.626491661484 -0.369276174732 0.866010822953
v -0.600818025977 -0.531869219414 0.847529134948
v -0.548887179264 -0.63222576336 0.837997043909
v -0.474200157209 -0.855499594969 0.405610521869
v -0.75622151565 0.625537023673 0.405610521869
v -0.723934928603 0.676298766762 0.460102348076
v -0.625324649529 0.767319772847 0.52444400466
v -0.59031512755 0.798049112193 0.613516156898
v -0.611709835426 0.779961542449 0.660170468872
v -0.695343832931 -0.715272768772 0.658052233017
v -0.628047654183 -0.767395909604 0.653127307931
v -0.559779058436 -0.81796312746 0.662977148206
v -0.618128261734 -0.774592018511 0.460102348076
v -0.616183358013 -0.773230551045 0.442362048559
v -0.751942588019 -0.614332788571 0.766824055908
v -0.734632282541 -0.665288987171 0.74908375639
v -0.745135180968 -0.44843330298 0.826770356267
v -0.772559334407 -0.488692635698 0.805905647976
v -0.687563869436 -0.581658545504 0.812736979393
v -0.598873052534 -0.771285647324 0.405610521869
v -0.701762259239 0.690885440085 0.755385528843
v -0.824879161864 0.542101037516 0.751996335639
v -0.843550865086 0.484337710754 0.764864664976
v -0.904623073038 0.366477172764 0.766929955823
v -0.834993009825 -0.139973176448 0.834766705526
v -0.879921993975 0.0704643603249 0.82126291731
v -0.836354477291 -0.271642495996 0.822798619498
v -0.778977760714 -0.345548419058 0.832277785326
v -0.753887561463 -0.312485264969 0.84302786891
v -0.881672442185 0.2274172888 0.80643520694
v -0.905984540504 0.142036398922 0.804052186655
v -0.704096143704 -0.396699142892 0.84562271872
v -0.912986612233 0.346055788278 0.405610521869
v -0.847635337206 0.48569917822 0.405663466877
v -0.782673182367 0.613478690325 0.460102348076
v -0.758555469838 0.641485164462 0.52444400466
v -0.758555469838 0.641485164462 0.662977148206
v -0.753887561463 -0.645840019684 0.662977148206
v -0.705457680892 -0.706131756145 0.450199552894
v -0.704096143704 -0.704575833168 0.435318887618
v -0.845495908252 -0.483052449768 0.766718126298
v -0.8386885012 -0.527007064695 0.747071420451
v -0.814570718948 -0.371415533964 0.816126172597
v -0.826435154563 -0.417314982889 0.801192552414
v -0.686591452437 -0.700491570215 0.405610521869
v -0.893731193867 0.424824005504 0.751996335639
v -0.826435154563 0.544629447215 0.662977148206
v -0.939632595017 0.279540429632 0.759463135833
v -0.873698092901 -0.138222797961 0.82126291731
v -0.913181067744 0.0356507580255 0.806488151948
v -0.879921993975 -0.208044458071 0.811413077035
v -0.977948557905 0.116169353739 0.757874449044
v -0.942939105648 0.244726827333 0.405610521869
v -0.938465652784 0.314354031932 0.445221682799
v -0.909096595624 0.395067152879 0.445221682799
v -0.895287116844 0.425990947737 0.460102348076
v -0.831297518449 0.535099453843 0.460102348076
v -0.826435154563 0.544629447215 0.52444400466
v -0.817488179113 -0.560459199529 0.653127307931
v -0.827602096796 -0.546844943204 0.613516156898
v -0.763612428679 -0.632031307849 0.450199552894
v -0.751553607275 -0.641172250754 0.429652593839
v -0.77041983573 -0.598579103293 0.405663466877
v -0.892758776868 -0.376083302894 0.766400396859
v -0.891980815379 -0.429762366703 0.747071420451
v -0.899955094941 -0.419843392588 0.655616247927
v -0.846857375718 -0.520394392044 0.450199552894
v -0.924850908404 -0.209405855814 0.781704721184
v -0.951497100354 -0.24285806037 0.756974215632
v -0.976781615672 0.00356002093537 0.405610521869
v -0.895870831988 0.426185403248 0.662977148206
v -0.949940968211 0.279540429632 0.660541163116
v -0.880699955464 0.453997421874 0.52444400466
v -0.98456164889 0.133089911528 0.662977148206
v -0.902289188573 -0.0643168051758 0.809559615713
v -0.976198179417 0.0356507580255 0.763223033179
v -0.954997927052 -0.103409195661 0.771748980994
v -0.968418355366 -0.155726792005 0.758086278568
v -0.987868020077 0.0704643603249 0.742093550356
v -0.985923116356 0.00103161123697 0.751996335639
v -0.967056748456 0.140480545668 0.405663466877
v -0.979699215282 0.134451378994 0.430605792055
v -0.95383098482 0.244726827333 0.435318887618
v -0.966862223223 0.21146914801 0.460102348076
v -0.940799746416 0.314354031932 0.460102348076
v -0.8386885012 -0.526812539462 0.430393982327
v -0.86047218982 -0.477023283095 0.410588391964
v -0.904234092294 -0.381139982846 0.410588391964
v -0.954219965564 -0.24285806037 0.410588391964
v -0.972308162808 -0.206488535094 0.741775811018
v -0.939632595017 -0.312485264969 0.662977148206
v -0.903456130806 -0.414008681425 0.613516156898
v -0.895092661333 -0.432874142935 0.450199552894
v -0.894703680589 -0.426844976261 0.430393982327
v -0.972308162808 -0.154559849772 0.411859339415
v -0.987090058588 0.00103161123697 0.427958007135
v -0.979504690049 0.160901930155 0.52444400466
v -0.983589022724 0.131533988552 0.445221682799
v -0.991758036686 0.0531548217918 0.450199552894
v -0.992924978918 0.0356507580255 0.662977148206
v -0.982227555258 -0.103409195661 0.742093550356
v -0.936520749063 -0.312485264969 0.425469057241
v -0.97561467344 -0.189956958049 0.430605792055
v -0.985728591122 -0.103409195661 0.662977148206
v -0.980671632281 -0.173036330538 0.613516156898
v -0.975031237185 -0.201237329908 0.662977148206
v -0.975225692695 -0.201237329908 0.450199552894
v -0.93807667204 -0.312485264969 0.435318887618
v -0.983200041979 -0.103409195661 0.430393982327
v -0.985728591122 -0.103409195661 0.450199552894
f 1 2 3
f 1 3 4
f 1 4 5
f 1 5 6
f 1 6 2
f 2 7 8
f 2 8 9
f 2 9 10
f 2 10 3
f 2 6 7
f 3 10 11
f 3 11 12
f 3 12 4
f 4 13 5
f 4 12 14
f 4 14 15
f 4 15 13
f 5 13 16
f 5 16 6
f 6 16 7
f 7 16 8
f 8 16 17
f 8 17 9
f 9 17 18
f 9 18 19
f 9 19 20
f 9 20 10
f 10 20 21
f 10 21 11
f 11 21 22
f 11 22 23
f 11 23 12
f 12 23 24
f 12 24 14
f 13 25 16
f 13 15 26
f 13 26 27
f 13 27 25
f 14 28 15
f 14 24 29
f 14 29 30
f 14 30 31
f 14 31 28
f 15 28 26
f 16 32 33
f 16 33 17
f 16 25 32
f 17 34 35
f 17 35 36
f 17 36 18
f 17 33 34
f 18 36 19
f 19 36 57
f 19 57 87
f 19 87 112
f 19 112 140
f 19 140 174
f 19 174 203
f 19 203 232
f 19 232 264
f 19 264 298
f 19 298 332
f 19 332 372
f 19 372 405
f 19 405 421
f 19 421 446
f 19 446 471
f 19 471 454
f 19 454 434
f 19 434 406
f 19 406 374
f 19 374 333
f 19 333 299
f 19 299 265
f 19 265 233
f 19 233 204
f 19 204 176
f 19 176 141
f 19 141 113
f 19 113 88
f 19 88 58
f 19 58 37
f 19 37 38
f 19 38 21
f 19 21 20
f 21 38 22
f 22 39 40
f 22 40 23
f 22 38 41
f 22 41 39
f 23 42 24
f 23 40 42
f 24 43 29
f 24 42 43
f 25 27 44
f 25 44 45
f 25 45 46
f 25 46 47
f 25 47 32
f 26 28 48
f 26 48 44
f 26 44 27
f 28 31 48
f 29 43 49
f 29 49 50
f 29 50 30
f 30 50 51
f 30 51 31
f 31 51 52
f 31 52 53
f 31 53 48
f 32 54 33
f 32 47 54
f 33 54 55
f 33 55 34
f 34 56 35
f 34 55 56
f 35 57 36
f 35 56 57
f 37 58 41
f 37 41 38
f 39 41 59
f 39 59 60
f 39 60 61
f 39 61 40
f 40 61 62
f 40 62 63
f 40 63 42
f 41 58 64
f 41 64 59
f 42 65 43
f 42 63 65
f 43 66 67
f 43 67 49
f 43 65 66
f 44 68 45
f 44 48 69
f 44 69 70
f 44 70 68
f 45 71 72
f 45 72 46
f 45 68 71
f 46 73 74
f 46 74 75
f 46 75 54
f 46 54 47
f 46 72 73
f 48 53 69
f 49 67 76
f 49 76 77
f 49 77 78
f 49 78 79
f 49 79 50
f 50 79 51
f 51 79 80
f 51 80 81
f 51 81 82
f 51 82 52
f 52 82 83
f 52 83 53
f 53 83 84
f 53 84 69
f 54 75 85
f 54 85 55
f 55 85 56
f 56 86 87
f 56 87 57
f 56 85 86
f 58 88 89
f 58 89 90
f 58 90 64
f 59 61 60
f 59 64 90
f 59 90 91
f 59 91 61
f 61 91 92
f 61 92 62
f 62 93 94
f 62 94 63
f 62 92 93
f 63 94 65
f 65 94 95
f 65 95 96
f 65 96 66
f 66 96 97
f 66 97 76
f 66 76 67
f 68 70 98
f 68 98 99
f 68 99 71
f 69 84 100
f 69 100 70
f 70 100 98
f 71 101 102
f 71 102 72
f 71 99 101
f 72 102 103
f 72 103 73
f 73 104 74
f 73 103 104
f 74 104 105
f 74 105 85
f 74 85 75
f 76 97 106
f 76 106 107
f 76 107 77
f 77 107 78
f 78 108 137
f 78 137 171
f 78 171 199
f 78 199 227
f 78 227 258
f 78 258 292
f 78 292 326
f 78 326 359
f 78 359 367
f 78 367 329
f 78 329 294
f 78 294 260
f 78 260 230
f 78 230 200
f 78 200 172
f 78 172 138
f 78 138 109
f 78 109 81
f 78 81 79
f 78 107 108
f 79 81 80
f 81 109 83
f 81 83 82
f 83 109 84
f 84 109 110
f 84 110 100
f 85 105 86
f 86 105 111
f 86 111 112
f 86 112 87
f 88 113 114
f 88 114 89
f 89 114 115
f 89 115 91
f 89 91 90
f 91 115 116
f 91 116 92
f 92 117 93
f 92 116 117
f 93 117 118
f 93 118 94
f 94 119 120
f 94 120 95
f 94 118 121
f 94 121 119
f 95 122 123
f 95 123 96
f 95 120 122
f 96 123 97
f 97 124 106
f 97 123 124
f 98 100 125
f 98 125 126
f 98 126 127
f 98 127 99
f 99 128 101
f 99 127 128
f 100 110 125
f 101 129 130
f 101 130 102
f 101 128 131
f 101 131 129
f 102 130 103
f 103 130 132
f 103 132 133
f 103 133 104
f 104 133 105
f 105 133 111
f 106 124 134
f 106 134 135
f 106 135 107
f 107 135 108
f 108 135 134
f 108 134 136
f 108 136 137
f 109 138 110
f 110 138 125
f 111 139 140
f 111 140 112
f 111 133 139
f 113 141 142
f 113 142 143
f 113 143 144
f 113 144 145
f 113 145 114
f 114 145 115
f 115 144 116
f 115 145 144
f 116 146 117
f 116 144 146
f 117 146 118
f 118 146 144
f 118 144 121
f 119 121 147
f 119 147 148
f 119 148 149
f 119 149 150
f 119 150 122
f 119 122 120
f 121 144 151
f 121 151 152
f 121 152 153
f 121 153 147
f 122 150 154
f 122 154 123
f 123 154 155
f 123 155 124
f 124 156 134
f 124 155 156
f 125 138 157
f 125 157 158
f 125 158 126
f 126 159 127
f 126 158 159
f 127 159 128
f 128 159 160
f 128 160 131
f 129 131 161
f 129 161 162
f 129 162 130
f 130 162 163
f 130 163 164
f 130 164 132
f 131 160 165
f 131 165 166
f 131 166 161
f 132 164 133
f 133 164 139
f 134 156 136
f 136 156 167
f 136 167 168
f 136 168 137
f 137 168 169
f 137 169 170
f 137 170 171
f 138 172 157
f 139 173 174
f 139 174 140
f 139 164 175
f 139 175 173
f 141 176 177
f 141 177 142
f 142 177 143
f 143 177 178
f 143 178 179
f 143 179 151
f 143 151 144
f 147 180 181
f 147 181 148
f 147 153 180
f 148 181 182
f 148 182 149
f 149 182 183
f 149 183 150
f 150 183 184
f 150 184 154
f 151 179 185
f 151 185 152
f 152 185 153
f 153 185 179
f 153 179 186
f 153 186 180
f 154 184 155
f 155 184 187
f 155 187 167
f 155 167 156
f 157 172 158
f 158 172 188
f 158 188 189
f 158 189 159
f 159 189 160
f 160 189 190
f 160 190 191
f 160 191 165
f 161 192 193
f 161 193 162
f 161 166 192
f 162 194 163
f 162 193 194
f 163 194 175
f 163 175 164
f 165 191 166
f 166 195 192
f 166 191 196
f 166 196 195
f 167 187 168
f 168 170 169
f 168 187 197
f 168 197 170
f 170 197 198
f 170 198 171
f 171 198 199
f 172 200 188
f 173 201 174
f 173 175 202
f 173 202 201
f 174 201 203
f 175 194 202
f 176 204 205
f 176 205 177
f 177 205 206
f 177 206 178
f 178 206 207
f 178 207 208
f 178 208 179
f 179 208 186
f 180 209 181
f 180 186 208
f 180 208 207
f 180 207 209
f 181 210 182
f 181 209 210
f 182 211 212
f 182 212 213
f 182 213 183
f 182 210 211
f 183 213 184
f 184 213 187
f 187 213 214
f 187 214 197
f 188 200 215
f 188 215 189
f 189 215 190
f 190 215 191
f 191 215 216
f 191 216 217
f 191 217 196
f 192 218 219
f 192 219 220
f 192 220 193
f 192 195 221
f 192 221 218
f 193 220 222
f 193 222 194
f 194 222 202
f 195 196 223
f 195 223 221
f 196 217 224
f 196 224 223
f 197 214 225
f 197 225 198
f 198 225 226
f 198 226 199
f 199 226 228
f 199 228 229
f 199 229 227
f 200 230 216
f 200 216 215
f 201 202 231
f 201 231 203
f 202 222 231
f 203 231 232
f 204 233 234
f 204 234 235
f 204 235 205
f 205 235 206
f 206 235 236
f 206 236 207
f 207 236 209
f 209 237 210
f 209 236 237
f 210 237 238
f 210 238 211
f 211 239 240
f 211 240 212
f 211 238 239
f 212 240 241
f 212 241 214
f 212 214 213
f 214 241 242
f 214 242 225
f 216 230 243
f 216 243 217
f 217 244 224
f 217 243 244
f 218 245 219
f 218 221 246
f 218 246 247
f 218 247 245
f 219 245 248
f 219 248 249
f 219 249 250
f 219 250 220
f 220 250 222
f 221 223 251
f 221 251 246
f 222 250 252
f 222 252 231
f 223 224 251
f 224 244 251
f 225 242 226
f 226 242 253
f 226 253 254
f 226 254 228
f 227 229 255
f 227 255 256
f 227 256 257
f 227 257 258
f 228 254 229
f 229 254 259
f 229 259 255
f 230 260 261
f 230 261 262
f 230 262 243
f 231 263 232
f 231 252 263
f 232 263 264
f 233 265 266
f 233 266 267
f 233 267 234
f 234 267 268
f 234 268 235
f 235 268 269
f 235 269 236
f 236 269 237
f 237 269 270
f 237 270 238
f 238 270 271
f 238 271 239
f 239 272 273
f 239 273 240
f 239 271 274
f 239 274 272
f 240 273 241
f 241 275 242
f 241 273 275
f 242 275 253
f 243 262 244
f 244 262 261
f 244 261 251
f 245 276 277
f 245 277 248
f 245 247 276
f 246 278 247
f 246 251 278
f 247 278 279
f 247 279 276
f 248 277 280
f 248 280 281
f 248 281 282
f 248 282 283
f 248 283 249
f 249 283 263
f 249 263 252
f 249 252 250
f 251 284 285
f 251 285 278
f 251 261 284
f 253 275 286
f 253 286 254
f 254 286 259
f 255 259 287
f 255 287 288
f 255 288 256
f 256 288 257
f 257 289 258
f 257 288 290
f 257 290 289
f 258 291 292
f 258 289 291
f 259 286 293
f 259 293 287
f 260 294 295
f 260 295 296
f 260 296 261
f 261 296 284
f 263 283 282
f 263 282 297
f 263 297 264
f 264 297 298
f 265 299 300
f 265 300 266
f 266 300 301
f 266 301 302
f 266 302 267
f 267 302 268
f 268 302 303
f 268 303 269
f 269 303 270
f 270 303 271
f 271 304 274
f 271 303 302
f 271 302 304
f 272 305 286
f 272 286 275
f 272 275 273
f 272 274 306
f 272 306 305
f 274 304 307
f 274 307 306
f 276 279 308
f 276 308 309
f 276 309 310
f 276 310 277
f 277 310 280
f 278 311 312
f 278 312 279
f 278 285 311
f 279 313 308
f 279 312 313
f 280 310 314
f 280 314 281
f 281 315 316
f 281 316 282
f 281 314 317
f 281 317 315
f 282 316 298
f 282 298 297
f 284 296 285
f 285 296 318
f 285 318 311
f 286 305 293
f 287 293 319
f 287 319 320
f 287 320 288
f 288 320 321
f 288 321 290
f 289 290 322
f 289 322 291
f 290 321 323
f 290 323 322
f 291 322 324
f 291 324 325
f 291 325 292
f 292 325 327
f 292 327 328
f 292 328 326
f 293 305 319
f 294 329 330
f 294 330 331
f 294 331 295
f 295 331 318
f 295 318 296
f 298 316 315
f 298 315 332
f 299 333 334
f 299 334 335
f 299 335 336
f 299 336 300
f 300 336 337
f 300 337 338
f 300 338 307
f 300 307 339
f 300 339 301
f 301 339 304
f 301 304 302
f 304 339 340
f 304 340 307
f 305 306 341
f 305 341 319
f 306 307 338
f 306 338 342
f 306 342 341
f 307 340 339
f 308 313 309
f 309 313 343
f 309 343 310
f 310 344 314
f 310 343 344
f 311 345 346
f 311 346 312
f 311 318 347
f 311 347 345
f 312 346 313
f 313 348 343
f 313 346 345
f 313 345 349
f 313 349 348
f 314 350 351
f 314 351 352
f 314 352 317
f 314 344 350
f 315 352 332
f 315 317 352
f 318 331 353
f 318 353 347
f 319 341 354
f 319 354 355
f 319 355 320
f 320 355 321
f 321 355 356
f 321 356 357
f 321 357 323
f 322 323 357
f 322 357 358
f 322 358 324
f 324 327 325
f 324 358 327
f 326 328 360
f 326 360 361
f 326 361 362
f 326 362 363
f 326 363 359
f 327 358 364
f 327 364 365
f 327 365 328
f 328 365 366
f 328 366 360
f 329 367 368
f 329 368 369
f 329 369 330
f 330 369 370
f 330 370 371
f 330 371 353
f 330 353 331
f 332 352 373
f 332 373 372
f 333 374 375
f 333 375 334
f 334 375 376
f 334 376 377
f 334 377 378
f 334 378 337
f 334 337 335
f 335 337 336
f 337 378 338
f 338 378 379
f 338 379 380
f 338 380 342
f 341 342 381
f 341 381 354
f 342 380 381
f 343 382 344
f 343 348 382
f 344 382 383
f 344 383 351
f 344 351 350
f 345 347 353
f 345 353 371
f 345 371 384
f 345 384 349
f 348 349 385
f 348 385 386
f 348 386 387
f 348 387 388
f 348 388 382
f 349 384 389
f 349 389 385
f 351 383 390
f 351 390 373
f 351 373 352
f 354 381 355
f 355 381 391
f 355 391 356
f 356 391 392
f 356 392 357
f 357 392 393
f 357 393 394
f 357 394 358
f 358 394 364
f 359 363 395
f 359 395 367
f 360 366 361
f 361 366 396
f 361 396 397
f 361 397 362
f 362 397 363
f 363 397 398
f 363 398 395
f 364 394 399
f 364 399 365
f 365 399 400
f 365 400 366
f 366 400 396
f 367 395 401
f 367 401 402
f 367 402 368
f 368 402 403
f 368 403 369
f 369 403 404
f 369 404 370
f 370 404 371
f 371 404 384
f 372 373 405
f 373 390 405
f 374 406 407
f 374 407 375
f 375 407 408
f 375 408 376
f 376 408 409
f 376 409 377
f 377 409 410
f 377 410 391
f 377 391 381
f 377 381 380
f 377 380 379
f 377 379 378
f 382 411 412
f 382 412 413
f 382 413 383
f 382 388 411
f 383 413 414
f 383 414 415
f 383 415 390
f 384 404 389
f 385 389 386
f 386 389 387
f 387 389 416
f 387 416 417
f 387 417 388
f 388 417 411
f 389 418 419
f 389 419 420
f 389 420 416
f 389 404 403
f 389 403 418
f 390 415 421
f 390 421 405
f 391 410 422
f 391 422 392
f 392 422 423
f 392 423 393
f 393 423 424
f 393 424 394
f 394 424 425
f 394 425 399
f 395 398 401
f 396 426 397
f 396 400 427
f 396 427 426
f 397 426 398
f 398 426 428
f 398 428 429
f 398 429 430
f 398 430 401
f 399 425 431
f 399 431 400
f 400 431 432
f 400 432 427
f 401 430 433
f 401 433 402
f 402 433 403
f 403 433 418
f 406 434 435
f 406 435 436
f 406 436 407
f 407 436 437
f 407 437 438
f 407 438 410
f 407 410 408
f 408 410 409
f 410 438 422
f 411 417 439
f 411 439 440
f 411 440 414
f 411 414 412
f 412 414 413
f 414 440 415
f 415 440 441
f 415 441 421
f 416 442 443
f 416 443 417
f 416 420 419
f 416 419 442
f 417 443 439
f 418 444 445
f 418 445 419
f 418 433 429
f 418 429 444
f 419 445 442
f 421 441 446
f 422 438 423
f 423 447 424
f 423 438 448
f 423 448 447
f 424 447 425
f 425 447 449
f 425 449 431
f 426 427 450
f 426 450 428
f 427 451 450
f 427 432 451
f 428 450 452
f 428 452 444
f 428 444 429
f 429 433 430
f 431 449 432
f 432 449 453
f 432 453 451
f 434 454 455
f 434 455 456
f 434 456 435
f 435 456 457
f 435 457 458
f 435 458 436
f 436 458 459
f 436 459 448
f 436 448 438
f 436 438 437
f 439 443 460
f 439 460 461
f 439 461 462
f 439 462 440
f 440 462 441
f 441 463 464
f 441 464 446
f 441 462 463
f 442 445 465
f 442 465 466
f 442 466 443
f 443 466 467
f 443 467 468
f 443 468 461
f 443 461 460
f 444 452 445
f 445 469 470
f 445 470 465
f 445 452 469
f 446 464 471
f 447 448 472
f 447 472 473
f 447 473 449
f 448 459 474
f 448 474 472
f 449 473 475
f 449 475 453
f 450 451 476
f 450 476 452
f 451 453 477
f 451 477 478
f 451 478 476
f 452 476 478
f 452 478 479
f 452 479 469
f 453 475 480
f 453 480 481
f 453 481 477
f 454 471 482
f 454 482 483
f 454 483 484
f 454 484 455
f 455 485 486
f 455 486 456
f 455 484 485
f 456 486 472
f 456 472 457
f 457 472 474
f 457 474 458
f 458 474 459
f 461 468 462
f 462 468 487
f 462 487 463
f 463 487 464
f 464 487 488
f 464 488 489
f 464 489 490
f 464 490 471
f 465 470 466
f 466 470 491
f 466 491 492
f 466 492 467
f 467 492 493
f 467 493 494
f 467 494 468
f 468 494 495
f 468 495 487
f 469 479 470
f 470 479 491
f 471 490 496
f 471 496 497
f 471 497 483
f 471 483 482
f 472 486 473
f 473 486 485
f 473 485 498
f 473 498 475
f 475 498 499
f 475 499 500
f 475 500 501
f 475 501 480
f 477 481 479
f 477 479 478
f 479 481 502
f 479 502 491
f 480 501 481
f 481 501 502
f 483 497 500
f 483 500 499
f 483 499 484
f 484 499 485
f 485 499 498
f 487 495 488
f 488 495 489
f 489 495 503
f 489 503 490
f 490 503 504
f 490 504 496
f 491 502 505
f 491 505 506
f 491 506 507
f 491 507 492
f 492 507 508
f 492 508 509
f 492 509 493
f 493 509 494
f 494 509 495
f 495 509 503
f 496 504 510
f 496 510 497
f 497 510 511
f 497 511 500
f 500 511 501
f 501 505 502
f 501 511 505
f 503 509 508
f 503 508 504
f 504 508 511
f 504 511 510
f 505 511 506
f 506 511 508
f 506 508 507
