# ABC bottle geometry; canonical radius 1 and height 1, bottom z=0.
# https://github.com/mikedh/trimesh
v 0.0362171123157 -0.994928797988 0.326402116755
v 0.113129809817 -0.985577433163 0.377500483671
v 0.0188874240362 -0.993759764086 0.361063241085
v -0.137664043402 -0.985187824919 0.281854835972
v 0.0362171123157 -0.994344246175 0.267005755575
v 0.0710712232748 -0.993175421441 0.291740992425
v 0.135522174167 -0.98635685882 0.316515960302
v 0.315050069711 -0.939016389278 0.380835573788
v 0.210487736834 -0.950705333849 0.405610521869
v 0.0778862997799 -0.973693823914 0.405610521869
v 0.15148886109 -0.982850036004 0.343712828254
v 0.315050069711 -0.942912611172 0.361063241085
v -0.147983990498 -0.984019069906 0.336923544023
v -0.153825464725 -0.980122569123 0.378850398271
v -0.213213809269 -0.977005563719 0.306629803849
v -0.172518154361 -0.979927904445 0.217535242282
v -0.14272664975 -0.983824126339 0.24719372154
v -0.102809932443 -0.985967250575 0.227421408633
v 0.00155773575672 -0.992006457261 0.242270508827
v 0.0710712232748 -0.9879152918 0.180491929108
v 0.105925334234 -0.989668598625 0.227421408633
v 0.134743306289 -0.985967250575 0.250925864576
v 0.164729475577 -0.98090199478 0.296703946063
v 0.349125312792 -0.915638290968 0.405610521869
v 0.392352236013 -0.916027899213 0.341251216948
v -0.15148886109 -0.965706227392 0.405610521869
v 0.280195958752 -0.952069032429 0.323940515348
v 0.315050069711 -0.943107554739 0.296703946063
v 0.383590024673 -0.919729456429 0.29916554747
v -0.342894509209 -0.913690249744 0.405610521869
v -0.397804311161 -0.910962852584 0.356100307243
v -0.31212940232 -0.941938520837 0.336288293004
v -0.31212940232 -0.941743786437 0.296703946063
v -0.279222426196 -0.952263975996 0.237307565086
v -0.208540601999 -0.975447130739 0.209276919656
v -0.123449826636 -0.976421221073 0.112718101711
v -0.102809932443 -0.982655301604 0.178030298006
v 0.00155773575672 -0.980707120935 0.110852040091
v 0.127733495383 -0.978758870543 0.111963756593
v 0.315050069711 -0.940574822258 0.217535242282
v 0.484647486959 -0.847647329443 0.405610521869
v 0.476469478819 -0.868103087026 0.367217284196
v 0.43655269179 -0.89401370865 0.321439202709
v 0.388263231943 -0.914274592389 0.20272585332
v -0.482895086524 -0.849400636267 0.405610521869
v -0.477832480176 -0.868687569116 0.378373952584
v -0.481726819568 -0.870830553907 0.341251216948
v -0.415133999441 -0.904728562887 0.276891912028
v -0.420780739267 -0.901027005671 0.234845953781
v -0.409097790814 -0.902585647817 0.187916454459
v -0.249820320663 -0.95830311296 0.180491929108
v -0.292463110405 -0.924794712225 0.0742851627063
v -0.137664043402 -0.950900207694 0.066662110895
v 0.0190820887141 -0.974083432159 0.0804789071501
v 0.175828290552 -0.952069032429 0.0740866362463
v 0.346399310079 -0.907066351801 0.074324864039
v 0.36762333775 -0.912716159409 0.116569358644
v 0.632047343979 -0.750044189076 0.405610521869
v 0.570127731122 -0.813359642496 0.356100307243
v 0.520475200196 -0.843750968104 0.340020406346
v 0.45446658327 -0.882714372324 0.267005755575
v 0.45446658327 -0.883103980569 0.296703946063
v 0.499251172525 -0.84141317919 0.110812338758
v 0.5103499875 -0.848036937687 0.232384322679
v -0.770295590581 -0.59867155507 0.405610521869
v -0.642951424554 -0.736017316146 0.405372303974
v -0.67118526313 -0.735627777623 0.348675762096
v -0.538778490754 -0.835373902781 0.321439202709
v -0.529821614737 -0.841802787435 0.296703946063
v -0.495162168455 -0.861089650561 0.20272585332
v -0.47257520915 -0.868297891148 0.165642828915
v -0.362950200202 -0.909793818683 0.101362936558
v -0.472769873828 -0.848036937687 0.0712280017152
v -0.318749744425 -0.887000202463 0.0551083994856
v -0.224507288922 -0.888948452854 0.0432767688488
v -0.102809932443 -0.913495375899 0.0448251901126
v 0.0710712232748 -0.9553809814 0.0641607982567
v 0.20717753092 -0.919729456429 0.0572523902311
v 0.475301142141 -0.842387269524 0.0748013295225
v 0.353019652184 -0.866934192569 0.0531629253019
v 0.663591318747 -0.73757588857 0.37289488162
v 0.740893415326 -0.634907492409 0.405610521869
v 0.642951424554 -0.760564239191 0.321439202709
v 0.570322465522 -0.813554446618 0.301666860109
v 0.634383877892 -0.77049994666 0.217535242282
v 0.528653278058 -0.838101299941 0.25215666528
v 0.629516075666 -0.766213977076 0.113353382424
v 0.567985792165 -0.80907360319 0.180491929108
v 0.594077761506 -0.796410568284 0.217535242282
v -0.857333500779 -0.47574227517 0.405610521869
v -0.819558652707 -0.555617124834 0.363524862289
v -0.764648781033 -0.632959311739 0.351177084632
v -0.685983613374 -0.71595123653 0.371306729329
v -0.730963006752 -0.677377510277 0.323940515348
v -0.724147930247 -0.685949449445 0.262082523066
v -0.704481638333 -0.704846704326 0.178030298006
v -0.651518971216 -0.750628601444 0.244732110234
v -0.638083552606 -0.76192793777 0.321439202709
v -0.589209889558 -0.797579393019 0.264544134371
v -0.544425300303 -0.829919038741 0.237307565086
v -0.615885992378 -0.771473967272 0.163141516277
v -0.582589547454 -0.784916358113 0.0988218928926
v -0.631463210501 -0.734848491411 0.0656695082896
v -0.557081781312 -0.764265796407 0.0532820391982
v -0.353603855384 -0.83128273732 0.038432939005
v -0.21671867986 -0.80965808528 0.0217574884226
v -0.0679558214837 -0.865180816022 0.0292614461338
v 0.0878167780761 -0.913300432332 0.0445869821161
v 0.253714590332 -0.849985118357 0.0348993521229
v 0.451935245235 -0.766408781199 0.0361698640575
v 0.614522921299 -0.741277445787 0.0691634235333
v 0.795608622322 -0.589710007658 0.377421071108
v 0.653271301928 -0.753550872448 0.286778078379
v 0.687541349131 -0.715366824163 0.343712828254
v 0.833188735995 -0.513341841365 0.405610521869
v 0.668264456295 -0.732315828652 0.197802640607
v 0.7354414099 -0.661207792 0.227421408633
v 0.719864122055 -0.680884263371 0.276891912028
v 0.743814222162 -0.620491080956 0.0765482673481
v 0.811575309245 -0.565552762581 0.174298184664
v 0.797555757157 -0.589710007658 0.207649085829
v 0.73135240583 -0.661207792 0.182953540414
v -0.91399584261 -0.344435790502 0.405610521869
v -0.899781625844 -0.424310640166 0.343712828254
v -0.841172149178 -0.530290915577 0.34621415079
v -0.834941206151 -0.539252462989 0.321439202709
v -0.818974519229 -0.561071988875 0.301666860109
v -0.734273142944 -0.672701932449 0.231113810745
v -0.777110597364 -0.60724356396 0.148292416083
v -0.699419031984 -0.700171126497 0.0920723297904
v -0.64450916031 -0.75374567657 0.20272585332
v -0.645677496989 -0.754719766905 0.227421408633
v -0.716943454664 -0.617958487919 0.0498278351854
v -0.601087572412 -0.667636676653 0.0349787646865
v -0.458166188261 -0.767967283901 0.0346611243303
v -0.347957045835 -0.760369435068 0.0207251844845
v -0.094047721103 -0.747316722195 0.00817891996023
v 0.120139620722 -0.845114736406 0.025291104999
v 0.339000100095 -0.740692963697 0.016873947348
v 0.45427184887 -0.661402596122 0.0147696876296
v 0.5707118646 -0.668415962865 0.031961285232
v 0.671574662208 -0.654389159657 0.0549892756911
v 0.842924479891 -0.532628774214 0.361063241085
v 0.801060627749 -0.590099685625 0.314014647664
v 0.74439835564 -0.653999551412 0.301666860109
v 0.930936062089 -0.289692345972 0.405610521869
v 0.903286426713 -0.40424456055 0.370949397538
v 0.941645477986 -0.308979209098 0.380835573788
v 0.768543050702 -0.626530357364 0.257119599122
v 0.827541996168 -0.497561731333 0.0718235514007
v 0.82189518662 -0.528147930785 0.0889357364395
v 0.832409798394 -0.546655507699 0.207649085829
v -0.959753964422 -0.190530633181 0.405610521869
v -0.976304784823 -0.202414451598 0.316515960302
v -0.941450743586 -0.31248589247 0.306629803849
v -0.9003656896 -0.425089926378 0.294242324859
v -0.896471350208 -0.434051543513 0.316515960302
v -0.871352983145 -0.48256083779 0.271968679519
v -0.83552533963 -0.536330261708 0.213803099246
v -0.81839038575 -0.560877184752 0.242270508827
v -0.870768919389 -0.468534034582 0.140867861038
v -0.850129025196 -0.484703822582 0.0790495799864
v -0.844871684448 -0.481391943333 0.0585228922675
v -0.846039951404 -0.398789696509 0.0428797456232
v -0.774968728129 -0.421193634762 0.0288246918811
v -0.681115741426 -0.55873419996 0.0302937203775
v -0.538778490754 -0.543733306418 0.00901266774407
v -0.451935245235 -0.697053981649 0.0194149712172
v -0.310766400963 -0.644063913665 0.00504232660935
v 0.0710712232748 -0.73952406924 0.00762305181126
v 0.20289379245 -0.713613447616 0.007662753144
v 0.296552114475 -0.604126419111 0.00269983909825
v 0.431100686364 -0.505549258132 0.0024219000747
v 0.585705018967 -0.525225729504 0.0132212465696
v 0.70876530708 -0.549967456671 0.0383535264414
v 0.73135240583 -0.434830829725 0.0250925785391
v 0.866874510275 -0.48392453637 0.323940515348
v 0.911269700452 -0.38943847113 0.351177084632
v 0.980393928337 -0.00974076390206 0.405610521869
v 0.975720721067 -0.163840725345 0.369599482938
v 0.940671805985 -0.317551148265 0.326402116755
v 0.955080687429 -0.277613723433 0.34621415079
v 0.915748173322 -0.312291088347 0.0740469250155
v 0.913411569687 -0.359436684045 0.11132847588
v 0.842535080813 -0.38943847113 0.0504630862036
v 0.844871614725 -0.501847700916 0.110852040091
v 0.900949823078 -0.402296379881 0.197802640607
v 0.89199294706 -0.429375895962 0.267005755575
v -0.976694183901 0.00350675309373 0.405610521869
v -0.982341063172 -0.127410053607 0.358760445009
v -0.981756929694 -0.173191950725 0.24719372154
v -0.973384117432 -0.217025736895 0.281854835972
v -0.987208865397 -0.103447612652 0.326402116755
v -0.968905644562 -0.22754578701 0.187916454459
v -0.902507558835 -0.416907595456 0.215073640875
v -0.885567199911 -0.451974638337 0.187916454459
v -0.931130657045 -0.293199029343 0.0790495799864
v -0.914969305444 -0.376190954134 0.178030298006
v -0.925484056663 -0.282873783352 0.0573318027947
v -0.906401967949 -0.209817496308 0.0414504184596
v -0.836498872186 -0.267678085687 0.0287056076791
v -0.747903295954 -0.307810314641 0.014332933377
v -0.68832021701 -0.440090819921 0.0157225592079
v -0.57538507187 -0.414569876264 0.0032953590894
v -0.590767625315 -0.277613723433 0
v 0.524369539588 -0.382230230542 0.00166756485447
v 0.659112845877 -0.348332151841 0.0075833405804
v 0.769516652981 -0.279367030258 0.017945962517
v 0.846818819282 -0.260080167132 0.0338670481848
v 0.928210059376 -0.351059618722 0.294202613629
v 0.930741327689 0.289497681294 0.405610521869
v 0.99363440338 0.000974160056973 0.378373952584
v 0.977278317379 0.138319921133 0.383098668532
v 0.97377351651 -0.181958694014 0.296703946063
v 0.987598334198 -0.0884467191092 0.338789605643
v 0.954885953029 -0.277613723433 0.281854835972
v 0.968905714284 -0.211765676977 0.262082523066
v 0.958585627743 -0.120786295109 0.0740866362463
v 0.919837247114 -0.169685267353 0.0538775888837
v 0.93366199508 -0.33411054451 0.224959797328
v 0.977667716457 -0.0691598559829 0.11359159042
v 0.97825198938 -0.120786295109 0.190378085561
v 0.926068190141 -0.354176693849 0.24969502428
v -0.966958440005 0.140462905925 0.405610521869
v -0.97805725498 0.156048211835 0.375872639946
v -0.990324267189 0.0777319345948 0.356100307243
v -0.987403599798 -0.103447612652 0.301666860109
v -0.988961405277 -0.0598086306035 0.232384322679
v -0.977083792146 -0.126825571517 0.0827420216901
v -0.974357580266 -0.208064119761 0.167072156079
v -0.994608075381 0.0356515249708 0.306629803849
v -0.957612095187 -0.250144529385 0.149523216787
v -0.951770760405 -0.138319781688 0.0542746121093
v -0.863174975006 -0.0685753738932 0.0263233792428
v -0.7356361443 -0.0510418873138 0.0051614405057
v -0.689877952766 -0.17903642301 0.00361299944569
v -0.660670581634 0.000974160056973 0.00115138814012
v -0.590767625315 0.244689804789 0.00134991460007
v 0.419612402588 0.48898993161 3.97013327433e-05
v 0.594077761506 0.244689804789 0.00115138814012
v 0.663785983425 0.105395932766 0.00210425971842
v 0.683452275339 -0.0773421869052 0.00293806689094
v 0.643146158954 -0.236117726177 0.00357328821483
v 0.794245551243 -0.141047178847 0.0165563366861
v 0.919837247114 0.000974160056973 0.044428166887
v 0.819947982062 0.000974160056973 0.0183429857425
v 0.80923870561 0.545681626532 0.405610521869
v 0.963453499691 0.244689804789 0.361063241085
v 0.937361669794 0.315213498796 0.37710344065
v 0.994608075381 0.0183128425139 0.25215666528
v 0.989934937833 0.0705236940072 0.316515960302
v 0.987598334198 0.086303873762 0.333826671801
v 0.980004320092 0.134423559794 0.365986463696
v 0.98720893512 -0.088057041142 0.279393234564
v 0.976499519223 -0.157216966847 0.244732110234
v 0.969295113362 -0.00253252331445 0.0721014904243
v 0.97825198938 0.080459331754 0.10334808238
v 0.98915593051 0.0095460992242 0.171836573359
v 0.988377132354 -0.0512366914363 0.227421408633
v -0.928015324976 0.295536957702 0.405610521869
v -0.937751068872 0.314434212584 0.385758796399
v -0.957028031431 0.253456548078 0.362889611271
v -0.982925126928 0.149424453337 0.301666860109
v -0.994413340981 0.0356515249708 0.286778078379
v -0.993829277225 0.0356515249708 0.24719372154
v -0.990324267189 0.0356515249708 0.178030298006
v -0.97825198938 0.127020584806 0.0921120410213
v -0.95410736404 0.0584450714685 0.0555054227111
v -0.990713875434 0.0705236940072 0.207649085829
v -0.893745347495 0.0705236940072 0.0337479342885
v -0.796192755801 0.0705236940072 0.0139359101514
v -0.669238058573 0.147865950635 0.00254101397105
v -0.752186964701 0.250729150919 0.0129830187769
v -0.0506261332042 0.663156112114 0.00178667875081
v -0.588236357002 0.423531563121 0.00611431208399
v -0.365286803837 0.570812961944 0.00266012786739
v 0.28097482663 0.626725300931 0.00266012786739
v 0.478416613654 0.579969383201 0.00659076766936
v 0.572659069157 0.365865777865 0.00198514582207
v 0.70876530708 0.105395932766 0.00397034113472
v 0.846234685804 0.121176042798 0.0258866546845
v 0.900170885477 0.1468918603 0.0421253510143
v 0.946708014612 0.140268101802 0.0641607982567
v 0.760170308163 0.140268101802 0.010402293575
v 0.558834181747 0.802644857981 0.405610521869
v 0.851102557752 0.505354593455 0.370949397538
v 0.753939365136 0.632180164972 0.365986463696
v 0.973384187154 0.181764029336 0.34621415079
v 0.964037633169 0.244689804789 0.326402116755
v 0.943787347221 0.314434212584 0.296703946063
v 0.928794192854 0.347358200951 0.348675762096
v 0.983314595728 0.105395932766 0.232384322679
v 0.989740203433 0.0705236940072 0.291740992425
v 0.984482792962 0.105395932766 0.267005755575
v 0.926457589219 0.293393972911 0.072141191757
v 0.94709741369 0.244689804789 0.0988218928926
v 0.97396825091 0.150008935427 0.190378085561
v 0.0140194823659 0.97895381411 0.405610521869
v -0.551240307086 0.812970103973 0.40310920923
v -0.848766023839 0.486652142696 0.40310920923
v -0.895497817652 0.426064156158 0.378373952584
v -0.942813814665 0.314434212584 0.321439202709
v -0.9601433635 0.244689804789 0.306629803849
v -0.975915385745 0.180789939002 0.271968679519
v -0.981756929694 0.149814131304 0.234845953781
v -0.987208865397 0.0705236940072 0.158218273869
v -0.902702293235 0.382620047954 0.102831945258
v -0.900949823078 0.377165183913 0.0790495799864
v -0.944566075655 0.209817635752 0.0666224095623
v -0.941645408264 0.314434212584 0.234845953781
v -0.894913753896 0.239040136625 0.0455398833887
v -0.840587945978 0.213908801213 0.0273556831809
v -0.738362216736 0.393140167791 0.0207251844845
v -0.102809932443 0.709912099566 0.00385122723837
v 0.140779445193 0.694521597779 0.00385122723837
v -0.526316674423 0.55970842974 0.0103625922423
v -0.262866270472 0.668026494065 0.00559820465644
v 0.442978369217 0.709132813354 0.0190576790187
v 0.58395254881 0.64347957102 0.0275938911774
v 0.602839972846 0.48821071512 0.0106405312658
v 0.68832021701 0.406582488909 0.0135785981567
v 0.735636074578 0.255989210837 0.0114742790496
v 0.770490185537 0.345215216159 0.0227103797971
v 0.848960688517 0.291445861963 0.0364874747195
v 0.899976151077 0.282484244829 0.0519718259309
v 0.424480344259 0.883493867703 0.405610521869
v 0.615885922656 0.778487543182 0.32818877571
v 0.550461439207 0.826217620969 0.343712828254
v 0.435773823911 0.895377476952 0.351177084632
v 0.86025416817 0.492886292949 0.351177084632
v 0.850323689874 0.514705749112 0.267005755575
v 0.807291501053 0.578605614899 0.286778078379
v 0.747319092753 0.642895158653 0.348675762096
v 0.969879177118 0.199297515916 0.24350130953
v 0.945734342611 0.293393972911 0.219996853588
v 0.936972340438 0.328655819914 0.24969502428
v 0.918474106313 0.371710319873 0.291740992425
v 0.923926320906 0.359242019367 0.318977571608
v 0.911269700452 0.35807312491 0.0920723297904
v 0.797945156235 0.533992612238 0.0584037783712
v 0.928988857532 0.331188482673 0.162545966591
v 0.262866270472 0.94018542318 0.405610521869
v 0.13824817688 0.979733239767 0.371227336562
v 0.00155773575672 0.993565099408 0.370949397538
v -0.0765232984233 0.984993160241 0.383178071197
v -0.278248823917 0.947393594045 0.391356981259
v -0.531184616093 0.841802926879 0.380835573788
v -0.662617786191 0.725107727509 0.399575592654
v -0.781589070234 0.603931824155 0.401362251609
v -0.805344435941 0.579384901111 0.380835573788
v -0.832604602516 0.537109687364 0.351177084632
v -0.896860749286 0.427038246492 0.348675762096
v -0.925289322263 0.361774682126 0.295473135461
v -0.942229541742 0.314434212584 0.257119599122
v -0.911853903653 0.376775575669 0.165642828915
v -0.902312894157 0.414375141864 0.207649085829
v -0.841950947334 0.500873750026 0.10148202076
v -0.843703417491 0.476911309071 0.0744042766026
v -0.869795317111 0.38768530375 0.0577288260202
v -0.832409868116 0.347163396828 0.0361698640575
v -0.759002041206 0.469118656116 0.0347802382266
v -0.6748847984 0.56048764623 0.0299364083829
v -0.154604332603 0.759979966268 0.0106008200349
v 0.027649635376 0.790955843688 0.0131815452368
v 0.213992607425 0.824464314145 0.0231074030227
v -0.51482846037 0.722185526227 0.0334700249593
v -0.391768102534 0.72978337506 0.0195340851135
v 0.332574492391 0.804592968929 0.027038072519
v 0.532158148649 0.774201573598 0.0437532046379
v 0.670016926452 0.647765540604 0.0460559908163
v 0.737778013535 0.492496684704 0.0319215838993
v 0.28058535783 0.950900277417 0.358561928447
v 0.697277093027 0.696664582571 0.306629803849
v 0.614912320377 0.779071955549 0.256127006414
v 0.571295998078 0.811801209516 0.286778078379
v 0.530989811971 0.841413388357 0.31155302646
v 0.43226895332 0.898104943834 0.301666860109
v 0.383200555872 0.919145183507 0.336288293004
v 0.86064363697 0.493081097071 0.331325359162
v 0.86064363697 0.493275901194 0.31155302646
v 0.890629806259 0.430350125741 0.281854835972
v 0.878752193128 0.454117762574 0.234845953781
v 0.86921111391 0.470871962941 0.207649085829
v 0.830657397959 0.546071234777 0.187916454459
v 0.807096836375 0.578410810776 0.257119599122
v 0.749850361066 0.641141782106 0.322670003413
v 0.873300257424 0.454117762574 0.158178572536
v 0.874857853736 0.454117762574 0.178030298006
v 0.805344366218 0.550941616728 0.0864344238012
v 0.625621736274 0.746342771305 0.0790495799864
v 0.15577259956 0.980122848012 0.305359301812
v 0.105925334234 0.986746536788 0.326402116755
v 0.0710712232748 0.990448094004 0.356100307243
v 0.00155773575672 0.99473413331 0.341251216948
v -0.102809932443 0.984408678151 0.361063241085
v -0.195299917789 0.970381944665 0.370949397538
v -0.242421110679 0.963952920568 0.34621415079
v -0.346009911001 0.929470429498 0.373411018742
v -0.371517677142 0.918950449107 0.34621415079
v -0.451351111756 0.881156009066 0.331325359162
v -0.51482846037 0.850959348136 0.316515960302
v -0.532158148649 0.842387408969 0.294202613629
v -0.586873355646 0.799722586977 0.343712828254
v -0.633410345336 0.761148860725 0.372339023369
v -0.725121532526 0.677377649722 0.380835573788
v -0.752771098179 0.652635922555 0.306629803849
v -0.813133045002 0.569644067487 0.316515960302
v -0.876999862416 0.462105219651 0.326402116755
v -0.860059503492 0.491132916402 0.294202613629
v -0.894524145651 0.431129411954 0.24969502428
v -0.766985384668 0.630232054025 0.103189286947
v -0.805539100619 0.579579705233 0.244732110234
v -0.737193880057 0.634712827731 0.0740866362463
v -0.723369062369 0.608607401984 0.055187802151
v -0.579474145662 0.739329404562 0.0527261710493
v -0.306482662494 0.839465207687 0.0350978488886
v -0.120139620722 0.848816363344 0.0257278295573
v 0.00155773575672 0.893819043972 0.0340258634139
v 0.157914468795 0.918171093172 0.0457780814871
v 0.327317151642 0.904923506454 0.0551481008183
v -0.40754012478 0.854271227385 0.0568553373112
v 0.431100686364 0.849595649556 0.0498675464163
v 0.506845116909 0.834594756014 0.0740866362463
v 0.315050069711 0.943692106551 0.316515960302
v 0.280195958752 0.954212226388 0.286778078379
v 0.72220072569 0.669584996767 0.232384322679
v 0.697082358627 0.696469708726 0.267005755575
v 0.626790003231 0.765629634431 0.178030298006
v 0.591935892272 0.794267722937 0.178030298006
v 0.57480086867 0.808489330267 0.215073640875
v 0.530600412893 0.841218514512 0.24719372154
v 0.44083643026 0.892455345393 0.229883010041
v 0.414355131562 0.905118380299 0.187916454459
v 0.383395290273 0.919145183507 0.267005755575
v 0.779836600077 0.605685200702 0.192839696867
v 0.806512633175 0.577436720442 0.217535242282
v 0.812159442723 0.560292842107 0.153255359823
v 0.728431598995 0.657701248073 0.168104430322
v 0.661059980712 0.725302601354 0.146743965125
v 0.238332036887 0.96453747238 0.25215666528
v 0.245341847793 0.9629790394 0.207649085829
v 0.14214244655 0.981681280992 0.239769166494
v 0.0188874240362 0.994539189743 0.25215666528
v 0.00155773575672 0.994928797988 0.31155302646
v -0.0331017105245 0.992006666428 0.207649085829
v -0.102809932443 0.984603621718 0.276891912028
v -0.158693336673 0.976616164641 0.314014647664
v -0.164145411822 0.975642074306 0.341251216948
v -0.115271748774 0.982265763081 0.24969502428
v -0.185953572971 0.970187210265 0.217535242282
v -0.207372335042 0.964927010902 0.187916454459
v -0.277275291361 0.954017282821 0.281854835972
v -0.350293719193 0.927327444707 0.269507078111
v -0.388847365421 0.910573244339 0.31155302646
v -0.561170785382 0.820567952806 0.254657977918
v -0.368596940028 0.917586750527 0.217535242282
v -0.538583826077 0.836932544928 0.224959797328
v -0.608486782395 0.7837476031 0.281854835972
v -0.661254715112 0.73660193768 0.296703946063
v -0.734273142944 0.669974674734 0.276891912028
v -0.802423698827 0.585034569274 0.262082523066
v -0.556497647834 0.817061269434 0.173067374062
v -0.621532732205 0.744784268603 0.0765482673481
v -0.664954320103 0.732315968097 0.251839024923
v -0.590183491837 0.797969210431 0.232384322679
v -0.497888240891 0.833620665679 0.0741660488099
v -0.282337897709 0.90979402785 0.0570935651039
v -0.13824817688 0.916417716625 0.0475647305436
v 0.00155773575672 0.949536578837 0.0542746121093
v 0.193157978832 0.948172810535 0.0641607982567
v 0.366649735471 0.912911102976 0.0813920971919
v -0.283700899066 0.929470429498 0.074523390499
v 0.464591795966 0.873168412544 0.14706161538
v 0.527095542301 0.83907552972 0.168104430322
v 0.356913991575 0.926548297939 0.20272585332
v 0.712659646472 0.677962131812 0.207649085829
v 0.483089751202 0.867713618226 0.20272585332
v 0.282921961465 0.94778320229 0.163181217609
v 0.19393684671 0.9629790394 0.0913576365142
v 0.0151878190446 0.988889661024 0.166873629619
v 0.00155773575672 0.993954707653 0.234845953781
v -0.0778862997799 0.977784989375 0.102990760487
v -0.0956054568597 0.981096938347 0.178030298006
v -0.207372335042 0.963563312323 0.168104430322
v -0.284479766944 0.950315725604 0.24719372154
v -0.32537008653 0.933171916992 0.173067374062
v -0.358666461732 0.912911102976 0.101640845887
v -0.408903126136 0.896156902609 0.187916454459
v -0.498277639969 0.843361499304 0.101124708765
v -0.0492631318476 0.968823511685 0.0698780871152
f 1 2 3
f 1 3 4
f 1 4 5
f 1 5 6
f 1 6 7
f 1 7 2
f 2 8 9
f 2 9 10
f 2 10 3
f 2 7 11
f 2 11 12
f 2 12 8
f 3 13 4
f 3 10 14
f 3 14 13
f 4 15 16
f 4 16 17
f 4 17 18
f 4 18 19
f 4 19 5
f 4 13 15
f 5 19 20
f 5 20 21
f 5 21 6
f 6 21 7
f 7 21 22
f 7 22 23
f 7 23 11
f 8 24 9
f 8 12 25
f 8 25 24
f 9 24 41
f 9 41 58
f 9 58 82
f 9 82 115
f 9 115 146
f 9 146 179
f 9 179 211
f 9 211 247
f 9 247 285
f 9 285 326
f 9 326 342
f 9 342 298
f 9 298 260
f 9 260 224
f 9 224 189
f 9 189 153
f 9 153 123
f 9 123 90
f 9 90 65
f 9 65 45
f 9 45 30
f 9 30 26
f 9 26 10
f 10 26 14
f 11 23 12
f 12 23 27
f 12 27 28
f 12 28 29
f 12 29 25
f 13 14 15
f 14 26 30
f 14 30 31
f 14 31 32
f 14 32 15
f 15 32 33
f 15 33 34
f 15 34 35
f 15 35 16
f 16 35 36
f 16 36 37
f 16 37 18
f 16 18 17
f 18 37 19
f 19 37 36
f 19 36 38
f 19 38 20
f 20 38 39
f 20 39 21
f 21 39 22
f 22 39 40
f 22 40 23
f 23 28 27
f 23 40 28
f 24 25 42
f 24 42 41
f 25 43 42
f 25 29 43
f 28 40 29
f 29 40 44
f 29 44 43
f 30 45 46
f 30 46 31
f 31 46 47
f 31 47 48
f 31 48 32
f 32 48 33
f 33 48 34
f 34 48 49
f 34 49 50
f 34 50 35
f 35 50 51
f 35 51 52
f 35 52 36
f 36 52 53
f 36 53 54
f 36 54 38
f 38 54 39
f 39 54 55
f 39 55 56
f 39 56 57
f 39 57 40
f 40 57 44
f 41 42 59
f 41 59 58
f 42 43 60
f 42 60 59
f 43 44 61
f 43 61 62
f 43 62 60
f 44 57 63
f 44 63 64
f 44 64 61
f 45 65 66
f 45 66 46
f 46 66 67
f 46 67 68
f 46 68 47
f 47 68 69
f 47 69 70
f 47 70 49
f 47 49 48
f 49 70 50
f 50 70 71
f 50 71 72
f 50 72 51
f 51 72 52
f 52 72 73
f 52 73 74
f 52 74 53
f 53 74 75
f 53 75 76
f 53 76 77
f 53 77 54
f 54 77 55
f 55 77 78
f 55 78 56
f 56 79 57
f 56 78 80
f 56 80 79
f 57 79 63
f 58 81 82
f 58 59 81
f 59 83 81
f 59 60 84
f 59 84 85
f 59 85 83
f 60 62 84
f 61 64 86
f 61 86 62
f 62 86 84
f 63 87 88
f 63 88 64
f 63 79 87
f 64 88 89
f 64 89 86
f 65 90 91
f 65 91 92
f 65 92 93
f 65 93 66
f 66 93 67
f 67 94 95
f 67 95 96
f 67 96 97
f 67 97 98
f 67 98 68
f 67 93 94
f 68 98 69
f 69 98 99
f 69 99 100
f 69 100 70
f 70 101 102
f 70 102 71
f 70 100 101
f 71 102 73
f 71 73 72
f 73 103 104
f 73 104 105
f 73 105 74
f 73 102 103
f 74 105 75
f 75 105 106
f 75 106 107
f 75 107 76
f 76 107 108
f 76 108 77
f 77 108 78
f 78 108 109
f 78 109 80
f 79 80 110
f 79 110 111
f 79 111 87
f 80 109 110
f 81 112 82
f 81 83 113
f 81 113 114
f 81 114 112
f 82 112 115
f 83 85 113
f 84 86 89
f 84 89 85
f 85 89 87
f 85 87 116
f 85 116 117
f 85 117 118
f 85 118 113
f 87 111 119
f 87 119 120
f 87 120 121
f 87 121 122
f 87 122 116
f 87 89 88
f 90 123 124
f 90 124 125
f 90 125 91
f 91 125 92
f 92 125 126
f 92 126 127
f 92 127 94
f 92 94 93
f 94 127 128
f 94 128 95
f 95 128 96
f 96 129 130
f 96 130 131
f 96 131 132
f 96 132 97
f 96 128 129
f 97 132 98
f 98 132 99
f 99 132 100
f 100 132 131
f 100 131 101
f 101 130 102
f 101 131 130
f 102 130 103
f 103 133 104
f 103 130 133
f 104 133 134
f 104 134 135
f 104 135 105
f 105 135 136
f 105 136 106
f 106 136 137
f 106 137 107
f 107 137 138
f 107 138 108
f 108 138 109
f 109 138 139
f 109 139 110
f 110 139 140
f 110 140 141
f 110 141 111
f 111 141 142
f 111 142 119
f 112 143 115
f 112 114 144
f 112 144 143
f 113 118 145
f 113 145 114
f 114 145 144
f 115 143 147
f 115 147 148
f 115 148 146
f 116 122 117
f 117 149 118
f 117 122 121
f 117 121 149
f 118 149 145
f 119 150 151
f 119 151 120
f 119 142 150
f 120 152 121
f 120 151 152
f 121 152 144
f 121 144 149
f 123 153 154
f 123 154 124
f 124 154 155
f 124 155 156
f 124 156 157
f 124 157 125
f 125 157 158
f 125 158 159
f 125 159 126
f 126 160 127
f 126 159 160
f 127 160 128
f 128 160 159
f 128 159 129
f 129 161 162
f 129 162 130
f 129 159 161
f 130 162 163
f 130 163 133
f 133 163 164
f 133 164 165
f 133 165 166
f 133 166 134
f 134 166 167
f 134 167 168
f 134 168 135
f 135 168 136
f 136 168 169
f 136 169 137
f 137 169 170
f 137 170 138
f 138 170 171
f 138 171 139
f 139 171 140
f 140 171 172
f 140 172 173
f 140 173 174
f 140 174 141
f 141 175 142
f 141 174 176
f 141 176 175
f 142 175 150
f 143 177 178
f 143 178 147
f 143 144 152
f 143 152 177
f 144 145 149
f 146 148 180
f 146 180 179
f 147 178 148
f 148 178 181
f 148 181 182
f 148 182 180
f 150 183 184
f 150 184 151
f 150 175 185
f 150 185 183
f 151 184 186
f 151 186 152
f 152 186 187
f 152 187 188
f 152 188 177
f 153 189 190
f 153 190 154
f 154 191 192
f 154 192 155
f 154 190 193
f 154 193 191
f 155 192 194
f 155 194 195
f 155 195 156
f 156 195 196
f 156 196 157
f 157 196 158
f 158 196 159
f 159 196 161
f 161 197 162
f 161 196 198
f 161 198 197
f 162 197 163
f 163 199 164
f 163 197 199
f 164 200 201
f 164 201 165
f 164 199 200
f 165 201 202
f 165 202 203
f 165 203 166
f 166 203 167
f 167 204 169
f 167 169 168
f 167 203 204
f 169 204 205
f 169 205 172
f 169 172 170
f 170 172 171
f 172 205 206
f 172 206 173
f 173 206 207
f 173 207 174
f 174 207 176
f 175 176 185
f 176 207 208
f 176 208 209
f 176 209 185
f 177 188 178
f 178 188 210
f 178 210 181
f 179 180 212
f 179 212 213
f 179 213 211
f 180 182 214
f 180 214 215
f 180 215 212
f 181 210 216
f 181 216 182
f 182 216 217
f 182 217 214
f 183 218 184
f 183 185 219
f 183 219 218
f 184 220 187
f 184 187 186
f 184 218 221
f 184 221 222
f 184 222 217
f 184 217 216
f 184 216 220
f 185 209 219
f 187 220 223
f 187 223 188
f 188 223 210
f 189 224 225
f 189 225 226
f 189 226 190
f 190 226 193
f 191 193 227
f 191 227 228
f 191 228 229
f 191 229 230
f 191 230 192
f 192 230 194
f 193 226 231
f 193 231 227
f 194 230 198
f 194 198 195
f 195 198 196
f 197 198 232
f 197 232 230
f 197 230 229
f 197 229 199
f 198 230 232
f 199 233 200
f 199 229 233
f 200 233 234
f 200 234 201
f 201 234 202
f 202 234 235
f 202 235 236
f 202 236 204
f 202 204 203
f 204 236 205
f 205 237 238
f 205 238 239
f 205 239 206
f 205 236 237
f 206 239 240
f 206 240 241
f 206 241 242
f 206 242 243
f 206 243 207
f 207 243 242
f 207 242 244
f 207 244 208
f 208 244 209
f 209 245 219
f 209 244 246
f 209 246 245
f 210 223 220
f 210 220 216
f 211 213 248
f 211 248 249
f 211 249 247
f 212 215 250
f 212 250 251
f 212 251 252
f 212 252 253
f 212 253 213
f 213 253 248
f 214 217 254
f 214 254 215
f 215 254 250
f 217 255 254
f 217 222 255
f 218 219 256
f 218 256 221
f 219 245 256
f 221 256 257
f 221 257 258
f 221 258 259
f 221 259 222
f 222 259 254
f 222 254 255
f 224 260 261
f 224 261 225
f 225 261 262
f 225 262 263
f 225 263 226
f 226 263 231
f 227 231 264
f 227 264 228
f 228 264 265
f 228 265 266
f 228 266 229
f 229 266 267
f 229 267 268
f 229 268 233
f 231 263 269
f 231 269 264
f 233 268 270
f 233 270 234
f 234 271 235
f 234 270 271
f 235 272 237
f 235 237 236
f 235 271 273
f 235 273 272
f 237 272 238
f 238 274 239
f 238 272 275
f 238 275 276
f 238 276 274
f 239 274 277
f 239 277 278
f 239 278 279
f 239 279 240
f 240 279 280
f 240 280 241
f 241 280 242
f 242 280 244
f 244 280 246
f 245 246 281
f 245 281 282
f 245 282 283
f 245 283 256
f 246 280 284
f 246 284 281
f 247 249 286
f 247 286 287
f 247 287 285
f 248 253 288
f 248 288 289
f 248 289 290
f 248 290 291
f 248 291 249
f 249 291 286
f 250 259 258
f 250 258 257
f 250 257 292
f 250 292 293
f 250 293 251
f 250 254 259
f 251 293 294
f 251 294 289
f 251 289 252
f 252 289 288
f 252 288 253
f 256 283 257
f 257 283 295
f 257 295 296
f 257 296 297
f 257 297 292
f 260 298 299
f 260 299 300
f 260 300 261
f 261 300 301
f 261 301 302
f 261 302 262
f 262 302 303
f 262 303 263
f 263 303 304
f 263 304 305
f 263 305 269
f 264 269 265
f 265 269 266
f 266 269 306
f 266 306 267
f 267 307 308
f 267 308 309
f 267 309 268
f 267 306 269
f 267 269 305
f 267 305 310
f 267 310 307
f 268 309 311
f 268 311 270
f 270 311 312
f 270 312 271
f 271 312 273
f 272 273 275
f 273 312 313
f 273 313 275
f 274 276 314
f 274 314 315
f 274 315 277
f 275 316 276
f 275 313 316
f 276 316 317
f 276 317 314
f 277 315 318
f 277 318 278
f 278 318 319
f 278 319 320
f 278 320 279
f 279 320 321
f 279 321 322
f 279 322 280
f 280 322 284
f 281 284 322
f 281 322 323
f 281 323 324
f 281 324 282
f 282 324 325
f 282 325 283
f 283 325 295
f 285 287 327
f 285 327 328
f 285 328 329
f 285 329 326
f 286 291 330
f 286 330 331
f 286 331 332
f 286 332 287
f 287 332 333
f 287 333 327
f 289 294 334
f 289 334 335
f 289 335 290
f 290 336 337
f 290 337 338
f 290 338 291
f 290 335 336
f 291 338 330
f 292 334 294
f 292 294 293
f 292 297 334
f 295 339 296
f 295 325 340
f 295 340 339
f 296 339 341
f 296 341 335
f 296 335 334
f 296 334 297
f 298 342 343
f 298 343 344
f 298 344 345
f 298 345 346
f 298 346 299
f 299 346 347
f 299 347 348
f 299 348 349
f 299 349 300
f 300 349 301
f 301 349 350
f 301 350 351
f 301 351 352
f 301 352 302
f 302 352 353
f 302 353 354
f 302 354 304
f 302 304 303
f 304 354 310
f 304 310 305
f 307 355 356
f 307 356 357
f 307 357 308
f 307 310 355
f 308 357 358
f 308 358 359
f 308 359 309
f 309 359 311
f 310 354 353
f 310 353 356
f 310 356 355
f 311 360 312
f 311 359 360
f 312 360 313
f 313 360 361
f 313 361 362
f 313 362 316
f 314 317 363
f 314 363 364
f 314 364 315
f 315 364 365
f 315 365 318
f 316 362 366
f 316 366 367
f 316 367 317
f 317 367 363
f 318 365 368
f 318 368 369
f 318 369 319
f 319 369 370
f 319 370 371
f 319 371 320
f 320 371 321
f 321 323 322
f 321 371 323
f 323 371 324
f 324 371 340
f 324 340 325
f 326 329 372
f 326 372 342
f 327 333 373
f 327 373 374
f 327 374 375
f 327 375 376
f 327 376 328
f 328 376 329
f 329 376 377
f 329 377 378
f 329 378 372
f 330 338 379
f 330 379 331
f 331 379 380
f 331 380 381
f 331 381 382
f 331 382 383
f 331 383 384
f 331 384 332
f 332 385 386
f 332 386 333
f 332 384 385
f 333 386 373
f 335 341 336
f 336 382 337
f 336 341 387
f 336 387 388
f 336 388 382
f 337 381 380
f 337 380 379
f 337 379 338
f 337 382 381
f 339 389 384
f 339 384 387
f 339 387 341
f 339 340 389
f 340 371 370
f 340 370 390
f 340 390 389
f 342 372 343
f 343 372 391
f 343 391 392
f 343 392 393
f 343 393 344
f 344 393 394
f 344 394 395
f 344 395 345
f 345 395 396
f 345 396 346
f 346 396 397
f 346 397 398
f 346 398 347
f 347 398 399
f 347 399 400
f 347 400 401
f 347 401 402
f 347 402 403
f 347 403 404
f 347 404 348
f 348 404 405
f 348 405 349
f 349 405 350
f 350 405 406
f 350 406 407
f 350 407 351
f 351 408 352
f 351 407 409
f 351 409 408
f 352 408 410
f 352 410 356
f 352 356 353
f 356 411 357
f 356 410 412
f 356 412 411
f 357 411 358
f 358 411 413
f 358 413 414
f 358 414 359
f 359 414 361
f 359 361 360
f 361 414 362
f 362 414 415
f 362 415 366
f 363 367 416
f 363 416 417
f 363 417 364
f 364 417 418
f 364 418 365
f 365 418 419
f 365 419 420
f 365 420 368
f 366 416 367
f 366 415 421
f 366 421 416
f 368 420 422
f 368 422 369
f 369 422 423
f 369 423 390
f 369 390 370
f 372 378 424
f 372 424 425
f 372 425 391
f 373 426 427
f 373 427 374
f 373 386 426
f 374 427 428
f 374 428 429
f 374 429 430
f 374 430 375
f 375 430 431
f 375 431 376
f 376 431 377
f 377 431 432
f 377 432 433
f 377 433 434
f 377 434 378
f 378 434 424
f 382 388 383
f 383 388 387
f 383 387 384
f 384 435 436
f 384 436 385
f 384 389 437
f 384 437 435
f 385 426 386
f 385 436 435
f 385 435 426
f 389 390 438
f 389 438 437
f 390 423 429
f 390 429 428
f 390 428 439
f 390 439 438
f 391 425 440
f 391 440 441
f 391 441 442
f 391 442 392
f 392 442 443
f 392 443 393
f 393 443 394
f 394 444 395
f 394 443 444
f 395 444 445
f 395 445 446
f 395 446 447
f 395 447 448
f 395 448 397
f 395 397 396
f 397 448 447
f 397 447 449
f 397 449 450
f 397 450 451
f 397 451 452
f 397 452 398
f 398 452 453
f 398 453 399
f 399 453 454
f 399 454 400
f 400 454 401
f 401 454 402
f 402 455 403
f 402 454 456
f 402 456 457
f 402 457 455
f 403 455 458
f 403 458 404
f 404 458 459
f 404 459 405
f 405 459 460
f 405 460 406
f 406 461 407
f 406 460 411
f 406 411 461
f 407 461 412
f 407 412 409
f 408 409 410
f 409 412 410
f 411 462 463
f 411 463 413
f 411 412 461
f 411 460 464
f 411 464 465
f 411 465 462
f 413 463 415
f 413 415 414
f 415 463 466
f 415 466 421
f 416 421 467
f 416 467 468
f 416 468 417
f 417 468 418
f 418 468 469
f 418 469 419
f 419 469 470
f 419 470 420
f 420 470 471
f 420 471 422
f 421 466 472
f 421 472 467
f 422 471 423
f 423 471 473
f 423 473 474
f 423 474 429
f 424 434 475
f 424 475 425
f 425 475 441
f 425 441 440
f 426 435 476
f 426 476 428
f 426 428 427
f 428 476 438
f 428 438 439
f 429 474 430
f 430 474 431
f 431 474 477
f 431 477 432
f 432 477 433
f 433 475 434
f 433 477 473
f 433 473 471
f 433 471 475
f 435 437 438
f 435 438 476
f 441 475 478
f 441 478 479
f 441 479 442
f 442 479 480
f 442 480 443
f 443 480 481
f 443 481 444
f 444 481 445
f 445 480 482
f 445 482 483
f 445 483 450
f 445 450 449
f 445 449 446
f 445 481 480
f 446 449 447
f 450 483 451
f 451 483 484
f 451 484 485
f 451 485 452
f 452 485 453
f 453 485 486
f 453 486 456
f 453 456 454
f 455 465 458
f 455 457 465
f 456 486 487
f 456 487 488
f 456 488 457
f 457 488 487
f 457 487 489
f 457 489 462
f 457 462 465
f 458 465 464
f 458 464 459
f 459 464 460
f 462 489 463
f 463 489 466
f 466 489 487
f 466 487 472
f 467 472 490
f 467 490 468
f 468 490 469
f 469 490 470
f 470 490 479
f 470 479 471
f 471 479 478
f 471 478 475
f 472 487 486
f 472 486 484
f 472 484 482
f 472 482 490
f 473 477 474
f 479 490 480
f 480 490 482
f 482 484 483
f 484 486 485
