# ABC bottle geometry; canonical radius 1 and height 1, bottom z=0.
# https://github.com/mikedh/trimesh
v 0.785918113459 -0.104159500213 0.000356489604552
v 0.329787346819 0.710630432048 0.000356489604552
v 0.329787346819 0.718088712014 0.000267359776753
v 0.486557869056 0.63625206419 8.91199255845e-05
v 0.63630307857 0.486473843168 0
v 0.785918113459 0.187223711977 8.91199255845e-05
v 0.856042039184 -0.0374437692671 0.00204993652829
v 0.8533749939 -0.104159500213 0.00213906635609
v 0.733097457139 -0.104159500213 0.00258467588623
v 0.329787346819 -0.104159500213 0.0352944413912
v 0.411685376582 0.711039145939 0.000356489604552
v 0.329787346819 0.789402025107 0.00204993652829
v 0.56494320503 0.640134471882 0.00187169667712
v 0.640661420864 0.565245361372 0.00196081660271
v 0.711045546129 0.411789014748 0.000356489604552
v 0.785918113459 0.262010644014 0.000623918696803
v 0.852269145855 0.11233452661 0.00213906635609
v 0.855846889529 0.0374454160996 0.00204993652829
v 0.893315698136 0.0374454160996 0.00508024174909
v 0.893445797906 -0.0374437692671 0.00508024174909
v 0.890778752622 -0.104159500213 0.00552591069251
v 0.329787346819 -0.104159500213 0.910525327601
v 0.336682709483 0.789810664142 0.00213906635609
v 0.411685376582 0.767027185209 0.0028520455652
v 0.484801597017 0.711958602484 0.00231730620726
v 0.329787346819 0.793999532398 0.00222818628168
v 0.542370820084 0.687642596168 0.00329772441083
v 0.618609434998 0.617759781696 0.00311947465745
v 0.711891194634 0.484532601894 0.00240643603506
v 0.687432363024 0.542972699947 0.00329772441083
v 0.766923472187 0.411789014748 0.0028520455652
v 0.790016256213 0.336286833399 0.00222818628168
v 0.835226075989 0.262010644014 0.00320859458303
v 0.845243758277 0.187223711977 0.00249555596064
v 0.889672904577 0.11233452661 0.00579328037147
v 0.912895788373 0.11233452661 0.010784402195
v 0.916213332507 0.0374454160996 0.0100714130837
v 0.916538581932 -0.0374437692671 0.00998229315807
v 0.914261835957 -0.104159500213 0.010517032516
v 0.428208047368 -0.104159500213 0.910525327601
v 0.329787346819 0.30839495481 0.910525327601
v 0.329787346819 0.8002318204 0.00267379581181
v 0.329787346819 0.824036934352 0.00445637256335
v 0.458651468397 0.754256148641 0.00383245386655
v 0.508544805036 0.737602779237 0.00606065005044
v 0.59226423158 0.667719889909 0.00516936167467
v 0.668502846494 0.592830779398 0.00499111192129
v 0.753848445305 0.458377607633 0.00383245386655
v 0.817662532187 0.360909300278 0.00525854101354
v 0.827159815395 0.31094911721 0.00401070361993
v 0.882712566884 0.187223711977 0.00721930810518
v 0.906585949529 0.187223711977 0.0122104200265
v 0.936443846737 0.11233452661 0.0192514882805
v 0.942948910092 0.0374454160996 0.0192514882805
v 0.943729433855 -0.0374437692671 0.0192514882805
v 0.939241066647 -0.104159500213 0.0192514882805
v 0.441933647956 -0.0321310126652 0.910525327601
v 0.680016676136 -0.104159500213 0.876567843529
v 0.329787346819 0.585678959995 0.878974279564
v 0.357108373368 0.277335842982 0.910525327601
v 0.528645294353 0.454393021467 0.876211294511
v 0.504316562512 0.504353204536 0.873804858476
v 0.454423225873 0.528567032379 0.876211294511
v 0.411685376582 0.581796552303 0.873804858476
v 0.370183475106 0.596406651672 0.875498305399
v 0.336682709483 0.844777068394 0.00891275502892
v 0.361531765547 0.817396007313 0.00534766093912
v 0.329787346819 0.847637766213 0.00900188485672
v 0.417474816346 0.807383564947 0.00891275502892
v 0.484801597017 0.770603057482 0.00935837446127
v 0.563577157445 0.712673776939 0.00891275502892
v 0.534890083311 0.755993032969 0.0127452187977
v 0.613860793394 0.687744774641 0.0117648104963
v 0.641181819944 0.64095182481 0.00837796615992
v 0.687497487765 0.614183834567 0.0115865607429
v 0.712411593714 0.563610655516 0.00882363510334
v 0.737325774519 0.508235612229 0.00606065005044
v 0.770045941523 0.484532601894 0.00935837446127
v 0.80686425128 0.416795235931 0.00891275502892
v 0.834120227944 0.395135570487 0.0118539304219
v 0.844072860347 0.336286833399 0.00891275502892
v 0.87477640606 0.260682473578 0.00980398399141
v 0.901511983644 0.23483393988 0.013458207909
v 0.924019243849 0.187223711977 0.0192514882805
v 0.938655542827 0.187223711977 0.029144661513
v 0.950819871319 0.11233452661 0.029144661513
v 0.957129710162 0.0374454160996 0.029144661513
v 0.958040483408 -0.0374437692671 0.029144661513
v 0.953617091229 -0.104159500213 0.029144661513
v 0.443494845196 0.0341760043889 0.910525327601
v 0.684049769005 -0.0374437692671 0.877102582887
v 0.717485484743 -0.104159500213 0.871309292613
v 0.329787346819 0.621335579114 0.874874386703
v 0.386185746812 0.239942414391 0.910525327601
v 0.582116374666 0.411789014748 0.873804858476
v 0.606575206276 0.459194960561 0.866852910147
v 0.557397418372 0.481774082548 0.870328884312
v 0.536256205752 0.535923133872 0.867209469067
v 0.481679202538 0.557174085424 0.870328884312
v 0.459041767707 0.606214737092 0.866852910147
v 0.411685376582 0.622050753568 0.868813736652
v 0.371354373036 0.672215293583 0.865605132167
v 0.345854743266 0.64095182481 0.871398422441
v 0.329787346819 0.851417995432 0.00998229315807
v 0.396398578755 0.834049451574 0.0119430602497
v 0.446291915394 0.821891410987 0.0149734149816
v 0.548160259848 0.76529030088 0.0192514882805
v 0.585629068455 0.738317953691 0.0192514882805
v 0.627846593522 0.700822346628 0.0192514882805
v 0.665185302359 0.665472188072 0.0192514882805
v 0.700052115567 0.628078684625 0.0192514882805
v 0.737455874289 0.584248611086 0.0192514882805
v 0.756320340935 0.534288428017 0.0126560988721
v 0.821110176091 0.444993575083 0.0154190245117
v 0.842967012302 0.416795235931 0.0188949986759
v 0.882127117919 0.331791429725 0.0198754069773
v 0.893185598366 0.284794197804 0.016934172171
v 0.906650924558 0.260682473578 0.0198754069773
v 0.920051275721 0.262010644014 0.029144661513
v 0.929548558929 0.262010644014 0.03912690516
v 0.94776260158 0.187223711977 0.03912690516
v 0.960057104699 0.11233452661 0.03912690516
v 0.966562018341 0.0374454160996 0.03912690516
v 0.967537766616 -0.0374437692671 0.03912690516
v 0.961813376737 -0.104159500213 0.0379682471052
v 0.442909396231 0.0415321058819 0.910525327601
v 0.684960467395 0.0374454160996 0.877191702812
v 0.721453527727 -0.0374437692671 0.871844091384
v 0.751701799101 -0.104159500213 0.866318180692
v 0.329787346819 0.644527697083 0.87193321131
v 0.411685376582 0.187223711977 0.910525327601
v 0.610348099605 0.320961634432 0.877013453059
v 0.641311919714 0.346299275765 0.871487542366
v 0.596882773413 0.3709218175 0.875498305399
v 0.622252228557 0.411789014748 0.868902856578
v 0.659656062136 0.411789014748 0.863822614829
v 0.678910828091 0.456538544832 0.856781556477
v 0.633505933516 0.482795792422 0.860524890418
v 0.586149467535 0.509155068773 0.864268234261
v 0.561495561126 0.561465132152 0.86097050985
v 0.508935104346 0.585883316941 0.864179104433
v 0.482459726302 0.633289262754 0.860435770492
v 0.455984423113 0.678345328257 0.856692426649
v 0.411685376582 0.659444257015 0.863733494903
v 0.329787346819 0.669456699381 0.868724616727
v 0.411685376582 0.691320646914 0.858831443494
v 0.361726915202 0.742404643474 0.854820729972
v 0.341626500742 0.713389026249 0.861327058868
v 0.329787346819 0.696326868097 0.864803033032
v 0.329787346819 0.883090103242 0.0194297974471
v 0.332584491873 0.882477032404 0.0196080372983
v 0.417474816346 0.843244466156 0.0187167489225
v 0.458196119202 0.828634516499 0.02156880439
v 0.484476272736 0.805953141182 0.0187167489225
v 0.505357360672 0.81147025473 0.029144661513
v 0.595256526289 0.745776233657 0.0260251868555
v 0.672340789708 0.672419650529 0.025044768652
v 0.744936611062 0.594056696506 0.0268273454035
v 0.765817624142 0.546855107639 0.0192514882805
v 0.805953478034 0.484123888002 0.0188949986759
v 0.827940414015 0.457662433178 0.0220144733334
v 0.862351878028 0.411789014748 0.029144661513
v 0.889737954462 0.351101214858 0.029144661513
v 0.899560561951 0.303388733627 0.0235296209927
v 0.903138230769 0.313707711412 0.029144661513
v 0.908082096884 0.327704665087 0.03912690516
v 0.910619042398 0.335060841436 0.0490200783925
v 0.934427375159 0.262010644014 0.0490200783925
v 0.952511243184 0.187223711977 0.0490200783925
v 0.964935771216 0.11233452661 0.0490200783925
v 0.971830984169 0.0343803613348 0.0494656879226
v 0.972286483076 -0.0374437692671 0.0476831705843
v 0.962854174897 -0.104159500213 0.03912690516
v 0.973262156494 -0.0762676216233 0.0529416620868
v 0.432826589202 0.11233452661 0.910525327601
v 0.681252623951 0.11233452661 0.876746093282
v 0.722364300973 0.0374454160996 0.87193321131
v 0.755019343235 -0.0374437692671 0.866852910147
v 0.755799941855 0.0374454160996 0.867031159901
v 0.755409642545 -0.104159500213 0.865694261995
v 0.669803844193 0.210722365365 0.875230876307
v 0.66076191018 0.262010644014 0.874072228155
v 0.684700267855 0.321574630413 0.867476828844
v 0.672145640053 0.371534813482 0.865605132167
v 0.692050904858 0.411789014748 0.858920622833
v 0.73212178372 0.417101696494 0.85134476571
v 0.746562858187 0.445504467448 0.845640595362
v 0.694067451292 0.483510966877 0.850631776599
v 0.660436585899 0.5064987279 0.853662071917
v 0.610478199375 0.537046947363 0.857672844853
v 0.586800041241 0.586904951959 0.854196870688
v 0.536841579861 0.610301426874 0.857583655612
v 0.505877759752 0.660261684799 0.853751201745
v 0.483175275036 0.693977062643 0.850631776599
v 0.445966740825 0.746797943531 0.845640595362
v 0.417279666691 0.731677026653 0.851255635882
v 0.39607332933 0.75926244468 0.84822528115
v 0.329787346819 0.7665163677 0.852859913369
v 0.329787346819 0.729531503289 0.859544482117
v 0.329787346819 0.884213916732 0.0199645269029
v 0.329787346819 0.894737176607 0.0262925565345
v 0.352684981189 0.889833133897 0.029144661513
v 0.411685376582 0.8632695006 0.029144661513
v 0.46795360195 0.834253733663 0.029144661513
v 0.56676460181 0.770092239973 0.0293229112663
v 0.51420414503 0.81708954675 0.03912690516
v 0.601241115707 0.750475994277 0.0327097556028
v 0.63682347765 0.711549963448 0.028877291834
v 0.677609830391 0.677425871712 0.0316402174736
v 0.711240695784 0.63625206419 0.0292337814386
v 0.749490103011 0.600084627562 0.0334227348119
v 0.770175966436 0.565960535826 0.0297685207965
v 0.812263391734 0.505170557464 0.029144661513
v 0.833339554469 0.467674875544 0.029144661513
v 0.838608595152 0.47748303582 0.03912690516
v 0.872629759855 0.411789014748 0.03912690516
v 0.894811845491 0.365200421863 0.03912690516
v 0.89754394066 0.372454270027 0.0490200783925
v 0.898129464481 0.374088975882 0.0552589781963
v 0.908732520878 0.344255930874 0.0586458225327
v 0.935728298002 0.262010644014 0.0589131922117
v 0.953812166028 0.187223711977 0.0589131922117
v 0.966301743945 0.11233452661 0.0589131922117
v 0.972546682616 0.0538944285579 0.0589131922117
v 0.973197106609 0.00740801414576 0.053119901938
v 0.973327281235 -0.0374437692671 0.0525851724823
v 0.968513440034 -0.104159500213 0.0495548078482
v 0.973847605459 -0.0374437692671 0.0589131922117
v 0.973457306149 -0.0778001490057 0.0589131922117
v 0.969684487676 -0.104159500213 0.0589131922117
v 0.968578639632 -0.104159500213 0.0499113073549
v 0.676569032232 0.16086436077 0.876122164683
v 0.718656382673 0.11233452661 0.871398422441
v 0.752417347836 0.11233452661 0.866496420543
v 0.789105557823 -0.0374437692671 0.860881380022
v 0.790536655293 0.0374454160996 0.860881380022
v 0.782470469555 -0.104159500213 0.860881380022
v 0.709939698085 0.181604419956 0.870596313404
v 0.743310363938 0.202446732472 0.864981272883
v 0.696734571433 0.262010644014 0.869170226257
v 0.734203305184 0.262010644014 0.863466065811
v 0.75391349519 0.312073005556 0.856870676403
v 0.713712591414 0.341803872091 0.861237938942
v 0.742789964858 0.361931010152 0.854909849898
v 0.760028184379 0.395748641325 0.848314460489
v 0.679431227171 0.531529908671 0.847066623096
v 0.823777221376 0.375212864229 0.836282220901
v 0.760483533574 0.468492228472 0.838956086028
v 0.744741461407 0.51845241154 0.835123562846
v 0.73355288119 0.490662711424 0.841808141495
v 0.634546731676 0.559217430315 0.850631776599
v 0.608656802596 0.608258081983 0.847512301941
v 0.559153765266 0.634208794155 0.850631776599
v 0.531507489292 0.679571395076 0.847155802434
v 0.490460937011 0.733516014598 0.841808141495
v 0.468148751605 0.760692793589 0.839045205954
v 0.417279666691 0.776937523958 0.841808141495
v 0.336812734397 0.771216053464 0.851255635882
v 0.373045670045 0.822810942388 0.836014851222
v 0.343577997291 0.812491964603 0.841540771816
v 0.329787346819 0.814330952548 0.842432060192
v 0.329787346819 0.898517405826 0.029144661513
v 0.365890107841 0.894941533553 0.03912690516
v 0.411685376582 0.873588403528 0.03912690516
v 0.476800461164 0.839464311792 0.03912690516
v 0.561430511241 0.784906546576 0.03912690516
v 0.518822686864 0.820052348186 0.0490200783925
v 0.605209158692 0.753745331132 0.03912690516
v 0.642677967299 0.71941688245 0.03912690516
v 0.682358471995 0.682023379003 0.03912690516
v 0.719762230717 0.641258360229 0.03912690516
v 0.752352297951 0.603762678309 0.03912690516
v 0.784487015989 0.561362953679 0.03912690516
v 0.818052831497 0.514876539267 0.03912690516
v 0.821045126206 0.519984938923 0.0490200783925
v 0.841340765178 0.482591435476 0.0490200783925
v 0.878093950194 0.411789014748 0.0490200783925
v 0.883167916079 0.404432913255 0.0586458225327
v 0.89832453928 0.374599793391 0.0618544270179
v 0.911789940328 0.336899829381 0.0688063654442
v 0.912570464092 0.336899829381 0.0885925930826
v 0.917449205466 0.336899829381 0.217292568942
v 0.927922311804 0.336899829381 0.494478728495
v 0.929418459159 0.336899829381 0.534140412621
v 0.936508896622 0.336899829381 0.722288310148
v 0.959016231683 0.262010644014 0.702412913073
v 0.972351458105 0.220734807731 0.771753988169
v 0.973457306149 0.151771374948 0.435209016972
v 0.972936832213 0.148706320183 0.405440466469
v 0.966757167996 0.11233452661 0.0688063654442
v 0.973132056724 0.0753497370552 0.0912664582099
v 0.97300203181 0.073408495781 0.0846710093882
v 0.972936832213 0.0694239844716 0.0786994792634
v 0.972806807299 0.0626808789603 0.0688063654442
v 0.97339233112 0.0163987466381 0.0589131922117
v 0.974498179165 -0.0374437692671 0.0786994792634
v 0.97365253066 -0.0790262158252 0.0688063654442
v 0.970074786986 -0.104159500213 0.0688063654442
v 0.96981451259 -0.104159500213 0.0619435469435
v 0.97560402721 -0.0374437692671 0.118272053367
v 0.976709875255 -0.0374437692671 0.157933697885
v 0.985816859152 -0.0374437692671 0.484585584969
v 0.99381792015 -0.0374437692671 0.771753988169
v 0.749099803701 0.152588727876 0.865961681185
v 0.783901567024 0.11233452661 0.860881380022
v 0.819939278162 -0.0374437692671 0.855266349404
v 0.820654826897 0.0374454160996 0.855355528743
v 0.817467382532 0.11233452661 0.854731610046
v 0.785853063574 -0.104159500213 0.860257520739
v 0.768875043593 0.181400137866 0.861327058868
v 0.810897344149 0.187223711977 0.853394702238
v 0.763150578858 0.262010644014 0.858474943987
v 0.803091357951 0.263645424726 0.850631776599
v 0.819939278162 0.289596062041 0.845194985832
v 0.771542088877 0.336899829381 0.85134476571
v 0.810702194494 0.336899829381 0.842966789648
v 0.691140206468 0.558400077387 0.840382113762
v 0.675853483497 0.601208515909 0.836638769918
v 0.658550214091 0.581387838411 0.843234159327
v 0.830867658839 0.336899829381 0.838064797652
v 0.85415559252 0.336899829381 0.831201979152
v 0.884013489727 0.336389011872 0.821219745407
v 0.831973506884 0.391253237651 0.831201979152
v 0.821565525286 0.445913106484 0.825676068459
v 0.812328441618 0.428646741098 0.831201979152
v 0.774729533241 0.490662711424 0.831558468756
v 0.756970839785 0.535310063035 0.828528173438
v 0.726397393842 0.560647779224 0.831558468756
v 0.629472765791 0.62971339048 0.83984731499
v 0.581400825931 0.658116086579 0.843055919476
v 0.600395467203 0.675075916546 0.836460470654
v 0.558438141676 0.690503368843 0.840292983934
v 0.518042088244 0.744345884748 0.83503444292
v 0.490460937011 0.774485465175 0.831469348831
v 0.445771516314 0.821584875569 0.825676068459
v 0.417149566921 0.814330952548 0.832093267527
v 0.395878179675 0.833845094628 0.829330282474
v 0.343577997291 0.847024770231 0.832093267527
v 0.329787346819 0.837420966901 0.836460470654
v 0.329787346819 0.826080279243 0.839579945311
v 0.329787346819 0.901378103645 0.0319967169804
v 0.329787346819 0.908529848192 0.03939432435
v 0.37278539565 0.897597949282 0.0490200783925
v 0.329787346819 0.908325491246 0.03912690516
v 0.411685376582 0.87890116013 0.0490200783925
v 0.481418928142 0.842120727521 0.0490200783925
v 0.561430511241 0.790832374016 0.0490200783925
v 0.520058709535 0.82086977597 0.0589131922117
v 0.608786902366 0.756708207424 0.0490200783925
v 0.646190661088 0.722788397778 0.0490200783925
v 0.685806115899 0.685292790714 0.0490200783925
v 0.723209874622 0.645140693065 0.0490200783925
v 0.755409642545 0.607747264474 0.0490200783925
v 0.790536655293 0.561362953679 0.0490200783925
v 0.821890774711 0.521415287832 0.0589131922117
v 0.842056313912 0.484021784385 0.0589131922117
v 0.87978532206 0.412299832257 0.0688063654442
v 0.89845463905 0.37490632881 0.0688063654442
v 0.937939994092 0.336899829381 0.761860874349
v 0.894681745721 0.441724238229 0.771753988169
v 0.959731855274 0.262010644014 0.722288310148
v 0.961097753146 0.262010644014 0.761860874349
v 0.961423077427 0.262010644014 0.771753988169
v 0.961292977657 0.262010644014 0.781647161401
v 0.972221433191 0.220223990222 0.781647161401
v 0.978986546373 0.182830486776 0.781647161401
v 0.979116646143 0.183239125811 0.771753988169
v 0.978791396718 0.181400137866 0.75196776053
v 0.977620498788 0.174963567774 0.682626635924
v 0.974953453504 0.160149186315 0.524247269096
v 0.973262156494 0.0760649115099 0.0984857663151
v 0.989329478086 0.11233452661 0.771753988169
v 0.994338394085 0.0374454160996 0.771753988169
v 0.975148528303 0.0374454160996 0.128165177088
v 0.973782555574 0.0319283025518 0.0786994792634
v 0.973587405919 0.0251851970405 0.0688063654442
v 0.986662507657 0.0374454160996 0.514265005644
v 0.973782555574 -0.0800478508428 0.0786994792634
v 0.97046501144 -0.104159500213 0.0823536932787
v 0.988028555242 -0.104159500213 0.770684509453
v 0.994143169574 0.0374454160996 0.781647161401
v 0.993557795466 -0.0374437692671 0.781647161401
v 0.987833330731 -0.104159500213 0.781647161401
v 0.988028555242 -0.104159500213 0.771753988169
v 0.816751833797 -0.104159500213 0.854553360293
v 0.819223729427 -0.104159500213 0.854018561522
v 0.839714443197 -0.104159500213 0.849562248372
v 0.842836912532 -0.0374437692671 0.850275227581
v 0.843422286641 0.0374454160996 0.850453477334
v 0.840430066788 0.11233452661 0.849740488223
v 0.834445402513 0.187223711977 0.848492710243
v 0.828460813095 0.239738057446 0.847155802434
v 0.842706812762 0.263645424726 0.841540771816
v 0.738171423024 0.585168142486 0.823002262745
v 0.686261465094 0.612753485657 0.831201979152
v 0.664469753624 0.66485919209 0.823804421293
v 0.649313130423 0.650146989104 0.831201979152
v 0.881606718839 0.259967299123 0.830756369621
v 0.893250648251 0.283568130985 0.824428280576
v 0.902227532379 0.311051295683 0.817832891168
v 0.893380748021 0.360909300278 0.814267797078
v 0.846804955516 0.41730605344 0.821932724616
v 0.831257958149 0.463792542708 0.819080669148
v 0.808815747829 0.487802013605 0.821932724616
v 0.817337282762 0.51375265092 0.814089497814
v 0.765167200149 0.560647779224 0.820328457031
v 0.61184424696 0.68570142975 0.831201979152
v 0.585238769145 0.738113671601 0.823180502596
v 0.560780012391 0.725649170452 0.831469348831
v 0.535345432506 0.756401672005 0.828439053512
v 0.487468642301 0.807996560929 0.821932724616
v 0.463074860576 0.831188678899 0.819080669148
v 0.417149566921 0.846207417304 0.821932724616
v 0.360035618193 0.893102545608 0.814178677153
v 0.335772011093 0.883294460188 0.821130556166
v 0.329787346819 0.852541808923 0.831825897848
v 0.329787346819 0.884316095205 0.821487115086
v 0.329787346819 0.909347275976 0.0409986018371
v 0.335316661898 0.911390620867 0.0490200783925
v 0.374216567975 0.898210870407 0.0541894400671
v 0.404464764493 0.88380520284 0.0581110237615
v 0.482654875957 0.84283582712 0.0589131922117
v 0.561430511241 0.792364826542 0.0589131922117
v 0.520448933989 0.821176236533 0.0688063654442
v 0.561430511241 0.79297789738 0.0688063654442
v 0.60976265064 0.757423456735 0.0589131922117
v 0.647166409363 0.723605825561 0.0589131922117
v 0.686781864174 0.686212322114 0.0589131922117
v 0.724185697752 0.646264581412 0.0589131922117
v 0.75625529105 0.608768974348 0.0589131922117
v 0.792162902417 0.561362953679 0.0589131922117
v 0.822150974251 0.521926105341 0.0688063654442
v 0.842316438596 0.484430423421 0.0688063654442
v 0.842771862647 0.485247776349 0.0885925930826
v 0.898845013216 0.375723681737 0.0885925930826
v 0.911789940328 0.404432913255 0.771753988169
v 0.938265243517 0.336899829381 0.771753988169
v 0.871068562616 0.486473843168 0.771753988169
v 0.894616695836 0.441622059756 0.781647161401
v 0.938200193632 0.336899829381 0.781647161401
v 0.958495832603 0.262010644014 0.79154027522
v 0.970790335721 0.212663531784 0.79154027522
v 0.977620498788 0.175270028337 0.79154027522
v 0.989134403287 0.11233452661 0.781647161401
v 0.974563154194 -0.0856670680075 0.138147470246
v 0.97300203181 -0.104159500213 0.177719984936
v 0.977100174564 -0.104159500213 0.333425536148
v 0.991411149261 0.0374454160996 0.79154027522
v 0.99082562544 -0.0374437692671 0.79154027522
v 0.985361509958 -0.104159500213 0.790470746993
v 0.844463159657 -0.104159500213 0.848492710243
v 0.883753365044 -0.0418369944683 0.840292983934
v 0.880826120219 0.0374454160996 0.841362522063
v 0.89858473882 0.0780060779281 0.836282220901
v 0.880175621369 0.106715309445 0.840114744083
v 0.864108224922 0.187223711977 0.841095092971
v 0.890518553082 0.187223711977 0.833608415187
v 0.748839604162 0.599165096162 0.816406813923
v 0.707467802455 0.632063195934 0.820061087352
v 0.676764181887 0.676608518784 0.817208972471
v 0.632269985701 0.707361095193 0.820150207278
v 0.90092653468 0.233607947916 0.827102145704
v 0.909057770303 0.259967299123 0.821219745407
v 0.932085504443 0.262010644014 0.8114156921
v 0.909122895044 0.336389011872 0.811148322421
v 0.90092653468 0.380423367501 0.807672348257
v 0.879590097549 0.407906607055 0.811148322421
v 0.839064019203 0.487802013605 0.810970072667
v 0.82579376781 0.527647500979 0.807494108405
v 0.795415471523 0.556050197077 0.810970072667
v 0.599940118008 0.749352105931 0.816585113188
v 0.560780012391 0.764677379755 0.820417576957
v 0.512968197215 0.816578654386 0.813733008209
v 0.487468642301 0.838442601919 0.810791832816
v 0.407587158972 0.879207695549 0.811059202495
v 0.379875907969 0.900867360992 0.807583228331
v 0.335772011093 0.908427669719 0.811059202495
v 0.329787346819 0.906895142337 0.812574350155
v 0.329787346819 0.88758543206 0.820328457031
v 0.329787346819 0.913229683668 0.0490200783925
v 0.329787346819 0.913331862141 0.0497330576016
v 0.329787346819 0.914251318686 0.0582002031003
v 0.344293546026 0.909347275976 0.0581110237615
v 0.374606867285 0.898415227353 0.0607848888888
v 0.412465975202 0.880433687513 0.0688063654442
v 0.483045250122 0.843040184066 0.0688063654442
v 0.520839308154 0.821380593479 0.0786994792634
v 0.610087900065 0.757729917297 0.0688063654442
v 0.522595655049 0.822504406969 0.128165177088
v 0.524937450909 0.824036934352 0.19750628189
v 0.580555177426 0.810857258748 0.761860874349
v 0.647491658787 0.723912286124 0.0688063654442
v 0.687107113599 0.686518782677 0.0688063654442
v 0.724510872321 0.646571116831 0.0688063654442
v 0.75651549059 0.609177613384 0.0688063654442
v 0.792748351382 0.561362953679 0.0688063654442
v 0.823256897152 0.523765168142 0.115687318067
v 0.911659765702 0.404228556309 0.781647161401
v 0.837177497683 0.544505227329 0.771753988169
v 0.837112522654 0.544403048856 0.781647161401
v 0.870873412961 0.486473843168 0.781647161401
v 0.823517021836 0.524173807178 0.128165177088
v 0.824167520686 0.525093338579 0.157933697885
v 0.867816068366 0.486473843168 0.79154027522
v 0.893055498596 0.438454826518 0.79154027522
v 0.910293792973 0.401061397927 0.79154027522
v 0.935337998692 0.336899829381 0.79154027522
v 0.949388773849 0.262010644014 0.801433448453
v 0.966496968456 0.187223711977 0.801522578281
v 0.975343752814 0.162294709679 0.798313973795
v 0.986402233261 0.11233452661 0.79154027522
v 0.97664482537 -0.104159500213 0.31586744528
v 0.974237904769 -0.104159500213 0.224511877047
v 0.977945748213 0.109576007264 0.801522578281
v 0.982759439702 0.0374454160996 0.801433448453
v 0.985036260533 -0.104159500213 0.79154027522
v 0.982174065593 -0.0374437692671 0.801433448453
v 0.977490399018 -0.104159500213 0.80072040983
v 0.874906580686 -0.104159500213 0.841005973045
v 0.89793423997 -0.0698310515309 0.836014851222
v 0.899170187785 -0.0198708684622 0.836371340826
v 0.899235312526 0.0374454160996 0.836460470654
v 0.915107484462 0.0374454160996 0.831201979152
v 0.942493560897 0.0374454160996 0.821308865332
v 0.937159395472 0.11233452661 0.821308865332
v 0.908927670533 0.106715309445 0.831647598584
v 0.895267194686 0.127966260997 0.835212692674
v 0.905610126398 0.187223711977 0.828706423191
v 0.755539742315 0.607849368091 0.8114156921
v 0.723274999363 0.645345050011 0.8114156921
v 0.685871165784 0.685394969187 0.8114156921
v 0.645800361778 0.722788397778 0.8114156921
v 0.925970815255 0.187223711977 0.821308865332
v 0.949518948475 0.187223711977 0.8114156921
v 0.926100915025 0.336899829381 0.801433448453
v 0.905675176283 0.390946702232 0.801433448453
v 0.888111707338 0.428238027206 0.801433448453
v 0.857928485849 0.486473843168 0.801433448453
v 0.830607534155 0.534799245526 0.801433448453
v 0.803481657261 0.572192823829 0.801433448453
v 0.766077898538 0.62153993606 0.801433448453
v 0.608396603056 0.756197389915 0.8114156921
v 0.555510896851 0.79553205978 0.810791832816
v 0.526563623177 0.825160822698 0.807137608899
v 0.329787346819 0.925694184817 0.802413866656
v 0.427362398864 0.887483253587 0.801433448453
v 0.389893590256 0.905567046756 0.801433448453
v 0.336877859138 0.925183292453 0.801433448453
v 0.329787346819 0.910266732521 0.811059202495
v 0.329787346819 0.914966493141 0.0696975944066
v 0.336877859138 0.912616612831 0.0688063654442
v 0.377403937483 0.89974339779 0.128165177088
v 0.37623311441 0.899130476664 0.0984857663151
v 0.336877859138 0.913331862141 0.0885925930826
v 0.336877859138 0.919359643486 0.256954243167
v 0.336877859138 0.923242051178 0.36586791217
v 0.336877859138 0.928146093888 0.504371862118
v 0.414807771062 0.881659679476 0.128165177088
v 0.483760724001 0.843448823102 0.0885925930826
v 0.486557869056 0.869808174309 0.771753988169
v 0.61119374811 0.758649373842 0.108378880134
v 0.666941649254 0.742200286528 0.761860874349
v 0.648077107752 0.724525282106 0.0885925930826
v 0.528775394123 0.826693275224 0.316313074615
v 0.532938586762 0.829554047899 0.445102150596
v 0.53996397434 0.834355912136 0.662840348872
v 0.542826169279 0.836297078555 0.75196776053
v 0.543476668129 0.836705792446 0.771753988169
v 0.580880501707 0.810959437221 0.771753988169
v 0.629537890532 0.773463830157 0.761860874349
v 0.725356520826 0.647490648231 0.0984857663151
v 0.687367313139 0.686825318096 0.0786994792634
v 0.743245314053 0.667719889909 0.75196776053
v 0.739732620264 0.6637353786 0.623267794573
v 0.736480051158 0.660057327853 0.504371862118
v 0.75677569013 0.609484148803 0.0786994792634
v 0.809856471133 0.580672738812 0.732181453674
v 0.810767169523 0.581898730776 0.771753988169
v 0.810702194494 0.581796552303 0.781647161401
v 0.835551250558 0.542155421875 0.79154027522
v 0.971050460405 0.132665946761 0.804909422617
v 0.973912655344 0.0828079421652 0.806870189709
v 0.97482342859 0.0374454160996 0.807226738727
v 0.974498179165 -0.0374437692671 0.807137608899
v 0.973522356034 -0.0784131449874 0.806691939955
v 0.976579700629 -0.104159500213 0.801611698206
v 0.878419274475 -0.104159500213 0.840114744083
v 0.895722543881 -0.104159500213 0.835390991938
v 0.910358768002 -0.104159500213 0.830488940529
v 0.941778012162 -0.0374437692671 0.821308865332
v 0.911139366622 -0.0418369944683 0.832093267527
v 0.964090047856 0.0374454160996 0.81221786055
v 0.962594050213 0.109576007264 0.81061352365
v 0.735439327855 0.658933439507 0.801433448453
v 0.698035569133 0.697042117408 0.801433448453
v 0.658420039465 0.734435620855 0.801433448453
v 0.809010897484 0.579548850466 0.79154027522
v 0.771607138762 0.628589502134 0.79154027522
v 0.741749166698 0.666085184054 0.79154027522
v 0.621016280743 0.766414189227 0.801433448453
v 0.570862744564 0.803807692674 0.801433448453
v 0.533393935957 0.829758329989 0.801433448453
v 0.486557869056 0.856526395088 0.801433448453
v 0.329787346819 0.927328815817 0.801433448453
v 0.486557869056 0.866538837454 0.79154027522
v 0.437249981381 0.892285267536 0.79154027522
v 0.399846222659 0.910266732521 0.79154027522
v 0.336877859138 0.934378456747 0.79154027522
v 0.329787346819 0.936626008872 0.79154027522
v 0.329787346819 0.935706552327 0.792520693424
v 0.329787346819 0.915681592739 0.0895730013839
v 0.382933252563 0.902399813519 0.266847386692
v 0.417995215426 0.883192281715 0.207399395709
v 0.336877859138 0.934991377873 0.702412913073
v 0.329787346819 0.917418477068 0.138147470246
v 0.329787346819 0.923037769088 0.296526807368
v 0.329787346819 0.930393870581 0.504371862118
v 0.44050247563 0.893919898535 0.771753988169
v 0.486557869056 0.869705995836 0.781647161401
v 0.667071674168 0.742404643474 0.771753988169
v 0.706361954411 0.705011214883 0.771753988169
v 0.701222938641 0.700107097317 0.583606110446
v 0.698230718787 0.697246474354 0.474692441443
v 0.543346568359 0.836603613973 0.781647161401
v 0.629733040187 0.77356600863 0.771753988169
v 0.580750327081 0.810857258748 0.781647161401
v 0.743765713133 0.668332885891 0.771753988169
v 0.757491238864 0.610403605347 0.108378880134
v 0.771476964136 0.628487323661 0.692519769547
v 0.773363485657 0.630939382444 0.771753988169
v 0.764841875868 0.619905230204 0.415333600092
v 0.773298435772 0.630837203971 0.781647161401
v 0.963764798431 -0.0374437692671 0.812039610797
v 0.962398825702 -0.104159500213 0.81016791412
v 0.971700959255 -0.104159500213 0.805355042049
v 0.935858472628 -0.104159500213 0.821308865332
v 0.70434533312 0.703070048465 0.79154027522
v 0.664925102819 0.740463477055 0.79154027522
v 0.743700663248 0.668230707418 0.781647161401
v 0.627586393982 0.771726945829 0.79154027522
v 0.578408531222 0.809222552893 0.79154027522
v 0.5410047725 0.834968908118 0.79154027522
v 0.440372375861 0.893817720062 0.781647161401
v 0.402903567253 0.911697156286 0.781647161401
v 0.336877859138 0.93723907971 0.781647161401
v 0.329787346819 0.93938467793 0.781647161401
v 0.388072193477 0.904851797446 0.395547332845
v 0.336877859138 0.937034722764 0.761860874349
v 0.329787346819 0.931109045036 0.525138537667
v 0.329787346819 0.939282499457 0.762752162725
v 0.392430535771 0.906895142337 0.504371862118
v 0.396398578755 0.908734205138 0.603392387596
v 0.401927818979 0.911288442394 0.7420745972
v 0.403098791764 0.911799334759 0.771753988169
v 0.666941649254 0.742302465001 0.781647161401
v 0.706231854641 0.70490903641 0.781647161401
v 0.629602940417 0.773361651684 0.781647161401
v 0.336877859138 0.937341258183 0.771753988169
v 0.329787346819 0.93958896002 0.771753988169
f 1 2 3
f 1 3 4
f 1 4 5
f 1 5 6
f 1 6 7
f 1 7 8
f 1 8 21
f 1 21 39
f 1 39 56
f 1 56 89
f 1 89 125
f 1 125 173
f 1 173 227
f 1 227 231
f 1 231 230
f 1 230 299
f 1 299 298
f 1 298 379
f 1 379 446
f 1 446 513
f 1 513 512
f 1 512 447
f 1 447 380
f 1 380 384
f 1 384 383
f 1 383 450
f 1 450 516
f 1 516 518
f 1 518 586
f 1 586 635
f 1 635 634
f 1 634 636
f 1 636 589
f 1 589 588
f 1 588 587
f 1 587 519
f 1 519 451
f 1 451 387
f 1 387 386
f 1 386 385
f 1 385 309
f 1 309 237
f 1 237 180
f 1 180 129
f 1 129 92
f 1 92 58
f 1 58 40
f 1 40 22
f 1 22 10
f 1 10 9
f 1 9 2
f 2 9 10
f 2 10 22
f 2 22 41
f 2 41 59
f 2 59 93
f 2 93 130
f 2 130 145
f 2 145 149
f 2 149 199
f 2 199 198
f 2 198 261
f 2 261 340
f 2 340 339
f 2 339 416
f 2 416 417
f 2 417 479
f 2 479 478
f 2 478 549
f 2 549 545
f 2 545 604
f 2 604 610
f 2 610 609
f 2 609 646
f 2 646 659
f 2 659 650
f 2 650 649
f 2 649 617
f 2 617 616
f 2 616 615
f 2 615 611
f 2 611 550
f 2 550 482
f 2 482 481
f 2 481 480
f 2 480 418
f 2 418 342
f 2 342 344
f 2 344 341
f 2 341 262
f 2 262 201
f 2 201 200
f 2 200 150
f 2 150 104
f 2 104 68
f 2 68 43
f 2 43 42
f 2 42 26
f 2 26 12
f 2 12 3
f 3 11 4
f 3 12 11
f 4 11 13
f 4 13 5
f 5 13 14
f 5 14 15
f 5 15 6
f 6 15 16
f 6 16 17
f 6 17 18
f 6 18 7
f 7 18 19
f 7 19 20
f 7 20 8
f 8 20 21
f 11 12 23
f 11 23 24
f 11 24 25
f 11 25 13
f 12 26 23
f 13 25 27
f 13 27 28
f 13 28 14
f 14 29 15
f 14 28 30
f 14 30 29
f 15 29 31
f 15 31 32
f 15 32 16
f 16 32 33
f 16 33 34
f 16 34 17
f 17 34 19
f 17 19 18
f 19 34 35
f 19 35 36
f 19 36 37
f 19 37 38
f 19 38 20
f 20 38 21
f 21 38 39
f 22 40 57
f 22 57 90
f 22 90 126
f 22 126 175
f 22 175 131
f 22 131 94
f 22 94 60
f 22 60 41
f 23 26 42
f 23 42 24
f 24 42 43
f 24 43 44
f 24 44 25
f 25 44 27
f 27 44 45
f 27 45 46
f 27 46 28
f 28 46 47
f 28 47 30
f 29 30 48
f 29 48 31
f 30 47 48
f 31 48 49
f 31 49 50
f 31 50 32
f 32 50 33
f 33 50 51
f 33 51 35
f 33 35 34
f 35 51 52
f 35 52 36
f 36 52 53
f 36 53 54
f 36 54 37
f 37 54 55
f 37 55 38
f 38 55 39
f 39 55 56
f 40 58 57
f 41 60 61
f 41 61 62
f 41 62 63
f 41 63 64
f 41 64 65
f 41 65 59
f 43 66 67
f 43 67 44
f 43 68 66
f 44 67 69
f 44 69 70
f 44 70 45
f 45 71 46
f 45 70 72
f 45 72 71
f 46 71 73
f 46 73 74
f 46 74 47
f 47 74 75
f 47 75 76
f 47 76 77
f 47 77 48
f 48 77 78
f 48 78 79
f 48 79 49
f 49 79 80
f 49 80 81
f 49 81 82
f 49 82 50
f 50 82 51
f 51 82 83
f 51 83 52
f 52 83 84
f 52 84 53
f 53 84 85
f 53 85 86
f 53 86 54
f 54 86 87
f 54 87 88
f 54 88 55
f 55 88 89
f 55 89 56
f 57 58 91
f 57 91 90
f 58 92 91
f 59 65 93
f 60 94 61
f 61 95 96
f 61 96 97
f 61 97 98
f 61 98 62
f 61 94 95
f 62 98 63
f 63 98 99
f 63 99 100
f 63 100 64
f 64 100 65
f 65 100 101
f 65 101 102
f 65 102 103
f 65 103 93
f 66 68 104
f 66 104 105
f 66 105 67
f 67 105 69
f 69 105 106
f 69 106 70
f 70 106 72
f 71 72 73
f 72 106 107
f 72 107 108
f 72 108 73
f 73 108 109
f 73 109 110
f 73 110 75
f 73 75 74
f 75 110 111
f 75 111 112
f 75 112 113
f 75 113 76
f 76 113 77
f 77 113 78
f 78 113 80
f 78 80 79
f 80 113 114
f 80 114 115
f 80 115 116
f 80 116 117
f 80 117 83
f 80 83 81
f 81 83 82
f 83 117 118
f 83 118 84
f 84 118 119
f 84 119 85
f 85 119 120
f 85 120 121
f 85 121 122
f 85 122 86
f 86 122 123
f 86 123 87
f 87 123 124
f 87 124 88
f 88 124 89
f 89 124 125
f 90 91 127
f 90 127 126
f 91 92 128
f 91 128 177
f 91 177 127
f 92 129 128
f 93 103 130
f 94 131 132
f 94 132 133
f 94 133 134
f 94 134 95
f 95 134 96
f 96 134 135
f 96 135 136
f 96 136 137
f 96 137 138
f 96 138 139
f 96 139 97
f 97 139 98
f 98 139 140
f 98 140 141
f 98 141 99
f 99 141 100
f 100 102 101
f 100 141 142
f 100 142 143
f 100 143 144
f 100 144 102
f 102 145 103
f 102 144 143
f 102 143 146
f 102 146 147
f 102 147 148
f 102 148 149
f 102 149 145
f 103 145 130
f 104 150 105
f 105 150 151
f 105 151 106
f 106 151 152
f 106 152 153
f 106 153 154
f 106 154 107
f 107 154 153
f 107 153 155
f 107 155 156
f 107 156 108
f 108 156 109
f 109 156 157
f 109 157 110
f 110 157 111
f 111 157 158
f 111 158 112
f 112 159 113
f 112 158 159
f 113 159 160
f 113 160 114
f 114 160 161
f 114 161 115
f 115 161 162
f 115 162 163
f 115 163 116
f 116 164 117
f 116 163 164
f 117 164 118
f 118 164 119
f 119 165 166
f 119 166 120
f 119 164 165
f 120 166 167
f 120 167 168
f 120 168 121
f 121 168 169
f 121 169 170
f 121 170 122
f 122 170 123
f 123 170 171
f 123 171 172
f 123 172 124
f 124 173 125
f 124 172 174
f 124 174 173
f 126 127 176
f 126 176 175
f 127 177 176
f 128 129 178
f 128 178 179
f 128 179 177
f 129 180 178
f 131 175 181
f 131 181 182
f 131 182 183
f 131 183 132
f 132 183 133
f 133 183 184
f 133 184 134
f 134 184 135
f 135 184 136
f 136 184 185
f 136 185 137
f 137 186 187
f 137 187 188
f 137 188 189
f 137 189 190
f 137 190 138
f 137 185 186
f 138 190 139
f 139 190 140
f 140 190 191
f 140 191 192
f 140 192 141
f 141 192 142
f 142 192 193
f 142 193 143
f 143 193 194
f 143 194 195
f 143 195 196
f 143 196 146
f 146 196 147
f 147 196 195
f 147 195 197
f 147 197 198
f 147 198 199
f 147 199 148
f 148 199 149
f 150 200 151
f 151 200 201
f 151 201 202
f 151 202 152
f 152 202 203
f 152 203 153
f 153 203 204
f 153 204 155
f 155 205 156
f 155 204 206
f 155 206 205
f 156 205 207
f 156 207 208
f 156 208 157
f 157 208 209
f 157 209 210
f 157 210 158
f 158 210 211
f 158 211 212
f 158 212 159
f 159 212 213
f 159 213 160
f 160 213 161
f 161 213 214
f 161 214 162
f 162 214 215
f 162 215 216
f 162 216 217
f 162 217 163
f 163 217 165
f 163 165 164
f 165 217 166
f 166 217 218
f 166 218 167
f 167 218 219
f 167 219 220
f 167 220 221
f 167 221 168
f 168 221 222
f 168 222 169
f 169 222 223
f 169 223 170
f 170 223 224
f 170 224 171
f 171 224 225
f 171 225 172
f 172 225 226
f 172 226 174
f 173 174 227
f 174 226 228
f 174 228 229
f 174 229 230
f 174 230 231
f 174 231 227
f 175 176 232
f 175 232 181
f 176 177 233
f 176 233 232
f 177 179 234
f 177 234 233
f 178 180 235
f 178 235 179
f 179 235 236
f 179 236 234
f 180 237 235
f 181 232 238
f 181 238 239
f 181 239 240
f 181 240 182
f 182 240 183
f 183 240 241
f 183 241 242
f 183 242 243
f 183 243 184
f 184 243 244
f 184 244 185
f 185 244 186
f 186 244 245
f 186 245 187
f 187 246 188
f 187 245 247
f 187 247 248
f 187 248 249
f 187 249 250
f 187 250 246
f 188 246 189
f 189 246 190
f 190 246 251
f 190 251 191
f 191 251 252
f 191 252 253
f 191 253 192
f 192 253 254
f 192 254 193
f 193 254 194
f 194 254 195
f 195 254 255
f 195 255 256
f 195 256 257
f 195 257 197
f 197 258 198
f 197 257 259
f 197 259 260
f 197 260 258
f 198 258 261
f 201 262 202
f 202 262 263
f 202 263 203
f 203 263 264
f 203 264 204
f 204 264 265
f 204 265 206
f 205 206 207
f 206 266 207
f 206 265 267
f 206 267 266
f 207 209 208
f 207 266 268
f 207 268 269
f 207 269 209
f 209 269 270
f 209 270 271
f 209 271 211
f 209 211 210
f 211 271 272
f 211 272 273
f 211 273 212
f 212 273 274
f 212 274 213
f 213 274 214
f 214 274 215
f 215 274 275
f 215 275 276
f 215 276 277
f 215 277 216
f 216 277 218
f 216 218 217
f 218 277 219
f 219 278 279
f 219 279 220
f 219 277 278
f 220 279 280
f 220 280 221
f 221 280 281
f 221 281 282
f 221 282 283
f 221 283 284
f 221 284 285
f 221 285 286
f 221 286 287
f 221 287 222
f 222 288 289
f 222 289 290
f 222 290 223
f 222 287 288
f 223 290 291
f 223 291 292
f 223 292 293
f 223 293 294
f 223 294 224
f 224 294 295
f 224 295 225
f 225 295 228
f 225 228 226
f 228 295 296
f 228 296 229
f 229 297 298
f 229 298 299
f 229 299 230
f 229 296 300
f 229 300 301
f 229 301 302
f 229 302 303
f 229 303 297
f 232 233 304
f 232 304 238
f 233 234 304
f 234 236 305
f 234 305 304
f 235 237 306
f 235 306 236
f 236 306 307
f 236 307 308
f 236 308 305
f 237 309 306
f 238 304 239
f 239 304 310
f 239 310 311
f 239 311 312
f 239 312 241
f 239 241 240
f 241 312 242
f 242 313 314
f 242 314 315
f 242 315 244
f 242 244 243
f 242 312 313
f 244 315 245
f 245 315 316
f 245 316 247
f 246 250 249
f 246 249 317
f 246 317 318
f 246 318 319
f 246 319 251
f 247 316 314
f 247 314 320
f 247 320 321
f 247 321 322
f 247 322 323
f 247 323 324
f 247 324 325
f 247 325 248
f 248 325 326
f 248 326 249
f 249 326 327
f 249 327 328
f 249 328 318
f 249 318 317
f 251 319 252
f 252 319 318
f 252 318 329
f 252 329 330
f 252 330 254
f 252 254 253
f 254 330 331
f 254 331 332
f 254 332 333
f 254 333 255
f 255 333 256
f 256 333 334
f 256 334 335
f 256 335 336
f 256 336 259
f 256 259 257
f 258 260 261
f 259 336 337
f 259 337 338
f 259 338 339
f 259 339 340
f 259 340 260
f 260 340 261
f 262 341 263
f 263 342 343
f 263 343 264
f 263 341 344
f 263 344 342
f 264 343 345
f 264 345 265
f 265 345 346
f 265 346 267
f 266 267 347
f 266 347 268
f 267 346 348
f 267 348 347
f 268 347 349
f 268 349 350
f 268 350 269
f 269 350 270
f 270 350 351
f 270 351 352
f 270 352 271
f 271 352 272
f 272 352 353
f 272 353 273
f 273 353 354
f 273 354 275
f 273 275 274
f 275 354 355
f 275 355 276
f 276 355 356
f 276 356 277
f 277 356 278
f 278 356 357
f 278 357 279
f 279 358 359
f 279 359 285
f 279 285 284
f 279 284 283
f 279 283 282
f 279 282 281
f 279 281 280
f 279 357 360
f 279 360 358
f 285 359 286
f 286 359 361
f 286 361 287
f 287 361 362
f 287 362 363
f 287 363 364
f 287 364 365
f 287 365 366
f 287 366 367
f 287 367 368
f 287 368 369
f 287 369 370
f 287 370 288
f 288 371 291
f 288 291 289
f 288 370 372
f 288 372 371
f 289 291 290
f 291 371 372
f 291 372 373
f 291 373 292
f 292 373 293
f 293 373 294
f 294 374 375
f 294 375 376
f 294 376 295
f 294 373 377
f 294 377 374
f 295 376 373
f 295 373 296
f 296 373 300
f 297 378 379
f 297 379 298
f 297 303 380
f 297 380 378
f 300 373 301
f 301 373 302
f 302 373 303
f 303 373 381
f 303 381 382
f 303 382 383
f 303 383 384
f 303 384 380
f 304 305 308
f 304 308 311
f 304 311 310
f 306 385 386
f 306 386 387
f 306 387 388
f 306 388 389
f 306 389 307
f 306 309 385
f 307 389 308
f 308 389 390
f 308 390 391
f 308 391 311
f 311 391 392
f 311 392 312
f 312 392 313
f 313 392 314
f 314 392 393
f 314 393 320
f 314 316 315
f 318 328 394
f 318 394 395
f 318 395 396
f 318 396 397
f 318 397 331
f 318 331 329
f 320 393 398
f 320 398 321
f 321 398 399
f 321 399 322
f 322 399 400
f 322 400 401
f 322 401 323
f 323 401 402
f 323 402 324
f 324 402 403
f 324 403 404
f 324 404 326
f 324 326 325
f 326 404 327
f 327 404 405
f 327 405 406
f 327 406 394
f 327 394 328
f 329 331 330
f 331 333 332
f 331 397 407
f 331 407 408
f 331 408 409
f 331 409 333
f 333 409 410
f 333 410 334
f 334 410 411
f 334 411 335
f 335 337 336
f 335 411 412
f 335 412 413
f 335 413 337
f 337 413 414
f 337 414 415
f 337 415 338
f 338 416 339
f 338 415 417
f 338 417 416
f 342 418 343
f 343 418 419
f 343 419 420
f 343 420 345
f 345 420 421
f 345 421 422
f 345 422 346
f 346 422 348
f 347 348 423
f 347 423 349
f 348 422 424
f 348 424 425
f 348 425 423
f 349 423 426
f 349 426 427
f 349 427 350
f 350 427 428
f 350 428 351
f 351 428 429
f 351 429 352
f 352 429 353
f 353 429 430
f 353 430 431
f 353 431 354
f 354 431 355
f 355 431 432
f 355 432 356
f 356 432 433
f 356 433 357
f 357 433 434
f 357 434 360
f 358 435 359
f 358 360 435
f 359 436 437
f 359 437 363
f 359 363 362
f 359 362 361
f 359 435 436
f 360 438 439
f 360 439 436
f 360 436 435
f 360 434 438
f 363 437 440
f 363 440 364
f 364 440 441
f 364 441 365
f 365 441 442
f 365 442 443
f 365 443 366
f 366 443 444
f 366 444 372
f 366 372 367
f 367 372 368
f 368 372 369
f 369 372 370
f 372 444 381
f 372 381 373
f 373 376 375
f 373 375 377
f 374 377 375
f 378 445 446
f 378 446 379
f 378 380 445
f 380 447 445
f 381 444 511
f 381 511 448
f 381 448 449
f 381 449 382
f 382 449 383
f 383 449 450
f 387 451 388
f 388 451 452
f 388 452 453
f 388 453 389
f 389 453 454
f 389 454 390
f 390 454 455
f 390 455 391
f 391 455 456
f 391 456 392
f 392 456 393
f 393 456 457
f 393 457 398
f 394 406 458
f 394 458 395
f 395 458 459
f 395 459 460
f 395 460 396
f 396 461 407
f 396 407 397
f 396 460 461
f 398 462 399
f 398 457 462
f 399 462 463
f 399 463 400
f 400 464 465
f 400 465 401
f 400 463 464
f 401 465 466
f 401 466 467
f 401 467 402
f 402 467 403
f 403 467 468
f 403 468 405
f 403 405 404
f 405 468 469
f 405 469 470
f 405 470 458
f 405 458 406
f 407 461 471
f 407 471 408
f 408 410 409
f 408 471 410
f 410 471 472
f 410 472 411
f 411 472 473
f 411 473 412
f 412 473 474
f 412 474 475
f 412 475 413
f 413 475 414
f 414 475 476
f 414 476 477
f 414 477 478
f 414 478 479
f 414 479 415
f 415 479 417
f 418 480 419
f 419 480 481
f 419 481 482
f 419 482 483
f 419 483 420
f 420 483 484
f 420 484 421
f 421 484 485
f 421 485 422
f 422 485 558
f 422 558 486
f 422 486 487
f 422 487 424
f 423 425 426
f 424 487 425
f 425 488 426
f 425 487 489
f 425 489 490
f 425 490 491
f 425 491 488
f 426 488 492
f 426 492 427
f 427 492 493
f 427 493 428
f 428 493 494
f 428 494 429
f 429 494 495
f 429 495 430
f 430 495 496
f 430 496 431
f 431 496 432
f 432 434 433
f 432 496 497
f 432 497 434
f 434 497 438
f 436 439 498
f 436 498 440
f 436 440 437
f 438 499 500
f 438 500 501
f 438 501 439
f 438 497 502
f 438 502 503
f 438 503 499
f 439 501 504
f 439 504 505
f 439 505 506
f 439 506 498
f 440 498 506
f 440 506 507
f 440 507 441
f 441 507 508
f 441 508 442
f 442 508 509
f 442 509 510
f 442 510 443
f 443 511 444
f 443 510 511
f 445 447 512
f 445 512 513
f 445 513 446
f 448 511 514
f 448 514 515
f 448 515 517
f 448 517 449
f 449 516 450
f 449 517 518
f 449 518 516
f 451 519 452
f 452 519 520
f 452 520 521
f 452 521 453
f 453 521 522
f 453 522 454
f 454 522 523
f 454 523 524
f 454 524 525
f 454 525 526
f 454 526 527
f 454 527 455
f 455 527 456
f 456 527 457
f 457 527 528
f 457 528 462
f 458 470 529
f 458 529 530
f 458 530 460
f 458 460 459
f 460 530 531
f 460 531 532
f 460 532 471
f 460 471 461
f 462 528 533
f 462 533 463
f 463 533 464
f 464 533 534
f 464 534 508
f 464 508 535
f 464 535 465
f 465 535 466
f 466 469 468
f 466 468 467
f 466 535 536
f 466 536 537
f 466 537 469
f 469 529 470
f 469 537 538
f 469 538 539
f 469 539 540
f 469 540 541
f 469 541 529
f 471 532 542
f 471 542 543
f 471 543 473
f 471 473 472
f 473 543 544
f 473 544 474
f 474 544 476
f 474 476 475
f 476 545 477
f 476 544 546
f 476 546 547
f 476 547 548
f 476 548 545
f 477 549 478
f 477 545 549
f 482 550 551
f 482 551 483
f 483 551 484
f 484 552 553
f 484 553 485
f 484 551 554
f 484 554 555
f 484 555 556
f 484 556 557
f 484 557 552
f 485 553 552
f 485 552 558
f 486 559 490
f 486 490 489
f 486 489 487
f 486 558 560
f 486 560 559
f 488 561 562
f 488 562 563
f 488 563 492
f 488 491 561
f 490 559 564
f 490 564 491
f 491 565 566
f 491 566 567
f 491 567 568
f 491 568 569
f 491 569 570
f 491 570 561
f 491 564 565
f 492 563 493
f 493 571 494
f 493 563 572
f 493 572 627
f 493 627 573
f 493 573 574
f 493 574 575
f 493 575 571
f 494 571 495
f 495 576 496
f 495 571 575
f 495 575 574
f 495 574 573
f 495 573 627
f 495 627 576
f 496 576 577
f 496 577 497
f 497 577 578
f 497 578 502
f 499 578 579
f 499 579 500
f 499 503 578
f 500 579 580
f 500 580 501
f 501 580 504
f 502 578 503
f 504 580 539
f 504 539 538
f 504 538 505
f 505 538 537
f 505 537 536
f 505 536 506
f 506 536 507
f 507 536 535
f 507 535 508
f 508 534 509
f 509 534 581
f 509 581 510
f 510 581 514
f 510 514 511
f 514 581 582
f 514 582 515
f 515 582 583
f 515 583 584
f 515 584 517
f 517 584 585
f 517 585 518
f 518 585 586
f 519 587 520
f 520 588 589
f 520 589 590
f 520 590 591
f 520 591 521
f 520 587 588
f 521 591 523
f 521 523 522
f 523 590 524
f 523 591 590
f 524 590 592
f 524 592 582
f 524 582 525
f 525 582 593
f 525 593 534
f 525 534 533
f 525 533 528
f 525 528 526
f 526 528 527
f 529 541 594
f 529 594 530
f 530 594 531
f 531 594 595
f 531 595 596
f 531 596 532
f 532 596 542
f 534 593 581
f 539 580 597
f 539 597 540
f 540 597 541
f 541 597 598
f 541 598 599
f 541 599 594
f 542 596 600
f 542 600 601
f 542 601 544
f 542 544 543
f 544 601 602
f 544 602 603
f 544 603 546
f 545 548 604
f 546 603 605
f 546 605 606
f 546 606 547
f 547 606 607
f 547 607 608
f 547 608 548
f 548 608 609
f 548 609 610
f 548 610 604
f 550 611 554
f 550 554 551
f 552 612 613
f 552 613 558
f 552 557 614
f 552 614 612
f 554 611 555
f 555 611 615
f 555 615 556
f 556 615 616
f 556 616 557
f 557 617 614
f 557 616 617
f 558 613 560
f 559 560 564
f 560 618 619
f 560 619 568
f 560 568 567
f 560 567 566
f 560 566 565
f 560 565 564
f 560 613 618
f 561 570 562
f 562 570 620
f 562 620 621
f 562 621 622
f 562 622 623
f 562 623 572
f 562 572 563
f 568 619 624
f 568 624 626
f 568 626 569
f 569 625 570
f 569 626 625
f 570 625 620
f 572 623 627
f 576 628 577
f 576 627 628
f 577 629 630
f 577 630 578
f 577 628 631
f 577 631 629
f 578 630 632
f 578 632 579
f 579 632 598
f 579 598 597
f 579 597 580
f 581 593 582
f 582 592 583
f 583 592 584
f 584 592 633
f 584 633 585
f 585 634 635
f 585 635 586
f 585 633 590
f 585 590 636
f 585 636 634
f 589 636 590
f 590 633 592
f 594 599 595
f 595 599 637
f 595 637 638
f 595 638 596
f 596 638 600
f 598 632 639
f 598 639 599
f 599 639 637
f 600 638 640
f 600 640 641
f 600 641 601
f 601 641 602
f 602 641 642
f 602 642 605
f 602 605 603
f 605 642 619
f 605 619 606
f 606 619 643
f 606 643 607
f 607 643 644
f 607 644 645
f 607 645 608
f 608 645 609
f 609 645 646
f 612 647 613
f 612 614 648
f 612 648 647
f 613 647 618
f 614 617 649
f 614 649 650
f 614 650 648
f 618 651 652
f 618 652 653
f 618 653 654
f 618 654 643
f 618 643 619
f 618 647 651
f 619 642 624
f 620 625 655
f 620 655 656
f 620 656 621
f 621 656 639
f 621 639 627
f 621 627 622
f 622 627 623
f 624 642 641
f 624 641 626
f 625 626 657
f 625 657 655
f 626 641 640
f 626 640 657
f 627 639 632
f 627 632 630
f 627 630 629
f 627 629 631
f 627 631 628
f 637 639 656
f 637 656 655
f 637 655 638
f 638 655 640
f 640 655 657
f 643 654 644
f 644 654 645
f 645 654 658
f 645 658 659
f 645 659 646
f 647 648 651
f 648 650 659
f 648 659 658
f 648 658 654
f 648 654 653
f 648 653 652
f 648 652 651
