# ABC bottle geometry; canonical radius 1 and height 1, bottom z=0.
# https://github.com/mikedh/trimesh
v -0.0375402961102 -0.993222028769 0.0588967842431
v -0.112303947924 -0.987091320392 0.0490117506305
v -0.0375402961102 -0.992019915877 0.0490117506305
v 0.0373836973077 -0.992140134652 0.0588967842431
v 0.0373836973077 -0.992140134652 0.0687818673668
v -0.0375402961102 -0.993101809994 0.0687818673668
v -0.112303947924 -0.988173214509 0.0687818673668
v -0.112303947924 -0.988173214509 0.0588967842431
v -0.184022606388 -0.978075585987 0.0588967842431
v -0.180256375245 -0.977474566969 0.0490117506305
v -0.164229850187 -0.97519055996 0.0391266675068
v -0.112303947924 -0.982403162455 0.0391266675068
v 0.0373836973077 -0.99093802176 0.0490117506305
v -0.0375402961102 -0.987331683085 0.0391266675068
v 0.0373836973077 -0.986370007743 0.0391266675068
v 0.112227445068 -0.98564876995 0.0588967842431
v 0.0373836973077 -0.986730738923 0.296583358912
v 0.112227445068 -0.98564876995 0.0687818673668
v 0.0815366997351 -0.973868228294 0.771778426833
v -0.0375402961102 -0.992861372445 0.0786669009795
v 0.0373836973077 -0.980600030546 0.553950999706
v 0.0373836973077 -0.978195804762 0.652979654901
v 0.0373836973077 -0.975551216285 0.761893333807
v -0.112303947924 -0.97915755496 0.38563791008
v -0.150687422291 -0.97326713442 0.405497067524
v -0.182500034857 -0.977955292356 0.0786669009795
v -0.183541806145 -0.978075585987 0.0687818673668
v -0.0754429702333 -0.973146990501 0.771778426833
v -0.0785681343854 -0.9736278656 0.742034196167
v -0.221444480268 -0.972666115402 0.0588967842431
v -0.217678249125 -0.972065096384 0.0490117506305
v -0.201651724067 -0.969540651826 0.0391266675068
v -0.151088051732 -0.97326713442 0.0339614944687
v -0.105011848332 -0.975430922654 0.030043089385
v -0.0753627994314 -0.973146990501 0.0241655213683
v 0.112227445068 -0.984446731914 0.0490117506305
v -0.036578695624 -0.977354348194 0.0282620474766
v 0.0373836973077 -0.977955292356 0.0295978363346
v 0.116314209706 -0.979037261329 0.0387704650665
v 0.0940373563437 -0.976032091384 0.031378927754
v 0.165756014808 -0.975911797753 0.0490117506305
v 0.168720912212 -0.976512816771 0.0588967842431
v 0.112227445068 -0.984807238527 0.108411111841
v 0.0988453587747 -0.975911797753 0.593491213374
v 0.0979638542343 -0.975791578978 0.603465327304
v 0.0953194903253 -0.975430922654 0.633120487555
v 0.168640816266 -0.976512816771 0.0687818673668
v 0.167118244735 -0.976272454077 0.0985260782281
v 0.159665953251 -0.974950122411 0.237094907482
v 0.15181295747 -0.97350757197 0.38563791008
v 0.149809660551 -0.973146990501 0.422150264374
v 0.148928156011 -0.973026846582 0.435152227775
v 0.14524209567 -0.972545896627 0.484577504762
v 0.140434093239 -0.971944877609 0.543976885777
v 0.13538580297 -0.971343858592 0.603465327304
v 0.118958573615 -0.969660870601 0.771778426833
v 0.0785718023306 -0.97350757197 0.781663450543
v 0.0373836973077 -0.975310853591 0.771778426833
v -0.0375402961102 -0.991058165679 0.148040405826
v -0.145719227968 -0.972545896627 0.455011395121
v -0.219921983593 -0.972425752709 0.0786669009795
v -0.220963680025 -0.972545896627 0.0687818673668
v -0.0375402961102 -0.975791578978 0.73214914275
v -0.0375402961102 -0.974709684861 0.771778426833
v -0.0749621699902 -0.973026846582 0.776765468944
v -0.112784748167 -0.967857813547 0.771778426833
v -0.0375402961102 -0.989255108626 0.217324820453
v -0.0375402961102 -0.9858892075 0.346097686509
v -0.116951608752 -0.968458757709 0.73214914275
v -0.140590766897 -0.971824658835 0.504436672109
v -0.2619915183 -0.960765354971 0.0588967842431
v -0.2619915183 -0.959683460854 0.0490117506305
v -0.2619915183 -0.960645211052 0.0687818673668
v -0.2619915183 -0.954875009287 0.0391266675068
v -0.2619915183 -0.945618912189 0.0291525733819
v -0.180496737939 -0.964491912421 0.030043089385
v -0.125125138028 -0.969540651826 0.0273714720603
v -0.18714777054 -0.947422118955 0.0192675397693
v -0.105011848332 -0.96124623007 0.0202471261869
v -0.036578695624 -0.965453587763 0.0202471261869
v -0.0609389418504 -0.973146990501 0.0241655213683
v 0.158463915215 -0.974709684861 0.0418873453439
v -0.0110164113618 -0.973026846582 0.0242545917829
v 0.0373836973077 -0.972545896627 0.0246998448333
v 0.143959961688 -0.972185390015 0.0352973328377
v 0.116314209706 -0.969300289132 0.0285291795025
v 0.203177888688 -0.969059926439 0.0490117506305
v 0.206142786092 -0.969660870601 0.0588967842431
v 0.112227445068 -0.982042506131 0.237094907482
v 0.106217554313 -0.97699369187 0.504436672109
v 0.10221088562 -0.976392597996 0.553950999706
v 0.129936733549 -0.970742839574 0.662864698416
v 0.125128805974 -0.970261889619 0.712379026014
v 0.206062690146 -0.969660870601 0.0687818673668
v 0.203418326237 -0.969180145214 0.118296135551
v 0.200293087229 -0.96857905134 0.177695556175
v 0.19131829907 -0.966896138205 0.346097686509
v 0.187071267684 -0.959322879386 0.761893333807
v 0.187071267684 -0.959082516692 0.771778426833
v 0.187071267684 -0.958481347962 0.781663450543
v 0.115993676211 -0.969300289132 0.781663450543
v 0.0756069049262 -0.973146990501 0.786828623581
v 0.0373836973077 -0.974709684861 0.781663450543
v -0.18714777054 -0.955596321936 0.771778426833
v -0.2619915183 -0.952470933215 0.316353465746
v -0.2619915183 -0.959683460854 0.0985260782281
v -0.2619915183 -0.937685071902 0.761893333807
v -0.0395435930284 -0.974108590987 0.780683864126
v -0.0659072110291 -0.972666115402 0.783355491352
v -0.104771485638 -0.96833861379 0.780683864126
v -0.18714777054 -0.954754940224 0.781663450543
v -0.336835340916 -0.937324490433 0.0588967842431
v -0.336835340916 -0.936122452397 0.0490117506305
v -0.336835340916 -0.937204196802 0.0687818673668
v -0.336835340916 -0.936603177784 0.0886409951044
v -0.336835340916 -0.931313925974 0.0391266675068
v -0.336835340916 -0.922057828876 0.0291525733819
v -0.378263883489 -0.900059439924 0.023274945952
v -0.2619915183 -0.930472544263 0.0192675397693
v -0.2619915183 -0.909556049427 0.0117869419445
v -0.18714777054 -0.918090908733 0.0101839715497
v -0.114066882149 -0.919653603093 0.00849193074031
v -0.0375402961102 -0.929029993821 0.00938245664561
v 0.0373836973077 -0.962688705655 0.0192675397693
v 0.184907704018 -0.967376938448 0.0387704650665
v 0.112227445068 -0.955836759485 0.0192675397693
v 0.187071267684 -0.957880254088 0.0291525733819
v 0.187071267684 -0.943214761261 0.0192675397693
v 0.2619150903 -0.953432533702 0.0490117506305
v 0.2619150903 -0.948503938216 0.0391266675068
v 0.2619150903 -0.954514502675 0.0588967842431
v 0.2619150903 -0.954514502675 0.0687818673668
v 0.107018813195 -0.977113835789 0.494462558179
v 0.2619150903 -0.954274065125 0.0886409951044
v 0.2619150903 -0.953312314927 0.148040405826
v 0.2619150903 -0.952470933215 0.197554733423
v 0.2619150903 -0.942613667387 0.771778426833
v 0.2619150903 -0.94201264837 0.781663450543
v 0.187071267684 -0.955596321936 0.791548543569
v 0.105255953827 -0.967737519916 0.79065795825
v 0.0373836973077 -0.970983127411 0.792617190499
v 0.0373836973077 -0.9736278656 0.787719149487
v -0.0159846056845 -0.973748084375 0.787897280413
v -0.2619915183 -0.936603177784 0.781663450543
v -0.2619915183 -0.937324490433 0.771778426833
v -0.336835340916 -0.912801731778 0.761893333807
v -0.336835340916 -0.914604788832 0.712379026014
v -0.336835340916 -0.915686757805 0.682634815152
v -0.336835340916 -0.921697172552 0.514321725526
v -0.336835340916 -0.926625842894 0.37575284676
v -0.0395435930284 -0.970862983492 0.791370412642
v -0.112303947924 -0.963890818547 0.791548543569
v -0.18714777054 -0.951509332729 0.791548543569
v -0.403104929958 -0.91183998158 0.0588967842431
v -0.401742700031 -0.911118743787 0.0490117506305
v -0.396453972213 -0.908594374085 0.0391266675068
v -0.402944738067 -0.911719762805 0.0687818673668
v -0.402544033769 -0.911599618887 0.0786669009795
v -0.375218890139 -0.898737183113 0.761893333807
v -0.377222112201 -0.899698858455 0.712379026014
v -0.382751352424 -0.902343446933 0.573721096638
v -0.389081776675 -0.905348616878 0.415382120941
v -0.392607570268 -0.907031604869 0.326238519163
v -0.399338698815 -0.910157068445 0.157925439438
v -0.401742700031 -0.911238962562 0.0985260782281
v -0.386357241964 -0.903906141293 0.0291525733819
v -0.487644778526 -0.837670536886 0.0199799347478
v -0.406630798408 -0.878902507539 0.0197128027219
v -0.36063476581 -0.893207493753 0.0166849235436
v -0.33611417798 -0.907752842662 0.0197128027219
v -0.4237791907 -0.88587474734 0.0291525733819
v -0.310712160465 -0.901982790608 0.0133899123394
v -0.2619915183 -0.882388627439 0.00688896034547
v -0.18714777054 -0.891404361844 0.0051969195361
v -0.1401900626 -0.89633295733 0.00466259607116
v -0.0902674572555 -0.900179658699 0.00421728360744
v -0.0375402961102 -0.901141334041 0.00403921209391
v 0.0373836973077 -0.901021115266 0.00412821319292
v 0.0373836973077 -0.928428899948 0.00938245664561
v 0.2619150903 -0.939247841118 0.0291525733819
v 0.111586378077 -0.918571783832 0.00858100115483
v 0.187071267684 -0.916047339273 0.0104511035755
v 0.2619150903 -0.90655072977 0.012410335824
v 0.2619150903 -0.924341835885 0.0192675397693
v 0.329787346819 -0.930592688182 0.0480321047996
v 0.329787346819 -0.931073563281 0.0490117506305
v 0.329787346819 -0.932275601316 0.0588967842431
v 0.329787346819 -0.925303511227 0.0381470810892
v 0.329787346819 -0.926144967795 0.0391266675068
v 0.329787346819 -0.932275601316 0.0687818673668
v 0.329787346819 -0.932035238623 0.0886409951044
v 0.329787346819 -0.931915019848 0.0975464323972
v 0.329787346819 -0.931073563281 0.156945853021
v 0.329787346819 -0.930352250632 0.207439767036
v 0.329787346819 -0.928789631128 0.315462929938
v 0.329787346819 -0.922178047651 0.770798781002
v 0.329787346819 -0.921576953777 0.781663450543
v 0.2619150903 -0.939127697199 0.791548543569
v 0.187071267684 -0.94706146263 0.801433567279
v 0.112227445068 -0.95776011017 0.801433567279
v 0.0373836973077 -0.962688705655 0.801433567279
v -0.0375402961102 -0.961967467863 0.801433567279
v -0.343887002959 -0.909195393103 0.781218197493
v -0.336835340916 -0.912441075454 0.771778426833
v -0.2619915183 -0.933357570289 0.791548543569
v -0.332107509287 -0.910157068445 0.791548543569
v -0.112303947924 -0.955235740467 0.801433567279
v -0.18714777054 -0.942974398568 0.801433567279
v -0.440526878694 -0.893928731546 0.0588967842431
v -0.439164648767 -0.893327712528 0.0490117506305
v -0.433875846093 -0.89080326797 0.0391266675068
v -0.440366611947 -0.893808512771 0.0687818673668
v -0.439965982505 -0.893688293997 0.0786669009795
v -0.374818185841 -0.898496745564 0.771778426833
v -0.412640764019 -0.880585420674 0.761893333807
v -0.41304139346 -0.880825858223 0.751919239682
v -0.415044690378 -0.881787533565 0.702404912084
v -0.418971188269 -0.88371088425 0.603465327304
v -0.488846816562 -0.836949299093 0.0199799347478
v -0.488846816562 -0.82384642577 0.0149038222219
v -0.463444799047 -0.831419609733 0.0125883974353
v -0.488846816562 -0.851494648001 0.0288853819428
v -0.488846816562 -0.851855304326 0.0291525733819
v -0.405989731417 -0.840916294093 0.00929338623109
v -0.33611417798 -0.872651580386 0.00982770969604
v -0.377302283003 -0.824687957194 0.00430634411974
v -0.336835340916 -0.832621722625 0.00359388972798
v -0.2619915183 -0.84488313938 0.00279243423719
v -0.18714777054 -0.85401909256 0.00243618228578
v -0.114066882149 -0.867121965882 0.00252524279808
v -0.0375402961102 -0.860750819955 0.0018128478196
v 0.0373836973077 -0.860750819955 0.0018128478196
v 0.0861843605624 -0.899939296005 0.00421728360744
v 0.329787346819 -0.91364311349 0.0271043400344
v 0.329787346819 -0.916047339273 0.0287073104293
v 0.136106965907 -0.895251063213 0.00475160707239
v 0.187071267684 -0.889961811402 0.00546405156194
v 0.30326346207 -0.899578564825 0.0140133062188
v 0.2619150903 -0.880104620431 0.00742328381041
v 0.329787346819 -0.863275264514 0.00902625420526
v 0.319129720381 -0.905108254184 0.0192675397693
v 0.329787346819 -0.918451490201 0.791548543569
v 0.2619150903 -0.930472544263 0.801433567279
v 0.187071267684 -0.930352250632 0.811407661404
v 0.112227445068 -0.941291410577 0.811407661404
v 0.0373836973077 -0.946220006063 0.811407661404
v -0.0375402961102 -0.94549876827 0.811407661404
v -0.112303947924 -0.938887184793 0.811407661404
v -0.374497652346 -0.898376526789 0.777655994849
v -0.373455881058 -0.89789565169 0.784246066769
v -0.2619915183 -0.92446205466 0.801433567279
v -0.319927386174 -0.905709348058 0.801433567279
v -0.369529458023 -0.89633295733 0.791548543569
v -0.18714777054 -0.926144967795 0.811407661404
v -0.486522911292 -0.869886773134 0.0588967842431
v -0.486522911292 -0.868564516324 0.0490117506305
v -0.486522911292 -0.863275264514 0.0391266675068
v -0.486522911292 -0.869646335585 0.0687818673668
v -0.486522911292 -0.869285754116 0.0786669009795
v -0.412240059721 -0.880344983124 0.771778426833
v -0.482916946897 -0.842959788696 0.771778426833
v -0.483237480392 -0.843200226245 0.761893333807
v -0.488846816562 -0.794395071629 0.00911532461977
v -0.488846816562 -0.790668514179 0.00849193074031
v -0.427144717545 -0.812186102889 0.0059983849291
v -0.488846816562 -0.861472057748 0.0385923440419
v -0.471057357279 -0.762299054155 0.00332675770214
v -0.405989731417 -0.786701594035 0.00288149474949
v -0.336835340916 -0.785980356243 0.00154565638048
v -0.2619915183 -0.785980356243 0.00101133291553
v 0.2619150903 -0.785980356243 0.000833201988717
v 0.187071267684 -0.852576616974 0.00243618228578
v 0.111586378077 -0.866520872009 0.00252524279808
v 0.2619150903 -0.842719351146 0.00288149474949
v 0.329787346819 -0.907993280211 0.0234530768788
v 0.322495247226 -0.832020703607 0.00359388972798
v 0.329787346819 -0.870127210684 0.0103620430632
v 0.329787346819 -0.901261552816 0.0192675397693
v 0.329787346819 -0.845844889579 0.00626557636822
v 0.329787346819 -0.91003684967 0.800899243814
v 0.329787346819 -0.906069929527 0.803659931554
v 0.314241622004 -0.903425266194 0.80873604408
v 0.264879987704 -0.911479400112 0.811763923258
v 0.241881896549 -0.9031849035 0.81817581474
v 0.182103073361 -0.907272042419 0.821381814943
v 0.112227445068 -0.917970689958 0.82129275443
v 0.0373836973077 -0.923139722993 0.82129275443
v -0.0375402961102 -0.922298266426 0.82129275443
v -0.118554276229 -0.912200637904 0.822183270433
v -0.147722524886 -0.898015870465 0.826101665615
v -0.18714777054 -0.906791167319 0.819600713621
v -0.40438706394 -0.883470521556 0.781218197493
v -0.411679163532 -0.876378137836 0.791548543569
v -0.260629288373 -0.908113498986 0.811140529378
v -0.307346558763 -0.901141334041 0.807756457662
v -0.357349260054 -0.891644799393 0.801433567279
v -0.411679163532 -0.866881528333 0.801433567279
v -0.234826641417 -0.901261552816 0.817463360348
v -0.488846816562 -0.868564516324 0.0588967842431
v -0.488846816562 -0.867242184657 0.0490117506305
v -0.488846816562 -0.861952932847 0.0391266675068
v -0.488846816562 -0.868324078774 0.0687818673668
v -0.488846816562 -0.867602840982 0.0881957321517
v -0.488846816562 -0.86796342245 0.0786669009795
v -0.48219578396 -0.842599132372 0.781663450543
v -0.488846816562 -0.839353524877 0.773381397228
v -0.488846816562 -0.839473743651 0.771778426833
v -0.488846816562 -0.839954543894 0.761893333807
v -0.488846816562 -0.756529002102 0.00386108116709
v -0.488846816562 -0.724312765853 0.00243618228578
v -0.488846816562 -0.719744751836 0.00225811077225
v -0.488846816562 -0.716739507034 0.00216905025994
v -0.411679163532 -0.711089673756 0.00110039342783
v -0.488846816562 -0.62321633672 0.00216905025994
v 0.329787346819 -0.705079259009 0.00199091933313
v 0.329787346819 -0.791630264377 0.00190185882083
v 0.329787346819 -0.818316811266 0.00305956626303
v 0.329787346819 -0.900660533798 0.807222134197
v 0.329787346819 -0.893568150078 0.810695266426
v 0.291804501894 -0.895972301005 0.815326056586
v 0.264879987704 -0.887798098024 0.821381814943
v 0.203818955678 -0.894409531789 0.82485489766
v 0.15389642519 -0.898977545807 0.826457868055
v 0.112227445068 -0.90162220914 0.827348443471
v 0.0373836973077 -0.904266797617 0.828238969377
v -0.0375402961102 -0.903785997374 0.828060897863
v -0.0977999195415 -0.90138177159 0.827259382959
v -0.18714777054 -0.893688293997 0.82449869522
v -0.118554276229 -0.887677804394 0.830821585603
v -0.18714777054 -0.873733549359 0.831177778141
v -0.471057357279 -0.836107842526 0.801433567279
v -0.479230886556 -0.840796000462 0.791548543569
v -0.28466907596 -0.893688293997 0.81434648007
v -0.334110806205 -0.882869427682 0.811140529378
v -0.417288424846 -0.844402339137 0.811941984869
v -0.459918930598 -0.829616552679 0.809092236618
v -0.2619915183 -0.853898873785 0.831177778141
v -0.260629288373 -0.883951321799 0.820936492577
v -0.488846816562 -0.835146242039 0.791548543569
v -0.488846816562 -0.838632212228 0.781663450543
v -0.488846816562 -0.631150251864 0.00207997984543
v -0.488846816562 0.234840976346 0.0254122992251
v 0.329787346819 0.234840976346 0.0330709685634
v 0.329787346819 -0.889601155078 0.812387247822
v 0.329787346819 -0.86976655436 0.820313108599
v 0.329787346819 -0.867121965882 0.82129275443
v 0.2619150903 -0.860149800937 0.831177778141
v 0.182103073361 -0.882027971115 0.83037632265
v 0.112227445068 -0.886595985133 0.832335495485
v 0.0373836973077 -0.889360792384 0.833226011488
v -0.0375402961102 -0.888879917285 0.833047949877
v -0.112303947924 -0.853898873785 0.841062871167
v -0.185224569568 -0.838752431003 0.841419063705
v -0.2619915183 -0.830818665571 0.8381240525
v -0.488846816562 -0.825409194986 0.801433567279
v -0.336835340916 -0.856062662019 0.82129275443
v -0.392206940827 -0.832020703607 0.82129275443
v -0.44597587326 -0.821802856311 0.815682318439
v -0.488846816562 -0.804372481376 0.811941984869
v -0.488846816562 -0.807497944952 0.810517145401
v -0.302298193639 -0.824567663563 0.836432021593
v -0.488846816562 0.234840976346 0.886925935608
v 0.329787346819 0.234840976346 0.910436316599
v 0.329787346819 -0.840074762669 0.830465333651
v 0.329787346819 -0.834545073309 0.832246425071
v 0.308311827195 -0.826491014247 0.836966345058
v 0.2619150903 -0.834064273066 0.838925507991
v 0.21704085008 -0.821923075086 0.845693661326
v 0.19011633589 -0.841276875561 0.841864326657
v 0.112227445068 -0.856423318343 0.841062871167
v 0.0373836973077 -0.862193370397 0.841062871167
v -0.0375402961102 -0.860991257505 0.841062871167
v -0.112303947924 -0.82937611513 0.847385692234
v -0.158941047513 -0.82564955768 0.846584236743
v -0.208863652858 -0.819278486609 0.844981266348
v -0.2619915183 -0.811344646321 0.8430220341
v -0.331145908801 -0.831660122139 0.83037632265
v -0.376420778462 -0.824447519644 0.826546928567
v -0.429708985509 -0.813628578474 0.82129275443
v -0.466970592641 -0.760255484696 0.831177778141
v -0.488846816562 -0.775762583803 0.822005149409
v -0.488846816562 -0.789105819819 0.817374349347
v -0.336835340916 -0.759293809354 0.84818721704
v -0.331145908801 -0.796077984764 0.840261356262
v -0.352220798984 -0.81338821578 0.833137010389
v -0.488846816562 0.234600538796 0.890755270278
v -0.488686549814 0.234840976346 0.89084433079
v -0.350217427209 0.234840976346 0.910436316599
v 0.329787346819 -0.285186443371 0.910436316599
v 0.329787346819 -0.822644312878 0.835897698128
v 0.329787346819 -0.806656488385 0.839905153822
v 0.2619150903 -0.81495091014 0.843912560005
v 0.167118244735 -0.826611307878 0.846762308256
v 0.267764714307 -0.776363602821 0.851838420782
v 0.24668989898 -0.756168345778 0.857359845772
v 0.19011633589 -0.804853281619 0.850413571412
v 0.112227445068 -0.83069837194 0.847652883673
v 0.0373836973077 -0.833583472823 0.848276277552
v -0.0375402961102 -0.832982378949 0.84818721704
v -0.0375402961102 -0.810142608285 0.853085198639
v -0.112303947924 -0.806415975979 0.852283743148
v -0.18714777054 -0.761217160038 0.858250371677
v -0.185224569568 -0.801126799025 0.8503245109
v -0.263594185777 -0.771915807578 0.851571288756
v -0.405508931174 -0.796799222557 0.83037632265
v -0.452306372366 -0.750518512499 0.836610083205
v -0.488846816562 -0.745469698238 0.831177778141
v -0.488846816562 -0.773478576794 0.822717593898
v -0.289557174337 -0.744988823139 0.855311553011
v -0.336835340916 -0.7342901756 0.853174259151
v -0.376901578705 -0.749917418625 0.846317045304
v -0.405749368723 -0.759534172047 0.840350416775
v -0.488846816562 0.189041066531 0.892447301185
v -0.408233391029 0.11222703336 0.910436316599
v -0.407993028335 0.112948271152 0.910436316599
v -0.387479109198 0.171009597722 0.910436316599
v 0.309513790375 -0.309108183008 0.910436316599
v 0.329787346819 -0.598453140516 0.875705063627
v 0.329787346819 -0.802929930935 0.840795679727
v 0.329787346819 -0.765063936263 0.849433984994
v 0.112227445068 -0.807738382502 0.852639935686
v 0.296612429469 -0.747513192842 0.855756815964
v 0.187071267684 -0.763861823372 0.85869563463
v 0.267764714307 -0.728880779871 0.860743927391
v 0.2619150903 -0.687167934119 0.867868263362
v 0.187071267684 -0.735492288492 0.863682676741
v 0.0373836973077 -0.810863846078 0.853263319664
v -0.0375402961102 -0.77263704537 0.860298605025
v -0.112303947924 -0.768910637632 0.859675211145
v -0.18714777054 -0.732967843933 0.863237413788
v -0.239714664938 -0.753523757301 0.856825462894
v -0.42682418405 -0.735852944816 0.843200165026
v -0.466810325893 -0.685845602452 0.848276277552
v -0.484519614374 -0.70964719817 0.840795679727
v -0.488846816562 -0.707483409936 0.840617548801
v -0.263594185777 -0.72383196561 0.860476726049
v -0.301977660144 -0.674906517363 0.865998101528
v -0.330905546107 -0.692937986172 0.86083292849
v -0.389883035557 -0.6830807952 0.857537917285
v -0.408313561831 -0.709406760621 0.850591702339
v -0.488846816562 0.182549776685 0.892625432112
v -0.417528862395 0.0381778074398 0.910436316599
v -0.488846816562 0.125209687908 0.894139341994
v 0.262556082434 -0.338920268329 0.910436316599
v 0.309353523627 -0.604102973795 0.876328447604
v 0.329787346819 -0.629467263873 0.871697598031
v 0.173929544084 -0.388807317062 0.910436316599
v 0.329787346819 -0.740300665203 0.854421037008
v 0.112227445068 -0.770232819587 0.859853342072
v 0.329787346819 -0.705439840477 0.860387665537
v 0.329787346819 -0.694380536613 0.862257827371
v 0.309032990132 -0.678272418489 0.866532424993
v 0.112227445068 -0.742584597356 0.864840394086
v 0.187071267684 -0.698107094064 0.869471243659
v 0.2619150903 -0.651225215276 0.872766244961
v 0.187071267684 -0.663486632031 0.874369225258
v 0.0373836973077 -0.773358358019 0.860476726049
v -0.0375402961102 -0.745109041914 0.865285647136
v -0.112303947924 -0.74114212177 0.864573252157
v -0.18714777054 -0.695582574649 0.869115041218
v -0.2619915183 -0.682840432507 0.867244879384
v -0.439725544956 -0.667453552175 0.854866299961
v -0.488846816562 -0.645695600772 0.852372744247
v -0.488846816562 -0.652427328168 0.851215026903
v -0.488846816562 -0.704117508811 0.841330003192
v -0.351820094686 -0.662164300365 0.864127999107
v -0.2619915183 -0.646897713664 0.872142860984
v -0.302218097693 -0.600256272426 0.875883194554
v -0.327059144163 -0.631270395783 0.870094627636
v -0.41696789135 -0.639805255088 0.861456312467
v -0.417608958341 0.0373363508724 0.910436316599
v -0.488846816562 0.11222703336 0.894406533433
v 0.329787346819 -0.642570137196 0.869916496709
v 0.11294868286 -0.41044504969 0.910436316599
v 0.329787346819 -0.67310346031 0.865730969502
v 0.0373836973077 -0.745950498482 0.86537471755
v 0.107259250745 -0.699309206955 0.871519477006
v 0.0790526025737 -0.674305498345 0.875794124139
v 0.128975207918 -0.670218359427 0.875259800674
v 0.112227445068 -0.41068548724 0.910436316599
v 0.0373836973077 -0.710127998413 0.870807082028
v -0.0175872731615 -0.675026810994 0.875883194554
v -0.0405051935146 -0.701713357883 0.871697598031
v -0.0675098785061 -0.67310346031 0.875616003115
v -0.112303947924 -0.703756852486 0.870272758563
v -0.112303947924 -0.669617340409 0.875170740162
v -0.18714777054 -0.660841968698 0.874013022817
v -0.44413284309 -0.595207458165 0.86537471755
v -0.473461358495 -0.617566503442 0.858784695142
v -0.488846816562 -0.635477753476 0.853975774055
v -0.394210237745 -0.612277251632 0.867601071923
v -0.2619915183 -0.609392225605 0.877040901996
v -0.352140628182 -0.585590704743 0.874191153744
v -0.162787449458 -0.383638284027 0.910436316599
v -0.415846024117 -0.0375543316147 0.910436316599
v -0.488846816562 0.0373363508724 0.895297049436
v -0.488846816562 -0.0375543316147 0.895207988924
v 0.0373836973077 -0.675146954913 0.875972195653
v 0.0373836973077 -0.419701221644 0.910436316599
v -0.0364985248221 -0.41777787096 0.910436316599
v -0.0375402961102 -0.417657652185 0.910436316599
v -0.112303947924 -0.403472884745 0.910436316599
v -0.417128158098 -0.5653954477 0.871252335078
v -0.439965982505 -0.516229636759 0.874992609235
v -0.473220920945 -0.545200190657 0.868402586827
v -0.488846816562 -0.561789183881 0.864573252157
v -0.488846816562 -0.575853732546 0.862792160738
v -0.488846816562 -0.589196968562 0.860921989002
v -0.390123473107 -0.53570365601 0.876951841484
v -0.200209323338 -0.359115525372 0.910436316599
v -0.401742700031 -0.112324795327 0.910436316599
v -0.488846816562 -0.0914083004916 0.894406533433
v -0.488846816562 -0.112324795327 0.89405027158
v -0.488846816562 -0.152114290395 0.89298162465
v -0.488846816562 -0.185893221004 0.892002038232
v -0.466409696452 -0.466342588026 0.877308034022
v -0.488846816562 -0.496996129915 0.872053800471
v -0.488846816562 -0.508656452796 0.870807082028
v -0.250372291376 -0.321850474862 0.910436316599
v -0.28771406931 -0.287590669154 0.910436316599
v -0.383071811064 -0.161130024799 0.910436316599
v -0.488846816562 -0.193586623741 0.891734846793
v -0.488846816562 -0.261384922509 0.889063229468
v -0.488846816562 -0.263548710743 0.888974168956
v -0.488846816562 -0.33687669887 0.88496670336
v -0.488846816562 -0.413209856942 0.879623458808
v -0.488846816562 -0.488701633303 0.872855315375
v -0.321369712047 -0.250325618645 0.910436316599
v -0.382751352424 -0.161851262592 0.910436316599
v -0.488846816562 -0.389288117305 0.881315499618
v -0.358711564837 -0.19923645702 0.910436316599
f 1 2 3
f 1 3 13
f 1 13 4
f 1 4 5
f 1 5 6
f 1 6 7
f 1 7 8
f 1 8 2
f 2 8 9
f 2 9 10
f 2 10 11
f 2 11 12
f 2 12 14
f 2 14 3
f 3 14 15
f 3 15 13
f 4 16 18
f 4 18 5
f 4 13 36
f 4 36 16
f 5 17 6
f 5 18 19
f 5 19 17
f 6 20 7
f 6 17 21
f 6 21 22
f 6 22 23
f 6 23 58
f 6 58 20
f 7 24 25
f 7 25 26
f 7 26 27
f 7 27 9
f 7 9 8
f 7 20 28
f 7 28 29
f 7 29 24
f 9 30 31
f 9 31 10
f 9 27 30
f 10 31 11
f 11 31 32
f 11 32 33
f 11 33 12
f 12 33 34
f 12 34 35
f 12 35 14
f 13 15 36
f 14 35 37
f 14 37 38
f 14 38 15
f 15 39 36
f 15 38 40
f 15 40 39
f 16 36 41
f 16 41 42
f 16 42 18
f 17 19 21
f 18 43 44
f 18 44 45
f 18 45 46
f 18 46 19
f 18 42 47
f 18 47 48
f 18 48 49
f 18 49 50
f 18 50 51
f 18 51 52
f 18 52 53
f 18 53 54
f 18 54 55
f 18 55 43
f 19 46 56
f 19 56 101
f 19 101 57
f 19 57 58
f 19 58 23
f 19 23 22
f 19 22 21
f 20 59 28
f 20 58 59
f 24 29 60
f 24 60 25
f 25 61 26
f 25 60 61
f 26 61 62
f 26 62 27
f 27 62 30
f 28 63 64
f 28 64 65
f 28 65 66
f 28 66 29
f 28 59 67
f 28 67 68
f 28 68 63
f 29 66 69
f 29 69 70
f 29 70 60
f 30 71 72
f 30 72 31
f 30 62 73
f 30 73 71
f 31 72 74
f 31 74 32
f 32 74 75
f 32 75 76
f 32 76 33
f 33 76 77
f 33 77 35
f 33 35 34
f 35 78 79
f 35 79 80
f 35 80 81
f 35 81 37
f 35 77 76
f 35 76 78
f 36 39 82
f 36 82 41
f 37 81 83
f 37 83 38
f 38 83 84
f 38 84 40
f 39 40 85
f 39 85 82
f 40 84 86
f 40 86 85
f 41 87 88
f 41 88 42
f 41 82 87
f 42 88 94
f 42 94 47
f 43 89 90
f 43 90 91
f 43 91 44
f 43 55 92
f 43 92 89
f 44 91 93
f 44 93 56
f 44 56 45
f 45 56 46
f 47 94 48
f 48 94 50
f 48 50 49
f 50 94 95
f 50 95 96
f 50 96 97
f 50 97 98
f 50 98 51
f 51 98 52
f 52 98 53
f 53 98 54
f 54 98 55
f 55 98 99
f 55 99 92
f 56 93 99
f 56 99 100
f 56 100 101
f 57 101 102
f 57 102 103
f 57 103 58
f 58 103 64
f 58 64 63
f 58 63 68
f 58 68 67
f 58 67 59
f 60 70 61
f 61 70 69
f 61 69 104
f 61 104 62
f 62 105 106
f 62 106 73
f 62 104 107
f 62 107 105
f 64 103 108
f 64 108 65
f 65 108 109
f 65 109 110
f 65 110 66
f 66 110 111
f 66 111 104
f 66 104 69
f 71 112 72
f 71 73 114
f 71 114 112
f 72 112 113
f 72 113 116
f 72 116 74
f 73 106 115
f 73 115 114
f 74 116 117
f 74 117 75
f 75 117 118
f 75 118 119
f 75 119 78
f 75 78 76
f 78 119 120
f 78 120 121
f 78 121 79
f 79 121 122
f 79 122 123
f 79 123 80
f 80 124 83
f 80 83 81
f 80 123 124
f 82 85 125
f 82 125 87
f 83 124 84
f 84 124 126
f 84 126 86
f 85 86 127
f 85 127 125
f 86 126 128
f 86 128 127
f 87 129 88
f 87 125 130
f 87 130 129
f 88 129 131
f 88 131 132
f 88 132 94
f 89 92 93
f 89 93 133
f 89 133 90
f 90 133 93
f 90 93 91
f 92 99 93
f 94 132 134
f 94 134 135
f 94 135 136
f 94 136 137
f 94 137 98
f 94 98 95
f 95 98 96
f 96 98 97
f 98 137 99
f 99 137 138
f 99 138 100
f 100 138 198
f 100 198 139
f 100 139 101
f 101 139 140
f 101 140 102
f 102 140 141
f 102 141 142
f 102 142 103
f 103 142 143
f 103 143 108
f 104 111 144
f 104 144 145
f 104 145 107
f 105 115 106
f 105 107 115
f 107 145 204
f 107 204 146
f 107 146 147
f 107 147 148
f 107 148 149
f 107 149 150
f 107 150 115
f 108 143 109
f 109 143 151
f 109 151 152
f 109 152 110
f 110 152 111
f 111 152 153
f 111 153 205
f 111 205 144
f 112 154 113
f 112 114 154
f 113 154 155
f 113 155 156
f 113 156 116
f 114 157 154
f 114 115 158
f 114 158 157
f 115 150 159
f 115 159 160
f 115 160 161
f 115 161 162
f 115 162 163
f 115 163 164
f 115 164 165
f 115 165 158
f 116 156 166
f 116 166 117
f 117 166 118
f 118 167 168
f 118 168 169
f 118 169 170
f 118 170 119
f 118 166 171
f 118 171 167
f 119 170 172
f 119 172 120
f 120 172 173
f 120 173 174
f 120 174 121
f 121 174 175
f 121 175 122
f 122 175 176
f 122 176 123
f 123 176 177
f 123 177 178
f 123 178 179
f 123 179 124
f 124 179 126
f 125 127 180
f 125 180 130
f 126 179 181
f 126 181 182
f 126 182 128
f 127 128 180
f 128 182 183
f 128 183 184
f 128 184 180
f 129 130 185
f 129 185 186
f 129 186 187
f 129 187 131
f 130 188 189
f 130 189 185
f 130 180 188
f 131 187 190
f 131 190 132
f 132 190 191
f 132 191 134
f 134 191 192
f 134 192 193
f 134 193 194
f 134 194 195
f 134 195 196
f 134 196 135
f 135 196 136
f 136 196 137
f 137 196 197
f 137 197 138
f 138 197 198
f 139 198 199
f 139 199 200
f 139 200 140
f 140 200 141
f 141 200 201
f 141 201 202
f 141 202 151
f 141 151 143
f 141 143 142
f 144 203 204
f 144 204 145
f 144 205 206
f 144 206 203
f 146 159 147
f 146 204 159
f 147 159 148
f 148 159 149
f 149 159 150
f 151 202 207
f 151 207 152
f 152 207 208
f 152 208 153
f 153 208 205
f 154 209 210
f 154 210 155
f 154 157 212
f 154 212 209
f 155 210 211
f 155 211 156
f 156 211 166
f 157 158 213
f 157 213 212
f 158 165 213
f 159 204 214
f 159 214 260
f 159 260 215
f 159 215 216
f 159 216 217
f 159 217 160
f 160 217 218
f 160 218 213
f 160 213 161
f 161 213 162
f 162 213 163
f 163 213 164
f 164 213 165
f 166 211 171
f 167 219 220
f 167 220 221
f 167 221 168
f 167 171 222
f 167 222 219
f 168 221 169
f 169 221 172
f 169 172 170
f 171 223 222
f 171 211 223
f 172 221 224
f 172 224 225
f 172 225 173
f 173 226 227
f 173 227 174
f 173 225 226
f 174 227 228
f 174 228 175
f 175 228 176
f 176 228 229
f 176 229 230
f 176 230 231
f 176 231 177
f 177 231 232
f 177 232 178
f 178 233 179
f 178 232 233
f 179 233 181
f 180 184 234
f 180 234 235
f 180 235 188
f 181 233 236
f 181 236 182
f 182 236 237
f 182 237 183
f 183 238 184
f 183 237 239
f 183 239 240
f 183 240 238
f 184 238 241
f 184 241 234
f 185 189 188
f 185 188 235
f 185 235 234
f 185 234 275
f 185 275 278
f 185 278 277
f 185 277 240
f 185 240 279
f 185 279 317
f 185 317 316
f 185 316 315
f 185 315 343
f 185 343 363
f 185 363 389
f 185 389 418
f 185 418 446
f 185 446 473
f 185 473 475
f 185 475 451
f 185 451 450
f 185 450 448
f 185 448 420
f 185 420 419
f 185 419 391
f 185 391 390
f 185 390 365
f 185 365 364
f 185 364 346
f 185 346 345
f 185 345 344
f 185 344 319
f 185 319 318
f 185 318 281
f 185 281 280
f 185 280 242
f 185 242 197
f 185 197 196
f 185 196 195
f 185 195 194
f 185 194 193
f 185 193 192
f 185 192 191
f 185 191 190
f 185 190 187
f 185 187 186
f 197 242 198
f 198 242 243
f 198 243 199
f 199 243 244
f 199 244 245
f 199 245 200
f 200 245 246
f 200 246 201
f 201 246 247
f 201 247 202
f 202 247 248
f 202 248 207
f 203 249 204
f 203 206 250
f 203 250 249
f 204 249 214
f 205 208 251
f 205 251 252
f 205 252 206
f 206 252 253
f 206 253 250
f 207 248 208
f 208 248 254
f 208 254 251
f 209 255 210
f 209 212 255
f 210 255 256
f 210 256 257
f 210 257 211
f 211 257 223
f 212 258 255
f 212 213 258
f 213 259 258
f 213 218 259
f 214 249 260
f 215 260 261
f 215 261 216
f 216 261 262
f 216 262 217
f 217 262 259
f 217 259 218
f 219 222 223
f 219 223 266
f 219 266 301
f 219 301 300
f 219 300 299
f 219 299 302
f 219 302 304
f 219 304 303
f 219 303 308
f 219 308 307
f 219 307 306
f 219 306 340
f 219 340 339
f 219 339 355
f 219 355 360
f 219 360 359
f 219 359 382
f 219 382 381
f 219 381 408
f 219 408 407
f 219 407 435
f 219 435 465
f 219 465 464
f 219 464 463
f 219 463 490
f 219 490 508
f 219 508 507
f 219 507 506
f 219 506 518
f 219 518 517
f 219 517 527
f 219 527 526
f 219 526 530
f 219 530 525
f 219 525 524
f 219 524 523
f 219 523 522
f 219 522 515
f 219 515 514
f 219 514 513
f 219 513 512
f 219 512 497
f 219 497 496
f 219 496 472
f 219 472 443
f 219 443 441
f 219 441 413
f 219 413 386
f 219 386 362
f 219 362 342
f 219 342 314
f 219 314 341
f 219 341 312
f 219 312 311
f 219 311 310
f 219 310 309
f 219 309 264
f 219 264 263
f 219 263 220
f 220 263 221
f 221 263 264
f 221 264 265
f 221 265 224
f 223 257 266
f 224 265 226
f 224 226 225
f 226 265 267
f 226 267 227
f 227 267 268
f 227 268 269
f 227 269 228
f 228 269 229
f 229 269 270
f 229 270 231
f 229 231 230
f 231 270 271
f 231 271 232
f 232 271 272
f 232 272 273
f 232 273 233
f 233 273 272
f 233 272 274
f 233 274 236
f 234 241 275
f 236 274 237
f 237 274 276
f 237 276 239
f 238 240 277
f 238 277 278
f 238 278 241
f 239 276 240
f 240 276 279
f 241 278 275
f 242 280 243
f 243 280 281
f 243 281 282
f 243 282 283
f 243 283 244
f 244 283 284
f 244 284 285
f 244 285 286
f 244 286 245
f 245 286 287
f 245 287 246
f 246 287 247
f 247 287 288
f 247 288 248
f 248 288 289
f 248 289 290
f 248 290 291
f 248 291 254
f 249 250 292
f 249 292 260
f 250 253 293
f 250 293 292
f 251 254 294
f 251 294 295
f 251 295 252
f 252 296 253
f 252 295 296
f 253 296 297
f 253 297 293
f 254 291 298
f 254 298 294
f 255 299 300
f 255 300 256
f 255 258 302
f 255 302 299
f 256 300 301
f 256 301 257
f 257 301 266
f 258 259 304
f 258 304 302
f 259 303 304
f 259 262 303
f 260 292 305
f 260 305 261
f 261 305 306
f 261 306 307
f 261 307 308
f 261 308 262
f 262 308 303
f 264 309 265
f 265 309 267
f 267 309 310
f 267 310 311
f 267 311 268
f 268 311 269
f 269 311 312
f 269 312 313
f 269 313 270
f 270 313 271
f 271 313 314
f 271 314 315
f 271 315 316
f 271 316 274
f 271 274 272
f 274 316 317
f 274 317 276
f 276 317 279
f 281 318 282
f 282 318 319
f 282 319 320
f 282 320 283
f 283 320 284
f 284 320 321
f 284 321 322
f 284 322 285
f 285 322 323
f 285 323 286
f 286 323 324
f 286 324 287
f 287 324 325
f 287 325 288
f 288 325 326
f 288 326 327
f 288 327 289
f 289 327 290
f 290 328 291
f 290 327 329
f 290 329 330
f 290 330 328
f 291 328 298
f 292 293 305
f 293 297 331
f 293 331 332
f 293 332 305
f 294 298 333
f 294 333 295
f 295 333 334
f 295 334 296
f 296 334 335
f 296 335 297
f 297 335 336
f 297 336 331
f 298 328 337
f 298 337 338
f 298 338 333
f 305 332 339
f 305 339 340
f 305 340 306
f 312 341 313
f 313 341 314
f 314 342 315
f 315 342 343
f 319 344 320
f 320 345 346
f 320 346 321
f 320 344 345
f 321 346 347
f 321 347 322
f 322 347 348
f 322 348 323
f 323 348 349
f 323 349 324
f 324 349 350
f 324 350 325
f 325 350 351
f 325 351 326
f 326 351 327
f 327 351 329
f 328 330 337
f 329 351 352
f 329 352 330
f 330 352 353
f 330 353 354
f 330 354 337
f 331 355 339
f 331 339 332
f 331 336 355
f 333 338 356
f 333 356 334
f 334 356 357
f 334 357 335
f 335 357 358
f 335 358 336
f 336 358 359
f 336 359 360
f 336 360 355
f 337 354 361
f 337 361 338
f 338 361 356
f 342 362 387
f 342 387 388
f 342 388 363
f 342 363 343
f 346 364 347
f 347 364 365
f 347 365 366
f 347 366 367
f 347 367 348
f 348 367 368
f 348 368 369
f 348 369 349
f 349 369 370
f 349 370 350
f 350 370 371
f 350 371 351
f 351 371 372
f 351 372 352
f 352 372 373
f 352 373 374
f 352 374 353
f 353 374 375
f 353 375 354
f 354 375 376
f 354 376 361
f 356 361 377
f 356 377 378
f 356 378 357
f 357 379 358
f 357 378 379
f 358 379 380
f 358 380 381
f 358 381 382
f 358 382 359
f 361 376 383
f 361 383 384
f 361 384 385
f 361 385 378
f 361 378 377
f 362 386 387
f 363 388 416
f 363 416 415
f 363 415 414
f 363 414 442
f 363 442 471
f 363 471 495
f 363 495 511
f 363 511 521
f 363 521 529
f 363 529 531
f 363 531 528
f 363 528 520
f 363 520 519
f 363 519 510
f 363 510 494
f 363 494 502
f 363 502 501
f 363 501 500
f 363 500 499
f 363 499 480
f 363 480 474
f 363 474 447
f 363 447 444
f 363 444 417
f 363 417 389
f 365 390 366
f 366 391 392
f 366 392 367
f 366 390 391
f 367 392 368
f 368 393 369
f 368 392 394
f 368 394 395
f 368 395 396
f 368 396 393
f 369 393 370
f 370 393 397
f 370 397 371
f 371 397 398
f 371 398 399
f 371 399 372
f 372 399 373
f 373 399 400
f 373 400 401
f 373 401 374
f 374 401 402
f 374 402 403
f 374 403 375
f 375 403 404
f 375 404 376
f 376 404 383
f 378 385 405
f 378 405 379
f 379 405 406
f 379 406 380
f 380 406 407
f 380 407 408
f 380 408 381
f 383 404 409
f 383 409 410
f 383 410 411
f 383 411 384
f 384 412 385
f 384 411 412
f 385 412 406
f 385 406 405
f 386 413 387
f 387 413 414
f 387 414 415
f 387 415 416
f 387 416 388
f 389 417 418
f 391 419 392
f 392 419 420
f 392 420 394
f 393 396 421
f 393 421 397
f 394 420 422
f 394 422 395
f 395 423 396
f 395 422 424
f 395 424 425
f 395 425 426
f 395 426 423
f 396 423 421
f 397 421 427
f 397 427 398
f 398 427 399
f 399 427 400
f 400 427 457
f 400 457 428
f 400 428 429
f 400 429 401
f 401 429 402
f 402 429 430
f 402 430 431
f 402 431 403
f 403 431 404
f 404 431 409
f 406 412 411
f 406 411 432
f 406 432 433
f 406 433 434
f 406 434 435
f 406 435 407
f 409 431 436
f 409 436 437
f 409 437 438
f 409 438 410
f 410 438 439
f 410 439 411
f 411 439 440
f 411 440 432
f 413 441 414
f 414 441 443
f 414 443 442
f 417 444 418
f 418 445 446
f 418 444 447
f 418 447 445
f 420 448 422
f 421 423 449
f 421 449 457
f 421 457 427
f 422 448 450
f 422 450 451
f 422 451 452
f 422 452 424
f 423 426 453
f 423 453 449
f 424 452 425
f 425 454 426
f 425 452 455
f 425 455 456
f 425 456 454
f 426 454 453
f 428 457 458
f 428 458 429
f 429 458 459
f 429 459 430
f 430 459 460
f 430 460 461
f 430 461 436
f 430 436 431
f 432 440 433
f 433 440 462
f 433 462 463
f 433 463 464
f 433 464 465
f 433 465 434
f 434 465 435
f 436 461 437
f 437 466 438
f 437 461 467
f 437 467 468
f 437 468 469
f 437 469 466
f 438 466 439
f 439 466 470
f 439 470 462
f 439 462 440
f 442 443 472
f 442 472 471
f 445 455 452
f 445 452 446
f 445 447 455
f 446 452 473
f 447 474 455
f 449 453 457
f 451 475 452
f 452 475 473
f 453 476 457
f 453 454 477
f 453 477 478
f 453 478 476
f 454 456 479
f 454 479 477
f 455 474 480
f 455 480 456
f 456 480 479
f 457 476 458
f 458 476 481
f 458 481 482
f 458 482 483
f 458 483 484
f 458 484 485
f 458 485 459
f 459 485 460
f 460 485 486
f 460 486 487
f 460 487 461
f 461 487 467
f 462 470 488
f 462 488 489
f 462 489 463
f 463 489 490
f 466 469 491
f 466 491 470
f 467 487 492
f 467 492 468
f 468 493 469
f 468 492 494
f 468 494 493
f 469 493 491
f 470 491 488
f 471 472 496
f 471 496 497
f 471 497 495
f 476 478 481
f 477 479 478
f 478 498 481
f 478 479 480
f 478 480 499
f 478 499 498
f 481 498 482
f 482 484 483
f 482 498 499
f 482 499 500
f 482 500 484
f 484 486 485
f 484 500 501
f 484 501 486
f 486 501 502
f 486 502 487
f 487 502 492
f 488 491 503
f 488 503 504
f 488 504 505
f 488 505 506
f 488 506 507
f 488 507 489
f 489 507 508
f 489 508 490
f 491 493 503
f 492 502 494
f 493 509 503
f 493 494 510
f 493 510 509
f 495 497 512
f 495 512 513
f 495 513 514
f 495 514 515
f 495 515 511
f 503 509 504
f 504 516 517
f 504 517 518
f 504 518 505
f 504 509 519
f 504 519 520
f 504 520 516
f 505 518 506
f 509 510 519
f 511 515 522
f 511 522 523
f 511 523 524
f 511 524 525
f 511 525 521
f 516 526 527
f 516 527 517
f 516 520 528
f 516 528 526
f 521 525 529
f 525 530 529
f 526 528 531
f 526 531 529
f 526 529 530
