# ABC bottle geometry; canonical radius 1 and height 1, bottom z=0.
# https://github.com/mikedh/trimesh
v -0.488896221538 -0.868606809977 0.0588484713413
v -0.488896221538 -0.868390700636 0.068829823789
v -0.54337950501 -0.836635352928 0.068829823789
v -0.543527944506 -0.836743295315 0.0588484713413
v -0.542538198154 -0.835987249471 0.0489546445627
v -0.488896221538 -0.867202660676 0.0489546445627
v -0.53476904112 -0.830802646382 0.336138059519
v -0.543082551162 -0.836419243586 0.0787236505676
v -0.488896221538 -0.840307714616 0.753342019489
v -0.526455605934 -0.825078106791 0.59355246847
v -0.580790375054 -0.810928521683 0.068829823789
v -0.58093881455 -0.810928521683 0.0588484713413
v -0.579949068199 -0.810280418226 0.0489546445627
v -0.488896221538 -0.866986626191 0.0485168577815
v -0.538480477653 -0.833178876013 0.0390608276863
v -0.580493421206 -0.810712562053 0.0787236505676
v -0.488896221538 -0.839551668772 0.771728757328
v -0.524278193904 -0.823565940248 0.661058079089
v -0.629731243642 -0.773556501915 0.068829823789
v -0.610036099697 -0.757678790633 0.771728757328
v -0.629780723474 -0.773556501915 0.0588484713413
v -0.628939491475 -0.772800381215 0.0489546445627
v -0.625426049125 -0.769992082613 0.0390608276863
v -0.575891272842 -0.807364102381 0.0390608276863
v -0.488896221538 -0.861910115201 0.0390608276863
v -0.530760800451 -0.827994422636 0.0291670009076
v -0.561491069764 -0.795914873488 0.702472019388
v -0.561491069764 -0.792782523157 0.771728757328
v -0.488896221538 -0.83868753083 0.781622584106
v -0.519676120395 -0.820649624403 0.781622584106
v -0.520368912899 -0.821081618518 0.771728757328
v -0.667142113687 -0.742341090709 0.068829823789
v -0.66724107335 -0.742449107952 0.0588484713413
v -0.609442341713 -0.757246721662 0.781622584106
v -0.647446969741 -0.723871115311 0.771728757328
v -0.648535675756 -0.724951138027 0.732153489822
v -0.666350286663 -0.741693062108 0.0489546445627
v -0.618844482914 -0.764699462282 0.0291670009076
v -0.662886324146 -0.738560636922 0.0390608276863
v -0.568221075471 -0.802071556906 0.0291670009076
v -0.488896221538 -0.861477971374 0.0386230310029
v -0.488896221538 -0.851865035609 0.0291670009076
v -0.525416379751 -0.824321986092 0.0238260932784
v -0.561491069764 -0.791810517684 0.781622584106
v -0.488896221538 -0.835123111528 0.791603966261
v -0.516706956197 -0.818705388888 0.791603966261
v -0.561491069764 -0.788030063896 0.791603966261
v -0.697130110664 -0.696112106164 0.405482352834
v -0.702573491028 -0.701296634397 0.207430855043
v -0.705790054386 -0.704428984727 0.088617467444
v -0.706087008234 -0.704645019213 0.0787236505676
v -0.706334407394 -0.704861053698 0.068829823789
v -0.70648284689 -0.705077088184 0.0588484713413
v -0.687084656792 -0.686499020687 0.771728757328
v -0.705691094722 -0.704320967484 0.0489546445627
v -0.607165970019 -0.755302486146 0.791603966261
v -0.646902616733 -0.723331029097 0.781622584106
v -0.702375571701 -0.701080599911 0.0390608276863
v -0.656255352959 -0.732403953504 0.0291670009076
v -0.607908242354 -0.755842572361 0.019273174129
v -0.695991999673 -0.695031933736 0.0291670009076
v -0.488896221538 -0.8369593298 0.0199736171353
v -0.554810618745 -0.795266844887 0.0199736171353
v -0.513391433176 -0.816653210986 0.0171718253059
v -0.488896221538 -0.82540215852 0.801497783137
v -0.508541885651 -0.813412843412 0.801497783137
v -0.60315772935 -0.752062118573 0.798871111961
v -0.743695797606 -0.668245004918 0.068829823789
v -0.695249652482 -0.694275887892 0.474739080871
v -0.743844162246 -0.668353097017 0.0588484713413
v -0.686540303784 -0.685959009329 0.781622584106
v -0.72449545198 -0.646534736803 0.771728757328
v -0.728058374162 -0.65053115022 0.643021562754
v -0.729691358328 -0.652367368492 0.583658661496
v -0.741072992232 -0.665220746687 0.167855587538
v -0.743052410079 -0.667488959074 0.0489546445627
v -0.644576840063 -0.721170833952 0.791603966261
v -0.68426393209 -0.683798739328 0.791603966261
v -0.739786441745 -0.663708580143 0.0390608276863
v -0.685501077601 -0.6848788369 0.019273174129
v -0.645319112399 -0.722358948767 0.019273174129
v -0.600287524816 -0.749685888943 0.0141073871536
v -0.733402794862 -0.656579741539 0.0291670009076
v -0.488896221538 -0.836743295315 0.0198860617595
v -0.488896221538 -0.82388991712 0.0149829409114
v -0.488896221538 -0.80747219448 0.810516046255
v -0.596922521962 -0.746985607583 0.805525340325
v -0.567775682128 -0.772584346729 0.801935550114
v -0.631413707641 -0.72095472461 0.801935550114
v -0.678127834078 -0.677858090395 0.801497783137
v -0.757205213996 -0.610026780122 0.742047316601
v -0.763143467536 -0.617695555228 0.494526724526
v -0.767399182221 -0.623204135189 0.316350425766
v -0.772842562585 -0.630224956549 0.088617467444
v -0.773287955928 -0.630764967908 0.068829823789
v -0.773436320568 -0.630981002393 0.0588484713413
v -0.772743602921 -0.630008922064 0.0489546445627
v -0.723951098973 -0.645886633346 0.781622584106
v -0.756017548317 -0.608406596335 0.781622584106
v -0.756462941661 -0.609054624936 0.771728757328
v -0.769873473243 -0.626336560375 0.0390608276863
v -0.721724281966 -0.643294369229 0.791603966261
v -0.764331133215 -0.619099704528 0.0291670009076
v -0.722911947645 -0.644806535773 0.019273174129
v -0.677138087727 -0.676886010066 0.0137571458461
v -0.626465275309 -0.701944737854 0.010605152318
v -0.60271226115 -0.677102044552 0.00412603470585
v -0.561491069764 -0.730459792844 0.00692779682859
v -0.521012150714 -0.745905510011 0.00465135705832
v -0.561491069764 -0.763079278495 0.0118309176767
v -0.755176316318 -0.607326423907 0.019273174129
v -0.488896221538 -0.794402706944 0.00911671092973
v -0.549268278717 -0.76599559434 0.811391609916
v -0.488896221538 -0.804339844149 0.811916932268
v -0.637747874692 -0.696112106164 0.810340935504
v -0.673773084874 -0.673645642493 0.806400903985
v -0.586728553738 -0.739100797992 0.811391609916
v -0.720685055783 -0.630764967908 0.801497783137
v -0.751168000793 -0.602141895674 0.798258224331
v -0.793081984682 -0.561421416234 0.761834960256
v -0.807680181943 -0.577731271343 0.197537028265
v -0.809807964429 -0.580539495089 0.108405121001
v -0.810253357773 -0.581187598546 0.088617467444
v -0.810748230949 -0.581727684761 0.068829823789
v -0.810847190613 -0.58194364439 0.0588484713413
v -0.810154398109 -0.580863546818 0.0489546445627
v -0.754038130471 -0.605922274606 0.791603966261
v -0.791646919843 -0.561421416234 0.781622584106
v -0.792587111506 -0.561421416234 0.771728757328
v -0.807284268431 -0.576975075787 0.0390608276863
v -0.801741928403 -0.56963035241 0.0291670009076
v -0.825148434026 -0.526533643339 0.0233882965951
v -0.749139103114 -0.599549556702 0.0141949425294
v -0.702425051533 -0.626336560375 0.0106927076938
v -0.677781400399 -0.603330010489 0.00403843972122
v -0.652593396257 -0.653231356723 0.00710291748237
v -0.631116828649 -0.631521088608 0.0032504413392
v -0.561491069764 -0.692979680978 0.0032504413392
v -0.488896221538 -0.756490600962 0.00386332896966
v -0.488896221538 -0.790730345255 0.00850379359263
v -0.534719636144 -0.755950589603 0.818658755616
v -0.488896221538 -0.789110161468 0.817345405175
v -0.611916557879 -0.685850992086 0.821285436694
v -0.663628596481 -0.663924539773 0.813055171958
v -0.695497126498 -0.637893731655 0.810340935504
v -0.74612053394 -0.595553143285 0.804824907221
v -0.560402438605 -0.726571321814 0.821723193769
v -0.772793082753 -0.566930071051 0.801497783137
v -0.81965557383 -0.517676753418 0.791603966261
v -0.787737563982 -0.561421416234 0.791603966261
v -0.823416415339 -0.523941379223 0.716743644663
v -0.823564929691 -0.524157413709 0.710089406397
v -0.834847529075 -0.540899188078 0.177749414316
v -0.83653006793 -0.543383509807 0.0985112942226
v -0.837123900769 -0.544355590137 0.068829823789
v -0.824356681859 -0.525345528524 0.672703023286
v -0.837222785577 -0.544463607379 0.0588484713413
v -0.836480513242 -0.54349152705 0.0489546445627
v -0.833907337412 -0.53960305602 0.0390608276863
v -0.821634991677 -0.520917046136 0.781622584106
v -0.822129789996 -0.521781184078 0.771728757328
v -0.829008310055 -0.532258257786 0.0291670009076
v -0.854641632684 -0.486569359455 0.0291670009076
v -0.886510087845 -0.424678623258 0.0291670009076
v -0.900316458083 -0.378773615585 0.023213205648
v -0.83836104628 -0.488081525999 0.0197985360904
v -0.817478236656 -0.514112334116 0.0168216236072
v -0.831532080909 -0.464210913027 0.0126189457653
v -0.7632424272 -0.561421416234 0.0119184730525
v -0.731324417351 -0.561421416234 0.00692779682859
v -0.746466892764 -0.52145713235 0.00465135705832
v -0.762203201016 -0.47155571126 0.00342556199297
v -0.693913622163 -0.561421416234 0.0032504413392
v -0.636312734997 -0.561421416234 0.00132421316983
v -0.561491069764 -0.636273547869 0.00141173883897
v -0.492261299247 -0.716958386049 0.00219979663427
v -0.488896221538 -0.724303109426 0.00237485787476
v -0.491519026912 -0.775068593603 0.821723193769
v -0.519725525371 -0.745473366184 0.825312993882
v -0.488896221538 -0.776688777389 0.821723193769
v -0.601376230831 -0.676021872123 0.82680143527
v -0.649327353068 -0.650099081249 0.821285436694
v -0.686243349936 -0.612619044238 0.821285436694
v -0.738351376906 -0.585292104062 0.811391609916
v -0.766607355197 -0.547920009438 0.811391609916
v -0.81431115313 -0.508603754155 0.801497783137
v -0.5613921101 -0.694167870649 0.830566346136
v -0.835292922419 -0.471123642289 0.801497783137
v -0.840092990111 -0.480196641551 0.791603966261
v -0.842319807117 -0.484301072212 0.771728757328
v -0.842517726445 -0.484733066327 0.761834960256
v -0.843161039117 -0.485921255998 0.732153489822
v -0.844497144292 -0.486569359455 0.692578212414
v -0.870922293944 -0.486569359455 0.068829823789
v -0.871120213272 -0.486569359455 0.0588484713413
v -0.869784108097 -0.486569359455 0.0489546445627
v -0.864538721917 -0.486569359455 0.0390608276863
v -0.841874413774 -0.483545026368 0.781622584106
v -0.891508149721 -0.434939737336 0.0390608276863
v -0.90412685428 -0.387198511391 0.0291670009076
v -0.92307972589 -0.336865096186 0.0291670009076
v -0.908481603485 -0.3366490617 0.0196234154366
v -0.8935370474 -0.361383737759 0.0165589475776
v -0.879384243482 -0.406856676461 0.0196234154366
v -0.902543349945 -0.311590333912 0.0133193887716
v -0.841627014614 -0.406856676461 0.00937935725264
v -0.812133815956 -0.428567019432 0.00605223316858
v -0.789865421324 -0.49283398526 0.00859135887062
v -0.825445387874 -0.378665598342 0.00421356037499
v -0.786698412654 -0.406856676461 0.00281267436252
v -0.71741908745 -0.492509933532 0.00228732230341
v -0.786005620151 -0.336865096186 0.00149932392139
v -0.711183954918 -0.411717227821 0.00114909251606
v -0.786005620151 0.234840976346 0.000886446193147
v -0.488896221538 -0.63108894478 0.00211221155185
v -0.488896221538 -0.716742276707 0.00219979663427
v -0.488896221538 -0.745473366184 0.831179223864
v -0.504434610462 -0.734888275233 0.831179223864
v -0.586332715082 -0.662304355986 0.833368137965
v -0.632106500144 -0.632169192065 0.830216134535
v -0.676742174215 -0.602141895674 0.826976546022
v -0.726870783339 -0.560017266933 0.821723193769
v -0.756215467645 -0.534094550915 0.818746281285
v -0.806492516264 -0.485273227397 0.811829376892
v -0.829057789887 -0.459566396152 0.808764928838
v -0.536402100143 -0.683474687599 0.838358814189
v -0.866023266588 -0.411717227821 0.801497783137
v -0.875573847285 -0.411717227821 0.791603966261
v -0.879730677162 -0.412041279549 0.771728757328
v -0.894229839903 -0.440664351783 0.088617467444
v -0.894625753415 -0.441528414869 0.068829823789
v -0.894724638223 -0.441744449355 0.0588484713413
v -0.894130880239 -0.440340300054 0.0489546445627
v -0.882897685832 -0.404264412344 0.7809221411
v -0.908679522813 -0.397567642712 0.0390608276863
v -0.932333427595 -0.336865096186 0.0390608276863
v -0.946387271849 -0.262012964551 0.0291670009076
v -0.931393235932 -0.262012964551 0.019273174129
v -0.910015553132 -0.262012964551 0.0117433821053
v -0.882798726168 -0.262012964551 0.00675267617482
v -0.873347030279 -0.3366490617 0.00972958865797
v -0.83326402474 -0.336865096186 0.0035131470754
v -0.786005620151 -0.262012964551 0.00106155694471
v -0.845387930979 -0.262012964551 0.00272508928009
v -0.854740592348 -0.187160832917 0.00237485787476
v -0.860876765216 -0.0374565696472 0.0017619702443
v -0.860876765216 0.0373955619875 0.00184956522894
v -0.853206567845 0.187099825257 0.00237485787476
v -0.847020915146 0.234840976346 0.00263756361096
v -0.728355328009 0.234840976346 0.00272508928009
v -0.488896221538 -0.623312152431 0.00219979663427
v -0.488896221538 -0.715122092921 0.838709045594
v -0.565895298801 -0.640270036142 0.841861049025
v -0.612955709206 -0.612403009752 0.838796610872
v -0.662836844314 -0.586264184392 0.833630813995
v -0.69435894065 -0.561313398991 0.830653901511
v -0.745576180933 -0.519620914077 0.825312993882
v -0.774475546751 -0.491429910815 0.821723193769
v -0.821041158837 -0.444768782443 0.815331611728
v -0.8442002653 -0.416577704325 0.811829376892
v -0.488896221538 -0.707453317815 0.84054772829
v -0.488896221538 -0.704104932998 0.841335726672
v -0.516756436029 -0.668245004918 0.844925516883
v -0.891607109385 -0.355983175041 0.801497783137
v -0.896308217414 -0.368944570478 0.791603966261
v -0.897891721749 -0.373265035624 0.783723932929
v -0.898337115092 -0.374345133197 0.777157230235
v -0.899029907596 -0.37585729974 0.742047316601
v -0.911747571818 -0.404156395102 0.068829823789
v -0.911846606338 -0.404372429587 0.0588484713413
v -0.911153813835 -0.402968280286 0.0489546445627
v -0.93718297512 -0.336865096186 0.0489546445627
v -0.955591568578 -0.262012964551 0.0390608276863
v -0.969348384128 -0.204550710742 0.0390608276863
v -0.964845270283 -0.182732350528 0.0296923232601
v -0.948564609023 -0.187160832917 0.019273174129
v -0.918675571709 -0.187160832917 0.0100798002589
v -0.892151462393 -0.187160832917 0.00517667941078
v -0.896901975397 -0.142552032158 0.00456379178032
v -0.900316458083 -0.0926506110683 0.00421356037499
v -0.867507811259 -0.115441051612 0.0025500280396
v -0.901751522922 -0.0374565696472 0.00403843972122
v -0.901405164098 0.0373955619875 0.00403843972122
v -0.867111897747 0.112895722223 0.0025500280396
v -0.899871139595 0.0883770806497 0.00421356037499
v -0.896209182894 0.13827850174 0.00465135705832
v -0.890617363034 0.187099825257 0.00543935544034
v -0.88443178519 0.234840976346 0.00657756542326
v -0.488896221538 0.234840976346 0.0254020900425
v -0.595339017627 -0.595337183655 0.845363313567
v -0.640370530354 -0.565849898623 0.841773523355
v -0.683175300931 -0.536362763302 0.838183723242
v -0.734738900037 -0.503959162425 0.831179223864
v -0.750178329297 -0.451681586561 0.836520141395
v -0.759481510835 -0.466479125414 0.831179223864
v -0.812628689131 -0.428999088404 0.821285436694
v -0.832373238053 -0.391519051393 0.821285436694
v -0.88260080684 -0.333300676884 0.81104137851
v -0.488896221538 -0.652475310879 0.851229553451
v -0.54545788252 -0.618343583829 0.849215760003
v -0.523436961904 -0.598253424644 0.855870018074
v -0.90061341193 -0.306189771194 0.807451578397
v -0.904968086279 -0.318503063174 0.801497783137
v -0.90947127498 -0.331464533468 0.791603966261
v -0.908580563149 -0.343669808205 0.7809221411
v -0.911698091986 -0.336865096186 0.771728757328
v -0.912094005498 -0.336865096186 0.761834960256
v -0.913974388825 -0.336865096186 0.712365846167
v -0.925207583232 -0.336865096186 0.41537616971
v -0.92783031375 -0.336865096186 0.346031876395
v -0.936044864128 -0.336865096186 0.12819273495
v -0.938222201303 -0.336865096186 0.068829823789
v -0.938370640799 -0.336865096186 0.0588484713413
v -0.960441041246 -0.262012964551 0.0489546445627
v -0.97182267515 -0.217620123422 0.0489546445627
v -0.976276309163 -0.167070673732 0.0390608276863
v -0.974049492156 -0.154757306895 0.0332821233737
v -0.970288575791 -0.126134234662 0.0267154404836
v -0.973307219821 -0.0762328135721 0.0241763246838
v -0.962222464909 -0.105612006506 0.0202362931648
v -0.920209521356 -0.115441051612 0.00850379359263
v -0.930255050085 -0.0374565696472 0.00937935725264
v -0.929562257581 0.0373955619875 0.00937935725264
v -0.919120890197 0.112895722223 0.00850379359263
v -0.916894073191 0.187099825257 0.0103424762884
v -0.901405164098 0.234840976346 0.00972958865797
v -0.488896221538 0.234840976346 0.886864819144
v -0.617904291251 -0.545435687709 0.849303315379
v -0.598852459977 -0.52383336198 0.855957583352
v -0.667834831334 -0.516164586874 0.844750406132
v -0.709550895895 -0.483977020483 0.840635283666
v -0.685995950777 -0.466263090929 0.848340196343
v -0.735877085884 -0.426190789802 0.843174399466
v -0.759234111675 -0.40545252716 0.840372607636
v -0.796249068207 -0.405668561645 0.830391225482
v -0.824703040682 -0.376721437683 0.826626344323
v -0.855334425188 -0.336865096186 0.821285436694
v -0.893091654056 -0.284479428223 0.814105846369
v -0.488896221538 -0.64567059886 0.852367783238
v -0.488896221538 -0.635517502025 0.85403134528
v -0.488896221538 -0.589288442624 0.860860694297
v -0.488896221538 -0.575895053071 0.862786932369
v -0.498347917427 -0.571790622411 0.86226158031
v -0.523189562745 -0.523077316136 0.865763844852
v -0.907788810981 -0.260500798007 0.81104137851
v -0.923525119234 -0.262012964551 0.801497783137
v -0.932284022619 -0.262012964551 0.791603966261
v -0.935352071625 -0.262012964551 0.781622584106
v -0.936044864128 -0.262012964551 0.771728757328
v -0.958560583064 -0.262012964551 0.147980378605
v -0.961331827934 -0.262012964551 0.068829823789
v -0.961529672406 -0.262012964551 0.0588484713413
v -0.97241650799 -0.220752473753 0.0588484713413
v -0.978602235545 -0.180140086412 0.0489546445627
v -0.983501188045 -0.112308701282 0.0390608276863
v -0.988202221218 -0.112308701282 0.0489546445627
v -0.975979430171 -0.105612006506 0.0296923232601
v -0.988499175066 -0.0374565696472 0.0390608276863
v -0.97974027168 -0.0374565696472 0.0291670009076
v -0.973802092997 -0.0374565696472 0.0239136486542
v -0.964251362588 -0.0374565696472 0.0189229427237
v -0.965587542619 0.0406358547048 0.0200611824133
v -0.957471951905 0.112247693622 0.019273174129
v -0.944902727178 0.187099825257 0.019273174129
v -0.910906414675 0.234840976346 0.0115682713538
v -0.51383682652 0.234840976346 0.888615936562
v -0.488896221538 0.23462494186 0.890804811054
v -0.594893624284 -0.44368868487 0.865326048169
v -0.617805256731 -0.473931940891 0.858671819805
v -0.667735946526 -0.43958425421 0.854906899038
v -0.642844821376 -0.495102272504 0.852105107208
v -0.709254016904 -0.407936774033 0.85061666582
v -0.749683456122 -0.376289368712 0.846238877227
v -0.813469921131 -0.350042526109 0.833193017311
v -0.823713369187 -0.300249122262 0.836169929794
v -0.830839288406 -0.329736332438 0.830391225482
v -0.852860209022 -0.262012964551 0.831179223864
v -0.883293599343 -0.260500798007 0.821022760665
v -0.901504123762 -0.234578007133 0.817520525829
v -0.488896221538 -0.561745467962 0.864538049787
v -0.488896221538 -0.508603754155 0.870754521076
v -0.488896221538 -0.497046433163 0.872067841811
v -0.494834475078 -0.494670203533 0.871717640112
v -0.516360522518 -0.439908305939 0.874957198918
v -0.545012489177 -0.473175895047 0.868390516028
v -0.925257063064 -0.187160832917 0.811391609916
v -0.941933637836 -0.187160832917 0.801497783137
v -0.950395587374 -0.187160832917 0.791603966261
v -0.953414156548 -0.187160832917 0.781622584106
v -0.954107023907 -0.187160832917 0.771728757328
v -0.972317548326 -0.220320404782 0.068829823789
v -0.979146513697 -0.183272436742 0.0588484713413
v -0.979097033865 -0.182840367771 0.068829823789
v -0.989389886897 -0.112308701282 0.0588484713413
v -0.993150803262 -0.0374565696472 0.0489546445627
v -0.988004376746 0.0373955619875 0.0390608276863
v -0.978107287513 0.0406358547048 0.0283790025256
v -0.973851572829 0.0178454141608 0.0238260932784
v -0.972861901333 0.0677468352506 0.0245265362847
v -0.970535974951 0.119268440127 0.0283790025256
v -0.933075699931 0.234840976346 0.019273174129
v -0.959847283263 0.187099825257 0.0291670009076
v -0.948119215679 0.234840976346 0.0291670009076
v -0.942675835315 0.234840976346 0.0255772106962
v -0.535857747135 0.234840976346 0.886777253866
v -0.488896221538 0.189043985916 0.892468373096
v -0.565350945794 -0.416901756053 0.871279843429
v -0.612015517543 -0.393787263781 0.867602487939
v -0.639875657179 -0.416685721567 0.86138601665
v -0.682581468091 -0.38968283312 0.857358459462
v -0.733650268878 -0.336865096186 0.853068226244
v -0.758590799003 -0.336865096186 0.848077520314
v -0.795556275704 -0.329736332438 0.840109931607
v -0.810896670445 -0.262012964551 0.842911723436
v -0.830294935398 -0.262012964551 0.837921047212
v -0.872901711791 -0.187160832917 0.831179223864
v -0.893289573384 -0.187160832917 0.824437430222
v -0.90645263095 -0.187160832917 0.819446753998
v -0.488896221538 -0.4887295546 0.872855869899
v -0.488896221538 -0.413229394364 0.879597663541
v -0.488896221538 -0.406532624732 0.880122995796
v -0.535857747135 -0.390006809993 0.876970992365
v -0.937628368463 -0.112308701282 0.811391609916
v -0.954107023907 -0.112308701282 0.801497783137
v -0.962717412941 -0.112308701282 0.791603966261
v -0.965933901442 -0.112308701282 0.781622584106
v -0.966676248634 -0.112308701282 0.771728757328
v -0.973059820661 -0.149140709692 0.427721556913
v -0.973158705469 -0.149896830391 0.421067308745
v -0.973950607348 -0.154217295537 0.375800892302
v -0.97216910883 -0.219348324452 0.0787236505676
v -0.978948519513 -0.181976304684 0.0787236505676
v -0.989241522257 -0.112308701282 0.068829823789
v -0.994338394085 -0.0374565696472 0.0588484713413
v -0.994239434421 -0.0374565696472 0.068829823789
v -0.992656004943 0.0373955619875 0.0489546445627
v -0.986222878227 0.112247693622 0.0489546445627
v -0.979888786032 0.119268440127 0.0381852640262
v -0.976424823515 0.0989622464564 0.0310932389792
v -0.973010265973 0.14886359269 0.0342452325073
v -0.968606186648 0.186991733158 0.0381852640262
v -0.957174998057 0.234840976346 0.0387981516567
v -0.542835152002 0.234840976346 0.88607681086
v -0.544616650521 0.187099825257 0.887652817526
v -0.488896221538 0.182563325625 0.89264349375
v -0.585738807387 -0.351662709896 0.874256755912
v -0.675208224569 -0.302301300164 0.866026491175
v -0.66189665265 -0.352094704011 0.864012697728
v -0.631017868985 -0.326928033836 0.870141633446
v -0.692577442132 -0.331032464496 0.860773138922
v -0.744685469101 -0.288583858883 0.855169545361
v -0.77140742289 -0.262985044881 0.85149222948
v -0.819457654502 -0.206386929015 0.845013082161
v -0.837915578081 -0.1838124481 0.841510847326
v -0.852761174502 -0.112308701282 0.841073050642
v -0.886906001357 -0.116197172312 0.830829022165
v -0.897297888909 -0.143740146973 0.825838316235
v -0.911698091986 -0.116197172312 0.822073435076
v -0.488896221538 -0.336865096186 0.884938581072
v -0.502801626296 -0.336865096186 0.883712786007
v -0.561045751277 -0.330708412768 0.878196787431
v -0.921100308043 -0.0374565696472 0.821285436694
v -0.944160454842 -0.0374565696472 0.811391609916
v -0.960540075766 -0.0374565696472 0.801497783137
v -0.969298979152 -0.0374565696472 0.791603966261
v -0.972515467654 -0.0374565696472 0.782147936165
v -0.972762866813 -0.0595989815901 0.771728757328
v -0.972960860997 -0.0662956763664 0.761834960256
v -0.973059820661 -0.071480279455 0.754305138525
v -0.973158705469 -0.0750446987568 0.747738435831
v -0.968507152128 -0.104963903048 0.75141579132
v -0.967022607458 -0.112308701282 0.761834960256
v -0.988944568409 -0.112308701282 0.0787236505676
v -0.973257814845 -0.0756927273579 0.742047316601
v -0.977117541162 -0.171823132993 0.187643201486
v -0.993843595766 0.0373955619875 0.0588484713413
v -0.988796128914 0.0373955619875 0.247006142353
v -0.990726066928 0.0373955619875 0.177749414316
v -0.992656004943 0.0373955619875 0.108405121001
v -0.993744636102 0.0373955619875 0.068829823789
v -0.99102294592 -0.0374565696472 0.177749414316
v -0.97414845182 0.0373955619875 0.771728757328
v -0.974989758676 0.0373955619875 0.742047316601
v -0.976375343683 0.0373955619875 0.692578212414
v -0.987361064075 0.112247693622 0.0588484713413
v -0.977117541162 0.171114096732 0.0489546445627
v -0.975435152019 0.162041022613 0.0408995004798
v -0.969991696799 0.2084861165 0.0489546445627
v -0.962865852437 0.234840976346 0.0489546445627
v -0.568864388143 0.234840976346 0.88327501903
v -0.582076925541 0.187099825257 0.883887906661
v -0.553474438714 0.112247693622 0.888528371284
v -0.488896221538 0.125209089059 0.894131964845
v -0.60013908532 -0.301869306049 0.875920317954
v -0.64620982423 -0.262012964551 0.872155407089
v -0.682729982443 -0.262012964551 0.867164730865
v -0.723505780485 -0.262985044881 0.860422937223
v -0.753444297631 -0.238682437793 0.856833137109
v -0.824851480178 -0.156485507925 0.846326402896
v -0.800554262724 -0.1838124481 0.850178869137
v -0.860035533216 -0.0374565696472 0.841073050642
v -0.888341141052 -0.0374565696472 0.832842815613
v -0.901355684266 -0.0938387258836 0.827239231954
v -0.828859870559 -0.112308701282 0.847201966556
v -0.488896221538 -0.263525131095 0.88896613826
v -0.518636894212 -0.289555939212 0.885113701726
v -0.903285622281 -0.0374565696472 0.827939665058
v -0.921743620715 0.0373955619875 0.821285436694
v -0.94495220701 0.0373955619875 0.811391609916
v -0.961430787598 0.0373955619875 0.801497783137
v -0.970239170815 0.0373955619875 0.791603966261
v -0.973010265973 0.0373955619875 0.785650171001
v -0.973406254341 -0.0125058591023 0.779171023682
v -0.973604098813 -0.0221189445794 0.771728757328
v -0.982165157726 -0.0374565696472 0.474739080871
v -0.973455659317 0.0770358689991 0.779521255087
v -0.973653653501 0.0785479606869 0.771728757328
v -0.987262029555 0.112247693622 0.068829823789
v -0.973802092997 0.0795201158725 0.761834960256
v -0.973554618981 0.0373955619875 0.78065946507
v -0.977711374002 0.174030412577 0.0588484713413
v -0.97766189417 0.173922320478 0.068829823789
v -0.970585529639 0.211510449588 0.0588484713413
v -0.964152402924 0.234840976346 0.0588484713413
v -0.617112539083 0.234840976346 0.877934111401
v -0.590934788591 0.112247693622 0.884763460419
v -0.625277534773 0.187099825257 0.878897230437
v -0.557334314743 0.0373955619875 0.88896613826
v -0.488896221538 0.0373955619875 0.895357730203
v -0.49963454277 0.112247693622 0.893431492132
v -0.488896221538 0.112247693622 0.894394611168
v -0.558472500591 -0.263633148338 0.882311899995
v -0.608798954186 -0.262012964551 0.87688343699
v -0.660115154132 -0.187160832917 0.873906524506
v -0.732066689687 -0.187160832917 0.863049608399
v -0.694655894498 -0.187160832917 0.868915848283
v -0.760421777354 -0.187160832917 0.858058902468
v -0.805750243928 -0.112308701282 0.852192672486
v -0.888588540211 0.0373955619875 0.832930370988
v -0.832521752405 -0.0374565696472 0.848077520314
v -0.860480851704 0.0373955619875 0.841073050642
v -0.903582501272 0.0373955619875 0.828027230336
v -0.488896221538 -0.26136493595 0.889053693636
v -0.531552552618 -0.239654518123 0.886339457183
v -0.916448679847 0.112247693622 0.821285436694
v -0.93985518547 0.112247693622 0.811391609916
v -0.900910365778 0.112247693622 0.8270641113
v -0.956284361081 0.112247693622 0.801497783137
v -0.964894750115 0.112247693622 0.791603966261
v -0.968952545472 0.106091010204 0.782323046917
v -0.957224552745 0.187099825257 0.781622584106
v -0.968309232801 0.116028072554 0.771728757328
v -0.97741449501 0.172734205663 0.088617467444
v -0.986272432915 0.112247693622 0.108405121001
v -0.973307219821 0.150483776477 0.405482352834
v -0.973554618981 0.152103960263 0.385694709179
v -0.974841244324 0.159448758497 0.286668965235
v -0.976127944523 0.166361562615 0.187643201486
v -0.976771182338 0.169601855332 0.138086561728
v -0.968457672296 0.117000152883 0.761834960256
v -0.968606186648 0.117864290826 0.751941143379
v -0.97182267515 0.140438696884 0.514314368181
v -0.972367028158 0.144111133429 0.474739080871
v -0.973109300493 0.149403678904 0.419141070673
v -0.976375343683 0.0983141429993 0.563783462465
v -0.984738333557 0.112247693622 0.167855587538
v -0.970585529639 0.211402432345 0.068829823789
v -0.970041176631 0.208270082014 0.118298937878
v -0.970486569975 0.210754328888 0.0787236505676
v -0.969150539656 0.203085553782 0.197537028265
v -0.964152402924 0.234840976346 0.0634889161598
v -0.630720915137 0.234840976346 0.876270549359
v -0.594745184788 0.0373955619875 0.885201257102
v -0.633294165824 0.112247693622 0.87986033957
v -0.673525685714 0.0677468352506 0.8757451973
v -0.66273788465 0.187099825257 0.874256755912
v -0.6707545157 0.112247693622 0.875307430323
v -0.556790036592 -0.0374565696472 0.888878582885
v -0.488896221538 -0.00645719292704 0.895270164925
v -0.579206795863 -0.187160832917 0.883537665353
v -0.622654804255 -0.187160832917 0.878634554407
v -0.669269896173 -0.112308701282 0.875132319572
v -0.740578193912 -0.112308701282 0.864450494411
v -0.703117844036 -0.112308701282 0.870141633446
v -0.768289894052 -0.112308701282 0.859547373563
v -0.809610045102 -0.0374565696472 0.852980670868
v -0.885866850029 0.112247693622 0.832054787524
v -0.854889031844 0.112247693622 0.841073050642
v -0.809857519117 0.0373955619875 0.853068226244
v -0.832719671733 0.0373955619875 0.848077520314
v -0.829899021887 0.112247693622 0.847464642585
v -0.488896221538 -0.19353355082 0.89176793009
v -0.541746520843 -0.187160832917 0.887390141496
v -0.906155751958 0.179646934925 0.821285436694
v -0.92867154575 0.187099825257 0.811391609916
v -0.89828763526 0.149727730633 0.82618854764
v -0.945447005329 0.187099825257 0.801497783137
v -0.954107023907 0.187099825257 0.791603966261
v -0.943566622003 0.234840976346 0.791603966261
v -0.946634671009 0.234840976346 0.781622584106
v -0.95786779056 0.187099825257 0.771728757328
v -0.967814284769 0.194768600363 0.316350425766
v -0.968259678113 0.197576898965 0.276775148358
v -0.968705146312 0.200385197567 0.237112325477
v -0.973208260157 0.149943765119 0.412486822505
v -0.958857536912 0.187099825257 0.732153489822
v -0.979344433024 0.112247693622 0.375800892302
v -0.980631058368 0.112247693622 0.32624423274
v -0.964003963428 0.234840976346 0.0733827330362
v -0.964102997948 0.234840976346 0.068829823789
v -0.947327463512 0.234840976346 0.768138967116
v -0.947574862672 0.234840976346 0.758245170044
v -0.654572814104 0.234840976346 0.8732060815
v -0.643686128232 0.0406358547048 0.879422552789
v -0.674317437881 0.0178454141608 0.875832752676
v -0.674317437881 -0.0109936925585 0.875832752676
v -0.59420083178 -0.0374565696472 0.885113701726
v -0.704453949211 0.112247693622 0.870404289671
v -0.741815264568 0.112247693622 0.864713170441
v -0.744932868261 0.0373955619875 0.865238492793
v -0.689905231782 0.234840976346 0.868215405276
v -0.697031151001 0.187099825257 0.869353605357
v -0.504137731471 -0.0374565696472 0.893781723537
v -0.589252324592 -0.112308701282 0.884675905043
v -0.551841454548 -0.112308701282 0.888353260532
v -0.488896221538 -0.0374565696472 0.89518260955
v -0.631859100985 -0.112308701282 0.879685228819
v -0.672981332706 -0.0608951136483 0.875657641924
v -0.744586509437 -0.0374565696472 0.865150927515
v -0.772199249913 -0.0374565696472 0.860247816569
v -0.880720348657 0.179646934925 0.830216134535
v -0.825989666025 0.162149114712 0.846589078925
v -0.839994030447 0.187099825257 0.841685958077
v -0.772397169241 0.0373955619875 0.860247816569
v -0.769477484875 0.112247693622 0.85972246451
v -0.80688835492 0.112247693622 0.852455348516
v -0.488896221538 -0.185864700858 0.892030606119
v -0.488896221538 -0.112308701282 0.894044399567
v -0.89378444656 0.199629151723 0.824612550876
v -0.902988668433 0.234840976346 0.818220958933
v -0.904968086279 0.234840976346 0.817432960551
v -0.917339391678 0.234840976346 0.811479165291
v -0.934758238785 0.234840976346 0.801497783137
v -0.947228503848 0.234840976346 0.771728757328
v -0.70089102703 -0.0365925065604 0.871717640112
v -0.643339694552 -0.0365925065604 0.879334987511
v -0.734442021045 0.187099825257 0.863399810097
v -0.762549634696 0.187099825257 0.858496699151
v -0.70346420286 0.234840976346 0.866114046551
v -0.488896221538 -0.0913544041542 0.894394611168
v -0.835540321578 0.234840976346 0.839759729908
v -0.865528393412 0.234840976346 0.830829022165
v -0.87364390927 0.234840976346 0.828289906365
v -0.820793759677 0.212050460946 0.845363313567
v -0.803078033578 0.187099825257 0.850353989791
v -0.889776131034 0.234840976346 0.822773878082
v -0.730384225688 0.234840976346 0.861736257958
v -0.756413461829 0.234840976346 0.857358459462
v -0.763984699535 0.234840976346 0.855870018074
v -0.81757719632 0.234840976346 0.844575285478
v -0.801791408235 0.234840976346 0.848077520314
f 1 2 3
f 1 3 4
f 1 4 5
f 1 5 6
f 1 6 14
f 1 14 25
f 1 25 41
f 1 41 42
f 1 42 62
f 1 62 84
f 1 84 85
f 1 85 112
f 1 112 140
f 1 140 139
f 1 139 177
f 1 177 216
f 1 216 215
f 1 215 251
f 1 251 289
f 1 289 327
f 1 327 367
f 1 367 406
f 1 406 445
f 1 445 493
f 1 493 531
f 1 531 529
f 1 529 579
f 1 579 626
f 1 626 650
f 1 650 638
f 1 638 637
f 1 637 592
f 1 592 543
f 1 543 505
f 1 505 459
f 1 459 421
f 1 421 420
f 1 420 419
f 1 419 382
f 1 382 381
f 1 381 380
f 1 380 342
f 1 342 341
f 1 341 340
f 1 340 339
f 1 339 299
f 1 299 262
f 1 262 261
f 1 261 252
f 1 252 217
f 1 217 180
f 1 180 142
f 1 142 114
f 1 114 86
f 1 86 65
f 1 65 45
f 1 45 29
f 1 29 17
f 1 17 9
f 1 9 2
f 2 7 8
f 2 8 3
f 2 9 10
f 2 10 7
f 3 8 16
f 3 16 11
f 3 11 4
f 4 11 12
f 4 12 13
f 4 13 5
f 5 14 6
f 5 13 15
f 5 15 14
f 7 16 8
f 7 10 16
f 9 17 10
f 10 17 18
f 10 18 16
f 11 19 12
f 11 16 20
f 11 20 19
f 12 19 21
f 12 21 22
f 12 22 13
f 13 22 23
f 13 23 24
f 13 24 15
f 14 15 25
f 15 24 26
f 15 26 25
f 16 18 27
f 16 27 28
f 16 28 20
f 17 29 30
f 17 30 31
f 17 31 18
f 18 31 28
f 18 28 27
f 19 32 33
f 19 33 21
f 19 20 32
f 20 28 34
f 20 34 35
f 20 35 36
f 20 36 32
f 21 33 22
f 22 33 37
f 22 37 23
f 23 38 24
f 23 37 39
f 23 39 38
f 24 38 40
f 24 40 26
f 25 26 41
f 26 42 41
f 26 40 43
f 26 43 42
f 28 31 30
f 28 30 44
f 28 44 34
f 29 45 30
f 30 45 46
f 30 46 47
f 30 47 44
f 32 48 49
f 32 49 50
f 32 50 51
f 32 51 52
f 32 52 53
f 32 53 33
f 32 36 54
f 32 54 48
f 33 53 55
f 33 55 37
f 34 44 56
f 34 56 57
f 34 57 35
f 35 54 36
f 35 57 71
f 35 71 54
f 37 55 58
f 37 58 39
f 38 39 59
f 38 59 60
f 38 60 40
f 39 58 61
f 39 61 59
f 40 60 43
f 42 43 62
f 43 60 63
f 43 63 64
f 43 64 62
f 44 47 56
f 45 65 46
f 46 65 66
f 46 66 67
f 46 67 47
f 47 67 56
f 48 68 49
f 48 54 69
f 48 69 68
f 49 68 50
f 50 68 51
f 51 68 52
f 52 68 53
f 53 68 70
f 53 70 55
f 54 71 72
f 54 72 73
f 54 73 74
f 54 74 75
f 54 75 68
f 54 68 69
f 55 70 76
f 55 76 58
f 56 67 77
f 56 77 57
f 57 77 78
f 57 78 71
f 58 79 61
f 58 76 79
f 59 61 80
f 59 80 81
f 59 81 60
f 60 81 82
f 60 82 63
f 61 79 83
f 61 83 80
f 62 64 84
f 63 82 64
f 64 82 85
f 64 85 84
f 65 86 66
f 66 86 87
f 66 87 88
f 66 88 67
f 67 88 87
f 67 87 89
f 67 89 90
f 67 90 78
f 67 78 77
f 68 75 91
f 68 91 92
f 68 92 93
f 68 93 94
f 68 94 95
f 68 95 96
f 68 96 70
f 70 96 97
f 70 97 76
f 71 78 98
f 71 98 72
f 72 98 99
f 72 99 100
f 72 100 73
f 73 100 74
f 74 100 75
f 75 100 91
f 76 97 101
f 76 101 79
f 78 90 102
f 78 102 98
f 79 101 103
f 79 103 83
f 80 104 105
f 80 105 82
f 80 82 81
f 80 83 104
f 82 105 106
f 82 106 107
f 82 107 108
f 82 108 109
f 82 109 110
f 82 110 85
f 83 103 111
f 83 111 104
f 85 110 112
f 86 113 87
f 86 114 113
f 87 115 116
f 87 116 89
f 87 113 117
f 87 117 115
f 89 116 90
f 90 118 119
f 90 119 102
f 90 116 118
f 91 100 120
f 91 120 121
f 91 121 122
f 91 122 92
f 92 122 123
f 92 123 93
f 93 123 94
f 94 123 124
f 94 124 95
f 95 124 96
f 96 124 125
f 96 125 97
f 97 126 101
f 97 125 126
f 98 102 127
f 98 127 99
f 99 127 128
f 99 128 129
f 99 129 100
f 100 129 120
f 101 130 103
f 101 126 130
f 102 119 127
f 103 131 132
f 103 132 111
f 103 130 131
f 104 111 133
f 104 133 105
f 105 133 134
f 105 134 135
f 105 135 136
f 105 136 106
f 106 136 107
f 107 109 108
f 107 136 135
f 107 135 137
f 107 137 138
f 107 138 109
f 109 138 139
f 109 139 140
f 109 140 110
f 110 140 112
f 111 132 133
f 113 114 141
f 113 141 117
f 114 142 141
f 115 117 143
f 115 143 144
f 115 144 116
f 116 144 145
f 116 145 146
f 116 146 118
f 117 141 147
f 117 147 143
f 118 146 119
f 119 146 148
f 119 148 149
f 119 149 150
f 119 150 127
f 120 129 151
f 120 151 121
f 121 151 122
f 122 151 123
f 123 151 152
f 123 152 124
f 124 153 154
f 124 154 155
f 124 155 125
f 124 152 156
f 124 156 153
f 125 155 157
f 125 157 158
f 125 158 126
f 126 158 159
f 126 159 130
f 127 150 128
f 128 150 160
f 128 160 161
f 128 161 129
f 129 161 151
f 130 159 162
f 130 162 131
f 131 162 132
f 132 162 163
f 132 163 164
f 132 164 165
f 132 165 166
f 132 166 167
f 132 167 133
f 133 167 168
f 133 168 169
f 133 169 170
f 133 170 135
f 133 135 134
f 135 170 171
f 135 171 172
f 135 172 173
f 135 173 137
f 137 173 174
f 137 174 175
f 137 175 138
f 138 175 176
f 138 176 177
f 138 177 139
f 141 142 178
f 141 178 179
f 141 179 147
f 142 180 178
f 143 147 181
f 143 181 182
f 143 182 144
f 144 182 183
f 144 183 145
f 145 184 146
f 145 183 184
f 146 184 185
f 146 185 186
f 146 186 148
f 147 179 187
f 147 187 181
f 148 186 149
f 149 186 188
f 149 188 189
f 149 189 160
f 149 160 150
f 151 161 190
f 151 190 191
f 151 191 192
f 151 192 193
f 151 193 194
f 151 194 152
f 152 194 156
f 153 194 154
f 153 156 194
f 154 194 155
f 155 194 195
f 155 195 157
f 157 195 158
f 158 195 196
f 158 196 159
f 159 197 162
f 159 196 197
f 160 189 198
f 160 198 161
f 161 198 190
f 162 197 163
f 163 197 199
f 163 199 164
f 164 200 165
f 164 199 200
f 165 200 201
f 165 201 202
f 165 202 203
f 165 203 204
f 165 204 166
f 166 204 167
f 167 204 168
f 168 205 206
f 168 206 207
f 168 207 208
f 168 208 169
f 168 204 203
f 168 203 205
f 169 208 171
f 169 171 170
f 171 208 207
f 171 207 209
f 171 209 172
f 172 210 211
f 172 211 173
f 172 209 210
f 173 211 174
f 174 211 212
f 174 212 213
f 174 213 175
f 175 213 214
f 175 214 215
f 175 215 216
f 175 216 176
f 176 216 177
f 178 180 217
f 178 217 179
f 179 217 218
f 179 218 187
f 181 187 219
f 181 219 220
f 181 220 221
f 181 221 182
f 182 221 183
f 183 221 222
f 183 222 184
f 184 222 223
f 184 223 185
f 185 223 224
f 185 224 186
f 186 224 225
f 186 225 188
f 187 218 226
f 187 226 219
f 188 225 227
f 188 227 228
f 188 228 189
f 189 228 198
f 190 229 230
f 190 230 231
f 190 231 191
f 190 198 229
f 191 231 192
f 192 231 193
f 193 231 194
f 194 231 232
f 194 232 195
f 195 232 233
f 195 233 196
f 196 233 197
f 197 233 199
f 198 228 234
f 198 234 229
f 199 235 200
f 199 233 235
f 200 235 236
f 200 236 201
f 201 237 238
f 201 238 202
f 201 236 237
f 202 238 205
f 202 205 203
f 205 239 240
f 205 240 241
f 205 241 206
f 205 238 239
f 206 241 209
f 206 209 207
f 209 242 210
f 209 241 240
f 209 240 242
f 210 212 211
f 210 242 212
f 212 243 213
f 212 242 244
f 212 244 245
f 212 245 243
f 213 243 214
f 214 243 246
f 214 246 247
f 214 247 248
f 214 248 249
f 214 249 288
f 214 288 326
f 214 326 365
f 214 365 401
f 214 401 404
f 214 404 403
f 214 403 442
f 214 442 489
f 214 489 524
f 214 524 571
f 214 571 610
f 214 610 609
f 214 609 612
f 214 612 611
f 214 611 644
f 214 644 600
f 214 600 599
f 214 599 643
f 214 643 642
f 214 642 641
f 214 641 640
f 214 640 656
f 214 656 653
f 214 653 652
f 214 652 651
f 214 651 660
f 214 660 661
f 214 661 659
f 214 659 658
f 214 658 657
f 214 657 649
f 214 649 621
f 214 621 613
f 214 613 572
f 214 572 525
f 214 525 490
f 214 490 443
f 214 443 405
f 214 405 366
f 214 366 327
f 214 327 289
f 214 289 250
f 214 250 215
f 215 250 251
f 217 252 218
f 218 252 226
f 219 226 253
f 219 253 254
f 219 254 220
f 220 254 255
f 220 255 221
f 221 255 256
f 221 256 257
f 221 257 222
f 222 257 223
f 223 257 258
f 223 258 224
f 224 258 259
f 224 259 225
f 225 259 260
f 225 260 227
f 226 252 261
f 226 261 262
f 226 262 263
f 226 263 253
f 227 264 265
f 227 265 228
f 227 260 264
f 228 265 266
f 228 266 234
f 229 234 267
f 229 267 230
f 230 267 231
f 231 267 268
f 231 268 269
f 231 269 270
f 231 270 232
f 232 270 233
f 233 270 271
f 233 271 235
f 234 266 267
f 235 271 272
f 235 272 236
f 236 273 237
f 236 272 314
f 236 314 273
f 237 273 274
f 237 274 275
f 237 275 276
f 237 276 238
f 238 276 239
f 239 276 277
f 239 277 278
f 239 278 240
f 240 278 242
f 242 278 244
f 243 245 246
f 244 278 279
f 244 279 245
f 245 279 280
f 245 280 281
f 245 281 246
f 246 281 280
f 246 280 282
f 246 282 283
f 246 283 247
f 247 283 284
f 247 284 248
f 248 284 285
f 248 285 286
f 248 286 249
f 249 286 287
f 249 287 288
f 250 289 251
f 253 263 290
f 253 290 254
f 254 290 291
f 254 291 255
f 255 291 292
f 255 292 256
f 256 293 257
f 256 292 293
f 257 293 294
f 257 294 295
f 257 295 258
f 258 295 296
f 258 296 259
f 259 296 297
f 259 297 260
f 260 297 298
f 260 298 264
f 262 299 263
f 263 300 290
f 263 299 301
f 263 301 300
f 264 298 302
f 264 302 303
f 264 303 265
f 265 303 304
f 265 304 266
f 266 304 305
f 266 305 267
f 267 305 306
f 267 306 307
f 267 307 308
f 267 308 309
f 267 309 310
f 267 310 311
f 267 311 312
f 267 312 268
f 268 312 269
f 269 312 270
f 270 312 313
f 270 313 272
f 270 272 271
f 272 313 314
f 273 314 315
f 273 315 274
f 274 316 317
f 274 317 275
f 274 315 316
f 275 317 318
f 275 318 276
f 276 318 319
f 276 319 320
f 276 320 277
f 277 320 321
f 277 321 279
f 277 279 278
f 279 321 280
f 280 321 322
f 280 322 282
f 282 322 283
f 283 285 284
f 283 322 323
f 283 323 285
f 285 323 324
f 285 324 286
f 286 324 325
f 286 325 287
f 287 325 326
f 287 326 288
f 290 328 291
f 290 300 301
f 290 301 329
f 290 329 328
f 291 328 330
f 291 330 292
f 292 331 294
f 292 294 293
f 292 330 331
f 294 331 332
f 294 332 333
f 294 333 334
f 294 334 335
f 294 335 295
f 295 335 296
f 296 335 336
f 296 336 297
f 297 337 298
f 297 336 337
f 298 337 338
f 298 338 302
f 299 339 301
f 301 339 340
f 301 340 341
f 301 341 342
f 301 342 343
f 301 343 344
f 301 344 329
f 302 338 345
f 302 345 346
f 302 346 303
f 303 346 304
f 304 346 347
f 304 347 348
f 304 348 305
f 305 348 306
f 306 348 349
f 306 349 307
f 307 349 308
f 308 349 309
f 309 349 310
f 310 349 311
f 311 349 312
f 312 349 350
f 312 350 351
f 312 351 352
f 312 352 313
f 313 352 314
f 314 352 353
f 314 353 315
f 315 353 354
f 315 354 316
f 316 355 317
f 316 354 356
f 316 356 355
f 317 357 318
f 317 355 357
f 318 357 319
f 319 357 355
f 319 355 358
f 319 358 359
f 319 359 360
f 319 360 361
f 319 361 320
f 320 361 321
f 321 361 322
f 322 361 323
f 323 361 362
f 323 362 363
f 323 363 324
f 324 363 325
f 325 363 364
f 325 364 365
f 325 365 326
f 327 366 367
f 328 329 330
f 329 344 368
f 329 368 369
f 329 369 370
f 329 370 371
f 329 371 330
f 330 371 332
f 330 332 331
f 332 371 370
f 332 370 372
f 332 372 333
f 333 372 373
f 333 373 334
f 334 374 336
f 334 336 335
f 334 373 374
f 336 374 375
f 336 375 376
f 336 376 337
f 337 376 377
f 337 377 378
f 337 378 338
f 338 378 379
f 338 379 345
f 342 380 344
f 342 344 343
f 344 380 381
f 344 381 382
f 344 382 383
f 344 383 384
f 344 384 385
f 344 385 368
f 345 386 346
f 345 379 386
f 346 386 387
f 346 387 347
f 347 387 388
f 347 388 348
f 348 389 390
f 348 390 349
f 348 388 389
f 349 390 391
f 349 391 350
f 350 391 351
f 351 391 353
f 351 353 352
f 353 392 354
f 353 391 393
f 353 393 392
f 354 392 394
f 354 394 356
f 355 356 358
f 356 394 434
f 356 434 395
f 356 395 358
f 358 396 359
f 358 395 436
f 358 436 396
f 359 397 398
f 359 398 360
f 359 396 397
f 360 398 361
f 361 398 362
f 362 398 399
f 362 399 363
f 363 399 400
f 363 400 364
f 364 401 365
f 364 400 402
f 364 402 403
f 364 403 404
f 364 404 401
f 366 405 367
f 367 405 406
f 368 385 384
f 368 384 407
f 368 407 408
f 368 408 409
f 368 409 370
f 368 370 369
f 370 409 410
f 370 410 372
f 372 410 373
f 373 410 411
f 373 411 412
f 373 412 413
f 373 413 374
f 374 413 375
f 375 413 414
f 375 414 415
f 375 415 377
f 375 377 376
f 377 415 416
f 377 416 417
f 377 417 379
f 377 379 378
f 379 417 418
f 379 418 386
f 382 419 384
f 382 384 383
f 384 419 420
f 384 420 421
f 384 421 422
f 384 422 407
f 386 423 387
f 386 418 423
f 387 423 424
f 387 424 425
f 387 425 388
f 388 425 426
f 388 426 389
f 389 426 427
f 389 427 390
f 390 427 428
f 390 428 429
f 390 429 430
f 390 430 431
f 390 431 391
f 391 431 432
f 391 432 393
f 392 393 394
f 393 433 394
f 393 432 433
f 394 433 435
f 394 435 434
f 395 434 476
f 395 476 436
f 396 436 437
f 396 437 438
f 396 438 439
f 396 439 399
f 396 399 397
f 397 399 398
f 399 439 400
f 400 439 440
f 400 440 402
f 402 440 441
f 402 441 403
f 403 441 442
f 405 443 444
f 405 444 406
f 406 444 445
f 407 422 446
f 407 446 408
f 408 447 448
f 408 448 409
f 408 446 449
f 408 449 447
f 409 448 410
f 410 448 450
f 410 450 411
f 411 450 451
f 411 451 412
f 412 451 452
f 412 452 414
f 412 414 413
f 414 452 453
f 414 453 415
f 415 453 454
f 415 454 416
f 416 454 455
f 416 455 456
f 416 456 457
f 416 457 417
f 417 457 418
f 418 457 458
f 418 458 423
f 421 459 460
f 421 460 422
f 422 461 446
f 422 460 461
f 423 458 462
f 423 462 463
f 423 463 424
f 424 463 464
f 424 464 465
f 424 465 425
f 425 465 466
f 425 466 426
f 426 466 467
f 426 467 468
f 426 468 469
f 426 469 470
f 426 470 427
f 427 470 471
f 427 471 472
f 427 472 428
f 428 473 430
f 428 430 429
f 428 472 471
f 428 471 470
f 428 470 474
f 428 474 473
f 430 473 475
f 430 475 431
f 431 475 432
f 432 473 433
f 432 475 473
f 433 473 474
f 433 474 470
f 433 470 435
f 434 435 480
f 434 480 476
f 435 477 478
f 435 478 479
f 435 479 480
f 435 470 481
f 435 481 482
f 435 482 483
f 435 483 484
f 435 484 477
f 436 476 437
f 437 476 485
f 437 485 486
f 437 486 487
f 437 487 438
f 438 440 439
f 438 487 440
f 440 487 441
f 441 487 488
f 441 488 442
f 442 488 489
f 443 490 491
f 443 491 444
f 444 491 526
f 444 526 492
f 444 492 493
f 444 493 445
f 446 461 494
f 446 494 449
f 447 449 494
f 447 494 495
f 447 495 496
f 447 496 497
f 447 497 451
f 447 451 450
f 447 450 448
f 451 497 498
f 451 498 452
f 452 498 453
f 453 499 454
f 453 498 500
f 453 500 499
f 454 499 455
f 455 501 502
f 455 502 503
f 455 503 456
f 455 499 504
f 455 504 501
f 456 503 457
f 457 503 458
f 458 503 462
f 459 505 506
f 459 506 460
f 460 506 461
f 461 506 494
f 462 503 507
f 462 507 508
f 462 508 509
f 462 509 463
f 463 509 510
f 463 510 464
f 464 510 511
f 464 511 465
f 465 511 512
f 465 512 466
f 466 512 513
f 466 513 467
f 467 513 514
f 467 514 468
f 468 514 515
f 468 515 481
f 468 481 469
f 469 481 470
f 476 480 518
f 476 518 485
f 477 484 516
f 477 516 478
f 478 516 517
f 478 517 479
f 479 517 480
f 480 517 519
f 480 519 518
f 481 515 514
f 481 514 482
f 482 514 513
f 482 513 520
f 482 520 516
f 482 516 483
f 483 516 484
f 485 521 486
f 485 518 522
f 485 522 521
f 486 521 523
f 486 523 488
f 486 488 487
f 488 523 489
f 489 523 524
f 490 525 491
f 491 525 527
f 491 527 526
f 492 526 528
f 492 528 529
f 492 529 530
f 492 530 493
f 493 530 531
f 494 506 532
f 494 532 533
f 494 533 495
f 495 533 534
f 495 534 496
f 496 535 498
f 496 498 497
f 496 534 536
f 496 536 535
f 498 535 537
f 498 537 500
f 499 500 538
f 499 538 504
f 500 537 538
f 501 539 502
f 501 504 540
f 501 540 541
f 501 541 539
f 502 539 542
f 502 542 507
f 502 507 503
f 504 538 540
f 505 543 544
f 505 544 506
f 506 544 532
f 507 542 508
f 508 545 546
f 508 546 509
f 508 542 547
f 508 547 545
f 509 546 510
f 510 546 548
f 510 548 511
f 511 548 549
f 511 549 516
f 511 516 512
f 512 516 520
f 512 520 513
f 516 549 550
f 516 550 551
f 516 551 552
f 516 552 517
f 517 552 560
f 517 560 519
f 518 553 522
f 518 519 554
f 518 554 555
f 518 555 556
f 518 556 557
f 518 557 558
f 518 558 559
f 518 559 553
f 519 560 561
f 519 561 562
f 519 562 563
f 519 563 564
f 519 564 565
f 519 565 566
f 519 566 554
f 521 522 567
f 521 567 523
f 522 568 569
f 522 569 567
f 522 553 570
f 522 570 568
f 523 567 571
f 523 571 524
f 525 572 527
f 526 573 528
f 526 527 574
f 526 574 575
f 526 575 573
f 527 572 576
f 527 576 577
f 527 577 574
f 528 578 529
f 528 573 617
f 528 617 578
f 529 531 530
f 529 578 579
f 532 544 580
f 532 580 533
f 533 581 534
f 533 580 581
f 534 582 536
f 534 581 582
f 535 536 583
f 535 583 537
f 536 582 584
f 536 584 583
f 537 583 585
f 537 585 538
f 538 586 540
f 538 585 586
f 539 587 542
f 539 541 588
f 539 588 587
f 540 586 589
f 540 589 590
f 540 590 541
f 541 590 591
f 541 591 588
f 542 587 547
f 543 592 544
f 544 593 580
f 544 592 593
f 545 594 595
f 545 595 546
f 545 547 596
f 545 596 594
f 546 595 597
f 546 597 548
f 547 587 596
f 548 597 598
f 548 598 549
f 549 598 550
f 550 598 551
f 551 598 599
f 551 599 600
f 551 600 601
f 551 601 552
f 552 601 560
f 553 559 602
f 553 602 603
f 553 603 604
f 553 604 570
f 554 566 605
f 554 605 555
f 555 605 601
f 555 601 556
f 556 601 557
f 557 601 558
f 558 602 559
f 558 601 606
f 558 606 602
f 560 601 561
f 561 601 562
f 562 601 563
f 563 601 564
f 564 605 565
f 564 601 605
f 565 605 607
f 565 607 608
f 565 608 566
f 566 608 605
f 567 609 610
f 567 610 571
f 567 569 611
f 567 611 612
f 567 612 609
f 568 570 611
f 568 611 569
f 570 604 601
f 570 601 611
f 572 613 576
f 573 575 614
f 573 614 615
f 573 615 616
f 573 616 617
f 574 577 575
f 575 615 614
f 575 577 618
f 575 618 619
f 575 619 620
f 575 620 615
f 576 613 621
f 576 621 622
f 576 622 577
f 577 622 618
f 578 623 579
f 578 617 624
f 578 624 625
f 578 625 623
f 579 623 626
f 580 593 624
f 580 624 581
f 581 627 582
f 581 624 627
f 582 627 628
f 582 628 584
f 583 629 585
f 583 584 628
f 583 628 629
f 585 629 630
f 585 630 586
f 586 630 589
f 587 631 596
f 587 588 631
f 588 591 632
f 588 632 633
f 588 633 631
f 589 630 634
f 589 634 635
f 589 635 636
f 589 636 591
f 589 591 590
f 591 636 632
f 592 637 593
f 593 625 624
f 593 637 638
f 593 638 625
f 594 596 639
f 594 639 640
f 594 640 641
f 594 641 595
f 595 641 642
f 595 642 643
f 595 643 597
f 596 631 639
f 597 643 599
f 597 599 598
f 600 644 601
f 601 644 611
f 601 604 603
f 601 603 602
f 601 602 606
f 605 608 607
f 615 620 616
f 616 645 628
f 616 628 646
f 616 646 617
f 616 620 629
f 616 629 645
f 617 646 628
f 617 628 624
f 618 622 619
f 619 647 648
f 619 648 635
f 619 635 620
f 619 622 647
f 620 635 634
f 620 634 630
f 620 630 629
f 621 649 622
f 622 649 647
f 623 625 626
f 624 628 627
f 625 638 650
f 625 650 626
f 628 645 629
f 631 633 651
f 631 651 652
f 631 652 653
f 631 653 639
f 632 654 633
f 632 636 655
f 632 655 654
f 633 654 651
f 635 648 636
f 636 648 655
f 639 656 640
f 639 653 656
f 647 649 657
f 647 657 658
f 647 658 648
f 648 658 659
f 648 659 655
f 651 654 660
f 654 655 661
f 654 661 660
f 655 659 661
