# ABC bottle geometry; canonical radius 1 and height 1, bottom z=0.
# https://github.com/mikedh/trimesh
v 0.329787346819 -0.932324407444 0.0688100193611
v 0.329787346819 -0.932243413226 0.0589190345179
v 0.336875239177 -0.929973554006 0.0589190345179
v 0.336875239177 -0.929973554006 0.0688100193611
v 0.336875239177 -0.929730346783 0.088592058363
v 0.336875239177 -0.928919730898 0.14802718637
v 0.329787346819 -0.931513791559 0.12726497672
v 0.329787346819 -0.932162269296 0.0579388539675
v 0.393385174647 -0.907599462668 0.0589190345179
v 0.393449625684 -0.907599462668 0.0688100193611
v 0.329787346819 -0.931108446188 0.0490280397725
v 0.336875239177 -0.928757517894 0.0490280397725
v 0.392225355409 -0.906950984931 0.0490280397725
v 0.392869716065 -0.907275261228 0.118265032697
v 0.391967626118 -0.906707777708 0.197482199706
v 0.391129987207 -0.906221363264 0.266808282849
v 0.390163446224 -0.905653954601 0.346025400347
v 0.388230364256 -0.904600056637 0.494479530574
v 0.386232831252 -0.903546233529 0.643022760922
v 0.385073012013 -0.90297875001 0.72223987842
v 0.384686380649 -0.902735542787 0.752001992484
v 0.384364200321 -0.902573404639 0.771783972073
v 0.336875239177 -0.920894191981 0.71234886387
v 0.329787346819 -0.930784169891 0.177700160704
v 0.336875239177 -0.920326708462 0.752001992484
v 0.429597974025 -0.887981644996 0.0490280397725
v 0.4308222443 -0.888549128515 0.0589190345179
v 0.43088662048 -0.888630197589 0.0688100193611
v 0.430306710861 -0.888467984584 0.118265032697
v 0.429855703316 -0.888305921292 0.157918181115
v 0.429404620914 -0.888143708288 0.197482199706
v 0.428695884078 -0.887900575921 0.256917278202
v 0.428180350639 -0.887738437773 0.296570387011
v 0.427922621348 -0.887657368699 0.316352406209
v 0.426053990418 -0.887008816106 0.464806526533
v 0.42431426156 -0.886441332587 0.593478647465
v 0.423089916429 -0.886036062072 0.682675879634
v 0.42251000681 -0.885873923924 0.72223987842
v 0.421801269974 -0.885630791557 0.771783972073
v 0.329787346819 -0.926163457233 0.0390479251015
v 0.336875239177 -0.923893672869 0.0390479251015
v 0.387134921199 -0.904518987562 0.0390479251015
v 0.383719839665 -0.902330197416 0.781675026231
v 0.336875239177 -0.920002507021 0.771783972073
v 0.329787346819 -0.929649352565 0.256026197773
v 0.329787346819 -0.922434429534 0.752001992484
v 0.329787346819 -0.922596642538 0.741130807286
v 0.329787346819 -0.923326189349 0.691586693829
v 0.329787346819 -0.924623294536 0.602478571683
v 0.329787346819 -0.92778476386 0.384698328606
v 0.48655891704 -0.857014606078 0.0490280397725
v 0.48655891704 -0.858311711264 0.0589190345179
v 0.424571990851 -0.885387509479 0.0390479251015
v 0.48655891704 -0.858392705482 0.0688100193611
v 0.48655891704 -0.858311711264 0.088592058363
v 0.48655891704 -0.85814949826 0.118265032697
v 0.48655891704 -0.857419876593 0.247026273554
v 0.48655891704 -0.857095675152 0.296570387011
v 0.48655891704 -0.856528191633 0.365896519666
v 0.48655891704 -0.856285059267 0.395569523707
v 0.48655891704 -0.853853061898 0.672695764963
v 0.48655891704 -0.852961376938 0.771783972073
v 0.426311719709 -0.88708988518 0.445113627261
v 0.48655891704 -0.852393893419 0.781675026231
v 0.421092458281 -0.885306515261 0.781675026231
v 0.329787346819 -0.925352841347 0.0381568743788
v 0.329787346819 -0.916111341174 0.0287113802392
v 0.342803312298 -0.911652766664 0.0286222603136
v 0.38024038195 -0.90111423616 0.0315628415738
v 0.417484023637 -0.883685133778 0.791566011074
v 0.38004702884 -0.900708890789 0.791566011074
v 0.336875239177 -0.919435023502 0.781675026231
v 0.329787346819 -0.921623813648 0.780694786267
v 0.329787346819 -0.922110153237 0.771783972073
v 0.533210239273 -0.829857663933 0.0490280397725
v 0.48655891704 -0.851664271752 0.0390479251015
v 0.529279624301 -0.827101390268 0.0390479251015
v 0.534112254364 -0.830506216526 0.0589190345179
v 0.534241156438 -0.830587285601 0.0688100193611
v 0.407754312474 -0.883279863263 0.0286222603136
v 0.490747186447 -0.839585578551 0.0296915607896
v 0.534241156438 -0.830587285601 0.088592058363
v 0.533983427147 -0.830344078378 0.237135278809
v 0.53391897611 -0.830263009304 0.276699287497
v 0.533854599929 -0.83018194023 0.306461401561
v 0.533790148892 -0.830100871156 0.326243410856
v 0.533596870638 -0.829938733007 0.365896519666
v 0.533403517528 -0.829776594859 0.40546050855
v 0.532501427581 -0.829047048048 0.573696648072
v 0.531792615888 -0.828479564529 0.702457869125
v 0.53166378867 -0.828398495455 0.72223987842
v 0.531341608342 -0.828155288232 0.771783972073
v 0.530954976978 -0.827831011935 0.781675026231
v 0.528313083317 -0.826209705308 0.791566011074
v 0.48655891704 -0.849070211091 0.791566011074
v 0.329787346819 -0.913679418661 0.027107469134
v 0.371734866207 -0.897304214243 0.024968868182
v 0.525413535222 -0.824345191459 0.797179813818
v 0.376052037687 -0.899006515088 0.79709068399
v 0.336875239177 -0.916273479322 0.791566011074
v 0.329787346819 -0.921542744574 0.781675026231
v 0.329787346819 -0.918462194612 0.791566011074
v 0.57064723407 -0.801890105903 0.0490280397725
v 0.571549324017 -0.802619727571 0.0589190345179
v 0.525477911403 -0.824426260533 0.0333450123345
v 0.566716619098 -0.798971768946 0.0390479251015
v 0.571678226091 -0.802700721789 0.0688100193611
v 0.518518921118 -0.819967760879 0.026661909115
v 0.534112254364 -0.830425072596 0.177700160704
v 0.571678226091 -0.802700721789 0.0787010735198
v 0.571613775054 -0.802700721789 0.118265032697
v 0.5714204968 -0.80253858364 0.256917278202
v 0.571162692652 -0.802457514566 0.3361343957
v 0.619875924071 -0.764518909552 0.771783972073
v 0.569165234504 -0.802052244051 0.71234886387
v 0.568778603139 -0.801971174977 0.771783972073
v 0.568327595594 -0.801646898681 0.781675026231
v 0.56575015297 -0.799863453905 0.791566011074
v 0.329787346819 -0.908085802257 0.0234540175891
v 0.329787346819 -0.901276374308 0.0192659455128
v 0.356592540506 -0.89162960362 0.0192659455128
v 0.41168485259 -0.86544541551 0.0192659455128
v 0.469161329044 -0.834640589596 0.0192659455128
v 0.610017310835 -0.757060854154 0.80145700582
v 0.554796096677 -0.797917870982 0.800922325875
v 0.517101372589 -0.819481271578 0.80377378721
v 0.489909547537 -0.838369542439 0.800922325875
v 0.617105203193 -0.76241118848 0.791566011074
v 0.405305771924 -0.880523589598 0.800833255461
v 0.364260342483 -0.894547940578 0.803684716795
v 0.338292862563 -0.907518393594 0.800833255461
v 0.329787346819 -0.910112454255 0.800922325875
v 0.618587277615 -0.764518909552 0.0490280397725
v 0.61491446679 -0.76151950352 0.0390479251015
v 0.619489292706 -0.765248531219 0.0589190345179
v 0.554796096677 -0.797269393245 0.0296915607896
v 0.607890950613 -0.755844892897 0.0291569402583
v 0.61961819478 -0.765329600293 0.0688100193611
v 0.50659832384 -0.812590774555 0.0192659455128
v 0.564976890241 -0.77140948143 0.0195332557785
v 0.602091779566 -0.751143111165 0.0230975873979
v 0.620004826144 -0.76500524914 0.365896519666
v 0.620133728218 -0.764843185848 0.514261529967
v 0.620133728218 -0.764762041918 0.573696648072
v 0.620069202325 -0.7646810477 0.643022760922
v 0.619940375108 -0.764599978626 0.732130873165
v 0.657312993724 -0.734524699524 0.771783972073
v 0.619489292706 -0.764275702329 0.781675026231
v 0.329787346819 -0.870228266316 0.0103551313179
v 0.41168485259 -0.839261302255 0.0112461820405
v 0.456338641819 -0.827425666565 0.0133847829925
v 0.65454219799 -0.732254840303 0.791566011074
v 0.647454305631 -0.72617488431 0.80145700582
v 0.602929418476 -0.75162952561 0.807605478606
v 0.564396980622 -0.770598865545 0.811080680397
v 0.502538956507 -0.811212600295 0.811347990663
v 0.465101886854 -0.831965385005 0.811347990663
v 0.656926362359 -0.734281492301 0.781675026231
v 0.41168485259 -0.858392705482 0.811347990663
v 0.338292862563 -0.888143708288 0.811793550682
v 0.329787346819 -0.893575186544 0.810724250206
v 0.329787346819 -0.900708890789 0.807159928489
v 0.329787346819 -0.906140294189 0.803684716795
v 0.656024272412 -0.732092702155 0.0490280397725
v 0.656926362359 -0.732903392897 0.0589190345179
v 0.652351461587 -0.728687950753 0.0390479251015
v 0.657055189577 -0.733065531045 0.0688100193611
v 0.645327945409 -0.722121655171 0.0291569402583
v 0.657119715469 -0.733227669193 0.118265032697
v 0.657377444761 -0.73387614693 0.326243410856
v 0.657506271978 -0.734200423227 0.435133522493
v 0.657570723015 -0.734362561375 0.514261529967
v 0.657570723015 -0.734443630449 0.544023644031
v 0.657506271978 -0.734524699524 0.613349766784
v 0.657506271978 -0.734524699524 0.643022760922
v 0.542360040817 -0.762492257554 0.0117808619852
v 0.59229754251 -0.743279785252 0.0165036140061
v 0.635920414575 -0.710853577856 0.0194441358529
v 0.678190039435 -0.678427370459 0.0223847171131
v 0.657377444761 -0.734524699524 0.732130873165
v 0.696747446669 -0.697153503172 0.771783972073
v 0.329787346819 -0.86325670022 0.00910759099068
v 0.372443677899 -0.822399683391 0.00456308872313
v 0.41168485259 -0.811780083814 0.0062561296561
v 0.486107834638 -0.785676964777 0.00928583084185
v 0.69449225923 -0.694802574878 0.791566011074
v 0.688564186109 -0.688803687958 0.80145700582
v 0.680767482058 -0.680859292972 0.80885295952
v 0.636951331739 -0.711826331889 0.811526240416
v 0.591331076383 -0.742793295951 0.814199451998
v 0.539589319939 -0.759817052963 0.821238985408
v 0.527346542334 -0.750980973016 0.826941908078
v 0.481017475284 -0.797755732833 0.820615244952
v 0.452343650666 -0.825155882201 0.816961793407
v 0.696425341197 -0.696829226875 0.781675026231
v 0.410202853024 -0.835775406922 0.820615244952
v 0.329787346819 -0.889602951623 0.812417291139
v 0.336875239177 -0.864878006847 0.821238985408
v 0.329787346819 -0.869741926728 0.820347934686
v 0.693783447537 -0.694721505803 0.0490280397725
v 0.690497268077 -0.691235685327 0.0390479251015
v 0.694556710266 -0.695532196545 0.0589190345179
v 0.684182563592 -0.684669389745 0.0291569402583
v 0.694685537484 -0.695613265619 0.0688100193611
v 0.694685537484 -0.695694334693 0.0787010735198
v 0.694814439557 -0.695775403767 0.108374047854
v 0.69552325125 -0.696504950579 0.346025400347
v 0.695780980541 -0.696748157801 0.435133522493
v 0.695974258796 -0.69691029595 0.504370525319
v 0.696038709832 -0.696991365024 0.534132639384
v 0.696232062943 -0.697072434098 0.593478647465
v 0.696618619451 -0.697153503172 0.72223987842
v 0.515877027458 -0.74246909451 0.00518682918009
v 0.570196151669 -0.717906287883 0.00812741044024
v 0.619875924071 -0.693424475473 0.0110680016026
v 0.669748974728 -0.669672284731 0.0157907437213
v 0.710214494549 -0.635219425337 0.0197114461186
v 0.750035653715 -0.600766640798 0.0235431375147
v 0.721619633245 -0.643407102402 0.0291569402583
v 0.734184516322 -0.658728483712 0.771783972073
v 0.329787346819 -0.845908666911 0.0062561296561
v 0.329787346819 -0.818265310322 0.00304823813026
v 0.41168485259 -0.774327893244 0.00269179803678
v 0.465939525764 -0.759006437077 0.00349378824712
v 0.731929254026 -0.656377555418 0.791566011074
v 0.725936729869 -0.650135461276 0.80145700582
v 0.753837366614 -0.605144146235 0.808496529328
v 0.712727486136 -0.638056768076 0.81197173112
v 0.670844417785 -0.670888245987 0.815446992325
v 0.622839998059 -0.694478298581 0.821238985408
v 0.577026314736 -0.731849494933 0.821238985408
v 0.43410842376 -0.815427967582 0.823555826212
v 0.608664138486 -0.682156323302 0.82845675867
v 0.560466440506 -0.710448232485 0.831040909739
v 0.508789135099 -0.738658997737 0.833535940883
v 0.4849480154 -0.763627224592 0.83059534972
v 0.733862335994 -0.658404207416 0.781675026231
v 0.384235373103 -0.828317501236 0.827743888386
v 0.329787346819 -0.867147791211 0.821328105334
v 0.334748878955 -0.836423959516 0.831129970252
v 0.73122051719 -0.654269834346 0.0490280397725
v 0.731993705063 -0.655161519306 0.0589190345179
v 0.727934262874 -0.650540806647 0.0390479251015
v 0.732122607137 -0.65532373231 0.0688100193611
v 0.732315885391 -0.655648008607 0.128245147368
v 0.732573614682 -0.656134348196 0.21735329922
v 0.733346877412 -0.6575124476 0.484588525926
v 0.733604606703 -0.657998862045 0.583587642817
v 0.73373343392 -0.658242069267 0.633131756274
v 0.733862335994 -0.658404207416 0.672695764963
v 0.734055689104 -0.658647414638 0.732130873165
v 0.598096788413 -0.672914897985 0.00447396879755
v 0.692365824152 -0.619735980734 0.0111571215282
v 0.646036757102 -0.646325439359 0.00786010017456
v 0.742238949664 -0.590390248443 0.0169491047096
v 0.767626519966 -0.563800789818 0.0198896859698
v 0.817499645479 -0.514107618187 0.0291569402583
v 0.785668468618 -0.561368792449 0.0291569402583
v 0.754095095905 -0.605954836976 0.0291569402583
v 0.767562068929 -0.621276218287 0.761892977327
v 0.767562068929 -0.621276218287 0.771783972073
v 0.767368790675 -0.621033011064 0.781675026231
v 0.329787346819 -0.791675851696 0.00197893765424
v 0.343254394699 -0.792810743878 0.00215718740763
v 0.41168485259 -0.711096785078 0.000642326912543
v 0.489200735844 -0.714906806995 0.00215718740763
v 0.54815928672 -0.692532715657 0.00313735805585
v 0.765564610781 -0.618925289992 0.791566011074
v 0.760345349353 -0.612764339781 0.80145700582
v 0.801584057048 -0.556423803494 0.801635186258
v 0.821236832484 -0.520754982843 0.805021327537
v 0.774005675488 -0.566070574182 0.811615300929
v 0.744751941251 -0.594200345216 0.815090562134
v 0.696618619451 -0.622897524914 0.821238985408
v 0.660212616675 -0.660349715483 0.821238985408
v 0.410202853024 -0.80351141253 0.831129970252
v 0.639077766817 -0.63902952211 0.831842840536
v 0.593586263822 -0.669348008434 0.835050732062
v 0.543713138309 -0.68872269374 0.839327924064
v 0.491198268849 -0.714582605554 0.841733884793
v 0.458916084443 -0.754304655344 0.837545763206
v 0.358332269363 -0.81745461958 0.834426991605
v 0.329787346819 -0.838045266143 0.831129970252
v 0.329787346819 -0.822642890614 0.835852722273
v 0.329787346819 -0.834559520522 0.832199270728
v 0.759636537661 -0.613088616077 0.0390479251015
v 0.762536085756 -0.61681756892 0.0490280397725
v 0.763244897449 -0.617709328736 0.0589190345179
v 0.763373799522 -0.617871466884 0.0688100193611
v 0.763438250559 -0.617952535958 0.0787010735198
v 0.763631528813 -0.618114674107 0.108374047854
v 0.764211438432 -0.618601088552 0.197482199706
v 0.76537125767 -0.619573842585 0.385678519059
v 0.766337798654 -0.620384458471 0.544023644031
v 0.767046610347 -0.62095194199 0.662804760315
v 0.767175437564 -0.621033011064 0.682675879634
v 0.767433241712 -0.621195149212 0.732130873165
v 0.767497692748 -0.621276218287 0.752001992484
v 0.672133139097 -0.597199751248 0.00456308872313
v 0.62226008844 -0.623059663062 0.00304823813026
v 0.760023169025 -0.540534938664 0.0120481722508
v 0.716722477289 -0.568826772991 0.00830566019363
v 0.8245230868 -0.451362999322 0.0140085828628
v 0.808671949407 -0.499191582247 0.0192659455128
v 0.838183338079 -0.476736421835 0.0291569402583
v 0.821687914886 -0.52107925914 0.0359291634034
v 0.830128979593 -0.461739316821 0.0192659455128
v 0.801326252901 -0.555126773163 0.0392261748549
v 0.804999063726 -0.572555875546 0.771783972073
v 0.804741334435 -0.572231599249 0.781675026231
v 0.329787346819 -0.705097898159 0.00197893765424
v 0.785926197909 -0.112347102422 0.000285896721275
v 0.785926197909 -0.1871705642 0.000196776795691
v 0.711052208316 -0.411803012824 0.000464146474658
v 0.64287940486 -0.567935162887 0.00188987714194
v 0.568456422811 -0.643326033328 0.00197893765424
v 0.803001605578 -0.569799676737 0.791566011074
v 0.826262890514 -0.528131969167 0.798427294732
v 0.8434671254 -0.492219941294 0.801635186258
v 0.837023518841 -0.472115709177 0.811347990663
v 0.813762308761 -0.509486905528 0.811347990663
v 0.762149529247 -0.543372281403 0.821238985408
v 0.752419743228 -0.529591137646 0.827298338269
v 0.734055689104 -0.580824471973 0.821238985408
v 0.68308719539 -0.608711035785 0.828545878596
v 0.41007395095 -0.766545561549 0.840931904485
v 0.669362418219 -0.59428141429 0.835139851988
v 0.61716965423 -0.617060776143 0.841110084923
v 0.602607238148 -0.602550085574 0.846634817252
v 0.56575015297 -0.658161000193 0.842001195059
v 0.523544904291 -0.673320243356 0.845921956869
v 0.473607402598 -0.690425069441 0.849218968321
v 0.433979521686 -0.740361373439 0.844139796011
v 0.384042019993 -0.753737171825 0.847080377271
v 0.334748878955 -0.80213323827 0.840575464391
v 0.329787346819 -0.802943929011 0.840842774657
v 0.824651914018 -0.525943179021 0.0425231367952
v 0.799973155409 -0.565178889222 0.0490280397725
v 0.800681967101 -0.566151643256 0.0589190345179
v 0.800810794319 -0.56631385626 0.0688100193611
v 0.801004147429 -0.566638057701 0.0984830531084
v 0.802486072139 -0.568745778773 0.3361343957
v 0.804612507217 -0.571826253878 0.682675879634
v 0.804676958254 -0.571907322953 0.692566884281
v 0.804805785472 -0.572150455319 0.72223987842
v 0.804934687545 -0.572393737398 0.752001992484
v 0.766466700728 -0.620465602401 0.563805643424
v 0.74107905557 -0.51345914045 0.00545419885905
v 0.691206004913 -0.547344441469 0.00313735805585
v 0.756801365746 -0.463522761597 0.00358291807491
v 0.783348830142 -0.482411032458 0.00973139086091
v 0.895079904913 -0.289799445859 0.0158798042336
v 0.886252283698 -0.335682520716 0.0191768255873
v 0.855001016456 -0.411803012824 0.0192659455128
v 0.80776985946 -0.411803012824 0.00705811986644
v 0.834188421782 -0.411803012824 0.0120481722508
v 0.871109957997 -0.411803012824 0.0291569402583
v 0.883546013857 -0.406533747572 0.0387806148358
v 0.839987592829 -0.492382079442 0.0392261748549
v 0.831095520577 -0.535184679194 0.771783972073
v 0.830902242322 -0.534860402898 0.781675026231
v 0.733089148121 -0.104240569287 0.00260273752448
v 0.780449207191 -0.104240569287 0.000553206986959
v 0.785926197909 -0.104240569287 0.000375016646859
v 0.329787346819 -0.104240569287 0.0353054130443
v 0.853325738636 -0.104240569287 0.00215718740763
v 0.785926197909 -0.262075020195 0.000642326912543
v 0.853003558308 -0.112347102422 0.00215718740763
v 0.790952181083 -0.339168341193 0.00215718740763
v 0.770397240844 -0.411803012824 0.00269179803678
v 0.714080658485 -0.487761366784 0.00215718740763
v 0.829162438609 -0.532347336455 0.791566011074
v 0.85674082017 -0.486626474602 0.791566011074
v 0.883739292111 -0.419423131514 0.80145700582
v 0.88837864392 -0.429232040351 0.791566011074
v 0.89836615923 -0.374756092769 0.80653617813
v 0.874589490567 -0.404507095575 0.81045693994
v 0.82858252899 -0.457929294904 0.818209333734
v 0.801712884266 -0.484356615381 0.82141722526
v 0.768464158876 -0.487112814191 0.830862659986
v 0.740370318733 -0.512324248268 0.833892371074
v 0.711761020008 -0.561936275968 0.831219100079
v 0.68779092338 -0.541102422183 0.841110084923
v 0.675612671667 -0.526348524392 0.846367506986
v 0.654606649027 -0.578473618535 0.841110084923
v 0.628896898397 -0.55358653561 0.84984271868
v 0.605313507989 -0.530888167976 0.856793122263
v 0.580377020089 -0.580743477755 0.853228790644
v 0.530439443539 -0.604333530349 0.856793122263
v 0.557824546846 -0.619087428141 0.850377339211
v 0.493775711472 -0.661484682522 0.851892189804
v 0.44821975744 -0.673158105207 0.855812951615
v 0.416130926144 -0.713528707591 0.851446629785
v 0.398282255747 -0.686696041743 0.85804066259
v 0.336875239177 -0.738821135886 0.854119910682
v 0.336875239177 -0.763789287884 0.849129848395
v 0.329787346819 -0.768572213547 0.848684298278
v 0.899977060869 -0.378079775097 0.041899386436
v 0.883223758673 -0.418531446555 0.0490280397725
v 0.848364206499 -0.486626474602 0.0490280397725
v 0.825876259149 -0.527726623796 0.0490280397725
v 0.826520619805 -0.52869937783 0.0589190345179
v 0.826649447022 -0.528942659909 0.0688100193611
v 0.827358258715 -0.529915413942 0.177700160704
v 0.828904709318 -0.532023060158 0.415351513197
v 0.830386708884 -0.534130856086 0.65291376557
v 0.830515610958 -0.534292994235 0.672695764963
v 0.830708889212 -0.534536126601 0.702457869125
v 0.819303825373 -0.36559566167 0.0049195189144
v 0.902812157928 -0.239863141862 0.0131174727269
v 0.909513493778 -0.263696401678 0.0191768255873
v 0.901587887653 -0.309903677976 0.0224738469409
v 0.893726807421 -0.361299225308 0.0291569402583
v 0.847655394807 -0.339168341193 0.00866209038489
v 0.897270791028 -0.371513479515 0.0353054130443
v 0.86022035274 -0.486626474602 0.771783972073
v 0.859833721375 -0.486626474602 0.781675026231
v 0.329787346819 -0.104240569287 0.910525327601
v 0.890762808289 -0.104240569287 0.00554325937135
v 0.846624477642 -0.1871705642 0.0024244877711
v 0.837281322988 -0.262075020195 0.00304823813026
v 0.828775807244 -0.315659357673 0.00385021843838
v 0.889731741412 -0.432474653605 0.781675026231
v 0.901910142837 -0.381970940945 0.80145700582
v 0.906678321863 -0.391860918855 0.791566011074
v 0.908224772466 -0.395022463035 0.781675026231
v 0.919500934231 -0.336898481973 0.80145700582
v 0.944502022881 -0.262075020195 0.80145700582
v 0.905389600551 -0.333007316125 0.81045693994
v 0.890569455178 -0.355300338389 0.813130151522
v 0.841598494469 -0.414072797188 0.82141722526
v 0.818917194008 -0.440581261596 0.824803307126
v 0.757381275365 -0.462387869415 0.838169563076
v 0.726387812271 -0.487112814191 0.841288334676
v 0.742754408246 -0.439446369414 0.844763536468
v 0.686824382396 -0.479816971797 0.850199148871
v 0.674388401392 -0.450309101358 0.856080251978
v 0.655251009683 -0.500164336281 0.85296149028
v 0.62883244736 -0.476898559984 0.859733703523
v 0.602413885038 -0.453632783686 0.866327676915
v 0.580183741835 -0.503569087683 0.86347621558
v 0.530310616322 -0.530158546309 0.866595046594
v 0.555311630115 -0.55545104946 0.860090133714
v 0.501121333122 -0.580094925162 0.863387155068
v 0.451248282465 -0.600442364502 0.866060366649
v 0.480308663592 -0.617709328736 0.86035744398
v 0.418643917731 -0.654675179717 0.86115943419
v 0.359041081056 -0.665943331888 0.864634635982
v 0.335199961357 -0.698612671651 0.86115943419
v 0.329787346819 -0.705422174455 0.860446573808
v 0.329787346819 -0.740361373439 0.854387220947
v 0.329787346819 -0.765086393071 0.849397158661
v 0.909449042741 -0.342654161669 0.0387806148358
v 0.934836613043 -0.262075020195 0.0390479251015
v 0.916536935099 -0.336898481973 0.0490280397725
v 0.901330158362 -0.381079181129 0.0490280397725
v 0.883932570365 -0.419828476885 0.0589190345179
v 0.849717378848 -0.486626474602 0.0589190345179
v 0.853196911418 -0.486626474602 0.286679402168
v 0.854098926509 -0.486626474602 0.346025400347
v 0.855903181259 -0.486626474602 0.464806526533
v 0.859962623449 -0.486626474602 0.752001992484
v 0.877489113519 -0.263696401678 0.00964227093533
v 0.884061472439 -0.1871705642 0.00687992952634
v 0.908224772466 -0.1871705642 0.0117808619852
v 0.927490991393 -0.1871705642 0.0192659455128
v 0.925235803953 -0.262075020195 0.0291569402583
v 0.906098337388 -0.323846959882 0.0291569402583
v 0.889925094523 -0.432799004757 0.771783972073
v 0.329787346819 -0.2851787332 0.910525327601
v 0.428244801676 -0.104240569287 0.910525327601
v 0.890440553105 -0.112347102422 0.00563238919915
v 0.911704305036 -0.104240569287 0.00990958120101
v 0.913959567332 -0.112347102422 0.010533321658
v 0.908418125576 -0.395427808406 0.771783972073
v 0.928650810631 -0.336898481973 0.791566011074
v 0.931614884619 -0.336898481973 0.781675026231
v 0.945855045517 -0.1871705642 0.811347990663
v 0.927104360028 -0.262075020195 0.811347990663
v 0.953458471314 -0.262075020195 0.791566011074
v 0.968858601162 -0.203707906766 0.791566011074
v 0.96428370039 -0.183684743723 0.801100565726
v 0.900428068415 -0.305445103466 0.817140033258
v 0.879357669594 -0.333007316125 0.820793425389
v 0.831224347794 -0.390644957599 0.828634949011
v 0.809187482845 -0.414072797188 0.831575530271
v 0.82020591532 -0.367622313668 0.835228981816
v 0.771814789373 -0.413424319451 0.841288334676
v 0.756736914709 -0.389591059635 0.847704117728
v 0.72535682025 -0.413424319451 0.851001139081
v 0.686437751031 -0.411803012824 0.85804066259
v 0.669362418219 -0.366163145189 0.865258386341
v 0.654413370772 -0.411803012824 0.863030724877
v 0.617040827012 -0.411803012824 0.868109837773
v 0.592555271801 -0.364136493191 0.875060310672
v 0.565105792314 -0.418774653777 0.873545450177
v 0.523287175 -0.448444587509 0.875684051129
v 0.557695719628 -0.481843548939 0.868466277867
v 0.493646809398 -0.493192695328 0.874080130121
v 0.447188840275 -0.52237628947 0.875594931203
v 0.480308663592 -0.557639839606 0.868288087527
v 0.417999557075 -0.563800789818 0.873189019986
v 0.359298810347 -0.590390248443 0.874793000406
v 0.41168485259 -0.612926477929 0.867753407582
v 0.329787346819 -0.62954488957 0.871674169393
v 0.329787346819 -0.638137762294 0.870515808404
v 0.329787346819 -0.673158105207 0.865793056383
v 0.951525389346 -0.1871705642 0.0390479251015
v 0.939733768998 -0.262075020195 0.0490280397725
v 0.942246685729 -0.1871705642 0.0291569402583
v 0.917761205374 -0.336898481973 0.0589190345179
v 0.901974519018 -0.382376211459 0.0589190345179
v 0.902103421091 -0.382700487756 0.0688100193611
v 0.883997021402 -0.420152753182 0.0688100193611
v 0.88696109539 -0.426232634319 0.40546050855
v 0.887476553973 -0.427286532283 0.464806526533
v 0.889667365231 -0.432312590312 0.742021897617
v 0.938702702122 -0.112347102422 0.0192659455128
v 0.351953188697 -0.259075614164 0.910525327601
v 0.329787346819 -0.598496781578 0.875684051129
v 0.397315714763 -0.540534938664 0.877466211987
v 0.426956080365 -0.112347102422 0.910525327601
v 0.679543211783 -0.112347102422 0.876486041339
v 0.680058670365 -0.104240569287 0.876575161265
v 0.914217296623 -0.104240569287 0.010533321658
v 0.939218310416 -0.104240569287 0.0192659455128
v 0.93187261391 -0.336898481973 0.771783972073
v 0.907193855301 -0.392914741963 0.633131756274
v 0.956358019409 -0.262075020195 0.781675026231
v 0.9700184204 -0.1283981054 0.804130217401
v 0.971758149257 -0.104240569287 0.805377757728
v 0.961190799184 -0.106996842952 0.810546000453
v 0.935158793371 -0.112347102422 0.821238985408
v 0.922078376855 -0.1871705642 0.821238985408
v 0.905905059134 -0.256319415355 0.820793425389
v 0.970405051765 -0.21108489309 0.781675026231
v 0.976139771775 -0.166255641341 0.791566011074
v 0.974335591881 -0.156446732504 0.797536244009
v 0.891600447199 -0.277396401506 0.82373400665
v 0.843853681908 -0.340384302449 0.831575530271
v 0.831353249868 -0.317686009671 0.838258623588
v 0.808414220116 -0.340384302449 0.841377454602
v 0.767368790675 -0.333655868719 0.851001139081
v 0.739854860151 -0.356354236353 0.85429809112
v 0.681669572005 -0.316226766336 0.866951476785
v 0.638304504088 -0.340222164301 0.871050428936
v 0.710794404168 -0.336330998454 0.860892123925
v 0.60718213892 -0.314200189194 0.876664221777
v 0.395382707651 -0.193412583485 0.910525327601
v 0.376245315942 -0.226811619772 0.910525327601
v 0.953071839949 -0.112347102422 0.0291569402583
v 0.962286167386 -0.112347102422 0.0390479251015
v 0.968278691543 -0.105699737766 0.049384479866
v 0.956358019409 -0.1871705642 0.0490280397725
v 0.95758236454 -0.1871705642 0.0589190345179
v 0.940893588237 -0.262075020195 0.0589190345179
v 0.918083385702 -0.336898481973 0.0688100193611
v 0.902361150382 -0.383267971275 0.0984830531084
v 0.920080843851 -0.336898481973 0.167809165959
v 0.926008991827 -0.336898481973 0.464806526533
v 0.926975532811 -0.336898481973 0.514261529967
v 0.928521983414 -0.336898481973 0.593478647465
v 0.903263240329 -0.38505141605 0.197482199706
v 0.952040847929 -0.104240569287 0.0280876397823
v 0.42676280211 -0.113157793164 0.910525327601
v 0.675483769594 -0.156122456208 0.875951361394
v 0.748618105186 -0.150285782293 0.865882186211
v 0.716980281436 -0.112347102422 0.871228668787
v 0.717495665162 -0.104240569287 0.871317739201
v 0.956615823556 -0.262075020195 0.771783972073
v 0.902554428637 -0.383592247572 0.118265032697
v 0.970533878982 -0.211733445683 0.771783972073
v 0.976912959648 -0.106996842952 0.801100565726
v 0.962414994603 -0.104240569287 0.810100509749
v 0.976590854176 -0.104240569287 0.801635186258
v 0.938251769432 -0.104240569287 0.820258804858
v 0.935867605063 -0.104240569287 0.821238985408
v 0.910286756507 -0.112347102422 0.830238919529
v 0.903585420657 -0.1871705642 0.828011198651
v 0.899074970922 -0.227460097509 0.826496348059
v 0.977493018979 -0.173713696739 0.781675026231
v 0.984323032335 -0.112347102422 0.791566011074
v 0.987093828068 -0.112347102422 0.781675026231
v 0.87839112861 -0.256319415355 0.830328039455
v 0.839085502882 -0.259967373979 0.841377454602
v 0.818337284389 -0.283557426573 0.844852656393
v 0.751839833609 -0.306498926574 0.856525811997
v 0.73038287828 -0.262075020195 0.862852475123
v 0.692945808627 -0.262075020195 0.868644517718
v 0.657055189577 -0.262075020195 0.873545450177
v 0.396220346561 -0.19162913871 0.910525327601
v 0.953587298531 -0.104240569287 0.0291569402583
v 0.962866077005 -0.104240569287 0.0390479251015
v 0.968536420834 -0.104240569287 0.0495627197171
v 0.968600797015 -0.104240569287 0.0499191499084
v 0.968149864325 -0.11526543938 0.0589190345179
v 0.968342992868 -0.116562544566 0.0688100193611
v 0.957904470012 -0.1871705642 0.0688100193611
v 0.941215693708 -0.262075020195 0.0688100193611
v 0.941473497856 -0.262075020195 0.0787010735198
v 0.951138757982 -0.262075020195 0.514261529967
v 0.952234275895 -0.262075020195 0.563805643424
v 0.952878561695 -0.262075020195 0.593478647465
v 0.956422545302 -0.262075020195 0.761892977327
v 0.66800924587 -0.205977765987 0.874971180844
v 0.708345863619 -0.178172271249 0.870426688479
v 0.74127240868 -0.20022208629 0.864634635982
v 0.766853332093 -0.180036785098 0.86115943419
v 0.808736400444 -0.1871705642 0.852872360452
v 0.816339751385 -0.112347102422 0.854476340873
v 0.781673477465 -0.112347102422 0.860892123925
v 0.755383817217 -0.104240569287 0.865703936458
v 0.75125992399 -0.112347102422 0.866238616402
v 0.751646480499 -0.104240569287 0.866327676915
v 0.970469502801 -0.211165962164 0.761892977327
v 0.977621846197 -0.174362174476 0.771783972073
v 0.985031844027 -0.104240569287 0.791566011074
v 0.977493018979 -0.104240569287 0.80065501561
v 0.977106387615 -0.104240569287 0.801100565726
v 0.913701763185 -0.104240569287 0.829258748881
v 0.910351132688 -0.104240569287 0.830417109869
v 0.895724340425 -0.104240569287 0.835318101741
v 0.895208806987 -0.112347102422 0.835139851988
v 0.888314192883 -0.1871705642 0.833001260938
v 0.987351632216 -0.112347102422 0.771783972073
v 0.985354099211 -0.104240569287 0.790496710598
v 0.987802564905 -0.104240569287 0.781675026231
v 0.826069537403 -0.23362104772 0.846634817252
v 0.859575992084 -0.1871705642 0.841110084923
v 0.799457696826 -0.259967373979 0.850377339211
v 0.759829815915 -0.262075020195 0.857951542664
v 0.969696314928 -0.104240569287 0.0589190345179
v 0.969825142146 -0.104240569287 0.0619487357036
v 0.970082871437 -0.104240569287 0.0688100193611
v 0.970727157237 -0.104240569287 0.092423700248
v 0.968471969797 -0.1175352986 0.0787010735198
v 0.958420078306 -0.1871705642 0.088592058363
v 0.972209231659 -0.143800555785 0.355916404995
v 0.972982494388 -0.149231884329 0.413391142194
v 0.969245232527 -0.204194321211 0.65291376557
v 0.83206206156 -0.1871705642 0.847971427993
v 0.839343232173 -0.112347102422 0.849486278586
v 0.819239374336 -0.104240569287 0.854030780854
v 0.816726382749 -0.104240569287 0.854565460798
v 0.782511116376 -0.104240569287 0.860892123925
v 0.97736404205 -0.17314621322 0.752001992484
v 0.968794150125 -0.20151911662 0.613349766784
v 0.968471969797 -0.199411395548 0.583587642817
v 0.968020887396 -0.196655196739 0.544023644031
v 0.87839112861 -0.104240569287 0.840129914274
v 0.873751776801 -0.112347102422 0.841110084923
v 0.988060369052 -0.104240569287 0.771783972073
v 0.976977410685 -0.17128169937 0.72223987842
v 0.976333124885 -0.168039086116 0.672695764963
v 0.975817591447 -0.165445025455 0.633131756274
v 0.975430960082 -0.163418373457 0.603458752234
v 0.975173305647 -0.162040274053 0.583587642817
v 0.974786749138 -0.159932552981 0.553914648679
v 0.974271140844 -0.157014216023 0.514261529967
v 0.973755682262 -0.15409580421 0.474697521279
v 0.976912959648 -0.104240569287 0.32606519081
v 0.971951502368 -0.104240569287 0.138136142113
v 0.966796617121 -0.18846759453 0.435133522493
v 0.967569804994 -0.193736859782 0.504370525319
v 0.973433427078 -0.104240569287 0.194006938501
v 0.975044403573 -0.104240569287 0.254956897297
v 0.976139771775 -0.104240569287 0.296570387011
v 0.839729863538 -0.104240569287 0.849575408414
v 0.874911596039 -0.104240569287 0.84102102441
f 1 2 3
f 1 3 4
f 1 4 5
f 1 5 6
f 1 6 7
f 1 7 24
f 1 24 45
f 1 45 50
f 1 50 49
f 1 49 48
f 1 48 47
f 1 47 46
f 1 46 74
f 1 74 73
f 1 73 101
f 1 101 102
f 1 102 132
f 1 132 163
f 1 163 162
f 1 162 161
f 1 161 197
f 1 197 199
f 1 199 239
f 1 239 283
f 1 283 285
f 1 285 284
f 1 284 336
f 1 336 397
f 1 397 452
f 1 452 451
f 1 451 450
f 1 450 507
f 1 507 506
f 1 506 505
f 1 505 520
f 1 520 470
f 1 470 418
f 1 418 365
f 1 365 311
f 1 311 263
f 1 263 222
f 1 222 221
f 1 221 182
f 1 182 149
f 1 149 120
f 1 120 119
f 1 119 96
f 1 96 67
f 1 67 66
f 1 66 40
f 1 40 11
f 1 11 8
f 1 8 2
f 2 8 3
f 3 9 10
f 3 10 4
f 3 8 11
f 3 11 12
f 3 12 13
f 3 13 9
f 4 10 14
f 4 14 15
f 4 15 16
f 4 16 17
f 4 17 18
f 4 18 5
f 5 18 19
f 5 19 20
f 5 20 21
f 5 21 6
f 6 21 22
f 6 22 23
f 6 23 7
f 7 23 25
f 7 25 24
f 9 13 26
f 9 26 27
f 9 27 28
f 9 28 10
f 10 28 29
f 10 29 30
f 10 30 31
f 10 31 32
f 10 32 33
f 10 33 34
f 10 34 35
f 10 35 36
f 10 36 37
f 10 37 38
f 10 38 39
f 10 39 14
f 11 40 41
f 11 41 12
f 12 41 42
f 12 42 13
f 13 42 26
f 14 39 15
f 15 39 16
f 16 39 17
f 17 39 18
f 18 39 19
f 19 39 20
f 20 39 21
f 21 39 22
f 22 39 43
f 22 43 44
f 22 44 25
f 22 25 23
f 24 25 45
f 25 44 74
f 25 74 46
f 25 46 47
f 25 47 48
f 25 48 49
f 25 49 50
f 25 50 45
f 26 51 52
f 26 52 27
f 26 42 53
f 26 53 51
f 27 52 28
f 28 52 54
f 28 54 55
f 28 55 56
f 28 56 57
f 28 57 58
f 28 58 59
f 28 59 60
f 28 60 61
f 28 61 62
f 28 62 29
f 29 62 30
f 30 62 31
f 31 62 32
f 32 62 33
f 33 62 34
f 34 63 35
f 34 62 63
f 35 62 36
f 35 63 62
f 36 62 37
f 37 62 38
f 38 62 39
f 39 62 64
f 39 64 65
f 39 65 43
f 40 66 41
f 41 66 67
f 41 67 68
f 41 68 69
f 41 69 42
f 42 69 53
f 43 65 70
f 43 70 71
f 43 71 72
f 43 72 44
f 44 72 73
f 44 73 74
f 51 75 52
f 51 53 76
f 51 76 77
f 51 77 75
f 52 75 78
f 52 78 79
f 52 79 54
f 53 69 80
f 53 80 81
f 53 81 76
f 54 79 82
f 54 82 83
f 54 83 84
f 54 84 85
f 54 85 55
f 55 85 56
f 56 85 57
f 57 85 86
f 57 86 58
f 58 86 87
f 58 87 88
f 58 88 89
f 58 89 90
f 58 90 91
f 58 91 59
f 59 91 60
f 60 91 92
f 60 92 61
f 61 92 62
f 62 92 93
f 62 93 64
f 64 93 94
f 64 94 95
f 64 95 65
f 65 95 70
f 67 96 97
f 67 97 68
f 68 97 69
f 69 97 80
f 70 95 98
f 70 98 99
f 70 99 71
f 71 99 100
f 71 100 72
f 72 101 73
f 72 100 102
f 72 102 101
f 75 103 104
f 75 104 78
f 75 77 103
f 76 81 105
f 76 105 77
f 77 106 103
f 77 105 106
f 78 104 107
f 78 107 79
f 79 107 110
f 79 110 82
f 80 97 108
f 80 108 81
f 81 108 105
f 82 109 83
f 82 110 111
f 82 111 112
f 82 112 109
f 83 112 84
f 83 109 112
f 84 112 113
f 84 113 85
f 85 113 114
f 85 114 115
f 85 115 116
f 85 116 86
f 86 116 87
f 87 116 88
f 88 116 89
f 89 116 90
f 90 116 91
f 91 116 92
f 92 116 93
f 93 117 94
f 93 116 117
f 94 118 98
f 94 98 95
f 94 117 118
f 96 119 97
f 97 119 120
f 97 120 121
f 97 121 122
f 97 122 123
f 97 123 108
f 98 124 125
f 98 125 126
f 98 126 127
f 98 127 99
f 98 118 128
f 98 128 124
f 99 127 129
f 99 129 130
f 99 130 131
f 99 131 132
f 99 132 100
f 100 132 102
f 103 133 135
f 103 135 104
f 103 106 134
f 103 134 133
f 104 135 138
f 104 138 107
f 105 108 136
f 105 136 137
f 105 137 106
f 106 137 134
f 107 138 110
f 108 123 139
f 108 139 140
f 108 140 141
f 108 141 136
f 110 138 142
f 110 142 143
f 110 143 111
f 111 143 144
f 111 144 145
f 111 145 146
f 111 146 112
f 112 146 114
f 112 114 113
f 114 146 147
f 114 147 158
f 114 158 148
f 114 148 116
f 114 116 115
f 116 148 117
f 117 148 128
f 117 128 118
f 120 149 121
f 121 149 150
f 121 150 151
f 121 151 122
f 122 151 123
f 123 151 139
f 124 128 152
f 124 152 153
f 124 153 154
f 124 154 125
f 125 154 126
f 126 154 155
f 126 155 156
f 126 156 157
f 126 157 127
f 127 157 129
f 128 148 158
f 128 158 152
f 129 157 159
f 129 159 130
f 130 159 160
f 130 160 161
f 130 161 162
f 130 162 163
f 130 163 131
f 131 163 132
f 133 164 165
f 133 165 135
f 133 134 164
f 134 166 164
f 134 137 166
f 135 165 167
f 135 167 138
f 136 141 137
f 137 168 166
f 137 141 168
f 138 167 169
f 138 169 170
f 138 170 171
f 138 171 172
f 138 172 173
f 138 173 174
f 138 174 175
f 138 175 142
f 139 151 176
f 139 176 177
f 139 177 140
f 140 177 141
f 141 177 178
f 141 178 179
f 141 179 168
f 142 175 143
f 143 175 180
f 143 180 147
f 143 147 144
f 144 147 145
f 145 147 146
f 147 180 181
f 147 181 158
f 149 182 183
f 149 183 150
f 150 183 184
f 150 184 151
f 151 184 185
f 151 185 176
f 152 186 187
f 152 187 153
f 152 158 186
f 153 187 188
f 153 188 154
f 154 188 189
f 154 189 190
f 154 190 155
f 155 190 191
f 155 191 156
f 156 191 192
f 156 192 193
f 156 193 194
f 156 194 157
f 157 194 159
f 158 195 186
f 158 181 195
f 159 194 196
f 159 196 160
f 160 197 161
f 160 196 198
f 160 198 199
f 160 199 197
f 164 200 165
f 164 166 201
f 164 201 200
f 165 200 202
f 165 202 167
f 166 168 203
f 166 203 201
f 167 202 204
f 167 204 205
f 167 205 206
f 167 206 207
f 167 207 208
f 167 208 209
f 167 209 210
f 167 210 211
f 167 211 169
f 168 179 203
f 169 211 170
f 170 211 171
f 171 211 212
f 171 212 172
f 172 212 173
f 173 212 181
f 173 181 174
f 174 181 175
f 175 181 180
f 176 185 213
f 176 213 214
f 176 214 215
f 176 215 177
f 177 215 216
f 177 216 178
f 178 216 179
f 179 217 218
f 179 218 219
f 179 219 203
f 179 216 217
f 181 212 220
f 181 220 237
f 181 237 195
f 182 221 183
f 183 221 222
f 183 222 223
f 183 223 224
f 183 224 213
f 183 213 184
f 184 213 185
f 186 225 187
f 186 195 237
f 186 237 225
f 187 225 226
f 187 226 188
f 188 226 227
f 188 227 228
f 188 228 229
f 188 229 189
f 189 229 230
f 189 230 190
f 190 230 231
f 190 231 191
f 191 231 192
f 192 232 193
f 192 231 233
f 192 233 234
f 192 234 235
f 192 235 236
f 192 236 232
f 193 232 194
f 194 232 196
f 196 232 238
f 196 238 198
f 198 239 199
f 198 238 240
f 198 240 239
f 200 241 242
f 200 242 202
f 200 201 241
f 201 203 243
f 201 243 241
f 202 242 244
f 202 244 204
f 203 219 243
f 204 244 245
f 204 245 246
f 204 246 247
f 204 247 205
f 205 247 248
f 205 248 249
f 205 249 250
f 205 250 251
f 205 251 206
f 206 251 207
f 207 251 208
f 208 251 220
f 208 220 209
f 209 220 210
f 210 220 211
f 211 220 212
f 213 224 252
f 213 252 214
f 214 252 215
f 215 253 216
f 215 252 254
f 215 254 253
f 216 255 217
f 216 253 255
f 217 255 218
f 218 255 256
f 218 256 257
f 218 257 258
f 218 258 259
f 218 259 219
f 219 259 243
f 220 260 261
f 220 261 262
f 220 262 237
f 220 251 260
f 222 263 264
f 222 264 223
f 223 264 265
f 223 265 266
f 223 266 224
f 224 266 267
f 224 267 252
f 225 268 269
f 225 269 226
f 225 237 268
f 226 269 227
f 227 269 270
f 227 270 271
f 227 271 272
f 227 272 273
f 227 273 228
f 228 273 229
f 229 273 274
f 229 274 275
f 229 275 230
f 230 275 233
f 230 233 231
f 232 236 276
f 232 276 238
f 233 275 277
f 233 277 278
f 233 278 234
f 234 278 235
f 235 278 279
f 235 279 280
f 235 280 281
f 235 281 236
f 236 281 276
f 237 262 268
f 238 276 282
f 238 282 240
f 239 240 283
f 240 282 284
f 240 284 285
f 240 285 283
f 241 243 286
f 241 286 287
f 241 287 242
f 242 287 288
f 242 288 289
f 242 289 244
f 243 259 286
f 244 289 290
f 244 290 291
f 244 291 292
f 244 292 293
f 244 293 294
f 244 294 295
f 244 295 296
f 244 296 297
f 244 297 245
f 245 297 246
f 246 297 247
f 247 297 248
f 248 297 249
f 249 297 250
f 250 297 251
f 251 297 298
f 251 298 260
f 252 299 254
f 252 267 300
f 252 300 299
f 253 301 255
f 253 254 299
f 253 299 302
f 253 302 301
f 255 301 303
f 255 303 304
f 255 304 256
f 256 304 257
f 257 305 306
f 257 306 258
f 257 304 307
f 257 307 305
f 258 306 308
f 258 308 259
f 259 308 286
f 260 298 297
f 260 297 309
f 260 309 261
f 261 309 262
f 262 310 268
f 262 309 310
f 263 311 265
f 263 265 264
f 265 312 313
f 265 313 314
f 265 314 315
f 265 315 316
f 265 316 266
f 265 311 312
f 266 316 267
f 267 316 300
f 268 310 317
f 268 317 269
f 269 317 318
f 269 318 270
f 270 318 271
f 271 318 319
f 271 319 320
f 271 320 321
f 271 321 272
f 272 321 273
f 273 322 323
f 273 323 324
f 273 324 325
f 273 325 274
f 273 321 322
f 274 325 275
f 275 325 277
f 276 281 326
f 276 326 282
f 277 327 278
f 277 325 327
f 278 327 328
f 278 328 329
f 278 329 330
f 278 330 331
f 278 331 279
f 279 331 280
f 280 331 332
f 280 332 333
f 280 333 281
f 281 333 326
f 282 326 334
f 282 334 335
f 282 335 284
f 284 335 336
f 286 308 337
f 286 337 338
f 286 338 287
f 287 338 339
f 287 339 288
f 288 339 340
f 288 340 289
f 289 340 341
f 289 341 342
f 289 342 343
f 289 343 344
f 289 344 290
f 290 344 291
f 291 344 292
f 292 344 345
f 292 345 346
f 292 346 293
f 293 346 294
f 294 346 347
f 294 347 295
f 295 347 346
f 295 346 296
f 296 346 309
f 296 309 297
f 299 348 302
f 299 300 349
f 299 349 350
f 299 350 348
f 300 316 315
f 300 315 349
f 301 302 348
f 301 348 351
f 301 351 303
f 303 352 353
f 303 353 354
f 303 354 307
f 303 307 304
f 303 351 355
f 303 355 356
f 303 356 352
f 305 357 358
f 305 358 359
f 305 359 306
f 305 307 357
f 306 359 337
f 306 337 308
f 307 354 357
f 309 346 360
f 309 360 361
f 309 361 310
f 310 361 317
f 311 362 363
f 311 363 364
f 311 364 312
f 311 365 362
f 312 364 366
f 312 366 313
f 313 367 314
f 313 366 368
f 313 368 367
f 314 367 369
f 314 369 370
f 314 370 371
f 314 371 315
f 315 371 349
f 317 372 318
f 317 361 372
f 318 372 373
f 318 373 319
f 319 374 320
f 319 373 375
f 319 375 374
f 320 374 376
f 320 376 377
f 320 377 378
f 320 378 321
f 321 378 379
f 321 379 322
f 322 379 323
f 323 379 380
f 323 380 381
f 323 381 382
f 323 382 324
f 324 382 325
f 325 382 327
f 326 333 334
f 327 382 383
f 327 383 384
f 327 384 385
f 327 385 328
f 328 385 329
f 329 331 330
f 329 385 384
f 329 384 386
f 329 386 387
f 329 387 388
f 329 388 389
f 329 389 390
f 329 390 331
f 331 390 389
f 331 389 391
f 331 391 392
f 331 392 332
f 332 392 333
f 333 392 393
f 333 393 334
f 334 393 394
f 334 394 395
f 334 395 396
f 334 396 335
f 335 396 336
f 336 396 397
f 337 359 398
f 337 398 399
f 337 399 400
f 337 400 401
f 337 401 338
f 338 401 339
f 339 401 402
f 339 402 403
f 339 403 340
f 340 403 341
f 341 403 404
f 341 404 405
f 341 405 406
f 341 406 342
f 342 406 343
f 343 406 407
f 343 407 344
f 344 407 408
f 344 408 360
f 344 360 345
f 345 360 346
f 348 350 355
f 348 355 351
f 349 371 350
f 350 409 355
f 350 371 370
f 350 370 409
f 352 356 410
f 352 410 411
f 352 411 412
f 352 412 353
f 353 412 413
f 353 413 354
f 354 413 357
f 355 409 356
f 356 409 414
f 356 414 410
f 357 413 415
f 357 415 358
f 358 415 398
f 358 398 359
f 360 416 417
f 360 417 361
f 360 408 416
f 361 417 373
f 361 373 372
f 362 365 418
f 362 418 471
f 362 471 524
f 362 524 569
f 362 569 614
f 362 614 612
f 362 612 645
f 362 645 644
f 362 644 643
f 362 643 668
f 362 668 669
f 362 669 650
f 362 650 622
f 362 622 621
f 362 621 620
f 362 620 577
f 362 577 576
f 362 576 574
f 362 574 531
f 362 531 575
f 362 575 619
f 362 619 618
f 362 618 617
f 362 617 626
f 362 626 627
f 362 627 652
f 362 652 661
f 362 661 667
f 362 667 666
f 362 666 665
f 362 665 662
f 362 662 635
f 362 635 634
f 362 634 633
f 362 633 632
f 362 632 595
f 362 595 594
f 362 594 593
f 362 593 592
f 362 592 564
f 362 564 526
f 362 526 525
f 362 525 473
f 362 473 419
f 362 419 366
f 362 366 364
f 362 364 363
f 366 419 368
f 367 368 420
f 367 420 421
f 367 421 369
f 368 419 420
f 369 421 370
f 370 421 422
f 370 422 409
f 373 417 423
f 373 423 375
f 374 424 376
f 374 375 425
f 374 425 424
f 375 423 426
f 375 426 425
f 376 424 427
f 376 427 428
f 376 428 429
f 376 429 430
f 376 430 377
f 377 430 431
f 377 431 378
f 378 431 432
f 378 432 379
f 379 432 380
f 380 433 381
f 380 432 433
f 381 433 434
f 381 434 384
f 381 384 383
f 381 383 382
f 384 435 436
f 384 436 437
f 384 437 438
f 384 438 387
f 384 387 386
f 384 434 435
f 387 389 388
f 387 438 437
f 387 437 439
f 387 439 440
f 387 440 441
f 387 441 442
f 387 442 443
f 387 443 389
f 389 443 442
f 389 442 444
f 389 444 445
f 389 445 446
f 389 446 392
f 389 392 391
f 392 446 445
f 392 445 447
f 392 447 448
f 392 448 394
f 392 394 393
f 394 448 449
f 394 449 450
f 394 450 395
f 395 451 396
f 395 450 451
f 396 452 397
f 396 451 452
f 398 415 453
f 398 453 454
f 398 454 455
f 398 455 456
f 398 456 399
f 399 456 457
f 399 457 400
f 400 457 458
f 400 458 401
f 401 458 402
f 402 458 403
f 403 458 459
f 403 459 460
f 403 460 461
f 403 461 462
f 403 462 416
f 403 416 404
f 404 416 405
f 405 416 406
f 406 416 407
f 407 416 408
f 409 422 463
f 409 463 414
f 410 414 463
f 410 463 464
f 410 464 465
f 410 465 466
f 410 466 411
f 411 466 467
f 411 467 412
f 412 467 468
f 412 468 413
f 413 468 415
f 415 468 454
f 415 454 453
f 416 462 469
f 416 469 423
f 416 423 417
f 418 470 519
f 418 519 550
f 418 550 549
f 418 549 591
f 418 591 565
f 418 565 522
f 418 522 471
f 419 472 420
f 419 473 474
f 419 474 472
f 420 472 421
f 421 472 464
f 421 464 422
f 422 464 463
f 423 469 475
f 423 475 426
f 424 425 476
f 424 476 427
f 425 426 477
f 425 477 476
f 426 475 477
f 427 476 428
f 428 478 479
f 428 479 429
f 428 476 480
f 428 480 481
f 428 481 482
f 428 482 478
f 429 479 483
f 429 483 430
f 430 483 484
f 430 484 431
f 431 484 485
f 431 485 432
f 432 485 486
f 432 486 433
f 433 487 488
f 433 488 435
f 433 435 434
f 433 486 487
f 435 489 490
f 435 490 437
f 435 437 436
f 435 488 489
f 437 491 492
f 437 492 493
f 437 493 440
f 437 440 439
f 437 490 491
f 440 494 495
f 440 495 496
f 440 496 497
f 440 497 498
f 440 498 442
f 440 442 441
f 440 493 492
f 440 492 494
f 442 498 497
f 442 497 499
f 442 499 500
f 442 500 501
f 442 501 445
f 442 445 444
f 445 501 500
f 445 500 502
f 445 502 503
f 445 503 504
f 445 504 447
f 447 504 448
f 448 504 503
f 448 503 505
f 448 505 506
f 448 506 507
f 448 507 449
f 449 507 450
f 454 508 509
f 454 509 455
f 454 468 467
f 454 467 510
f 454 510 508
f 455 509 511
f 455 511 456
f 456 511 512
f 456 512 457
f 457 512 513
f 457 513 514
f 457 514 458
f 458 514 515
f 458 515 516
f 458 516 517
f 458 517 469
f 458 469 459
f 459 469 460
f 460 469 461
f 461 469 462
f 464 472 465
f 465 474 518
f 465 518 466
f 465 472 474
f 466 518 510
f 466 510 467
f 469 517 475
f 470 520 503
f 470 503 521
f 470 521 500
f 470 500 499
f 470 499 497
f 470 497 519
f 471 522 523
f 471 523 524
f 473 525 474
f 474 525 526
f 474 526 518
f 475 527 477
f 475 517 516
f 475 516 515
f 475 515 514
f 475 514 528
f 475 528 527
f 476 477 480
f 477 529 480
f 477 527 570
f 477 570 529
f 478 482 530
f 478 530 531
f 478 531 532
f 478 532 533
f 478 533 534
f 478 534 535
f 478 535 479
f 479 535 483
f 480 529 536
f 480 536 481
f 481 537 538
f 481 538 482
f 481 536 537
f 482 538 530
f 483 535 539
f 483 539 484
f 484 539 540
f 484 540 485
f 485 540 487
f 485 487 486
f 487 541 542
f 487 542 488
f 487 540 541
f 488 542 489
f 489 542 543
f 489 543 544
f 489 544 490
f 490 544 491
f 491 544 492
f 492 545 546
f 492 546 495
f 492 495 494
f 492 544 547
f 492 547 545
f 495 546 548
f 495 548 549
f 495 549 550
f 495 550 496
f 496 550 519
f 496 519 497
f 500 521 502
f 502 521 503
f 503 520 505
f 508 510 551
f 508 551 552
f 508 552 553
f 508 553 554
f 508 554 509
f 509 554 555
f 509 555 556
f 509 556 511
f 510 518 551
f 511 556 599
f 511 599 557
f 511 557 512
f 512 557 513
f 513 558 514
f 513 557 559
f 513 559 560
f 513 560 561
f 513 561 562
f 513 562 527
f 513 527 558
f 514 558 563
f 514 563 528
f 518 526 564
f 518 564 551
f 522 565 566
f 522 566 523
f 523 566 567
f 523 567 568
f 523 568 569
f 523 569 524
f 527 562 570
f 527 528 563
f 527 563 571
f 527 571 558
f 529 570 572
f 529 572 536
f 530 538 573
f 530 573 531
f 531 574 532
f 531 573 575
f 532 574 576
f 532 576 533
f 533 576 577
f 533 577 578
f 533 578 579
f 533 579 534
f 534 579 580
f 534 580 535
f 535 580 539
f 536 581 537
f 536 572 616
f 536 616 581
f 537 582 538
f 537 581 583
f 537 583 582
f 538 582 573
f 539 580 584
f 539 584 541
f 539 541 540
f 541 585 586
f 541 586 542
f 541 584 585
f 542 586 543
f 543 586 587
f 543 587 544
f 544 587 547
f 545 547 587
f 545 587 588
f 545 588 589
f 545 589 590
f 545 590 546
f 546 590 548
f 548 590 549
f 549 590 591
f 551 564 592
f 551 592 593
f 551 593 552
f 552 593 594
f 552 594 553
f 553 594 554
f 554 594 595
f 554 595 596
f 554 596 555
f 555 596 597
f 555 597 598
f 555 598 599
f 555 599 556
f 557 599 600
f 557 600 601
f 557 601 602
f 557 602 603
f 557 603 604
f 557 604 559
f 558 571 563
f 559 604 560
f 560 604 570
f 560 570 561
f 561 570 562
f 565 591 605
f 565 605 566
f 566 605 606
f 566 606 567
f 567 607 608
f 567 608 609
f 567 609 610
f 567 610 611
f 567 611 612
f 567 612 613
f 567 613 569
f 567 569 568
f 567 606 607
f 569 613 614
f 570 604 572
f 572 615 616
f 572 604 603
f 572 603 602
f 572 602 601
f 572 601 615
f 573 582 617
f 573 617 618
f 573 618 619
f 573 619 575
f 577 620 578
f 578 620 621
f 578 621 622
f 578 622 623
f 578 623 624
f 578 624 579
f 579 624 580
f 580 624 584
f 581 616 625
f 581 625 583
f 582 626 617
f 582 583 626
f 583 625 652
f 583 652 627
f 583 627 626
f 584 624 585
f 585 628 586
f 585 624 629
f 585 629 628
f 586 628 630
f 586 630 587
f 587 631 588
f 587 630 631
f 588 607 589
f 588 631 607
f 589 607 605
f 589 605 590
f 590 605 591
f 595 632 596
f 596 632 633
f 596 633 597
f 597 633 634
f 597 634 635
f 597 635 636
f 597 636 598
f 598 637 600
f 598 600 599
f 598 636 638
f 598 638 639
f 598 639 637
f 600 637 640
f 600 640 615
f 600 615 601
f 605 607 606
f 607 631 608
f 608 631 609
f 609 630 628
f 609 628 641
f 609 641 610
f 609 631 630
f 610 641 642
f 610 642 643
f 610 643 644
f 610 644 611
f 611 645 612
f 611 644 645
f 612 614 613
f 615 640 616
f 616 646 625
f 616 640 647
f 616 647 648
f 616 648 649
f 616 649 646
f 622 650 651
f 622 651 623
f 623 651 629
f 623 629 624
f 625 646 653
f 625 653 654
f 625 654 655
f 625 655 656
f 625 656 657
f 625 657 658
f 625 658 659
f 625 659 660
f 625 660 639
f 625 639 661
f 625 661 652
f 628 629 641
f 629 651 641
f 635 662 638
f 635 638 636
f 637 663 664
f 637 664 649
f 637 649 648
f 637 648 647
f 637 647 640
f 637 639 660
f 637 660 659
f 637 659 658
f 637 658 657
f 637 657 656
f 637 656 655
f 637 655 663
f 638 662 639
f 639 662 665
f 639 665 666
f 639 666 667
f 639 667 661
f 641 651 642
f 642 668 643
f 642 651 669
f 642 669 668
f 646 649 653
f 649 664 653
f 650 669 651
f 653 664 654
f 654 664 655
f 655 664 663
