# ABC bottle geometry; canonical radius 1 and height 1, bottom z=0.
# https://github.com/mikedh/trimesh
v 0.329787346819 0.308333273446 0.910525387014
v 0.319654535966 0.319839617486 0.910525387014
v 0.329787346819 0.234840976346 0.910525387014
v 0.329787346819 0.585822309281 0.878978943506
v 0.277096565701 0.357179673731 0.910525387014
v -0.350253208389 0.234840976346 0.910525387014
v 0.329787346819 0.234840976346 0.0331072106664
v 0.329787346819 0.62130646012 0.874879704192
v 0.239731732111 0.385908442671 0.910525387014
v -0.328214322327 0.274036863142 0.910525387014
v -0.589641650774 0.357476627579 0.874701513851
v -0.602941096016 0.307590926254 0.876216423858
v -0.612440624904 0.262010868583 0.877374903673
v -0.617000404759 0.234840976346 0.877909583617
v -0.785965572178 0.234840976346 0.000936967288739
v 0.329787346819 0.655899824272 0.00280836689945
v 0.329787346819 0.644541919728 0.871938944692
v 0.320161161537 0.609725858905 0.877018473481
v 0.187040950994 0.410777111013 0.910525387014
v -0.306048705017 0.306477442895 0.910525387014
v -0.539737385155 0.396746771551 0.877374903673
v -0.522004966163 0.44663239802 0.875503504062
v -0.563296297643 0.417680932408 0.873008294679
v -0.611553955298 0.411742154877 0.867572335698
v -0.665257987559 0.357253930907 0.86454244637
v -0.634099541787 0.332459519741 0.870513095198
v -0.677544181658 0.307368229582 0.866413855883
v -0.649805458494 0.262010868583 0.872562744562
v -0.654491894742 0.234840976346 0.873186544432
v -0.630553087931 0.234840976346 0.876216423858
v -0.847015974648 0.234840976346 0.00263012704828
v -0.785965572178 0.262010868583 0.000847847363155
v 0.329787346819 0.718108474004 0.000313167418504
v 0.329787346819 0.710610744913 0.000402287344088
v 0.329787346819 0.658943470214 0.00263012704828
v 0.329787346819 0.66948477039 0.868730815513
v 0.261897274566 0.659982696397 0.873988594056
v 0.11218447771 0.431043106999 0.910525387014
v 0.209839850269 0.66941058807 0.875147073871
v 0.159935509794 0.676537031281 0.876127303932
v -0.266277250251 0.33973455216 0.910525387014
v -0.447781849699 0.522797130038 0.875592623987
v -0.492873022677 0.493326013907 0.873899464228
v -0.528844635945 0.529032861418 0.866413855883
v -0.556836671895 0.479444113941 0.86810700574
v -0.599267910911 0.449824483458 0.865879175938
v -0.652591973993 0.417012767537 0.861067006925
v -0.685650415369 0.395633213336 0.857947997672
v -0.697429834185 0.334166910796 0.861067006925
v -0.747334099804 0.295713371191 0.85572016787
v -0.727575028814 0.267281556099 0.860621456808
v -0.685777071762 0.262010868583 0.867661455623
v -0.689830226046 0.234840976346 0.868285255494
v -0.884380808238 0.234840976346 0.00655117602307
v -0.843469445936 0.262010868583 0.00280836689945
v -0.793058554746 0.343743167109 0.00218456702921
v -0.711109098894 0.411742154877 0.000758717535356
v -0.187241041146 0.785958872564 0.000313167418504
v 0.187040950994 0.785958872564 0.000134917665121
v 0.261897274566 0.785958872564 0.000580537097471
v 0.329787346819 0.789447911849 0.00200632717804
v 0.329787346819 0.696357708779 0.864809816049
v 0.321427800322 0.68433171422 0.867305025432
v 0.261897274566 0.695986497756 0.868998175289
v 0.0373280792817 0.439505879953 0.910525387014
v 0.11218447771 0.680545721086 0.876661983877
v 0.20122691613 0.742605931323 0.864898935974
v 0.11218447771 0.718034216828 0.871315134919
v 0.151322650511 0.748915845022 0.865879175938
v -0.262984109181 0.342481244254 0.910525387014
v -0.362792640418 0.591909526309 0.874968824117
v -0.418396593427 0.564739708928 0.873364784283
v -0.451835003982 0.600966206959 0.866146545617
v -0.480713559826 0.556945100846 0.868285255494
v -0.222452716057 0.372991661424 0.910525387014
v -0.501739269601 0.578992745062 0.863383966555
v -0.530111199874 0.604529428564 0.856789517857
v -0.554430050719 0.554198333896 0.859997647036
v -0.60357437798 0.529478254761 0.856700397931
v -0.578748901564 0.499710184782 0.863294846629
v -0.615607109582 0.479444113941 0.860354087129
v -0.671464450233 0.445518914661 0.855541918116
v -0.71262912532 0.413969196451 0.851175368536
v -0.752527161623 0.382419478241 0.846808759542
v -0.737961227308 0.33683942057 0.853848758357
v -0.762533316083 0.33683942057 0.848947469418
v -0.813704220486 0.262010868583 0.843600630363
v -0.774692778934 0.267281556099 0.851799168406
v -0.754933707943 0.245753487546 0.857056887536
v -0.730361544313 0.234840976346 0.861779936623
v -0.703382909218 0.234840976346 0.866146545617
v -0.910852892618 0.234840976346 0.0115415848872
v -0.907433095154 0.262010868583 0.0122544551719
v -0.880834354382 0.262010868583 0.00726410572111
v -0.833336635084 0.323328656771 0.00352129659748
v -0.775326135754 0.411742154877 0.00263012704828
v -0.411683580038 0.711056213113 0.000491407269673
v -0.715288984426 0.489762717445 0.00218456702921
v -0.64334575789 0.568599884382 0.00200632717804
v -0.568616015855 0.643428436369 0.00191725676353
v -0.262097439574 0.785958872564 0.000580537097471
v -0.0375283191463 0.856630220394 0.00200632717804
v 0.0373280792817 0.856259159082 0.00200632717804
v 0.11218447771 0.852621605445 0.00218456702921
v 0.187040950994 0.845495087378 0.00245193670818
v 0.261897274566 0.835621877217 0.00316480699293
v 0.329787346819 0.800286165874 0.00263012704828
v 0.329787346819 0.729540635724 0.859552096919
v 0.311674958648 0.754112200506 0.85696776761
v 0.261897274566 0.733400736321 0.863383966555
v 0.0360615153531 0.439505879953 0.910525387014
v 0.0373280792817 0.683737806524 0.877018473481
v 0.0373280792817 0.72115204509 0.871760694938
v 0.261897274566 0.762649230636 0.858482677616
v 0.18058125039 0.767994100473 0.861334376604
v 0.11218447771 0.751736719436 0.866324726055
v 0.0373280792817 0.754780365378 0.866859465413
v 0.11218447771 0.816840575614 0.854561688055
v 0.11218447771 0.78261834763 0.860888757172
v -0.313015031192 0.606311076795 0.876572863951
v -0.33834713318 0.637118447813 0.870958704728
v -0.363805891561 0.668000076007 0.864988065802
v -0.411683580038 0.614848032069 0.867928825302
v -0.191040882644 0.39266382457 0.910525387014
v -0.411683580038 0.65226234549 0.862760166685
v -0.449175144876 0.673716156867 0.855898407721
v -0.47539391647 0.627616448676 0.859641216845
v -0.499079410495 0.654340872713 0.852690278542
v -0.524284781234 0.673864596363 0.846095829844
v -0.552150160791 0.627764963028 0.849571269289
v -0.60116783166 0.601263160807 0.846363199523
v -0.580015540348 0.57936388123 0.853046708733
v -0.617380373938 0.557242054694 0.850195079061
v -0.672477701376 0.52242599387 0.845828470067
v -0.659558300168 0.493103317235 0.851710048481
v -0.689703494797 0.47246603537 0.848947469418
v -0.739607760415 0.43230510471 0.84404618048
v -0.764686624474 0.409143902278 0.840927240542
v -0.800278193707 0.33342463846 0.84048162111
v -0.82599033973 0.306180489047 0.836827941814
v -0.832956665905 0.262010868583 0.838610221499
v -0.817504061984 0.234840976346 0.844580919838
v -0.801798145278 0.234840976346 0.848056359283
v -0.76392661126 0.234840976346 0.855809287795
v -0.756327003121 0.234840976346 0.857324197802
v -0.933018509928 0.234840976346 0.0192945134001
v -0.900720081765 0.3058835352 0.0136803046658
v -0.822697123803 0.373214358096 0.00450152665898
v -0.760000188226 0.466898468862 0.00352129659748
v -0.488439899215 0.714767874214 0.00218456702921
v -0.411683580038 0.771557396934 0.00271924697386
v -0.340627023107 0.7917492106 0.00218456702921
v -0.693250023509 0.548333888396 0.00316480699293
v -0.623206717721 0.623236547847 0.00307573657841
v -0.548350319293 0.69234909383 0.00316480699293
v -0.262097439574 0.838220129815 0.00298661665283
v -0.187241041146 0.847647871776 0.00236281678259
v -0.112384642718 0.853586649308 0.00218456702921
v -0.0375283191463 0.894118790991 0.00494708667805
v 0.0373280792817 0.893673397648 0.00503620660363
v 0.11218447771 0.89003584401 0.00566000647387
v 0.187040950994 0.882983583119 0.00717497589331
v 0.311548302255 0.82790152631 0.00387772678875
v 0.329787346819 0.824041276001 0.0044124067334
v 0.329787346819 0.76650940609 0.852868528295
v 0.287989389767 0.819958403876 0.845204660295
v 0.262530631386 0.8026617218 0.850551568666
v -0.0375283191463 0.437204581203 0.910525387014
v -0.0375283191463 0.683218156005 0.876929353556
v -0.0375283191463 0.72063239457 0.871760694938
v 0.187040950994 0.810010936539 0.853135838561
v 0.0373280792817 0.788557125162 0.860888757172
v -0.0375283191463 0.787666263619 0.860888757172
v -0.0375283191463 0.754334897178 0.866770345487
v 0.187040950994 0.833394835642 0.848234549623
v 0.11218447771 0.839779081374 0.849660399116
v 0.0373280792817 0.819661450028 0.855185487925
v -0.262097439574 0.655528688104 0.873453914111
v -0.314028282335 0.681139628782 0.866948525925
v -0.334293978896 0.709942654898 0.860710576734
v -0.354812988244 0.738671423837 0.854116128036
v -0.411683580038 0.684999804235 0.857769817234
v -0.113144655932 0.423768149436 0.910525387014
v -0.412443518395 0.723824554864 0.850818878931
v -0.438029008025 0.742086205947 0.844669990252
v -0.479067026719 0.684925547059 0.850016829308
v -0.48628666568 0.724195691032 0.841283670733
v -0.538850790405 0.685519454755 0.84110542098
v -0.593441492271 0.668742423199 0.835045652227
v -0.576342355243 0.653078949858 0.84110542098
v -0.614973827618 0.615590454116 0.84110542098
v -0.668044577914 0.592280812189 0.834778341961
v -0.656011846312 0.5649624056 0.841907470604
v -0.687423604869 0.542395110864 0.839144950955
v -0.71351572007 0.490133928469 0.841640100925
v -0.753920456801 0.457841863068 0.837451741684
v -0.802178114456 0.408772766111 0.830857292986
v -0.815984110414 0.356140372692 0.833887172412
v -0.834856586654 0.33342463846 0.830857292986
v -0.858035455107 0.262010868583 0.831213782591
v -0.835489868618 0.234840976346 0.839768701314
v -0.948091069814 0.234840976346 0.0291861517894
v -0.926305496539 0.262010868583 0.0192945134001
v -0.828776855229 0.458212999236 0.0130565047955
v -0.840429617652 0.411742154877 0.0110068554314
v -0.861961878142 0.339511855488 0.00913550533181
v -0.906673081941 0.321621265716 0.0192945134001
v -0.891980491234 0.359109761458 0.0192945134001
v -0.867788296781 0.411742154877 0.0192945134001
v -0.812690969343 0.411742154877 0.00601649607842
v -0.743154289127 0.51678409533 0.00503620660363
v -0.464754330334 0.757007406952 0.00361041652306
v -0.36811235863 0.820626493891 0.00476889633795
v -0.318208093011 0.829237706341 0.00378860686316
v -0.67311098334 0.598293697185 0.00450152665898
v -0.598254584912 0.673122249172 0.00450152665898
v -0.514658670809 0.742234645443 0.00521445635702
v -0.187241041146 0.885062110342 0.00664030585087
v -0.112384642718 0.891000887874 0.00548182603598
v -0.112384642718 0.914755998001 0.010383045659
v -0.0375283191463 0.917279918567 0.00993749554215
v 0.0373280792817 0.916908857255 0.00993749554215
v 0.11218447771 0.91349400029 0.010650415338
v 0.187040950994 0.906961315062 0.0120762648318
v 0.235171877401 0.901393748554 0.0135020549124
v 0.26075736703 0.875485928885 0.00984837561656
v 0.329787346819 0.840150142686 0.00753141598679
v 0.329787346819 0.814316505336 0.842442150548
v 0.238085124148 0.827456058111 0.846897879468
v 0.329787346819 0.826119878079 0.839590510974
v 0.323074333429 0.832726745627 0.838610221499
v 0.262530631386 0.841560654749 0.841551040412
v -0.0385415702892 0.437130398883 0.910525387014
v -0.112384642718 0.678764072856 0.876394673611
v -0.0936388977271 0.751810976612 0.866324726055
v -0.0375283191463 0.819364421324 0.855096368
v 0.187040950994 0.862197861758 0.84110542098
v 0.105218151535 0.879346104338 0.840125190918
v 0.0755795824774 0.898350102612 0.836115071529
v 0.0373280792817 0.842599955788 0.850195079061
v -0.203833627459 0.666960774968 0.874879704192
v -0.262097439574 0.69190362563 0.868463505247
v -0.262097439574 0.729317864196 0.862760166685
v -0.305035379018 0.751068629421 0.856433087666
v -0.388124742406 0.755893848737 0.847521679338
v -0.112384642718 0.423990846108 0.910525387014
v -0.15392936184 0.674903897402 0.875859993666
v -0.412443518395 0.770443838719 0.841283670733
v -0.461207876478 0.756413499257 0.838075541554
v -0.511112142097 0.739116817181 0.833619862146
v -0.56076309493 0.710610744913 0.831035542739
v -0.607880845049 0.682178929821 0.828451213431
v -0.637899383285 0.638009234501 0.831570212782
v -0.681217291907 0.607276195514 0.828183903165
v -0.709335909394 0.558800931397 0.830679102646
v -0.737327945344 0.507727489537 0.833085192103
v -0.749487333338 0.525395382636 0.826490743405
v -0.762280003297 0.484343590433 0.830322613041
v -0.814970859271 0.431711271871 0.823282614226
v -0.827003590873 0.381825570546 0.827292733616
v -0.862088609391 0.33683942057 0.821232964862
v -0.873614715421 0.234840976346 0.828273023091
v -0.865508406854 0.234840976346 0.830857292986
v -0.886534041773 0.26342130579 0.821322084788
v -0.902746584051 0.239369316671 0.818024895097
v -0.95721070438 0.234840976346 0.0387213599875
v -0.941378131281 0.262010868583 0.0291861517894
v -0.763039941654 0.544547895263 0.0116306553017
v -0.786472197749 0.487535675871 0.00904638540623
v -0.836629776154 0.471204112515 0.0192945134001
v -0.813197594915 0.508618276224 0.0192945134001
v -0.744927553484 0.594507778907 0.0156408341043
v -0.913006126152 0.343297773765 0.0285623519192
v -0.897553522231 0.37254626808 0.0248195427956
v -0.719088751068 0.571420833652 0.00806608602923
v -0.411683580038 0.8089716355 0.00681848628876
v -0.411683580038 0.835399180545 0.0117197752273
v -0.340627023107 0.848909869487 0.00860076597388
v -0.265390655501 0.878752196642 0.00958106535088
v -0.695023287865 0.621158020624 0.011095975357
v -0.647145599388 0.647140172326 0.00779878566576
v -0.62118014058 0.69294292667 0.011095975357
v -0.570009311032 0.717588823484 0.00815521585703
v -0.54163738076 0.761313050605 0.0118088951529
v -0.483626806574 0.784103042013 0.00958106535088
v -0.242591756226 0.903249653961 0.0130565047955
v -0.187241041146 0.909188431493 0.0116306553017
v -0.112384642718 0.940218424327 0.0192945134001
v -0.0375283191463 0.945117900819 0.0192945134001
v 0.0373280792817 0.944375553628 0.0192945134001
v 0.11218447771 0.93776868608 0.0192945134001
v 0.187040950994 0.92500034433 0.0192945134001
v 0.329787346819 0.851359607734 0.00993749554215
v 0.329787346819 0.847647871776 0.00904638540623
v 0.26075736703 0.907035572238 0.0196509435914
v 0.285076217875 0.893896019464 0.0165319442402
v 0.329787346819 0.837403525448 0.83647150172
v 0.329787346819 0.852547423125 0.831837582461
v 0.258984102674 0.880904981041 0.83058998272
v 0.187040950994 0.889590450667 0.833352502369
v -0.116057827823 0.722042906633 0.870067535179
v -0.112384642718 0.815355806375 0.854294318376
v -0.116057827823 0.77400713518 0.861779936623
v -0.143543163346 0.747431150639 0.865611865672
v -0.0375283191463 0.842228744764 0.850105949233
v -0.112384642718 0.838442826487 0.849303968925
v 0.125483848096 0.894786881007 0.835045652227
v 0.0373280792817 0.898498542108 0.836204132041
v 0.0373280792817 0.880014119497 0.84110542098
v 0.105218151535 0.908297644805 0.831481092856
v 0.11218447771 0.936135552202 0.821232964862
v 0.0373280792817 0.941257800222 0.821232964862
v 0.0373280792817 0.913642514642 0.831213782591
v -0.18217463572 0.698807447026 0.871226014994
v -0.187241041146 0.741640812603 0.864720696123
v -0.262097439574 0.758863237503 0.857769817234
v -0.258677642111 0.797910684803 0.850284198987
v -0.281349884993 0.81706319743 0.844491799912
v -0.332647445789 0.765692876578 0.850818878931
v -0.33923372793 0.806818851101 0.84110542098
v -0.36570581231 0.819661450028 0.835045652227
v -0.412696831181 0.807412758797 0.831481092856
v -0.43828232081 0.81758284795 0.824262844288
v -0.48628666568 0.766583663266 0.830679102646
v -0.527957966339 0.75158827994 0.82702542335
v -0.57798888835 0.732138813466 0.821232964862
v -0.592048197094 0.743125506986 0.814371205899
v -0.621306796972 0.6947245749 0.821232964862
v -0.658671630562 0.65805260867 0.821232964862
v -0.693250023509 0.620638370105 0.821232964862
v -0.742141037985 0.59020221011 0.814014716294
v -0.730741588347 0.574687101409 0.821232964862
v -0.757720298298 0.537272862844 0.821232964862
v -0.795718488708 0.480186461132 0.820520035164
v -0.824343731767 0.451012298849 0.816688165528
v -0.834096573441 0.408772766111 0.820520035164
v -0.886787429414 0.337358996233 0.811519506911
v -0.895146975911 0.289329200315 0.814995005769
v -0.902999971692 0.234840976346 0.818203075535
v -0.910599579832 0.26342130579 0.811519506911
v -0.917312593222 0.234840976346 0.811519506911
v -0.904899817585 0.234840976346 0.817401095226
v -0.962910391771 0.234840976346 0.0489694879814
v -0.950624272528 0.262010868583 0.039077849592
v -0.925798870967 0.33683942057 0.039077849592
v -0.884887508665 0.408327297911 0.0285623519192
v -0.841189630865 0.491247411828 0.0296317712218
v -0.820290577483 0.519382347928 0.026601881894
v -0.772919514577 0.566298660487 0.0191162735489
v -0.752907205658 0.604009778045 0.0223244027279
v -0.712249081286 0.637489658837 0.0187598334555
v -0.671084406198 0.671043647093 0.0152843345975
v -0.901480020122 0.381083223354 0.0314140509069
v -0.452594942339 0.825229016536 0.0138585445169
v -0.292496021845 0.895900364366 0.0153734644253
v -0.591541571522 0.742902810314 0.0167101840914
v -0.501359225566 0.810604769378 0.0192945134001
v -0.265390655501 0.910524611524 0.0189380237956
v -0.187241041146 0.929380245158 0.0192945134001
v -0.187241041146 0.943930160284 0.0291861517894
v -0.112384642718 0.954545717637 0.0291861517894
v -0.0375283191463 0.959371011809 0.0291861517894
v 0.0373280792817 0.958702846938 0.0291861517894
v 0.11218447771 0.95209597939 0.0291861517894
v 0.187040950994 0.939698848663 0.0291861517894
v 0.261897274566 0.921065986556 0.0291861517894
v 0.329787346819 0.883132022615 0.0194727037402
v 0.304708632473 0.900206008019 0.0232155128638
v 0.329787346819 0.88424558083 0.0200073836849
v 0.329787346819 0.883132022615 0.821856764733
v 0.281909733198 0.892931050456 0.824262844288
v 0.232005392723 0.900502887011 0.826936293522
v 0.187040950994 0.90488278784 0.828451213431
v -0.187241041146 0.831019279716 0.847699869678
v -0.187241041146 0.807412758797 0.852690278542
v -0.187241041146 0.769998445375 0.859730277357
v -0.0366416495403 0.883206279791 0.840125190918
v -0.0610871567782 0.897904709269 0.836025951604
v -0.112384642718 0.872219586271 0.84110542098
v -0.0111828911595 0.898424434644 0.836204132041
v 0.187040950994 0.924629208162 0.821232964862
v 0.187040950994 0.948458575465 0.811341326473
v 0.108258054675 0.961820750055 0.810628396775
v 0.0807727191526 0.973921076647 0.806796467726
v -0.0375283191463 0.940515378175 0.821232964862
v 0.0373280792817 0.96352814111 0.811965126343
v -0.0366416495403 0.910227657676 0.832104892726
v -0.231445619374 0.82567440988 0.846541389863
v -0.258677642111 0.837923175967 0.84110542098
v -0.315928203084 0.830054310709 0.837897351214
v -0.33923372793 0.842080305268 0.831481092856
v -0.388378055192 0.830796583044 0.828451213431
v -0.412696831181 0.840372914213 0.821054774522
v -0.456014814659 0.827233361439 0.81766839559
v -0.483120181003 0.799989212026 0.821054774522
v -0.540624054761 0.761090353934 0.821232964862
v -0.564816249213 0.772522440797 0.811252196645
v -0.603320990338 0.75218211278 0.807776757201
v -0.636506088108 0.711353092105 0.811430446399
v -0.669564529484 0.66941058807 0.814995005769
v -0.710729204571 0.635782192926 0.81116307672
v -0.751133941302 0.602153947494 0.807420267596
v -0.768739778757 0.563700407889 0.810984826966
v -0.809271097024 0.500304017622 0.811341326473
v -0.830803357514 0.46281552188 0.811341326473
v -0.856262190751 0.411742154877 0.811341326473
v -0.894133724768 0.362598800743 0.803410148207
v -0.902493271265 0.312713174275 0.808400566973
v -0.928585386466 0.262010868583 0.80144962867
v -0.934665043035 0.234840976346 0.80144962867
v -0.9641769557 0.234840976346 0.0588611956862
v -0.955437365168 0.262010868583 0.0489694879814
v -0.930738620001 0.33683942057 0.0489694879814
v -0.905153130371 0.388655134765 0.039077849592
v -0.886914085807 0.426069448187 0.039077849592
v -0.824723700945 0.52584077598 0.033196330592
v -0.853728988038 0.486570632008 0.039077849592
v -0.79951825535 0.555089195439 0.0296317712218
v -0.758353580263 0.610468206096 0.0291861517894
v -0.723775187316 0.647808262342 0.0291861517894
v -0.679697340337 0.679729116719 0.0218787832956
v -0.636252775322 0.711278909785 0.0192945134001
v -0.463994391977 0.831316233564 0.0192945134001
v -0.411683580038 0.85714994577 0.0192945134001
v -0.336700525217 0.887511923444 0.0189380237956
v -0.3118750488 0.902507231913 0.0219679032211
v -0.601547800838 0.750548978901 0.0233046327894
v -0.564562936427 0.769478869712 0.0197400734192
v -0.516685173094 0.819215981828 0.0291861517894
v -0.262097439574 0.927078946408 0.0291861517894
v -0.262097439574 0.936506688369 0.039077849592
v -0.187241041146 0.95306109811 0.039077849592
v -0.112384642718 0.963899277278 0.039077849592
v -0.0363883367546 0.969615358138 0.0398798398024
v -0.0106762655881 0.973327094095 0.0437117688516
v 0.00566300793884 0.973327094095 0.0437117688516
v 0.0332749998542 0.969021450442 0.0398798398024
v 0.11218447771 0.961301099536 0.039077849592
v 0.187040950994 0.948978225985 0.039077849592
v 0.261897274566 0.930716425189 0.039077849592
v 0.315221412504 0.903991926296 0.0291861517894
v 0.329787346819 0.898498542108 0.0291861517894
v 0.329787346819 0.894786881007 0.026334512215
v 0.329787346819 0.887586105764 0.820341854726
v 0.310028275829 0.901839141898 0.81766839559
v 0.258984102674 0.908446084301 0.821054774522
v 0.261897274566 0.931236150565 0.811341326473
v -0.187241041146 0.857743778609 0.84110542098
v -0.112384642718 0.933611556779 0.821232964862
v -0.112384642718 0.909485310484 0.82996618285
v -0.112384642718 0.894564184335 0.834956532301
v 0.261897274566 0.948681197281 0.80144962867
v 0.186027624995 0.966200650884 0.801271378917
v 0.130676984771 0.970357705329 0.80439038817
v 0.108258054675 0.977484223396 0.801271378917
v 0.0373280792817 0.981641352697 0.80144962867
v 0.0373280792817 0.974217955639 0.806974717479
v -0.0375283191463 0.963156930087 0.811697756664
v -0.0762863730574 0.973252911775 0.80652915746
v -0.0375283191463 0.973772487439 0.806796467726
v -0.227139152305 0.899018267484 0.826490743405
v -0.256144364542 0.87674785174 0.830322613041
v -0.277043417924 0.890407055034 0.823371734152
v -0.331380807005 0.878232546123 0.820520035164
v -0.35810620417 0.892262885585 0.811341326473
v -0.374192090055 0.898201663116 0.806440037535
v -0.411683580038 0.866503505411 0.811341326473
v -0.470074123402 0.835027969521 0.811341326473
v -0.507565613385 0.813203021977 0.811341326473
v -0.520105045414 0.820997704915 0.804925068115
v -0.679444027551 0.679580677223 0.808400566973
v -0.556076658682 0.799469636362 0.801538748596
v -0.61028739137 0.75782401132 0.80144962867
v -0.647778956208 0.724418387703 0.80144962867
v -0.723901918565 0.645878174615 0.80144962867
v -0.756073690335 0.608538118369 0.80144962867
v -0.78951210089 0.561473366315 0.80144962867
v -0.819403982733 0.517378003026 0.80144962867
v -0.840049648473 0.47996376446 0.80144962867
v -0.879187746419 0.404764076306 0.800647579047
v -0.898693429767 0.375218702998 0.796815709411
v -0.90616645637 0.337358996233 0.800647579047
v -0.937451558534 0.262010868583 0.791557980379
v -0.943531364815 0.234840976346 0.791557980379
v -0.964050374163 0.234840976346 0.0687528934888
v -0.95657734756 0.262010868583 0.0687528934888
v -0.95657734756 0.262010868583 0.0588611956862
v -0.907813064333 0.394074261777 0.0489694879814
v -0.931878527536 0.33683942057 0.0588611956862
v -0.889320557272 0.431488500343 0.0489694879814
v -0.827510216444 0.530072162457 0.039077849592
v -0.80129144485 0.567486401022 0.039077849592
v -0.858922049857 0.486570632008 0.0489694879814
v -0.830423388336 0.534155034582 0.0489694879814
v -0.76392661126 0.616852376972 0.039077849592
v -0.72998164999 0.654266615537 0.039077849592
v -0.686410353726 0.686484498618 0.0291861517894
v -0.644739053068 0.72397299436 0.0291861517894
v -0.479320339505 0.839556309846 0.0291861517894
v -0.411683580038 0.873036190638 0.0291861517894
v -0.363425922382 0.894267230487 0.0291861517894
v -0.326061013937 0.907555222758 0.0291861517894
v -0.607374144622 0.75500306205 0.0291861517894
v -0.561396376894 0.78833442849 0.0291861517894
v -0.522891560913 0.82277927829 0.034800370426
v -0.343286882214 0.910821565372 0.0385431795496
v -0.33682718161 0.918541916278 0.0489694879814
v -0.262097439574 0.941257800222 0.0489694879814
v -0.187241041146 0.957737803074 0.0489694879814
v -0.106811611721 0.969541175818 0.0489694879814
v -0.0605805312068 0.972733261256 0.0456722982901
v -0.0363883367546 0.973921076647 0.0489694879814
v -0.0375283191463 0.975108817182 0.0588611956862
v 0.020862224218 0.973921076647 0.0489694879814
v 0.0583537890565 0.972362125088 0.0489694879814
v 0.11218447771 0.966274833204 0.0489694879814
v 0.187040950994 0.953877702477 0.0489694879814
v 0.261897274566 0.935690158858 0.0489694879814
v 0.329787346819 0.908371827125 0.039077849592
v 0.329787346819 0.901393748554 0.0320378507771
v 0.329787346819 0.906887132742 0.812588926214
v 0.329787346819 0.910301989708 0.811073956794
v 0.329787346819 0.925742691521 0.802429858732
v -0.187241041146 0.887511923444 0.832728692597
v -0.187241041146 0.920620518357 0.821232964862
v -0.187241041146 0.902878442937 0.82782741356
v -0.105671629329 0.960113359001 0.810450156924
v -0.187241041146 0.944227114132 0.811341326473
v 0.329787346819 0.935764341178 0.792538220343
v 0.261897274566 0.957737803074 0.791557980379
v 0.211486383376 0.971100127377 0.791557980379
v 0.329787346819 0.927375900256 0.80144962867
v 0.160315478972 0.974663274126 0.797795939472
v 0.11218447771 0.985278906335 0.791557980379
v 0.0373280792817 0.990252565147 0.791557980379
v -0.0375283191463 0.98067638369 0.80144962867
v -0.105671629329 0.976073861045 0.800736698972
v -0.126190638676 0.96924422197 0.803499278035
v -0.262097439574 0.925148783825 0.811341326473
v -0.256144364542 0.905105484512 0.820520035164
v -0.302882145483 0.899389403652 0.816777285454
v -0.344300208212 0.913716696962 0.802429858732
v -0.383058262123 0.902507231913 0.799845588836
v -0.40940369011 0.885210624694 0.802429858732
v -0.491733115141 0.84185753374 0.801538748596
v -0.320614639332 0.905550877855 0.811341326473
v -0.262097439574 0.942371208725 0.80144962867
v -0.527578072016 0.825971363728 0.798330619417
v -0.686410353726 0.686929891962 0.80144962867
v -0.617000404759 0.7631688063 0.791557980379
v -0.654365313205 0.730579861907 0.791557980379
v -0.729854918741 0.652559299338 0.791557980379
v -0.761266752154 0.615145060773 0.791557980379
v -0.823203749375 0.523762173901 0.796281029466
v -0.882227574703 0.415973541354 0.791557980379
v -0.900213456193 0.378485045612 0.791557980379
v -0.914272764937 0.33683942057 0.791557980379
v -0.917439249614 0.33683942057 0.781666282576
v -0.940491461675 0.262010868583 0.781666282576
v -0.944671272351 0.234840976346 0.787993361595
v -0.947584444243 0.234840976346 0.758229267089
v -0.941631369211 0.262010868583 0.751991248582
v -0.942518113673 0.262010868583 0.712335466174
v -0.951764254919 0.262010868583 0.296528708593
v -0.95239761174 0.262010868583 0.2668536845
v -0.953030893704 0.262010868583 0.237089540483
v -0.927572060467 0.33683942057 0.296528708593
v -0.928331998824 0.33683942057 0.256962006502
v -0.931878527536 0.33683942057 0.0687528934888
v -0.918072531579 0.33683942057 0.771774584774
v -0.919465826756 0.33683942057 0.702443778274
v -0.908319689904 0.395262077168 0.0588611956862
v -0.889953914092 0.432676315734 0.0588611956862
v -0.908446346297 0.395262077168 0.0687528934888
v -0.804204691598 0.571569348004 0.0489694879814
v -0.860188613786 0.486570632008 0.0588611956862
v -0.8310566703 0.535120078445 0.0588611956862
v -0.804964629955 0.572534317011 0.0588611956862
v -0.766713201615 0.620267233937 0.0489694879814
v -0.733274716204 0.657681472503 0.0489694879814
v -0.692616741544 0.692794487174 0.039077849592
v -0.652338661207 0.730282908059 0.039077849592
v -0.493379648248 0.841931865772 0.0384540497218
v -0.407123800183 0.885062110342 0.0385431795496
v -0.372545482092 0.897607755421 0.0348894903516
v -0.614847096369 0.76071914291 0.039077849592
v -0.556076658682 0.802884418472 0.0384540497218
v -0.527578072016 0.82567440988 0.0413948092218
v -0.379131839089 0.900280265195 0.0414839390496
v -0.382678292945 0.901839141898 0.0489694879814
v -0.33682718161 0.919803988845 0.0588611956862
v -0.262097439574 0.942371208725 0.0588611956862
v -0.187241041146 0.958925618466 0.0588611956862
v -0.118084404965 0.969466843786 0.0588611956862
v -0.0780596374134 0.973401351271 0.0522667469881
v -0.0807194965194 0.973698305119 0.0588611956862
v -0.0375283191463 0.975479878494 0.0687528934888
v 0.0373280792817 0.974811863334 0.0687528934888
v 0.0431544979213 0.974217955639 0.059306745803
v 0.0719064722284 0.972955957928 0.0562768663775
v 0.104838182356 0.968650389131 0.059306745803
v 0.187040950994 0.955288064828 0.0588611956862
v 0.329787346819 0.909336870989 0.0410383790305
v 0.261897274566 0.937026413745 0.0588611956862
v 0.329787346819 0.913197121298 0.0489694879814
v -0.18128804097 0.963231262118 0.800736698972
v 0.329787346819 0.936580945545 0.791557980379
v 0.261897274566 0.960558752344 0.781666282576
v 0.220859255871 0.972510489728 0.781666282576
v 0.173994893393 0.976593436709 0.791557980379
v 0.11218447771 0.988025598429 0.781666282576
v 0.0373280792817 0.992999332097 0.781666282576
v -0.0375283191463 0.989213338964 0.791557980379
v -0.112384642718 0.982680653737 0.791557980379
v -0.15240941027 0.973549865623 0.796904829336
v -0.33682718161 0.926707735384 0.791557980379
v -0.390024663155 0.905922088879 0.791557980379
v -0.427516153137 0.886843758573 0.791557980379
v -0.197880552427 0.967982224259 0.791557980379
v -0.262097439574 0.951353632199 0.791557980379
v -0.486539978466 0.854700207523 0.791557980379
v -0.531504495051 0.828643798646 0.791557980379
v -0.568869328641 0.800657376897 0.791557980379
v -0.692363428759 0.693165623342 0.791557980379
v -0.571275949817 0.802438950272 0.781666282576
v -0.619153563438 0.765024711707 0.781666282576
v -0.656645128276 0.732658463986 0.781666282576
v -0.73175483949 0.654860598089 0.781666282576
v -0.803571409634 0.555534588783 0.792449100417
v -0.763039941654 0.617446284667 0.781666282576
v -0.800531506493 0.565853267144 0.781666282576
v -0.825230401373 0.526657305491 0.789686580768
v -0.841569600043 0.493919846746 0.792449100417
v -0.849295864576 0.486570632008 0.781666282576
v -0.883747526274 0.419388323463 0.781666282576
v -0.901733332908 0.381899827722 0.781666282576
v -0.9465711931 0.234840976346 0.781666282576
v -0.941124668783 0.262010868583 0.771774584774
v -0.946824505886 0.234840976346 0.778101723206
v -0.947331131457 0.234840976346 0.768210025403
v -0.902239958479 0.382790614409 0.761882946384
v -0.906419769156 0.391179130187 0.296528708593
v -0.907306438762 0.392960778418 0.197522868099
v -0.902113302086 0.382567917737 0.771774584774
v -0.889953914092 0.432676315734 0.0687528934888
v -0.887167398593 0.426440584354 0.415407015107
v -0.887420711379 0.426960234874 0.385642880991
v -0.767599796365 0.621158020624 0.0588611956862
v -0.860188613786 0.486570632008 0.0687528934888
v -0.8310566703 0.535120078445 0.0687528934888
v -0.804964629955 0.572608574187 0.0687528934888
v -0.73416138581 0.658646516366 0.0588611956862
v -0.695783226222 0.696135012107 0.0489694879814
v -0.656265159098 0.733549325529 0.0489694879814
v -0.486539978466 0.85150804723 0.0489694879814
v -0.420169857783 0.884987928022 0.0489694879814
v -0.618773669115 0.763688531676 0.0489694879814
v -0.567602764712 0.801102770241 0.0489694879814
v -0.530237856266 0.827381800935 0.0489694879814
v -0.384071588122 0.902433049593 0.0588611956862
v -0.384451557301 0.902581563945 0.0687528934888
v -0.33682718161 0.920026685517 0.0687528934888
v -0.262097439574 0.942593980253 0.0687528934888
v -0.187241041146 0.959148240281 0.0687528934888
v -0.148736225165 0.972955957928 0.395534549087
v -0.14417644531 0.972362125088 0.336184510804
v -0.14176989899 0.97206517124 0.306420376689
v -0.139363352669 0.971768292248 0.276745352596
v -0.136830149956 0.971471188689 0.247070328504
v -0.132397026494 0.970951613025 0.197522868099
v -0.129610510995 0.970654584321 0.167847824202
v -0.126697339104 0.970357705329 0.138083670282
v -0.123784092356 0.970060751482 0.108408685798
v -0.120744264071 0.969763797634 0.0787336518037
v -0.119604356535 0.969615358138 0.0687528934888
v -0.0375283191463 0.976667693885 0.11830033409
v -0.0822394480898 0.973846744615 0.0687528934888
v -0.0375283191463 0.991514562858 0.742099590388
v -0.0375283191463 0.990104125651 0.68266043218
v -0.0375283191463 0.984685073495 0.454973707295
v 0.0373280792817 0.993222028769 0.771774584774
v 0.0373280792817 0.984165422976 0.425298693105
v 0.0373280792817 0.9836456976 0.405426227085
v 0.0750729569059 0.97310447228 0.0628713051733
v 0.113197803709 0.967907967083 0.0687528934888
v 0.187040950994 0.955659275852 0.0687528934888
v 0.261897274566 0.937471807089 0.0687528934888
v 0.329787346819 0.914236347481 0.0582373859137
v 0.329787346819 0.914978694673 0.0697331235503
v 0.329787346819 0.939401969671 0.781666282576
v 0.329787346819 0.939550409167 0.772665754323
v 0.261897274566 0.96070719184 0.771774584774
v 0.221365956299 0.972584746904 0.771774584774
v 0.184001047853 0.978078056236 0.771774584774
v 0.183367765889 0.978003948772 0.781666282576
v 0.11218447771 0.988248220245 0.771774584774
v -0.0375283191463 0.991959956202 0.781666282576
v -0.112384642718 0.985427420687 0.781666282576
v -0.160515718837 0.97496030283 0.791557980379
v -0.33682718161 0.929677199006 0.781666282576
v -0.393064491439 0.907406783262 0.781666282576
v -0.430556056278 0.888402710131 0.781666282576
v -0.486539978466 0.857966475281 0.781666282576
v -0.205733548208 0.969466843786 0.781666282576
v -0.262097439574 0.954323095821 0.781666282576
v -0.533911041371 0.8303511897 0.781666282576
v -0.694390005901 0.695244150564 0.781666282576
v -0.571655918996 0.8026617218 0.771774584774
v -0.619533607472 0.765247483235 0.771774584774
v -0.657025097455 0.733029600153 0.771774584774
v -0.732134808669 0.655231734256 0.771774584774
v -0.763419985689 0.617817495691 0.771774584774
v -0.826370308908 0.528438953722 0.781666282576
v -0.800784819279 0.566372842807 0.771774584774
v -0.849802490147 0.486570632008 0.771774584774
v -0.884000839059 0.419982156303 0.771774584774
v -0.94720454992 0.234840976346 0.771774584774
v -0.884254151845 0.420576063998 0.742099590388
v -0.884887508665 0.421838061709 0.672768754182
v -0.85575556518 0.486570632008 0.385642880991
v -0.859808644607 0.486570632008 0.0985169879957
v -0.860061957393 0.486570632008 0.0787336518037
v -0.850309115719 0.486570632008 0.742099590388
v -0.852589005646 0.486570632008 0.59354624988
v -0.853348944003 0.486570632008 0.54399876967
v -0.767599796365 0.621232202944 0.0687528934888
v -0.83017007555 0.533783823558 0.227197872387
v -0.830550044729 0.534303548934 0.167847824202
v -0.830930013907 0.534823124598 0.108408685798
v -0.8310566703 0.534971638949 0.0886253496063
v -0.8310566703 0.535045821269 0.0787336518037
v -0.826750278087 0.529032861418 0.761882946384
v -0.82776352923 0.530443298625 0.603437917976
v -0.804964629955 0.572385877515 0.0886253496063
v -0.76734648358 0.621009506273 0.138083670282
v -0.767473139973 0.621158020624 0.108408685798
v -0.767599796365 0.621232202944 0.0787336518037
v -0.73416138581 0.658720698686 0.0687528934888
v -0.696796552221 0.697100055971 0.0687528934888
v -0.696669820972 0.697025798795 0.0588611956862
v -0.657151753848 0.734440112216 0.0588611956862
v -0.531251182265 0.828049965806 0.0588611956862
v -0.486539978466 0.852695862621 0.0588611956862
v -0.421563152961 0.885507578541 0.0588611956862
v -0.619660189009 0.764430878867 0.0588611956862
v -0.568616015855 0.801845117433 0.0588611956862
v -0.33682718161 0.921065986556 0.138083670282
v -0.421816465747 0.885581760861 0.0687528934888
v -0.3854648833 0.903101139609 0.138083670282
v -0.33682718161 0.929899820822 0.761882946384
v -0.33682718161 0.929231805663 0.712335466174
v -0.33682718161 0.926559295888 0.524215423576
v -0.262097439574 0.942965116421 0.0886253496063
v -0.262097439574 0.954620049669 0.771774584774
v -0.262097439574 0.954174656325 0.742099590388
v -0.262097439574 0.953357977101 0.692552110178
v -0.262097439574 0.949794755496 0.484559611462
v -0.187241041146 0.959371011809 0.0787336518037
v -0.206493486565 0.969689615314 0.771774584774
v -0.149369581985 0.973030140248 0.403822167447
v -0.112384642718 0.985724299679 0.771774584774
v -0.107571550078 0.977187269549 0.3460761789
v -0.103518395794 0.976593436709 0.296528708593
v -0.0993386599738 0.975999603869 0.247070328504
v -0.0832527740887 0.973995258967 0.0787336518037
v -0.0931322721557 0.975182924646 0.177739522004
v -0.088319179515 0.974589091806 0.128192031892
v -0.0375283191463 0.99218272773 0.771774584774
v 0.076846221262 0.973327094095 0.0787336518037
v 0.187040950994 0.956030486876 0.0787336518037
v 0.0850791862218 0.974514909487 0.157956126399
v 0.149676042548 0.97310447228 0.419951834245
v 0.2203526303 0.972436307408 0.761882946384
v 0.329787346819 0.927598522072 0.425298693105
v 0.329787346819 0.926930432056 0.406406486853
v 0.329787346819 0.923738346618 0.316312044785
v 0.329787346819 0.917799643943 0.148955598146
v 0.329787346819 0.91638913188 0.109299795934
v 0.261897274566 0.952244493742 0.51432375548
v 0.329787346819 0.939253380463 0.761882946384
v 0.329787346819 0.938585290448 0.742099590388
v 0.329787346819 0.931087561357 0.524215423576
v 0.329787346819 0.939550409167 0.771774584774
v 0.261897274566 0.960113359001 0.751991248582
v 0.11218447771 0.987134811742 0.732118802366
v -0.168241983369 0.976370814893 0.781666282576
v -0.33682718161 0.929974077998 0.771774584774
v -0.393444460618 0.907629479934 0.771774584774
v -0.430936025456 0.888625406803 0.771774584774
v -0.486539978466 0.858411943481 0.771774584774
v -0.534164354157 0.830573886372 0.771774584774
v -0.694769900223 0.695615361588 0.771774584774
v -0.571655918996 0.8026617218 0.742099590388
v -0.619660189009 0.765247483235 0.742099590388
v -0.657531797882 0.734217415545 0.375751202993
v -0.657405066633 0.733920386841 0.484559611462
v -0.695529913436 0.696431965955 0.504432077481
v -0.696289851793 0.697025798795 0.247070328504
v -0.696036539008 0.696877359299 0.336184510804
v -0.695909882615 0.696803102123 0.375751202993
v -0.764559893225 0.618782464698 0.59354624988
v -0.764179924046 0.618485585706 0.652896298064
v -0.76392661126 0.618262889035 0.692552110178
v -0.732261465062 0.655380173752 0.742099590388
v -0.767219827187 0.620935323953 0.157956126399
v -0.766839858008 0.620712627281 0.217306204291
v -0.765953188402 0.619970280089 0.365859524995
v -0.80192480167 0.56785753719 0.603437917976
v -0.801544832492 0.567337961527 0.662877086086
v -0.800911475671 0.566447099983 0.761882946384
v -0.804837973562 0.572163180843 0.11830033409
v -0.804711317169 0.571866226995 0.147975368084
v -0.804584660776 0.571717787499 0.167847824202
v -0.803571409634 0.570233093117 0.336184510804
v -0.826623621694 0.528884347066 0.771774584774
v -0.733401447453 0.657458775831 0.355967856899
v -0.733654760239 0.657904169174 0.2668536845
v -0.734034729418 0.658498002014 0.138083670282
v -0.732514777847 0.655825567096 0.662877086086
v -0.732641509096 0.656122520944 0.613329605876
v -0.73416138581 0.658646516366 0.0886253496063
v -0.696543239435 0.697100055971 0.157956126399
v -0.696669820972 0.697100055971 0.11830033409
v -0.657405066633 0.734514294536 0.11830033409
v -0.657278410241 0.734514294536 0.0687528934888
v -0.657531797882 0.73436585504 0.316312044785
v -0.657531797882 0.734440112216 0.2668536845
v -0.657531797882 0.734440112216 0.217306204291
v -0.531377838658 0.828124222982 0.0687528934888
v -0.486539978466 0.853066998788 0.0787336518037
v -0.486539978466 0.852918484437 0.0687528934888
v -0.619786920258 0.764505061187 0.0687528934888
v -0.568742672248 0.801919374609 0.0687528934888
v -0.422069778532 0.885730200357 0.0886253496063
v -0.386098165264 0.903472350633 0.187631170296
v -0.385591539693 0.903175396785 0.147975368084
v -0.39116457069 0.906218967871 0.573673793762
v -0.393191147832 0.907406783262 0.742099590388
v -0.38875802437 0.90488278784 0.385642880991
v -0.187241041146 0.96456744215 0.336184510804
v -0.150636145914 0.973252911775 0.425298693105
v -0.149749551164 0.97310447228 0.410416616145
v -0.204973534995 0.969392736322 0.742099590388
v -0.195474006106 0.967611013235 0.563782125666
v -0.169128578119 0.976519179533 0.771774584774
v -0.167988670584 0.976370814893 0.751991248582
v -0.165962093442 0.975999603869 0.712335466174
v -0.156462564554 0.974292137959 0.534107101574
v -0.163808859907 0.975628392846 0.672768754182
v 0.11218447771 0.983200304256 0.59354624988
v 0.11218447771 0.981789867049 0.54399876967
v -0.42764280953 0.887511923444 0.494540399483
v -0.429542730279 0.888179938604 0.652896298064
v -0.43004935585 0.888328452955 0.692552110178
v -0.422449747711 0.885804532389 0.108408685798
v -0.423842968032 0.886249925733 0.207414506488
v -0.426122932816 0.886992272924 0.375751202993
v -0.486539978466 0.856630220394 0.484559611462
v -0.486539978466 0.857224128089 0.563782125666
v -0.486539978466 0.857521081937 0.613329605876
v -0.486539978466 0.857743778609 0.652896298064
v -0.486539978466 0.858189171953 0.732118802366
v -0.486539978466 0.853512392132 0.128192031892
v -0.534164354157 0.830499704052 0.712335466174
v -0.534164354157 0.830573886372 0.761882946384
v -0.533657728586 0.829980053533 0.484559611462
v -0.533784384978 0.830128493029 0.524215423576
v -0.533911041371 0.830202750205 0.553890447668
v -0.534037697764 0.8303511897 0.623221273972
v -0.619913576651 0.765024711707 0.524215423576
v -0.619660189009 0.765247483235 0.72222713427
v -0.571529262603 0.802587464624 0.652896298064
v -0.620040233044 0.764653575539 0.177739522004
v -0.620040233044 0.764802089891 0.316312044785
v -0.620040233044 0.764876272211 0.385642880991
v -0.657531797882 0.734291597864 0.3460761789
v -0.657531797882 0.734143158369 0.395534549087
v -0.619913576651 0.764505061187 0.0787336518037
v -0.531757807837 0.828421101974 0.128192031892
v -0.568869328641 0.801919374609 0.0787336518037
v -0.533531072193 0.829905796357 0.464776265368
v -0.57140260621 0.802513282304 0.573673793762
v -0.532264433408 0.828792312998 0.217306204291
v -0.532644402587 0.829089191989 0.286637020692
v -0.533531072193 0.829831539181 0.454973707295
v -0.568995985033 0.801993556929 0.0985169879957
v -0.571275949817 0.802438950272 0.524215423576
f 1 2 5
f 1 5 9
f 1 9 19
f 1 19 38
f 1 38 65
f 1 65 111
f 1 111 168
f 1 168 233
f 1 233 246
f 1 246 183
f 1 183 124
f 1 124 75
f 1 75 70
f 1 70 41
f 1 41 20
f 1 20 10
f 1 10 6
f 1 6 3
f 1 3 7
f 1 7 16
f 1 16 35
f 1 35 34
f 1 34 33
f 1 33 61
f 1 61 107
f 1 107 164
f 1 164 227
f 1 227 294
f 1 294 293
f 1 293 367
f 1 367 369
f 1 369 443
f 1 443 442
f 1 442 520
f 1 520 519
f 1 519 603
f 1 603 605
f 1 605 688
f 1 688 689
f 1 689 778
f 1 778 777
f 1 777 776
f 1 776 775
f 1 775 774
f 1 774 782
f 1 782 781
f 1 781 780
f 1 780 783
f 1 783 691
f 1 691 690
f 1 690 607
f 1 607 529
f 1 529 532
f 1 532 523
f 1 523 522
f 1 522 521
f 1 521 444
f 1 444 370
f 1 370 298
f 1 298 297
f 1 297 230
f 1 230 228
f 1 228 165
f 1 165 108
f 1 108 62
f 1 62 36
f 1 36 17
f 1 17 8
f 1 8 4
f 1 4 2
f 2 4 5
f 3 6 14
f 3 14 30
f 3 30 29
f 3 29 53
f 3 53 91
f 3 91 90
f 3 90 145
f 3 145 144
f 3 144 143
f 3 143 142
f 3 142 201
f 3 201 263
f 3 263 262
f 3 262 339
f 3 339 342
f 3 342 341
f 3 341 410
f 3 410 484
f 3 484 560
f 3 560 637
f 3 637 639
f 3 639 717
f 3 717 640
f 3 640 561
f 3 561 485
f 3 485 411
f 3 411 343
f 3 343 266
f 3 266 202
f 3 202 146
f 3 146 92
f 3 92 54
f 3 54 31
f 3 31 15
f 3 15 7
f 4 8 5
f 5 8 9
f 6 10 11
f 6 11 12
f 6 12 13
f 6 13 14
f 7 15 16
f 8 17 18
f 8 18 9
f 9 18 19
f 10 20 21
f 10 21 11
f 11 21 22
f 11 22 23
f 11 23 24
f 11 24 25
f 11 25 26
f 11 26 12
f 12 26 27
f 12 27 28
f 12 28 13
f 13 28 29
f 13 29 30
f 13 30 14
f 15 31 32
f 15 32 33
f 15 33 34
f 15 34 35
f 15 35 16
f 17 36 18
f 18 36 37
f 18 37 19
f 19 37 39
f 19 39 40
f 19 40 38
f 20 41 42
f 20 42 22
f 20 22 21
f 22 42 43
f 22 43 44
f 22 44 45
f 22 45 46
f 22 46 23
f 23 46 24
f 24 46 47
f 24 47 25
f 25 27 26
f 25 47 48
f 25 48 49
f 25 49 27
f 27 49 50
f 27 50 51
f 27 51 52
f 27 52 28
f 28 52 29
f 29 52 53
f 31 54 55
f 31 55 32
f 32 55 56
f 32 56 57
f 32 57 58
f 32 58 59
f 32 59 33
f 33 59 60
f 33 60 61
f 36 62 63
f 36 63 37
f 37 63 64
f 37 64 39
f 38 40 66
f 38 66 65
f 39 64 67
f 39 67 40
f 40 68 66
f 40 67 69
f 40 69 68
f 41 70 42
f 42 71 72
f 42 72 73
f 42 73 74
f 42 74 44
f 42 44 43
f 42 70 75
f 42 75 71
f 44 74 76
f 44 76 77
f 44 77 78
f 44 78 79
f 44 79 80
f 44 80 45
f 45 80 46
f 46 80 79
f 46 79 81
f 46 81 82
f 46 82 47
f 47 82 48
f 48 82 83
f 48 83 84
f 48 84 85
f 48 85 50
f 48 50 49
f 50 85 84
f 50 84 86
f 50 86 87
f 50 87 88
f 50 88 89
f 50 89 51
f 51 90 52
f 51 89 90
f 52 90 91
f 52 91 53
f 54 92 93
f 54 93 94
f 54 94 95
f 54 95 55
f 55 96 56
f 55 95 96
f 56 96 57
f 57 97 58
f 57 96 98
f 57 98 99
f 57 99 100
f 57 100 97
f 58 97 101
f 58 101 102
f 58 102 59
f 59 102 103
f 59 103 104
f 59 104 60
f 60 104 105
f 60 105 106
f 60 106 61
f 61 106 107
f 62 108 109
f 62 109 63
f 63 110 64
f 63 109 110
f 64 110 67
f 65 66 112
f 65 112 111
f 66 68 113
f 66 113 112
f 67 110 114
f 67 114 115
f 67 115 69
f 68 69 116
f 68 116 117
f 68 117 113
f 69 115 118
f 69 118 119
f 69 119 116
f 71 120 121
f 71 121 122
f 71 122 123
f 71 123 73
f 71 73 72
f 71 75 124
f 71 124 120
f 73 123 125
f 73 125 126
f 73 126 127
f 73 127 77
f 73 77 76
f 73 76 74
f 77 126 128
f 77 128 129
f 77 129 130
f 77 130 131
f 77 131 132
f 77 132 79
f 77 79 78
f 77 127 126
f 79 132 131
f 79 131 133
f 79 133 134
f 79 134 135
f 79 135 82
f 79 82 81
f 82 135 134
f 82 134 136
f 82 136 137
f 82 137 83
f 83 137 84
f 84 137 138
f 84 138 139
f 84 139 86
f 86 139 87
f 87 139 140
f 87 140 141
f 87 141 142
f 87 142 143
f 87 143 88
f 88 143 89
f 89 143 144
f 89 144 145
f 89 145 90
f 92 146 93
f 93 146 147
f 93 147 94
f 94 148 95
f 94 147 148
f 95 148 96
f 96 148 149
f 96 149 98
f 97 100 150
f 97 150 151
f 97 151 152
f 97 152 101
f 98 149 153
f 98 153 99
f 99 153 154
f 99 154 100
f 100 154 155
f 100 155 150
f 101 152 156
f 101 156 157
f 101 157 158
f 101 158 102
f 102 158 159
f 102 159 103
f 103 159 160
f 103 160 104
f 104 160 105
f 105 160 161
f 105 161 106
f 106 161 162
f 106 162 163
f 106 163 107
f 107 163 164
f 108 165 109
f 109 165 166
f 109 166 167
f 109 167 114
f 109 114 110
f 111 112 169
f 111 169 168
f 112 113 170
f 112 170 169
f 113 117 170
f 114 167 171
f 114 171 115
f 115 171 118
f 116 119 117
f 117 119 172
f 117 172 173
f 117 173 174
f 117 174 170
f 118 171 175
f 118 175 176
f 118 176 177
f 118 177 119
f 119 177 172
f 120 178 179
f 120 179 121
f 120 124 178
f 121 179 122
f 122 179 180
f 122 180 181
f 122 181 182
f 122 182 126
f 122 126 125
f 122 125 123
f 124 183 178
f 126 184 185
f 126 185 186
f 126 186 129
f 126 129 128
f 126 182 184
f 129 185 187
f 129 187 188
f 129 188 189
f 129 189 190
f 129 190 131
f 129 131 130
f 129 186 185
f 131 134 133
f 131 190 189
f 131 189 191
f 131 191 192
f 131 192 193
f 131 193 134
f 134 193 192
f 134 192 194
f 134 194 195
f 134 195 137
f 134 137 136
f 137 195 196
f 137 196 138
f 138 196 197
f 138 197 198
f 138 198 139
f 139 198 140
f 140 198 199
f 140 199 200
f 140 200 141
f 141 201 142
f 141 200 201
f 146 202 267
f 146 267 203
f 146 203 147
f 147 204 205
f 147 205 206
f 147 206 148
f 147 203 207
f 147 207 208
f 147 208 209
f 147 209 204
f 148 206 205
f 148 205 210
f 148 210 149
f 149 210 211
f 149 211 153
f 150 155 212
f 150 212 151
f 151 212 213
f 151 213 214
f 151 214 152
f 152 214 156
f 153 211 215
f 153 215 154
f 154 215 216
f 154 216 155
f 155 216 217
f 155 217 212
f 156 214 218
f 156 218 219
f 156 219 157
f 157 219 159
f 157 159 158
f 159 219 220
f 159 220 221
f 159 221 222
f 159 222 160
f 160 222 161
f 161 222 223
f 161 223 224
f 161 224 162
f 162 224 225
f 162 225 226
f 162 226 163
f 163 226 227
f 163 227 164
f 165 228 166
f 166 229 167
f 166 228 230
f 166 230 231
f 166 231 232
f 166 232 229
f 167 229 171
f 168 169 233
f 169 170 234
f 169 234 233
f 170 174 235
f 170 235 234
f 171 229 175
f 172 177 236
f 172 236 173
f 173 235 174
f 173 236 235
f 175 229 237
f 175 237 176
f 176 237 238
f 176 238 239
f 176 239 240
f 176 240 177
f 177 240 236
f 178 183 241
f 178 241 242
f 178 242 179
f 179 242 243
f 179 243 244
f 179 244 180
f 180 244 181
f 181 244 245
f 181 245 184
f 181 184 182
f 183 246 247
f 183 247 241
f 184 245 185
f 185 245 248
f 185 248 249
f 185 249 187
f 187 249 250
f 187 250 188
f 188 250 189
f 189 250 251
f 189 251 252
f 189 252 253
f 189 253 192
f 189 192 191
f 192 253 254
f 192 254 255
f 192 255 194
f 194 255 256
f 194 256 196
f 194 196 195
f 196 256 257
f 196 257 258
f 196 258 259
f 196 259 197
f 197 259 260
f 197 260 198
f 198 260 199
f 199 260 261
f 199 261 200
f 200 262 263
f 200 263 201
f 200 261 264
f 200 264 265
f 200 265 262
f 202 266 267
f 203 267 207
f 204 268 269
f 204 269 210
f 204 210 205
f 204 209 270
f 204 270 271
f 204 271 272
f 204 272 268
f 207 267 273
f 207 273 274
f 207 274 208
f 208 274 209
f 209 274 270
f 210 269 211
f 211 269 268
f 211 268 275
f 211 275 215
f 212 217 213
f 213 217 276
f 213 276 277
f 213 277 278
f 213 278 279
f 213 279 218
f 213 218 214
f 215 275 280
f 215 280 281
f 215 281 216
f 216 281 282
f 216 282 283
f 216 283 217
f 217 283 284
f 217 284 285
f 217 285 276
f 218 279 286
f 218 286 287
f 218 287 220
f 218 220 219
f 220 287 288
f 220 288 289
f 220 289 221
f 221 289 222
f 222 289 290
f 222 290 223
f 223 290 291
f 223 291 224
f 224 291 292
f 224 292 225
f 225 293 294
f 225 294 226
f 225 292 295
f 225 295 296
f 225 296 293
f 226 294 227
f 229 232 237
f 230 297 231
f 231 297 298
f 231 298 299
f 231 299 232
f 232 299 300
f 232 300 237
f 233 234 246
f 234 235 301
f 234 301 247
f 234 247 246
f 235 236 302
f 235 302 303
f 235 303 304
f 235 304 301
f 236 240 305
f 236 305 306
f 236 306 302
f 237 300 307
f 237 307 238
f 238 307 239
f 239 308 309
f 239 309 240
f 239 307 310
f 239 310 311
f 239 311 312
f 239 312 313
f 239 313 308
f 240 309 305
f 241 247 314
f 241 314 315
f 241 315 242
f 242 315 243
f 243 315 316
f 243 316 244
f 244 317 318
f 244 318 319
f 244 319 245
f 244 316 317
f 245 319 320
f 245 320 321
f 245 321 248
f 247 301 304
f 247 304 314
f 248 321 249
f 249 321 322
f 249 322 323
f 249 323 324
f 249 324 250
f 250 324 325
f 250 325 251
f 251 325 252
f 252 325 326
f 252 326 327
f 252 327 328
f 252 328 329
f 252 329 254
f 252 254 253
f 254 329 330
f 254 330 331
f 254 331 332
f 254 332 255
f 255 332 257
f 255 257 256
f 257 332 333
f 257 333 334
f 257 334 258
f 258 334 259
f 259 334 335
f 259 335 336
f 259 336 260
f 260 336 261
f 261 336 337
f 261 337 338
f 261 338 264
f 262 265 339
f 264 338 265
f 265 338 340
f 265 340 341
f 265 341 342
f 265 342 339
f 266 343 344
f 266 344 267
f 267 344 345
f 267 345 273
f 268 272 275
f 270 274 346
f 270 346 347
f 270 347 348
f 270 348 271
f 271 349 272
f 271 348 349
f 272 349 350
f 272 350 351
f 272 351 352
f 272 352 280
f 272 280 275
f 273 345 353
f 273 353 274
f 274 353 346
f 276 285 354
f 276 354 277
f 277 354 355
f 277 355 278
f 278 355 286
f 278 286 279
f 280 352 281
f 281 352 282
f 282 352 356
f 282 356 284
f 282 284 283
f 284 354 285
f 284 356 357
f 284 357 354
f 286 355 358
f 286 358 359
f 286 359 287
f 287 359 288
f 288 359 360
f 288 360 361
f 288 361 289
f 289 361 362
f 289 362 363
f 289 363 290
f 290 363 364
f 290 364 291
f 291 364 365
f 291 365 292
f 292 365 366
f 292 366 295
f 293 296 367
f 295 366 368
f 295 368 296
f 296 368 369
f 296 369 367
f 298 370 371
f 298 371 299
f 299 371 372
f 299 372 300
f 300 372 373
f 300 373 307
f 302 306 374
f 302 374 375
f 302 375 376
f 302 376 304
f 302 304 303
f 304 376 315
f 304 315 314
f 305 309 377
f 305 377 378
f 305 378 379
f 305 379 306
f 306 379 374
f 307 373 310
f 308 380 309
f 308 313 380
f 309 380 377
f 310 373 311
f 311 373 381
f 311 381 382
f 311 382 383
f 311 383 384
f 311 384 312
f 312 385 313
f 312 384 386
f 312 386 385
f 313 385 387
f 313 387 380
f 315 376 316
f 316 376 375
f 316 375 388
f 316 388 317
f 317 388 318
f 318 388 389
f 318 389 390
f 318 390 320
f 318 320 319
f 320 390 321
f 321 390 391
f 321 391 392
f 321 392 322
f 322 392 323
f 323 392 393
f 323 393 394
f 323 394 395
f 323 395 324
f 324 395 325
f 325 395 396
f 325 396 326
f 326 396 327
f 327 397 398
f 327 398 399
f 327 399 328
f 327 396 397
f 328 399 400
f 328 400 329
f 329 400 330
f 330 400 331
f 331 400 401
f 331 401 402
f 331 402 403
f 331 403 333
f 331 333 332
f 333 403 404
f 333 404 334
f 334 404 335
f 335 404 405
f 335 405 406
f 335 406 336
f 336 406 337
f 337 406 407
f 337 407 408
f 337 408 338
f 338 408 340
f 340 408 409
f 340 409 341
f 341 409 410
f 343 411 412
f 343 412 344
f 344 412 413
f 344 413 345
f 345 413 414
f 345 414 353
f 346 353 415
f 346 415 347
f 347 416 348
f 347 415 417
f 347 417 416
f 348 416 418
f 348 418 350
f 348 350 349
f 350 418 419
f 350 419 420
f 350 420 421
f 350 421 351
f 351 421 352
f 352 421 422
f 352 422 356
f 353 414 415
f 354 357 423
f 354 423 424
f 354 424 425
f 354 425 355
f 355 425 426
f 355 426 358
f 356 422 427
f 356 427 428
f 356 428 357
f 357 428 429
f 357 429 423
f 358 426 430
f 358 430 359
f 359 430 360
f 360 430 431
f 360 431 432
f 360 432 433
f 360 433 361
f 361 433 434
f 361 434 362
f 362 434 435
f 362 435 436
f 362 436 363
f 363 436 437
f 363 437 364
f 364 437 438
f 364 438 439
f 364 439 365
f 365 439 440
f 365 440 366
f 366 441 368
f 366 440 441
f 368 441 442
f 368 442 443
f 368 443 369
f 370 444 371
f 371 444 445
f 371 445 446
f 371 446 372
f 372 446 447
f 372 447 381
f 372 381 373
f 374 388 375
f 374 379 448
f 374 448 388
f 377 380 378
f 378 380 387
f 378 387 385
f 378 385 449
f 378 449 450
f 378 450 451
f 378 451 379
f 379 451 448
f 381 447 382
f 382 447 452
f 382 452 453
f 382 453 454
f 382 454 384
f 382 384 383
f 384 454 455
f 384 455 456
f 384 456 457
f 384 457 386
f 385 386 458
f 385 458 459
f 385 459 449
f 386 457 460
f 386 460 458
f 388 448 389
f 389 448 461
f 389 461 462
f 389 462 390
f 390 462 391
f 391 462 463
f 391 463 464
f 391 464 392
f 392 464 465
f 392 465 393
f 393 465 466
f 393 466 467
f 393 467 394
f 394 467 468
f 394 468 469
f 394 469 395
f 395 469 396
f 396 469 397
f 397 470 398
f 397 469 470
f 398 471 399
f 398 470 472
f 398 472 473
f 398 473 474
f 398 474 471
f 399 471 400
f 400 471 401
f 401 471 402
f 402 471 475
f 402 475 476
f 402 476 477
f 402 477 478
f 402 478 403
f 403 478 404
f 404 478 405
f 405 478 479
f 405 479 480
f 405 480 406
f 406 480 407
f 407 480 481
f 407 481 482
f 407 482 408
f 408 482 409
f 409 482 481
f 409 481 483
f 409 483 484
f 409 484 410
f 411 485 486
f 411 486 487
f 411 487 412
f 412 487 489
f 412 489 413
f 413 488 414
f 413 489 488
f 414 488 415
f 415 488 490
f 415 490 417
f 416 417 491
f 416 491 492
f 416 492 418
f 417 490 493
f 417 493 494
f 417 494 491
f 418 492 419
f 419 492 495
f 419 495 496
f 419 496 420
f 420 497 421
f 420 496 497
f 421 497 498
f 421 498 427
f 421 427 422
f 423 429 499
f 423 499 500
f 423 500 424
f 424 500 501
f 424 501 425
f 425 501 426
f 426 501 502
f 426 502 430
f 427 498 503
f 427 503 504
f 427 504 429
f 427 429 428
f 429 504 505
f 429 505 499
f 430 502 431
f 431 506 507
f 431 507 508
f 431 508 432
f 431 502 506
f 432 508 509
f 432 509 510
f 432 510 433
f 433 510 511
f 433 511 434
f 434 511 435
f 435 511 512
f 435 512 513
f 435 513 436
f 436 513 514
f 436 514 515
f 436 515 437
f 437 515 438
f 438 515 516
f 438 516 439
f 439 516 517
f 439 517 518
f 439 518 440
f 440 518 519
f 440 519 441
f 441 519 520
f 441 520 442
f 444 521 445
f 445 521 522
f 445 522 447
f 445 447 446
f 447 522 523
f 447 523 452
f 448 451 524
f 448 524 461
f 449 525 526
f 449 526 450
f 449 459 527
f 449 527 528
f 449 528 525
f 450 526 451
f 451 526 524
f 452 529 530
f 452 530 531
f 452 531 453
f 452 523 532
f 452 532 529
f 453 531 533
f 453 533 454
f 454 533 455
f 455 533 534
f 455 534 535
f 455 535 456
f 456 535 536
f 456 536 460
f 456 460 457
f 458 460 459
f 459 460 536
f 459 536 537
f 459 537 538
f 459 538 528
f 459 528 527
f 461 463 462
f 461 524 526
f 461 526 525
f 461 525 528
f 461 528 539
f 461 539 540
f 461 540 541
f 461 541 463
f 463 541 464
f 464 541 465
f 465 541 466
f 466 542 543
f 466 543 544
f 466 544 545
f 466 545 470
f 466 470 468
f 466 468 467
f 466 541 546
f 466 546 539
f 466 539 547
f 466 547 542
f 468 470 469
f 470 545 548
f 470 548 472
f 471 474 549
f 471 549 475
f 472 548 473
f 473 548 550
f 473 550 551
f 473 551 474
f 474 551 549
f 475 549 552
f 475 552 476
f 476 552 553
f 476 553 554
f 476 554 477
f 477 554 478
f 478 554 479
f 479 554 481
f 479 481 480
f 481 554 555
f 481 555 556
f 481 556 557
f 481 557 483
f 483 557 558
f 483 558 559
f 483 559 560
f 483 560 484
f 485 561 562
f 485 562 563
f 485 563 564
f 485 564 565
f 485 565 566
f 485 566 486
f 486 567 568
f 486 568 569
f 486 569 489
f 486 489 487
f 486 566 570
f 486 570 571
f 486 571 567
f 488 489 572
f 488 572 573
f 488 573 490
f 489 569 574
f 489 574 572
f 490 573 493
f 491 494 575
f 491 575 492
f 492 575 495
f 493 573 576
f 493 576 494
f 494 576 577
f 494 577 578
f 494 578 575
f 495 575 579
f 495 579 580
f 495 580 496
f 496 580 581
f 496 581 497
f 497 581 582
f 497 582 498
f 498 582 503
f 499 505 583
f 499 583 584
f 499 584 500
f 500 584 585
f 500 585 501
f 501 585 502
f 502 585 506
f 503 582 586
f 503 586 587
f 503 587 505
f 503 505 504
f 505 587 588
f 505 588 583
f 506 585 589
f 506 589 507
f 507 589 590
f 507 590 591
f 507 591 508
f 508 591 592
f 508 592 593
f 508 593 509
f 509 593 594
f 509 594 510
f 510 594 595
f 510 595 511
f 511 595 512
f 512 595 513
f 513 595 596
f 513 596 597
f 513 597 598
f 513 598 514
f 514 598 599
f 514 599 600
f 514 600 515
f 515 600 516
f 516 600 601
f 516 601 602
f 516 602 517
f 517 602 518
f 518 603 519
f 518 602 604
f 518 604 605
f 518 605 603
f 528 538 606
f 528 606 547
f 528 547 539
f 529 607 530
f 530 607 690
f 530 690 608
f 530 608 609
f 530 609 531
f 531 609 695
f 531 695 610
f 531 610 533
f 533 610 534
f 534 610 611
f 534 611 612
f 534 612 535
f 535 612 697
f 535 697 613
f 535 613 536
f 536 613 537
f 537 613 614
f 537 614 615
f 537 615 538
f 538 615 606
f 539 546 541
f 539 541 540
f 542 547 616
f 542 616 543
f 543 616 617
f 543 617 618
f 543 618 548
f 543 548 545
f 543 545 544
f 547 606 619
f 547 619 620
f 547 620 616
f 548 618 621
f 548 621 622
f 548 622 623
f 548 623 550
f 549 551 624
f 549 624 552
f 550 623 625
f 550 625 626
f 550 626 627
f 550 627 551
f 551 627 624
f 552 624 628
f 552 628 553
f 553 629 554
f 553 628 630
f 553 630 631
f 553 631 629
f 554 629 632
f 554 632 633
f 554 633 555
f 555 633 634
f 555 634 635
f 555 635 636
f 555 636 556
f 556 636 558
f 556 558 557
f 558 636 570
f 558 570 638
f 558 638 559
f 559 637 560
f 559 638 639
f 559 639 637
f 561 640 562
f 562 640 638
f 562 638 570
f 562 570 563
f 563 570 564
f 564 570 565
f 565 570 566
f 567 571 641
f 567 641 568
f 568 641 569
f 569 642 643
f 569 643 574
f 569 641 642
f 570 636 644
f 570 644 641
f 570 641 571
f 572 574 573
f 573 574 645
f 573 645 649
f 573 649 576
f 574 643 646
f 574 646 647
f 574 647 645
f 575 578 648
f 575 648 579
f 576 649 650
f 576 650 577
f 577 650 651
f 577 651 578
f 578 651 726
f 578 726 648
f 579 648 652
f 579 652 580
f 580 653 581
f 580 652 653
f 581 653 654
f 581 654 582
f 582 654 586
f 583 588 655
f 583 655 656
f 583 656 584
f 584 656 589
f 584 589 585
f 586 654 657
f 586 657 658
f 586 658 588
f 586 588 587
f 588 658 659
f 588 659 655
f 589 656 590
f 590 656 660
f 590 660 591
f 591 660 661
f 591 661 662
f 591 662 663
f 591 663 592
f 592 663 664
f 592 664 593
f 593 664 665
f 593 665 666
f 593 666 667
f 593 667 668
f 593 668 669
f 593 669 670
f 593 670 671
f 593 671 672
f 593 672 673
f 593 673 674
f 593 674 675
f 593 675 594
f 594 596 595
f 594 675 677
f 594 677 596
f 596 676 597
f 596 677 678
f 596 678 679
f 596 679 680
f 596 680 676
f 597 676 681
f 597 681 682
f 597 682 683
f 597 683 598
f 598 684 599
f 598 683 684
f 599 684 600
f 600 684 601
f 601 684 685
f 601 685 602
f 602 685 686
f 602 686 687
f 602 687 604
f 604 688 605
f 604 687 689
f 604 689 688
f 606 615 619
f 608 690 691
f 608 691 692
f 608 692 693
f 608 693 609
f 609 693 694
f 609 694 695
f 610 695 611
f 611 695 696
f 611 696 681
f 611 681 612
f 612 681 768
f 612 768 697
f 613 697 698
f 613 698 614
f 614 698 699
f 614 699 615
f 615 699 619
f 616 620 705
f 616 705 700
f 616 700 617
f 617 700 701
f 617 701 702
f 617 702 618
f 618 702 703
f 618 703 621
f 619 699 704
f 619 704 620
f 620 704 705
f 621 703 622
f 622 703 706
f 622 706 625
f 622 625 623
f 624 627 707
f 624 707 628
f 625 706 708
f 625 708 709
f 625 709 626
f 626 709 710
f 626 710 627
f 627 710 792
f 627 792 707
f 628 707 792
f 628 792 711
f 628 711 712
f 628 712 630
f 629 631 632
f 630 712 631
f 631 713 632
f 631 712 714
f 631 714 713
f 632 713 634
f 632 634 633
f 634 713 715
f 634 715 716
f 634 716 635
f 635 716 644
f 635 644 636
f 638 640 717
f 638 717 639
f 641 644 716
f 641 716 718
f 641 718 719
f 641 719 642
f 642 719 643
f 643 719 646
f 645 720 721
f 645 721 722
f 645 722 649
f 645 647 715
f 645 715 723
f 645 723 724
f 645 724 725
f 645 725 720
f 646 719 715
f 646 715 647
f 648 726 738
f 648 738 652
f 649 727 728
f 649 728 729
f 649 729 730
f 649 730 731
f 649 731 650
f 649 722 732
f 649 732 733
f 649 733 727
f 650 731 651
f 651 731 730
f 651 730 734
f 651 734 735
f 651 735 736
f 651 736 737
f 651 737 726
f 652 738 739
f 652 739 740
f 652 740 653
f 653 740 741
f 653 741 654
f 654 741 657
f 655 659 742
f 655 742 743
f 655 743 744
f 655 744 656
f 656 744 660
f 657 741 745
f 657 745 746
f 657 746 658
f 658 746 659
f 659 746 742
f 660 744 661
f 661 747 662
f 661 744 748
f 661 748 749
f 661 749 750
f 661 750 751
f 661 751 752
f 661 752 747
f 662 753 663
f 662 747 754
f 662 754 755
f 662 755 756
f 662 756 757
f 662 757 753
f 663 758 664
f 663 753 759
f 663 759 758
f 664 758 665
f 665 758 760
f 665 760 761
f 665 761 666
f 666 761 667
f 667 761 668
f 668 761 669
f 669 762 670
f 669 761 762
f 670 762 671
f 671 762 672
f 672 762 673
f 673 762 763
f 673 763 764
f 673 764 674
f 674 765 677
f 674 677 675
f 674 764 766
f 674 766 767
f 674 767 765
f 676 680 681
f 677 765 768
f 677 768 678
f 678 768 681
f 678 681 679
f 679 681 680
f 681 696 684
f 681 684 682
f 682 684 683
f 684 769 685
f 684 696 769
f 685 770 686
f 685 769 771
f 685 771 772
f 685 772 773
f 685 773 770
f 686 770 687
f 687 774 775
f 687 775 776
f 687 776 777
f 687 777 778
f 687 778 689
f 687 770 693
f 687 693 779
f 687 779 780
f 687 780 781
f 687 781 782
f 687 782 774
f 691 783 692
f 692 783 780
f 692 780 784
f 692 784 693
f 693 773 772
f 693 772 694
f 693 784 779
f 693 770 773
f 694 696 695
f 694 772 696
f 696 785 771
f 696 771 769
f 696 772 785
f 697 768 761
f 697 761 698
f 698 761 786
f 698 786 699
f 699 786 704
f 700 705 754
f 700 754 787
f 700 787 788
f 700 788 701
f 701 788 789
f 701 789 702
f 702 789 790
f 702 790 703
f 703 790 706
f 704 786 759
f 704 759 705
f 705 759 754
f 706 790 791
f 706 791 708
f 708 791 865
f 708 865 793
f 708 793 871
f 708 871 794
f 708 794 709
f 709 794 795
f 709 795 796
f 709 796 710
f 710 797 792
f 710 796 798
f 710 798 799
f 710 799 800
f 710 800 797
f 711 801 802
f 711 802 803
f 711 803 712
f 711 792 804
f 711 804 736
f 711 736 735
f 711 735 805
f 711 805 806
f 711 806 807
f 711 807 801
f 712 808 809
f 712 809 810
f 712 810 714
f 712 803 811
f 712 811 812
f 712 812 813
f 712 813 814
f 712 814 808
f 713 714 815
f 713 815 715
f 714 810 732
f 714 732 815
f 715 719 718
f 715 718 716
f 715 815 732
f 715 732 723
f 720 725 732
f 720 732 721
f 721 732 722
f 723 732 724
f 724 732 725
f 726 737 738
f 727 733 809
f 727 809 728
f 728 809 808
f 728 808 729
f 729 808 814
f 729 814 813
f 729 813 730
f 730 813 812
f 730 812 811
f 730 811 734
f 732 810 809
f 732 809 733
f 734 805 735
f 734 811 807
f 734 807 806
f 734 806 805
f 736 816 817
f 736 817 818
f 736 818 737
f 736 804 819
f 736 819 820
f 736 820 816
f 737 818 821
f 737 821 738
f 738 821 822
f 738 822 823
f 738 823 739
f 739 824 825
f 739 825 741
f 739 741 740
f 739 823 826
f 739 826 827
f 739 827 828
f 739 828 824
f 741 825 832
f 741 832 745
f 742 746 833
f 742 833 829
f 742 829 830
f 742 830 831
f 742 831 743
f 743 831 744
f 744 831 748
f 745 832 833
f 745 833 746
f 747 752 754
f 748 831 830
f 748 830 834
f 748 834 835
f 748 835 836
f 748 836 749
f 749 836 750
f 750 837 838
f 750 838 788
f 750 788 787
f 750 787 754
f 750 754 751
f 750 836 835
f 750 835 839
f 750 839 837
f 751 754 752
f 753 757 759
f 754 759 755
f 755 759 756
f 756 759 757
f 758 840 841
f 758 841 842
f 758 842 760
f 758 759 843
f 758 843 844
f 758 844 840
f 759 786 845
f 759 845 846
f 759 846 847
f 759 847 848
f 759 848 841
f 759 841 843
f 760 842 761
f 761 848 849
f 761 849 847
f 761 847 846
f 761 846 845
f 761 845 786
f 761 768 767
f 761 767 766
f 761 766 764
f 761 764 763
f 761 763 762
f 761 842 841
f 761 841 848
f 765 767 768
f 771 785 850
f 771 850 851
f 771 851 772
f 772 851 850
f 772 850 785
f 779 784 780
f 788 852 853
f 788 853 854
f 788 854 789
f 788 838 855
f 788 855 856
f 788 856 857
f 788 857 852
f 789 858 859
f 789 859 860
f 789 860 861
f 789 861 862
f 789 862 790
f 789 854 830
f 789 830 863
f 789 863 858
f 790 864 865
f 790 865 791
f 790 862 866
f 790 866 867
f 790 867 868
f 790 868 869
f 790 869 864
f 792 820 819
f 792 819 804
f 792 797 818
f 792 818 817
f 792 817 816
f 792 816 820
f 793 870 871
f 793 865 864
f 793 864 872
f 793 872 873
f 793 873 874
f 793 874 875
f 793 875 870
f 794 871 828
f 794 828 827
f 794 827 826
f 794 826 876
f 794 876 795
f 795 876 823
f 795 823 822
f 795 822 798
f 795 798 877
f 795 877 796
f 796 877 798
f 797 800 818
f 798 822 821
f 798 821 799
f 799 821 800
f 800 821 818
f 801 807 811
f 801 811 802
f 802 811 803
f 823 876 826
f 824 873 825
f 824 828 870
f 824 870 875
f 824 875 874
f 824 874 873
f 825 878 832
f 825 873 878
f 828 871 870
f 829 863 830
f 829 833 879
f 829 879 858
f 829 858 863
f 830 857 856
f 830 856 855
f 830 855 834
f 830 854 853
f 830 853 852
f 830 852 857
f 832 878 880
f 832 880 833
f 833 880 879
f 834 855 837
f 834 837 839
f 834 839 835
f 837 855 838
f 840 844 841
f 841 844 843
f 847 849 848
f 858 879 859
f 859 879 881
f 859 881 866
f 859 866 860
f 860 866 861
f 861 866 862
f 864 869 882
f 864 882 872
f 866 881 879
f 866 879 883
f 866 883 884
f 866 884 885
f 866 885 886
f 866 886 867
f 867 886 868
f 868 887 869
f 868 886 878
f 868 878 887
f 869 887 882
f 872 882 873
f 873 882 878
f 878 886 880
f 878 882 887
f 879 880 886
f 879 886 883
f 883 886 884
f 884 886 885
