# ABC bottle geometry; canonical radius 1 and height 1, bottom z=0.
# https://github.com/mikedh/trimesh
v -0.47929803241 0.0373976579562 0.930248993051
v -0.466713013062 0.0373976579562 0.979750833957
v -0.469617202231 0.11217336159 0.930248993051
v -0.461485367759 0.11217336159 0.922883280713
v -0.46622899401 0.0373976579562 0.922217663793
v -0.465260881049 -0.0373780456779 0.922349016661
v -0.477265092506 -0.0373780456779 0.930248993051
v -0.458581103735 0.0373976579562 0.987116546296
v -0.453740688645 0.11217336159 0.985899138405
v -0.449481156303 0.150723540322 0.984813132894
v -0.45567683971 0.118856657138 0.979610687923
v -0.464679998302 -0.0373780456779 0.979750833957
v -0.457419413096 -0.0373780456779 0.986888844886
v -0.455483262031 0.167383347344 0.930248993051
v -0.454805590445 0.1653492846 0.924065634766
v -0.417534401741 0.0382694312134 0.91053409106
v -0.417631265436 0.0373976579562 0.91053409106
v -0.408240876631 0.11217336159 0.91053409106
v -0.415791903211 -0.0373780456779 0.91053409106
v -0.458581103735 -0.112250538151 0.923417544764
v -0.452191767793 -0.15709655765 0.924599898817
v -0.463711960198 -0.112250538151 0.930248993051
v -0.454902379284 -0.0967530206157 0.979750833957
v -0.433314126488 0.0373976579562 0.992073733232
v -0.432539740918 -0.0373780456779 0.99183725846
v -0.42818334488 0.11217336159 0.990856345146
v -0.411241854639 0.184333820309 0.989507554681
v -0.387233431726 0.261918421393 0.987134083116
v -0.375616450483 0.301243434831 0.985040844207
v -0.398463182757 0.261918421393 0.979750833957
v -0.437476944846 0.18026569482 0.979610687923
v -0.441446035815 0.20477123659 0.930248993051
v -0.453450247271 -0.0908445597737 0.985881631291
v -0.41211317876 0.261918421393 0.930248993051
v -0.381134537159 0.308217321464 0.924013103521
v -0.387427084261 0.170967154357 0.91053409106
v -0.401754676995 -0.112250538151 0.91053409106
v -0.434379028287 -0.192934702627 0.930248993051
v -0.451514096207 -0.155449949687 0.930248993051
v -0.38278024685 -0.16174586531 0.91053409106
v -0.374938853752 -0.3002551856 0.925151660081
v -0.44435029984 -0.134140835005 0.979750833957
v -0.395849434962 0.0373976579562 0.996400327379
v -0.390815367338 0.11217336159 0.996050026658
v -0.39507489968 -0.0373780456779 0.996365323053
v -0.427699250972 -0.114381464591 0.989367438354
v -0.387136642887 -0.112250538151 0.995761000837
v -0.382393016637 0.167964529516 0.995375586866
v -0.370195227502 0.217847311456 0.994201996272
v -0.355964423607 0.261918421393 0.992082496691
v -0.304075200796 0.304149270832 0.994972705389
v -0.328083623709 0.327686175649 0.988439046382
v -0.302235838571 0.376794048027 0.985242284945
v -0.303203951531 0.377665746428 0.979750833957
v -0.348994204919 0.347251818673 0.930248993051
v -0.382296227798 0.309863929428 0.930248993051
v -0.423052488417 -0.18712310548 0.979750833957
v -0.385684510875 -0.241364529138 0.987142816869
v -0.396914261905 -0.185863952298 0.990129403815
v -0.306011426717 0.306377060967 0.91053409106
v -0.328277276244 0.273929070467 0.91053409106
v -0.309786940007 0.383477343575 0.923706540879
v -0.392848307242 -0.267032285538 0.929618400262
v -0.390428137125 -0.248725870553 0.979750833957
v -0.374938853752 -0.3002551856 0.925896138233
v -0.358675035098 -0.199133679699 0.91053409106
v -0.300977359093 -0.375612071405 0.925020307213
v -0.321403846394 -0.250178751126 0.91053409106
v -0.287714668158 -0.287566565515 0.91053409106
v -0.336796415784 0.0373976579562 0.999071588224
v -0.336796415784 0.11217336159 0.998572387912
v -0.336796415784 -0.0373780456779 0.9990365938
v -0.336796415784 -0.112250538151 0.998230820944
v -0.378617503347 -0.160196121042 0.995025296047
v -0.339894257487 -0.185863952298 0.996487912461
v -0.341830408552 0.190532872236 0.996794475103
v -0.318499657225 0.261918421393 0.995839792754
v -0.261963671859 0.261918421393 0.998134502109
v -0.255767913597 0.332141681062 0.995699676426
v -0.226725497916 0.375728547379 0.994753797145
v -0.276581705967 0.354031977916 0.99184602192
v -0.255767913597 0.389192077026 0.988982054089
v -0.165929905352 0.456218984465 0.986310783342
v -0.20988087137 0.441786892721 0.979750833957
v -0.261963671859 0.407789083097 0.979750833957
v -0.226047826329 0.450019932537 0.92633404384
v -0.311529438537 0.385027087843 0.930248993051
v -0.363321872509 -0.286113684942 0.979750833957
v -0.317628333104 -0.319433448699 0.987633283428
v -0.342217638765 -0.268388377272 0.990689938441
v -0.366903733264 -0.210078828126 0.993746583551
v -0.266223204201 0.339599886172 0.91053409106
v -0.226047826329 0.450019932537 0.925081601917
v -0.222369101878 0.372919649929 0.91053409106
v -0.262834921124 0.342408858478 0.91053409106
v -0.300977359093 -0.375612071405 0.927236135531
v -0.325953894966 -0.327375897429 0.979750833957
v -0.250346690616 -0.321758102529 0.91053409106
v -0.200200041191 -0.359049053222 0.91053409106
v -0.162832063648 -0.383651383831 0.91053409106
v -0.15857245645 -0.452906081404 0.92445101903
v -0.196327664206 -0.434309000477 0.930248993051
v -0.261963671859 0.0373976579562 0.999947419244
v -0.261963671859 0.11217336159 0.999781032343
v -0.261963671859 0.187045854063 0.999395677785
v -0.261963671859 -0.0373780456779 0.999964946163
v -0.261963671859 -0.18712310548 0.999246768291
v -0.261963671859 -0.112250538151 0.99977229859
v -0.316950661518 -0.245432654627 0.995795995261
v -0.267094528323 -0.267032285538 0.997048437185
v -0.187130927935 0.261918421393 0.99944820903
v -0.187130927935 0.336790988722 0.997731620632
v -0.187130927935 0.385317678928 0.995506969441
v -0.11229818401 0.437137585061 0.99301964222
v -0.189357520373 0.425514465623 0.989630173797
v -0.11229818401 0.464839479061 0.988062435479
v -0.11229818401 0.479562161891 0.979750833957
v -0.172512893827 0.459221609305 0.979750833957
v -0.191971343024 0.462224234146 0.929881135705
v -0.287617804463 -0.364860650369 0.979750833957
v -0.242989241714 -0.385201128099 0.986958903049
v -0.269224257066 -0.34287348982 0.990602343456
v -0.295459272417 -0.29531536171 0.994237030305
v -0.11229818401 0.490604174013 0.930248993051
v -0.187130927935 0.458737290829 0.923531400421
v -0.190906441225 0.392582156648 0.91053409106
v -0.250249826921 -0.390334754235 0.979750833957
v -0.11229818401 -0.40350761794 0.91053409106
v -0.11229818401 -0.459686315503 0.923216104026
v -0.0373686512468 -0.480123656928 0.930248993051
v -0.11229818401 -0.466079019965 0.930248993051
v -0.158862897824 -0.453099808794 0.930248993051
v -0.187130927935 -0.424719943783 0.979750833957
v -0.187130927935 0.11217336159 0.999903621752
v -0.187130927935 0.187045854063 0.999859824259
v -0.187130927935 -0.112250538151 1
v -0.187130927935 -0.18712310548 0.999903621752
v -0.187130927935 -0.261995597954 0.999273028963
v -0.245603064366 -0.316333960163 0.995831059001
v -0.186453256348 -0.339483410199 0.996593034365
v -0.11229818401 0.261918421393 0.999745978505
v -0.11229818401 0.336790988722 0.998922738144
v -0.11229818401 0.399749770672 0.996382790558
v -0.0373686512468 0.445176972342 0.994219523191
v -0.0373686512468 0.472007093086 0.989262346157
v -0.0373686512468 0.493800526244 0.979750833957
v -0.210945698313 -0.366216667246 0.993562640024
v -0.0955503463038 -0.453584052414 0.985907901865
v -0.186453256348 -0.398664657746 0.990015548159
v -0.0373686512468 0.504551872424 0.930248993051
v -0.11229818401 0.47191022939 0.921534510052
v -0.113072644436 0.42367413027 0.91053409106
v -0.11133007105 -0.403701345331 0.91053409106
v -0.0373686512468 -0.466660127281 0.922191363513
v -0.0373686512468 -0.417745982293 0.91053409106
v 0.0373673038384 -0.482448235902 0.930248993051
v 0.0373673038384 -0.469953418063 0.979750833957
v -0.0373686512468 -0.467435036843 0.979750833957
v -0.10203654594 -0.455618115159 0.979750833957
v -0.139404448627 -0.446125847305 0.979750833957
v 0.112200047763 0.261918421393 0.999684713508
v -0.0373686512468 0.261918421393 0.999754771671
v 0.261865535612 -0.0373780456779 0.999737234851
v -0.11229818401 -0.18712310548 0.999991206834
v 0.112200047763 -0.18712310548 0.99987736108
v -0.11229818401 -0.261995597954 0.999763505424
v -0.0373686512468 -0.261995597954 0.999938675589
v -0.11229818401 -0.336868165283 0.998309622763
v -0.0373686512468 -0.336868165283 0.9990365938
v -0.160992701423 -0.380261304209 0.995165412375
v -0.11229818401 -0.388203827795 0.99584858592
v -0.0373686512468 0.336790988722 0.99918544388
v -0.0373686512468 0.407692294258 0.996619295036
v 0.0373673038384 0.446339261829 0.99436841288
v 0.0373673038384 0.473653701049 0.989419989403
v 0.0373673038384 0.496706362245 0.979750833957
v -0.0373686512468 -0.459008269636 0.987186604459
v -0.0373686512468 -0.433437302075 0.992135057643
v -0.117235387939 -0.429659767673 0.989384935566
v 0.0373673038384 0.50687660111 0.930248993051
v -0.0373686512468 0.478787252329 0.92075500777
v -0.0384335530463 0.437040721366 0.91053409106
v -0.11229818401 0.42386785766 0.91053409106
v 0.0373673038384 -0.467822491624 0.922051247185
v 0.0373673038384 -0.419683181342 0.91053409106
v 0.112200047763 -0.463366911354 0.92262054527
v 0.112200047763 -0.473343422829 0.930248993051
v 0.112200047763 -0.460751666439 0.979750833957
v 0.155957361247 -0.451743717061 0.985426198765
v 0.112200047763 -0.455811842549 0.986442165916
v 0.0373673038384 -0.460267422818 0.987475640182
v 0.261865535612 0.11217336159 0.999667176687
v 0.261865535612 0.187045854063 0.99944820903
v 0.187032791687 0.261918421393 0.99944820903
v 0.112200047763 0.336790988722 0.999010323226
v 0.0373673038384 0.336790988722 0.999167976375
v 0.187032791687 -0.18712310548 0.999833563588
v 0.261865535612 -0.112250538151 0.999719707932
v 0.336795068375 -0.0373780456779 0.99918544388
v 0.336795068375 0.0373976579562 0.999194237046
v 0.0373673038384 -0.261995597954 0.999938675589
v 0.0373673038384 -0.336868165283 0.999124178882
v -0.0373686512468 -0.39604941283 0.996374056805
v 0.0373673038384 -0.397211777173 0.996452908135
v 0.0373673038384 0.40895144744 0.996619295036
v 0.112200047763 0.403236713989 0.996479178709
v 0.112200047763 0.440721392073 0.99367649568
v 0.112200047763 0.469101257084 0.988728082105
v 0.112200047763 0.487601549172 0.979750833957
v 0.0373673038384 -0.434696455258 0.992424083464
v 0.112200047763 0.497287469561 0.930248993051
v 0.112200047763 0.475009792782 0.921096604445
v 0.0373673038384 0.479949616672 0.920588601064
v 0.0361088243604 0.439462238891 0.91053409106
v -0.0373686512468 0.437137585061 0.91053409106
v 0.0382385531034 -0.419586317647 0.91053409106
v 0.169220052181 -0.456102433635 0.923837923453
v 0.112200047763 -0.410675231964 0.91053409106
v 0.172995565471 -0.458039632684 0.930248993051
v 0.210363543014 -0.443123222464 0.930248993051
v 0.193518916468 -0.436439926916 0.979750833957
v 0.261865535612 -0.402345328453 0.979750833957
v 0.302912162749 -0.377258679369 0.98536490406
v 0.261865535612 -0.389075526197 0.987528201134
v 0.188388060004 -0.412321839928 0.989919199618
v 0.112200047763 -0.429466040282 0.991390579491
v 0.336795068375 0.11217336159 0.998992796308
v 0.336795068375 0.187045854063 0.998257091518
v 0.261865535612 0.261918421393 0.998668706747
v 0.187032791687 0.336790988722 0.998195767107
v 0.112200047763 -0.261995597954 0.99977229859
v 0.187032791687 -0.261995597954 0.999413204703
v 0.261865535612 -0.18712310548 0.999465735948
v 0.336795068375 -0.112250538151 0.998948998815
v 0.416661805068 -0.0340847548955 0.996295264889
v 0.417823570562 0.0364290958597 0.996312732394
v 0.112200047763 -0.336868165283 0.998633712323
v 0.112200047763 -0.392078151037 0.996111291656
v 0.187032791687 0.39103241238 0.995874856493
v 0.187032791687 0.428517090464 0.9916621081
v 0.187032791687 0.458349910904 0.986713664819
v 0.234952848674 0.380280991344 0.995121614882
v 0.227304958399 0.450697978403 0.985093395256
v 0.187032791687 0.465808041158 0.979750833957
v 0.187032791687 0.475881491183 0.930248993051
v 0.235436867726 0.455056694978 0.924013103521
v 0.187032791687 0.464355160585 0.922462892122
v 0.112200047763 0.430938607989 0.91053409106
v 0.0373673038384 0.439462238891 0.91053409106
v 0.112974508189 -0.410481504574 0.91053409106
v 0.173963678431 -0.388881798806 0.91053409106
v 0.310172822811 -0.382489094344 0.923811662782
v 0.261865535612 -0.41590564694 0.930248993051
v 0.261865535612 -0.357886688879 0.992485378168
v 0.220818833618 -0.372028264393 0.99441220047
v 0.312205762715 -0.384523157088 0.930248993051
v 0.349670529097 -0.352268819123 0.930248993051
v 0.340957811878 -0.344229506698 0.979750833957
v 0.381036400911 -0.306841692309 0.979750833957
v 0.379681057738 -0.305291948041 0.98585537062
v 0.329050389261 -0.329894278649 0.988911995925
v 0.305235618883 -0.304710765869 0.994999025474
v 0.170865836728 -0.383651383831 0.995419384358
v 0.404076710864 0.11217336159 0.996470385543
v 0.392266151942 0.187045854063 0.995944914657
v 0.381326842285 0.235378891735 0.995226736786
v 0.337472739962 0.260949859296 0.996374056805
v 0.312980223141 0.313835191221 0.995515762607
v 0.260703844973 0.338050141904 0.996303998642
v 0.261865535612 -0.261995597954 0.998213294025
v 0.336795068375 -0.18712310548 0.997819205714
v 0.401366174229 -0.112250538151 0.996417854298
v 0.450157480481 -0.0068671793713 0.994718733405
v 0.450157480481 0.010954991994 0.994718733405
v 0.192357225829 -0.342970353515 0.996846996446
v 0.256057007562 0.408176537878 0.989332404321
v 0.284809056725 0.363814836856 0.993571413386
v 0.236792210899 0.455928393379 0.930248993051
v 0.31404512494 0.38618937733 0.986967666509
v 0.319950441829 0.39103241238 0.979750833957
v 0.264479358263 0.428517090464 0.979750833957
v 0.274160188442 0.434328687611 0.930248993051
v 0.326920585662 0.396844009527 0.930248993051
v 0.319660000456 0.390838684989 0.922795685728
v 0.239696400068 0.385801997405 0.91053409106
v 0.187032791687 0.410694919099 0.91053409106
v 0.261865535612 -0.339192819113 0.91053409106
v 0.262543207198 -0.338805364332 0.91053409106
v 0.309495151225 -0.308972543892 0.91053409106
v 0.384811914201 -0.311490925112 0.92354016388
v 0.261865535612 -0.320402010795 0.995892383412
v 0.3880066196 -0.314784141039 0.930248993051
v 0.451415959959 -0.228482181662 0.927393808484
v 0.412789502939 -0.261995597954 0.979750833957
v 0.443380914327 -0.214050089919 0.979750833957
v 0.458482967487 -0.168622888248 0.986810023263
v 0.391298113838 -0.255990348272 0.989358664992
v 0.375808755609 -0.22702930109 0.994753797145
v 0.355188615773 -0.277008871869 0.992459117497
v 0.332825902551 -0.255990348272 0.995743473919
v 0.446962775083 0.0607408353825 0.99442096393
v 0.441541552102 0.11217336159 0.993825405174
v 0.408917200809 0.256494279027 0.989244819238
v 0.362933294887 0.285261598819 0.993396233319
v 0.429730918324 0.187045854063 0.991775963756
v 0.3869417178 -0.18712310548 0.995559560099
v 0.438830865755 -0.112250538151 0.993422523697
v 0.444929835179 -0.0567499613111 0.994219523191
v 0.469712718517 -0.0340847548955 0.990409666177
v 0.470487178943 0.0364290958597 0.990532285292
v 0.338440778066 0.33853446038 0.990181964767
v 0.357415208211 0.356937813917 0.979750833957
v 0.386651276427 0.3133509476 0.986792486442
v 0.3643854269 0.363911700551 0.930248993051
v 0.391201250142 0.319646788367 0.922795685728
v 0.319660000456 0.319743652063 0.91053409106
v 0.277161241306 0.357034677612 0.91053409106
v 0.351897121535 -0.258992973113 0.91053409106
v 0.376195985822 -0.226738710004 0.91053409106
v 0.451415959959 -0.228482181662 0.924748808311
v 0.464969092267 -0.193031491466 0.930511758201
v 0.461774461725 -0.176662200674 0.979750833957
v 0.483846658717 -0.112250538151 0.979750833957
v 0.467195684705 -0.112250538151 0.988465316956
v 0.427213884512 -0.190997503578 0.989927963077
v 0.470487178943 0.11217336159 0.988876961892
v 0.459547869286 0.187045854063 0.986827520475
v 0.450641499533 0.22782382293 0.985093395256
v 0.497690307255 -0.0373780456779 0.979750833957
v 0.499336016946 0.0373976579562 0.979750833957
v 0.391588480355 0.319549924672 0.979750833957
v 0.397590586083 0.326523811306 0.930248993051
v 0.455481914623 0.236541181222 0.923907981617
v 0.386070393679 0.239834397149 0.91053409106
v 0.357027977998 0.277319150089 0.91053409106
v 0.395267204806 -0.193322082552 0.91053409106
v 0.396138454071 -0.191578610894 0.91053409106
v 0.460709559925 -0.18712310548 0.923146016156
v 0.494205160483 -0.112250538151 0.930248993051
v 0.48994562814 0.11217336159 0.979750833957
v 0.456159586209 0.238284652881 0.930248993051
v 0.435055352465 0.27567246727 0.930248993051
v 0.428956457898 0.265695955795 0.979750833957
v 0.468067008827 0.187045854063 0.979750833957
v 0.47765097531 0.187045854063 0.930248993051
v 0.507661578807 -0.0373780456779 0.930248993051
v 0.509694518711 0.0373976579562 0.930248993051
v 0.49952966948 0.11217336159 0.930248993051
v 0.465065955962 0.187045854063 0.92235778012
v 0.4116278123 0.187045854063 0.91053409106
v 0.42663307662 -0.113122311408 0.91053409106
v 0.473681809486 -0.112250538151 0.921289271822
v 0.474262692233 -0.0314695848358 0.919520102668
v 0.475134016354 0.0336201235536 0.919415010471
v 0.475908401924 0.11217336159 0.920991482541
v 0.432731971188 0.11217336159 0.91053409106
v 0.426826654299 -0.112250538151 0.91053409106
v 0.441831993475 -0.0321475558465 0.91053409106
v 0.443380914327 0.0340075783346 0.91053409106
v 0.44280003158 0.0413689197493 0.91053409106
f 1 2 3
f 1 3 4
f 1 4 5
f 1 5 6
f 1 6 7
f 1 7 12
f 1 12 2
f 2 8 9
f 2 9 10
f 2 10 11
f 2 11 3
f 2 12 13
f 2 13 8
f 3 11 10
f 3 10 14
f 3 14 15
f 3 15 4
f 4 16 17
f 4 17 5
f 4 15 18
f 4 18 16
f 5 17 6
f 6 19 20
f 6 20 7
f 6 17 19
f 7 20 21
f 7 21 22
f 7 22 23
f 7 23 12
f 8 24 9
f 8 13 25
f 8 25 24
f 9 24 26
f 9 26 10
f 10 27 28
f 10 28 29
f 10 29 30
f 10 30 31
f 10 31 32
f 10 32 14
f 10 26 27
f 12 23 33
f 12 33 13
f 13 33 25
f 14 32 15
f 15 32 34
f 15 34 35
f 15 35 36
f 15 36 18
f 16 18 36
f 16 36 61
f 16 61 60
f 16 60 92
f 16 92 95
f 16 95 94
f 16 94 126
f 16 126 152
f 16 152 183
f 16 183 182
f 16 182 215
f 16 215 214
f 16 214 249
f 16 249 248
f 16 248 286
f 16 286 285
f 16 285 317
f 16 317 316
f 16 316 335
f 16 335 334
f 16 334 350
f 16 350 356
f 16 356 360
f 16 360 359
f 16 359 358
f 16 358 357
f 16 357 351
f 16 351 337
f 16 337 336
f 16 336 319
f 16 319 318
f 16 318 289
f 16 289 288
f 16 288 287
f 16 287 251
f 16 251 250
f 16 250 218
f 16 218 216
f 16 216 185
f 16 185 155
f 16 155 153
f 16 153 128
f 16 128 100
f 16 100 99
f 16 99 98
f 16 98 69
f 16 69 68
f 16 68 66
f 16 66 40
f 16 40 37
f 16 37 19
f 16 19 17
f 19 37 20
f 20 37 21
f 21 38 39
f 21 39 22
f 21 37 40
f 21 40 41
f 21 41 38
f 22 39 42
f 22 42 23
f 23 42 33
f 24 43 44
f 24 44 26
f 24 25 45
f 24 45 43
f 25 33 46
f 25 46 47
f 25 47 45
f 26 44 48
f 26 48 27
f 27 48 49
f 27 49 28
f 28 49 50
f 28 50 29
f 29 50 51
f 29 51 52
f 29 52 53
f 29 53 54
f 29 54 55
f 29 55 56
f 29 56 34
f 29 34 30
f 30 34 32
f 30 32 31
f 33 42 57
f 33 57 58
f 33 58 59
f 33 59 46
f 34 56 35
f 35 60 61
f 35 61 36
f 35 56 55
f 35 55 62
f 35 62 60
f 38 63 64
f 38 64 57
f 38 57 39
f 38 41 65
f 38 65 63
f 39 57 42
f 40 66 41
f 41 67 96
f 41 96 65
f 41 66 68
f 41 68 69
f 41 69 67
f 43 70 71
f 43 71 44
f 43 45 72
f 43 72 70
f 44 71 48
f 45 47 73
f 45 73 72
f 46 74 47
f 46 59 74
f 47 74 75
f 47 75 73
f 48 71 76
f 48 76 77
f 48 77 49
f 49 77 51
f 49 51 50
f 51 77 78
f 51 78 79
f 51 79 80
f 51 80 81
f 51 81 53
f 51 53 52
f 53 81 80
f 53 80 82
f 53 82 83
f 53 83 84
f 53 84 85
f 53 85 86
f 53 86 54
f 54 87 55
f 54 86 87
f 55 87 62
f 57 64 58
f 58 64 88
f 58 88 89
f 58 89 90
f 58 90 91
f 58 91 59
f 59 91 74
f 60 62 92
f 62 87 93
f 62 93 94
f 62 94 95
f 62 95 92
f 63 65 64
f 64 65 88
f 65 96 97
f 65 97 88
f 67 69 98
f 67 98 99
f 67 99 100
f 67 100 101
f 67 101 102
f 67 102 96
f 70 103 104
f 70 104 105
f 70 105 71
f 70 72 106
f 70 106 103
f 71 105 78
f 71 78 76
f 72 73 107
f 72 107 108
f 72 108 106
f 73 75 107
f 74 91 109
f 74 109 75
f 75 109 110
f 75 110 107
f 76 78 77
f 78 105 111
f 78 111 112
f 78 112 79
f 79 112 80
f 80 112 113
f 80 113 114
f 80 114 115
f 80 115 82
f 82 115 83
f 83 115 114
f 83 114 116
f 83 116 117
f 83 117 118
f 83 118 84
f 84 118 86
f 84 86 85
f 86 118 119
f 86 119 93
f 86 93 87
f 88 97 89
f 89 97 120
f 89 120 121
f 89 121 122
f 89 122 123
f 89 123 90
f 90 123 91
f 91 123 109
f 93 119 124
f 93 124 125
f 93 125 126
f 93 126 94
f 96 127 120
f 96 120 97
f 96 102 127
f 100 128 101
f 101 128 129
f 101 129 130
f 101 130 131
f 101 131 132
f 101 132 102
f 102 132 133
f 102 133 127
f 103 134 135
f 103 135 104
f 103 106 136
f 103 136 134
f 104 135 105
f 105 135 111
f 106 108 137
f 106 137 136
f 107 110 138
f 107 138 137
f 107 137 108
f 109 123 139
f 109 139 110
f 110 139 140
f 110 140 138
f 111 135 141
f 111 141 142
f 111 142 112
f 112 142 143
f 112 143 113
f 113 143 114
f 114 144 116
f 114 143 144
f 116 145 146
f 116 146 117
f 116 144 145
f 117 146 124
f 117 124 118
f 118 124 119
f 120 127 121
f 121 147 122
f 121 127 133
f 121 133 148
f 121 148 149
f 121 149 147
f 122 147 123
f 123 147 139
f 124 146 150
f 124 150 151
f 124 151 125
f 125 151 152
f 125 152 126
f 128 153 129
f 129 154 130
f 129 153 155
f 129 155 154
f 130 156 157
f 130 157 158
f 130 158 159
f 130 159 131
f 130 154 156
f 131 159 160
f 131 160 132
f 132 160 133
f 133 160 148
f 134 161 162
f 134 162 135
f 134 136 163
f 134 163 161
f 135 162 141
f 136 137 164
f 136 164 165
f 136 165 163
f 137 138 166
f 137 166 167
f 137 167 164
f 138 140 168
f 138 168 169
f 138 169 166
f 139 147 170
f 139 170 140
f 140 170 171
f 140 171 168
f 141 162 172
f 141 172 142
f 142 172 173
f 142 173 143
f 143 173 144
f 144 174 175
f 144 175 145
f 144 173 174
f 145 175 176
f 145 176 146
f 146 176 150
f 147 149 170
f 148 159 158
f 148 158 177
f 148 177 178
f 148 178 179
f 148 179 149
f 148 160 159
f 149 179 170
f 150 176 180
f 150 180 181
f 150 181 151
f 151 181 182
f 151 182 183
f 151 183 152
f 154 184 156
f 154 155 185
f 154 185 184
f 156 184 186
f 156 186 187
f 156 187 157
f 157 187 188
f 157 188 189
f 157 189 190
f 157 190 191
f 157 191 177
f 157 177 158
f 161 192 193
f 161 193 194
f 161 194 195
f 161 195 196
f 161 196 162
f 161 163 192
f 162 196 172
f 163 165 197
f 163 197 198
f 163 198 199
f 163 199 200
f 163 200 192
f 164 167 201
f 164 201 165
f 165 201 197
f 166 169 167
f 167 169 202
f 167 202 201
f 168 171 203
f 168 203 169
f 169 203 204
f 169 204 202
f 170 179 178
f 170 178 171
f 171 178 203
f 172 196 205
f 172 205 173
f 173 205 174
f 174 205 206
f 174 206 207
f 174 207 208
f 174 208 175
f 175 208 176
f 176 208 209
f 176 209 180
f 177 191 210
f 177 210 178
f 178 210 203
f 180 211 212
f 180 212 213
f 180 213 181
f 180 209 211
f 181 213 214
f 181 214 215
f 181 215 182
f 184 185 186
f 185 216 186
f 186 217 187
f 186 216 218
f 186 218 217
f 187 217 219
f 187 219 189
f 187 189 188
f 189 219 220
f 189 220 221
f 189 221 222
f 189 222 223
f 189 223 224
f 189 224 225
f 189 225 226
f 189 226 190
f 190 226 210
f 190 210 191
f 192 200 227
f 192 227 193
f 193 228 229
f 193 229 194
f 193 227 228
f 194 229 195
f 195 230 206
f 195 206 205
f 195 205 196
f 195 229 230
f 197 201 231
f 197 231 232
f 197 232 233
f 197 233 198
f 198 234 199
f 198 233 234
f 199 234 235
f 199 235 236
f 199 236 200
f 200 236 227
f 201 202 231
f 202 204 237
f 202 237 232
f 202 232 231
f 203 210 204
f 204 210 238
f 204 238 237
f 206 230 239
f 206 239 207
f 207 240 241
f 207 241 208
f 207 239 242
f 207 242 240
f 208 241 209
f 209 241 243
f 209 243 244
f 209 244 245
f 209 245 211
f 210 226 238
f 211 245 246
f 211 246 247
f 211 247 212
f 212 247 248
f 212 248 249
f 212 249 213
f 213 249 214
f 217 220 219
f 217 218 250
f 217 250 251
f 217 251 252
f 217 252 220
f 220 252 253
f 220 253 222
f 220 222 221
f 222 253 223
f 223 254 255
f 223 255 224
f 223 253 256
f 223 256 257
f 223 257 258
f 223 258 259
f 223 259 260
f 223 260 261
f 223 261 262
f 223 262 254
f 224 255 225
f 225 255 263
f 225 263 226
f 226 263 238
f 227 236 264
f 227 264 228
f 228 264 265
f 228 265 266
f 228 266 267
f 228 267 229
f 229 268 269
f 229 269 230
f 229 267 268
f 230 269 239
f 232 270 233
f 232 237 270
f 233 270 271
f 233 271 234
f 234 272 235
f 234 271 272
f 235 272 273
f 235 273 236
f 236 273 274
f 236 274 264
f 237 238 263
f 237 263 275
f 237 275 270
f 239 269 242
f 240 243 241
f 240 242 276
f 240 276 243
f 242 269 268
f 242 268 277
f 242 277 276
f 243 278 245
f 243 245 244
f 243 276 279
f 243 279 280
f 243 280 281
f 243 281 282
f 243 282 278
f 245 278 246
f 246 278 282
f 246 282 283
f 246 283 284
f 246 284 285
f 246 285 286
f 246 286 247
f 247 286 248
f 251 287 252
f 252 257 256
f 252 256 253
f 252 287 288
f 252 288 289
f 252 289 290
f 252 290 257
f 254 262 255
f 255 262 291
f 255 291 263
f 257 290 292
f 257 292 259
f 257 259 258
f 259 292 293
f 259 293 294
f 259 294 260
f 260 294 295
f 260 295 296
f 260 296 297
f 260 297 298
f 260 298 299
f 260 299 261
f 261 299 262
f 262 299 298
f 262 298 300
f 262 300 270
f 262 270 291
f 263 291 275
f 264 274 301
f 264 301 265
f 265 301 302
f 265 302 266
f 266 303 304
f 266 304 268
f 266 268 267
f 266 302 305
f 266 305 303
f 268 304 277
f 270 300 271
f 270 275 291
f 271 300 306
f 271 306 272
f 272 307 308
f 272 308 273
f 272 306 307
f 273 308 309
f 273 309 310
f 273 310 274
f 274 310 301
f 276 277 279
f 277 311 279
f 277 304 311
f 279 312 280
f 279 311 313
f 279 313 312
f 280 312 314
f 280 314 283
f 280 283 282
f 280 282 281
f 283 314 284
f 284 314 315
f 284 315 316
f 284 316 317
f 284 317 285
f 289 318 290
f 290 318 319
f 290 319 320
f 290 320 292
f 292 320 293
f 293 320 321
f 293 321 322
f 293 322 295
f 293 295 294
f 295 322 296
f 296 322 323
f 296 323 324
f 296 324 307
f 296 307 325
f 296 325 297
f 297 325 298
f 298 325 307
f 298 307 306
f 298 306 300
f 301 310 326
f 301 326 302
f 302 326 327
f 302 327 305
f 303 305 328
f 303 328 313
f 303 313 304
f 304 313 311
f 305 327 328
f 307 324 308
f 308 324 309
f 309 324 329
f 309 329 330
f 309 330 310
f 310 330 326
f 312 331 314
f 312 313 331
f 313 328 331
f 314 331 332
f 314 332 315
f 315 332 333
f 315 333 334
f 315 334 335
f 315 335 316
f 319 336 320
f 320 336 337
f 320 337 338
f 320 338 339
f 320 339 321
f 321 339 322
f 322 339 323
f 323 339 329
f 323 329 324
f 326 330 340
f 326 340 327
f 327 340 328
f 328 341 342
f 328 342 343
f 328 343 331
f 328 340 344
f 328 344 345
f 328 345 341
f 329 339 346
f 329 346 347
f 329 347 330
f 330 347 340
f 331 343 342
f 331 342 332
f 332 342 333
f 333 342 341
f 333 341 345
f 333 345 348
f 333 348 349
f 333 349 350
f 333 350 334
f 337 351 338
f 338 351 352
f 338 352 339
f 339 352 346
f 340 347 348
f 340 348 345
f 340 345 344
f 346 352 353
f 346 353 347
f 347 353 354
f 347 354 355
f 347 355 348
f 348 355 349
f 349 355 356
f 349 356 350
f 351 357 352
f 352 357 358
f 352 358 353
f 353 358 359
f 353 359 354
f 354 359 355
f 355 359 360
f 355 360 356
